<svg xmlns="http://www.w3.org/2000/svg" width="264" height="81" viewBox="0 0 264 81" fill="none"><path d="M24.5574 47.7641C37.7347 47.7641 48.4171 37.0818 48.4171 23.9045C48.4171 10.7271 37.7347 0.0447998 24.5574 0.0447998C11.3801 0.0447998 0.697754 10.7271 0.697754 23.9045C0.697754 37.0818 11.3801 47.7641 24.5574 47.7641Z" fill="#0E293B"></path><path d="M42.3732 19.9705V19.9476C42.3675 18.2507 41.7529 16.7618 40.642 15.755L40.4654 15.5946L39.8785 15.566C38.1358 15.4792 35.4549 15.3465 32.8723 15.6299C33.0632 13.4606 32.9544 11.2904 32.8809 9.82251C32.8551 9.30141 32.8351 8.89103 32.8351 8.61903V8.33271L32.6337 8.13611C31.5419 7.07483 29.9719 6.50506 28.1996 6.53465C26.7528 6.56042 25.3995 6.99371 24.448 7.71713C23.442 6.9164 21.9809 6.43921 20.4682 6.43921H20.4453C18.7484 6.44494 17.2595 7.05956 16.2536 8.16951L16.0923 8.34798L16.0637 8.93493C15.9806 10.5965 15.8566 13.1113 16.0904 15.5794C13.8695 15.3694 11.6286 15.4839 10.1255 15.5565C9.60439 15.5822 9.194 15.6032 8.922 15.6032H8.63569L8.43909 15.8046C7.37876 16.8945 6.80613 18.4645 6.83953 20.2368C6.8653 21.6836 7.29859 23.0369 8.02202 23.9885C7.22129 24.9944 6.74219 26.4575 6.74219 27.9682V27.9912C6.74791 29.6881 7.36254 31.1769 8.47344 32.1838L8.65 32.3441L9.23695 32.3727C10.9548 32.4586 13.5937 32.5894 16.1458 32.3193C15.9721 34.4419 16.077 36.5501 16.1458 37.9864C16.1715 38.5075 16.1925 38.9179 16.1925 39.1899V39.4715L16.3939 39.6681C17.4848 40.7341 19.0547 41.3039 20.827 41.2724C22.2748 41.2466 23.6272 40.8133 24.5787 40.0899C25.5875 40.8925 27.0506 41.3697 28.5661 41.3697H28.589C30.2859 41.364 31.7748 40.7494 32.7817 39.6394L32.9429 39.4619L32.9716 38.875C33.0527 37.2411 33.1749 34.7816 32.9554 32.3537C35.201 32.5722 37.4744 32.4596 38.9947 32.3832C39.5158 32.3575 39.9262 32.3365 40.1982 32.3365H40.4797L40.6763 32.1361C41.7367 31.0442 42.3093 29.4743 42.2759 27.702C42.2501 26.2551 41.8168 24.9018 41.0934 23.9503C41.8941 22.9444 42.3732 21.4813 42.3732 19.9705ZM39.8117 16.9002H39.9071C40.6315 17.6485 41.0295 18.7212 41.0342 19.9466V19.9648C41.0342 21.089 40.684 22.2295 40.1304 22.9969L39.8441 22.7392C38.4001 21.4173 37.2596 20.3732 34.489 20.3732C33.4461 20.3753 32.4112 20.5561 31.4293 20.9077C32.0926 19.8168 32.4848 18.4416 32.7091 16.9947C35.3232 16.6779 38.1673 16.8182 39.8117 16.9002ZM24.803 37.9454L24.531 38.2432C23.0259 36.7935 22.2786 35.2015 22.3082 33.5037C22.3454 31.3458 23.5403 29.3836 24.6264 27.953C26.0809 29.6155 26.8215 31.4756 26.8215 33.4884C26.8177 35.7436 26.0599 36.572 24.803 37.9454ZM9.86876 23.9379C11.3185 22.4328 12.9104 21.6855 14.6082 21.7151C16.7661 21.7523 18.7283 22.9472 20.1589 24.0324C18.4964 25.4878 16.6363 26.2274 14.6235 26.2274C12.3721 26.2274 11.5437 25.4687 10.1703 24.2118L9.86876 23.9379ZM24.2275 9.86355L24.4995 9.56578C26.0036 11.0203 26.7528 12.6074 26.7223 14.3053C26.685 16.4631 25.4901 18.4253 24.4041 19.856C22.9486 18.1934 22.209 16.3333 22.209 14.3205C22.2118 12.0701 22.9706 11.2369 24.2275 9.86355ZM29.2857 21.3267C28.0215 22.2276 26.8002 22.8069 25.6219 23.0646C25.7688 21.697 26.3768 20.3761 27.4505 19.0886C28.2531 18.1257 29.6751 17.553 31.3109 17.22C30.9979 18.9827 30.3947 20.5393 29.2905 21.3276L29.2857 21.3267ZM21.6249 19.1459C22.6184 20.5403 23.2197 21.8783 23.4325 23.1715C22.1088 23.0007 20.8299 22.3975 19.5815 21.3582C18.5499 20.4992 17.9667 18.9274 17.646 17.1465C19.3611 17.469 20.8614 18.0694 21.6297 19.1459H21.6249ZM19.74 26.4813C21.0398 25.5546 22.291 24.9696 23.5031 24.7214C23.3867 26.1435 22.773 27.514 21.6602 28.8491C20.8394 29.8341 19.3697 30.4115 17.688 30.7398C17.9982 28.916 18.6043 27.2916 19.74 26.4813ZM25.6572 24.6451C26.957 24.8264 28.2149 25.4277 29.4423 26.4508C30.4969 27.3288 31.0838 28.9513 31.3987 30.7808C29.7162 30.4544 28.2435 29.8551 27.4858 28.7919C26.4665 27.3546 25.8519 25.9764 25.6581 24.646L25.6572 24.6451ZM28.9565 23.9045C30.619 22.449 32.4791 21.7094 34.4919 21.7094C36.7433 21.7094 37.5717 22.4681 38.9451 23.725L39.2428 23.997C37.7931 25.5012 36.2012 26.2484 34.5034 26.2189C32.3493 26.1864 30.3871 24.9925 28.9565 23.9045ZM28.2235 7.87079C29.5081 7.84693 30.6839 8.22677 31.5037 8.92061C31.5114 9.18593 31.5276 9.51042 31.5467 9.89027C31.6164 11.2856 31.7318 13.6009 31.5075 15.8256C29.9557 16.1024 28.5127 16.5681 27.4209 17.3345C27.8137 16.38 28.0294 15.3619 28.0574 14.3301C28.0928 12.2896 27.1985 10.336 25.4625 8.64193C26.1802 8.17619 27.1746 7.89083 28.2235 7.87079ZM17.3998 9.00078L17.4046 8.90534C18.1509 8.1781 19.2236 7.77535 20.4539 7.77535H20.471C21.5953 7.77535 22.7358 8.12561 23.5031 8.67915L23.2454 8.96547C21.9236 10.4095 20.8795 11.5499 20.8795 14.3205C20.8794 15.2516 21.0216 16.1773 21.3013 17.0653C20.2363 16.3925 18.8848 15.9897 17.459 15.7559C17.1879 13.2383 17.3196 10.5717 17.3998 9.00078ZM9.22168 16.9375C9.487 16.9298 9.81149 16.9136 10.1923 16.8945C11.6153 16.8239 13.9955 16.7036 16.2612 16.948C16.4979 18.4511 16.9026 19.8712 17.5707 20.9955C16.6352 20.6179 15.6396 20.4107 14.6311 20.3837C12.5907 20.3484 10.637 21.2427 8.943 22.9797C8.47917 22.2648 8.19381 21.2675 8.17949 20.2177C8.15182 18.9293 8.53166 17.7535 9.22168 16.9375ZM9.30376 31.0433L9.20832 31.0385C8.48394 30.2903 8.08596 29.2185 8.08119 27.9921V27.974C8.08119 26.8497 8.43145 25.7092 8.98499 24.9419L9.27131 25.1996C10.7153 26.5214 11.8558 27.5655 14.6264 27.5655C15.5992 27.5657 16.5657 27.4104 17.4895 27.1055C16.8749 28.1983 16.5113 29.5497 16.3042 30.9593C13.7149 31.258 10.9262 31.1196 9.30376 31.0385V31.0433ZM20.806 39.9382C19.5224 39.962 18.3466 39.5822 17.5267 38.8883C17.5182 38.623 17.5019 38.2985 17.4828 37.9187C17.4151 36.5539 17.3034 34.3101 17.5077 32.1303C19.0118 31.8717 20.4204 31.4365 21.5161 30.7283C21.1824 31.6082 20.9998 32.5382 20.9759 33.4789C20.9406 35.5194 21.8348 37.473 23.5718 39.167C22.8532 39.6328 21.8558 39.9181 20.806 39.9382ZM31.6316 38.8101L31.6268 38.9055C30.8786 39.6308 29.8068 40.0336 28.5804 40.0336H28.5661C27.4419 40.0336 26.3004 39.6833 25.5331 39.1298L25.7908 38.8435C27.1126 37.3995 28.1567 36.259 28.1567 33.4884C28.1571 32.5901 28.0246 31.6967 27.7635 30.8371C28.819 31.5195 30.1657 31.9309 31.5906 32.1733C31.8378 34.6537 31.7089 37.2659 31.6316 38.8082V38.8101ZM39.8937 31.008C39.6284 31.0156 39.3039 31.0318 38.9231 31.0509C37.4916 31.1225 35.0731 31.2418 32.7874 30.9908C32.5621 29.4972 32.1737 28.079 31.5314 26.9451C32.4708 27.3247 33.4705 27.5329 34.4833 27.5598C36.5238 27.5951 38.4774 26.7008 40.1715 24.9638C40.6353 25.6796 40.9207 26.676 40.935 27.7258C40.9636 29.0104 40.5838 30.1853 39.8937 31.0061V31.008Z" fill="#2AF188"></path><path d="M57.1353 61.6524H55.3778C54.8341 60.0001 54.7582 59.792 54.6697 59.535H51.4454C51.1925 60.2326 50.927 60.9547 50.7121 61.6524H49.1189C50.2822 58.3845 51.2684 55.7041 52.3684 53.0604H53.8731C54.9731 55.7164 55.9467 58.3845 57.1353 61.6524ZM54.3283 58.3967C54.0122 57.4543 53.6961 56.5609 53.3926 55.6919C53.2282 55.2268 53.1397 54.8718 53.0639 54.7372C53.0259 54.8107 52.9501 55.0432 52.8742 55.3002C52.5581 56.2916 52.1535 57.3197 51.7868 58.3967H54.3283Z" fill="#0E293B"></path><path d="M61.8024 56.1692H59.9943V61.6524H58.4137V56.4629L57.7562 56.1692L57.4781 55.8632L58.1356 55.0187L58.4137 54.8229C58.4137 53.1339 58.8563 52.1915 60.4368 51.9834C60.9805 51.9467 61.6001 52.0324 61.9667 52.118L61.8024 53.2563C60.3104 52.987 60.0069 53.6602 59.9943 55.0187H61.8024V56.1692Z" fill="#0E293B"></path><path d="M67.1146 55.031C67.0261 55.4104 66.9249 55.802 66.8238 56.1692C66.4824 56.0835 66.2421 56.0591 65.8881 56.0713C65.4203 56.0713 65.1042 56.157 64.9524 56.2182V61.6524H63.3593V55.3737C63.9156 55.1411 64.6616 54.933 65.6858 54.9086C66.1157 54.8963 66.6847 54.9453 67.1146 55.031Z" fill="#0E293B"></path><path d="M70.0803 53.2073C70.0803 53.7214 69.6631 54.0763 69.1573 54.0763C68.6515 54.0763 68.2216 53.7214 68.2216 53.2073C68.2216 52.7055 68.6515 52.3506 69.1573 52.3506C69.6631 52.3506 70.0803 52.7055 70.0803 53.2073ZM69.9539 61.6524H68.3607V55.0187H69.9539V61.6524Z" fill="#0E293B"></path><path d="M76.1721 61.3586C75.8055 61.5789 75.1606 61.787 74.364 61.787C72.4295 61.787 71.3041 60.4407 71.3041 58.3355C71.3041 56.2304 72.5306 54.8841 74.3387 54.8841C75.11 54.8841 75.717 55.0799 76.1089 55.3002C75.9825 55.6674 75.8687 56.0223 75.7422 56.3895C75.4388 56.2304 75.0848 56.0958 74.5663 56.0958C73.4537 56.0958 72.9226 56.9403 72.9226 58.3233C72.9226 59.6819 73.441 60.5508 74.6169 60.5508C75.0974 60.5508 75.5273 60.404 75.8434 60.2204L76.1721 61.3586Z" fill="#0E293B"></path><path d="M82.332 61.3831C81.8136 61.5789 80.84 61.7748 79.702 61.7748C77.9571 61.7748 76.9203 61.1261 76.9203 59.6819C76.9203 58.1397 78.2985 57.5522 79.9929 57.4421C80.271 57.4176 80.6124 57.4421 80.8021 57.4543C80.7768 56.5853 80.5113 56.0468 79.4871 56.0468C78.7411 56.0468 78.1468 56.2304 77.7296 56.4017L77.4514 55.3002C77.8686 55.1166 78.7031 54.8841 79.6894 54.8841C81.2699 54.8841 82.1803 55.5817 82.2941 56.9648C82.3194 57.2218 82.332 57.4666 82.332 57.7358V61.3831ZM80.8021 60.5876V58.4457C80.5745 58.4212 80.309 58.409 79.9549 58.4335C79.1331 58.5314 78.4629 58.7884 78.4629 59.6451C78.4629 60.404 78.9813 60.6977 79.8158 60.6977C80.2584 60.6977 80.5492 60.661 80.8021 60.5876Z" fill="#0E293B"></path><path d="M89.5309 61.6524H87.9504V58.2009C87.9504 56.9525 87.9377 56.0591 86.6354 56.0591C86.1043 56.0591 85.8135 56.1325 85.5733 56.2059V61.6524H83.9801V55.3859C84.5617 55.0799 85.4974 54.8963 86.7239 54.8963C89.278 54.8963 89.5309 56.3528 89.5309 57.9684V61.6524Z" fill="#0E293B"></path><path d="M103.851 61.6524H102.245C102.106 59.5227 101.967 57.2585 101.79 55.4226C101.752 55.4471 101.676 55.6919 101.575 55.9979C101.171 57.0871 100.235 59.5227 99.6786 61.0771H98.6039C98.0855 59.5472 97.1119 57.0504 96.7325 55.9979C96.6314 55.7286 96.5555 55.4716 96.5176 55.4226C96.3785 56.8546 96.2015 59.3514 96.0497 61.6524H94.5451C94.798 58.7762 95.0509 55.7408 95.3796 53.0604H96.9601C97.5418 54.5169 98.2878 56.4017 98.8947 58.0785C99.0338 58.4824 99.1349 58.8251 99.1855 58.9597C99.2361 58.9597 99.3625 58.4579 99.489 58.1152C100.121 56.4262 100.855 54.5536 101.499 53.0604H103.017C103.345 55.7408 103.611 58.7762 103.851 61.6524Z" fill="#0E293B"></path><path d="M111.424 58.5803L107.15 58.8741C107.277 59.9756 107.884 60.5631 109.034 60.5631C109.818 60.5631 110.425 60.3672 110.817 60.1837L111.121 61.3341C110.691 61.5544 109.869 61.787 108.883 61.787C106.683 61.787 105.545 60.4407 105.545 58.3355C105.545 56.0958 106.885 54.8841 108.592 54.8841C110.223 54.8841 111.26 55.802 111.399 57.6379C111.412 57.8705 111.424 58.103 111.424 58.5803ZM109.894 57.6624C109.869 56.5731 109.388 56.0223 108.567 56.0223C107.707 56.0223 107.125 56.7077 107.1 57.8705L109.894 57.6624Z" fill="#0E293B"></path><path d="M118.536 61.3097C118.043 61.5544 117.133 61.787 116.007 61.787C113.934 61.787 112.669 60.5141 112.669 58.3845C112.669 56.2671 113.858 54.9208 115.717 54.9208C116.235 54.9208 116.677 55.0432 116.956 55.1534V52.0324H118.536V61.3097ZM116.956 60.4896V56.2671C116.741 56.1692 116.387 56.0468 115.982 56.0468C114.73 56.0468 114.275 57.0259 114.275 58.3233C114.275 59.743 114.869 60.612 116.033 60.612C116.475 60.612 116.766 60.5753 116.956 60.4896Z" fill="#0E293B"></path><path d="M122.2 53.2073C122.2 53.7214 121.783 54.0763 121.277 54.0763C120.772 54.0763 120.342 53.7214 120.342 53.2073C120.342 52.7055 120.772 52.3506 121.277 52.3506C121.783 52.3506 122.2 52.7055 122.2 53.2073ZM122.074 61.6524H120.481V55.0187H122.074V61.6524Z" fill="#0E293B"></path><path d="M128.292 61.3586C127.926 61.5789 127.281 61.787 126.484 61.787C124.55 61.787 123.424 60.4407 123.424 58.3355C123.424 56.2304 124.651 54.8841 126.459 54.8841C127.23 54.8841 127.837 55.0799 128.229 55.3002C128.103 55.6674 127.989 56.0223 127.862 56.3895C127.559 56.2304 127.205 56.0958 126.686 56.0958C125.574 56.0958 125.043 56.9403 125.043 58.3233C125.043 59.6819 125.561 60.5508 126.737 60.5508C127.217 60.5508 127.647 60.404 127.963 60.2204L128.292 61.3586Z" fill="#0E293B"></path><path d="M134.452 61.3831C133.934 61.5789 132.96 61.7748 131.822 61.7748C130.077 61.7748 129.04 61.1261 129.04 59.6819C129.04 58.1397 130.419 57.5522 132.113 57.4421C132.391 57.4176 132.733 57.4421 132.922 57.4543C132.897 56.5853 132.631 56.0468 131.607 56.0468C130.861 56.0468 130.267 56.2304 129.85 56.4017L129.571 55.3002C129.989 55.1166 130.823 54.8841 131.809 54.8841C133.39 54.8841 134.3 55.5817 134.414 56.9648C134.439 57.2218 134.452 57.4666 134.452 57.7358V61.3831ZM132.922 60.5876V58.4457C132.695 58.4212 132.429 58.409 132.075 58.4335C131.253 58.5314 130.583 58.7884 130.583 59.6451C130.583 60.404 131.101 60.6977 131.936 60.6977C132.378 60.6977 132.669 60.661 132.922 60.5876Z" fill="#0E293B"></path><path d="M138.945 60.9425L138.667 61.7503C136.72 61.6524 136.125 60.9914 136.125 59.3636V52.0324H137.719V58.7762C137.719 60.5019 138.009 60.6855 138.945 60.9425Z" fill="#0E293B"></path><path d="M149.601 61.2485C149.171 61.53 148.324 61.7992 147.236 61.7992C144.821 61.7992 143.392 59.9878 143.392 57.3564C143.392 54.7495 144.96 52.9013 147.262 52.9013C148.4 52.9013 149.183 53.2318 149.55 53.4766L149.12 54.6393C148.728 54.4068 148.185 54.1987 147.489 54.1987C146.414 54.1987 145.656 54.8229 145.365 55.8877C145.188 56.3773 145.112 56.9403 145.125 57.54C145.175 58.923 145.719 60.0857 146.857 60.3672C147.11 60.4407 147.375 60.4652 147.666 60.4529C148.362 60.4284 148.829 60.2449 149.171 60.0735L149.601 61.2485Z" fill="#0E293B"></path><path d="M156.741 58.5803L152.467 58.8741C152.593 59.9756 153.2 60.5631 154.351 60.5631C155.135 60.5631 155.742 60.3672 156.134 60.1837L156.437 61.3341C156.007 61.5544 155.185 61.787 154.199 61.787C151.999 61.787 150.861 60.4407 150.861 58.3355C150.861 56.0958 152.201 54.8841 153.908 54.8841C155.539 54.8841 156.576 55.802 156.715 57.6379C156.728 57.8705 156.741 58.103 156.741 58.5803ZM155.211 57.6624C155.185 56.5731 154.705 56.0223 153.883 56.0223C153.023 56.0223 152.442 56.7077 152.416 57.8705L155.211 57.6624Z" fill="#0E293B"></path><path d="M163.84 61.6524H162.259V58.2009C162.259 56.9525 162.247 56.0591 160.944 56.0591C160.413 56.0591 160.123 56.1325 159.882 56.2059V61.6524H158.289V55.3859C158.871 55.0799 159.807 54.8963 161.033 54.8963C163.587 54.8963 163.84 56.3528 163.84 57.9684V61.6524Z" fill="#0E293B"></path><path d="M169.544 61.481C169.291 61.5912 168.874 61.7258 168.356 61.738C166.383 61.7992 166.093 60.4529 166.042 59.0699C166.029 58.2499 166.017 57.0259 166.017 56.1937H165.157V55.0432H166.017V53.2563H167.61V55.0187H169.393V56.1692H167.61V59.0699C167.61 60.049 167.736 60.4652 168.381 60.5386C168.748 60.5753 169.089 60.5019 169.405 60.355C169.443 60.7344 169.494 61.1016 169.544 61.481Z" fill="#0E293B"></path><path d="M174.825 55.031C174.736 55.4104 174.635 55.802 174.534 56.1692C174.192 56.0835 173.952 56.0591 173.598 56.0713C173.13 56.0713 172.814 56.157 172.662 56.2182V61.6524H171.069V55.3737C171.626 55.1411 172.372 54.933 173.396 54.9086C173.826 54.8963 174.395 54.9453 174.825 55.031Z" fill="#0E293B"></path><path d="M181.498 58.5803L177.224 58.8741C177.351 59.9756 177.958 60.5631 179.108 60.5631C179.892 60.5631 180.499 60.3672 180.891 60.1837L181.194 61.3341C180.765 61.5544 179.943 61.787 178.956 61.787C176.756 61.787 175.618 60.4407 175.618 58.3355C175.618 56.0958 176.959 54.8841 178.666 54.8841C180.297 54.8841 181.334 55.802 181.473 57.6379C181.485 57.8705 181.498 58.103 181.498 58.5803ZM179.968 57.6624C179.943 56.5731 179.462 56.0223 178.64 56.0223C177.781 56.0223 177.199 56.7077 177.174 57.8705L179.968 57.6624Z" fill="#0E293B"></path><path d="M192.333 58.3355C192.333 60.3672 191.207 61.7992 189.273 61.7992C187.351 61.7992 186.213 60.3672 186.213 58.3355C186.213 56.3038 187.376 54.8841 189.273 54.8841C191.195 54.8841 192.333 56.3038 192.333 58.3355ZM190.727 58.3233C190.727 57.0627 190.31 56.0468 189.273 56.0468C188.236 56.0468 187.819 57.0749 187.819 58.3233C187.819 59.6084 188.236 60.5753 189.273 60.5753C190.31 60.5753 190.727 59.5962 190.727 58.3233Z" fill="#0E293B"></path><path d="M197.641 56.1692H195.832V61.6524H194.252V56.4629L193.594 56.1692L193.316 55.8632L193.974 55.0187L194.252 54.8229C194.252 53.1339 194.694 52.1915 196.275 51.9834C196.819 51.9467 197.438 52.0324 197.805 52.118L197.641 53.2563C196.149 52.987 195.845 53.6602 195.832 55.0187H197.641V56.1692Z" fill="#0E293B"></path><path d="M207.915 61.6524H202.743V53.0604H207.75V54.2966H204.399V56.6098H207.371V57.846H204.399V60.4162H207.915V61.6524Z" fill="#0E293B"></path><path d="M215.762 61.6524H214.03C213.651 60.9425 213.107 60.0368 212.589 59.2412C212.133 59.792 211.451 61.0649 211.134 61.6524H209.491C210.173 60.4896 210.97 59.2902 211.729 58.2131L210.502 56.3528C210.211 55.8999 209.921 55.4716 209.63 55.0187H211.362L212.652 57.1361H212.664C213.107 56.4385 213.549 55.7286 213.992 55.0187H215.598C214.89 56.0591 214.194 57.0871 213.499 58.1397C214.258 59.2412 215.079 60.4652 215.762 61.6524Z" fill="#0E293B"></path><path d="M221.086 61.3586C220.719 61.5789 220.074 61.787 219.278 61.787C217.343 61.787 216.218 60.4407 216.218 58.3355C216.218 56.2304 217.444 54.8841 219.253 54.8841C220.024 54.8841 220.631 55.0799 221.023 55.3002C220.896 55.6674 220.783 56.0223 220.656 56.3895C220.353 56.2304 219.999 56.0958 219.48 56.0958C218.368 56.0958 217.836 56.9403 217.836 58.3233C217.836 59.6819 218.355 60.5508 219.531 60.5508C220.011 60.5508 220.441 60.404 220.757 60.2204L221.086 61.3586Z" fill="#0E293B"></path><path d="M227.802 58.5803L223.529 58.8741C223.655 59.9756 224.262 60.5631 225.412 60.5631C226.196 60.5631 226.803 60.3672 227.195 60.1837L227.499 61.3341C227.069 61.5544 226.247 61.787 225.261 61.787C223.061 61.787 221.923 60.4407 221.923 58.3355C221.923 56.0958 223.263 54.8841 224.97 54.8841C226.601 54.8841 227.638 55.802 227.777 57.6379C227.79 57.8705 227.802 58.103 227.802 58.5803ZM226.272 57.6624C226.247 56.5731 225.767 56.0223 224.945 56.0223C224.085 56.0223 223.503 56.7077 223.478 57.8705L226.272 57.6624Z" fill="#0E293B"></path><path d="M232.196 60.9425L231.918 61.7503C229.97 61.6524 229.376 60.9914 229.376 59.3636V52.0324H230.969V58.7762C230.969 60.5019 231.26 60.6855 232.196 60.9425Z" fill="#0E293B"></path><path d="M236.246 60.9425L235.968 61.7503C234.02 61.6524 233.426 60.9914 233.426 59.3636V52.0324H235.019V58.7762C235.019 60.5019 235.31 60.6855 236.246 60.9425Z" fill="#0E293B"></path><path d="M243.027 58.5803L238.753 58.8741C238.88 59.9756 239.487 60.5631 240.637 60.5631C241.421 60.5631 242.028 60.3672 242.42 60.1837L242.724 61.3341C242.294 61.5544 241.472 61.787 240.486 61.787C238.285 61.787 237.148 60.4407 237.148 58.3355C237.148 56.0958 238.488 54.8841 240.195 54.8841C241.826 54.8841 242.863 55.802 243.002 57.6379C243.014 57.8705 243.027 58.103 243.027 58.5803ZM241.497 57.6624C241.472 56.5731 240.991 56.0223 240.169 56.0223C239.31 56.0223 238.728 56.7077 238.703 57.8705L241.497 57.6624Z" fill="#0E293B"></path><path d="M250.126 61.6524H248.546V58.2009C248.546 56.9525 248.533 56.0591 247.231 56.0591C246.7 56.0591 246.409 56.1325 246.169 56.2059V61.6524H244.576V55.3859C245.157 55.0799 246.093 54.8963 247.319 54.8963C249.874 54.8963 250.126 56.3528 250.126 57.9684V61.6524Z" fill="#0E293B"></path><path d="M256.438 61.3586C256.071 61.5789 255.426 61.787 254.63 61.787C252.695 61.787 251.57 60.4407 251.57 58.3355C251.57 56.2304 252.796 54.8841 254.604 54.8841C255.376 54.8841 255.983 55.0799 256.375 55.3002C256.248 55.6674 256.134 56.0223 256.008 56.3895C255.704 56.2304 255.35 56.0958 254.832 56.0958C253.719 56.0958 253.188 56.9403 253.188 58.3233C253.188 59.6819 253.707 60.5508 254.883 60.5508C255.363 60.5508 255.793 60.404 256.109 60.2204L256.438 61.3586Z" fill="#0E293B"></path><path d="M263.154 58.5803L258.88 58.8741C259.007 59.9756 259.614 60.5631 260.764 60.5631C261.548 60.5631 262.155 60.3672 262.547 60.1837L262.851 61.3341C262.421 61.5544 261.599 61.787 260.613 61.787C258.412 61.787 257.274 60.4407 257.274 58.3355C257.274 56.0958 258.615 54.8841 260.322 54.8841C261.953 54.8841 262.99 55.802 263.129 57.6379C263.141 57.8705 263.154 58.103 263.154 58.5803ZM261.624 57.6624C261.599 56.5731 261.118 56.0223 260.296 56.0223C259.437 56.0223 258.855 56.7077 258.83 57.8705L261.624 57.6624Z" fill="#0E293B"></path><path d="M50.6496 77.9963H49.8206V71.0953H50.6496V77.9963Z" fill="#0E293B"></path><path d="M55.993 77.9963H55.2029V75.1325C55.2029 74.0784 55.1737 73.2332 53.9544 73.2332C53.4277 73.2332 53.1058 73.3128 52.901 73.3923V77.9963H52.1012V72.9548C52.5206 72.746 53.1546 72.5968 54.0422 72.5968C55.8759 72.5968 55.993 73.8696 55.993 74.9933V77.9963Z" fill="#0E293B"></path><path d="M63.145 75.3314C63.145 74.0088 62.6086 73.2233 61.5259 73.2233C61.0674 73.2233 60.7846 73.273 60.5895 73.3625V77.2207C60.7846 77.3202 61.1259 77.4693 61.5356 77.4693C62.6573 77.4693 63.145 76.6141 63.145 75.3314ZM63.9644 75.3115C63.9644 77.0019 63.0865 78.0958 61.6527 78.0958C61.204 78.0958 60.8041 77.9665 60.5895 77.8472V79.9851H59.7994V72.9349C60.1701 72.7559 60.7455 72.5968 61.5454 72.5968C63.0475 72.5968 63.9644 73.6509 63.9644 75.3115Z" fill="#0E293B"></path><path d="M68.0409 77.3798V75.2916C67.9044 75.2817 67.7483 75.2618 67.563 75.2618C67.4557 75.2618 67.3386 75.2717 67.2118 75.2817C66.451 75.3811 65.817 75.6297 65.817 76.4749C65.817 77.2207 66.2949 77.5091 67.0655 77.5091C67.4752 77.5091 67.7971 77.4594 68.0409 77.3798ZM68.8115 77.7875C68.4603 77.9466 67.7678 78.0958 66.9777 78.0958C65.7487 78.0958 65.0269 77.5588 65.0269 76.4849C65.0269 75.3115 65.9828 74.8143 67.2411 74.7049C67.3094 74.7049 67.3776 74.695 67.4459 74.695C67.6703 74.695 67.9044 74.7149 68.0409 74.7248C68.0312 73.8 67.8361 73.2332 66.8704 73.2332C66.2559 73.2332 65.856 73.3824 65.6024 73.5116L65.4561 72.9051C65.7195 72.7658 66.2754 72.5869 66.9485 72.5869C68.0897 72.5869 68.7725 73.1835 68.8017 74.337C68.8017 74.5259 68.8115 74.7248 68.8115 74.9237V77.7875Z" fill="#0E293B"></path><path d="M72.7291 72.6863C72.6706 72.9051 72.6121 73.1238 72.5536 73.3327C72.3487 73.273 72.1537 73.2531 71.9098 73.2531H71.7635C71.3831 73.2531 71.1197 73.3426 71.0027 73.4122V77.9963H70.2029V72.9647C70.554 72.7957 71.0319 72.6465 71.7245 72.6167H71.8513C72.1537 72.6167 72.4755 72.6465 72.7291 72.6863Z" fill="#0E293B"></path><path d="M74.7371 76.0274C74.7371 76.992 74.8639 77.4096 75.6149 77.4096C75.8393 77.4096 76.0441 77.3599 76.2099 77.2704C76.2392 77.4793 76.2782 77.6781 76.2977 77.877C76.1417 77.9566 75.849 78.0461 75.4881 78.056H75.4686C74.1226 78.056 73.9665 76.9522 73.947 75.8683V73.3227H73.3228V72.736H73.947V71.2146H74.7371V72.6962H76.1904V73.2929H74.7371V76.0274Z" fill="#0E293B"></path><path d="M81.4119 77.9963H80.6219V75.1325C80.6219 74.0784 80.5926 73.2332 79.3734 73.2332C78.8466 73.2332 78.5248 73.3128 78.3199 73.3923V77.9963H77.5201V72.9548C77.9395 72.746 78.5735 72.5968 79.4611 72.5968C81.2949 72.5968 81.4119 73.8696 81.4119 74.9933V77.9963Z" fill="#0E293B"></path><path d="M86.1159 74.8441C86.0964 73.7503 85.638 73.2233 84.8577 73.2233C84.0579 73.2233 83.5019 73.8895 83.4726 75.0529L86.1159 74.8441ZM86.8865 75.3711L83.4921 75.6197C83.5604 76.813 84.1066 77.4395 85.1698 77.4395C85.7941 77.4395 86.2135 77.2704 86.4671 77.1412L86.6329 77.7676C86.3695 77.9267 85.8038 78.0958 85.121 78.0958C83.5409 78.0958 82.6825 77.1014 82.6825 75.3413C82.6825 73.5116 83.6872 72.5869 84.8674 72.5869C85.9989 72.5869 86.75 73.263 86.867 74.695C86.8768 74.8242 86.8865 74.9634 86.8865 75.3711Z" fill="#0E293B"></path><path d="M90.688 72.6863C90.6294 72.9051 90.5709 73.1238 90.5124 73.3327C90.3076 73.273 90.1125 73.2531 89.8686 73.2531H89.7223C89.3419 73.2531 89.0786 73.3426 88.9615 73.4122V77.9963H88.1617V72.9647C88.5128 72.7957 88.9908 72.6465 89.6833 72.6167H89.8101C90.1125 72.6167 90.4344 72.6465 90.688 72.6863Z" fill="#0E293B"></path><path d="M94.637 76.5843C94.637 77.4693 93.9152 78.0958 92.7739 78.0958C92.0522 78.0958 91.5644 77.9068 91.3304 77.7676L91.5352 77.1213C91.701 77.2505 92.1302 77.4395 92.7349 77.4395C93.3787 77.4395 93.8274 77.1412 93.8274 76.6042C93.8274 76.0672 93.5055 75.8683 92.7447 75.5601C91.8668 75.1922 91.4474 74.7546 91.4474 74.0486C91.4474 73.2133 92.0912 72.5869 93.1251 72.5869C93.7298 72.5869 94.1883 72.7559 94.4321 72.9051C94.3638 73.1039 94.2956 73.3028 94.237 73.5116C94.0517 73.4023 93.7103 73.2233 93.1641 73.2233C92.5984 73.2233 92.2277 73.5216 92.2277 74.0088C92.2277 74.5259 92.6179 74.7347 93.2616 75.0032C94.1785 75.3612 94.637 75.7987 94.637 76.5843Z" fill="#0E293B"></path><path d="M99.6851 77.9963H98.895V75.1623C98.895 74.0287 98.817 73.263 97.666 73.263C97.2563 73.263 96.8174 73.3724 96.5931 73.5017V77.9963H95.7933V70.2202H96.5931V72.9051C96.993 72.7161 97.3734 72.6266 97.7441 72.6266H97.7831C99.5778 72.6266 99.6851 73.8895 99.6851 75.0231V77.9963Z" fill="#0E293B"></path><path d="M102.029 77.9963H101.239V72.6962H102.029V77.9963ZM102.146 71.1947C102.146 71.503 101.921 71.7118 101.629 71.7118C101.356 71.7118 101.122 71.503 101.122 71.1947C101.122 70.8865 101.356 70.6776 101.629 70.6776C101.921 70.6776 102.146 70.8865 102.146 71.1947Z" fill="#0E293B"></path><path d="M106.77 75.3314C106.77 74.0088 106.234 73.2233 105.151 73.2233C104.693 73.2233 104.41 73.273 104.215 73.3625V77.2207C104.41 77.3202 104.751 77.4693 105.161 77.4693C106.283 77.4693 106.77 76.6141 106.77 75.3314ZM107.59 75.3115C107.59 77.0019 106.712 78.0958 105.278 78.0958C104.829 78.0958 104.429 77.9665 104.215 77.8472V79.9851H103.425V72.9349C103.795 72.7559 104.371 72.5968 105.171 72.5968C106.673 72.5968 107.59 73.6509 107.59 75.3115Z" fill="#0E293B"></path><path d="M117.792 72.6962C117.294 74.6254 116.758 76.3755 116.192 77.9963H115.499C115.158 76.9522 114.778 75.749 114.436 74.516C114.358 74.2574 114.329 73.9989 114.29 73.8995C113.91 75.3214 113.461 76.7832 113.071 77.9963H112.368C111.803 76.3755 111.266 74.6254 110.769 72.6962H111.598C111.871 73.9492 112.271 75.3612 112.612 76.5346C112.69 76.8031 112.71 77.0019 112.759 77.0716L112.905 76.5644C113.276 75.3115 113.675 73.9293 113.988 72.6962H114.661C114.934 73.9492 115.314 75.2916 115.704 76.5644C115.773 76.7732 115.812 76.992 115.851 77.0716C115.89 77.0318 115.929 76.7832 115.997 76.5346C116.368 75.3811 116.748 73.9193 117.021 72.6962H117.792Z" fill="#0E293B"></path><path d="M119.483 77.9963H118.693V72.6962H119.483V77.9963ZM119.6 71.1947C119.6 71.503 119.375 71.7118 119.083 71.7118C118.81 71.7118 118.576 71.503 118.576 71.1947C118.576 70.8865 118.81 70.6776 119.083 70.6776C119.375 70.6776 119.6 70.8865 119.6 71.1947Z" fill="#0E293B"></path><path d="M121.864 76.0274C121.864 76.992 121.991 77.4096 122.742 77.4096C122.966 77.4096 123.171 77.3599 123.337 77.2704C123.366 77.4793 123.405 77.6781 123.425 77.877C123.269 77.9566 122.976 78.0461 122.615 78.056H122.596C121.249 78.056 121.093 76.9522 121.074 75.8683V73.3227H120.45V72.736H121.074V71.2146H121.864V72.6962H123.317V73.2929H121.864V76.0274Z" fill="#0E293B"></path><path d="M128.539 77.9963H127.749V75.1623C127.749 74.0287 127.671 73.263 126.52 73.263C126.11 73.263 125.671 73.3724 125.447 73.5017V77.9963H124.647V70.2202H125.447V72.9051C125.847 72.7161 126.227 72.6266 126.598 72.6266H126.637C128.432 72.6266 128.539 73.8895 128.539 75.0231V77.9963Z" fill="#0E293B"></path><path d="M136.959 77.9963H136.374C136.247 77.9963 136.13 77.9864 136.003 77.9864C135.203 76.7434 134.189 75.4905 133.243 74.5756V77.9963H132.413V71.0953H133.243V74.2177C134.101 73.2531 135.184 71.9902 135.866 71.0953H136.803C136.022 72.0499 134.891 73.3426 134.023 74.327C135.008 75.3115 136.218 76.7832 136.959 77.9963Z" fill="#0E293B"></path><path d="M138.962 77.9963H138.172V72.6962H138.962V77.9963ZM139.079 71.1947C139.079 71.503 138.854 71.7118 138.562 71.7118C138.289 71.7118 138.054 71.503 138.054 71.1947C138.054 70.8865 138.289 70.6776 138.562 70.6776C138.854 70.6776 139.079 70.8865 139.079 71.1947Z" fill="#0E293B"></path><path d="M144.25 77.9963H143.46V75.1325C143.46 74.0784 143.43 73.2332 142.211 73.2332C141.684 73.2332 141.362 73.3128 141.158 73.3923V77.9963H140.358V72.9548C140.777 72.746 141.411 72.5968 142.299 72.5968C144.133 72.5968 144.25 73.8696 144.25 74.9933V77.9963Z" fill="#0E293B"></path><path d="M148.846 77.0119V73.3525C148.651 73.263 148.368 73.2133 147.92 73.2133C146.866 73.2133 146.33 74.0685 146.33 75.3314C146.33 76.6639 146.915 77.3202 147.803 77.3202C148.242 77.3202 148.622 77.1809 148.846 77.0119ZM149.627 77.877C149.627 79.3388 148.866 80.0448 147.432 80.0448C146.759 80.0448 146.203 79.9155 145.823 79.7365C145.881 79.5177 145.949 79.3089 146.027 79.0902C146.31 79.2393 146.818 79.3785 147.305 79.3885C147.803 79.3885 148.164 79.2692 148.407 79.0404C148.71 78.8117 148.856 78.4438 148.856 77.9566V77.6284C148.671 77.7477 148.251 77.9267 147.686 77.9267C146.437 77.9267 145.52 77.0417 145.52 75.3413C145.52 73.7404 146.379 72.5968 147.929 72.5968C148.739 72.5968 149.285 72.7658 149.627 72.925V77.877Z" fill="#0E293B"></path><path d="M152.129 70.4986C151.953 71.314 151.622 72.0897 151.202 72.8255C151.036 72.7857 150.861 72.746 150.695 72.7062C151.017 71.9007 151.241 71.1251 151.28 70.439L151.466 70.4091C151.612 70.3694 151.768 70.3395 151.963 70.3395C152.061 70.3495 152.109 70.439 152.129 70.4986Z" fill="#0E293B"></path><path d="M155.36 76.5843C155.36 77.4693 154.638 78.0958 153.497 78.0958C152.775 78.0958 152.288 77.9068 152.053 77.7676L152.258 77.1213C152.424 77.2505 152.853 77.4395 153.458 77.4395C154.102 77.4395 154.55 77.1412 154.55 76.6042C154.55 76.0672 154.229 75.8683 153.468 75.5601C152.59 75.1922 152.17 74.7546 152.17 74.0486C152.17 73.2133 152.814 72.5869 153.848 72.5869C154.453 72.5869 154.911 72.7559 155.155 72.9051C155.087 73.1039 155.019 73.3028 154.96 73.5116C154.775 73.4023 154.433 73.2233 153.887 73.2233C153.321 73.2233 152.951 73.5216 152.951 74.0088C152.951 74.5259 153.341 74.7347 153.985 75.0032C154.902 75.3612 155.36 75.7987 155.36 76.5843Z" fill="#0E293B"></path><path d="M161.578 71.6521C160.115 71.6521 159.472 73.0144 159.472 74.5955C159.491 75.8882 159.93 76.9522 160.847 77.2903C161.052 77.3699 161.266 77.4096 161.51 77.4096H161.588C162.193 77.4096 162.603 77.2505 162.885 77.0914L163.12 77.7179C162.856 77.9068 162.242 78.1157 161.432 78.1157C159.735 78.1157 158.603 76.6937 158.603 74.5458C158.603 72.4178 159.813 70.966 161.452 70.966C162.271 70.966 162.827 71.2047 163.081 71.3936L162.846 72.0201C162.573 71.8411 162.144 71.6521 161.578 71.6521Z" fill="#0E293B"></path><path d="M167.788 75.3513C167.788 74.2077 167.398 73.2133 166.413 73.2133C165.418 73.2133 165.018 74.2077 165.018 75.3513C165.018 76.5048 165.418 77.4494 166.413 77.4494C167.398 77.4494 167.788 76.5048 167.788 75.3513ZM168.598 75.3513C168.598 76.9622 167.808 78.1057 166.413 78.1057C165.008 78.1057 164.209 76.9622 164.209 75.3513C164.209 73.7304 165.008 72.5869 166.403 72.5869C167.808 72.5869 168.598 73.7304 168.598 75.3513Z" fill="#0E293B"></path><path d="M171.68 77.5886L171.514 78.1157C170.519 77.9963 170.031 77.6682 170.031 76.3258V70.2202H170.821V75.6695C170.821 77.2704 170.987 77.3798 171.68 77.5886Z" fill="#0E293B"></path><path d="M174.219 77.5886L174.053 78.1157C173.058 77.9963 172.571 77.6682 172.571 76.3258V70.2202H173.361V75.6695C173.361 77.2704 173.527 77.3798 174.219 77.5886Z" fill="#0E293B"></path><path d="M178.261 74.8441C178.241 73.7503 177.783 73.2233 177.002 73.2233C176.203 73.2233 175.647 73.8895 175.617 75.0529L178.261 74.8441ZM179.031 75.3711L175.637 75.6197C175.705 76.813 176.251 77.4395 177.315 77.4395C177.939 77.4395 178.358 77.2704 178.612 77.1412L178.778 77.7676C178.514 77.9267 177.949 78.0958 177.266 78.0958C175.686 78.0958 174.827 77.1014 174.827 75.3413C174.827 73.5116 175.832 72.5869 177.012 72.5869C178.144 72.5869 178.895 73.263 179.012 74.695C179.021 74.8242 179.031 74.9634 179.031 75.3711Z" fill="#0E293B"></path><path d="M183.379 77.0119V73.3525C183.184 73.263 182.901 73.2133 182.452 73.2133C181.399 73.2133 180.862 74.0685 180.862 75.3314C180.862 76.6639 181.448 77.3202 182.335 77.3202C182.774 77.3202 183.155 77.1809 183.379 77.0119ZM184.159 77.877C184.159 79.3388 183.398 80.0448 181.965 80.0448C181.292 80.0448 180.736 79.9155 180.355 79.7365C180.414 79.5177 180.482 79.3089 180.56 79.0902C180.843 79.2393 181.35 79.3785 181.838 79.3885C182.335 79.3885 182.696 79.2692 182.94 79.0404C183.242 78.8117 183.389 78.4438 183.389 77.9566V77.6284C183.203 77.7477 182.784 77.9267 182.218 77.9267C180.97 77.9267 180.053 77.0417 180.053 75.3413C180.053 73.7404 180.911 72.5968 182.462 72.5968C183.272 72.5968 183.818 72.7658 184.159 72.925V77.877Z" fill="#0E293B"></path><path d="M188.94 74.8441C188.921 73.7503 188.462 73.2233 187.682 73.2233C186.882 73.2233 186.326 73.8895 186.297 75.0529L188.94 74.8441ZM189.711 75.3711L186.317 75.6197C186.385 76.813 186.931 77.4395 187.994 77.4395C188.618 77.4395 189.038 77.2704 189.292 77.1412L189.457 77.7676C189.194 77.9267 188.628 78.0958 187.945 78.0958C186.365 78.0958 185.507 77.1014 185.507 75.3413C185.507 73.5116 186.512 72.5869 187.692 72.5869C188.823 72.5869 189.574 73.263 189.691 74.695C189.701 74.8242 189.711 74.9634 189.711 75.3711Z" fill="#0E293B"></path><path d="M198.019 77.9963H197.189V74.7447H194.156V77.9963H193.317V71.0953H194.156V74.0884H197.189V71.0953H198.019V77.9963Z" fill="#0E293B"></path><path d="M203.239 75.3513C203.239 74.2077 202.849 73.2133 201.864 73.2133C200.869 73.2133 200.469 74.2077 200.469 75.3513C200.469 76.5048 200.869 77.4494 201.864 77.4494C202.849 77.4494 203.239 76.5048 203.239 75.3513ZM204.049 75.3513C204.049 76.9622 203.259 78.1057 201.864 78.1057C200.459 78.1057 199.66 76.9622 199.66 75.3513C199.66 73.7304 200.459 72.5869 201.854 72.5869C203.259 72.5869 204.049 73.7304 204.049 75.3513Z" fill="#0E293B"></path><path d="M208.379 76.5843C208.379 77.4693 207.657 78.0958 206.516 78.0958C205.794 78.0958 205.307 77.9068 205.073 77.7676L205.277 77.1213C205.443 77.2505 205.872 77.4395 206.477 77.4395C207.121 77.4395 207.57 77.1412 207.57 76.6042C207.57 76.0672 207.248 75.8683 206.487 75.5601C205.609 75.1922 205.19 74.7546 205.19 74.0486C205.19 73.2133 205.833 72.5869 206.867 72.5869C207.472 72.5869 207.931 72.7559 208.174 72.9051C208.106 73.1039 208.038 73.3028 207.979 73.5116C207.794 73.4023 207.453 73.2233 206.906 73.2233C206.341 73.2233 205.97 73.5216 205.97 74.0088C205.97 74.5259 206.36 74.7347 207.004 75.0032C207.921 75.3612 208.379 75.7987 208.379 76.5843Z" fill="#0E293B"></path><path d="M212.881 75.3314C212.881 74.0088 212.345 73.2233 211.262 73.2233C210.804 73.2233 210.521 73.273 210.326 73.3625V77.2207C210.521 77.3202 210.862 77.4693 211.272 77.4693C212.393 77.4693 212.881 76.6141 212.881 75.3314ZM213.7 75.3115C213.7 77.0019 212.823 78.0958 211.389 78.0958C210.94 78.0958 210.54 77.9665 210.326 77.8472V79.9851H209.536V72.9349C209.906 72.7559 210.482 72.5968 211.281 72.5968C212.784 72.5968 213.7 73.6509 213.7 75.3115Z" fill="#0E293B"></path><path d="M215.904 77.9963H215.114V72.6962H215.904V77.9963ZM216.021 71.1947C216.021 71.503 215.797 71.7118 215.504 71.7118C215.231 71.7118 214.997 71.503 214.997 71.1947C214.997 70.8865 215.231 70.6776 215.504 70.6776C215.797 70.6776 216.021 70.8865 216.021 71.1947Z" fill="#0E293B"></path><path d="M218.286 76.0274C218.286 76.992 218.412 77.4096 219.163 77.4096C219.388 77.4096 219.593 77.3599 219.758 77.2704C219.788 77.4793 219.827 77.6781 219.846 77.877C219.69 77.9566 219.398 78.0461 219.037 78.056H219.017C217.671 78.056 217.515 76.9522 217.496 75.8683V73.3227H216.871V72.736H217.496V71.2146H218.286V72.6962H219.739V73.2929H218.286V76.0274Z" fill="#0E293B"></path><path d="M223.57 77.3798V75.2916C223.434 75.2817 223.278 75.2618 223.092 75.2618C222.985 75.2618 222.868 75.2717 222.741 75.2817C221.98 75.3811 221.346 75.6297 221.346 76.4749C221.346 77.2207 221.824 77.5091 222.595 77.5091C223.004 77.5091 223.326 77.4594 223.57 77.3798ZM224.341 77.7875C223.99 77.9466 223.297 78.0958 222.507 78.0958C221.278 78.0958 220.556 77.5588 220.556 76.4849C220.556 75.3115 221.512 74.8143 222.77 74.7049C222.839 74.7049 222.907 74.695 222.975 74.695C223.2 74.695 223.434 74.7149 223.57 74.7248C223.56 73.8 223.365 73.2332 222.4 73.2332C221.785 73.2332 221.385 73.3824 221.132 73.5116L220.985 72.9051C221.249 72.7658 221.805 72.5869 222.478 72.5869C223.619 72.5869 224.302 73.1835 224.331 74.337C224.331 74.5259 224.341 74.7248 224.341 74.9237V77.7875Z" fill="#0E293B"></path><path d="M227.41 77.5886L227.244 78.1157C226.249 77.9963 225.761 77.6682 225.761 76.3258V70.2202H226.551V75.6695C226.551 77.2704 226.717 77.3798 227.41 77.5886Z" fill="#0E293B"></path><path d="M229.514 77.2307C229.358 78.0063 228.988 78.8813 228.568 79.6371L228.041 79.4879C228.315 78.8018 228.49 78.1057 228.588 77.4594C228.607 77.34 228.617 77.2008 228.636 77.0914C228.968 77.0318 229.124 76.9821 229.339 76.9821C229.475 76.9821 229.544 77.0815 229.514 77.2307Z" fill="#0E293B"></path><path d="M236.604 77.9963H233.171V71.0953H234V77.34H236.604V77.9963Z" fill="#0E293B"></path><path d="M241.245 75.3513C241.245 74.2077 240.855 73.2133 239.869 73.2133C238.874 73.2133 238.475 74.2077 238.475 75.3513C238.475 76.5048 238.874 77.4494 239.869 77.4494C240.855 77.4494 241.245 76.5048 241.245 75.3513ZM242.054 75.3513C242.054 76.9622 241.264 78.1057 239.869 78.1057C238.465 78.1057 237.665 76.9622 237.665 75.3513C237.665 73.7304 238.465 72.5869 239.86 72.5869C241.264 72.5869 242.054 73.7304 242.054 75.3513Z" fill="#0E293B"></path><path d="M247.35 77.9963H246.56V75.1325C246.56 74.0784 246.531 73.2332 245.312 73.2332C244.785 73.2332 244.463 73.3128 244.258 73.3923V77.9963H243.458V72.9548C243.878 72.746 244.512 72.5968 245.4 72.5968C247.233 72.5968 247.35 73.8696 247.35 74.9933V77.9963Z" fill="#0E293B"></path><path d="M251.986 77.3301V73.4818C251.781 73.3724 251.43 73.2332 251.04 73.2332C249.84 73.2332 249.431 74.2276 249.431 75.3612C249.431 76.634 249.986 77.4693 251.059 77.4693C251.518 77.4693 251.81 77.4196 251.986 77.3301ZM252.776 77.7676C252.435 77.9367 251.83 78.1057 251.03 78.1057C249.518 78.1057 248.621 77.0417 248.621 75.401C248.621 73.7105 249.509 72.6266 250.923 72.6266C251.372 72.6266 251.742 72.7559 251.986 72.8653V70.2202H252.776V77.7676Z" fill="#0E293B"></path><path d="M257.75 75.3513C257.75 74.2077 257.36 73.2133 256.375 73.2133C255.38 73.2133 254.98 74.2077 254.98 75.3513C254.98 76.5048 255.38 77.4494 256.375 77.4494C257.36 77.4494 257.75 76.5048 257.75 75.3513ZM258.56 75.3513C258.56 76.9622 257.77 78.1057 256.375 78.1057C254.97 78.1057 254.17 76.9622 254.17 75.3513C254.17 73.7304 254.97 72.5869 256.365 72.5869C257.77 72.5869 258.56 73.7304 258.56 75.3513Z" fill="#0E293B"></path><path d="M263.856 77.9963H263.066V75.1325C263.066 74.0784 263.036 73.2332 261.817 73.2332C261.29 73.2332 260.968 73.3128 260.764 73.3923V77.9963H259.964V72.9548C260.383 72.746 261.017 72.5968 261.905 72.5968C263.739 72.5968 263.856 73.8696 263.856 74.9933V77.9963Z" fill="#0E293B"></path><path d="M85.665 45.0883L89.1925 4.52258H98.599L105.654 31.2684L113.885 4.52258H122.993L127.407 45.0883H118.878L116.381 18.117L108.593 45.0883H102.416L95.289 18.0445L93.0099 45.0883H85.665Z" fill="#0E293B"></path><path d="M175.848 4.52258H155.561V45.0883H175.848V39.0642H164.162V27.6685H174.374V21.5719L164.162 21.427V10.5466H175.848V4.52258Z" fill="#0E293B"></path><path d="M152.469 5.98833L150.705 11.9399C150.705 11.9399 149.602 10.6191 146.3 10.6191C141.814 10.6191 137.771 15.3707 137.771 24.8014C137.771 34.5623 142.048 38.8387 145.39 38.8387C147.469 38.7961 149.483 38.1033 151.148 36.8575L152.469 43.4695C152.469 43.4695 151.817 45.0802 143.868 45.0802C134.203 45.0802 128.163 38.6857 128.22 24.8095C128.268 11.1668 135.347 4.50648 144.327 4.51453C151.366 4.52259 152.469 5.98833 152.469 5.98833Z" fill="#0E293B"></path><path d="M71.7645 4.52258H61.4801L48.5461 45.0883H57.099L59.7486 36.5596H71.8289L74.1886 45.0883H83.5952L71.7645 4.52258ZM61.0372 31.2684L66.0384 13.1157L70.4437 31.2684H61.0372Z" fill="#0E293B"></path></svg>