<svg width="172" height="30" viewBox="0 0 172 30" fill="none" xmlns="http://www.w3.org/2000/svg">
<g clip-path="url(#clip0_2530_137501)">
<path d="M50.0663 22.1704L46.904 22.1822L44.249 17.3679L33.1985 17.3679L30.6261 22.1763L27.4461 22.1763L37.1927 4.89551L40.243 4.89551L50.0781 22.1763L50.0663 22.1704ZM42.9333 14.9666L38.65 7.19057L34.4788 14.9666L42.9333 14.9666Z" fill="#4141A3"/>
<path d="M64.5546 22.1823L61.056 22.1823L57.2801 18.4654L53.4923 22.1823L49.9819 22.1823L55.3626 17.0081L50.0291 11.5625L53.5336 11.5625L57.2388 15.5154L60.9262 11.5625L64.5192 11.5625L59.1798 16.8842L64.5605 22.1764L64.5546 22.1823Z" fill="#4141A3"/>
<path d="M65.0767 5.81124C65.0767 4.97345 65.7552 4.28906 66.5989 4.28906C67.4426 4.28906 68.1211 4.96755 68.1211 5.81124C68.1211 6.65493 67.4426 7.33341 66.5989 7.33341C65.7552 7.33341 65.0767 6.65493 65.0767 5.81124ZM67.8379 11.54L67.8379 22.1835L65.1534 22.1835L65.1534 11.54L67.8379 11.54Z" fill="#4141A3"/>
<path d="M83.3182 16.6435L83.3182 22.1659L80.6338 22.1659L80.6574 19.6289C80.6574 19.6289 79.9966 20.7145 78.7163 21.5641C76.3918 23.098 72.1851 22.8561 70.3207 21.7352C68.8871 20.8679 68.5862 19.1687 69.2411 17.8648C69.7071 16.9385 70.8399 16.266 72.5568 16.0772C75.1941 15.7822 77.9552 15.9769 80.6161 16.0772C80.6161 16.0772 80.6161 15.6701 80.5335 15.4636C80.4214 15.1804 80.2503 14.7851 79.7488 14.3249C79.4243 14.0299 78.8402 13.5933 77.4773 13.3278C76.5746 13.1508 74.433 13.0741 73.1822 13.9709C72.6571 14.3367 72.6512 14.8264 72.6335 14.9621C71.6482 14.968 70.6629 14.9798 69.6777 14.9857C69.6777 14.9857 69.5302 13.8529 70.8045 12.8263C71.9786 11.8882 73.3061 11.6227 74.3209 11.4752C74.8873 11.3926 77.4596 11.1566 79.4656 11.7289C80.5099 12.0298 81.0468 12.372 81.2297 12.4959C81.5719 12.726 82.6397 13.4694 83.0881 14.8323C83.1825 15.1214 83.3359 15.912 83.3359 16.6435L83.3182 16.6435ZM80.5984 17.8353C78.7281 17.7409 76.8106 17.7291 74.9168 17.7704C72.8872 17.8176 71.7249 18.0713 71.6718 19.21C71.6069 20.7853 74.2796 20.9446 76.2915 20.6142C78.6219 20.2307 80.386 19.033 80.5984 17.8353Z" fill="#4141A3"/>
<path d="M113.615 22.1704L110.453 22.1822L107.798 17.3679L96.7474 17.3679L94.175 22.1763L90.9949 22.1763L100.736 4.89551L103.786 4.89551L113.621 22.1763L113.615 22.1704ZM106.482 14.9666L102.199 7.19057L98.0276 14.9666L106.482 14.9666Z" fill="#4141A3"/>
<path d="M120.194 8.10594C120.194 8.10594 120.483 5.79908 118.66 5.84628C116.802 5.89348 116.666 8.46584 116.743 10.8848C116.761 11.3745 116.755 10.4836 116.755 11.5515L121.168 11.5515L121.168 13.705L116.755 13.705C116.755 16.177 116.749 21.1506 116.749 22.1772L113.999 22.1772L113.999 13.705L112.064 13.705L112.064 11.5515L113.999 11.5515L113.999 10.3715C113.988 9.09123 114.023 8.13544 114.46 6.98496C115.026 5.48638 116.129 4.3595 117.893 4.08221C120.194 3.71641 122.395 4.4716 122.814 6.69587C122.961 7.46875 122.926 8.12364 122.926 8.12364L120.188 8.10594L120.194 8.10594Z" fill="#4141A3"/>
<path d="M133.438 14.043C133.509 14.6271 133.45 15.1463 133.45 15.1463L130.677 15.1345C130.677 15.1345 130.913 13.5651 129.213 13.4825C127.101 13.3822 126.022 16.2555 126.081 18.3322C126.081 18.3322 126.057 20.5565 126.057 22.1849L123.325 22.1849C123.325 18.6567 123.331 15.1168 123.325 11.5828L125.945 11.5828C125.945 12.6506 125.945 13.7539 125.945 14.8218C125.945 14.8218 126.305 13.1403 127.626 12.1255C129.172 10.9338 133.09 11.1993 133.438 14.0371L133.438 14.043Z" fill="#4141A3"/>
<path d="M134.128 5.81124C134.128 4.97345 134.806 4.28906 135.65 4.28906C136.493 4.28906 137.172 4.96755 137.172 5.81124C137.172 6.65493 136.493 7.33341 135.65 7.33341C134.806 7.33341 134.128 6.65493 134.128 5.81124ZM136.889 11.54L136.889 22.1835L134.204 22.1835L134.204 11.54L136.889 11.54Z" fill="#4141A3"/>
<path d="M153.002 18.0703C152.966 18.2827 152.902 18.5363 152.784 18.7664C151.71 20.8963 148.878 22.4303 145.527 22.4303C141.267 22.4303 137.815 19.9582 137.815 16.9139C137.815 13.8695 141.267 11.3975 145.527 11.3975C148.884 11.3975 151.869 12.9196 152.825 15.079C152.949 15.3504 152.996 15.6395 153.02 15.846L149.957 15.846C149.91 15.6395 149.828 15.3563 149.668 15.1085C148.931 13.9698 147.279 13.2618 145.491 13.2618C142.878 13.2618 140.76 14.8666 140.76 16.849C140.76 18.8313 142.878 20.4361 145.491 20.4361C147.379 20.4361 148.677 19.7222 149.426 18.8077C149.651 18.5363 149.78 18.2768 149.857 18.0703L152.99 18.0703L153.002 18.0703Z" fill="#4141A3"/>
<path d="M167.682 16.6435L167.682 22.1659L164.997 22.1659L165.021 19.6289C165.021 19.6289 164.36 20.7145 163.08 21.5641C160.755 23.098 156.548 22.8561 154.684 21.7352C153.25 20.8679 152.949 19.1687 153.604 17.8648C154.07 16.9385 155.203 16.266 156.92 16.0772C159.557 15.7822 162.319 15.9769 164.979 16.0772C164.979 16.0772 164.979 15.6701 164.897 15.4636C164.785 15.1804 164.614 14.7851 164.112 14.3249C163.788 14.0299 163.203 13.5933 161.841 13.3278C160.938 13.1508 158.796 13.0741 157.545 13.9709C157.02 14.3367 157.014 14.8264 156.997 14.9621C156.012 14.968 155.026 14.9798 154.041 14.9857C154.041 14.9857 153.893 13.8529 155.168 12.8263C156.342 11.8882 157.669 11.6227 158.684 11.4752C159.251 11.3926 161.823 11.1566 163.829 11.7289C164.873 12.0298 165.41 12.372 165.593 12.4959C165.935 12.726 167.003 13.4694 167.451 14.8323C167.546 15.1214 167.699 15.912 167.699 16.6435L167.682 16.6435ZM164.962 17.8353C163.091 17.7409 161.174 17.7291 159.28 17.7704C157.25 17.8176 156.088 18.0713 156.035 19.21C155.97 20.7853 158.643 20.9446 160.655 20.6142C162.985 20.2307 164.749 19.033 164.962 17.8353Z" fill="#4141A3"/>
<path d="M11.2732 5.51173L12.9115 5.93975L14.3087 6.30381L14.3431 6.31364L15.0122 7.68625L15.7649 9.22612L16.4389 10.5987L21.1274 20.1676L21.6194 21.1712L19.1005 21.6829L19.8138 22.9522L19.9909 23.267C22.1015 21.1515 23.4102 18.2292 23.4102 15.0019C23.4102 8.53736 18.1706 3.29785 11.7061 3.29785C5.2416 3.29785 0.00209785 8.53736 0.00209757 15.0019C0.00209749 16.9009 0.45963 18.6966 1.26155 20.2808L11.283 5.52157L11.2732 5.51173Z" fill="#4141A3"/>
<path d="M13.1837 11.1503L14.0299 12.6558L14.8072 14.0431L18.4921 20.5962L20.1992 20.3158L15.8403 11.7161L15.1368 10.3288L14.3546 8.78888L13.6412 7.38184L12.1801 9.74331L10.5615 12.3508L3.9346 22.9872L3.63449 23.4693C4.02315 23.8432 4.44133 24.1876 4.87918 24.5025L5.3564 24.409L6.43874 22.5789L11.6537 13.7627L13.1935 11.1553L13.1837 11.1503Z" fill="#4141A3"/>
<path d="M17.4917 23.513L10.978 25.1119L10.919 25.1267L8.63621 25.6875L9.7579 23.5671L10.6484 21.8846L15.9814 21.0089L13.3936 16.6943L12.5375 15.2725L8.60177 22.2191L7.59323 24.005L6.69783 25.5891C8.21311 26.3025 9.90549 26.7059 11.6914 26.7059C14.102 26.7059 16.3454 25.9778 18.2051 24.7282L17.4819 23.5179L17.4917 23.513Z" fill="#4141A3"/>
</g>
<defs>
<clipPath id="clip0_2530_137501">
<rect width="28.0777" height="172" fill="white" transform="translate(172 0.960938) rotate(90)"/>
</clipPath>
</defs>
</svg>
