<svg xmlns="http://www.w3.org/2000/svg" viewBox="0 0 130 38" fill="none" class="w-[65px] h-[19px] sm:w-[130px] sm:h-[38px]"><path d="M83.4465 35.1307C83.1629 35.2265 82.874 35.3055 82.5812 35.3675C82.2693 35.436 81.9281 35.4948 81.5754 35.5422C81.2228 35.5895 80.8391 35.6287 80.4326 35.6499C80.0261 35.6711 79.6163 35.6842 79.1787 35.6842C78.2825 35.7038 77.3902 35.5605 76.5452 35.2613C75.847 35.0051 75.2197 34.5865 74.715 34.0401C74.216 33.4796 73.8509 32.813 73.6473 32.0907C73.4063 31.2413 73.2903 30.3613 73.3028 29.4785V0.224609H79.6489V28.6491C79.6426 28.9066 79.6751 29.1637 79.7452 29.4115C79.7996 29.6037 79.9052 29.7775 80.0506 29.9144C80.2016 30.0493 80.384 30.1441 80.5812 30.1903C80.8343 30.2522 81.0944 30.2813 81.355 30.2769C81.7093 30.2769 82.0571 30.2605 82.3999 30.2311C82.751 30.1998 83.1003 30.1508 83.4465 30.0842V35.1307Z" fill="#0353A4"></path><path d="M104.186 34.3472C103.63 34.6078 103.061 34.8378 102.48 35.0361C101.851 35.248 101.209 35.4214 100.558 35.5553C99.8268 35.7039 99.0877 35.8129 98.3444 35.8819C97.4844 35.9648 96.6207 36.0046 95.7567 36.001C94.5548 36.0113 93.3558 35.8803 92.1844 35.6108C91.1548 35.3737 90.165 34.9887 89.2457 34.468C88.393 33.9802 87.6218 33.3621 86.96 32.6361C86.296 31.9015 85.7457 31.0716 85.3273 30.1741C84.8733 29.2035 84.54 28.1809 84.3346 27.1292C84.1082 25.9527 83.9988 24.7567 84.0081 23.5586C84.0051 22.4388 84.0881 21.3204 84.2563 20.2133C84.4106 19.1789 84.6738 18.1637 85.0416 17.1847C85.3869 16.2664 85.8525 15.3979 86.4261 14.6019C86.9901 13.8234 87.6791 13.1437 88.4653 12.5904C89.305 12.0072 90.235 11.5659 91.2179 11.2843C93.5568 10.6622 96.0185 10.6684 98.3542 11.3023C99.3478 11.5915 100.289 12.038 101.141 12.6247C101.926 13.1732 102.614 13.8492 103.175 14.6247C103.734 15.4004 104.19 16.2456 104.531 17.139C104.883 18.065 105.137 19.0253 105.288 20.0043C105.446 21.0115 105.525 22.0296 105.525 23.0492C105.525 23.1847 105.525 23.3512 105.513 23.5472C105.502 23.7431 105.497 23.9472 105.486 24.1561C105.474 24.3651 105.461 24.5725 105.446 24.7668C105.432 24.961 105.412 25.1292 105.389 25.2647H90.3428C90.3837 26.0093 90.5401 26.7429 90.8065 27.4394C91.0494 28.0724 91.4316 28.6427 91.9248 29.108C92.4613 29.5938 93.0977 29.956 93.7893 30.1692C94.6679 30.436 95.5832 30.5622 96.5012 30.5431C97.2097 30.5431 97.9123 30.5148 98.6089 30.4582C99.3055 30.4016 99.982 30.3221 100.638 30.2198C101.291 30.1186 101.918 29.9929 102.519 29.8427C103.12 29.6925 103.676 29.5265 104.186 29.3447V34.3472ZM99.1804 20.7847C99.1325 20.0738 98.9976 19.3714 98.7787 18.6933C98.5947 18.1175 98.3014 17.5826 97.915 17.1178C97.5494 16.6865 97.089 16.3456 96.5697 16.1219C95.9898 15.8827 95.3668 15.7654 94.7395 15.7774C94.1154 15.7643 93.4954 15.8816 92.9191 16.1219C92.4108 16.3453 91.9631 16.6867 91.613 17.1178C91.2402 17.5865 90.9583 18.1209 90.782 18.6933C90.5708 19.3728 90.4404 20.0747 90.3934 20.7847H99.1804Z" fill="#0353A4"></path><path d="M124.091 35.312L123.526 33.2777C123.153 33.696 122.738 34.0761 122.289 34.4124C121.816 34.7659 121.302 35.0603 120.757 35.2891C120.155 35.5411 119.528 35.7304 118.886 35.854C118.143 35.9955 117.388 36.0639 116.632 36.0581C115.162 36.081 113.705 35.7841 112.361 35.1879C111.108 34.6164 110.005 33.7612 109.14 32.6899C108.213 31.5177 107.524 30.1762 107.11 28.7405C106.62 27.0432 106.382 25.2827 106.405 23.516C106.405 21.4905 106.648 19.6896 107.133 18.1136C107.558 16.6536 108.281 15.2974 109.255 14.1299C110.182 13.0498 111.352 12.2053 112.669 11.6662C114.018 11.1046 115.555 10.8243 117.28 10.8254C117.843 10.8241 118.405 10.8595 118.963 10.9315C119.481 11 119.992 11.1059 120.495 11.2483C120.975 11.3848 121.442 11.5629 121.891 11.7805C122.338 11.9958 122.765 12.251 123.167 12.543V0.224609H129.509V35.312H124.091ZM123.164 17.3985C122.824 17.1894 122.467 17.0097 122.096 16.8613C121.713 16.7087 121.318 16.5853 120.916 16.4924C120.493 16.3935 120.064 16.3205 119.633 16.2736C119.177 16.2238 118.718 16.1993 118.26 16.2001C117.412 16.1761 116.572 16.3671 115.819 16.7552C115.145 17.1193 114.571 17.6422 114.145 18.2785C113.688 18.9754 113.363 19.7501 113.185 20.5642C112.976 21.4865 112.874 22.4299 112.88 23.3756C112.874 24.3352 112.988 25.2917 113.22 26.223C113.419 27.0532 113.769 27.8396 114.253 28.543C114.722 29.2263 115.356 29.7804 116.096 30.1542C116.836 30.528 117.658 30.7095 118.486 30.6818C118.939 30.6834 119.391 30.661 119.842 30.6148C120.254 30.5724 120.664 30.5026 121.068 30.4058C121.444 30.3151 121.813 30.1939 122.17 30.0434C122.514 29.8991 122.847 29.7277 123.164 29.5307V17.3985Z" fill="#0353A4"></path><path d="M50.3607 19.9961C50.7264 14.5822 54.6203 11.0002 60.2775 10.8369H60.5322C65.3975 10.8369 69.9215 14.979 70.2154 19.7039C70.2154 19.8002 70.2595 20.6688 70.2628 20.7667L70.2726 21.3153L69.6962 21.2777C69.6962 21.2777 68.0211 21.1667 67.466 21.1145C66.8391 21.0524 64.955 20.8924 64.955 20.8924L64.4652 20.8516L64.4864 20.0092C64.426 17.9863 63.293 15.601 60.2987 15.601C57.3436 15.601 56.217 17.8279 56.1615 19.9096L56.1501 20.2949L50.315 21.6385L50.3607 19.9961Z" fill="#F3B263"></path><path d="M63.9363 21.9384L63.4122 21.9172C63.2261 21.9172 63.0236 21.9041 62.8016 21.9009C62.5795 21.8976 62.3395 21.9009 62.0832 21.9009C60.8455 21.8961 59.6084 21.9565 58.3771 22.0821C57.3293 22.187 56.2918 22.3776 55.2751 22.6519C54.4227 22.8798 53.6005 23.2087 52.8261 23.6315C52.1539 24.0001 51.5498 24.4811 51.0399 25.0535C50.5568 25.6067 50.1863 26.2489 49.9493 26.9441C49.695 27.7121 49.5708 28.5172 49.582 29.3262C49.5699 30.273 49.7527 31.2122 50.1191 32.0854C50.4638 32.8959 50.9827 33.6205 51.6391 34.2078C52.3273 34.8138 53.1285 35.2776 53.9967 35.5727C54.9727 35.9069 55.9985 36.0725 57.0302 36.0625C57.7442 36.066 58.4572 36.0065 59.1608 35.8845C59.8025 35.7743 60.4338 35.6105 61.0481 35.3947C61.6228 35.1897 62.1784 34.9346 62.7085 34.6323C63.2183 34.3396 63.7041 34.0071 64.1616 33.638L64.4881 35.3572H70.2775V22.4919C65.8089 22.0739 63.9363 21.9384 63.9363 21.9384ZM63.9363 30.1621C63.6258 30.3538 63.3029 30.5245 62.9697 30.6731C62.6194 30.8297 62.2595 30.9638 61.8922 31.0747C61.5054 31.1923 61.1103 31.2802 60.7101 31.3376C60.2891 31.3999 59.864 31.4305 59.4383 31.429C58.9234 31.4401 58.4102 31.3678 57.9183 31.2152C57.5319 31.0938 57.1746 30.8943 56.8685 30.629C56.5997 30.3933 56.3905 30.0974 56.2579 29.7654C56.1248 29.4309 56.0577 29.0739 56.0604 28.7139C56.0461 28.225 56.2064 27.7469 56.5126 27.3654C56.8816 26.9507 57.3527 26.64 57.8791 26.4641C58.6219 26.2009 59.3947 26.0314 60.1795 25.9596C61.2587 25.8451 62.3433 25.7906 63.4285 25.7964H63.9363V30.1621Z" fill="#0353A4"></path><path d="M47.2734 20.0036C47.1218 19.0247 46.8679 18.0643 46.5158 17.1383C46.1753 16.2446 45.7192 15.3993 45.1591 14.624C44.5985 13.8509 43.912 13.1776 43.1281 12.6322C42.2764 12.0452 41.336 11.5987 40.3428 11.3098C38.007 10.6759 35.5454 10.6697 33.2064 11.2918C32.2235 11.5734 31.2936 12.0147 30.4538 12.5979C29.6673 13.1508 28.9782 13.8305 28.4146 14.6093C27.8411 15.4027 27.375 16.2685 27.0285 17.184C26.6607 18.1631 26.3975 19.1782 26.2432 20.2126C26.0744 21.3197 25.9909 22.4381 25.9934 23.5579C25.986 24.7563 26.0981 25.9524 26.3281 27.1285C26.3526 27.251 26.3787 27.3702 26.4048 27.491C24.4571 29.6934 22.4391 31.553 19.3664 32.0298C15.8497 32.5767 12.2007 31.7228 9.6391 29.1677C6.81624 26.3465 6.05053 21.9383 6.41624 18.02C6.72808 14.7008 8.1991 11.4159 10.7901 9.31792C12.7493 7.73915 15.3615 6.91466 17.8693 7.22813C18.5648 7.31466 23.7469 8.03303 23.7469 8.77098V3.28037C23.1334 2.94918 22.4966 2.66325 21.8415 2.42486C21.1012 2.15631 20.3436 1.93812 19.5738 1.7718C18.7115 1.58494 17.8394 1.44703 16.9615 1.35874C8.00155 0.431393 2.23828 8.08363 0.785222 16.1718C-0.506207 23.3555 1.66849 31.0567 8.00318 35.1612C12.6905 38.1996 18.942 38.753 23.8399 35.8975C24.0805 35.7571 24.3177 35.6074 24.5518 35.4485C25.9764 34.4588 27.2322 33.246 28.2709 31.8567L28.2889 31.8306C28.4949 32.1145 28.7161 32.387 28.9518 32.6469C29.6136 33.3729 30.3848 33.9909 31.2375 34.4787C32.1567 34.9997 33.1466 35.3847 34.1762 35.6216C35.3471 35.891 36.5455 36.0219 37.7469 36.0118C38.6114 36.0154 39.4757 35.9756 40.3362 35.8926C41.0795 35.8235 41.8185 35.7145 42.5501 35.5661C43.2005 35.4319 43.8423 35.2585 44.4718 35.0469C45.0534 34.8448 45.6235 34.611 46.1795 34.3465V29.3506C45.669 29.5323 45.1134 29.6983 44.5126 29.8485C43.9118 29.9987 43.2848 30.1245 42.6318 30.2257C41.9787 30.328 41.3022 30.4074 40.6024 30.464C39.9025 30.5206 39.1999 30.5489 38.4946 30.5489C37.5766 30.5689 36.6612 30.4427 35.7828 30.1751C35.091 29.9623 34.4545 29.6 33.9183 29.1138C33.2326 28.4706 33.0187 27.4322 33.675 26.6306C33.9395 26.304 34.3428 26.1326 34.7346 25.9873C37.3615 25.0273 40.2432 25.1547 42.9975 25.1955C43.2995 25.1955 47.3338 25.4224 47.3371 25.4061C47.3665 24.9881 47.4513 24.5751 47.4742 24.162C47.4856 23.953 47.4954 23.7489 47.502 23.553C47.5085 23.3571 47.5134 23.1906 47.5134 23.0551C47.5133 22.0332 47.433 21.0129 47.2734 20.0036ZM34.7934 21.6118C33.7264 22.02 32.7566 22.6468 31.946 23.4518C32.0946 21.6428 32.2579 20.2828 32.7705 18.6942C32.9462 18.1216 33.2281 17.5871 33.6016 17.1187C33.9516 16.6877 34.3993 16.3463 34.9077 16.1228C35.4839 15.8826 36.1039 15.7653 36.7281 15.7783C37.3553 15.7664 37.9783 15.8836 38.5583 16.1228C39.0773 16.347 39.5376 16.6878 39.9036 17.1187C40.29 17.5836 40.5832 18.1185 40.7673 18.6942C40.9825 19.3614 41.1163 20.0521 41.1656 20.7514C38.7836 20.7155 37.0579 20.7955 34.7934 21.6118Z" fill="#0353A4"></path></svg>