<?xml version="1.0" encoding="UTF-8"?>
<!DOCTYPE svg PUBLIC "-//W3C//DTD SVG 1.1//EN" "http://www.w3.org/Graphics/SVG/1.1/DTD/svg11.dtd">
<!-- Creator: CorelDRAW 2021 (64-Bit) -->
<svg xmlns="http://www.w3.org/2000/svg" xml:space="preserve" width="0.98298in" height="0.260287in" version="1.1" style="shape-rendering:geometricPrecision; text-rendering:geometricPrecision; image-rendering:optimizeQuality; fill-rule:evenodd; clip-rule:evenodd"
viewBox="0 0 45.27 11.99"
 xmlns:xlink="http://www.w3.org/1999/xlink"
 xmlns:xodm="http://www.corel.com/coreldraw/odm/2003">
 <defs>
  <style type="text/css">
   <![CDATA[
    .fil1 {fill:#D7A34D}
    .fil0 {fill:black;fill-rule:nonzero}
   ]]>
  </style>
 </defs>
 <g id="Layer_x0020_1">
  <metadata id="CorelCorpID_0Corel-Layer"/>
  <g id="_1897028005488">
   <path class="fil0" d="M14.68 9.37c1.14,0 2.08,-0.41 2.69,-1.17l-0.97 -0.89c-0.44,0.51 -0.99,0.77 -1.64,0.77 -1.22,0 -2.09,-0.86 -2.09,-2.09 0,-1.23 0.87,-2.09 2.09,-2.09 0.65,0 1.2,0.26 1.64,0.76l0.97 -0.89c-0.62,-0.75 -1.56,-1.16 -2.68,-1.16 -2.03,0 -3.54,1.41 -3.54,3.37 0,1.97 1.51,3.37 3.53,3.37z"/>
   <polygon id="_1" class="fil0" points="18.9,9.26 23.68,9.26 23.68,8.03 20.41,8.03 20.41,2.73 18.9,2.73 "/>
   <polygon id="_2" class="fil0" points="26.54,8.04 26.54,6.53 29.57,6.53 29.57,5.36 26.54,5.36 26.54,3.94 29.97,3.94 29.97,2.73 25.04,2.73 25.04,9.26 30.09,9.26 30.09,8.04 "/>
   <polygon id="_3" class="fil0" points="36.48,2.73 34.46,7.39 32.48,2.73 30.85,2.73 33.66,9.26 35.15,9.26 37.98,2.73 "/>
   <path id="_4" class="fil0" d="M43.68 9.26l1.58 0 -2.92 -6.52 -1.49 0 -2.91 6.52 1.55 0 0.58 -1.4 3.03 0 0.58 1.4zm-3.12 -2.54l1.03 -2.5 1.03 2.5 -2.07 0z"/>
   <g>
    <path class="fil1" d="M7.46 8.77l-0.43 -0.44c-0.5,0.04 -0.66,0.23 -1.36,0.16 -2.18,-0.24 -3.07,-3.18 -1.13,-4.56 0.29,-0.2 0.67,-0.38 1.09,-0.43 0.7,-0.09 0.89,0.12 1.42,0.15 0.14,-0.19 0.27,-0.23 0.38,-0.45 -1.12,-0.93 -4.6,-0.23 -4.6,2.78 -0,3.12 3.61,3.71 4.63,2.79z"/>
    <path class="fil1" d="M1.22 8.41c-0.31,-0.62 -0.45,-1.33 -0.52,-1.45l-0.62 -0c0.15,1.21 1.08,2.93 1.93,3.5 0.36,-0.14 0.66,-0.72 1.04,-0.94 0.63,0.38 0.97,0.77 1.98,0.94l-0 -0.66c-0.84,-0.18 -1.58,-0.73 -1.96,-1.2 -0.34,0.12 -0.76,0.78 -1.06,0.97 -0.27,-0.28 -0.59,-0.73 -0.79,-1.15z"/>
    <path class="fil1" d="M2.56 1.06c0.11,0.2 0.28,0.35 0.46,0.48 0.68,-0.43 1.61,-0.86 2.64,-0.88l0.01 1.41c1.44,-0.1 1.87,0.43 2.43,0.54 0.13,-0.18 0.27,-0.25 0.37,-0.45 -0.41,-0.41 -1.4,-0.69 -2.12,-0.73l-0.04 -1.42c-0.75,-0.04 -1.45,0.05 -2.1,0.26 -0.32,0.1 -0.55,0.19 -0.86,0.34 -0.29,0.14 -0.57,0.35 -0.8,0.45z"/>
    <path class="fil1" d="M0.09 5.03l0.65 0.01c0.16,-0.86 0.77,-2.32 1.35,-2.61 0.12,0.16 0.79,0.86 0.97,0.95 0.43,-0.48 1.11,-0.98 1.98,-1.19l-0.01 -0.66c-0.76,0.15 -1.51,0.54 -1.97,0.95l-0.99 -0.96c-0.37,0.15 -0.99,1 -1.26,1.46 -0.31,0.51 -0.64,1.34 -0.72,2.05z"/>
    <path class="fil1" d="M6.32 10.56c0.68,-0.04 1.79,-0.39 2.18,-0.76l-0.42 -0.44c-0.79,0.21 -0.58,0.54 -2.41,0.56l-0.01 1.41c-0.78,-0.05 -1.43,-0.23 -2.09,-0.57 -0.21,-0.11 -0.37,-0.24 -0.58,-0.32l-0.42 0.45c0.24,0.26 1.06,0.63 1.46,0.77 0.74,0.26 1.47,0.37 2.28,0.3l0 -1.4z"/>
    <path class="fil1" d="M9.53 9.97c-0.44,0.56 -1.61,1.1 -2.58,1.28l0 0.65c0.75,-0.08 1.46,-0.39 2.02,-0.7 0.43,-0.24 1.29,-0.89 1.47,-1.23 -0.14,-0.22 -2.15,-2.24 -2.43,-2.43 -0.17,0.13 -0.28,0.27 -0.45,0.39 0.12,0.3 1.7,1.76 1.96,2.04z"/>
    <path class="fil1" d="M6.96 0.69l0.35 0.12c0.7,0.17 1.82,0.71 2.23,1.19 -0.11,0.22 -0.73,0.78 -0.95,1 -0.26,0.26 -0.83,0.77 -1,1.02 0.13,0.15 0.28,0.33 0.43,0.44l2.43 -2.46c-0.53,-0.76 -2.13,-1.76 -3.49,-1.92l0 0.61z"/>
    <path class="fil1" d="M1.43 5.67l-1.41 0 -0.02 0.63 1.43 0.02c0.03,0.67 0.38,1.79 0.75,2.18l0.46 -0.42c-0.32,-0.71 -0.57,-1.09 -0.58,-2.03 -0.01,-0.83 0.22,-1.47 0.56,-2.07 -0.08,-0.17 -0.31,-0.37 -0.44,-0.47 -0.38,0.37 -0.72,1.53 -0.75,2.17z"/>
   </g>
  </g>
 </g>
</svg>
