<svg width="176" height="58" viewBox="0 0 176 58" fill="none" xmlns="http://www.w3.org/2000/svg">
<g clip-path="url(#clip0_14031_45924)">
<path d="M142.87 48.3993H142.898C143.457 47.65 144.293 47.2485 145.228 47.2485C147.214 47.2485 148.466 48.9621 148.466 50.8334C148.466 52.7047 147.243 54.3896 145.214 54.3896C144.293 54.3896 143.443 53.9881 142.898 53.2532H142.87V58.0032H141.719V47.4385H142.87V48.4029V48.3993ZM142.812 50.7438C142.812 52.0666 143.59 53.3213 145.028 53.3213C146.465 53.3213 147.286 52.1276 147.286 50.7581C147.286 49.3887 146.436 48.3132 145.013 48.3132C143.676 48.3132 142.812 49.4783 142.812 50.7438Z" fill="#818183"/>
<path d="M155.841 54.1998H154.69V53.2642H154.661C154.07 54.0134 153.281 54.3862 152.331 54.3862C150.345 54.3862 149.094 52.7013 149.094 50.83C149.094 48.9587 150.316 47.2451 152.345 47.2451C153.267 47.2451 154.102 47.6753 154.661 48.3959H154.69V47.4315H155.841V54.1962V54.1998ZM150.27 50.744C150.27 52.0668 151.048 53.3215 152.485 53.3215C153.923 53.3215 154.744 52.1277 154.744 50.7583C154.744 49.3889 153.894 48.3134 152.471 48.3134C151.134 48.3134 150.27 49.4785 150.27 50.744Z" fill="#818183"/>
<path d="M163.594 53.8698C163.594 54.9489 163.594 55.8845 162.902 56.7772C162.268 57.5838 161.289 57.971 160.282 57.971C158.396 57.971 157.001 56.7772 156.958 54.8628H158.109C158.124 56.114 159.031 56.9062 160.267 56.9062C162.053 56.9062 162.44 55.5978 162.44 54.0706V53.264H162.411C161.863 53.9702 160.974 54.3861 160.067 54.3861C158.095 54.3861 156.844 52.7298 156.844 50.8442C156.844 48.9585 158.109 47.2485 160.11 47.2485C161.045 47.2485 161.866 47.6644 162.411 48.3993H162.44V47.435H163.591V53.8698H163.594ZM158.023 50.7474C158.023 52.0702 158.801 53.3249 160.239 53.3249C161.676 53.3249 162.497 52.1312 162.497 50.7617C162.497 49.3923 161.648 48.3168 160.224 48.3168C158.887 48.3168 158.023 49.4819 158.023 50.7474Z" fill="#818183"/>
<path d="M171.434 54.1998H170.284V53.2642H170.255C169.663 54.0134 168.871 54.3862 167.925 54.3862C165.939 54.3862 164.688 52.7013 164.688 50.83C164.688 48.9587 165.91 47.2451 167.939 47.2451C168.86 47.2451 169.696 47.6753 170.255 48.3959H170.284V47.4315H171.434V54.1962V54.1998ZM165.863 50.744C165.863 52.0668 166.641 53.3215 168.079 53.3215C169.516 53.3215 170.337 52.1277 170.337 50.7583C170.337 49.3889 169.488 48.3134 168.064 48.3134C166.727 48.3134 165.863 49.4785 165.863 50.744Z" fill="#818183"/>
<path d="M124.511 54.2144H123.332V43.6748H124.511V48.3603C125.314 47.3601 126.347 47.2454 126.842 47.2454C128.975 47.2454 130.154 49.0163 130.154 50.8518C130.154 52.6872 128.957 54.4116 126.892 54.4116C125.795 54.4116 125.021 53.9204 124.515 53.2644V54.2144H124.511ZM128.939 50.8518C128.939 49.1776 127.806 48.2922 126.709 48.2922C125.612 48.2922 124.447 49.1955 124.447 50.8338C124.447 52.2284 125.332 53.3576 126.727 53.3576C128.121 53.3576 128.942 52.2104 128.942 50.8482L128.939 50.8518Z" fill="#818183"/>
<path d="M133.559 53.5762L130.426 47.4102H131.77L134.179 52.282L136.395 47.4102H137.707L132.81 57.7705H131.498L133.555 53.5762H133.559Z" fill="#818183"/>
<path d="M41.9979 50.4646L50.469 41.9935L39.9867 31.5112L33.0213 33.0169L31.5156 39.9823L41.9979 50.4646Z" fill="#0F2531"/>
<path d="M12.7016 4.22656L4.23047 12.6977L14.7127 23.1763L21.6746 21.6707L23.1838 14.7088L12.7016 4.22656Z" fill="#0F2531"/>
<path d="M39.9867 31.5112L33.0213 33.0169L31.5156 39.9823" fill="#0F2531"/>
<path d="M54.6927 26.22L51.5918 14.6479L37.2737 18.4838L35.0977 25.27L40.3746 30.0558L54.6927 26.22Z" fill="#0F2531"/>
<path d="M0.00390625 28.4711L3.10484 40.0431L17.4229 36.2037L19.5989 29.4211L14.322 24.6353L0.00390625 28.4711Z" fill="#0F2531"/>
<path d="M37.2737 18.4839L35.0977 25.2701L40.3746 30.0559" fill="#0F2531"/>
<path d="M40.0485 3.10093L28.4765 0L24.6406 14.3181L29.4265 19.595L36.2091 17.419L40.0485 3.10093Z" fill="#0F2531"/>
<path d="M14.6523 51.5903L26.2244 54.6912L30.0602 40.3732L25.2744 35.0962L18.4882 37.2722L14.6523 51.5903Z" fill="#0F2531"/>
<path d="M24.6406 14.3179L29.4265 19.5948L36.2091 17.4188" fill="#0F2531"/>
<path d="M75.963 21.7964C77.9778 21.7964 79.7451 22.4596 80.6127 23.5459H80.7525C80.7525 23.406 80.7166 23.1623 80.7166 22.1442V14.3398H86.6855V40.5884H81.1325V40.0292C81.1325 39.5022 81.1683 39.0828 81.2006 38.839H81.0608C79.9136 40.3447 77.9706 41.1477 75.6798 41.1477C70.7184 41.1477 67.1406 37.2294 67.1406 31.49C67.1406 25.7506 70.8904 21.7964 75.9559 21.7964H75.963ZM80.9245 31.386C80.9245 28.7977 79.2934 27.1164 77.0385 27.1164C74.7836 27.1164 73.2206 28.7977 73.2206 31.386C73.2206 33.9743 74.8159 35.7273 77.0385 35.7273C79.2612 35.7273 80.9245 34.0137 80.9245 31.386Z" fill="#0F2531"/>
<path d="M89.707 31.4934C89.707 25.8221 93.7687 21.7998 99.4615 21.7998C105.154 21.7998 109.216 25.8256 109.216 31.4934C109.216 37.1611 105.154 41.1511 99.4615 41.1511C93.7687 41.1511 89.707 37.1252 89.707 31.4934ZM103.175 31.3894C103.175 28.8011 101.716 27.0839 99.4615 27.0839C97.2066 27.0839 95.7476 28.7975 95.7476 31.3894C95.7476 33.9813 97.2066 35.7988 99.4615 35.7988C101.716 35.7988 103.175 34.0494 103.175 31.3894Z" fill="#0F2531"/>
<path d="M121.325 22.3589V27.7147H118.271V40.5952H112.23V22.3625H121.325V22.3589Z" fill="#0F2531"/>
<path d="M122.957 31.4934C122.957 25.8221 127.019 21.7998 132.712 21.7998C138.404 21.7998 142.466 25.8256 142.466 31.4934C142.466 37.1611 138.404 41.1511 132.712 41.1511C127.019 41.1511 122.957 37.1252 122.957 31.4934ZM136.425 31.3894C136.425 28.8011 134.966 27.0839 132.712 27.0839C130.457 27.0839 128.998 28.7975 128.998 31.3894C128.998 33.9813 130.457 35.7988 132.712 35.7988C134.966 35.7988 136.425 34.0494 136.425 31.3894Z" fill="#0F2531"/>
<path d="M145.48 14.3433H151.521V28.9374C151.693 28.9732 151.937 28.9732 152.144 28.9732C154.399 28.9732 155.894 27.3994 155.894 24.3523C155.894 23.8612 155.894 23.4059 155.858 22.3555H161.587C161.655 23.0546 161.691 23.5457 161.691 24.4562C161.691 27.4317 160.823 30.6151 158.149 32.4362L162.767 40.5919H156.034L152.596 34.0458H152.109C151.969 34.0458 151.729 34.0458 151.517 34.01V40.5883H145.477V14.3433H145.48Z" fill="#0F2531"/>
<path d="M164.809 17.0389C164.809 15.1138 166.372 13.54 168.315 13.54C170.258 13.54 171.856 15.1138 171.856 17.0389C171.856 18.964 170.261 20.5736 168.315 20.5736C166.368 20.5736 164.809 19.0321 164.809 17.0389ZM165.328 40.5917V22.3589H171.369V40.5917H165.328Z" fill="#0F2531"/>
<path d="M173.098 39.4013C173.098 38.7381 173.628 38.2075 174.295 38.2075C174.962 38.2075 175.492 38.7381 175.492 39.4013C175.492 40.0645 174.962 40.5951 174.295 40.5951C173.628 40.5951 173.098 40.0645 173.098 39.4013ZM173.291 39.4013C173.291 39.9641 173.747 40.4015 174.295 40.4015C174.843 40.4015 175.299 39.9641 175.299 39.4013C175.299 38.8385 174.843 38.4011 174.295 38.4011C173.747 38.4011 173.291 38.8349 173.291 39.4013Z" fill="#0F2531"/>
<path d="M174.196 38.7809C174.372 38.7809 174.505 38.8132 174.598 38.8777C174.691 38.9422 174.738 39.039 174.738 39.1717C174.738 39.3366 174.655 39.4477 174.494 39.5051C174.515 39.5338 174.54 39.566 174.569 39.6019C174.598 39.6413 174.627 39.6807 174.655 39.7273C174.684 39.7704 174.713 39.817 174.738 39.8672C174.763 39.9173 174.788 39.9604 174.809 40.007H174.562C174.541 39.9639 174.515 39.9245 174.49 39.8815C174.465 39.8385 174.44 39.799 174.411 39.756C174.386 39.7166 174.358 39.6772 174.333 39.6413C174.307 39.6055 174.282 39.5732 174.261 39.5445C174.247 39.5445 174.232 39.5445 174.218 39.5445H174.078V40.0034H173.859V38.8096C173.913 38.7989 173.97 38.7917 174.031 38.7845C174.092 38.7809 174.146 38.7773 174.193 38.7773L174.196 38.7809ZM174.211 38.9709C174.164 38.9709 174.121 38.9709 174.082 38.9781V39.3689H174.178C174.232 39.3689 174.279 39.3689 174.322 39.3617C174.361 39.3545 174.397 39.3473 174.422 39.3294C174.447 39.3115 174.469 39.2936 174.483 39.2685C174.497 39.2434 174.505 39.2111 174.505 39.1717C174.505 39.1358 174.497 39.1036 174.483 39.0785C174.469 39.0534 174.451 39.0319 174.422 39.0175C174.397 39.0032 174.365 38.9924 174.329 38.9853C174.293 38.9781 174.254 38.9745 174.211 38.9745V38.9709Z" fill="#0F2531"/>
</g>
<defs>
<clipPath id="clip0_14031_45924">
<rect width="175.495" height="58" fill="white"/>
</clipPath>
</defs>
</svg>
