<?xml version="1.0" encoding="UTF-8"?>
<!DOCTYPE svg PUBLIC "-//W3C//DTD SVG 1.1//EN" "http://www.w3.org/Graphics/SVG/1.1/DTD/svg11.dtd">
<!-- Creator: CorelDRAW (Evaluation Version) -->
<svg xmlns="http://www.w3.org/2000/svg" xml:space="preserve" width="10.3913mm" height="2.1425mm" version="1.1" style="shape-rendering:geometricPrecision; text-rendering:geometricPrecision; image-rendering:optimizeQuality; fill-rule:evenodd; clip-rule:evenodd"
viewBox="0 0 23.39 4.82"
 xmlns:xlink="http://www.w3.org/1999/xlink"
 xmlns:xodm="http://www.corel.com/coreldraw/odm/2003">
 <defs>
  <style type="text/css">
   <![CDATA[
    .fil0 {fill:#C5A358;fill-rule:nonzero}
   ]]>
  </style>
 </defs>
 <g id="图层_x0020_1">
  <metadata id="CorelCorpID_0Corel-Layer"/>
  <g id="dyque-solar.svg">
   <g id="dyque-icon">
    <g>
     <path id="形状结合" class="fil0" d="M1.47 3.83c0.87,0 1.48,-0.35 1.48,-1.46 0,-1.11 -0.61,-1.42 -1.48,-1.42l-0.17 0 0 2.88 0.17 0zm-1.47 -3.77l1.55 0c1.64,0 2.72,0.69 2.72,2.31 0,1.63 -1.08,2.36 -2.65,2.36l-1.62 0 0 -4.68zm5.93 3.03l-1.62 -3.03 1.37 0 0.45 1.04c0.14,0.35 0.28,0.68 0.43,1.04l0.03 0c0.15,-0.36 0.3,-0.69 0.45,-1.04l0.45 -1.04 1.35 0 -1.63 3.03 0 1.65 -1.29 0 0 -1.65zm8.74 -0.55l0 -2.48 1.29 0 0 2.6c0,0.89 0.3,1.2 0.9,1.2 0.58,0 0.91,-0.31 0.91,-1.2l0 -2.6 1.24 0 0 2.48c0,1.58 -0.72,2.29 -2.15,2.29 -1.44,0 -2.18,-0.71 -2.18,-2.29l0 0zm5.24 -2.48l3.41 0 0 0.93 -2.12 0 0 0.87 1.8 0 0 0.94 -1.8 0 0 0.99 2.2 0 0 0.94 -3.49 0 0 -4.68zm-8.6 -0.06c1.46,0 2.45,0.87 2.45,2.39 0,0.36 -0.06,0.68 -0.16,0.96 -0.33,-0.25 -0.74,-0.41 -1.19,-0.47 0.03,-0.15 0.04,-0.31 0.04,-0.49 0,-0.9 -0.44,-1.43 -1.14,-1.43 -0.7,0 -1.13,0.53 -1.13,1.43 0,0.97 0.43,1.53 1.13,1.53 0.06,0 0.11,-0 0.17,-0.01 0.17,0.32 0.42,0.59 0.73,0.79 -0.04,0.01 -0.08,0.03 -0.13,0.04 -0.4,0.09 -0.88,0.12 -1.35,0.04 -1.13,-0.22 -1.87,-1.08 -1.87,-2.39 0,-1.53 0.99,-2.39 2.45,-2.39zm0.74 3.23c0.99,0 1.81,0.64 1.97,1.48 -0.1,0.02 -0.21,0.03 -0.32,0.03 -1,0.01 -1.84,-0.63 -2,-1.48 0.1,-0.02 0.21,-0.03 0.32,-0.03 0.01,-0 0.02,-0 0.03,-0z"/>
    </g>
   </g>
  </g>
 </g>
</svg>
