<svg width="223" height="53" version="1.1" id="Layer_1" xmlns="http://www.w3.org/2000/svg" xmlns:xlink="http://www.w3.org/1999/xlink" x="0px" y="0px" viewBox="0 0 923.96 194.58" style="enable-background:new 0 0 923.96 194.58;" xml:space="preserve">
<style type="text/css">
	.st0{display:none;fill:#E73736;}
	.st1{display:none;fill:#110F0D;}
	.st2{fill:#DC3545;}
	.st3{display:none;fill:#DC3545;}
	.st13{fill:#110F0D;}
	.st5{fill:none;stroke:#010202;stroke-width:0.1;stroke-miterlimit:10;}
</style>
<rect x="336.05" y="-21.01" class="st0" width="609.87" height="237.64"></rect>
<rect x="-21.86" y="-21.05" class="st1" width="357.96" height="237.45"></rect>
<g id="ICON">
	<polygon class="st2" points="293.64,97.73 152.33,97.73 172.82,53.79 314.14,53.79 	"></polygon>
	<polygon class="st2" points="165.93,44.99 24.61,44.99 45.1,1.04 186.42,1.04 	"></polygon>
	<polygon class="st3" points="141.32,97.76 62.91,97.76 42.39,141.88 0,97.76 20.49,53.82 161.81,53.82 	"></polygon>
	<polygon class="st2" points="269.04,150.46 193.33,150.46 172.82,194.58 127.72,150.46 148.22,106.52 289.54,106.52 	"></polygon>
	<polygon class="st2" points="141.32,97.76 65.62,97.76 45.11,141.88 0,97.76 20.49,53.82 161.81,53.82 	"></polygon>
</g>
<path d="M-32.52,1"></path>
<g id="RECTANGLE_LOGO_TEXT">
	<path class="st13" d="M358.02,53.78h40.05l44.84,77.03h0.38V53.78H482v137.01h-41.39l-43.5-77.61h-0.38v77.61h-38.71V53.78z"></path>
	<path class="st13" d="M497.38,53.78h107.01v32.58h-66.96v18.59h55.76v30.08h-55.76v21.46h68.6v34.3H497.38V53.78z"></path>
	<path class="st13" d="M615.07,53.78h40.05l9.96,46.95c3.26,14.95,6.71,38.13,6.71,38.13h0.38c0,0,3.64-20.5,7.09-36.22l10.54-48.86		h36.22l10.54,48.48c3.45,15.9,6.9,36.6,6.9,36.6h0.38c0,0,3.64-23.19,6.9-38.52l9.96-46.56h41.01l-36.02,137.01h-40.43		l-12.26-58.06c-2.49-11.88-4.79-26.64-4.79-26.64h-0.38c0,0-2.3,14.75-4.79,26.64l-11.88,58.06h-41.01L615.07,53.78z"></path>
	<path class="st13" d="M801.71,147.1h41.01c1.34,10.92,9.77,16.1,22.99,16.1c7.86,0,17.44-3.07,17.44-11.31		c0-8.24-9.2-10.35-26.06-14.56c-22.99-5.75-50.78-13.61-50.78-42.73c0-31.43,25.68-43.31,56.53-43.31		c28.36,0,54.42,11.88,54.99,41.77h-39.67c-1.15-7.47-6.52-12.26-17.44-12.26c-8.81,0-14.95,4.02-14.95,9.58		c0,8.05,11.69,9.2,32.19,14.18c22.99,5.56,45.99,14.56,45.99,43.69c0,29.89-26.64,45.8-59.02,45.8		C829.31,194.05,802.29,178.72,801.71,147.1z"></path>
	<g>
		<path class="st13" d="M358.05,0.81h34.48v11.01h-21.4v7.32h17.71v10.14h-17.71v16.27h-13.08V0.81z"></path>
		<path class="st13" d="M396.78,0.81h13.08v44.74h-13.08V0.81z"></path>
		<path class="st13" d="M414.11,0.81h13.08l14.64,25.16h0.12V0.81h12.64v44.74h-13.52l-14.2-25.34h-0.13v25.34h-12.64V0.81z"></path>
		<path class="st13" d="M458.85,0.81h38.55v11.14h-12.83v33.6h-13.08v-33.6h-12.64V0.81z"></path>
		<path class="st13" d="M501.65,0.81h35.48v10.64h-22.4v6.07h18.21v9.82h-18.21v7.01h22.4v11.2h-35.48V0.81z"></path>
		<path class="st13" d="M539.76,23.34c0-13.39,9.2-23.34,22.65-23.34c4.88,0,9.26,1.25,12.51,3.5c4.63,3.19,7.32,8.2,7.88,13.89			h-13.08c-0.31-3.5-3.25-6.63-7.51-6.63c-6.2,0-9.2,5.26-9.2,12.58s3.5,12.58,9.32,12.58c4.57,0,7.32-3,7.76-7.01h13.2			c-0.38,4.94-2.63,9.32-5.82,12.39c-3.82,3.69-8.57,5.32-15.08,5.32C548.77,46.62,539.76,36.73,539.76,23.34z"></path>
		<path class="st13" d="M587.57,0.94h13.08v16.39h13.77V0.94h13.08v44.74h-13.08V28.16h-13.77v17.52h-13.08V0.94z"></path>
		<path class="st13" d="M644.51,0.81h34.48v11.01h-21.4v7.32h17.71v10.14h-17.71v16.27h-13.08V0.81z"></path>
		<path class="st13" d="M683.24,0.81h13.08v44.74h-13.08V0.81z"></path>
		<path class="st13" d="M700.58,0.81h13.08l14.64,25.16h0.13V0.81h12.64v44.74h-13.52l-14.2-25.34h-0.13v25.34h-12.64V0.81z"></path>
		<path class="st13" d="M761.84,0.81h13.33l16.58,44.74h-13.89l-2.19-6.57h-15.14l-2.19,6.57h-13.02L761.84,0.81z M764.09,29.97h9.26			l-2.82-8.76c-0.69-2.19-1.69-5.76-1.69-5.76h-0.12c0,0-0.94,3.57-1.69,5.76L764.09,29.97z"></path>
		<path class="st13" d="M796.11,1.08h13.08l14.64,25.16h0.13V1.08h12.64v44.74h-13.52l-14.2-25.34h-0.13v25.34h-12.64V1.08z"></path>
		<path class="st13" d="M840.63,23.34c0-13.39,9.2-23.34,22.65-23.34c4.88,0,9.26,1.25,12.52,3.5c4.63,3.19,7.32,8.2,7.88,13.89			H870.6c-0.31-3.5-3.25-6.63-7.51-6.63c-6.2,0-9.2,5.26-9.2,12.58s3.5,12.58,9.32,12.58c4.57,0,7.32-3,7.76-7.01h13.2			c-0.38,4.94-2.63,9.32-5.82,12.39c-3.82,3.69-8.57,5.32-15.08,5.32C849.64,46.62,840.63,36.73,840.63,23.34z"></path>
		<path class="st13" d="M888.48,0.81h35.48v10.64h-22.4v6.07h18.21v9.82h-18.21v7.01h22.4v11.2h-35.48V0.81z"></path>
	</g>
</g>
<path class="st5" d="M411.26-96.26"></path>
</svg>