<svg width="152" height="26" viewBox="0 0 152 26" fill="none" xmlns="http://www.w3.org/2000/svg">
<path d="M0 24.1686V25.1686H2V24.1686H0ZM25.3256 0.0957031H7.05641V2.0957H25.3256V0.0957031ZM7.05641 0.0957031C5.17252 0.0957031 3.41301 0.97849 2.13846 2.2704C0.863614 3.56261 0 5.33848 0 7.22877H2C2 5.94698 2.5941 4.65631 3.56221 3.67501C4.53063 2.69341 5.79933 2.0957 7.05641 2.0957V0.0957031ZM0 7.22877V24.1686H2V7.22877H0Z" fill="#0F4953"/>
<path d="M6.37744 24.169V25.169H8.37744V24.169H6.37744ZM25.3256 6.47363H12.9578V8.47363H25.3256V6.47363ZM12.9578 6.47363C11.0735 6.47363 9.40391 7.17157 8.21131 8.46383C7.0239 9.75049 6.37744 11.5506 6.37744 13.6461H8.37744C8.37744 11.9607 8.8926 10.6746 9.68107 9.82023C10.4644 8.97147 11.5849 8.47363 12.9578 8.47363V6.47363ZM6.37744 13.6461V24.169H8.37744V13.6461H6.37744Z" fill="#0F4953"/>
<path d="M17.8322 13.8511V14.8511H17.8322L17.8322 13.8511ZM13.7551 17.8142H12.7551V17.8142L13.7551 17.8142ZM12.7551 24.169L12.7551 25.169L14.7551 25.169L14.7551 24.169L12.7551 24.169ZM25.3485 12.8511L17.8322 12.8511L17.8322 14.8511L25.3485 14.8511V12.8511ZM17.8322 12.8511C15.0565 12.8511 12.7551 15.0072 12.7551 17.8142H14.7551C14.7551 16.1748 16.097 14.8511 17.8322 14.8511V12.8511ZM12.7551 17.8142L12.7551 24.169L14.7551 24.169L14.7551 17.8142L12.7551 17.8142Z" fill="#0F4953"/>
<path d="M19.4669 21.0598C19.4669 20.2431 20.129 19.5811 20.9456 19.5811H25.3079V23.4257C25.3079 24.2424 24.6458 24.9045 23.8292 24.9045H19.4669V21.0598Z" fill="#F5B569"/>
<path d="M35.5641 25V0.724595H51.3676V3.90158H39.181V11.1679H50.4389V14.296H39.181V25H35.5641ZM52.4201 25V7.79542H55.8577V25H52.4201ZM54.1307 4.83023C53.5225 4.83023 53.0066 4.6293 52.583 4.22742C52.1702 3.81469 51.9639 3.31506 51.9639 2.72854C51.9639 2.13116 52.1702 1.63153 52.583 1.22965C53.0066 0.816918 53.5225 0.610549 54.1307 0.610549C54.739 0.610549 55.2549 0.816918 55.6785 1.22965C56.1021 1.63153 56.3139 2.13116 56.3139 2.72854C56.3139 3.31506 56.1021 3.81469 55.6785 4.22742C55.2549 4.6293 54.739 4.83023 54.1307 4.83023ZM61.5209 15.0943V25H58.0832V7.79542H61.4557V12.064H60.6574C61.2222 10.5216 62.0042 9.37033 63.0035 8.61003C64.0136 7.83886 65.2301 7.45328 66.6529 7.45328C67.8368 7.45328 68.8958 7.71396 69.8299 8.23531C70.7749 8.7458 71.5189 9.5061 72.062 10.5162C72.605 11.5263 72.8766 12.7808 72.8766 14.2797V25H69.4389V14.7033C69.4389 13.3239 69.1076 12.2866 68.4451 11.5915C67.7934 10.8855 66.8702 10.5325 65.6754 10.5325C64.8934 10.5325 64.1874 10.69 63.5574 11.005C62.9383 11.32 62.4441 11.8142 62.0748 12.4876C61.7055 13.161 61.5209 14.0299 61.5209 15.0943ZM82.4336 25.391C80.7283 25.391 79.262 25.0054 78.0347 24.2343C76.8182 23.4631 75.8787 22.4041 75.2161 21.0573C74.5644 19.6996 74.2386 18.1573 74.2386 16.4303C74.2386 14.6707 74.5807 13.1175 75.265 11.7707C75.9493 10.413 76.8942 9.34861 78.0999 8.57744C79.3055 7.79542 80.6903 7.4044 82.2544 7.4044C83.4709 7.4044 84.5679 7.62163 85.5454 8.05609C86.5338 8.49055 87.381 9.10966 88.087 9.91341C88.793 10.7063 89.3361 11.6512 89.7162 12.7483C90.0964 13.8453 90.2864 15.0617 90.2864 16.3977V17.3264H75.7864V14.7196H88.478L86.9628 15.5179C86.9628 14.4535 86.7727 13.5303 86.3926 12.7483C86.0124 11.9554 85.4694 11.3471 84.7634 10.9235C84.0682 10.4891 83.2428 10.2718 82.287 10.2718C81.342 10.2718 80.522 10.4891 79.8268 10.9235C79.1317 11.3471 78.5886 11.9554 78.1976 12.7483C77.8175 13.5303 77.6274 14.4535 77.6274 15.5179V17.0005C77.6274 18.0867 77.8175 19.0479 78.1976 19.8842C78.5778 20.7097 79.1263 21.356 79.8431 21.823C80.5708 22.2901 81.4506 22.5236 82.4825 22.5236C83.2319 22.5236 83.8945 22.4095 84.4701 22.1814C85.0458 21.9425 85.5237 21.6166 85.9038 21.2039C86.284 20.7912 86.5555 20.3133 86.7184 19.7702H90.0258C89.8194 20.8781 89.3578 21.8556 88.6409 22.7028C87.9349 23.5391 87.0443 24.1963 85.969 24.6742C84.9046 25.1521 83.7261 25.391 82.4336 25.391ZM98.9637 25.391C97.3236 25.391 95.8899 25.0109 94.6625 24.2506C93.4352 23.4903 92.4739 22.4367 91.7788 21.0899C91.0945 19.7322 90.7524 18.179 90.7524 16.4303C90.7524 14.6599 91.0945 13.0958 91.7788 11.7381C92.4739 10.3804 93.4352 9.32146 94.6625 8.56115C95.8899 7.78999 97.3236 7.4044 98.9637 7.4044C99.9846 7.4044 100.93 7.5619 101.799 7.87688C102.678 8.181 103.449 8.61546 104.112 9.18026C104.775 9.73419 105.307 10.3967 105.709 11.1679C106.121 11.9282 106.382 12.7645 106.491 13.6769H103.069C102.982 13.1881 102.83 12.7428 102.613 12.3409C102.396 11.9391 102.113 11.5915 101.766 11.2982C101.418 11.005 101.011 10.7769 100.544 10.614C100.088 10.451 99.5665 10.3696 98.98 10.3696C97.9916 10.3696 97.1444 10.6194 96.4384 11.119C95.7324 11.6187 95.1893 12.3247 94.8092 13.237C94.429 14.1385 94.2389 15.2029 94.2389 16.4303C94.2389 17.6468 94.429 18.7058 94.8092 19.6073C95.1893 20.4979 95.7324 21.1931 96.4384 21.6927C97.1444 22.1814 97.9916 22.4258 98.98 22.4258C99.5665 22.4258 100.088 22.3498 100.544 22.1977C101 22.0348 101.391 21.8067 101.717 21.5135C102.043 21.2202 102.314 20.8726 102.532 20.4708C102.749 20.058 102.912 19.6018 103.02 19.1022H106.491C106.393 20.0037 106.138 20.8346 105.725 21.5949C105.323 22.3552 104.785 23.0232 104.112 23.5989C103.449 24.1637 102.678 24.6036 101.799 24.9185C100.93 25.2335 99.9846 25.391 98.9637 25.391ZM115.152 25.391C113.512 25.391 112.072 25.0109 110.834 24.2506C109.596 23.4903 108.629 22.4367 107.934 21.0899C107.25 19.743 106.908 18.1899 106.908 16.4303C106.908 14.649 107.25 13.085 107.934 11.7381C108.629 10.3804 109.596 9.32146 110.834 8.56115C112.072 7.78999 113.512 7.4044 115.152 7.4044C116.792 7.4044 118.225 7.78999 119.453 8.56115C120.691 9.32146 121.652 10.3804 122.336 11.7381C123.032 13.085 123.379 14.649 123.379 16.4303C123.379 18.1899 123.032 19.743 122.336 21.0899C121.652 22.4367 120.691 23.4903 119.453 24.2506C118.225 25.0109 116.792 25.391 115.152 25.391ZM115.152 22.4258C116.129 22.4258 116.971 22.1814 117.677 21.6927C118.394 21.1931 118.942 20.4925 119.322 19.591C119.713 18.6895 119.909 17.6359 119.909 16.4303C119.909 15.1921 119.713 14.1222 119.322 13.2207C118.942 12.3192 118.394 11.6187 117.677 11.119C116.971 10.6194 116.129 10.3696 115.152 10.3696C114.174 10.3696 113.327 10.6194 112.61 11.119C111.904 11.6078 111.356 12.3084 110.965 13.2207C110.584 14.1222 110.394 15.1921 110.394 16.4303C110.394 17.6468 110.584 18.7058 110.965 19.6073C111.356 20.4979 111.904 21.1931 112.61 21.6927C113.316 22.1814 114.163 22.4258 115.152 22.4258ZM124.758 25V7.79542H128.049V10.5814H128.114C128.429 9.63644 128.923 8.90329 129.596 8.38194C130.281 7.84973 131.171 7.58362 132.268 7.58362C132.529 7.58362 132.768 7.59448 132.985 7.6162C133.213 7.62706 133.392 7.64336 133.523 7.66508V10.8746C133.392 10.8421 133.159 10.8095 132.822 10.7769C132.485 10.7334 132.116 10.7117 131.714 10.7117C131.073 10.7117 130.482 10.8584 129.938 11.1516C129.406 11.4449 128.983 11.8956 128.668 12.5039C128.353 13.1121 128.195 13.8887 128.195 14.8337V25H124.758ZM141.516 25.391C139.81 25.391 138.344 25.0054 137.117 24.2343C135.9 23.4631 134.961 22.4041 134.298 21.0573C133.647 19.6996 133.321 18.1573 133.321 16.4303C133.321 14.6707 133.663 13.1175 134.347 11.7707C135.031 10.413 135.976 9.34861 137.182 8.57744C138.388 7.79542 139.772 7.4044 141.336 7.4044C142.553 7.4044 143.65 7.62163 144.627 8.05609C145.616 8.49055 146.463 9.10966 147.169 9.91341C147.875 10.7063 148.418 11.6512 148.798 12.7483C149.178 13.8453 149.369 15.0617 149.369 16.3977V17.3264H134.868V14.7196H147.56L146.045 15.5179C146.045 14.4535 145.855 13.5303 145.475 12.7483C145.095 11.9554 144.551 11.3471 143.845 10.9235C143.15 10.4891 142.325 10.2718 141.369 10.2718C140.424 10.2718 139.604 10.4891 138.909 10.9235C138.214 11.3471 137.671 11.9554 137.28 12.7483C136.9 13.5303 136.709 14.4535 136.709 15.5179V17.0005C136.709 18.0867 136.9 19.0479 137.28 19.8842C137.66 20.7097 138.208 21.356 138.925 21.823C139.653 22.2901 140.533 22.5236 141.565 22.5236C142.314 22.5236 142.977 22.4095 143.552 22.1814C144.128 21.9425 144.606 21.6166 144.986 21.2039C145.366 20.7912 145.638 20.3133 145.801 19.7702H149.108C148.901 20.8781 148.44 21.8556 147.723 22.7028C147.017 23.5391 146.126 24.1963 145.051 24.6742C143.987 25.1521 142.808 25.391 141.516 25.391Z" fill="#0F4953"/>
</svg>
