<svg id="Lafarge_Logo_RGB" xmlns="http://www.w3.org/2000/svg" width="166.741" height="55.58" viewBox="0 0 166.741 55.58">
  <path id="Pfad_12982" data-name="Pfad 12982" d="M828.869,681.491h8.253v3.581h-8.253v5.458h-6.976V675.394h15.57v3.573h-8.594Zm46.544,1.99a4.5,4.5,0,0,1,3.069,1.629c1.119,1.4,1.594,5.42,1.594,5.42h-7.142c-.313-1.077-.382-3.446-.945-4.35-.429-.7-1.134-.79-1.992-.79H868.2v5.139h-6.741V675.394h11.265c4.341,0,7.025,1.125,7.025,4.029,0,2.325-1.746,3.5-4.339,4.015v.042m-5.3-1.374c1.416,0,2.817-.14,2.817-1.772,0-1.448-1.338-1.656-2.732-1.656H868.2v3.428h1.906m24.225,4.78a5.676,5.676,0,0,1-1.491.127c-2.782,0-3.8-1.824-3.8-3.9,0-2.762,2.293-4.212,5.757-4.212a12.213,12.213,0,0,1,4.8.873v-4.085a31.7,31.7,0,0,0-6.794-.561c-5.854,0-10.876,2.539-10.876,7.617,0,5.4,4.833,8.05,10.876,8.05a29.925,29.925,0,0,0,7.51-.834v-7.993h-5.985Zm15.977.069v-2.315h8.546V681.1h-8.546v-2.168h8.94v-3.54H903.489V690.53h15.938v-3.574ZM789.249,675.4H782.27V690.53h14.7v-4.235h-7.726Zm24.367,0,6.465,15.134h-7.253l-1.18-3.261h-5.993l-1.112,3.261H797.63l6.377-15.136Zm-4.956,2.729-2.21,6H810.9l-2.172-6Zm44.488-2.729,6.467,15.135h-7.253l-1.181-3.261h-6l-1.112,3.261h-6.913l6.374-15.136Zm-4.954,2.729-2.208,6h4.443l-2.168-6Z" transform="translate(-752.686 -651.502)"/>
  <path id="Pfad_12983" data-name="Pfad 12983" d="M27.919,40.737V22.221h8.125L45.8,0H24.414L0,55.58H36.6l3.663-8.3H25.047Z" fill="#008750"/>
</svg>
