<svg id="Layer_1" data-name="Layer 1" xmlns="http://www.w3.org/2000/svg" viewBox="0 0 700 400"><defs><style>.cls-1{fill:#4f39f6;}.cls-2{fill:#070707;}</style></defs><path class="cls-1" d="M188.13,154.46a19.83,19.83,0,0,0-30.72-.08l-41.57,50.7a9.89,9.89,0,0,0,0,12.56,1.51,1.51,0,0,0,2.33,0L164,161.8a11.36,11.36,0,0,1,16.58-1.05,1.53,1.53,0,0,1,.16,2.07l-42.61,52.65a23.09,23.09,0,0,0,0,29.3l5.79,7.06a1.51,1.51,0,0,0,2.34,0l40.46-49.33a1.51,1.51,0,0,1,2.34,0l40.86,49.82a1.51,1.51,0,0,0,2.33,0l6.08-7.4a23.13,23.13,0,0,0,0-29.31L195.5,162.9a1.53,1.53,0,0,1,.16-2.07,11.35,11.35,0,0,1,16.57,1l45.91,56a1.51,1.51,0,0,0,2.34,0,9.91,9.91,0,0,0,0-12.56l-41.7-50.84A19.82,19.82,0,0,0,188.13,154.46Zm43.19,68.07a12.2,12.2,0,0,1,1.21,13.7,1.52,1.52,0,0,1-2.48.23l-41-49.39a1.51,1.51,0,0,0-2.33,0l-41.64,50.77h0a12.2,12.2,0,0,1,0-15.46L187,171.29a1.52,1.52,0,0,1,2.34,0Z"/><path class="cls-2" d="M369.55,170.42a7,7,0,0,0-12.95-2.72l-23.87,39.37L309,167.75a7,7,0,0,0-13,2.72L288,232a5.26,5.26,0,0,0,5.21,5.94h7.65a1,1,0,0,0,1-.87l5.61-49.77,19.44,33a6.82,6.82,0,0,0,11.75,0l19.45-32.95,5.72,49.77a1,1,0,0,0,1,.87h7.65A5.26,5.26,0,0,0,377.6,232Z"/><path class="cls-2" d="M421.83,184a32.64,32.64,0,0,0-11.95-2,39.21,39.21,0,0,0-13.49,2.14,66.37,66.37,0,0,0-6.16,2.55,3.63,3.63,0,0,0-1.53,5.1l1.51,2.61a3.64,3.64,0,0,0,4.84,1.41l.62-.32a29,29,0,0,1,5.83-2.14,27.88,27.88,0,0,1,7.19-.89,21.9,21.9,0,0,1,4.64.47,10.49,10.49,0,0,1,3.68,1.55,7.72,7.72,0,0,1,2.44,2.73,9.09,9.09,0,0,1,.89,4.28v6.71a28.23,28.23,0,0,0-6.36-2.67,33.41,33.41,0,0,0-9.45-1.18q-10.23,0-15.81,4.69t-5.59,12.66a16.17,16.17,0,0,0,9.63,15.46,22.6,22.6,0,0,0,9.51,2,26.25,26.25,0,0,0,9.33-1.73,18.46,18.46,0,0,0,7.61-5.23,13.05,13.05,0,0,0,1.13-1.55v2.06A5.26,5.26,0,0,0,425.6,238H432a1,1,0,0,0,1-1V199a14.38,14.38,0,0,0-3-9.22A19,19,0,0,0,421.83,184Zm-3.45,39.4a12.64,12.64,0,0,1-5.11,4.58,15.59,15.59,0,0,1-7,1.55,13.94,13.94,0,0,1-5.29-.95,7.83,7.83,0,0,1-3.62-2.92,8.18,8.18,0,0,1-1.31-4.69,7.44,7.44,0,0,1,1.25-4.4,8.09,8.09,0,0,1,3.74-2.79,17.57,17.57,0,0,1,6.54-1,32,32,0,0,1,8.8,1.18,25.52,25.52,0,0,1,3.92,1.5v.88A12.68,12.68,0,0,1,418.38,223.41Z"/><path class="cls-2" d="M485.3,185.73a30.64,30.64,0,0,0-15-3.62,31,31,0,0,0-15.1,3.62,27.25,27.25,0,0,0-10.52,10.05,30.35,30.35,0,0,0,0,29.66,27.09,27.09,0,0,0,10.52,10.1,31,31,0,0,0,15.1,3.63,30.64,30.64,0,0,0,15-3.63,27.65,27.65,0,0,0,10.52-10.1,28.41,28.41,0,0,0-10.52-39.71Zm-.89,33.88a15.57,15.57,0,0,1-5.88,6.06,16.09,16.09,0,0,1-22.41-6.06,18.17,18.17,0,0,1-2.14-9,18.55,18.55,0,0,1,2.14-9,15.44,15.44,0,0,1,5.82-6.06,17.15,17.15,0,0,1,16.59,0,15.18,15.18,0,0,1,5.88,6.06,18.55,18.55,0,0,1,2.14,9A18.17,18.17,0,0,1,484.41,219.61Z"/><path class="cls-2" d="M538.26,182.11a19.25,19.25,0,0,0-9.8,2.37,17.88,17.88,0,0,0-6.72,7.25v-7.46a1,1,0,0,0-1-1h-6.6a5.26,5.26,0,0,0-5.26,5.26v45.78a3.65,3.65,0,0,0,3.65,3.65h5.54a3.65,3.65,0,0,0,3.65-3.65V204.69a13.21,13.21,0,0,1,1.54-6.48,10.69,10.69,0,0,1,4.28-4.28,13,13,0,0,1,6.3-1.48q5.24,0,7.73,3.09t2.5,9.15v29.64a3.65,3.65,0,0,0,3.65,3.65h5.89a3.65,3.65,0,0,0,3.65-3.65V203.26q0-9.85-4.87-15.51T538.26,182.11Z"/><path class="cls-2" d="M578.32,176.52a7.84,7.84,0,0,0,5.77-2.31,7.82,7.82,0,0,0,0-11.12,8,8,0,0,0-5.77-2.26,8.06,8.06,0,0,0-5.64,2.26,7.55,7.55,0,0,0,0,11.12A7.94,7.94,0,0,0,578.32,176.52Z"/><rect class="cls-2" x="572.02" y="183.29" width="12.6" height="54.68" rx="3.65"/></svg>