<svg xmlns="http://www.w3.org/2000/svg" viewBox="0 0 167 30" width="167" height="30">
  <path d="M 127.981 15.337 C 127.981 14.236 127.063 13.466 125.412 13.466 C 124.711 13.466 124.166 13.615 123.75 13.868 C 122.534 14.603 121.491 16.034 120.07 16.034 C 118.579 16.034 117.333 14.749 117.946 13.392 C 119.057 10.933 121.674 9.174 125.78 9.174 C 130.403 9.174 134 11.888 134 16.07 L 134 25.245 C 134 26.905 132.653 28.25 130.991 28.25 C 129.328 28.25 127.981 26.905 127.981 25.245 L 127.981 24.763 C 127.504 26.305 125.633 28.249 123.247 28.249 C 119.798 28.249 117.338 25.79 117.338 22.71 C 117.338 19.078 119.981 16.878 123.872 16.878 L 126.513 16.878 C 127.468 16.878 127.981 16.217 127.981 15.336 Z M 123.064 22.416 C 123.064 23.37 123.872 24.031 124.936 24.031 C 126.881 24.031 127.981 22.416 127.981 20.692 L 127.981 20.545 L 124.899 20.545 C 123.835 20.545 123.064 21.316 123.064 22.416 Z M 106.601 28.249 C 100.913 28.249 96.84 24.287 96.84 18.711 C 96.84 13.135 100.913 9.174 106.601 9.174 C 110.36 9.174 113.441 10.838 114.944 13.421 C 115.885 15.039 114.344 16.694 112.472 16.694 C 110.933 16.694 109.646 15.376 108.282 14.664 C 107.831 14.43 107.33 14.308 106.822 14.31 C 104.583 14.31 103.116 16.034 103.116 18.711 C 103.116 21.389 104.62 23.113 106.895 23.113 C 107.436 23.113 107.944 22.98 108.384 22.746 C 109.737 22.025 111.017 20.692 112.551 20.692 C 114.446 20.692 115.931 22.412 114.888 23.994 C 113.22 26.527 110.08 28.249 106.601 28.249 Z M 91.798 27.956 C 90.994 27.956 90.224 27.637 89.656 27.07 C 89.089 26.503 88.77 25.733 88.77 24.932 L 88.77 12.49 C 88.77 10.82 90.126 9.467 91.798 9.467 C 93.47 9.467 94.825 10.82 94.825 12.49 L 94.825 24.932 C 94.825 25.733 94.506 26.503 93.939 27.07 C 93.371 27.637 92.601 27.956 91.798 27.956 Z M 91.635 7.192 C 89.992 7.192 88.66 5.862 88.66 4.221 C 88.66 2.58 89.992 1.25 91.635 1.25 L 91.997 1.25 C 93.616 1.283 94.911 2.604 94.911 4.221 C 94.911 5.838 93.616 7.159 91.997 7.192 Z M 70.518 27.956 C 69.715 27.956 68.945 27.638 68.377 27.071 C 67.809 26.504 67.49 25.735 67.49 24.933 L 67.49 12.197 C 67.49 10.527 68.845 9.173 70.518 9.173 C 72.19 9.173 73.546 10.527 73.546 12.197 L 73.546 12.512 C 74.61 11.082 76.555 9.173 78.977 9.173 C 83.125 9.173 85.84 12.218 85.84 16.327 L 85.84 24.933 C 85.84 26.603 84.484 27.956 82.812 27.956 C 81.14 27.956 79.784 26.603 79.784 24.933 L 79.784 17.758 C 79.784 15.923 78.5 14.529 76.665 14.529 C 74.83 14.529 73.546 15.923 73.546 17.757 L 73.546 24.932 C 73.546 25.733 73.227 26.503 72.659 27.07 C 72.092 27.637 71.321 27.956 70.518 27.956 Z M 55.56 28.249 C 49.798 28.249 45.651 24.177 45.651 18.711 C 45.651 13.244 49.799 9.174 55.56 9.174 C 61.322 9.174 65.469 13.246 65.469 18.711 C 65.469 24.177 61.322 28.249 55.56 28.249 Z M 51.706 18.711 C 51.706 21.352 53.248 23.113 55.56 23.113 C 57.872 23.113 59.414 21.352 59.414 18.711 C 59.414 16.07 57.872 14.31 55.559 14.31 C 53.249 14.31 51.706 16.07 51.706 18.711 Z" fill="#000000"/>
  <path d="M 27.962 0.419 C 29.1 0.931 29.754 2.152 29.558 3.395 L 27.828 14.077 L 35.07 2.587 C 35.795 1.45 37.209 0.982 38.459 1.466 C 39.713 1.949 40.251 3.089 40.251 4.411 L 40.206 23.383 L 40.206 26.769 C 40.206 28.289 39.171 30 37.121 30 C 35.07 30 34.016 28.235 34.016 26.259 L 34.016 15.883 L 25.241 28.691 C 24.521 29.819 23.123 30.289 21.878 29.821 C 20.637 29.367 19.89 28.086 20.097 26.769 L 22.424 12.383 L 11.647 26.375 C 8.001 31.394 2.171 28.85 0.99 27.855 C 0.423 27.382 0.07 26.699 0.009 25.959 C -0.053 25.22 0.184 24.486 0.664 23.925 L 22.968 1.149 C 24.826 -0.394 26.819 -0.104 27.962 0.419 Z" fill="#00BF33"/>
</svg>
