<svg width="234" height="100" viewBox="0 0 234 100" fill="none" xmlns="http://www.w3.org/2000/svg">
<g clip-path="url(#clip0_24543_47784)">
<path d="M26.865 71.2175C26.865 81.2064 21.7863 86.57 13.4895 86.57C5.19265 86.57 0 81.4318 0 71.2175C0 62.0734 5.36108 56.7123 13.4895 56.7123C21.6179 56.7123 26.865 61.7365 26.865 71.2175ZM13.4895 81.1494C18.0603 81.1494 20.2627 77.4233 20.2627 71.2149C20.2627 65.6284 17.7804 62.1278 13.4895 62.1278C8.86171 62.1278 6.60482 65.6284 6.60482 71.2149C6.60482 77.4803 8.91872 81.1494 13.4895 81.1494Z" fill="#0A5650"/>
<path d="M48.5939 58.0106C49.0448 57.7851 49.8351 57.5597 51.4727 57.5597C53.3357 57.5597 54.6339 57.8991 55.3102 58.407L46.8449 71.0492L56.5513 85.1035C56.0434 85.443 54.7453 85.6684 53.2217 85.6684C51.6981 85.6684 49.8351 85.443 49.2702 85.1035L44.6994 78.3873C44.1345 77.597 43.1758 76.1304 42.9504 75.2261H42.611C42.3855 76.1304 41.5382 77.483 41.0304 78.2733L36.4596 85.1035C35.8947 85.443 34.2027 85.6684 32.5651 85.6684C30.9275 85.6684 29.8003 85.443 29.2925 85.1035L39.2269 70.8238L30.7617 58.407C31.4379 57.8991 32.7931 57.5597 34.7132 57.5597C36.3508 57.5597 37.1955 57.7851 37.6489 58.0106L41.4294 63.5971C41.9943 64.4444 42.896 65.8539 43.124 66.7583H43.4634C43.6889 65.8539 44.4792 64.5014 44.987 63.7111L48.5991 58.0106H48.5939Z" fill="#0A5650"/>
<path d="M72.806 81.6029C73.0884 79.175 73.6533 76.2962 74.2726 74.3788L79.5222 58.0106C79.9731 57.7851 80.652 57.5597 82.287 57.5597C84.15 57.5597 85.2772 57.8991 85.9561 58.407L81.7221 70.8238C79.6907 76.9181 77.4338 83.4659 74.7805 88.0937C71.6763 93.5688 67.6133 97.1809 61.234 99.2123C59.7674 98.0826 58.6376 95.9397 58.4122 93.8513C63.3794 92.4961 66.595 89.5629 68.6835 86.1193L58.0728 58.407C58.749 57.8991 60.0472 57.5597 61.9102 57.5597C63.5478 57.5597 64.2241 57.7851 64.675 58.0106L70.8264 74.4902C71.4456 76.1848 72.1245 79.175 72.464 81.6029H72.8034H72.806Z" fill="#0A5650"/>
<path d="M92.0918 75.1664C89.8919 73.5288 88.6482 70.9325 88.6482 66.9836C88.6482 60.2103 93.39 56.7123 100.161 56.7123C102.418 56.7123 104.449 57.1061 106.03 57.842H113.987C114.552 59.0832 114.834 60.8892 114.834 62.6952H110.546V62.9207C111.168 63.711 111.676 65.0661 111.676 67.266C111.676 73.6428 107.499 77.3689 100.275 77.3689C98.8651 77.3689 97.4529 77.2005 96.4942 76.804C95.8179 77.3119 95.4785 78.2706 95.4785 79.0039C95.4785 80.8669 97.7353 81.3178 101.969 81.3178C109.533 81.3178 115.062 82.7844 115.062 89.9515C115.062 97.1186 109.476 99.9973 100.614 99.9973C92.7137 99.9973 87.0132 97.6264 87.0132 91.3611C87.0132 87.692 88.9332 85.4351 91.3585 84.6448V84.3054C89.8919 83.4581 89.1587 82.0485 89.1587 80.1854C89.1587 77.9286 90.2884 76.1225 92.0944 75.5007V75.1612L92.0918 75.1664ZM95.8749 86.0596C94.1829 86.9639 93.1646 88.5419 93.1646 90.2935C93.1646 93.7941 96.8336 94.8643 101.122 94.8643C105.918 94.8643 108.968 93.5091 108.968 90.2935C108.968 87.6402 107.048 86.5674 100.503 86.5674C98.1888 86.5674 96.8906 86.399 95.8749 86.0596ZM100.163 72.4017C103.775 72.4017 105.695 70.3132 105.695 66.9836C105.695 63.654 103.721 61.6769 100.163 61.6769C96.6056 61.6769 94.6311 63.7084 94.6311 66.9836C94.6311 70.4272 96.5512 72.4017 100.163 72.4017Z" fill="#0A5650"/>
<path d="M124.997 73.6998C125.279 78.7785 128.666 81.0923 134.478 81.0923C138.09 81.0923 141.137 80.188 143.225 79.1179C143.394 80.9239 142.661 83.4062 141.588 84.536C139.782 85.6087 136.735 86.5674 132.897 86.5674C123.471 86.5674 118.335 80.9239 118.335 71.9508C118.335 62.9777 123.642 56.7123 132.275 56.7123C140.064 56.7123 143.733 61.6225 143.733 68.6782C143.733 70.4272 143.508 72.1762 143 73.7024H124.997V73.6998ZM137.414 68.7326C137.807 65.346 136.68 61.7909 131.995 61.7909C127.819 61.7909 125.279 64.5557 124.997 68.7326H137.414Z" fill="#0A5650"/>
<path d="M157.223 85.1009C156.601 85.4403 155.585 85.6087 153.95 85.6087C152.315 85.6087 151.354 85.4403 150.734 85.1009V58.3473C151.976 57.671 153.839 57.3316 155.984 57.3316L156.38 61.7339H156.72C158.018 58.9692 160.897 56.7097 166.147 56.7097C170.492 56.7097 175.516 58.2333 175.516 67.4345V85.1009C174.894 85.4403 173.878 85.6087 172.243 85.6087C170.608 85.6087 169.647 85.4403 169.025 85.1009V68.6756C169.025 64.9496 167.841 62.6357 163.833 62.6357C160.335 62.6357 158.301 64.4417 157.23 66.4161V85.0983L157.223 85.1009Z" fill="#0A5650"/>
<path d="M220.763 17.0316H223.074V17.0186C226.896 17.0186 229.995 13.9196 229.995 10.0977C229.995 6.27577 226.896 3.17676 223.074 3.17676C219.252 3.17676 216.153 6.27577 216.153 10.0977C216.153 10.1288 216.158 10.1573 216.158 10.1884H216.153V11.7742C216.153 11.7742 216.153 11.7794 216.153 11.7819C216.153 14.1528 215.64 16.3709 214.746 18.2728C216.544 17.5472 218.589 17.1067 220.765 17.0316" fill="#0A5650"/>
<path d="M224.665 34.0684C217.021 34.0684 210.823 29.5235 210.823 23.9163C210.823 22.9083 211.025 21.9366 211.396 21.0194C210.709 21.2059 209.996 21.3044 209.266 21.3044C203.664 21.3044 199.124 15.5831 199.124 8.52745C199.124 8.52486 199.124 8.52227 199.124 8.51968C199.124 3.81416 195.31 0 190.604 0C185.899 0 182.084 3.81416 182.084 8.51968C182.084 13.2252 185.899 17.0394 190.604 17.0394C195.898 17.0394 200.186 20.8483 200.186 25.5487C200.186 30.249 195.895 34.058 190.604 34.058V34.0709C185.899 34.0709 182.084 37.8851 182.084 42.5906C182.084 47.2961 185.899 51.1103 190.604 51.1103C195.31 51.1103 199.124 47.2961 199.124 42.5906H199.129C199.168 37.3358 202.959 33.0889 207.631 33.0889C212.302 33.0889 216.093 37.3358 216.132 42.5906H216.148C216.148 47.2961 219.962 51.1103 224.667 51.1103C229.373 51.1103 233.187 47.2961 233.187 42.5906C233.187 37.8851 229.373 34.0709 224.667 34.0709" fill="#0A5650"/>
</g>
<defs>
<clipPath id="clip0_24543_47784">
<rect width="233.185" height="100" fill="white"/>
</clipPath>
</defs>
</svg>
