<?xml version="1.0" encoding="UTF-8"?>
<svg xmlns="http://www.w3.org/2000/svg" width="169" height="56" viewBox="0 0 169 56" fill="none">
  <path d="M17.7912 42.5868C17.2872 42.259 16.9093 41.7699 16.7194 41.1994C16.7085 41.1667 16.694 41.1341 16.6849 41.0996L16.4057 40.1257L11.9116 24.4853V24.4708L11.1861 21.9645C11.0275 21.4085 11.0547 20.8159 11.2635 20.2768C11.4723 19.7377 11.8514 19.2815 12.3432 18.9775H12.3523C12.5546 18.8506 12.7738 18.7529 13.0034 18.6873L14.3309 18.3064L14.3527 18.3862L14.69 19.5415C14.8678 20.1493 15.2788 20.6621 15.8333 20.9679C16.3879 21.2737 17.0409 21.3477 17.6498 21.1737L25.2415 18.9974C25.8502 18.8205 26.3639 18.4093 26.6699 17.8541C26.9759 17.2989 27.0492 16.645 26.8737 16.0358L26.5219 14.8099L27.8494 14.429C28.2506 14.3137 28.6733 14.295 29.0831 14.3744C29.4929 14.4538 29.878 14.6292 30.2071 14.886L46.4659 23.0472C45.5725 18.979 43.5958 15.2281 40.745 12.1915C37.8942 9.15488 34.2754 6.94555 30.2717 5.79738C26.268 4.6492 22.0283 4.6049 18.0015 5.66915C13.9747 6.73341 10.3105 8.86662 7.39689 11.843C4.48326 14.8194 2.42858 18.5282 1.45035 22.5767C0.47211 26.6253 0.606718 30.8631 1.83992 34.8414C3.07312 38.8198 5.35903 42.3907 8.45567 45.1761C11.5523 47.9616 15.3445 49.858 19.4307 50.6645H19.4434C20.9149 50.9528 22.4108 51.098 23.9103 51.098C26.9941 51.1019 30.0471 50.4852 32.8876 49.2844L18.5602 42.9205C18.2877 42.8512 18.028 42.7385 17.7912 42.5868ZM19.4235 13.0797C20.0108 12.9123 20.6395 12.9715 21.1853 13.2456C21.731 13.5196 22.154 13.9886 22.3706 14.5596L17.7187 15.898C17.5987 15.2991 17.7081 14.6771 18.0252 14.1551C18.3423 13.6331 18.844 13.2492 19.4307 13.0797H19.4235ZM16.3404 17.795C16.3661 17.743 16.4022 17.6968 16.4465 17.6594C16.4908 17.622 16.5423 17.594 16.5979 17.5774L24.1896 15.4011C24.2773 15.3752 24.3713 15.3796 24.4562 15.4138C24.5169 15.4366 24.5714 15.4732 24.6155 15.5207C24.6596 15.5682 24.6919 15.6254 24.7101 15.6876L25.0637 16.9191C25.079 16.9722 25.0836 17.0278 25.0774 17.0827C25.0711 17.1376 25.0541 17.1907 25.0273 17.239C25.0006 17.2874 24.9645 17.3299 24.9213 17.3644C24.8781 17.3988 24.8285 17.4243 24.7754 17.4396L17.1855 19.6159C17.082 19.6411 16.9727 19.6261 16.8798 19.5739C16.7869 19.5218 16.7173 19.4363 16.6849 19.3348L16.3222 18.1015C16.2948 18.0004 16.3072 17.8927 16.3567 17.8005L16.3404 17.795ZM16.9606 42.2204L16.9951 42.2096V42.2404L16.9606 42.2204Z" fill="#552F86"></path>
  <path d="M46.4696 23.0323L30.2108 14.8711C30.2253 14.882 30.2362 14.8965 30.2507 14.9074C30.3388 14.9776 30.4224 15.0534 30.501 15.1341L30.5173 15.1504C30.5518 15.1885 30.5844 15.2266 30.6153 15.2665C30.6461 15.3064 30.6461 15.301 30.6588 15.3191C30.6715 15.3372 30.7168 15.3953 30.7458 15.4352L30.773 15.4732L30.7894 15.4968C30.7894 15.4968 30.7894 15.5095 30.7984 15.515C30.8075 15.5204 30.8329 15.5712 30.851 15.6002L30.9109 15.7072L30.9544 15.7924C30.9544 15.7924 30.9544 15.8051 30.9544 15.8124L30.9816 15.8704L31.0034 15.9212C31.0142 15.9448 31.0251 15.9702 31.0342 15.9956C31.0614 16.0645 31.085 16.1352 31.1067 16.2077L33.4118 24.2329L36.6346 35.3647C36.7652 35.8158 36.7721 36.2938 36.6545 36.7485C36.5417 37.1977 36.313 37.6094 35.9912 37.9426C35.6695 38.2758 35.266 38.5188 34.821 38.6473L34.6033 38.7108C34.6069 38.674 34.6069 38.6369 34.6033 38.6001C34.6042 38.5893 34.6042 38.5783 34.6033 38.5675C34.6033 38.5675 34.6033 38.5512 34.6033 38.5421C34.5983 38.5023 34.5904 38.4629 34.5798 38.4242L32.4035 30.8253L29.8227 21.8408L29.7846 21.7374C29.7058 21.5584 29.5648 21.4141 29.3878 21.331C29.2107 21.248 29.0096 21.2319 28.8216 21.2858C28.1177 21.4834 27.4807 21.8683 26.9783 22.3994C26.4759 22.9305 26.127 23.588 25.9688 24.3018C25.9453 24.407 25.9271 24.514 25.9126 24.621C25.9126 24.6736 25.8999 24.7262 25.8945 24.777C25.889 24.8277 25.8854 24.8803 25.8836 24.9329C25.8559 25.3886 25.9068 25.8456 26.0341 26.284L27.3036 30.6784L28.1996 33.7996L28.2177 33.8467L28.2376 33.9029C28.3165 34.0818 28.4575 34.226 28.6346 34.3087C28.8118 34.3915 29.0129 34.4071 29.2007 34.3527L31.5311 33.6835L33.0074 38.8704L33.04 38.9647C33.0647 39.0195 33.0958 39.0712 33.1325 39.1188L24.9986 41.4565C25.0031 41.4089 25.0031 41.3609 24.9986 41.3133C24.9986 41.2897 24.9986 41.2661 24.9859 41.2425C24.9732 41.2189 24.9859 41.1936 24.9732 41.17L22.8767 33.8721L22.5702 32.8057C23.1765 32.4978 23.7018 32.0513 24.1032 31.5024C24.5047 30.9534 24.771 30.3176 24.8807 29.6464C24.9165 29.4233 24.934 29.1977 24.9333 28.9718C24.9333 28.95 24.9333 28.9264 24.9333 28.9029C24.9282 28.56 24.8819 28.219 24.7954 27.8873C24.7846 27.8474 24.7773 27.8056 24.7664 27.7639L23.5767 23.6271L23.5404 23.5238C23.4627 23.3495 23.326 23.2083 23.1544 23.1249C22.9828 23.0415 22.7872 23.0214 22.6022 23.0679C22.4172 23.1145 22.2545 23.2249 22.1428 23.3796C22.0311 23.5343 21.9776 23.7234 21.9916 23.9137C21.9969 23.9676 22.0066 24.021 22.0207 24.0733L22.9637 27.3522L23.2122 28.221L23.2339 28.308L23.2611 28.4132C23.3039 28.6152 23.3228 28.8216 23.3174 29.028C23.3174 29.057 23.3174 29.086 23.3174 29.1151C23.3123 29.2202 23.3008 29.325 23.2829 29.4288C23.2194 29.7899 23.0831 30.1343 22.8823 30.4411C22.6815 30.7479 22.4205 31.0106 22.115 31.2134L20.2125 24.5956L20.1762 24.4922C20.1037 24.3284 19.9789 24.1933 19.8213 24.108C19.6637 24.0228 19.4822 23.9924 19.3054 24.0214C19.1286 24.0505 18.9665 24.1374 18.8444 24.2686C18.7224 24.3997 18.6473 24.5677 18.6311 24.7461C18.6212 24.8455 18.6305 24.9458 18.6583 25.0417L20.5607 31.6613C19.9866 31.6467 19.4322 31.4494 18.9779 31.0982C18.5236 30.7469 18.1931 30.26 18.0344 29.7081L16.8465 25.5713L16.8084 25.4697C16.7366 25.3055 16.6121 25.1698 16.4547 25.0842C16.2972 24.9985 16.1157 24.9676 15.9388 24.9965C15.7619 25.0254 15.5997 25.1124 15.4777 25.2437C15.3557 25.3751 15.2809 25.5433 15.265 25.7218C15.2552 25.8218 15.2644 25.9227 15.2922 26.0193L16.4838 30.1651L16.5182 30.2739L16.5491 30.3791C16.5908 30.497 16.6361 30.6131 16.6869 30.7255C17.0541 31.5481 17.6694 32.2352 18.4467 32.6905C19.224 33.1459 20.1243 33.3466 21.0214 33.2645L23.4244 41.6288L23.4625 41.7322C23.4866 41.7869 23.517 41.8387 23.5531 41.8864L19.9659 42.9165C19.5055 43.0496 19.0173 43.0533 18.5549 42.9273L32.8822 49.2894C35.2415 48.2905 37.4184 46.9067 39.3241 45.1943C39.4865 45.0694 39.6376 44.9304 39.7757 44.779C42.6736 42.0403 44.8132 38.598 45.9862 34.7871C47.1593 30.9762 47.3258 26.9266 46.4696 23.0323Z" fill="#362469"></path>
  <path d="M16.3223 18.098L16.4275 18.4607L16.6088 19.0629L16.685 19.3313C16.7002 19.3844 16.7258 19.434 16.7602 19.4772C16.7946 19.5204 16.8372 19.5565 16.8855 19.5832C16.9338 19.61 16.987 19.627 17.0419 19.6333C17.0968 19.6395 17.1524 19.6349 17.2055 19.6196L24.7954 17.4433C24.8277 17.4331 24.8588 17.4191 24.8878 17.4016C24.8963 17.3978 24.9043 17.393 24.9114 17.3871C24.9348 17.371 24.9566 17.3528 24.9767 17.3327C24.9987 17.3079 25.0176 17.2805 25.0329 17.2511C25.0367 17.2454 25.0397 17.2393 25.042 17.2329C25.0543 17.208 25.0641 17.1819 25.071 17.155V17.1441C25.0782 17.115 25.0819 17.0852 25.0819 17.0552V17.0425C25.0806 17.0076 25.0758 16.973 25.0674 16.9391L24.7863 15.9616L24.7137 15.7077C24.7078 15.6888 24.6999 15.6706 24.6902 15.6533C24.6902 15.6424 24.6902 15.6315 24.6775 15.6207L24.663 15.6007C24.6513 15.5804 24.6373 15.5615 24.6212 15.5445L24.6067 15.53C24.5929 15.5158 24.5777 15.5031 24.5614 15.4919H24.5505C24.5366 15.483 24.5221 15.4751 24.507 15.4683C24.4959 15.4621 24.4844 15.4567 24.4725 15.452L24.4199 15.4375H24.4018H24.3546H24.2839C24.2581 15.4397 24.2326 15.4445 24.2077 15.452L16.6179 17.6283C16.5894 17.6373 16.5615 17.6482 16.5345 17.6609C16.5303 17.6618 16.526 17.6618 16.5218 17.6609L16.4946 17.6791L16.4637 17.7008C16.4232 17.7371 16.3899 17.7808 16.3658 17.8296C16.3575 17.8467 16.3502 17.8642 16.344 17.8822C16.3437 17.8882 16.3437 17.8943 16.344 17.9003V17.933C16.3432 17.9463 16.3432 17.9596 16.344 17.9729V18.0509C16.3463 18.0759 16.3506 18.1008 16.3567 18.1252L16.3223 18.098Z" fill="white"></path>
  <path d="M36.6344 35.3657L33.4443 24.2611L31.1338 16.2378C31.1157 16.1779 31.0939 16.1181 31.0721 16.0564V16.0292C31.0631 16.0038 31.0522 15.9784 31.0413 15.9549L31.0196 15.9041L30.9923 15.846C30.9923 15.846 30.9923 15.8333 30.9923 15.8261L30.9488 15.7408L30.889 15.6338C30.8708 15.6048 30.8545 15.5758 30.8364 15.5486C30.8182 15.5214 30.8364 15.5359 30.8273 15.5305L30.811 15.5069L30.7838 15.4688C30.7548 15.4289 30.7276 15.3908 30.6967 15.3527C30.6659 15.3147 30.6677 15.3183 30.6532 15.3001C30.6387 15.282 30.5897 15.2222 30.5553 15.1841L30.5389 15.1678C30.4604 15.087 30.3768 15.0113 30.2887 14.9411C30.2415 14.903 30.1944 14.8649 30.1454 14.8304C30.1256 14.8149 30.105 14.8004 30.0837 14.7869L30.0565 14.767L29.9967 14.7325C29.9532 14.7071 29.9096 14.6817 29.8643 14.6581L29.7754 14.611C29.7228 14.5856 29.6684 14.562 29.614 14.5403L29.5505 14.5149C29.4764 14.486 29.4007 14.4612 29.3238 14.4405L29.2459 14.4224C29.1896 14.4079 29.1316 14.3952 29.0645 14.3861L28.9847 14.3716C28.8856 14.3426 28.8015 14.3281 28.7326 14.3281H28.7054C28.6202 14.3281 28.5367 14.3281 28.4515 14.3281H28.379C28.3137 14.3281 28.2484 14.3408 28.1849 14.3516L28.1106 14.3625C28.0253 14.3788 27.9383 14.397 27.8512 14.4224L26.5237 14.8032L26.8773 16.0346C26.9417 16.2555 26.9729 16.4847 26.9698 16.7147C26.9698 16.7256 26.9698 16.7365 26.9698 16.7474C26.9579 17.2577 26.7835 17.751 26.472 18.1554C26.1606 18.5598 25.7282 18.8544 25.2378 18.9962L17.6461 21.1725C17.1179 21.3224 16.5543 21.2866 16.0493 21.0711C15.5443 20.8556 15.1286 20.4734 14.8714 19.9883C14.8605 19.9683 14.8532 19.9466 14.8423 19.9248C14.8151 19.8686 14.7879 19.8105 14.7644 19.7434C14.7408 19.6763 14.7136 19.6038 14.6918 19.5312L14.6664 19.4388L14.3599 18.3778L14.3382 18.298L13.0052 18.6807C12.9308 18.7024 12.8583 18.7278 12.7875 18.755L12.7005 18.7913L12.6007 18.8366C12.5173 18.8765 12.4357 18.9201 12.3577 18.9672H12.3468C12.2906 19.0017 12.2362 19.0398 12.1836 19.0779L12.1582 19.096C12.1074 19.1341 12.0567 19.174 12.0095 19.2157L11.9896 19.2338C11.7912 19.4082 11.6206 19.6119 11.4836 19.8377L11.4546 19.8849C11.4273 19.9284 11.4038 19.9738 11.3802 20.0191L11.3439 20.0935C11.324 20.1352 11.3058 20.1787 11.2877 20.2222C11.2696 20.2658 11.2641 20.2839 11.2532 20.3129C11.2424 20.3419 11.2224 20.3945 11.2097 20.4362C11.197 20.4779 11.1861 20.5197 11.1753 20.5596C11.1644 20.5995 11.1517 20.6575 11.1408 20.7065C11.1299 20.7554 11.119 20.8225 11.1118 20.8878C11.1118 20.9186 11.1118 20.9495 11.1118 20.9803C11.1118 21.0111 11.1027 21.0782 11.1009 21.129C11.0991 21.1798 11.1009 21.1925 11.1009 21.2251C11.1009 21.2578 11.1009 21.3249 11.1009 21.3757C11.1009 21.4264 11.1009 21.4391 11.1009 21.47C11.1009 21.5008 11.1136 21.5788 11.1227 21.635C11.1227 21.6604 11.1227 21.6876 11.1354 21.7148C11.1498 21.7968 11.1686 21.8779 11.1916 21.9578L11.3294 22.4384L11.9116 24.4642L16.6849 41.0984C16.8273 41.5931 17.1125 42.0347 17.5047 42.368L17.5264 42.3879C17.6104 42.4594 17.6988 42.5254 17.7912 42.5856C18.0248 42.7364 18.2806 42.8496 18.5493 42.9211C19.0117 43.0471 19.4999 43.0433 19.9603 42.9102L23.5476 41.8801C23.5114 41.8324 23.481 41.7807 23.4569 41.726L23.4188 41.6226L21.0212 33.2619C20.1241 33.3439 19.2239 33.1432 18.4466 32.6879C17.6693 32.2326 17.0539 31.5455 16.6868 30.7229C16.636 30.6105 16.5906 30.4944 16.5489 30.3765L16.5181 30.2713L16.4836 30.1625L15.2921 26.0166C15.2643 25.9201 15.2551 25.8192 15.2649 25.7192C15.2807 25.5407 15.3555 25.3724 15.4775 25.2411C15.5995 25.1098 15.7618 25.0228 15.9387 24.9939C16.1156 24.965 16.2971 24.9959 16.4546 25.0815C16.612 25.1672 16.7365 25.3029 16.8083 25.4671L16.8464 25.5687L18.0361 29.7145C18.1948 30.2664 18.5253 30.7534 18.9796 31.1046C19.4339 31.4559 19.9883 31.6531 20.5624 31.6678L18.6599 25.0482C18.6322 24.9523 18.6229 24.8519 18.6327 24.7526C18.649 24.5741 18.7241 24.4062 18.8461 24.275C18.9682 24.1438 19.1303 24.0569 19.3071 24.0279C19.4839 23.9988 19.6653 24.0293 19.8229 24.1145C19.9806 24.1997 20.1054 24.3348 20.1779 24.4987L20.2142 24.602L22.1257 31.2144C22.4312 31.0117 22.6923 30.7489 22.8931 30.4421C23.0938 30.1353 23.2301 29.7909 23.2937 29.4298C23.3115 29.326 23.323 29.2213 23.3281 29.1161C23.3281 29.087 23.3281 29.058 23.3281 29.029C23.3336 28.8226 23.3147 28.6162 23.2719 28.4142L23.2447 28.309L23.2229 28.222L22.9745 27.3533L22.0314 24.0743C22.0174 24.022 22.0077 23.9686 22.0024 23.9147C21.9884 23.7244 22.0419 23.5353 22.1536 23.3806C22.2653 23.2259 22.4279 23.1155 22.613 23.0689C22.798 23.0224 22.9935 23.0425 23.1651 23.1259C23.3367 23.2093 23.4734 23.3505 23.5512 23.5248L23.5875 23.6281L24.779 27.774C24.7899 27.8157 24.7971 27.8574 24.808 27.8973C24.8945 28.2291 24.9408 28.5701 24.9458 28.9129C24.9458 28.9365 24.9458 28.9601 24.9458 28.9819C24.9466 29.2078 24.929 29.4334 24.8932 29.6565C24.7836 30.3277 24.5172 30.9635 24.1158 31.5124C23.7143 32.0614 23.1891 32.5079 22.5827 32.8158L22.8892 33.8822L24.9857 41.1801C24.9857 41.2036 24.9857 41.2272 24.9984 41.2526C25.0111 41.278 25.0093 41.2998 25.0111 41.3233C25.0157 41.371 25.0157 41.419 25.0111 41.4666L33.1451 39.1289C33.1084 39.0813 33.0773 39.0295 33.0526 38.9747L33.0199 38.8804L31.5292 33.699L29.1987 34.3591C29.0109 34.4135 28.8098 34.3979 28.6327 34.3152C28.4556 34.2325 28.3145 34.0883 28.2357 33.9094L28.2157 33.8532L28.1976 33.806L27.3017 30.6848L26.0322 26.2905C25.9048 25.8521 25.8539 25.395 25.8817 24.9394C25.8817 24.8868 25.8817 24.836 25.8925 24.7834C25.9034 24.7308 25.9034 24.68 25.9107 24.6274C25.9252 24.5204 25.9433 24.4134 25.9669 24.3082C26.1234 23.5969 26.4693 22.941 26.968 22.4101C27.4666 21.8792 28.0995 21.493 28.7997 21.2922C28.9877 21.2384 29.1888 21.2545 29.3659 21.3375C29.5429 21.4205 29.6839 21.5649 29.7627 21.7438L29.8008 21.8472L32.3834 30.8317L34.5597 38.4307C34.5703 38.4693 34.5782 38.5087 34.5833 38.5485C34.5833 38.5485 34.5833 38.5649 34.5833 38.5739C34.5842 38.5848 34.5842 38.5957 34.5833 38.6066C34.5869 38.6434 34.5869 38.6804 34.5833 38.7172L34.8009 38.6537C35.246 38.5257 35.6497 38.2831 35.9718 37.9502C36.2938 37.6173 36.523 37.2058 36.6362 36.7567C36.761 36.3014 36.7604 35.8207 36.6344 35.3657Z" fill="white"></path>
  <path d="M17.6844 15.6729C17.6844 15.7473 17.7044 15.8216 17.7189 15.896L22.378 14.5576C22.1614 13.9866 21.7385 13.5176 21.1927 13.2436C20.647 12.9695 20.0182 12.9103 19.4309 13.0777C19.3519 13.0994 19.2744 13.126 19.1988 13.1575L19.1425 13.1829C19.0881 13.2065 19.0319 13.23 18.9793 13.259L18.9267 13.2881C18.8741 13.3171 18.8215 13.3479 18.7726 13.3806L18.7309 13.4096C18.6783 13.4458 18.6275 13.4821 18.5785 13.522L18.5513 13.5456C18.4987 13.5891 18.4479 13.6345 18.4008 13.6816L18.3845 13.6979C18.3337 13.7505 18.2847 13.8031 18.2376 13.8593C18.1886 13.9192 18.1433 13.979 18.0997 14.0407C18.0564 14.1032 18.0165 14.168 17.98 14.2348C17.9458 14.2934 17.9149 14.354 17.8875 14.4161C17.8603 14.4778 17.8368 14.5413 17.815 14.5975V14.6102C17.7956 14.6718 17.7775 14.7323 17.7606 14.7915C17.7615 14.8018 17.7615 14.8121 17.7606 14.8224C17.7479 14.8786 17.7352 14.9366 17.7261 15.0037C17.7261 15.0219 17.7261 15.04 17.7261 15.0563C17.7261 15.1089 17.7116 15.1615 17.708 15.2141C17.7044 15.2667 17.708 15.2685 17.708 15.2957C17.708 15.3229 17.708 15.3846 17.708 15.4281C17.708 15.4716 17.708 15.5097 17.708 15.5496C17.708 15.5895 17.6808 15.6403 17.6844 15.6729Z" fill="white"></path>
  <path d="M60.291 18.1964C59.3295 18.1869 58.3815 18.4222 57.5361 18.8802C56.7136 19.3219 56.0309 19.9846 55.5648 20.7935V18.4649H54.4675V33.2238H55.5648V27.0576C56.0303 27.8675 56.7132 28.5309 57.5361 28.9728C58.3815 29.4308 59.3295 29.6661 60.291 29.6565C61.0179 29.6705 61.7401 29.5368 62.4137 29.2634C63.0874 28.99 63.6986 28.5826 64.2101 28.066C65.2862 27.0044 65.8236 25.6231 65.8224 23.9219C65.8212 22.2208 65.2838 20.8437 64.2101 19.7906C63.6995 19.2725 63.0886 18.8639 62.4148 18.5898C61.7409 18.3157 61.0183 18.1819 60.291 18.1964ZM63.4267 27.3859C62.5513 28.2232 61.3855 28.6888 60.1741 28.6847C58.9628 28.6807 57.8001 28.2073 56.9304 27.3641C56.02 26.4827 55.5648 25.3402 55.5648 23.9365C55.5648 22.5327 56.0242 21.3908 56.9431 20.5106C57.8071 19.665 58.9674 19.1906 60.1763 19.1885C61.3852 19.1865 62.5471 19.657 63.414 20.4997C64.3026 21.3726 64.747 22.5213 64.747 23.9455C64.747 25.3698 64.3069 26.5166 63.4267 27.3859Z" fill="#552F86"></path>
  <path d="M73.3253 18.2165C72.5674 18.1981 71.8135 18.3333 71.1092 18.6138C70.4048 18.8943 69.7644 19.3144 69.2266 19.8487C68.1227 20.9296 67.5708 22.2916 67.5708 23.9347C67.5708 25.5779 68.1227 26.9441 69.2266 28.0335C70.3327 29.0839 71.7999 29.6695 73.3253 29.6695C74.8507 29.6695 76.3179 29.0839 77.424 28.0335C78.5303 26.9453 79.0829 25.5791 79.0816 23.9347C79.0804 22.2904 78.5279 20.9284 77.424 19.8487C76.8862 19.3144 76.2458 18.8943 75.5415 18.6138C74.8371 18.3333 74.0833 18.1981 73.3253 18.2165ZM76.6514 27.3207C75.7621 28.1892 74.5684 28.6754 73.3253 28.6754C72.0823 28.6754 70.8885 28.1892 69.9992 27.3207C69.5536 26.8776 69.2036 26.3479 68.9706 25.7643C68.7376 25.1808 68.6266 24.5556 68.6444 23.9275C68.6444 22.5552 69.0924 21.4205 69.9883 20.5234C70.8853 19.6611 72.0811 19.1795 73.3253 19.1795C74.5695 19.1795 75.7654 19.6611 76.6623 20.5234C77.5582 21.4193 78.0062 22.554 78.0062 23.9275C78.0241 24.5556 77.9131 25.1808 77.6801 25.7643C77.4471 26.3479 77.097 26.8776 76.6514 27.3207Z" fill="#552F86"></path>
  <path d="M86.4737 19.2235C87.3702 19.2099 88.2506 19.4623 89.0036 19.949C89.7354 20.4184 90.2676 21.1419 90.498 21.9802L91.5281 21.6447C91.2106 20.6125 90.5405 19.7247 89.6347 19.1365C88.5425 18.4215 87.2398 18.0986 85.9401 18.2205C84.6403 18.3424 83.4204 18.9019 82.4801 19.8075C81.3738 20.8836 80.8213 22.2571 80.8225 23.928C80.8225 25.6316 81.3708 27.0129 82.4674 28.072C82.9943 28.5904 83.6195 28.9982 84.3062 29.2713C84.993 29.5445 85.7275 29.6775 86.4664 29.6626C87.5996 29.6795 88.713 29.3643 89.6692 28.7558C90.5666 28.2073 91.2226 27.3388 91.5045 26.3256L90.498 26.0336C90.2554 26.8405 89.7198 27.5276 88.9964 27.9596C88.2381 28.4252 87.3633 28.6661 86.4737 28.6542C85.8727 28.6679 85.2751 28.5599 84.717 28.3367C84.1588 28.1136 83.6515 27.7799 83.2255 27.3557C82.3441 26.4888 81.904 25.3462 81.9052 23.928C81.9052 22.5557 82.3489 21.4289 83.2364 20.5475C83.6577 20.1184 84.1621 19.7797 84.7187 19.5521C85.2753 19.3245 85.8724 19.2127 86.4737 19.2235Z" fill="#552F86"></path>
  <path d="M103.832 18.4632H102.354L96.2835 23.2348H95.4329V13.2891H94.3357V29.4155H95.4329V24.2867H96.1711L103.003 29.4155H104.615L97.1123 23.7934L103.832 18.4632Z" fill="#552F86"></path>
  <path d="M110.596 18.1958C109.858 18.1859 109.126 18.3223 108.441 18.5972C107.756 18.872 107.133 19.2799 106.606 19.7972C105.487 20.866 104.927 22.2565 104.927 23.9685C104.927 25.6805 105.48 27.054 106.585 28.089C107.095 28.5923 107.701 28.99 108.365 29.2592C109.03 29.5284 109.741 29.6638 110.458 29.6577C111.728 29.6577 112.811 29.3554 113.707 28.7509C114.63 28.1091 115.322 27.1861 115.678 26.1194L114.715 25.8945C113.968 27.7613 112.549 28.6947 110.458 28.6947C109.886 28.6961 109.32 28.5847 108.791 28.3669C108.261 28.149 107.781 27.829 107.375 27.4252C106.479 26.5788 106.024 25.4514 106.01 24.0428H115.932V23.6402C115.871 22.0273 115.345 20.7173 114.352 19.7102C113.36 18.703 112.108 18.1982 110.596 18.1958ZM106.05 23.1905C106.105 22.6265 106.27 22.0788 106.537 21.579C106.804 21.0792 107.167 20.637 107.606 20.2778C108.441 19.5698 109.501 19.1838 110.596 19.1897C111.653 19.1612 112.68 19.5427 113.462 20.2543C114.238 20.964 114.694 21.9457 114.829 23.1995L106.05 23.1905Z" fill="#552F86"></path>
  <path d="M124.191 27.8937C123.668 28.3643 122.99 28.6275 122.287 28.6336C121.987 28.6461 121.687 28.5958 121.408 28.4859C121.128 28.376 120.875 28.2088 120.664 27.9953C120.254 27.5685 120.048 26.9899 120.047 26.2597V19.4061H124.146V18.4648H120.047V14.8594H118.959V18.4648H116.554V19.4061H118.95V26.3268C118.95 27.3714 119.248 28.1887 119.846 28.7787C120.443 29.3687 121.234 29.6638 122.22 29.6638C123.094 29.6501 123.938 29.3422 124.615 28.7896L124.191 27.8937Z" fill="#552F86"></path>
  <path d="M164.957 12.841V19.1305C163.99 18.2382 162.72 17.7915 161.148 17.7902C159.638 17.7902 158.317 18.3724 157.184 19.5367C156.881 19.8455 156.613 20.1868 156.384 20.5542C156.333 20.6345 156.263 20.7009 156.18 20.7476C156.097 20.7942 156.004 20.8196 155.909 20.8214C155.814 20.8232 155.72 20.8013 155.636 20.7578C155.551 20.7143 155.479 20.6507 155.425 20.5723C155.177 20.202 154.886 19.8616 154.56 19.5584C153.373 18.4347 151.79 17.8242 150.156 17.8592C148.401 17.8592 146.913 18.4256 145.695 19.5584C145.359 19.8699 145.061 20.2192 144.806 20.5995C144.753 20.6814 144.681 20.749 144.595 20.7957C144.51 20.8424 144.414 20.8667 144.316 20.8667C144.219 20.8667 144.123 20.8424 144.037 20.7957C143.952 20.749 143.879 20.6814 143.827 20.5995C143.575 20.2185 143.28 19.8692 142.945 19.5584C141.758 18.4351 140.176 17.8246 138.542 17.8592C138.15 17.8583 137.758 17.8891 137.37 17.9516C136.691 18.0664 136.003 18.1272 135.314 18.133H130.578V16.0112C130.566 15.7849 130.601 15.5585 130.683 15.3471C130.764 15.1356 130.89 14.9441 131.052 14.7852C131.392 14.4841 131.835 14.3268 132.289 14.3463C132.44 14.3464 132.591 14.358 132.74 14.3807C132.94 14.4112 133.144 14.3672 133.314 14.2573C133.484 14.1473 133.608 13.979 133.662 13.7841L133.934 12.8138C133.963 12.7085 133.972 12.5984 133.958 12.4899C133.945 12.3813 133.91 12.2765 133.856 12.1815C133.802 12.0865 133.729 12.0032 133.643 11.9364C133.556 11.8697 133.457 11.8209 133.351 11.7928C132.936 11.6877 132.51 11.6353 132.082 11.6368C130.711 11.6368 129.609 12.0297 128.778 12.8156C127.946 13.6015 127.529 14.6649 127.528 16.0057V18.1367H126.536C126.333 18.1367 126.139 18.2171 125.996 18.3603C125.853 18.5035 125.772 18.6977 125.772 18.9002V19.8705C125.772 20.073 125.853 20.2671 125.996 20.4103C126.139 20.5535 126.333 20.634 126.536 20.634H127.528V28.5647C127.528 28.8583 127.645 29.1397 127.853 29.3471C128.061 29.5545 128.343 29.671 128.636 29.671H129.474C129.767 29.671 130.049 29.5546 130.256 29.347C130.464 29.1395 130.58 28.8581 130.58 28.5647V20.634H133.172C132.552 21.6146 132.236 22.7568 132.265 23.9166C132.265 25.6879 132.874 27.1386 134.091 28.2691C135.309 29.3997 136.796 29.966 138.553 29.9684C140.187 30.004 141.77 29.3934 142.956 28.2691C143.29 27.9587 143.586 27.61 143.838 27.23C143.89 27.148 143.963 27.0806 144.048 27.0339C144.134 26.9872 144.23 26.9627 144.327 26.9627C144.425 26.9627 144.521 26.9872 144.606 27.0339C144.692 27.0806 144.764 27.148 144.817 27.23C145.071 27.6106 145.37 27.9599 145.706 28.271C146.924 29.4051 148.411 29.9715 150.167 29.9704C151.801 30.0062 153.384 29.3955 154.57 28.271C154.896 27.9685 155.186 27.6295 155.434 27.2608C155.488 27.1825 155.56 27.1186 155.645 27.0752C155.729 27.0317 155.823 27.01 155.918 27.0118C156.013 27.0135 156.106 27.039 156.189 27.0856C156.272 27.1322 156.342 27.1987 156.393 27.279C156.62 27.6411 156.885 27.9778 157.184 28.2836C158.308 29.4395 159.633 30.0175 161.159 30.0175C162.731 30.0175 164 29.5701 164.968 28.6754C164.967 28.9361 165.069 29.1868 165.252 29.3729C165.434 29.5592 165.683 29.6663 165.943 29.671H167.006C167.27 29.671 167.523 29.5663 167.709 29.3799C167.895 29.1936 168 28.9408 168 28.6772V12.841C168 12.7139 167.975 12.588 167.927 12.4705C167.879 12.353 167.807 12.2463 167.718 12.1563C167.628 12.0664 167.521 11.995 167.404 11.9463C167.286 11.8976 167.161 11.8726 167.033 11.8726H165.916C165.661 11.8749 165.417 11.978 165.237 12.1594C165.058 12.3408 164.957 12.5857 164.957 12.841ZM140.802 26.4012C140.507 26.7038 140.155 26.9446 139.766 27.1093C139.377 27.2739 138.959 27.3595 138.536 27.3606C137.667 27.365 136.831 27.0238 136.213 26.4121C135.542 25.781 135.207 24.9491 135.207 23.9166C135.207 22.8841 135.542 22.0516 136.213 21.4193C136.832 20.8087 137.667 20.4683 138.536 20.4726C138.959 20.4736 139.377 20.5592 139.766 20.7239C140.155 20.8886 140.507 21.1294 140.802 21.432C141.132 21.7537 141.391 22.1409 141.562 22.5689C141.733 22.9969 141.813 23.456 141.796 23.9166C141.812 24.3772 141.733 24.8362 141.562 25.2641C141.39 25.692 141.132 26.0793 140.802 26.4012ZM152.409 26.4012C152.114 26.7041 151.762 26.945 151.373 27.1097C150.984 27.2745 150.566 27.3598 150.143 27.3606C149.274 27.3644 148.439 27.0233 147.82 26.4121C147.15 25.781 146.816 24.9491 146.816 23.9166C146.816 22.8841 147.15 22.0516 147.82 21.4193C148.439 20.8093 149.274 20.4689 150.143 20.4726C150.566 20.4734 150.984 20.5587 151.373 20.7235C151.762 20.8882 152.114 21.1291 152.409 21.432C153.072 22.0704 153.404 22.8986 153.402 23.9166C153.401 24.9346 153.072 25.7628 152.416 26.4012H152.409ZM163.956 26.4012C163.657 26.7055 163.301 26.9471 162.908 27.1118C162.515 27.2765 162.093 27.3612 161.667 27.3606C161.236 27.3743 160.807 27.2981 160.407 27.137C160.007 26.9759 159.645 26.7334 159.344 26.4248C158.739 25.8008 158.437 24.9648 158.437 23.9166C158.437 22.8683 158.739 22.0287 159.344 21.3975C159.643 21.0854 160.004 20.8396 160.405 20.6762C160.805 20.5128 161.235 20.4354 161.667 20.449C162.094 20.4488 162.517 20.5346 162.91 20.7013C163.303 20.868 163.659 21.1122 163.956 21.4193C164.285 21.7441 164.544 22.1337 164.715 22.5635C164.886 22.9935 164.966 23.4542 164.95 23.9166C164.967 24.3766 164.889 24.8352 164.719 25.2632C164.549 25.6911 164.292 26.0787 163.963 26.4012H163.956Z" fill="#552F86"></path>
  <path d="M58.9417 40.7284V40.6885C59.238 40.6472 59.509 40.4988 59.7034 40.2714C59.9539 39.9934 60.0843 39.6277 60.0661 39.2539C60.0764 39.0012 60.0313 38.7493 59.9339 38.5158C59.8364 38.2824 59.689 38.0732 59.5021 37.9028C59.085 37.5486 58.5487 37.3665 58.0022 37.3932H54.4675V44.205H58.0058C58.7313 44.205 59.2868 44.0321 59.6725 43.6863C59.8657 43.5111 60.0179 43.2955 60.1182 43.0547C60.2185 42.814 60.2645 42.5541 60.2529 42.2935C60.2644 42.0907 60.2358 41.8875 60.1685 41.6958C60.1013 41.5041 59.9968 41.3276 59.8611 41.1763C59.6227 40.9157 59.2939 40.7555 58.9417 40.7284ZM56.1451 38.7461H57.6721C57.8712 38.7399 58.0653 38.8085 58.2162 38.9384C58.2878 39.002 58.3445 39.0807 58.3821 39.1688C58.4198 39.2569 58.4374 39.3522 58.4339 39.448C58.4367 39.5492 58.4183 39.6499 58.3799 39.7436C58.3415 39.8373 58.2839 39.922 58.2108 39.9921C58.0455 40.1372 57.8301 40.212 57.6105 40.2006H56.1469L56.1451 38.7461ZM58.3214 42.6508C58.1501 42.7949 57.93 42.8676 57.7066 42.8539H56.1415V41.3595H57.7374C57.9488 41.3503 58.156 41.4208 58.3178 41.5572C58.3919 41.6241 58.4504 41.7067 58.4889 41.7988C58.5275 41.891 58.5452 41.9906 58.5409 42.0904C58.547 42.1938 58.5309 42.2973 58.4937 42.394C58.4564 42.4906 58.3989 42.5782 58.325 42.6508H58.3214Z" fill="#362469"></path>
  <path d="M74.7598 41.1359C74.785 41.5743 74.6568 42.0078 74.3971 42.3619C74.2813 42.5084 74.1326 42.6256 73.9631 42.704C73.7936 42.7824 73.6081 42.8199 73.4214 42.8135C73.2273 42.8208 73.0341 42.7839 72.8563 42.7057C72.6785 42.6275 72.5207 42.5099 72.3949 42.3619C72.1218 42.0136 71.9846 41.5779 72.0086 41.1359V37.3945H70.3311V41.1359C70.3311 42.1116 70.614 42.8927 71.1798 43.4791C71.7457 44.0655 72.4929 44.3587 73.4214 44.3587C74.3294 44.3587 75.0597 44.0655 75.6122 43.4791C76.1648 42.8927 76.441 42.1116 76.441 41.1359V37.3945H74.7635L74.7598 41.1359Z" fill="#362469"></path>
  <path d="M90.4473 40.171L89.0346 39.8554C88.6718 39.7738 88.4905 39.5852 88.4905 39.286C88.4904 39.1895 88.5135 39.0944 88.5576 39.0085C88.6018 38.9227 88.6658 38.8487 88.7444 38.7927C88.9356 38.6537 89.1684 38.584 89.4045 38.595C89.6794 38.5921 89.9476 38.6794 90.1681 38.8435C90.3954 39.016 90.5479 39.2691 90.5942 39.5508L92.241 39.2152C92.1868 38.9231 92.0754 38.6445 91.9133 38.3956C91.7511 38.1466 91.5414 37.9321 91.2961 37.7644C90.7421 37.4004 90.0888 37.2172 89.4263 37.2402C88.6186 37.2402 87.9676 37.4337 87.4731 37.8206C87.233 38.0029 87.0404 38.2403 86.9113 38.5127C86.7822 38.7851 86.7205 39.0845 86.7313 39.3857C86.7313 40.4231 87.3413 41.0808 88.5612 41.3589L89.9849 41.6636C90.1667 41.6851 90.3382 41.7595 90.4782 41.8776C90.5252 41.9298 90.5614 41.9909 90.5848 42.0572C90.6081 42.1234 90.6181 42.1937 90.6142 42.2639C90.6156 42.3642 90.5918 42.4634 90.5449 42.5521C90.498 42.6408 90.4295 42.7163 90.3458 42.7717C90.1258 42.9112 89.8677 42.9785 89.6077 42.9639C88.8822 42.9639 88.4355 42.6284 88.2674 41.9574L86.5391 42.2929C86.5744 42.6021 86.679 42.8993 86.8451 43.1624C87.0112 43.4255 87.2346 43.6478 87.4984 43.8127C88.1027 44.1897 88.8051 44.3791 89.517 44.3568C90.2266 44.3814 90.9256 44.1787 91.5119 43.7782C91.7725 43.5959 91.9827 43.3506 92.1232 43.0653C92.2637 42.7799 92.3297 42.4637 92.3153 42.146C92.3129 41.1062 91.6903 40.4479 90.4473 40.171Z" fill="#362469"></path>
  <path d="M104.142 37.3945H102.464V44.2063H104.142V37.3945Z" fill="#362469"></path>
  <path d="M119.311 41.4624L115.863 37.3945H114.47V44.2063H116.148V40.2618L119.594 44.2063H120.977V37.3945H119.311V41.4624Z" fill="#362469"></path>
  <path d="M132.994 41.4823H136.298V40.1203H132.994V38.8381H136.592V37.3945H131.316V44.2063H136.623V42.7627H132.994V41.4823Z" fill="#362469"></path>
  <path d="M150.528 40.1711L149.115 39.8555C148.752 39.7739 148.571 39.5853 148.571 39.2861C148.571 39.1896 148.594 39.0944 148.638 39.0086C148.682 38.9228 148.746 38.8488 148.825 38.7928C149.017 38.6538 149.25 38.5841 149.487 38.5951C149.761 38.5919 150.029 38.6792 150.249 38.8435C150.476 39.0165 150.629 39.2694 150.677 39.5509L152.323 39.2153C152.269 38.9231 152.157 38.6445 151.995 38.3956C151.832 38.1466 151.622 37.9321 151.377 37.7645C150.823 37.4001 150.169 37.217 149.507 37.2403C148.7 37.2403 148.05 37.4338 147.555 37.8207C147.315 38.0029 147.122 38.2402 146.993 38.5126C146.863 38.785 146.801 39.0844 146.812 39.3858C146.812 40.4232 147.422 41.0809 148.642 41.359L150.065 41.6637C150.247 41.6848 150.419 41.7593 150.559 41.8777C150.606 41.9296 150.643 41.9905 150.667 42.0569C150.69 42.1232 150.701 42.1936 150.697 42.264C150.698 42.3645 150.674 42.4637 150.626 42.5525C150.579 42.6412 150.51 42.7166 150.426 42.7718C150.207 42.9114 149.95 42.9787 149.69 42.964C148.957 42.964 148.51 42.6285 148.348 41.9575L146.62 42.293C146.655 42.6024 146.76 42.8998 146.926 43.163C147.093 43.4262 147.316 43.6483 147.581 43.8128C148.184 44.19 148.886 44.3793 149.598 44.3569C150.31 44.3829 151.012 44.1801 151.602 43.7783C151.862 43.5957 152.072 43.3504 152.212 43.0651C152.353 42.7798 152.419 42.4638 152.405 42.1461C152.397 41.1063 151.771 40.448 150.528 40.1711Z" fill="#362469"></path>
  <path d="M166.076 40.1711L164.663 39.8555C164.3 39.7739 164.119 39.5853 164.119 39.2861C164.119 39.1896 164.142 39.0944 164.186 39.0086C164.23 38.9228 164.294 38.8488 164.373 38.7928C164.565 38.6538 164.798 38.5841 165.035 38.5951C165.309 38.5919 165.577 38.6792 165.796 38.8435C166.024 39.0161 166.176 39.2692 166.223 39.5509L167.871 39.2153C167.817 38.9231 167.705 38.6445 167.542 38.3956C167.38 38.1466 167.17 37.9321 166.925 37.7645C166.371 37.4001 165.717 37.217 165.055 37.2403C164.247 37.2403 163.596 37.4338 163.101 37.8207C162.862 38.0033 162.669 38.2408 162.54 38.5131C162.411 38.7854 162.349 39.0846 162.36 39.3858C162.36 40.4232 162.97 41.0809 164.19 41.359L165.613 41.6637C165.795 41.6848 165.967 41.7593 166.107 41.8777C166.201 41.9835 166.251 42.1222 166.244 42.264C166.246 42.3645 166.222 42.4637 166.174 42.5525C166.127 42.6412 166.058 42.7166 165.974 42.7718C165.755 42.9114 165.497 42.9787 165.238 42.964C164.505 42.964 164.058 42.6285 163.896 41.9575L162.167 42.293C162.203 42.6024 162.308 42.8998 162.474 43.163C162.64 43.4262 162.864 43.6483 163.129 43.8128C163.732 44.19 164.434 44.3793 165.145 44.3569C165.855 44.3809 166.554 44.1783 167.14 43.7783C167.4 43.5956 167.61 43.3503 167.75 43.065C167.89 42.7797 167.956 42.4636 167.942 42.1461C167.94 41.1063 167.317 40.448 166.076 40.1711Z" fill="#362469"></path>
</svg>
