<svg width="774" height="191" viewBox="0 0 774 191" fill="none" xmlns="http://www.w3.org/2000/svg">
<g clip-path="url(#clip0_58_47)">
<path d="M136.147 120.454L167.023 172.287C171.434 179.65 166.141 188.779 157.613 188.779H37.0512C17.6437 188.779 1.4707 172.581 1.4707 152.849V3.82889L69.9852 80.6952H19.1139L117.622 185.245H117.916L71.1614 105.728H124.385L65.8685 3.82889H115.858C148.792 3.82889 176.727 30.04 177.315 63.0248C177.609 79.8117 170.846 95.1261 159.672 106.023C153.202 112.502 145.263 117.509 136.147 120.454Z" fill="#57238E" stroke="#57238E" stroke-width="1.69461" stroke-miterlimit="10"/>
</g>
<path d="M230.209 139.126V50.9643H270.565C277.105 50.9643 282.775 52.0404 287.576 54.1927C292.46 56.345 296.227 59.4079 298.876 63.3814C301.525 67.2721 302.849 71.8664 302.849 77.1644C302.849 81.3034 302.022 84.9458 300.366 88.0914C298.71 91.2371 296.392 93.8447 293.412 95.9142C290.515 97.9009 287.038 99.2254 282.982 99.8877L282.609 98.646C288.652 98.646 293.205 99.9291 296.268 102.495C299.414 105.061 301.152 108.911 301.483 114.043L303.594 139.126H281.492L280.126 117.644C279.878 114.333 278.884 111.891 277.146 110.318C275.49 108.745 272.552 107.959 268.33 107.959H251.815V139.126H230.209ZM251.815 90.3265H267.212C271.6 90.3265 274.952 89.3745 277.27 87.4706C279.588 85.5666 280.747 82.8762 280.747 79.3994C280.747 75.8399 279.547 73.1495 277.146 71.3283C274.828 69.5071 271.434 68.5966 266.964 68.5966H251.815V90.3265ZM334.168 140.616C327.214 140.616 321.502 139.002 317.032 135.773C312.562 132.545 310.327 128.075 310.327 122.363C310.327 116.485 312.231 111.932 316.039 108.704C319.847 105.475 325.393 103.116 332.678 101.626L353.414 97.4043C353.414 93.5136 352.545 90.5749 350.807 88.5881C349.151 86.5186 346.75 85.4838 343.605 85.4838C340.459 85.4838 337.976 86.2703 336.154 87.8431C334.416 89.3331 333.298 91.4854 332.802 94.3L311.444 93.555C312.769 85.8563 316.204 80.1445 321.751 76.4193C327.297 72.6942 334.582 70.8316 343.605 70.8316C354.035 70.8316 361.816 73.1909 366.949 77.9094C372.164 82.6279 374.772 89.6643 374.772 99.0185V120.128C374.772 122.197 375.103 123.563 375.765 124.225C376.51 124.887 377.503 125.219 378.745 125.219H380.359V139.126C379.697 139.374 378.621 139.581 377.131 139.747C375.641 139.912 374.192 139.995 372.785 139.995C370.219 139.995 367.735 139.581 365.335 138.753C362.934 137.843 360.947 136.27 359.374 134.035C357.802 131.717 357.015 128.406 357.015 124.101L358.629 125.715C357.802 128.695 356.312 131.344 354.159 133.662C352.09 135.897 349.399 137.636 346.088 138.877C342.777 140.036 338.803 140.616 334.168 140.616ZM339.755 126.709C342.404 126.709 344.764 126.171 346.833 125.094C348.903 124.018 350.517 122.445 351.676 120.376C352.835 118.306 353.414 115.74 353.414 112.677V109.946L340.5 112.926C337.934 113.505 335.906 114.416 334.416 115.657C333.009 116.816 332.305 118.389 332.305 120.376C332.305 122.363 332.926 123.935 334.168 125.094C335.409 126.171 337.272 126.709 339.755 126.709ZM426.869 140.616C422.151 140.616 418.094 139.664 414.7 137.76C411.389 135.773 408.782 133 406.878 129.44L406.505 139.126H385.893V50.9643H407.25V81.8829C409.071 78.6544 411.638 76.0054 414.949 73.9359C418.343 71.8664 422.316 70.8316 426.869 70.8316C432.498 70.8316 437.341 72.2803 441.397 75.1776C445.536 78.075 448.723 82.1312 450.958 87.3464C453.276 92.5616 454.435 98.6874 454.435 105.724C454.435 112.76 453.276 118.886 450.958 124.101C448.723 129.316 445.536 133.373 441.397 136.27C437.341 139.167 432.498 140.616 426.869 140.616ZM420.164 124.846C423.806 124.846 426.745 123.19 428.98 119.879C431.298 116.485 432.457 111.767 432.457 105.724C432.457 99.598 431.339 94.8794 429.104 91.5682C426.952 88.257 424.013 86.6014 420.288 86.6014C417.556 86.6014 415.197 87.3464 413.21 88.8365C411.224 90.3265 409.734 92.5202 408.74 95.4175C407.747 98.2321 407.25 101.667 407.25 105.724C407.25 109.697 407.747 113.133 408.74 116.03C409.734 118.844 411.182 121.038 413.086 122.611C415.073 124.101 417.432 124.846 420.164 124.846ZM483.445 140.616C476.491 140.616 470.779 139.002 466.309 135.773C461.839 132.545 459.604 128.075 459.604 122.363C459.604 116.485 461.508 111.932 465.316 108.704C469.124 105.475 474.67 103.116 481.955 101.626L502.691 97.4043C502.691 93.5136 501.822 90.5749 500.084 88.5881C498.428 86.5186 496.027 85.4838 492.882 85.4838C489.736 85.4838 487.253 86.2703 485.431 87.8431C483.693 89.3331 482.575 91.4854 482.079 94.3L460.721 93.555C462.046 85.8563 465.481 80.1445 471.028 76.4193C476.574 72.6942 483.859 70.8316 492.882 70.8316C503.312 70.8316 511.093 73.1909 516.226 77.9094C521.441 82.6279 524.049 89.6643 524.049 99.0185V120.128C524.049 122.197 524.38 123.563 525.042 124.225C525.787 124.887 526.78 125.219 528.022 125.219H529.636V139.126C528.974 139.374 527.898 139.581 526.408 139.747C524.918 139.912 523.469 139.995 522.062 139.995C519.496 139.995 517.012 139.581 514.612 138.753C512.211 137.843 510.224 136.27 508.651 134.035C507.079 131.717 506.292 128.406 506.292 124.101L507.906 125.715C507.079 128.695 505.588 131.344 503.436 133.662C501.367 135.897 498.676 137.636 495.365 138.877C492.054 140.036 488.08 140.616 483.445 140.616ZM489.032 126.709C491.681 126.709 494.041 126.171 496.11 125.094C498.18 124.018 499.794 122.445 500.953 120.376C502.112 118.306 502.691 115.74 502.691 112.677V109.946L489.777 112.926C487.211 113.505 485.183 114.416 483.693 115.657C482.286 116.816 481.582 118.389 481.582 120.376C481.582 122.363 482.203 123.935 483.445 125.094C484.686 126.171 486.549 126.709 489.032 126.709ZM540.437 139.126V73.0667C540.437 65.9476 542.341 60.484 546.149 56.6761C550.04 52.8682 555.959 50.9643 563.906 50.9643H579.303V66.3615H569.121C566.555 66.3615 564.692 66.9823 563.533 68.224C562.457 69.4658 561.919 71.4111 561.919 74.0601V139.126H540.437ZM530.504 91.1957V75.6743H578.434V91.1957H530.504ZM604.832 140.616C597.878 140.616 592.166 139.002 587.696 135.773C583.226 132.545 580.991 128.075 580.991 122.363C580.991 116.485 582.895 111.932 586.703 108.704C590.511 105.475 596.057 103.116 603.342 101.626L624.078 97.4043C624.078 93.5136 623.209 90.5749 621.471 88.5881C619.815 86.5186 617.414 85.4838 614.269 85.4838C611.123 85.4838 608.64 86.2703 606.818 87.8431C605.08 89.3331 603.962 91.4854 603.466 94.3L582.108 93.555C583.433 85.8563 586.868 80.1445 592.414 76.4193C597.961 72.6942 605.246 70.8316 614.269 70.8316C624.699 70.8316 632.48 73.1909 637.613 77.9094C642.828 82.6279 645.436 89.6643 645.436 99.0185V120.128C645.436 122.197 645.767 123.563 646.429 124.225C647.174 124.887 648.167 125.219 649.409 125.219H651.023V139.126C650.361 139.374 649.285 139.581 647.795 139.747C646.305 139.912 644.856 139.995 643.449 139.995C640.883 139.995 638.399 139.581 635.999 138.753C633.598 137.843 631.611 136.27 630.038 134.035C628.466 131.717 627.679 128.406 627.679 124.101L629.293 125.715C628.466 128.695 626.975 131.344 624.823 133.662C622.754 135.897 620.063 137.636 616.752 138.877C613.441 140.036 609.467 140.616 604.832 140.616ZM610.419 126.709C613.068 126.709 615.428 126.171 617.497 125.094C619.567 124.018 621.181 122.445 622.34 120.376C623.499 118.306 624.078 115.74 624.078 112.677V109.946L611.164 112.926C608.598 113.505 606.57 114.416 605.08 115.657C603.673 116.816 602.969 118.389 602.969 120.376C602.969 122.363 603.59 123.935 604.832 125.094C606.073 126.171 607.936 126.709 610.419 126.709ZM686.118 140.616C678.916 140.616 672.915 139.664 668.113 137.76C663.312 135.773 659.628 133.083 657.062 129.689C654.579 126.295 653.171 122.445 652.84 118.141L674.446 117.396C674.943 120.376 676.143 122.611 678.047 124.101C679.951 125.591 682.683 126.336 686.242 126.336C689.14 126.336 691.375 125.881 692.948 124.97C694.52 123.977 695.307 122.528 695.307 120.624C695.307 119.3 694.976 118.224 694.313 117.396C693.734 116.568 692.534 115.823 690.712 115.161C688.974 114.498 686.366 113.878 682.89 113.298C675.605 112.139 669.893 110.732 665.754 109.076C661.615 107.338 658.676 105.144 656.938 102.495C655.282 99.8463 654.454 96.5351 654.454 92.5616C654.454 86.0219 657.021 80.7653 662.153 76.7919C667.368 72.8184 675.232 70.8316 685.746 70.8316C692.285 70.8316 697.749 71.825 702.136 73.8117C706.606 75.7985 710.042 78.5716 712.442 82.1312C714.926 85.608 716.457 89.6643 717.037 94.3L695.803 95.045C695.555 92.9755 694.976 91.1957 694.065 89.7057C693.154 88.2156 691.996 87.0981 690.588 86.353C689.181 85.5252 687.484 85.1113 685.497 85.1113C682.683 85.1113 680.448 85.7322 678.792 86.9739C677.219 88.1328 676.433 89.747 676.433 91.8166C676.433 93.2238 676.764 94.4242 677.426 95.4175C678.171 96.3281 679.371 97.0731 681.027 97.6526C682.683 98.2321 684.918 98.7288 687.732 99.1427C694.934 100.053 700.688 101.419 704.992 103.24C709.297 104.979 712.401 107.255 714.305 110.07C716.292 112.801 717.285 116.154 717.285 120.128C717.285 124.515 716.002 128.24 713.436 131.303C710.952 134.366 707.393 136.684 702.757 138.257C698.121 139.829 692.575 140.616 686.118 140.616ZM752.242 139.126C745.04 139.126 739.742 137.47 736.348 134.159C733.037 130.765 731.381 125.384 731.381 118.017V56.6761H752.739V115.285C752.739 118.513 753.401 120.748 754.726 121.99C756.133 123.149 758.244 123.729 761.058 123.729H770.247V139.126H752.242ZM720.33 87.7189V72.3217H770.247V87.7189H720.33Z" fill="#57238E"/>
<defs>
<clipPath id="clip0_58_47">
<rect width="178.766" height="190.252" fill="white"/>
</clipPath>
</defs>
</svg>
