<svg width="73" height="21" viewBox="0 0 73 21" fill="none" xmlns="http://www.w3.org/2000/svg">
<path d="M10.5315 6.8712C10.5315 7.83663 9.83995 8.64425 8.92558 8.82063C8.83275 8.83919 8.73064 8.84848 8.63317 8.85312H2.65493L2.97519 9.33119L3.67606 10.3802L4.92926 12.2553L5.66262 13.3554L5.95503 13.7963L7.64453 16.3306L8.63781 17.8205H0V4.88464H8.54962C8.67958 4.88464 8.8049 4.89857 8.92558 4.92178C9.83995 5.09815 10.5315 5.90577 10.5315 6.8712Z" fill="#93120F"/>
<path d="M17.0992 0.461282V17.8158H14.9595L15.4143 20.0298L14.8806 19.2268L13.9384 17.8112L12.9451 16.3212L11.9054 14.7617L10.9632 13.3461L10.7172 12.9794C11.1349 12.8308 11.5341 12.6452 11.9054 12.4178C12.5366 12.0372 13.0936 11.5591 13.5624 10.9975C13.7248 10.7979 13.8827 10.589 14.0219 10.3709C14.3282 9.90207 14.5742 9.38686 14.7506 8.84381C14.797 8.69528 14.8434 8.54211 14.8806 8.38894C15.0059 7.88766 15.0709 7.36317 15.0709 6.82476C15.0709 6.28635 15.0059 5.76186 14.8806 5.26058C14.8481 5.13062 14.811 5.00066 14.7738 4.8707C14.2911 3.33436 13.2607 2.04403 11.9054 1.23177C11.7801 1.1575 11.6501 1.08324 11.5201 1.01826C11.0189 0.762978 10.4804 0.568036 9.91418 0.447357H17.1039L17.0992 0.461282Z" fill="#93120F"/>
<path d="M23.3142 16.1518C22.4137 16.1518 21.6432 15.9847 20.9934 15.6506C20.3436 15.3164 19.8423 14.8383 19.4896 14.221C19.1368 13.6037 18.9604 12.8703 18.9604 12.0256C18.9604 11.1808 19.1322 10.4799 19.471 9.86726C19.8145 9.24994 20.2833 8.76723 20.882 8.41448C21.4808 8.06172 22.1677 7.88535 22.9382 7.88535C23.4998 7.88535 24.0057 7.97818 24.456 8.15919C24.9062 8.34485 25.2914 8.60942 25.6071 8.95753C25.9227 9.30564 26.1687 9.72338 26.3404 10.2154C26.5075 10.7074 26.5911 11.2643 26.5911 11.8817C26.5911 12.0766 26.5214 12.2251 26.3868 12.3273C26.2522 12.4294 26.0573 12.4804 25.8113 12.4804H20.5989V11.3108H25.1615L24.9016 11.5521C24.9016 11.0555 24.8273 10.6377 24.6834 10.3036C24.5349 9.96937 24.326 9.70945 24.0475 9.53307C23.769 9.3567 23.4256 9.26387 23.0171 9.26387C22.5622 9.26387 22.177 9.37062 21.8567 9.57949C21.5365 9.78836 21.2951 10.0901 21.128 10.4753C20.9609 10.8605 20.8774 11.3154 20.8774 11.8492V11.9606C20.8774 12.8471 21.0863 13.5108 21.504 13.9518C21.9217 14.3927 22.5344 14.6109 23.3467 14.6109C23.6298 14.6109 23.9454 14.5737 24.2982 14.5041C24.6509 14.4345 24.9851 14.3138 25.2961 14.1374C25.5235 14.0075 25.7231 13.9518 25.8948 13.9657C26.0666 13.9843 26.2058 14.0446 26.3079 14.1514C26.41 14.2581 26.475 14.3927 26.4936 14.5505C26.5168 14.7083 26.4843 14.8661 26.4054 15.0286C26.3219 15.191 26.1872 15.3303 25.9923 15.451C25.6117 15.6877 25.1754 15.8641 24.6834 15.9801C24.1914 16.0961 23.7319 16.1518 23.3095 16.1518H23.3142Z" fill="#0A0A0A"/>
<path d="M31.0144 16.1426C30.3229 16.1426 29.7102 15.9755 29.1857 15.6413C28.6612 15.3071 28.2528 14.8244 27.9604 14.2024C27.6679 13.5805 27.5194 12.8471 27.5194 12.0024C27.5194 11.1576 27.6633 10.415 27.9604 9.80229C28.2528 9.18961 28.6612 8.71618 29.1857 8.38199C29.7102 8.0478 30.3182 7.88071 31.0144 7.88071C31.7107 7.88071 32.2537 8.04316 32.7457 8.36807C33.2377 8.69297 33.5719 9.11999 33.7436 9.65376H33.5626V5.43C33.5626 5.09582 33.6508 4.84054 33.8226 4.66416C33.9943 4.49242 34.2449 4.40424 34.5698 4.40424C34.8947 4.40424 35.1454 4.49242 35.3264 4.66416C35.5028 4.83589 35.5956 5.09118 35.5956 5.43V15.0797C35.5956 15.4138 35.5074 15.6738 35.3357 15.8501C35.1639 16.0265 34.9133 16.1194 34.5884 16.1194C34.2635 16.1194 34.0129 16.0312 33.8411 15.8501C33.6694 15.6691 33.5812 15.4138 33.5812 15.0797V13.8125L33.7576 14.2999C33.5951 14.8615 33.2656 15.3117 32.7689 15.6506C32.2723 15.9894 31.6875 16.1518 31.0144 16.1518V16.1426ZM31.5807 14.5969C31.9799 14.5969 32.3326 14.4995 32.639 14.3045C32.9407 14.1096 33.1774 13.8218 33.3445 13.4366C33.5116 13.0513 33.5951 12.5733 33.5951 11.9977C33.5951 11.1298 33.4095 10.4846 33.0428 10.0576C32.6761 9.63055 32.1887 9.41704 31.5807 9.41704C31.1815 9.41704 30.8288 9.50987 30.5225 9.70017C30.2161 9.89048 29.984 10.1782 29.8169 10.5588C29.6499 10.9441 29.5663 11.4222 29.5663 11.9977C29.5663 12.8517 29.752 13.5016 30.1186 13.9379C30.4853 14.3788 30.9727 14.5969 31.5807 14.5969Z" fill="#0A0A0A"/>
<path d="M41.105 16.1518C40.432 16.1518 39.8472 15.9847 39.3412 15.6506C38.8353 15.3164 38.5058 14.8662 38.3433 14.2999L38.5197 13.8914V15.0797C38.5197 15.4138 38.4315 15.6738 38.2598 15.8501C38.088 16.0265 37.842 16.1194 37.5311 16.1194C37.2201 16.1194 36.9555 16.0312 36.7838 15.8501C36.6121 15.6691 36.5239 15.4138 36.5239 15.0797V5.43C36.5239 5.09582 36.6121 4.84054 36.7838 4.66416C36.9555 4.49242 37.2062 4.40424 37.5311 4.40424C37.856 4.40424 38.1066 4.49242 38.2876 4.66416C38.464 4.83589 38.5568 5.09118 38.5568 5.43V9.65376H38.3619C38.5336 9.12463 38.8725 8.69761 39.3691 8.36807C39.8657 8.04316 40.4459 7.88071 41.105 7.88071C41.8105 7.88071 42.4232 8.0478 42.943 8.38199C43.4629 8.71618 43.8713 9.18961 44.1591 9.80229C44.4515 10.415 44.6001 11.1483 44.6001 12.0024C44.6001 12.8564 44.4562 13.5805 44.1591 14.2024C43.8667 14.8244 43.4582 15.3025 42.9338 15.6413C42.4093 15.9801 41.8012 16.1426 41.105 16.1426V16.1518ZM40.5388 14.6062C40.9379 14.6062 41.2907 14.5088 41.597 14.3138C41.8987 14.1189 42.1354 13.8311 42.3025 13.4459C42.4696 13.0606 42.5532 12.5825 42.5532 12.007C42.5532 11.139 42.3675 10.4939 42.0008 10.0669C41.6341 9.63983 41.1468 9.42633 40.5388 9.42633C40.1396 9.42633 39.7868 9.51916 39.4805 9.70946C39.1742 9.89976 38.9421 10.1875 38.775 10.5681C38.6079 10.9534 38.5243 11.4314 38.5243 12.007C38.5243 12.861 38.71 13.5108 39.0767 13.9471C39.4434 14.3881 39.9307 14.6062 40.5388 14.6062Z" fill="#0A0A0A"/>
<path d="M46.7305 6.46969C46.3499 6.46969 46.0575 6.37686 45.8439 6.18655C45.6304 5.99625 45.5283 5.73633 45.5283 5.3975C45.5283 5.05867 45.6351 4.78482 45.8439 4.59917C46.0575 4.41351 46.3499 4.32532 46.7305 4.32532C47.1111 4.32532 47.4174 4.41815 47.6216 4.59917C47.8259 4.78482 47.9326 5.04939 47.9326 5.3975C47.9326 5.74561 47.8305 5.99625 47.6216 6.18655C47.4174 6.37686 47.1204 6.46969 46.7305 6.46969ZM46.7305 16.1518C46.4056 16.1518 46.1549 16.0544 45.9832 15.8594C45.8115 15.6645 45.7233 15.3953 45.7233 15.0472V9.08284C45.7233 8.72545 45.8115 8.4516 45.9832 8.2613C46.1549 8.071 46.4056 7.97817 46.7305 7.97817C47.0554 7.97817 47.306 8.071 47.487 8.2613C47.6634 8.4516 47.7562 8.72545 47.7562 9.08284V15.0472C47.7562 15.3953 47.668 15.6645 47.4963 15.8594C47.3246 16.0544 47.0693 16.1518 46.7351 16.1518H46.7305Z" fill="#0A0A0A"/>
<path d="M51.5762 16.1472C50.6758 16.1472 49.9981 15.8919 49.5433 15.3767C49.0884 14.8615 48.861 14.1049 48.861 13.1117V5.42537C48.861 5.09118 48.9492 4.8359 49.1209 4.65952C49.2926 4.48779 49.5433 4.3996 49.8682 4.3996C50.1931 4.3996 50.4437 4.48779 50.6247 4.65952C50.8011 4.83126 50.8939 5.08654 50.8939 5.42537V13.0142C50.8939 13.5108 51.0007 13.8822 51.2096 14.1189C51.4231 14.3556 51.7201 14.4763 52.11 14.4763C52.1982 14.4763 52.2771 14.4763 52.3514 14.467C52.4256 14.4623 52.5045 14.4531 52.5788 14.4438C52.732 14.4206 52.8341 14.4623 52.8898 14.5645C52.9455 14.6666 52.9687 14.8754 52.9687 15.1911C52.9687 15.4603 52.913 15.6738 52.8062 15.8223C52.6995 15.9755 52.5185 16.0637 52.2678 16.1008C52.1611 16.1101 52.045 16.124 51.9243 16.1333C51.8037 16.1426 51.6876 16.1518 51.567 16.1518L51.5762 16.1472Z" fill="#0A0A0A"/>
<path d="M56.6122 16.1472C55.7118 16.1472 55.0341 15.8919 54.5793 15.3767C54.1244 14.8615 53.897 14.1049 53.897 13.1117V5.42537C53.897 5.09118 53.9852 4.8359 54.1569 4.65952C54.3286 4.48779 54.5793 4.3996 54.9042 4.3996C55.2291 4.3996 55.4797 4.48779 55.6607 4.65952C55.8371 4.83126 55.9299 5.08654 55.9299 5.42537V13.0142C55.9299 13.5108 56.0367 13.8822 56.2456 14.1189C56.4591 14.3556 56.7561 14.4763 57.146 14.4763C57.2342 14.4763 57.3131 14.4763 57.3874 14.467C57.4616 14.4623 57.5405 14.4531 57.6148 14.4438C57.768 14.4206 57.8701 14.4623 57.9258 14.5645C57.9815 14.6666 58.0047 14.8754 58.0047 15.1911C58.0047 15.4603 57.949 15.6738 57.8422 15.8223C57.7355 15.9755 57.5545 16.0637 57.3038 16.1008C57.1971 16.1101 57.081 16.124 56.9604 16.1333C56.8397 16.1426 56.7236 16.1518 56.603 16.1518L56.6122 16.1472Z" fill="#0A0A0A"/>
<path d="M63.2867 16.1518C62.3862 16.1518 61.6158 15.9847 60.966 15.6506C60.3161 15.3164 59.8149 14.8383 59.4621 14.221C59.1094 13.6037 58.933 12.8703 58.933 12.0256C58.933 11.1808 59.1047 10.4799 59.4435 9.86726C59.787 9.24994 60.2558 8.76723 60.8546 8.41448C61.4533 8.06172 62.1402 7.88535 62.9107 7.88535C63.4724 7.88535 63.9783 7.97818 64.4285 8.15919C64.8787 8.34485 65.264 8.60942 65.5796 8.95753C65.8952 9.30564 66.1412 9.72338 66.3129 10.2154C66.48 10.7074 66.5636 11.2643 66.5636 11.8817C66.5636 12.0766 66.494 12.2251 66.3594 12.3273C66.2248 12.4294 66.0298 12.4804 65.7838 12.4804H60.5714V11.3108H65.134L64.8741 11.5521C64.8741 11.0555 64.7998 10.6377 64.6559 10.3036C64.5074 9.96937 64.2985 9.70945 64.0201 9.53307C63.7416 9.3567 63.3981 9.26387 62.9896 9.26387C62.5348 9.26387 62.1495 9.37062 61.8293 9.57949C61.509 9.78836 61.2677 10.0901 61.1006 10.4753C60.9335 10.8605 60.8499 11.3154 60.8499 11.8492V11.9606C60.8499 12.8471 61.0588 13.5108 61.4765 13.9518C61.8943 14.3927 62.5069 14.6109 63.3192 14.6109C63.6023 14.6109 63.9179 14.5737 64.2707 14.5041C64.6234 14.4345 64.9576 14.3138 65.2686 14.1374C65.496 14.0075 65.6956 13.9518 65.8674 13.9657C66.0391 13.9843 66.1783 14.0446 66.2805 14.1514C66.3826 14.2581 66.4476 14.3927 66.4661 14.5505C66.4893 14.7083 66.4568 14.8661 66.3779 15.0286C66.2944 15.191 66.1598 15.3303 65.9648 15.451C65.5842 15.6877 65.1479 15.8641 64.6559 15.9801C64.1639 16.0961 63.7044 16.1518 63.2821 16.1518H63.2867Z" fill="#0A0A0A"/>
<path d="M68.5316 16.1425C68.1975 16.1425 67.9375 16.0543 67.7612 15.8733C67.5848 15.6923 67.4919 15.437 67.4919 15.1028V8.96213C67.4919 8.62795 67.5801 8.37267 67.7519 8.19629C67.9236 8.02455 68.1696 7.93637 68.4852 7.93637C68.8008 7.93637 69.0422 8.02455 69.2186 8.19629C69.3903 8.36802 69.4785 8.62331 69.4785 8.96213V9.9879H69.3161C69.4692 9.3381 69.7663 8.8461 70.2072 8.50727C70.6528 8.17308 71.2423 7.96886 71.9756 7.90852C72.2031 7.88531 72.3841 7.94565 72.5187 8.08025C72.6533 8.21485 72.7322 8.42372 72.7554 8.70685C72.7786 8.97606 72.7136 9.19885 72.5697 9.36594C72.4212 9.53304 72.2031 9.63515 71.9106 9.66764L71.5532 9.70013C70.8942 9.76511 70.3929 9.96934 70.0587 10.3082C69.7245 10.6516 69.5574 11.1297 69.5574 11.747V15.1121C69.5574 15.4463 69.4692 15.7062 69.2975 15.8826C69.1257 16.059 68.8705 16.1518 68.5316 16.1518V16.1425Z" fill="#0A0A0A"/>
</svg>
