<svg width="212" height="57" viewBox="0 0 212 57" fill="none" xmlns="http://www.w3.org/2000/svg">
<path d="M54.1128 0.266929L53.8459 4.45058L53.0723 4.40156L53.2902 0.991444L49.8801 0.77354L49.9292 0L54.1128 0.266929Z" fill="#16278E"/>
<path d="M51.8848 2.22792L51.6887 5.36567L51.1112 5.32753L51.2747 2.76722L48.7144 2.6038L48.7525 2.02637L51.8848 2.22792Z" fill="#0B514D"/>
<path d="M49.6622 4.18348L49.5315 6.2753L49.1447 6.25351L49.2536 4.543L47.5486 4.43951L47.5704 4.05273L49.6622 4.18348Z" fill="#007A0C"/>
<path d="M28.5643 5.21289C26.8156 5.31639 25.0615 5.43624 23.3129 5.56153C19.2722 5.74833 15.3956 7.21541 12.2436 9.75064C10.6776 11.0479 9.31829 12.5762 8.21251 14.2829C7.81485 14.8876 7.43353 15.5249 7.07944 16.195C6.62517 17.0381 6.23898 17.9161 5.92458 18.8207C5.40421 20.2873 5.0711 21.8138 4.93314 23.3639C4.79755 24.8743 4.8396 26.3955 5.05843 27.8962C5.53725 31.1859 6.8271 34.3047 8.81174 36.9716C9.44933 37.829 10.1543 38.6342 10.9199 39.3794L26.9409 23.3639L31.4841 18.8207L36.0219 14.2829L40.5541 9.75064L45.0919 5.21289H28.5643Z" stroke="black" stroke-width="0.544747" stroke-miterlimit="10"/>
<path d="M28.5642 5.21289H45.0864H45.0918" stroke="black" stroke-width="0.544747" stroke-miterlimit="10"/>
<path d="M40.5485 9.75098H12.2434" stroke="black" stroke-width="0.544747" stroke-miterlimit="10"/>
<path d="M36.0163 14.2832H8.2124" stroke="black" stroke-width="0.544747" stroke-miterlimit="10"/>
<path d="M31.4786 18.8213H5.92456" stroke="black" stroke-width="0.544747" stroke-miterlimit="10"/>
<path d="M26.9354 23.3584H4.93311" stroke="black" stroke-width="0.544747" stroke-miterlimit="10"/>
<path d="M22.3977 27.8965H5.05835" stroke="black" stroke-width="0.544747" stroke-miterlimit="10"/>
<path d="M17.8599 32.4346H6.27856" stroke="black" stroke-width="0.544747" stroke-miterlimit="10"/>
<path d="M13.3275 36.9717H8.80615" stroke="black" stroke-width="0.544747" stroke-miterlimit="10"/>
<path d="M17.5276 56.0001C19.2762 55.8912 21.0357 55.7713 22.7844 55.646C26.8297 55.4623 30.7119 53.9972 33.87 51.4624C35.4344 50.1629 36.7918 48.6327 37.8957 46.9246C38.2933 46.32 38.6746 45.6826 39.0287 45.018C39.4848 44.1732 39.8728 43.2933 40.189 42.3869C40.7063 40.9212 41.0393 39.3969 41.1805 37.8491C41.316 36.3368 41.274 34.8139 41.0552 33.3114C40.5737 30.0241 39.2841 26.9076 37.3019 24.2414C36.6675 23.3797 35.9624 22.5725 35.1937 21.8281L19.1618 37.8491L14.6186 42.3869L10.0754 46.9519L5.54312 51.4624L1.00537 56.0001H17.5276Z" stroke="black" stroke-width="0.544747" stroke-miterlimit="10"/>
<path d="M17.5222 56H1" stroke="black" stroke-width="0.544747" stroke-miterlimit="10"/>
<path d="M5.5376 51.4619H33.8481" stroke="black" stroke-width="0.544747" stroke-miterlimit="10"/>
<path d="M10.0754 46.9248H37.8739" stroke="black" stroke-width="0.544747" stroke-miterlimit="10"/>
<path d="M14.6133 42.3867H40.1674" stroke="black" stroke-width="0.544747" stroke-miterlimit="10"/>
<path d="M19.1562 37.8486H41.1586" stroke="black" stroke-width="0.544747" stroke-miterlimit="10"/>
<path d="M23.6887 33.3115H41.0335" stroke="black" stroke-width="0.544747" stroke-miterlimit="10"/>
<path d="M28.2319 28.7734H39.8133" stroke="black" stroke-width="0.544747" stroke-miterlimit="10"/>
<path d="M32.7642 24.2412H37.2801" stroke="black" stroke-width="0.544747" stroke-miterlimit="10"/>
<path d="M59.99 29.1071C59.185 28.7558 58.4916 28.1906 57.9854 27.4728C57.4993 26.7882 57.2264 25.9751 57.2009 25.1359H59.004C59.087 25.9714 59.4749 26.7471 60.0935 27.3148C60.8808 27.9898 61.9028 28.3266 62.9371 28.2518C63.9237 28.3034 64.8943 27.987 65.6608 27.3639C65.9871 27.0872 66.2474 26.7411 66.4227 26.3509C66.598 25.9607 66.6839 25.5363 66.6741 25.1086C66.7103 24.474 66.5169 23.8475 66.1293 23.3436C65.7596 22.8975 65.2812 22.5542 64.7402 22.3467C63.9912 22.0656 63.2275 21.8255 62.4523 21.6277C61.5247 21.3914 60.6146 21.0911 59.7286 20.7288C59.0516 20.428 58.4642 19.957 58.0235 19.3615C57.5171 18.6274 57.2681 17.7463 57.3153 16.8557C57.303 16.0202 57.5422 15.2003 58.0017 14.5024C58.4775 13.7888 59.1436 13.2226 59.9247 12.8682C60.8198 12.4663 61.7927 12.2672 62.7737 12.2853C64.1399 12.2191 65.487 12.6271 66.5869 13.4401C67.0533 13.7981 67.4417 14.2475 67.7283 14.7608C68.0149 15.2741 68.1938 15.8405 68.2538 16.4253H66.4072C66.2671 15.6851 65.86 15.0221 65.2632 14.5623C64.5032 14.0303 63.5979 13.7449 62.6702 13.7449C61.7425 13.7449 60.8372 14.0303 60.0772 14.5623C59.7419 14.8257 59.4741 15.1652 59.296 15.5526C59.1179 15.94 59.0346 16.3643 59.0531 16.7903C59.0177 17.4131 59.2115 18.0274 59.5978 18.5172C59.9747 18.9616 60.4557 19.3059 60.9978 19.5195C61.7428 19.8046 62.503 20.0483 63.2749 20.2495C64.1865 20.4902 65.0802 20.7941 65.9496 21.1592C66.6347 21.4639 67.2309 21.9383 67.6819 22.5374C68.1839 23.2651 68.431 24.1386 68.3846 25.0215C68.3857 25.8205 68.1671 26.6044 67.7527 27.2876C67.3039 28.0289 66.6541 28.6276 65.8787 29.0144C64.9561 29.4739 63.9348 29.7002 62.9044 29.6736C61.9037 29.6945 60.9101 29.5013 59.99 29.1071Z" fill="black"/>
<path d="M73.4236 11.501V29.5212H71.7185V11.501H73.4236Z" fill="black"/>
<path d="M77.2693 13.3531C77.1502 13.2362 77.0564 13.0961 76.9936 12.9415C76.9308 12.7869 76.9004 12.6211 76.9043 12.4543C76.8995 12.2882 76.9296 12.1229 76.9924 11.969C77.0553 11.8152 77.1496 11.6762 77.2693 11.5609C77.4439 11.3867 77.6665 11.2684 77.9087 11.2212C78.1508 11.174 78.4016 11.2 78.6289 11.2958C78.8562 11.3916 79.0499 11.553 79.1851 11.7593C79.3204 11.9657 79.3911 12.2076 79.3883 12.4543C79.3909 12.6209 79.3599 12.7864 79.2972 12.9408C79.2345 13.0952 79.1414 13.2354 79.0234 13.3531C78.9084 13.4687 78.7718 13.5605 78.6213 13.6231C78.4707 13.6857 78.3093 13.718 78.1463 13.718C77.9833 13.718 77.8219 13.6857 77.6714 13.6231C77.5209 13.5605 77.3842 13.4687 77.2693 13.3531ZM78.9961 16.2294V29.5212H77.2911V16.2294H78.9961Z" fill="black"/>
<path d="M82.9186 19.2577C83.4378 18.2603 84.2317 17.4323 85.2065 16.8718C86.2253 16.3002 87.3779 16.0107 88.5458 16.0329C89.9946 15.9731 91.4217 16.4008 92.5987 17.2476C93.6643 18.0652 94.3961 19.2424 94.6579 20.5597H92.8275C92.6343 19.6529 92.1098 18.8507 91.3567 18.3099C90.5309 17.7446 89.546 17.4583 88.5458 17.4928C87.7016 17.4791 86.8689 17.6896 86.1326 18.1029C85.3997 18.5252 84.8098 19.1569 84.4384 19.9169C83.9979 20.839 83.7849 21.8534 83.8174 22.8749C83.7867 23.8997 83.9996 24.9172 84.4384 25.8438C84.8093 26.6083 85.399 27.2454 86.1326 27.6741C86.8704 28.0831 87.7024 28.2915 88.5458 28.2788C89.5454 28.3152 90.5304 28.0308 91.3567 27.4671C92.1132 26.9174 92.6376 26.1056 92.8275 25.1901H94.6579C94.3776 26.4907 93.6439 27.6492 92.5879 28.4585C91.4157 29.3279 89.9823 29.7717 88.524 29.7169C87.3562 29.7391 86.2035 29.4495 85.1847 28.878C84.2099 28.3174 83.416 27.4895 82.8968 26.492C82.3517 25.3641 82.0686 24.1276 82.0686 22.8749C82.0686 21.6222 82.3517 20.3856 82.8968 19.2577H82.9186Z" fill="black"/>
<path d="M109.769 23.5341H98.7488C98.7676 24.4413 99.0189 25.3285 99.4788 26.1107C99.8876 26.8083 100.487 27.3752 101.206 27.745C101.93 28.1115 102.731 28.2983 103.543 28.2897C104.533 28.3236 105.51 28.0433 106.332 27.4889C107.078 26.9677 107.61 26.1935 107.83 25.31H109.633C109.327 26.5773 108.592 27.6996 107.552 28.4858C106.393 29.3371 104.98 29.7711 103.543 29.717C102.37 29.7432 101.211 29.4614 100.181 28.8998C99.1961 28.3404 98.3896 27.5131 97.8554 26.5138C97.2777 25.3972 96.9893 24.1536 97.0165 22.8967C96.9887 21.6376 97.2732 20.3911 97.8445 19.2687C98.363 18.2617 99.1688 17.4313 100.16 16.8827C101.196 16.3177 102.362 16.0323 103.543 16.0547C104.705 16.026 105.853 16.3121 106.866 16.8827C107.784 17.4092 108.539 18.1805 109.045 19.1107C109.562 20.063 109.826 21.1321 109.813 22.2158C109.824 22.7823 109.809 23.2218 109.769 23.5341ZM107.492 19.6119C107.094 18.9299 106.505 18.379 105.798 18.0267C105.072 17.6649 104.272 17.4783 103.461 17.4819C102.264 17.4558 101.102 17.8929 100.22 18.7022C99.7583 19.1481 99.3899 19.6809 99.1355 20.2699C98.8812 20.859 98.7461 21.4925 98.7379 22.1341H108.086C108.125 21.2646 107.924 20.4011 107.503 19.6391L107.492 19.6119Z" fill="black"/>
<path d="M128.835 12.5029V13.9138H121.323V20.271H127.653V21.6819H121.323V29.5208H119.618V12.5029H128.835Z" fill="black"/>
<path d="M131.597 13.3527C131.478 13.2358 131.384 13.0958 131.322 12.9412C131.259 12.7866 131.228 12.6207 131.232 12.4539C131.227 12.2878 131.257 12.1225 131.32 11.9687C131.383 11.8148 131.477 11.6758 131.597 11.5605C131.835 11.3372 132.148 11.2129 132.474 11.2129C132.8 11.2129 133.114 11.3372 133.351 11.5605C133.471 11.6758 133.565 11.8148 133.628 11.9687C133.691 12.1225 133.721 12.2878 133.716 12.4539C133.72 12.6207 133.69 12.7866 133.627 12.9412C133.564 13.0958 133.47 13.2358 133.351 13.3527C133.236 13.4684 133.1 13.5601 132.949 13.6227C132.799 13.6854 132.637 13.7176 132.474 13.7176C132.311 13.7176 132.15 13.6854 131.999 13.6227C131.849 13.5601 131.712 13.4684 131.597 13.3527ZM133.324 16.229V29.5209H131.619V16.229H133.324Z" fill="black"/>
<path d="M147.357 17.4602C148.359 18.4461 148.866 19.8679 148.866 21.7364V29.5263H147.182V21.9271C147.263 20.7235 146.872 19.5358 146.093 18.615C145.707 18.2265 145.244 17.9238 144.733 17.7267C144.222 17.5296 143.676 17.4425 143.129 17.471C142.561 17.4444 141.994 17.539 141.465 17.7484C140.936 17.9579 140.458 18.2774 140.062 18.6858C139.3 19.4993 138.918 20.6923 138.918 22.2648V29.5209H137.213V16.229H138.918V18.4897C139.322 17.697 139.959 17.0469 140.743 16.6267C141.582 16.1851 142.519 15.964 143.467 15.9839C144.181 15.9583 144.893 16.0758 145.561 16.3293C146.229 16.5828 146.839 16.9673 147.357 17.4602Z" fill="black"/>
<path d="M152.646 19.2582C153.159 18.2633 153.945 17.4356 154.912 16.8722C155.907 16.305 157.036 16.0153 158.181 16.0333C159.332 16.003 160.467 16.3077 161.449 16.9103C162.319 17.4422 163.009 18.2219 163.432 19.1493V16.2294H165.137V29.5212H163.432V26.5742C162.994 27.5046 162.296 28.2881 161.422 28.8294C160.443 29.4397 159.306 29.7485 158.153 29.7173C157.007 29.737 155.877 29.4431 154.885 28.8675C153.916 28.2938 153.131 27.4569 152.619 26.4543C152.06 25.3357 151.782 24.0982 151.807 22.8481C151.789 21.6009 152.077 20.3682 152.646 19.2582ZM162.789 20.0481C162.38 19.2687 161.761 18.6195 161.002 18.1742C160.244 17.7375 159.382 17.5118 158.507 17.5205C157.622 17.5041 156.748 17.7221 155.974 18.1524C155.221 18.5808 154.608 19.2185 154.209 19.9882C153.76 20.8731 153.537 21.8558 153.561 22.8481C153.54 23.8418 153.763 24.8255 154.209 25.7135C154.605 26.4948 155.218 27.1455 155.974 27.5874C156.746 28.0234 157.621 28.2453 158.507 28.2302C159.382 28.2389 160.244 28.0132 161.002 27.5765C161.763 27.1306 162.382 26.4792 162.789 25.6971C163.223 24.8187 163.449 23.8522 163.449 22.8726C163.449 21.893 163.223 20.9265 162.789 20.0481Z" fill="black"/>
<path d="M179.181 17.4601C180.189 18.4461 180.69 19.8679 180.69 21.7363V29.5262H179.012V21.927C179.092 20.7234 178.702 19.5357 177.922 18.6149C177.537 18.2265 177.073 17.9238 176.563 17.7266C176.052 17.5295 175.506 17.4424 174.959 17.471C174.391 17.4443 173.824 17.5389 173.295 17.7483C172.766 17.9578 172.288 18.2773 171.892 18.6858C171.129 19.4992 170.748 20.6922 170.748 22.2647V29.5208H169.043V16.2289H170.781V18.4897C171.185 17.6969 171.821 17.0468 172.606 16.6266C173.444 16.1853 174.382 15.9641 175.329 15.9838C176.037 15.9628 176.742 16.0824 177.403 16.3358C178.064 16.5892 178.668 16.9714 179.181 17.4601Z" fill="black"/>
<path d="M184.514 19.2585C185.033 18.261 185.827 17.4331 186.802 16.8725C187.953 16.2631 189.248 15.9764 190.55 16.0425C191.851 16.1087 193.11 16.5253 194.194 17.2484C195.26 18.0648 195.99 19.2428 196.248 20.5604H194.423C194.227 19.6544 193.703 18.8529 192.952 18.3106C192.124 17.7446 191.137 17.4582 190.136 17.4935C189.293 17.4797 188.462 17.6903 187.728 18.1036C186.995 18.5259 186.405 19.1576 186.034 19.9176C185.593 20.8398 185.38 21.8541 185.413 22.8756C185.382 23.9004 185.595 24.9179 186.034 25.8445C186.404 26.609 186.994 27.2461 187.728 27.6748C188.464 28.0838 189.294 28.2923 190.136 28.2795C191.137 28.3167 192.124 28.0323 192.952 27.4678C193.707 26.9167 194.231 26.1055 194.423 25.1908H196.248C195.971 26.4917 195.239 27.651 194.183 28.4593C193.013 29.3181 191.586 29.7558 190.136 29.7013C188.969 29.7241 187.818 29.4344 186.802 28.8624C185.827 28.3018 185.033 27.4738 184.514 26.4764C183.969 25.3485 183.686 24.112 183.686 22.8593C183.686 21.6066 183.969 20.37 184.514 19.2421V19.2585Z" fill="black"/>
<path d="M211.37 23.5341H200.339C200.359 24.4418 200.612 25.329 201.074 26.1107C201.483 26.8083 202.082 27.3752 202.801 27.745C203.525 28.1115 204.326 28.2983 205.138 28.2897C206.129 28.3228 207.105 28.0426 207.927 27.4889C208.673 26.9677 209.206 26.1935 209.425 25.31H211.228C210.922 26.5787 210.185 27.7014 209.142 28.4858C207.985 29.3379 206.573 29.772 205.138 29.717C203.965 29.7432 202.806 29.4614 201.777 28.8998C200.79 28.3426 199.983 27.5147 199.451 26.5138C198.87 25.3982 198.582 24.1539 198.612 22.8967C198.584 21.6376 198.868 20.3911 199.44 19.2687C199.958 18.2617 200.764 17.4313 201.755 16.8827C202.791 16.3169 203.957 16.0315 205.138 16.0547C206.3 16.026 207.448 16.3121 208.461 16.8827C209.38 17.4092 210.134 18.1805 210.64 19.1107C211.153 20.0645 211.415 21.1329 211.402 22.2158C211.413 22.7823 211.402 23.2218 211.37 23.5341ZM209.093 19.6119C208.698 18.9291 208.11 18.3777 207.404 18.0267C206.678 17.6649 205.878 17.4783 205.067 17.4819C203.87 17.4602 202.711 17.9012 201.831 18.7131C201.369 19.1587 201 19.6914 200.745 20.2804C200.489 20.8694 200.353 21.5031 200.344 22.145H209.697C209.732 21.2698 209.523 20.4022 209.093 19.6391V19.6119Z" fill="black"/>
<path d="M63.2204 36.189L62.011 40.4599H61.5371L60.4476 36.821L59.3581 40.4599H58.8951L57.7075 36.1836H58.1706L59.1457 39.9315L60.2351 36.1836H60.7418L61.8313 39.9315L62.8118 36.1836L63.2204 36.189Z" fill="black"/>
<path d="M65.04 36.5262V38.1604H66.6742V38.5145H65.04V40.1487H66.8431V40.5028H64.6096V36.2266H66.8431V36.5262H65.04Z" fill="black"/>
<path d="M70.8958 39.4463H68.9511L68.5752 40.4595H68.123L69.681 36.2432H70.1658L71.7184 40.4595H71.2662L70.8958 39.4463ZM70.7651 39.0922L69.9207 36.7825L69.0764 39.0922H70.7651Z" fill="black"/>
<path d="M76.5395 36.1885L74.9053 40.4593H74.415L72.7808 36.1885H73.271L74.671 40.0017L76.0819 36.1885H76.5395Z" fill="black"/>
<path d="M78.3261 36.1885V40.4593H77.8958V36.1885H78.3261Z" fill="black"/>
<path d="M83.2507 40.4593H82.8258L80.4562 36.8694V40.4593H80.0312V36.1885H80.4562L82.8258 39.7784V36.1885H83.2507V40.4593Z" fill="black"/>
<path d="M88.3169 37.4367C88.207 37.165 88.017 36.9332 87.7722 36.7721C87.5074 36.6079 87.2012 36.5228 86.8897 36.5269C86.5885 36.5212 86.2912 36.5965 86.029 36.7448C85.7764 36.894 85.5707 37.111 85.4352 37.3713C85.2884 37.6657 85.212 37.9902 85.212 38.3191C85.212 38.6481 85.2884 38.9726 85.4352 39.267C85.5689 39.5284 85.7751 39.7459 86.029 39.8935C86.2908 40.0435 86.588 40.1206 86.8897 40.1168C87.169 40.1209 87.4447 40.0534 87.6905 39.9207C87.9292 39.7955 88.129 39.607 88.2679 39.376C88.414 39.1212 88.4979 38.8357 88.513 38.5425H86.7154V38.1938H88.9652V38.5044C88.9492 38.8639 88.8444 39.2139 88.6601 39.523C88.4811 39.8221 88.2277 40.0698 87.9247 40.2421C87.6085 40.4182 87.2516 40.5084 86.8897 40.5036C86.5081 40.5108 86.1317 40.4148 85.8002 40.2258C85.4795 40.0432 85.2155 39.7755 85.0375 39.4522C84.8552 39.1043 84.76 38.7174 84.76 38.3246C84.76 37.9318 84.8552 37.5449 85.0375 37.197C85.2154 36.8722 85.4792 36.6026 85.8002 36.418C86.1317 36.2289 86.5081 36.133 86.8897 36.1402C87.313 36.1309 87.729 36.2506 88.0827 36.4833C88.4276 36.7125 88.6893 37.0468 88.829 37.4367H88.3169Z" fill="black"/>
<path d="M95.3767 36.1892V36.5269H94.1946V40.4437H93.7643V36.5269H92.5713V36.1729L95.3767 36.1892Z" fill="black"/>
<path d="M99.0648 40.4601L98.008 38.706H97.2399V40.4873H96.8096V36.2165H98.0952C98.489 36.186 98.8794 36.309 99.1847 36.5597C99.3069 36.6744 99.4032 36.814 99.467 36.969C99.5309 37.1241 99.561 37.2909 99.5551 37.4585C99.564 37.7453 99.4692 38.0258 99.2882 38.2484C99.0873 38.4811 98.8083 38.6322 98.5037 38.6733L99.5932 40.4873L99.0648 40.4601ZM97.2399 38.3301H98.1006C98.3753 38.3502 98.647 38.2622 98.8578 38.085C98.9428 37.9994 99.0089 37.8971 99.0521 37.7846C99.0952 37.672 99.1144 37.5517 99.1084 37.4313C99.1162 37.3112 99.0983 37.1908 99.0561 37.0781C99.0138 36.9654 98.9481 36.863 98.8633 36.7776C98.6456 36.6065 98.371 36.5247 98.0952 36.5488H97.2399V38.3301Z" fill="black"/>
<path d="M101.522 36.1885V38.8795C101.493 39.2209 101.601 39.5597 101.821 39.8219C101.931 39.9261 102.062 40.0068 102.204 40.0593C102.346 40.1117 102.498 40.1347 102.649 40.127C102.8 40.1359 102.951 40.1134 103.092 40.0609C103.234 40.0084 103.363 39.927 103.472 39.8219C103.581 39.6924 103.664 39.5424 103.716 39.3807C103.767 39.2189 103.786 39.0486 103.771 38.8795V36.1885H104.196V38.8741C104.213 39.0962 104.184 39.3195 104.11 39.5296C104.036 39.7397 103.919 39.932 103.766 40.0943C103.452 40.3586 103.054 40.5035 102.644 40.5035C102.233 40.5035 101.836 40.3586 101.522 40.0943C101.371 39.9309 101.254 39.7384 101.18 39.5286C101.106 39.3188 101.076 39.0961 101.091 38.8741V36.1885H101.522Z" fill="black"/>
<path d="M106.435 40.3402C106.234 40.2523 106.061 40.111 105.934 39.9317C105.81 39.7604 105.741 39.555 105.738 39.3434H106.19C106.213 39.5527 106.312 39.7463 106.468 39.8881C106.565 39.9726 106.678 40.0369 106.801 40.0771C106.923 40.1174 107.053 40.1327 107.181 40.1223C107.43 40.1352 107.674 40.0556 107.868 39.899C107.947 39.8319 108.011 39.7485 108.055 39.6545C108.099 39.5605 108.123 39.4581 108.124 39.3543C108.131 39.195 108.08 39.0386 107.982 38.913C107.889 38.8008 107.769 38.7145 107.634 38.6624C107.444 38.5927 107.252 38.5327 107.056 38.4827C106.825 38.425 106.599 38.3485 106.381 38.2539C106.209 38.1802 106.06 38.0616 105.95 37.9107C105.825 37.7265 105.764 37.5065 105.776 37.2842C105.772 37.0756 105.83 36.8705 105.945 36.6959C106.065 36.5171 106.233 36.3756 106.43 36.2873C106.653 36.1852 106.897 36.1349 107.143 36.1402C107.486 36.1246 107.825 36.2264 108.102 36.429C108.218 36.5205 108.315 36.634 108.387 36.763C108.459 36.892 108.504 37.034 108.521 37.1807H108.053C108.018 36.9956 107.917 36.8293 107.77 36.7122C107.58 36.5665 107.344 36.4931 107.105 36.5052C106.875 36.4977 106.65 36.5709 106.468 36.7122C106.385 36.7762 106.318 36.8588 106.272 36.9534C106.227 37.0481 106.204 37.152 106.206 37.257C106.199 37.4129 106.25 37.5661 106.348 37.6873C106.442 37.8008 106.564 37.8873 106.702 37.9379C106.879 38.0121 107.061 38.074 107.247 38.1231C107.475 38.1833 107.699 38.2597 107.917 38.3519C108.088 38.4292 108.237 38.547 108.353 38.6951C108.476 38.8799 108.537 39.0995 108.527 39.3216C108.523 39.5139 108.469 39.7019 108.369 39.8663C108.258 40.0534 108.095 40.2046 107.9 40.3021C107.669 40.4164 107.412 40.4725 107.154 40.4655C106.908 40.4737 106.664 40.431 106.435 40.3402Z" fill="black"/>
<path d="M112.613 36.1892V36.5269H111.43V40.4437H111V36.5269H109.807V36.1729L112.613 36.1892Z" fill="black"/>
<path d="M116.851 36.1885V40.4593H116.42V36.1885H116.851Z" fill="black"/>
<path d="M121.786 40.4593H121.361L118.997 36.8694V40.4593H118.567V36.1885H118.997L121.361 39.7784V36.1885H121.786V40.4593Z" fill="black"/>
<path d="M125.991 36.1892V36.5269H124.809V40.4437H124.379V36.5269H123.186V36.1729L125.991 36.1892Z" fill="black"/>
<path d="M128.247 40.2253C127.928 40.0425 127.666 39.7747 127.49 39.4518C127.307 39.1039 127.212 38.7169 127.212 38.3241C127.212 37.9314 127.307 37.5445 127.49 37.1965C127.666 36.8721 127.928 36.6026 128.247 36.4175C128.58 36.2315 128.955 36.1338 129.336 36.1338C129.718 36.1338 130.093 36.2315 130.426 36.4175C130.746 36.6009 131.009 36.8709 131.183 37.1965C131.365 37.5445 131.461 37.9314 131.461 38.3241C131.461 38.7169 131.365 39.1039 131.183 39.4518C131.009 39.7759 130.746 40.0441 130.426 40.2253C130.093 40.4114 129.718 40.5091 129.336 40.5091C128.955 40.5091 128.58 40.4114 128.247 40.2253ZM130.181 39.9094C130.436 39.7597 130.644 39.5406 130.78 39.2775C130.924 38.9804 131 38.6545 131 38.3241C131 37.9938 130.924 37.6679 130.78 37.3708C130.644 37.1077 130.436 36.8886 130.181 36.7389C129.92 36.5913 129.625 36.516 129.325 36.521C129.026 36.5139 128.73 36.5893 128.47 36.7389C128.213 36.8869 128.005 37.1064 127.871 37.3708C127.724 37.6672 127.648 37.9934 127.648 38.3241C127.648 38.6549 127.724 38.9811 127.871 39.2775C128.005 39.5418 128.213 39.7614 128.47 39.9094C128.729 40.061 129.025 40.1382 129.325 40.1327C129.625 40.1358 129.921 40.0587 130.181 39.9094Z" fill="black"/>
<path d="M138.722 37.4361C138.612 37.1644 138.422 36.9326 138.178 36.7715C137.912 36.6093 137.606 36.5261 137.295 36.5318C136.995 36.5246 136.699 36.6 136.44 36.7497C136.184 36.8972 135.976 37.1145 135.841 37.3762C135.694 37.6706 135.617 37.9951 135.617 38.324C135.617 38.653 135.694 38.9775 135.841 39.2719C135.975 39.5348 136.183 39.7526 136.44 39.8983C136.689 40.0361 136.969 40.1106 137.253 40.1154C137.538 40.1201 137.82 40.055 138.074 39.9256C138.313 39.8004 138.513 39.6119 138.651 39.3808C138.797 39.1261 138.881 38.8406 138.897 38.5474H137.099V38.1987H139.349V38.5093C139.333 38.8688 139.228 39.2188 139.044 39.5279C138.865 39.827 138.611 40.0747 138.308 40.247C137.992 40.4231 137.635 40.5133 137.273 40.5085C136.892 40.5157 136.515 40.4197 136.184 40.2306C135.863 40.0481 135.599 39.7804 135.421 39.4571C135.239 39.1092 135.144 38.7223 135.144 38.3295C135.144 37.9367 135.239 37.5498 135.421 37.2018C135.599 36.8771 135.863 36.6075 136.184 36.4229C136.515 36.2338 136.892 36.1378 137.273 36.145C137.697 36.1357 138.113 36.2554 138.466 36.4882C138.811 36.7174 139.073 37.0517 139.213 37.4415L138.722 37.4361Z" fill="black"/>
<path d="M141.304 40.1106H142.835V40.4593H140.874V36.1885H141.304V40.1106Z" fill="black"/>
<path d="M145.025 40.2253C144.704 40.0428 144.44 39.7751 144.262 39.4518C144.08 39.1039 143.985 38.7169 143.985 38.3241C143.985 37.9314 144.08 37.5445 144.262 37.1965C144.44 36.8717 144.704 36.6022 145.025 36.4175C145.358 36.2315 145.733 36.1338 146.115 36.1338C146.496 36.1338 146.871 36.2315 147.204 36.4175C147.525 36.6009 147.787 36.8709 147.961 37.1965C148.144 37.5445 148.239 37.9314 148.239 38.3241C148.239 38.7169 148.144 39.1039 147.961 39.4518C147.787 39.7759 147.524 40.0441 147.204 40.2253C146.871 40.4114 146.496 40.5091 146.115 40.5091C145.733 40.5091 145.358 40.4114 145.025 40.2253ZM146.959 39.9094C147.214 39.7597 147.422 39.5406 147.558 39.2775C147.703 38.9804 147.778 38.6545 147.778 38.3241C147.778 37.9938 147.703 37.6679 147.558 37.3708C147.422 37.1077 147.214 36.8886 146.959 36.7389C146.698 36.5913 146.403 36.516 146.104 36.521C145.804 36.5139 145.508 36.5893 145.248 36.7389C144.99 36.8853 144.782 37.1053 144.649 37.3708C144.502 37.6672 144.426 37.9934 144.426 38.3241C144.426 38.6549 144.502 38.9811 144.649 39.2775C144.782 39.543 144.99 39.763 145.248 39.9094C145.508 40.061 145.803 40.1382 146.104 40.1327C146.404 40.1358 146.699 40.0587 146.959 39.9094Z" fill="black"/>
<path d="M152.341 38.6241C152.507 38.816 152.596 39.0623 152.592 39.3159C152.594 39.5236 152.538 39.7277 152.428 39.9043C152.314 40.0839 152.149 40.2259 151.954 40.3128C151.721 40.4164 151.468 40.4667 151.213 40.4599H149.732V36.1891H151.17C151.524 36.1642 151.875 36.2709 152.156 36.4887C152.266 36.5857 152.353 36.7058 152.412 36.8404C152.47 36.9751 152.498 37.121 152.494 37.2677C152.504 37.5007 152.428 37.7294 152.281 37.9105C152.137 38.0752 151.947 38.1944 151.736 38.2537C151.975 38.303 152.189 38.434 152.341 38.6241ZM150.162 38.0794H151.17C151.411 38.0958 151.65 38.0221 151.84 37.8723C151.917 37.8046 151.979 37.7207 152.02 37.6266C152.062 37.5325 152.082 37.4304 152.08 37.3276C152.082 37.2247 152.062 37.1225 152.021 37.0284C151.979 36.9342 151.918 36.8503 151.84 36.7829C151.642 36.6367 151.399 36.5652 151.153 36.5813H150.178L150.162 38.0794ZM151.905 39.8825C151.992 39.8081 152.06 39.7151 152.106 39.6103C152.151 39.5055 152.172 39.3918 152.167 39.2778C152.171 39.1612 152.149 39.0452 152.102 38.9386C152.054 38.8319 151.983 38.7374 151.894 38.6622C151.687 38.5003 151.427 38.419 151.164 38.4334H150.162V40.1004H151.17C151.433 40.1193 151.695 40.0418 151.905 39.8825Z" fill="black"/>
<path d="M156.617 39.4463H154.673L154.302 40.4595H153.85L155.408 36.2432H155.887L157.44 40.4595H156.988L156.617 39.4463ZM156.487 39.0922L155.648 36.7825L154.803 39.0922H156.487Z" fill="black"/>
<path d="M159.259 40.1106H160.796V40.4593H158.834V36.1885H159.259V40.1106Z" fill="black"/>
<path d="M167.91 37.4366C167.798 37.1663 167.608 36.9351 167.365 36.772C167.1 36.6098 166.794 36.5266 166.483 36.5323C166.183 36.5268 165.888 36.6021 165.627 36.7502C165.375 36.9013 165.168 37.1177 165.028 37.3767C164.885 37.6723 164.811 37.9963 164.811 38.3245C164.811 38.6528 164.885 38.9768 165.028 39.2724C165.166 39.533 165.373 39.75 165.627 39.8989C165.887 40.0489 166.183 40.1261 166.483 40.1222C166.764 40.1273 167.042 40.0597 167.289 39.9261C167.526 39.8005 167.724 39.612 167.861 39.3814C168.011 39.1282 168.097 38.842 168.111 38.5479H166.314V38.1993H168.564V38.5098C168.546 38.8698 168.439 39.2198 168.253 39.5284C168.077 39.83 167.823 40.0784 167.518 40.2475C167.202 40.4241 166.845 40.5143 166.483 40.509C166.101 40.5164 165.725 40.4204 165.393 40.2312C165.072 40.0486 164.809 39.7809 164.631 39.4576C164.448 39.1097 164.353 38.7228 164.353 38.33C164.353 37.9372 164.448 37.5503 164.631 37.2024C164.808 36.8776 165.072 36.6081 165.393 36.4234C165.743 36.2306 166.138 36.1349 166.538 36.1464C166.937 36.1579 167.326 36.2761 167.665 36.4887C168.008 36.7193 168.27 37.0532 168.411 37.4421L167.91 37.4366Z" fill="black"/>
<path d="M172.333 40.4593L171.276 38.7052H170.486V40.4866H170.062V36.2158H171.325C171.719 36.1881 172.108 36.3107 172.415 36.5589C172.536 36.674 172.632 36.8138 172.695 36.9688C172.758 37.1238 172.787 37.2906 172.78 37.4578C172.788 37.7436 172.695 38.0231 172.518 38.2477C172.315 38.4795 172.034 38.6303 171.728 38.6726L172.818 40.4866L172.333 40.4593ZM170.486 38.3294H171.353C171.626 38.3498 171.896 38.2617 172.104 38.0842C172.19 37.999 172.257 37.8968 172.301 37.7843C172.345 37.6718 172.365 37.5513 172.36 37.4305C172.368 37.3104 172.35 37.1901 172.308 37.0774C172.266 36.9647 172.2 36.8622 172.115 36.7768C171.895 36.5925 171.611 36.5025 171.325 36.5263H170.47L170.486 38.3294Z" fill="black"/>
<path d="M175.226 40.2253C174.905 40.0428 174.641 39.7751 174.463 39.4518C174.281 39.1039 174.186 38.7169 174.186 38.3241C174.186 37.9314 174.281 37.5445 174.463 37.1965C174.641 36.8717 174.905 36.6022 175.226 36.4175C175.559 36.2315 175.934 36.1338 176.315 36.1338C176.697 36.1338 177.072 36.2315 177.405 36.4175C177.724 36.6026 177.986 36.8721 178.162 37.1965C178.344 37.5445 178.439 37.9314 178.439 38.3241C178.439 38.7169 178.344 39.1039 178.162 39.4518C177.986 39.7747 177.724 40.0425 177.405 40.2253C177.072 40.4114 176.697 40.5091 176.315 40.5091C175.934 40.5091 175.559 40.4114 175.226 40.2253ZM177.154 39.9094C177.411 39.7614 177.619 39.5418 177.753 39.2775C177.9 38.9811 177.977 38.6549 177.977 38.3241C177.977 37.9934 177.9 37.6672 177.753 37.3708C177.619 37.1064 177.411 36.8869 177.154 36.7389C176.894 36.5893 176.599 36.5139 176.299 36.521C175.999 36.516 175.704 36.5913 175.444 36.7389C175.188 36.8886 174.98 37.1077 174.844 37.3708C174.7 37.6679 174.625 37.9938 174.625 38.3241C174.625 38.6545 174.7 38.9804 174.844 39.2775C174.98 39.5406 175.188 39.7597 175.444 39.9094C175.704 40.0587 175.999 40.1358 176.299 40.1327C176.599 40.1382 176.895 40.061 177.154 39.9094Z" fill="black"/>
<path d="M185.113 36.189L183.904 40.4599H183.43L182.34 36.821L181.251 40.4599H180.788L179.6 36.1836H180.041L181.022 39.9315L182.111 36.1836H182.585L183.675 39.9315L184.655 36.1836L185.113 36.189Z" fill="black"/>
<path d="M189.002 36.1892V36.5269H187.815V40.4437H187.39V36.5269H186.197V36.1729L189.002 36.1892Z" fill="black"/>
<path d="M193.584 36.1885V40.4593H193.159V38.4601H190.844V40.4593H190.392V36.1885H190.822V38.106H193.137V36.1885H193.584Z" fill="black"/>
<path d="M211.604 38.4002L205.067 44.801L203.885 43.5971L209.218 38.373L203.999 33.0399L205.203 31.8633L211.604 38.4002Z" fill="#16278E"/>
<path d="M205.132 38.3295L200.23 43.1287L199.347 42.2299L203.346 38.3131L199.429 34.3147L200.333 33.4268L205.132 38.3295Z" fill="#0B514D"/>
<path d="M198.666 38.2646L195.398 41.4622L194.81 40.863L197.473 38.2537L194.864 35.5844L195.463 34.9961L198.666 38.2646Z" fill="#007A0C"/>
</svg>
