<svg class="max-md:w-20" width="110" height="34" viewBox="0 0 110 34" fill="none" xmlns="http://www.w3.org/2000/svg"><g clip-path="url(#clip0_6757_8844)"><path d="M50.3693 13.6328L40.3313 24.2481V27.8362H56.186V24.1302H46.0052L56.1177 13.5149V9.92676H40.4368V13.6328H50.3693Z" fill="black"></path><path d="M67.9867 27.8357C66.3417 27.8357 64.8828 27.4694 63.6102 26.7307C62.3377 25.9982 61.3382 24.9615 60.6181 23.633C59.898 22.3046 59.5317 20.765 59.5317 19.0207C59.5317 17.2763 59.8856 15.6809 60.5995 14.3028C61.3134 12.9246 62.3004 11.8507 63.5606 11.0809C64.8208 10.3112 66.3106 9.92627 68.0178 9.92627C69.6194 9.92627 71.0348 10.2925 72.2639 11.0313C73.493 11.7638 74.449 12.7694 75.1443 14.042C75.8396 15.3146 76.181 16.7362 76.181 18.2944C76.181 18.5489 76.181 18.8096 76.1624 19.089C76.15 19.3621 76.1375 19.6539 76.1127 19.9518H63.7096C63.7965 21.2865 64.2434 22.3294 65.0442 23.0868C65.845 23.8441 66.8135 24.2228 67.9557 24.2228C68.8124 24.2228 69.5325 24.0241 70.1098 23.6206C70.6933 23.2171 71.1217 22.6957 71.4072 22.0563H75.6844C75.374 23.1364 74.8649 24.1173 74.1573 24.9988C73.4434 25.8803 72.5681 26.5755 71.5252 27.0846C70.4823 27.5936 69.3028 27.8419 67.9867 27.8419V27.8357ZM68.0178 13.5082C66.9873 13.5082 66.0747 13.8123 65.2863 14.4207C64.498 15.0291 63.9951 15.954 63.7717 17.1956H71.8976C71.8293 16.072 71.4383 15.1781 70.7119 14.5076C69.9856 13.8434 69.0855 13.5082 68.0116 13.5082H68.0178Z" fill="black"></path><path d="M79.7319 27.8363V10.7525H83.4504L83.7794 13.6453C84.2822 12.6334 85.0147 11.8326 85.9645 11.2367C86.9205 10.6407 88.0441 10.3428 89.3354 10.3428C91.3529 10.3428 92.9235 11.007 94.0409 12.3417C95.1583 13.6763 95.717 15.6256 95.717 18.1956V27.8425H91.5081V18.6115C91.5081 17.1403 91.2225 16.0167 90.6514 15.2345C90.0803 14.4523 89.1926 14.0612 87.9883 14.0612C86.784 14.0612 85.8342 14.4958 85.0768 15.3711C84.3195 16.2464 83.9408 17.4631 83.9408 19.0212V27.8363H79.7319Z" fill="black"></path><path d="M107.003 27.836C105.29 27.836 103.924 27.4015 102.893 26.5262C101.863 25.6509 101.348 24.1052 101.348 21.8766V14.4397H98.5541V10.7522H101.348L101.838 6.1709H105.556V10.7522H109.964V14.4397H105.556V21.9138C105.556 22.7395 105.724 23.3106 106.065 23.621C106.407 23.9314 106.99 24.0865 107.828 24.0865H109.871V27.8423H107.009L107.003 27.836Z" fill="black"></path><path d="M34.9746 22.1866L33.969 10.1373C33.7703 7.7411 33.671 6.543 33.044 5.47526C32.4915 4.53168 31.6783 3.78674 30.6913 3.31495C29.5739 2.78108 28.3695 2.78108 25.9671 2.78108H20.9575V0H5.3511C2.3962 0 0 2.3962 0 5.3511V28.6489C0 31.6038 2.3962 34 5.3511 34H20.9575V30.8775H26.9728C29.7601 30.8775 31.1568 30.8775 32.3736 30.2195C33.4351 29.6421 34.2856 28.7172 34.7698 27.6122C35.3223 26.3458 35.2105 24.9553 34.9746 22.1742V22.1866ZM32.6653 26.6997C32.386 27.3391 31.8894 27.8729 31.2748 28.2081C30.5733 28.5868 29.2945 28.5868 26.9666 28.5868H14.6814C12.3597 28.5868 11.0747 28.5868 10.3732 28.2081C9.75863 27.8729 9.26821 27.3391 8.98265 26.6997C8.65985 25.9671 8.76538 24.6945 8.96403 22.3728L9.96969 10.3297C10.1435 8.28118 10.2242 7.25068 10.5905 6.62991C10.9133 6.08362 11.3789 5.64908 11.95 5.37594C12.5956 5.06555 13.6261 5.06555 15.6871 5.06555H25.9671C28.0281 5.06555 29.0586 5.06555 29.7042 5.37594C30.2753 5.64908 30.7471 6.08362 31.0637 6.62991C31.4238 7.25068 31.5107 8.27497 31.6845 10.3297L32.6902 22.379C32.8826 24.6945 32.9881 25.9733 32.6715 26.6997H32.6653Z" fill="black"></path><path d="M24.0737 14.3399C23.2046 15.209 22.0562 15.687 20.8271 15.687C19.5979 15.687 18.4495 15.209 17.5804 14.3399C16.7113 13.4708 16.2333 12.3224 16.2333 11.0933H13.9426C13.9426 12.9308 14.6565 14.6627 15.9602 15.9602C17.2638 17.2576 18.9896 17.9777 20.8271 17.9777C22.6646 17.9777 24.3965 17.2638 25.694 15.9602C26.9914 14.6627 27.7115 12.9308 27.7115 11.0933H25.4208C25.4208 12.3162 24.9428 13.4708 24.0737 14.3399Z" fill="black"></path></g><defs><clipPath id="clip0_6757_8844"><rect width="109.965" height="34" fill="white"></rect></clipPath></defs></svg>