<?xml version="1.0" encoding="UTF-8"?>
<!DOCTYPE svg PUBLIC "-//W3C//DTD SVG 1.1//EN" "http://www.w3.org/Graphics/SVG/1.1/DTD/svg11.dtd">
<!-- Creator: CorelDRAW 2021 (64-Bit) -->
<svg xmlns="http://www.w3.org/2000/svg" xml:space="preserve" width="3.17926in" height="0.732157in" version="1.1" style="shape-rendering:geometricPrecision; text-rendering:geometricPrecision; image-rendering:optimizeQuality; fill-rule:evenodd; clip-rule:evenodd"
viewBox="0 0 1404.35 323.41"
 xmlns:xlink="http://www.w3.org/1999/xlink"
 xmlns:xodm="http://www.corel.com/coreldraw/odm/2003">
 <defs>
  <style type="text/css">
   <![CDATA[
    .fil1 {fill:#FFC500}
    .fil0 {fill:white;fill-rule:nonzero}
   ]]>
  </style>
 </defs>
 <g id="Layer_x0020_1">
  <metadata id="CorelCorpID_0Corel-Layer"/>
  <polygon class="fil0" points="478.41,22.26 478.41,88.31 423.69,22.26 394.82,22.26 394.82,146.22 429.18,146.22 429.18,80.16 483.9,146.22 512.76,146.22 512.76,22.26 "/>
  <path id="_1" class="fil0" d="M540.3 39.61c12.4,0 20.54,-7.79 20.54,-18.42 0,-10.09 -8.15,-17.35 -20.54,-17.35 -12.4,0 -20.54,7.79 -20.54,17.89 0,10.09 8.15,17.88 20.54,17.88zm-16.82 106.61l33.65 0 0 -95.98 -33.65 0 0 95.98z"/>
  <path id="_2" class="fil0" d="M637.62 50.24l0 11.69c-6.55,-9.03 -16.82,-13.28 -30.1,-13.28 -25.5,0 -47.11,18.06 -47.11,46.22 0,28.33 21.61,46.4 47.11,46.4 12.22,0 21.96,-3.72 28.51,-11.33l0 3.19c0,15.05 -7.62,23.2 -25.68,23.2 -11.33,0 -24.44,-3.9 -32.41,-10.27l-12.22 23.55c11.69,8.32 29.22,12.57 47.64,12.57 35.77,0 56.31,-17.18 56.31,-53.48l0 -78.45 -32.05 0zm-22.13 64.28c-12.04,0 -21.07,-7.97 -21.07,-19.66 0,-11.69 9.03,-19.48 21.07,-19.48 12.04,0 20.89,7.79 20.89,19.48 0,11.69 -8.85,19.66 -20.89,19.66z"/>
  <path id="_3" class="fil0" d="M776.9 98.41c0,-31.7 -23.02,-49.76 -51.35,-49.76 -30.28,0 -52.77,20.54 -52.77,49.41 0,28.69 22.14,49.76 56.31,49.76 18.24,0 31.7,-5.31 40.91,-15.58l-17.71 -18.42c-6.55,5.67 -12.75,8.32 -22.14,8.32 -12.4,0 -20.72,-5.67 -23.55,-15.41l69.77 0c0.18,-2.66 0.53,-5.84 0.53,-8.32zm-51.18 -25.85c10.45,0 17.88,6.38 19.66,16.47l-39.32 0c1.95,-10.09 9.21,-16.47 19.66,-16.47z"/>
  <path id="_4" class="fil0" d="M812.06 61.75l0 -11.51 -32.05 0 0 95.98 33.65 0 0 -44.1c0,-16.82 9.39,-23.73 23.02,-23.73 2.48,0 4.61,0.18 7.62,0.53l0 -30.28c-14.17,0 -25.32,4.43 -32.23,13.1z"/>
  <path id="_5" class="fil0" d="M862.44 39.61c12.4,0 20.54,-7.79 20.54,-18.42 0,-10.09 -8.15,-17.35 -20.54,-17.35 -12.4,0 -20.54,7.79 -20.54,17.89 0,10.09 8.15,17.88 20.54,17.88zm-16.82 106.61l33.65 0 0 -95.98 -33.65 0 0 95.98z"/>
  <path id="_6" class="fil0" d="M929.47 48.64c-15.05,0 -31.34,3.9 -42.32,11.16l11.33 22.84c6.55,-5.14 16.82,-8.32 26.03,-8.32 13.28,0 19.83,5.49 20.37,15.23l-19.13 0c-29.75,0 -42.68,10.98 -42.68,28.69 0,16.65 12.75,29.57 35.77,29.57 13.99,0 23.55,-4.78 28.33,-13.99l0 12.4 31.34 0 0 -53.3c0,-30.46 -17.89,-44.27 -49.05,-44.27zm-1.24 77.92c-7.97,0 -12.57,-4.07 -12.57,-9.74 0,-5.84 3.9,-9.74 14.7,-9.74l14.52 0 0 8.32c-2.66,7.61 -9.21,11.16 -16.65,11.16z"/>
  <path id="_7" class="fil0" d="M438.38 323.41c36.84,0 54.9,-18.42 54.9,-39.96 0,-45.69 -70.31,-31.49 -70.31,-50.5 0,-6.23 5.31,-11.19 20.01,-11.19 10.8,0 22.49,3.19 34.36,9.59l10.8 -26.06c-12.22,-7.08 -28.87,-10.8 -44.98,-10.8 -36.84,0 -54.9,18.06 -54.9,40.23 0,46.07 70.48,31.76 70.48,51.35 0,6.02 -5.67,10.07 -20.19,10.07 -14.34,0 -29.93,-4.93 -40.91,-12.16l-11.51 25.8c11.69,8.15 31.88,13.64 52.24,13.64z"/>
  <path id="_8" class="fil0" d="M543.49 322.52c31.7,0 54.19,-20.72 54.19,-49.76 0,-28.87 -22.49,-49.41 -54.19,-49.41 -31.34,0 -54.19,20.54 -54.19,49.41 0,29.04 22.84,49.76 54.19,49.76zm0 -26.74c-11.33,0 -20.19,-8.32 -20.19,-23.02 0,-14.52 8.85,-22.67 20.19,-22.67 11.51,0 20.19,8.15 20.19,22.67 0,14.7 -8.68,23.02 -20.19,23.02z"/>
  <polygon id="_9" class="fil0" points="600.78,320.93 634.43,320.93 634.43,189.53 600.78,189.53 "/>
  <path id="_10" class="fil0" d="M684.64 223.36c-15.05,0 -31.34,3.9 -42.32,11.16l11.33 22.84c6.55,-5.14 16.82,-8.32 26.03,-8.32 13.28,0 19.83,5.49 20.37,15.23l-19.13 0c-29.75,0 -42.68,10.98 -42.68,28.69 0,16.65 12.75,29.57 35.77,29.57 13.99,0 23.55,-4.78 28.33,-13.99l0 12.4 31.34 0 0 -53.3c0,-30.46 -17.89,-44.27 -49.05,-44.27zm-1.24 77.92c-7.97,0 -12.57,-4.07 -12.57,-9.74 0,-5.84 3.9,-9.74 14.7,-9.74l14.52 0 0 8.32c-2.66,7.61 -9.21,11.16 -16.65,11.16z"/>
  <path id="_11" class="fil0" d="M774.51 236.46l0 -11.51 -32.05 0 0 95.98 33.65 0 0 -44.1c0,-16.82 9.39,-23.73 23.02,-23.73 2.48,0 4.61,0.18 7.62,0.53l0 -30.28c-14.17,0 -25.32,4.43 -32.23,13.1z"/>
  <polygon id="_12" class="fil0" points="958.78,224.06 958.78,196.97 861.56,196.97 861.56,320.93 896.62,320.93 896.62,278.43 951.34,278.43 951.34,251.34 896.62,251.34 896.62,224.06 "/>
  <path id="_13" class="fil0" d="M1007.22 322.52c31.7,0 54.19,-20.72 54.19,-49.76 0,-28.87 -22.49,-49.41 -54.19,-49.41 -31.34,0 -54.19,20.54 -54.19,49.41 0,29.04 22.84,49.76 54.19,49.76zm0 -26.74c-11.33,0 -20.19,-8.32 -20.19,-23.02 0,-14.52 8.85,-22.67 20.19,-22.67 11.51,0 20.19,8.15 20.19,22.67 0,14.7 -8.68,23.02 -20.19,23.02z"/>
  <path id="_14" class="fil0" d="M1096.56 236.46l0 -11.51 -32.05 0 0 95.98 33.65 0 0 -44.1c0,-16.82 9.39,-23.73 23.02,-23.73 2.48,0 4.61,0.18 7.62,0.53l0 -30.28c-14.17,0 -25.32,4.43 -32.23,13.1z"/>
  <path id="_15" class="fil0" d="M1197.77 224.95l0 46.22c0,16.11 -8.15,22.67 -18.06,22.67 -10.09,0 -15.94,-5.84 -15.94,-20.72l0 -48.17 -33.65 0 0 53.66c0,30.46 17.18,43.92 40.73,43.92 10.98,0 21.25,-3.9 28.51,-11.86l0 10.27 32.05 0 0 -95.98 -33.65 0z"/>
  <path id="_16" class="fil0" d="M1365.57 223.36c-13.81,0 -25.68,5.49 -33.29,15.05 -6.73,-10.27 -17.89,-15.05 -30.99,-15.05 -11.33,0 -21.43,3.9 -28.69,11.69l0 -10.09 -32.05 0 0 95.98 33.65 0 0 -47.64c0,-14.88 7.08,-21.43 17,-21.43 9.03,0 14.52,5.85 14.52,19.66l0 49.41 33.65 0 0 -47.64c0,-14.88 7.08,-21.43 16.82,-21.43 8.85,0 14.52,5.85 14.52,19.66l0 49.41 33.65 0 0 -54.9c0,-29.75 -16.47,-42.68 -38.78,-42.68z"/>
  <g id="_2327600172544">
   <path class="fil1" d="M244.53 69.26c4.58,2.52 25.26,31.06 30.08,37.58 24.13,32.67 10.88,20.27 -68.44,80.43 -25.17,19.09 -21.47,21.34 -53.72,-21.72 -17.5,-23.36 -7.33,-24.87 11.39,-42.39 10.52,-9.85 25.7,-21.36 37.89,-31.03 7.03,-5.57 32.47,-28.56 42.81,-22.87z"/>
   <path class="fil1" d="M298.3 142.15c6.6,3.96 21.67,29.74 26.71,37.59 3.54,5.51 11.73,13.43 6.17,21.74l-81 49.74c-7.2,4.73 -11.21,10.68 -21.73,7.1 -8.25,-2.8 -23.71,-25.87 -30,-33.73 -5.18,-6.47 -7.29,-15.74 0.99,-22.29 5.98,-4.73 12.72,-9.62 18.66,-13.99l57.84 -40.06c5.57,-3.6 14.27,-10.95 22.35,-6.1z"/>
   <path class="fil1" d="M86.29 282.26c-15.28,-32.57 -46.33,-31.94 -12.96,-68.31l53.04 -57.25c14.99,0.67 18.5,11.9 33.36,30.57 25.68,32.26 12.25,20.92 -50.64,84.21 -8.42,8.47 -6.23,11.21 -22.8,10.78z"/>
   <path class="fil1" d="M344.03 213.41c17.92,104.06 -64.09,111.96 -76.06,99.48 -3,-3.13 -8.97,-11.81 -11.86,-15.36 -27.44,-33.69 -28.81,-24.18 67.55,-81.68 9.58,-5.71 8.55,-4.84 20.37,-2.45z"/>
   <path class="fil1" d="M344.83 99.45c-13.99,4.98 -42.06,30.57 -54.83,15.57l-25.64 -34.21c-2.54,-3.24 -7.33,-8.6 -9.72,-12.14 -9.82,-14.56 18.77,-27.55 37.19,-38.7 12.74,-7.71 39.55,-25.35 52.92,-29.97l0.07 99.45z"/>
   <path class="fil1" d="M188.1 223.86c2.03,1.52 19.31,24.31 22.59,28.45 13.77,17.4 6.7,21.5 -7.39,31.8 -11.3,8.26 -18.92,14.72 -29.65,22.91 -18.12,13.83 -11.12,9.48 -43.31,9.81 -11.26,0.12 -13.68,1.72 -19.93,-5.92 -18.11,-22.16 -1.29,-25.73 17.47,-46.06 14.71,-15.94 26.08,-23.84 40.62,-37.29 3.32,-3.07 11.93,-9.43 19.6,-3.7z"/>
   <path class="fil1" d="M52.42 249.92c7.21,8.2 12.97,16.61 19.46,25.21 6.56,8.69 14.94,16.48 5.41,29.76 -10.16,14.14 -12.18,11.94 -33.93,11.9 -14.02,-0.02 -29.53,0.65 -43.35,-0.37 6.47,-13.81 25.43,-41.27 35.66,-54.93 4.77,-6.37 5.9,-11.63 16.76,-11.57z"/>
   <path class="fil1" d="M344.83 190.46c-9.51,-2.64 -6.86,-6.07 -17.69,-21.97 -16.62,-24.38 -29.13,-34.59 -8.39,-46.32 6.85,-3.87 17.83,-10.95 26,-13.52l0.08 81.81z"/>
   <path class="fil1" d="M220.56 281.38c11.97,-4.72 18.7,6.92 23.75,13.44 5.04,6.5 12.97,15.08 16.39,21.93l-84.82 -0.44 44.68 -34.93z"/>
   <path class="fil1" d="M86.9 305.79c13.61,-0.07 12.63,2.33 17.84,10.84l-26.39 -0.13 8.55 -10.7z"/>
  </g>
 </g>
</svg>
