<?xml version="1.0" encoding="UTF-8"?>
<!DOCTYPE svg PUBLIC "-//W3C//DTD SVG 1.1//EN" "http://www.w3.org/Graphics/SVG/1.1/DTD/svg11.dtd">
<!-- Creator: CorelDRAW 2021 (64-Bit) -->
<svg xmlns="http://www.w3.org/2000/svg" xml:space="preserve" width="1.76039in" height="0.596528in" version="1.1" style="shape-rendering:geometricPrecision; text-rendering:geometricPrecision; image-rendering:optimizeQuality; fill-rule:evenodd; clip-rule:evenodd"
viewBox="0 0 117.06 39.67"
 xmlns:xlink="http://www.w3.org/1999/xlink"
 xmlns:xodm="http://www.corel.com/coreldraw/odm/2003">
 <defs>
  <style type="text/css">
   <![CDATA[
    .fil1 {fill:#00CCFF}
    .fil3 {fill:red}
    .fil2 {fill:#FFCC00}
    .fil0 {fill:#000A70;fill-rule:nonzero}
   ]]>
  </style>
 </defs>
 <g id="Layer_x0020_1">
  <metadata id="CorelCorpID_0Corel-Layer"/>
  <polygon class="fil0" points="53.29,3.01 53.29,7.98 49.17,3.01 47,3.01 47,12.34 49.59,12.34 49.59,7.37 53.7,12.34 55.88,12.34 55.88,3.01 "/>
  <polygon id="_1" class="fil0" points="56.96,12.34 59.6,12.34 59.6,3.01 56.96,3.01 "/>
  <path id="_2" class="fil0" d="M66.95 10.03c-0.47,0.21 -0.93,0.31 -1.43,0.31 -1.57,0 -2.64,-1.09 -2.64,-2.67 0,-1.61 1.07,-2.67 2.67,-2.67 0.89,0 1.63,0.33 2.27,1.04l1.68 -1.52c-0.92,-1.11 -2.33,-1.71 -4.08,-1.71 -3.02,0 -5.2,2.01 -5.2,4.85 0,2.84 2.17,4.85 5.14,4.85 1.36,0 2.84,-0.41 3.92,-1.19l0 -3.86 -2.33 0 0 2.56z"/>
  <polygon id="_3" class="fil0" points="72.79,10.3 72.79,8.59 76.94,8.59 76.94,6.62 72.79,6.62 72.79,5.05 77.5,5.05 77.5,3.01 70.18,3.01 70.18,12.34 77.67,12.34 77.67,10.3 "/>
  <path id="_4" class="fil0" d="M84.13 12.34l2.83 0 -2.01 -2.93c1.16,-0.56 1.83,-1.57 1.83,-2.95 0,-2.13 -1.6,-3.45 -4.14,-3.45l-4.26 0 0 9.33 2.64 0 0 -2.48 1.44 0 1.69 2.48zm-0.03 -5.88c0,0.85 -0.55,1.36 -1.64,1.36l-1.47 0 0 -2.73 1.47 0c1.09,0 1.64,0.51 1.64,1.37z"/>
  <polygon id="_5" class="fil0" points="87.44,12.34 90.08,12.34 90.08,3.01 87.44,3.01 "/>
  <path id="_6" class="fil0" d="M98.16 12.34l2.75 0 -4.13 -9.33 -2.6 0 -4.12 9.33 2.69 0 0.73 -1.81 3.94 0 0.73 1.81zm-3.9 -3.76l1.2 -2.99 1.2 2.99 -2.4 0z"/>
  <polygon id="_7" class="fil0" points="48.99,24.41 51.63,24.41 51.63,17.17 54.48,17.17 54.48,15.08 46.12,15.08 46.12,17.17 48.99,17.17 "/>
  <polygon id="_8" class="fil0" points="57.3,22.37 57.3,20.66 61.44,20.66 61.44,18.69 57.3,18.69 57.3,17.12 62,17.12 62,15.08 54.68,15.08 54.68,24.41 62.17,24.41 62.17,22.37 "/>
  <polygon id="_9" class="fil0" points="62.86,24.41 69.95,24.41 69.95,22.31 65.5,22.31 65.5,15.08 62.86,15.08 "/>
  <polygon id="_10" class="fil0" points="72.82,22.37 72.82,20.66 76.96,20.66 76.96,18.69 72.82,18.69 72.82,17.12 77.52,17.12 77.52,15.08 70.21,15.08 70.21,24.41 77.7,24.41 77.7,22.37 "/>
  <path id="_11" class="fil0" d="M83.02 24.59c1.72,0 3.1,-0.63 4.01,-1.76l-1.68 -1.52c-0.59,0.71 -1.31,1.09 -2.2,1.09 -1.53,0 -2.6,-1.07 -2.6,-2.67 0,-1.6 1.07,-2.67 2.6,-2.67 0.89,0 1.61,0.39 2.2,1.09l1.68 -1.52c-0.91,-1.13 -2.29,-1.76 -4.01,-1.76 -2.96,0 -5.13,2.01 -5.13,4.85 0,2.84 2.17,4.85 5.13,4.85z"/>
  <path id="_12" class="fil0" d="M91.93 24.59c2.99,0 5.18,-2.05 5.18,-4.85 0,-2.8 -2.2,-4.85 -5.18,-4.85 -2.99,0 -5.18,2.05 -5.18,4.85 0,2.8 2.2,4.85 5.18,4.85zm0 -2.19c-1.41,0 -2.52,-1.05 -2.52,-2.67 0,-1.61 1.11,-2.67 2.52,-2.67 1.41,0 2.52,1.05 2.52,2.67 0,1.61 -1.11,2.67 -2.52,2.67z"/>
  <polygon id="_13" class="fil0" points="108.57,24.41 108.54,15.08 106.37,15.08 103.17,20.46 99.89,15.08 97.72,15.08 97.72,24.41 100.16,24.41 100.16,19.6 102.54,23.49 103.72,23.49 106.11,19.46 106.14,24.41 "/>
  <path id="_14" class="fil0" d="M112.93 24.59c2.77,0 4.13,-1.39 4.13,-3.01 0,-3.44 -5.29,-2.37 -5.29,-3.8 0,-0.47 0.4,-0.84 1.51,-0.84 0.81,0 1.69,0.24 2.59,0.72l0.81 -1.96c-0.92,-0.53 -2.17,-0.81 -3.38,-0.81 -2.77,0 -4.13,1.36 -4.13,3.03 0,3.47 5.3,2.39 5.3,3.86 0,0.45 -0.43,0.76 -1.52,0.76 -1.08,0 -2.25,-0.37 -3.08,-0.92l-0.87 1.94c0.88,0.61 2.4,1.03 3.93,1.03z"/>
  <polygon id="_15" class="fil0" points="54.32,29.19 54.32,27.15 47,27.15 47,36.47 49.64,36.47 49.64,33.28 53.76,33.28 53.76,31.24 49.64,31.24 49.64,29.19 "/>
  <path id="_16" class="fil0" d="M59.4 36.66c2.99,0 5.18,-2.05 5.18,-4.85 0,-2.8 -2.2,-4.85 -5.18,-4.85 -2.99,0 -5.18,2.05 -5.18,4.85 0,2.8 2.2,4.85 5.18,4.85zm0 -2.19c-1.41,0 -2.52,-1.05 -2.52,-2.67 0,-1.61 1.11,-2.67 2.52,-2.67 1.41,0 2.52,1.05 2.52,2.67 0,1.61 -1.11,2.67 -2.52,2.67z"/>
  <path id="_17" class="fil0" d="M70.96 36.47l2.83 0 -2.01 -2.93c1.16,-0.56 1.83,-1.57 1.83,-2.95 0,-2.13 -1.6,-3.45 -4.14,-3.45l-4.26 0 0 9.33 2.64 0 0 -2.48 1.44 0 1.69 2.48zm-0.03 -5.88c0,0.85 -0.55,1.36 -1.64,1.36l-1.47 0 0 -2.73 1.47 0c1.09,0 1.64,0.51 1.64,1.37z"/>
  <path id="_18" class="fil0" d="M78.58 36.66c2.76,0 4.38,-1.56 4.38,-4.34l0 -5.17 -2.6 0 0 5.09c0,1.6 -0.67,2.24 -1.76,2.24 -1.11,0 -1.77,-0.64 -1.77,-2.24l0 -5.09 -2.64 0 0 5.17c0,2.79 1.63,4.34 4.38,4.34z"/>
  <polygon id="_19" class="fil0" points="94.81,36.47 94.79,27.15 92.62,27.15 89.42,32.53 86.14,27.15 83.97,27.15 83.97,36.47 86.41,36.47 86.41,31.66 88.79,35.56 89.96,35.56 92.36,31.53 92.39,36.47 "/>
  <g id="_2686015292560">
   <path class="fil1" d="M5.92 14.43c0.94,-0.89 3.98,-11.65 16,-12.38 19.05,-1.16 24.95,22.66 12.42,31.77 -4.79,3.48 -10.53,5.09 -16.73,2.99 -3.08,-1.04 -2.29,-1.52 -6.23,-1.2 1.84,2.24 7.9,4.09 11.84,4.06 14.28,-0.11 23.43,-14.32 18.46,-26.93 -4.95,-12.57 -19.83,-16.88 -31.16,-8.17 -1.54,1.18 -7.17,6.84 -4.6,9.86z"/>
   <path class="fil1" d="M3.96 27.15l1.33 -0.06 0.05 0.74c0.78,-0.59 -0.41,-0.19 1.25,-0.48l3.39 -0.05c7.06,-0.41 20.65,-4.73 23.7,-8.67 -0.92,-0.97 -2.08,-1.55 -3.32,-2.06 -6.3,3.5 -14.11,7.32 -22.41,7.22 -6.31,-0.08 -5.16,-2.61 -6.2,-3.9 -2.91,5.28 -2.19,4.86 2.21,7.27z"/>
   <path class="fil2" d="M5.34 27.83l-0.05 -0.74 -1.33 0.06c-4.11,10.81 22.72,5.83 29.47,-1.13l-2.4 -2.21c-1.69,0.79 -3.31,2.03 -5.41,3 -3.93,1.82 -9.56,3.28 -13.95,3.13 -3.72,-0.12 -3.77,-0.51 -6.34,-2.12z"/>
   <path class="fil3" d="M2.86 13.94c-5.19,5.71 4.04,8.76 15.86,4.61 1.5,-0.53 4.95,-1.71 5.96,-2.97 -2.14,-2.82 -3.24,-1.74 -4.85,-1.03 -1.95,0.86 -3.68,1.33 -5.96,1.9 -1.65,0.41 -4.94,0.97 -6.89,0.76 -4.14,-0.45 -3.52,-2.35 -4.13,-3.27z"/>
  </g>
 </g>
</svg>
