<?xml version="1.0" encoding="UTF-8"?>
<!DOCTYPE svg PUBLIC "-//W3C//DTD SVG 1.1//EN" "http://www.w3.org/Graphics/SVG/1.1/DTD/svg11.dtd">
<!-- Creator: CorelDRAW 2021 (64-Bit) -->
<svg xmlns="http://www.w3.org/2000/svg" xml:space="preserve" width="1.76039in" height="0.596528in" version="1.1" style="shape-rendering:geometricPrecision; text-rendering:geometricPrecision; image-rendering:optimizeQuality; fill-rule:evenodd; clip-rule:evenodd"
viewBox="0 0 161.73 54.8"
 xmlns:xlink="http://www.w3.org/1999/xlink"
 xmlns:xodm="http://www.corel.com/coreldraw/odm/2003">
 <defs>
  <style type="text/css">
   <![CDATA[
    .fil1 {fill:#00CCFF}
    .fil3 {fill:red}
    .fil2 {fill:#FFCC00}
    .fil0 {fill:white;fill-rule:nonzero}
   ]]>
  </style>
 </defs>
 <g id="Layer_x0020_1">
  <metadata id="CorelCorpID_0Corel-Layer"/>
  <g id="_2685944409184">
   <polygon class="fil0" points="73.62,4.16 73.62,11.03 67.94,4.16 64.93,4.16 64.93,17.05 68.51,17.05 68.51,10.18 74.2,17.05 77.2,17.05 77.2,4.16 "/>
   <polygon id="_1" class="fil0" points="78.7,17.05 82.34,17.05 82.34,4.16 78.7,4.16 "/>
   <path id="_2" class="fil0" d="M92.5 13.86c-0.64,0.29 -1.29,0.42 -1.97,0.42 -2.17,0 -3.65,-1.51 -3.65,-3.68 0,-2.23 1.47,-3.68 3.68,-3.68 1.23,0 2.25,0.46 3.13,1.44l2.32 -2.1c-1.27,-1.53 -3.22,-2.36 -5.63,-2.36 -4.18,0 -7.18,2.78 -7.18,6.7 0,3.92 3,6.7 7.11,6.7 1.88,0 3.92,-0.57 5.41,-1.64l0 -5.34 -3.22 0 0 3.53z"/>
   <polygon id="_3" class="fil0" points="100.57,14.23 100.57,11.87 106.29,11.87 106.29,9.15 100.57,9.15 100.57,6.98 107.07,6.98 107.07,4.16 96.96,4.16 96.96,17.05 107.31,17.05 107.31,14.23 "/>
   <path id="_4" class="fil0" d="M116.23 17.05l3.9 0 -2.78 -4.05c1.6,-0.77 2.52,-2.17 2.52,-4.07 0,-2.95 -2.21,-4.77 -5.73,-4.77l-5.89 0 0 12.89 3.65 0 0 -3.42 1.99 0 2.34 3.42zm-0.04 -8.12c0,1.18 -0.75,1.88 -2.26,1.88l-2.03 0 0 -3.77 2.03 0c1.51,0 2.26,0.7 2.26,1.9z"/>
   <polygon id="_5" class="fil0" points="120.8,17.05 124.45,17.05 124.45,4.16 120.8,4.16 "/>
   <path id="_6" class="fil0" d="M135.61 17.05l3.79 0 -5.71 -12.89 -3.59 0 -5.69 12.89 3.72 0 1.01 -2.5 5.45 0 1.01 2.5zm-5.39 -5.19l1.66 -4.12 1.66 4.12 -3.31 0z"/>
   <polygon id="_7" class="fil0" points="67.68,33.72 71.32,33.72 71.32,23.72 75.26,23.72 75.26,20.83 63.72,20.83 63.72,23.72 67.68,23.72 "/>
   <polygon id="_8" class="fil0" points="79.16,30.9 79.16,28.55 84.88,28.55 84.88,25.82 79.16,25.82 79.16,23.65 85.66,23.65 85.66,20.83 75.55,20.83 75.55,33.72 85.9,33.72 85.9,30.9 "/>
   <polygon id="_9" class="fil0" points="86.84,33.72 96.64,33.72 96.64,30.83 90.49,30.83 90.49,20.83 86.84,20.83 "/>
   <polygon id="_10" class="fil0" points="100.6,30.9 100.6,28.55 106.33,28.55 106.33,25.82 100.6,25.82 100.6,23.65 107.1,23.65 107.1,20.83 97,20.83 97,33.72 107.34,33.72 107.34,30.9 "/>
   <path id="_11" class="fil0" d="M114.7 33.98c2.37,0 4.29,-0.87 5.54,-2.43l-2.32 -2.1c-0.81,0.98 -1.8,1.51 -3.04,1.51 -2.12,0 -3.59,-1.47 -3.59,-3.68 0,-2.21 1.47,-3.68 3.59,-3.68 1.23,0 2.23,0.53 3.04,1.51l2.32 -2.1c-1.25,-1.57 -3.17,-2.43 -5.54,-2.43 -4.09,0 -7.09,2.78 -7.09,6.7 0,3.92 3,6.7 7.09,6.7z"/>
   <path id="_12" class="fil0" d="M127.01 33.98c4.12,0 7.16,-2.84 7.16,-6.7 0,-3.87 -3.04,-6.7 -7.16,-6.7 -4.12,0 -7.16,2.84 -7.16,6.7 0,3.87 3.04,6.7 7.16,6.7zm0 -3.02c-1.95,0 -3.48,-1.45 -3.48,-3.68 0,-2.23 1.53,-3.68 3.48,-3.68 1.95,0 3.48,1.45 3.48,3.68 0,2.23 -1.53,3.68 -3.48,3.68z"/>
   <polygon id="_13" class="fil0" points="149.99,33.72 149.95,20.83 146.95,20.83 142.53,28.27 138.01,20.83 135,20.83 135,33.72 138.37,33.72 138.37,27.07 141.67,32.45 143.29,32.45 146.6,26.89 146.64,33.72 "/>
   <path id="_14" class="fil0" d="M156.02 33.98c3.83,0 5.71,-1.91 5.71,-4.15 0,-4.75 -7.31,-3.27 -7.31,-5.25 0,-0.65 0.55,-1.16 2.08,-1.16 1.12,0 2.34,0.33 3.57,1l1.12 -2.71c-1.27,-0.74 -3,-1.12 -4.68,-1.12 -3.83,0 -5.71,1.88 -5.71,4.18 0,4.79 7.33,3.3 7.33,5.34 0,0.63 -0.59,1.05 -2.1,1.05 -1.49,0 -3.11,-0.51 -4.25,-1.26l-1.2 2.68c1.21,0.85 3.31,1.42 5.43,1.42z"/>
   <polygon id="_15" class="fil0" points="75.04,40.32 75.04,37.5 64.93,37.5 64.93,50.39 68.58,50.39 68.58,45.97 74.27,45.97 74.27,43.16 68.58,43.16 68.58,40.32 "/>
   <path id="_16" class="fil0" d="M82.07 50.65c4.12,0 7.16,-2.84 7.16,-6.7 0,-3.87 -3.04,-6.7 -7.16,-6.7 -4.12,0 -7.16,2.84 -7.16,6.7 0,3.87 3.04,6.7 7.16,6.7zm0 -3.02c-1.95,0 -3.48,-1.45 -3.48,-3.68 0,-2.23 1.53,-3.68 3.48,-3.68 1.95,0 3.48,1.45 3.48,3.68 0,2.23 -1.53,3.68 -3.48,3.68z"/>
   <path id="_17" class="fil0" d="M98.04 50.39l3.9 0 -2.78 -4.05c1.6,-0.77 2.52,-2.17 2.52,-4.07 0,-2.95 -2.21,-4.77 -5.73,-4.77l-5.89 0 0 12.89 3.65 0 0 -3.42 1.99 0 2.34 3.42zm-0.04 -8.12c0,1.18 -0.75,1.88 -2.26,1.88l-2.03 0 0 -3.77 2.03 0c1.51,0 2.26,0.7 2.26,1.9z"/>
   <path id="_18" class="fil0" d="M108.56 50.65c3.81,0 6.06,-2.15 6.06,-6l0 -7.14 -3.59 0 0 7.03c0,2.21 -0.92,3.09 -2.43,3.09 -1.53,0 -2.45,-0.88 -2.45,-3.09l0 -7.03 -3.65 0 0 7.14c0,3.85 2.25,6 6.06,6z"/>
   <polygon id="_19" class="fil0" points="130.99,50.39 130.96,37.5 127.95,37.5 123.54,44.94 119.01,37.5 116.01,37.5 116.01,50.39 119.37,50.39 119.37,43.75 122.67,49.12 124.29,49.12 127.6,43.56 127.64,50.39 "/>
   <path class="fil1" d="M8.18 19.93c1.3,-1.24 5.5,-16.09 22.1,-17.1 26.31,-1.6 34.47,31.31 17.16,43.89 -6.62,4.81 -14.55,7.03 -23.11,4.13 -4.26,-1.44 -3.16,-2.11 -8.6,-1.66 2.54,3.1 10.92,5.65 16.35,5.6 19.72,-0.15 32.36,-19.78 25.5,-37.2 -6.84,-17.37 -27.4,-23.32 -43.05,-11.28 -2.13,1.64 -9.91,9.45 -6.36,13.62z"/>
   <path class="fil1" d="M5.47 37.51l1.84 -0.08 0.07 1.02c1.07,-0.82 -0.57,-0.26 1.72,-0.66l4.69 -0.07c9.76,-0.57 28.53,-6.54 32.74,-11.97 -1.27,-1.34 -2.88,-2.15 -4.59,-2.85 -8.7,4.83 -19.49,10.12 -30.96,9.97 -8.72,-0.11 -7.13,-3.61 -8.57,-5.39 -4.03,7.29 -3.03,6.71 3.06,10.04z"/>
   <path class="fil2" d="M7.38 38.45l-0.07 -1.02 -1.84 0.08c-5.67,14.93 31.38,8.05 40.72,-1.56l-3.31 -3.05c-2.33,1.09 -4.58,2.81 -7.47,4.15 -5.43,2.51 -13.21,4.53 -19.27,4.33 -5.14,-0.17 -5.21,-0.71 -8.76,-2.93z"/>
   <path class="fil3" d="M3.95 19.26c-7.18,7.88 5.58,12.11 21.91,6.37 2.07,-0.73 6.84,-2.36 8.24,-4.11 -2.96,-3.9 -4.47,-2.4 -6.7,-1.42 -2.7,1.19 -5.08,1.83 -8.23,2.62 -2.29,0.57 -6.82,1.35 -9.51,1.05 -5.72,-0.62 -4.87,-3.25 -5.7,-4.52z"/>
  </g>
 </g>
</svg>
