<?xml version="1.0" encoding="UTF-8"?>
<!DOCTYPE svg PUBLIC "-//W3C//DTD SVG 1.1//EN" "http://www.w3.org/Graphics/SVG/1.1/DTD/svg11.dtd">
<!-- Creator: CorelDRAW 2021 (64-Bit) -->
<svg xmlns="http://www.w3.org/2000/svg" xml:space="preserve" width="0.647323in" height="0.596528in" version="1.1" style="shape-rendering:geometricPrecision; text-rendering:geometricPrecision; image-rendering:optimizeQuality; fill-rule:evenodd; clip-rule:evenodd"
viewBox="0 0 15.83 14.59"
 xmlns:xlink="http://www.w3.org/1999/xlink"
 xmlns:xodm="http://www.corel.com/coreldraw/odm/2003">
 <defs>
  <style type="text/css">
   <![CDATA[
    .fil0 {fill:#00CCFF}
    .fil2 {fill:red}
    .fil1 {fill:#FFCC00}
   ]]>
  </style>
 </defs>
 <g id="Layer_x0020_1">
  <metadata id="CorelCorpID_0Corel-Layer"/>
  <g id="_2685989352752">
   <path class="fil0" d="M2.18 5.31c0.35,-0.33 1.46,-4.28 5.88,-4.55 7,-0.43 9.18,8.33 4.57,11.68 -1.76,1.28 -3.87,1.87 -6.15,1.1 -1.13,-0.38 -0.84,-0.56 -2.29,-0.44 0.68,0.83 2.91,1.5 4.35,1.49 5.25,-0.04 8.61,-5.26 6.79,-9.9 -1.82,-4.62 -7.29,-6.21 -11.46,-3 -0.57,0.44 -2.64,2.51 -1.69,3.63z"/>
   <path class="fil0" d="M1.46 9.98l0.49 -0.02 0.02 0.27c0.29,-0.22 -0.15,-0.07 0.46,-0.18l1.25 -0.02c2.6,-0.15 7.59,-1.74 8.72,-3.19 -0.34,-0.36 -0.77,-0.57 -1.22,-0.76 -2.32,1.29 -5.19,2.69 -8.24,2.65 -2.32,-0.03 -1.9,-0.96 -2.28,-1.44 -1.07,1.94 -0.81,1.79 0.81,2.67z"/>
   <path class="fil1" d="M1.96 10.23l-0.02 -0.27 -0.49 0.02c-1.51,3.97 8.35,2.14 10.84,-0.41l-0.88 -0.81c-0.62,0.29 -1.22,0.75 -1.99,1.1 -1.45,0.67 -3.52,1.21 -5.13,1.15 -1.37,-0.05 -1.39,-0.19 -2.33,-0.78z"/>
   <path class="fil2" d="M1.05 5.13c-1.91,2.1 1.48,3.22 5.83,1.7 0.55,-0.19 1.82,-0.63 2.19,-1.09 -0.79,-1.04 -1.19,-0.64 -1.78,-0.38 -0.72,0.32 -1.35,0.49 -2.19,0.7 -0.61,0.15 -1.82,0.36 -2.53,0.28 -1.52,-0.17 -1.3,-0.87 -1.52,-1.2z"/>
  </g>
 </g>
</svg>
