<?xml version="1.0" encoding="UTF-8"?>
<!DOCTYPE svg PUBLIC "-//W3C//DTD SVG 1.1//EN" "http://www.w3.org/Graphics/SVG/1.1/DTD/svg11.dtd">
<!-- Creator: CorelDRAW 2021 (64-Bit) -->
<svg xmlns="http://www.w3.org/2000/svg" xml:space="preserve" width="3.06618in" height="0.670713in" version="1.1" style="shape-rendering:geometricPrecision; text-rendering:geometricPrecision; image-rendering:optimizeQuality; fill-rule:evenodd; clip-rule:evenodd"
viewBox="0 0 87.64 19.17"
 xmlns:xlink="http://www.w3.org/1999/xlink"
 xmlns:xodm="http://www.corel.com/coreldraw/odm/2003">
 <defs>
  <style type="text/css">
   <![CDATA[
    .fil1 {fill:#0060FF}
    .fil2 {fill:#FEFEFE}
    .fil0 {fill:black;fill-rule:nonzero}
   ]]>
  </style>
 </defs>
 <g id="Layer_x0020_1">
  <metadata id="CorelCorpID_0Corel-Layer"/>
  <path class="fil0" d="M35.9 0l-3.8 0 0 7.89 2.66 0 0 -1.94 1.14 0c2.2,0 3.6,-1.15 3.6,-2.98 0,-1.83 -1.4,-2.98 -3.6,-2.98zm-0.17 3.9l-0.97 0 0 -1.85 0.97 0c0.73,0 1.08,0.35 1.08,0.92 0,0.57 -0.35,0.92 -1.08,0.92z"/>
  <path id="_1" class="fil0" d="M42.3 1.61c-0.96,0 -2.05,0.25 -2.77,0.7l0.81 1.68c0.41,-0.3 1.03,-0.48 1.58,-0.48 0.72,0 1.08,0.25 1.16,0.72l-1.03 0c-1.92,0 -2.82,0.66 -2.82,1.86 0,1.06 0.78,1.92 2.29,1.92 0.87,0 1.45,-0.3 1.75,-0.92l0 0.81 2.37 0 0 -3.31c0,-2.05 -1.22,-2.96 -3.34,-2.96zm-0.01 4.86c-0.38,0 -0.61,-0.21 -0.61,-0.5 0,-0.34 0.24,-0.52 0.78,-0.52l0.63 0 0 0.43c-0.14,0.41 -0.45,0.59 -0.8,0.59z"/>
  <path id="_2" class="fil0" d="M50.39 1.72l-1.3 3.3 -1.27 -3.3 -2.61 0 2.59 6.24c-0.14,0.16 -0.33,0.25 -0.63,0.25 -0.3,0 -0.65,-0.14 -0.9,-0.33l-0.85 1.75c0.42,0.34 1.19,0.55 1.87,0.55 1.31,0 2.3,-0.48 2.98,-2.18l2.54 -6.29 -2.41 0z"/>
  <path id="_3" class="fil0" d="M60.67 1.61c-0.85,0 -1.57,0.34 -2.06,0.94 -0.43,-0.64 -1.13,-0.94 -1.93,-0.94 -0.68,0 -1.28,0.23 -1.75,0.69l0 -0.57 -2.42 0 0 6.17 2.55 0 0 -3.01c0,-0.82 0.35,-1.13 0.8,-1.13 0.43,0 0.69,0.29 0.69,1.06l0 3.08 2.55 0 0 -3.01c0,-0.82 0.35,-1.13 0.8,-1.13 0.41,0 0.69,0.29 0.69,1.06l0 3.08 2.55 0 0 -3.52c0,-1.94 -1.06,-2.76 -2.46,-2.76z"/>
  <path id="_4" class="fil0" d="M70.21 4.8c0,-2.09 -1.57,-3.19 -3.39,-3.19 -2,0 -3.49,1.32 -3.49,3.19 0,1.84 1.47,3.2 3.73,3.2 1.23,0 2.1,-0.34 2.69,-0.99l-1.33 -1.34c-0.41,0.3 -0.72,0.45 -1.28,0.45 -0.63,0 -1.06,-0.25 -1.24,-0.72l4.28 0c0.01,-0.18 0.03,-0.42 0.03,-0.6zm-3.37 -1.45c0.52,0 0.89,0.3 0.99,0.82l-1.98 0c0.1,-0.52 0.46,-0.82 0.99,-0.82z"/>
  <path id="_5" class="fil0" d="M74.6 1.61c-0.72,0 -1.38,0.24 -1.86,0.72l0 -0.61 -2.42 0 0 6.17 2.55 0 0 -2.9c0,-0.91 0.44,-1.24 0.96,-1.24 0.46,0 0.76,0.29 0.76,1.06l0 3.08 2.55 0 0 -3.52c0,-1.94 -1.1,-2.76 -2.52,-2.76z"/>
  <path id="_6" class="fil0" d="M81.48 5.91c-0.17,0.11 -0.37,0.17 -0.57,0.17 -0.3,0 -0.53,-0.21 -0.53,-0.6l0 -1.56 1.26 0 0 -1.86 -1.26 0 0 -1.72 -2.55 0 0 1.72 -0.85 0 0 1.86 0.85 0 0 1.58c0,1.7 0.99,2.5 2.69,2.5 0.6,0 1.17,-0.1 1.57,-0.33l-0.61 -1.77z"/>
  <path id="_7" class="fil0" d="M84.45 8c2.14,0 3.19,-0.97 3.19,-2.09 0,-2.47 -3.54,-1.63 -3.54,-2.28 0,-0.15 0.18,-0.29 0.83,-0.29 0.52,0 1.15,0.1 1.78,0.45l0.7 -1.68c-0.65,-0.34 -1.61,-0.51 -2.51,-0.51 -2.07,0 -3.16,0.95 -3.16,2.11 0,2.47 3.55,1.62 3.55,2.25 0,0.18 -0.17,0.29 -0.79,0.29 -0.73,0 -1.57,-0.2 -2.15,-0.55l-0.7 1.68c0.63,0.36 1.74,0.61 2.8,0.61z"/>
  <polygon id="_8" class="fil0" points="32.1,19.06 38.32,19.06 38.32,17 34.76,17 34.76,11.17 32.1,11.17 "/>
  <path id="_9" class="fil0" d="M39.56 12.4c0.94,0 1.53,-0.56 1.53,-1.34 0,-0.73 -0.6,-1.25 -1.53,-1.25 -0.94,0 -1.53,0.56 -1.53,1.3 0,0.73 0.6,1.3 1.53,1.3zm-1.27 6.66l2.55 0 0 -6.17 -2.55 0 0 6.17z"/>
  <polygon id="_10" class="fil0" points="45.72,12.89 44.39,16.19 43.15,12.89 40.54,12.89 43.02,19.06 45.65,19.06 48.13,12.89 "/>
  <path id="_11" class="fil0" d="M54.23 15.97c0,-2.09 -1.57,-3.19 -3.39,-3.19 -2,0 -3.49,1.32 -3.49,3.19 0,1.84 1.47,3.2 3.73,3.2 1.23,0 2.1,-0.34 2.69,-0.99l-1.33 -1.34c-0.41,0.3 -0.72,0.45 -1.28,0.45 -0.63,0 -1.06,-0.25 -1.24,-0.72l4.28 0c0.01,-0.18 0.03,-0.42 0.03,-0.6zm-3.37 -1.45c0.52,0 0.89,0.3 0.99,0.82l-1.98 0c0.1,-0.52 0.46,-0.82 0.99,-0.82z"/>
  <path class="fil1" d="M13.12 16.41c-0.31,-0.15 -6.74,-6.84 -7.29,-7.49 0.9,0.22 6.44,3 6.8,2.92l7.32 -6.67c0.43,-0.36 0.78,-0.74 1.2,-1.11 0.35,-0.3 0.85,-0.82 1.26,-1.09 -0.23,0.45 -0.82,1.23 -1.1,1.64 -0.47,0.67 -0.79,1.14 -1.18,1.7 -0.78,1.11 -1.55,2.21 -2.33,3.35 -1.42,2.07 -3.45,4.81 -4.68,6.75zm-10.18 -16.28c-1.56,0.24 -2.76,1.35 -2.88,3.02 -0.14,2.03 -0.01,9.13 -0.01,11.72 0,1.58 0.13,3.16 2,3.94 1.12,0.47 14.38,0.26 17.4,0.26 1.59,0 4.49,0.17 5.93,-0.03 1.51,-0.21 2.73,-1.43 2.83,-3.02 0.13,-1.98 0.01,-9.18 0.01,-11.73 -0,-1.6 -0.13,-3.17 -2.03,-3.95 -1.13,-0.47 -14.38,-0.25 -17.42,-0.25 -1.51,0 -4.53,-0.17 -5.84,0.04z"/>
  <path class="fil2" d="M13.12 16.3c1.23,-1.94 3.26,-4.68 4.68,-6.75 0.78,-1.13 1.54,-2.24 2.33,-3.35 0.39,-0.56 0.72,-1.03 1.18,-1.7 0.29,-0.41 0.87,-1.19 1.1,-1.64 -0.41,0.27 -0.91,0.79 -1.26,1.09 -0.43,0.37 -0.78,0.75 -1.2,1.11l-7.32 6.67c-0.37,0.08 -5.9,-2.7 -6.8,-2.92 0.55,0.65 6.98,7.35 7.29,7.49z"/>
 </g>
</svg>
