<?xml version="1.0" encoding="UTF-8"?>
<!DOCTYPE svg PUBLIC "-//W3C//DTD SVG 1.1//EN" "http://www.w3.org/Graphics/SVG/1.1/DTD/svg11.dtd">
<!-- Creator: CorelDRAW 2021 (64-Bit) -->
<svg xmlns="http://www.w3.org/2000/svg" xml:space="preserve" width="3.06618in" height="0.670713in" version="1.1" style="shape-rendering:geometricPrecision; text-rendering:geometricPrecision; image-rendering:optimizeQuality; fill-rule:evenodd; clip-rule:evenodd"
viewBox="0 0 98.21 21.48"
 xmlns:xlink="http://www.w3.org/1999/xlink"
 xmlns:xodm="http://www.corel.com/coreldraw/odm/2003">
 <defs>
  <style type="text/css">
   <![CDATA[
    .fil1 {fill:#0060FF}
    .fil2 {fill:#FEFEFE}
    .fil0 {fill:white;fill-rule:nonzero}
   ]]>
  </style>
 </defs>
 <g id="Layer_x0020_1">
  <metadata id="CorelCorpID_0Corel-Layer"/>
  <g id="_3170665448720">
   <path class="fil0" d="M40.23 0l-4.26 0 0 8.84 2.98 0 0 -2.17 1.28 0c2.46,0 4.03,-1.29 4.03,-3.33 0,-2.05 -1.57,-3.33 -4.03,-3.33zm-0.19 4.37l-1.09 0 0 -2.07 1.09 0c0.82,0 1.21,0.39 1.21,1.04 0,0.64 -0.39,1.04 -1.21,1.04z"/>
   <path id="_1" class="fil0" d="M47.4 1.81c-1.07,0 -2.3,0.28 -3.11,0.78l0.91 1.88c0.45,-0.34 1.15,-0.54 1.77,-0.54 0.81,0 1.21,0.28 1.3,0.81l-1.15 0c-2.15,0 -3.16,0.75 -3.16,2.08 0,1.19 0.87,2.15 2.56,2.15 0.97,0 1.63,-0.34 1.96,-1.04l0 0.91 2.65 0 0 -3.71c0,-2.3 -1.36,-3.32 -3.74,-3.32zm-0.01 5.44c-0.43,0 -0.68,-0.24 -0.68,-0.56 0,-0.38 0.27,-0.58 0.87,-0.58l0.71 0 0 0.48c-0.15,0.45 -0.51,0.66 -0.9,0.66z"/>
   <path id="_2" class="fil0" d="M56.47 1.93l-1.45 3.7 -1.43 -3.7 -2.93 0 2.91 7c-0.15,0.18 -0.37,0.28 -0.71,0.28 -0.34,0 -0.73,-0.15 -1.01,-0.37l-0.95 1.96c0.47,0.38 1.34,0.62 2.1,0.62 1.47,0 2.58,-0.54 3.33,-2.44l2.84 -7.05 -2.7 0z"/>
   <path id="_3" class="fil0" d="M67.99 1.81c-0.95,0 -1.76,0.38 -2.31,1.05 -0.48,-0.72 -1.26,-1.05 -2.16,-1.05 -0.76,0 -1.44,0.25 -1.96,0.77l0 -0.64 -2.72 0 0 6.91 2.85 0 0 -3.37c0,-0.92 0.39,-1.26 0.9,-1.26 0.48,0 0.77,0.33 0.77,1.19l0 3.45 2.85 0 0 -3.37c0,-0.92 0.39,-1.26 0.9,-1.26 0.45,0 0.77,0.33 0.77,1.19l0 3.45 2.85 0 0 -3.94c0,-2.17 -1.19,-3.09 -2.75,-3.09z"/>
   <path id="_4" class="fil0" d="M78.68 5.38c0,-2.34 -1.76,-3.57 -3.8,-3.57 -2.24,0 -3.92,1.48 -3.92,3.57 0,2.06 1.64,3.59 4.18,3.59 1.38,0 2.35,-0.38 3.02,-1.11l-1.49 -1.5c-0.45,0.34 -0.81,0.51 -1.44,0.51 -0.71,0 -1.19,-0.28 -1.39,-0.81l4.8 0c0.01,-0.2 0.04,-0.47 0.04,-0.67zm-3.78 -1.63c0.58,0 1,0.34 1.11,0.92l-2.22 0c0.11,-0.58 0.52,-0.92 1.11,-0.92z"/>
   <path id="_5" class="fil0" d="M83.6 1.81c-0.81,0 -1.54,0.27 -2.08,0.81l0 -0.68 -2.72 0 0 6.91 2.85 0 0 -3.25c0,-1.02 0.49,-1.39 1.07,-1.39 0.52,0 0.85,0.33 0.85,1.19l0 3.45 2.85 0 0 -3.94c0,-2.17 -1.24,-3.09 -2.83,-3.09z"/>
   <path id="_6" class="fil0" d="M91.31 6.62c-0.19,0.13 -0.42,0.19 -0.64,0.19 -0.34,0 -0.59,-0.24 -0.59,-0.67l0 -1.74 1.41 0 0 -2.08 -1.41 0 0 -1.93 -2.85 0 0 1.93 -0.95 0 0 2.08 0.95 0 0 1.77c0,1.91 1.11,2.8 3.02,2.8 0.67,0 1.31,-0.11 1.76,-0.37l-0.68 -1.98z"/>
   <path id="_7" class="fil0" d="M94.64 8.97c2.4,0 3.57,-1.09 3.57,-2.34 0,-2.77 -3.97,-1.83 -3.97,-2.55 0,-0.16 0.2,-0.33 0.93,-0.33 0.58,0 1.29,0.11 2,0.51l0.78 -1.88c-0.73,-0.38 -1.81,-0.57 -2.82,-0.57 -2.32,0 -3.54,1.06 -3.54,2.36 0,2.77 3.98,1.82 3.98,2.53 0,0.2 -0.19,0.33 -0.88,0.33 -0.82,0 -1.76,-0.23 -2.41,-0.62l-0.78 1.88c0.71,0.4 1.95,0.68 3.13,0.68z"/>
   <polygon id="_8" class="fil0" points="35.97,21.36 42.95,21.36 42.95,19.05 38.96,19.05 38.96,12.52 35.97,12.52 "/>
   <path id="_9" class="fil0" d="M44.33 13.89c1.05,0 1.72,-0.63 1.72,-1.5 0,-0.82 -0.67,-1.4 -1.72,-1.4 -1.05,0 -1.72,0.63 -1.72,1.45 0,0.82 0.67,1.45 1.72,1.45zm-1.43 7.47l2.85 0 0 -6.91 -2.85 0 0 6.91z"/>
   <polygon id="_10" class="fil0" points="51.24,14.45 49.75,18.15 48.36,14.45 45.43,14.45 48.21,21.36 51.16,21.36 53.94,14.45 "/>
   <path id="_11" class="fil0" d="M60.77 17.9c0,-2.34 -1.76,-3.57 -3.8,-3.57 -2.24,0 -3.92,1.48 -3.92,3.57 0,2.06 1.64,3.59 4.18,3.59 1.38,0 2.35,-0.38 3.02,-1.11l-1.49 -1.5c-0.45,0.34 -0.81,0.51 -1.44,0.51 -0.71,0 -1.19,-0.28 -1.39,-0.81l4.8 0c0.01,-0.2 0.04,-0.47 0.04,-0.67zm-3.78 -1.63c0.58,0 1,0.34 1.11,0.92l-2.22 0c0.11,-0.58 0.52,-0.92 1.11,-0.92z"/>
   <path class="fil1" d="M14.7 18.39c-0.35,-0.16 -7.55,-7.67 -8.17,-8.4 1.01,0.25 7.21,3.36 7.63,3.27l8.2 -7.47c0.48,-0.4 0.87,-0.83 1.35,-1.24 0.39,-0.34 0.95,-0.92 1.41,-1.22 -0.26,0.51 -0.91,1.37 -1.23,1.83 -0.52,0.75 -0.89,1.28 -1.33,1.9 -0.88,1.24 -1.73,2.48 -2.61,3.75 -1.6,2.32 -3.87,5.39 -5.25,7.57zm-11.4 -18.24c-1.75,0.27 -3.1,1.52 -3.22,3.39 -0.15,2.27 -0.01,10.23 -0.01,13.13 0,1.77 0.15,3.54 2.24,4.42 1.26,0.53 16.11,0.29 19.5,0.29 1.78,0 5.03,0.19 6.64,-0.03 1.69,-0.23 3.05,-1.6 3.17,-3.38 0.15,-2.22 0.01,-10.28 0.01,-13.15 -0,-1.79 -0.15,-3.55 -2.27,-4.43 -1.27,-0.52 -16.11,-0.28 -19.52,-0.28 -1.69,0 -5.07,-0.19 -6.54,0.04z"/>
   <path class="fil2" d="M14.7 18.27c1.38,-2.17 3.65,-5.25 5.25,-7.57 0.88,-1.27 1.73,-2.51 2.61,-3.75 0.44,-0.62 0.8,-1.15 1.33,-1.9 0.32,-0.46 0.97,-1.33 1.23,-1.83 -0.46,0.3 -1.02,0.88 -1.41,1.22 -0.48,0.41 -0.87,0.83 -1.35,1.24l-8.2 7.47c-0.41,0.09 -6.61,-3.02 -7.63,-3.27 0.62,0.73 7.82,8.23 8.17,8.4z"/>
  </g>
 </g>
</svg>
