<?xml version="1.0" encoding="utf-8"?>
<!-- Generator: Adobe Illustrator 24.0.0, SVG Export Plug-In . SVG Version: 6.00 Build 0)  -->
<svg version="1.0" xmlns="http://www.w3.org/2000/svg" xmlns:xlink="http://www.w3.org/1999/xlink" x="0px" y="0px"
	 viewBox="0 0 409.266 409.28" enable-background="new 0 0 409.266 409.28" xml:space="preserve">
<g id="Layer_1">
	<circle id="circle_1_" fill="#D6E03E" stroke="#FFFFFF" stroke-miterlimit="10" cx="206.989" cy="202.64" r="196.998"/>
	<g>
		<path fill="#FFFFFF" d="M212.965,190.534L212.965,190.534h0.183h0.183c29.531-0.327,25.25-40.218,25.25-40.218
			c-1.203-26.655-23.269-26.42-25.433-26.328c-2.164-0.091-24.184-0.327-25.426,26.328
			C187.722,150.369,183.434,190.253,212.965,190.534"/>
		<path fill="#FFFFFF" d="M282.066,204.141L282.066,204.141h0.137h0.137c23.727-0.235,20.315-32.342,20.315-32.342
			c-0.967-21.432-18.7-21.249-20.452-21.204c-1.752-0.092-19.485-0.229-20.452,21.204
			C261.751,171.845,258.294,203.906,282.066,204.141"/>
		<path fill="#FFFFFF" d="M325.6,236.667c-0.183-6.896-1.523-11.7-8.478-16.125c-9.255-5.87-19.622-10.948-19.622-10.948
			l-8.249,26.374l-4.791-13.837c8.432-11.929-0.595-12.537-2.209-12.537h-0.046h-0.046c-1.614,0-10.641,0.608-2.209,12.537
			l-4.798,13.792l-8.242-26.374c0,0-2.948,1.445-7.092,3.68c-0.967-0.791-2.033-1.582-3.229-2.333
			c-11.517-7.314-24.367-13.648-24.367-13.648L221.993,230l-5.987-17.19c10.504-14.818-0.739-15.563-2.765-15.615h-0.046h-0.046
			c-2.026,0-13.269,0.752-2.765,15.615L204.397,230l-10.229-32.753c0,0-12.85,6.334-24.367,13.648
			c-1.242,0.798-2.307,1.588-3.275,2.379c-4.19-2.281-7.183-3.726-7.183-3.726l-8.249,26.374l-4.791-13.792
			c8.432-11.929-0.595-12.537-2.209-12.537h-0.046h-0.046c-1.614,0-10.641,0.608-2.209,12.537l-4.791,13.792l-8.249-26.374
			c0,0-10.367,5.079-19.622,10.948c-7.007,4.425-8.295,9.229-8.478,16.125v23.348h43.303h15.158h28.237h25.707h25.707h28.328h15.066
			h43.486L325.6,236.667z"/>
		<path fill="#FFFFFF" d="M143.771,204.141L143.771,204.141h0.137h0.137c23.772-0.235,20.315-32.342,20.315-32.342
			c-0.967-21.432-18.7-21.249-20.452-21.204c-1.752-0.092-19.485-0.229-20.452,21.204
			C123.457,171.845,120.045,203.906,143.771,204.141"/>
	</g>
</g>
<g id="Layer_2">
</g>
</svg>
