<svg version="1.0" id="el_455-GlvDo" xmlns="http://www.w3.org/2000/svg" xmlns:xlink="http://www.w3.org/1999/xlink" x="0px" y="0px" viewBox="0 0 409 409" enable-background="new 0 0 409.266 409.28" xml:space="preserve"><style>@-webkit-keyframes el_HLsiPEOP41_eNbBC5Vqo_Animation{25%{-webkit-transform: translate(210.97687530517578px, 226.35142517089844px) scale(1, 1) translate(-210.97687530517578px, -226.35142517089844px);transform: translate(210.97687530517578px, 226.35142517089844px) scale(1, 1) translate(-210.97687530517578px, -226.35142517089844px);}29.44%{-webkit-transform: translate(210.97687530517578px, 226.35142517089844px) scale(1.2, 1.2) translate(-210.97687530517578px, -226.35142517089844px);transform: translate(210.97687530517578px, 226.35142517089844px) scale(1.2, 1.2) translate(-210.97687530517578px, -226.35142517089844px);}32.78%{-webkit-transform: translate(210.97687530517578px, 226.35142517089844px) scale(1, 1) translate(-210.97687530517578px, -226.35142517089844px);transform: translate(210.97687530517578px, 226.35142517089844px) scale(1, 1) translate(-210.97687530517578px, -226.35142517089844px);}36.11%{-webkit-transform: translate(210.97687530517578px, 226.35142517089844px) scale(1.2, 1.2) translate(-210.97687530517578px, -226.35142517089844px);transform: translate(210.97687530517578px, 226.35142517089844px) scale(1.2, 1.2) translate(-210.97687530517578px, -226.35142517089844px);}40%{-webkit-transform: translate(210.97687530517578px, 226.35142517089844px) scale(1, 1) translate(-210.97687530517578px, -226.35142517089844px);transform: translate(210.97687530517578px, 226.35142517089844px) scale(1, 1) translate(-210.97687530517578px, -226.35142517089844px);}0%{-webkit-transform: translate(210.97687530517578px, 226.35142517089844px) scale(1, 1) translate(-210.97687530517578px, -226.35142517089844px);transform: translate(210.97687530517578px, 226.35142517089844px) scale(1, 1) translate(-210.97687530517578px, -226.35142517089844px);}100%{-webkit-transform: translate(210.97687530517578px, 226.35142517089844px) scale(1, 1) translate(-210.97687530517578px, -226.35142517089844px);transform: translate(210.97687530517578px, 226.35142517089844px) scale(1, 1) translate(-210.97687530517578px, -226.35142517089844px);}}@keyframes el_HLsiPEOP41_eNbBC5Vqo_Animation{25%{-webkit-transform: translate(210.97687530517578px, 226.35142517089844px) scale(1, 1) translate(-210.97687530517578px, -226.35142517089844px);transform: translate(210.97687530517578px, 226.35142517089844px) scale(1, 1) translate(-210.97687530517578px, -226.35142517089844px);}29.44%{-webkit-transform: translate(210.97687530517578px, 226.35142517089844px) scale(1.2, 1.2) translate(-210.97687530517578px, -226.35142517089844px);transform: translate(210.97687530517578px, 226.35142517089844px) scale(1.2, 1.2) translate(-210.97687530517578px, -226.35142517089844px);}32.78%{-webkit-transform: translate(210.97687530517578px, 226.35142517089844px) scale(1, 1) translate(-210.97687530517578px, -226.35142517089844px);transform: translate(210.97687530517578px, 226.35142517089844px) scale(1, 1) translate(-210.97687530517578px, -226.35142517089844px);}36.11%{-webkit-transform: translate(210.97687530517578px, 226.35142517089844px) scale(1.2, 1.2) translate(-210.97687530517578px, -226.35142517089844px);transform: translate(210.97687530517578px, 226.35142517089844px) scale(1.2, 1.2) translate(-210.97687530517578px, -226.35142517089844px);}40%{-webkit-transform: translate(210.97687530517578px, 226.35142517089844px) scale(1, 1) translate(-210.97687530517578px, -226.35142517089844px);transform: translate(210.97687530517578px, 226.35142517089844px) scale(1, 1) translate(-210.97687530517578px, -226.35142517089844px);}0%{-webkit-transform: translate(210.97687530517578px, 226.35142517089844px) scale(1, 1) translate(-210.97687530517578px, -226.35142517089844px);transform: translate(210.97687530517578px, 226.35142517089844px) scale(1, 1) translate(-210.97687530517578px, -226.35142517089844px);}100%{-webkit-transform: translate(210.97687530517578px, 226.35142517089844px) scale(1, 1) translate(-210.97687530517578px, -226.35142517089844px);transform: translate(210.97687530517578px, 226.35142517089844px) scale(1, 1) translate(-210.97687530517578px, -226.35142517089844px);}}#el_455-GlvDo *{-webkit-animation-duration: 6s;animation-duration: 6s;-webkit-animation-iteration-count: infinite;animation-iteration-count: infinite;-webkit-animation-timing-function: cubic-bezier(0, 0, 1, 1);animation-timing-function: cubic-bezier(0, 0, 1, 1);}#el_PMJ3DdyUeo{fill: #D6E03E;stroke: #FFFFFF;}#el_T2zLD8ZzVe{fill: #FFFFFF;}#el_OMsS8TKX-u{fill: #FFFFFF;}#el_3PAC_yAI3A{fill: #FFFFFF;}#el_FZAIEU6Cae{fill: #FFFFFF;}#el_X63OTVMgD1{fill: #FFFFFF;}#el_B9V4y1xiIC{fill: #FFFFFF;}#el_HLsiPEOP41_eNbBC5Vqo{-webkit-animation-name: el_HLsiPEOP41_eNbBC5Vqo_Animation;animation-name: el_HLsiPEOP41_eNbBC5Vqo_Animation;}</style>
<circle id="el_PMJ3DdyUeo" stroke-miterlimit="10" cx="206.989" cy="208.64" r="196.998"/>
<g id="el_HLsiPEOP41_eNbBC5Vqo" data-animator-group="true" data-animator-type="2"><g id="el_HLsiPEOP41">
	<path d="M270.132,251.486c0-0.455-0.211-0.647-0.66-0.647h-1.294c-0.455,0-0.666,0.192-0.666,0.647v29.502&#10;&#9;&#9;c0.884-0.792,1.756-1.591,2.62-2.402C270.132,264.455,270.132,251.486,270.132,251.486" id="el_T2zLD8ZzVe"/>
	<path d="M288.129,207.003h-1.32c-0.357,0-0.64,0.29-0.64,0.647v53.572c2.515-3.148,4.897-6.369,7.128-9.643&#10;&#9;&#9;c-2.6-0.746-4.508-3.135-4.514-5.973l-0.007-37.957C288.776,207.294,288.486,207.003,288.129,207.003" id="el_OMsS8TKX-u"/>
	<path d="M138.908,169.42c0.159-0.779,0.39-1.531,0.693-2.244c0.304-0.713,0.673-1.386,1.102-2.026&#10;&#9;&#9;c0.858-1.267,1.954-2.363,3.221-3.221c0.634-0.429,1.313-0.799,2.026-1.102c0.713-0.297,1.458-0.535,2.237-0.693&#10;&#9;&#9;c0.779-0.158,1.584-0.237,2.402-0.237c0.825,0,1.63,0.079,2.409,0.237c0.772,0.159,1.525,0.396,2.237,0.693&#10;&#9;&#9;c0.713,0.304,1.393,0.673,2.026,1.102c0.634,0.429,1.228,0.917,1.769,1.459c0.535,0.541,1.023,1.129,1.452,1.762&#10;&#9;&#9;c0.429,0.64,0.799,1.313,1.102,2.026c0.304,0.713,0.535,1.465,0.693,2.244c0.158,0.772,0.244,1.577,0.244,2.402&#10;&#9;&#9;c0,0.825-0.086,1.63-0.244,2.402c-0.125,0.634-0.31,1.247-0.535,1.835c-0.192,0.515-0.423,1.016-0.686,1.498&#10;&#9;&#9;c-0.594,1.076-1.346,2.053-2.231,2.897c-0.884,0.845-1.894,1.551-3.003,2.092c-0.739,0.363-1.525,0.647-2.336,0.851&#10;&#9;&#9;c-0.548,0.132-1.102,0.231-1.676,0.29c-0.396,0.04-0.805,0.059-1.221,0.059c-0.819,0-1.624-0.079-2.402-0.237&#10;&#9;&#9;c-0.779-0.159-1.525-0.396-2.237-0.7c-0.713-0.297-1.393-0.666-2.026-1.096c-1.267-0.858-2.369-1.954-3.221-3.221&#10;&#9;&#9;c-0.429-0.64-0.799-1.313-1.102-2.026c-0.304-0.719-0.535-1.465-0.693-2.244c-0.158-0.772-0.244-1.577-0.244-2.402&#10;&#9;&#9;C138.664,170.997,138.749,170.192,138.908,169.42 M207.416,220.926l2.495-4.198v3.373c0.31-0.046,0.621-0.079,0.944-0.092&#10;&#9;&#9;l1.967-3.28v3.452c0.244,0.046,0.488,0.112,0.719,0.185l2.165-3.637v4.693c2.092,1.445,3.465,3.861,3.465,6.593&#10;&#9;&#9;c0,4.429-3.59,8.013-8.012,8.013c-4.429,0-8.013-3.59-8.013-8.013C203.146,224.939,204.875,222.273,207.416,220.926&#10;&#9;&#9; M257.141,169.439c0.159-0.772,0.39-1.525,0.693-2.237c0.224-0.535,0.488-1.049,0.785-1.544c0.601-0.983,1.34-1.874,2.185-2.64&#10;&#9;&#9;c0.852-0.772,1.809-1.426,2.851-1.927c0.178-0.086,0.383-0.145,0.568-0.224c1.419-0.594,2.963-0.95,4.6-0.95&#10;&#9;&#9;c0.825,0,1.63,0.086,2.409,0.244c0.772,0.158,1.525,0.389,2.237,0.693c1.426,0.601,2.713,1.478,3.795,2.554&#10;&#9;&#9;c1.076,1.082,1.947,2.369,2.554,3.795c0.304,0.713,0.535,1.459,0.693,2.237c0.158,0.779,0.244,1.584,0.244,2.402&#10;&#9;&#9;c0,0.825-0.086,1.63-0.244,2.409c-0.159,0.772-0.39,1.525-0.693,2.238c-0.191,0.449-0.403,0.878-0.647,1.293&#10;&#9;&#9;c-0.719,1.247-1.65,2.356-2.759,3.267c-0.884,0.733-1.874,1.333-2.944,1.789c-0.713,0.304-1.465,0.535-2.237,0.693&#10;&#9;&#9;c-0.779,0.158-1.584,0.244-2.409,0.244s-1.624-0.086-2.402-0.244c-0.779-0.158-1.525-0.389-2.237-0.693&#10;&#9;&#9;c-0.713-0.304-1.393-0.673-2.026-1.102c-1.274-0.858-2.369-1.954-3.228-3.221c-0.429-0.633-0.792-1.313-1.095-2.026&#10;&#9;&#9;c-0.304-0.713-0.535-1.465-0.693-2.238c-0.158-0.779-0.244-1.584-0.244-2.409C256.897,171.017,256.976,170.218,257.141,169.439&#10;&#9;&#9; M122.857,203.515c1.419-4.937,4.877-16.177,14.645-16.177h26.209c10.481,0,13.194,11.24,14.613,16.177&#10;&#9;&#9;c0,0,9.313,30.406,9.313,30.42c1.01,3.28-0.838,6.759-4.118,7.762c-3.28,1.01-6.758-0.838-7.768-4.118l-9.286-30.287&#10;&#9;&#9;c-0.059-0.125-0.337-0.653-0.984-0.653h-1.307h-0.007c-0.37-0.007-0.581,0.304-0.482,0.66l18.592,60.859&#10;&#9;&#9;c0.099,0.35,0,0.97-0.647,0.97h-13.048c-0.37,0-0.64,0.304-0.64,0.673c0,0,0,11.022,0.006,22.084&#10;&#9;&#9;c10.118,7.273,20.955,13.18,32.03,17.16c0.006-17.002,0.006-58.978,0.006-58.978c0-0.224-0.198-0.403-0.422-0.403h-1.67&#10;&#9;&#9;c-0.218,0-0.396,0.178-0.396,0.403l0.007,23.457c0,2.132-1.742,3.762-3.868,3.762c-2.132,0-3.894-1.63-3.894-3.762v-26.803&#10;&#9;&#9;c0-5.28,4.944-9.471,10.019-9.471h22.77c5.075,0,10.039,4.191,10.039,9.471v26.803c0,2.132-1.729,3.762-3.868,3.762&#10;&#9;&#9;c-2.125,0-3.887-1.63-3.887-3.762c-0.007,0,0.006-23.457,0.006-23.457c0-0.224-0.178-0.403-0.396-0.403h-1.696&#10;&#9;&#9;c-0.218,0-0.403,0.178-0.403,0.403v56.285v2.561c10.039-3.637,19.879-8.864,29.159-15.253v-86.012c0-0.356-0.29-0.647-0.647-0.647&#10;&#9;&#9;h-1.313c-0.356,0-0.647,0.29-0.647,0.647l-0.007,37.957c-0.007,3.432-2.785,6.211-6.217,6.211c-3.432,0-6.217-2.779-6.217-6.217&#10;&#9;&#9;v-43.191c0-8.507,6.541-15.048,14.725-15.048h18.975h16.362c8.178,0,14.725,6.547,14.725,15.048v36.142&#10;&#9;&#9;c16.302-30.373,18.942-63.156-3.584-84.606c-37.64-34.505-80.408,7.082-85.906,12.738c-0.323,0.343-0.66,0.62-0.752,0.62&#10;&#9;&#9;c-0.099,0-0.429-0.284-0.759-0.62c-5.498-5.656-48.266-47.243-85.906-12.738c-19.84,18.889-20.156,46.557-8.824,73.637&#10;&#9;&#9;C118.21,218.682,122.837,203.588,122.857,203.515" id="el_3PAC_yAI3A"/>
	<path d="M211.964,276.666h-1.644c-0.277,0-0.409,0.119-0.409,0.403V295.1v16.962&#10;&#9;&#9;c0.343,0.086,0.686,0.172,1.029,0.251h0.066c0.469-0.112,0.931-0.224,1.393-0.343c0-4.066-0.007-34.901-0.007-34.901&#10;&#9;&#9;C212.393,276.785,212.241,276.666,211.964,276.666" id="el_FZAIEU6Cae"/>
	<path d="M137.013,206.637h-0.007H135.7c-0.647,0-0.924,0.535-0.977,0.66c0,0-9.293,30.281-9.293,30.288&#10;&#9;&#9;c-0.521,1.696-1.703,2.996-3.175,3.729c1.023,1.808,2.092,3.597,3.208,5.379l12.038-39.389&#10;&#9;&#9;C137.6,206.948,137.383,206.631,137.013,206.637" id="el_X63OTVMgD1"/>
	<path d="M151.243,269.131h-0.013h-1.28h-0.007c-0.37,0-0.673,0.297-0.673,0.667v6.349&#10;&#9;&#9;c0.871,0.851,1.749,1.696,2.64,2.528v-8.877C151.909,269.428,151.612,269.131,151.243,269.131" id="el_B9V4y1xiIC"/>
</g></g>
</svg>