<svg version="1.0" id="el_KOmg9cGvu" xmlns="http://www.w3.org/2000/svg" xmlns:xlink="http://www.w3.org/1999/xlink" x="0px" y="0px" viewBox="0 0 409 409" enable-background="new 0 0 409.266 409.28" xml:space="preserve"><style>@-webkit-keyframes el_xS0kK9J9c0p_2_8i4xf5S_Animation{3.33%{-webkit-transform: translate(970.767333984375px, 260.6954040527344px) translate(-970.767333984375px, -260.6954040527344px) translate(0px, 0px);transform: translate(970.767333984375px, 260.6954040527344px) translate(-970.767333984375px, -260.6954040527344px) translate(0px, 0px);}66.67%{-webkit-transform: translate(970.767333984375px, 260.6954040527344px) translate(-970.767333984375px, -260.6954040527344px) translate(-300px, 0px);transform: translate(970.767333984375px, 260.6954040527344px) translate(-970.767333984375px, -260.6954040527344px) translate(-300px, 0px);}0%{-webkit-transform: translate(970.767333984375px, 260.6954040527344px) translate(-970.767333984375px, -260.6954040527344px) translate(0px, 0px);transform: translate(970.767333984375px, 260.6954040527344px) translate(-970.767333984375px, -260.6954040527344px) translate(0px, 0px);}100%{-webkit-transform: translate(970.767333984375px, 260.6954040527344px) translate(-970.767333984375px, -260.6954040527344px) translate(-300px, 0px);transform: translate(970.767333984375px, 260.6954040527344px) translate(-970.767333984375px, -260.6954040527344px) translate(-300px, 0px);}}@keyframes el_xS0kK9J9c0p_2_8i4xf5S_Animation{3.33%{-webkit-transform: translate(970.767333984375px, 260.6954040527344px) translate(-970.767333984375px, -260.6954040527344px) translate(0px, 0px);transform: translate(970.767333984375px, 260.6954040527344px) translate(-970.767333984375px, -260.6954040527344px) translate(0px, 0px);}66.67%{-webkit-transform: translate(970.767333984375px, 260.6954040527344px) translate(-970.767333984375px, -260.6954040527344px) translate(-300px, 0px);transform: translate(970.767333984375px, 260.6954040527344px) translate(-970.767333984375px, -260.6954040527344px) translate(-300px, 0px);}0%{-webkit-transform: translate(970.767333984375px, 260.6954040527344px) translate(-970.767333984375px, -260.6954040527344px) translate(0px, 0px);transform: translate(970.767333984375px, 260.6954040527344px) translate(-970.767333984375px, -260.6954040527344px) translate(0px, 0px);}100%{-webkit-transform: translate(970.767333984375px, 260.6954040527344px) translate(-970.767333984375px, -260.6954040527344px) translate(-300px, 0px);transform: translate(970.767333984375px, 260.6954040527344px) translate(-970.767333984375px, -260.6954040527344px) translate(-300px, 0px);}}@-webkit-keyframes el__Z7PCK7EJwy_akiOE9-gA_Animation{3.33%{-webkit-transform: translate(774.2252197265625px, 260.6954040527344px) translate(-774.2252197265625px, -260.6954040527344px) translate(0px, 0px);transform: translate(774.2252197265625px, 260.6954040527344px) translate(-774.2252197265625px, -260.6954040527344px) translate(0px, 0px);}66.67%{-webkit-transform: translate(774.2252197265625px, 260.6954040527344px) translate(-774.2252197265625px, -260.6954040527344px) translate(-300px, 0px);transform: translate(774.2252197265625px, 260.6954040527344px) translate(-774.2252197265625px, -260.6954040527344px) translate(-300px, 0px);}0%{-webkit-transform: translate(774.2252197265625px, 260.6954040527344px) translate(-774.2252197265625px, -260.6954040527344px) translate(0px, 0px);transform: translate(774.2252197265625px, 260.6954040527344px) translate(-774.2252197265625px, -260.6954040527344px) translate(0px, 0px);}100%{-webkit-transform: translate(774.2252197265625px, 260.6954040527344px) translate(-774.2252197265625px, -260.6954040527344px) translate(-300px, 0px);transform: translate(774.2252197265625px, 260.6954040527344px) translate(-774.2252197265625px, -260.6954040527344px) translate(-300px, 0px);}}@keyframes el__Z7PCK7EJwy_akiOE9-gA_Animation{3.33%{-webkit-transform: translate(774.2252197265625px, 260.6954040527344px) translate(-774.2252197265625px, -260.6954040527344px) translate(0px, 0px);transform: translate(774.2252197265625px, 260.6954040527344px) translate(-774.2252197265625px, -260.6954040527344px) translate(0px, 0px);}66.67%{-webkit-transform: translate(774.2252197265625px, 260.6954040527344px) translate(-774.2252197265625px, -260.6954040527344px) translate(-300px, 0px);transform: translate(774.2252197265625px, 260.6954040527344px) translate(-774.2252197265625px, -260.6954040527344px) translate(-300px, 0px);}0%{-webkit-transform: translate(774.2252197265625px, 260.6954040527344px) translate(-774.2252197265625px, -260.6954040527344px) translate(0px, 0px);transform: translate(774.2252197265625px, 260.6954040527344px) translate(-774.2252197265625px, -260.6954040527344px) translate(0px, 0px);}100%{-webkit-transform: translate(774.2252197265625px, 260.6954040527344px) translate(-774.2252197265625px, -260.6954040527344px) translate(-300px, 0px);transform: translate(774.2252197265625px, 260.6954040527344px) translate(-774.2252197265625px, -260.6954040527344px) translate(-300px, 0px);}}@-webkit-keyframes el_OGUCFIQ7VMW_Animation{66.67%{opacity: 1;}72.22%{opacity: 0;}0%{opacity: 1;}100%{opacity: 0;}}@keyframes el_OGUCFIQ7VMW_Animation{66.67%{opacity: 1;}72.22%{opacity: 0;}0%{opacity: 1;}100%{opacity: 0;}}@-webkit-keyframes el_OGUCFIQ7VMW_PeMxnIfM7_Animation{3.33%{-webkit-transform: translate(576.4521484375px, 260.6954040527344px) translate(-576.4521484375px, -260.6954040527344px) translate(0px, 0px);transform: translate(576.4521484375px, 260.6954040527344px) translate(-576.4521484375px, -260.6954040527344px) translate(0px, 0px);}66.67%{-webkit-transform: translate(576.4521484375px, 260.6954040527344px) translate(-576.4521484375px, -260.6954040527344px) translate(-300px, 0px);transform: translate(576.4521484375px, 260.6954040527344px) translate(-576.4521484375px, -260.6954040527344px) translate(-300px, 0px);}0%{-webkit-transform: translate(576.4521484375px, 260.6954040527344px) translate(-576.4521484375px, -260.6954040527344px) translate(0px, 0px);transform: translate(576.4521484375px, 260.6954040527344px) translate(-576.4521484375px, -260.6954040527344px) translate(0px, 0px);}100%{-webkit-transform: translate(576.4521484375px, 260.6954040527344px) translate(-576.4521484375px, -260.6954040527344px) translate(-300px, 0px);transform: translate(576.4521484375px, 260.6954040527344px) translate(-576.4521484375px, -260.6954040527344px) translate(-300px, 0px);}}@keyframes el_OGUCFIQ7VMW_PeMxnIfM7_Animation{3.33%{-webkit-transform: translate(576.4521484375px, 260.6954040527344px) translate(-576.4521484375px, -260.6954040527344px) translate(0px, 0px);transform: translate(576.4521484375px, 260.6954040527344px) translate(-576.4521484375px, -260.6954040527344px) translate(0px, 0px);}66.67%{-webkit-transform: translate(576.4521484375px, 260.6954040527344px) translate(-576.4521484375px, -260.6954040527344px) translate(-300px, 0px);transform: translate(576.4521484375px, 260.6954040527344px) translate(-576.4521484375px, -260.6954040527344px) translate(-300px, 0px);}0%{-webkit-transform: translate(576.4521484375px, 260.6954040527344px) translate(-576.4521484375px, -260.6954040527344px) translate(0px, 0px);transform: translate(576.4521484375px, 260.6954040527344px) translate(-576.4521484375px, -260.6954040527344px) translate(0px, 0px);}100%{-webkit-transform: translate(576.4521484375px, 260.6954040527344px) translate(-576.4521484375px, -260.6954040527344px) translate(-300px, 0px);transform: translate(576.4521484375px, 260.6954040527344px) translate(-576.4521484375px, -260.6954040527344px) translate(-300px, 0px);}}@-webkit-keyframes el_7tvdeN4XOoN_Animation{0%{opacity: 1;}3.33%{opacity: 1;}66.67%{opacity: 1;}72.22%{opacity: 0;}100%{opacity: 0;}}@keyframes el_7tvdeN4XOoN_Animation{0%{opacity: 1;}3.33%{opacity: 1;}66.67%{opacity: 1;}72.22%{opacity: 0;}100%{opacity: 0;}}@-webkit-keyframes el_7tvdeN4XOoN_aSqWcqP4j_Animation{3.33%{-webkit-transform: translate(379.90899658203125px, 260.6954040527344px) translate(-379.90899658203125px, -260.6954040527344px) translate(0px, 0px);transform: translate(379.90899658203125px, 260.6954040527344px) translate(-379.90899658203125px, -260.6954040527344px) translate(0px, 0px);}66.67%{-webkit-transform: translate(379.90899658203125px, 260.6954040527344px) translate(-379.90899658203125px, -260.6954040527344px) translate(-300px, 0px);transform: translate(379.90899658203125px, 260.6954040527344px) translate(-379.90899658203125px, -260.6954040527344px) translate(-300px, 0px);}0%{-webkit-transform: translate(379.90899658203125px, 260.6954040527344px) translate(-379.90899658203125px, -260.6954040527344px) translate(0px, 0px);transform: translate(379.90899658203125px, 260.6954040527344px) translate(-379.90899658203125px, -260.6954040527344px) translate(0px, 0px);}100%{-webkit-transform: translate(379.90899658203125px, 260.6954040527344px) translate(-379.90899658203125px, -260.6954040527344px) translate(-300px, 0px);transform: translate(379.90899658203125px, 260.6954040527344px) translate(-379.90899658203125px, -260.6954040527344px) translate(-300px, 0px);}}@keyframes el_7tvdeN4XOoN_aSqWcqP4j_Animation{3.33%{-webkit-transform: translate(379.90899658203125px, 260.6954040527344px) translate(-379.90899658203125px, -260.6954040527344px) translate(0px, 0px);transform: translate(379.90899658203125px, 260.6954040527344px) translate(-379.90899658203125px, -260.6954040527344px) translate(0px, 0px);}66.67%{-webkit-transform: translate(379.90899658203125px, 260.6954040527344px) translate(-379.90899658203125px, -260.6954040527344px) translate(-300px, 0px);transform: translate(379.90899658203125px, 260.6954040527344px) translate(-379.90899658203125px, -260.6954040527344px) translate(-300px, 0px);}0%{-webkit-transform: translate(379.90899658203125px, 260.6954040527344px) translate(-379.90899658203125px, -260.6954040527344px) translate(0px, 0px);transform: translate(379.90899658203125px, 260.6954040527344px) translate(-379.90899658203125px, -260.6954040527344px) translate(0px, 0px);}100%{-webkit-transform: translate(379.90899658203125px, 260.6954040527344px) translate(-379.90899658203125px, -260.6954040527344px) translate(-300px, 0px);transform: translate(379.90899658203125px, 260.6954040527344px) translate(-379.90899658203125px, -260.6954040527344px) translate(-300px, 0px);}}@-webkit-keyframes el_uQW_H8pdew6_Animation{0%{opacity: 0;}3.33%{opacity: 1;}66.67%{opacity: 1;}72.22%{opacity: 0;}100%{opacity: 0;}}@keyframes el_uQW_H8pdew6_Animation{0%{opacity: 0;}3.33%{opacity: 1;}66.67%{opacity: 1;}72.22%{opacity: 0;}100%{opacity: 0;}}@-webkit-keyframes el_uQW_H8pdew6_KvmarFHaM_Animation{3.33%{-webkit-transform: translate(182.70989990234375px, 260.6954040527344px) translate(-182.70989990234375px, -260.6954040527344px) translate(0px, 0px);transform: translate(182.70989990234375px, 260.6954040527344px) translate(-182.70989990234375px, -260.6954040527344px) translate(0px, 0px);}66.67%{-webkit-transform: translate(182.70989990234375px, 260.6954040527344px) translate(-182.70989990234375px, -260.6954040527344px) translate(-300px, 0px);transform: translate(182.70989990234375px, 260.6954040527344px) translate(-182.70989990234375px, -260.6954040527344px) translate(-300px, 0px);}0%{-webkit-transform: translate(182.70989990234375px, 260.6954040527344px) translate(-182.70989990234375px, -260.6954040527344px) translate(0px, 0px);transform: translate(182.70989990234375px, 260.6954040527344px) translate(-182.70989990234375px, -260.6954040527344px) translate(0px, 0px);}100%{-webkit-transform: translate(182.70989990234375px, 260.6954040527344px) translate(-182.70989990234375px, -260.6954040527344px) translate(-300px, 0px);transform: translate(182.70989990234375px, 260.6954040527344px) translate(-182.70989990234375px, -260.6954040527344px) translate(-300px, 0px);}}@keyframes el_uQW_H8pdew6_KvmarFHaM_Animation{3.33%{-webkit-transform: translate(182.70989990234375px, 260.6954040527344px) translate(-182.70989990234375px, -260.6954040527344px) translate(0px, 0px);transform: translate(182.70989990234375px, 260.6954040527344px) translate(-182.70989990234375px, -260.6954040527344px) translate(0px, 0px);}66.67%{-webkit-transform: translate(182.70989990234375px, 260.6954040527344px) translate(-182.70989990234375px, -260.6954040527344px) translate(-300px, 0px);transform: translate(182.70989990234375px, 260.6954040527344px) translate(-182.70989990234375px, -260.6954040527344px) translate(-300px, 0px);}0%{-webkit-transform: translate(182.70989990234375px, 260.6954040527344px) translate(-182.70989990234375px, -260.6954040527344px) translate(0px, 0px);transform: translate(182.70989990234375px, 260.6954040527344px) translate(-182.70989990234375px, -260.6954040527344px) translate(0px, 0px);}100%{-webkit-transform: translate(182.70989990234375px, 260.6954040527344px) translate(-182.70989990234375px, -260.6954040527344px) translate(-300px, 0px);transform: translate(182.70989990234375px, 260.6954040527344px) translate(-182.70989990234375px, -260.6954040527344px) translate(-300px, 0px);}}@-webkit-keyframes el_ziUY6VZc2e_Animation{0%{opacity: 0;}3.33%{opacity: 1;}100%{opacity: 1;}}@keyframes el_ziUY6VZc2e_Animation{0%{opacity: 0;}3.33%{opacity: 1;}100%{opacity: 1;}}@-webkit-keyframes el_ziUY6VZc2e_mPNfizkRj_Animation{3.33%{-webkit-transform: translate(-13.833002090454102px, 260.6954040527344px) translate(13.833002090454102px, -260.6954040527344px) translate(0px, 0px);transform: translate(-13.833002090454102px, 260.6954040527344px) translate(13.833002090454102px, -260.6954040527344px) translate(0px, 0px);}66.67%{-webkit-transform: translate(-13.833002090454102px, 260.6954040527344px) translate(13.833002090454102px, -260.6954040527344px) translate(-300px, 0px);transform: translate(-13.833002090454102px, 260.6954040527344px) translate(13.833002090454102px, -260.6954040527344px) translate(-300px, 0px);}0%{-webkit-transform: translate(-13.833002090454102px, 260.6954040527344px) translate(13.833002090454102px, -260.6954040527344px) translate(0px, 0px);transform: translate(-13.833002090454102px, 260.6954040527344px) translate(13.833002090454102px, -260.6954040527344px) translate(0px, 0px);}100%{-webkit-transform: translate(-13.833002090454102px, 260.6954040527344px) translate(13.833002090454102px, -260.6954040527344px) translate(-300px, 0px);transform: translate(-13.833002090454102px, 260.6954040527344px) translate(13.833002090454102px, -260.6954040527344px) translate(-300px, 0px);}}@keyframes el_ziUY6VZc2e_mPNfizkRj_Animation{3.33%{-webkit-transform: translate(-13.833002090454102px, 260.6954040527344px) translate(13.833002090454102px, -260.6954040527344px) translate(0px, 0px);transform: translate(-13.833002090454102px, 260.6954040527344px) translate(13.833002090454102px, -260.6954040527344px) translate(0px, 0px);}66.67%{-webkit-transform: translate(-13.833002090454102px, 260.6954040527344px) translate(13.833002090454102px, -260.6954040527344px) translate(-300px, 0px);transform: translate(-13.833002090454102px, 260.6954040527344px) translate(13.833002090454102px, -260.6954040527344px) translate(-300px, 0px);}0%{-webkit-transform: translate(-13.833002090454102px, 260.6954040527344px) translate(13.833002090454102px, -260.6954040527344px) translate(0px, 0px);transform: translate(-13.833002090454102px, 260.6954040527344px) translate(13.833002090454102px, -260.6954040527344px) translate(0px, 0px);}100%{-webkit-transform: translate(-13.833002090454102px, 260.6954040527344px) translate(13.833002090454102px, -260.6954040527344px) translate(-300px, 0px);transform: translate(-13.833002090454102px, 260.6954040527344px) translate(13.833002090454102px, -260.6954040527344px) translate(-300px, 0px);}}@-webkit-keyframes el_flzstue0dk_8usXyT1VF_Animation{3.33%{-webkit-transform: translate(107.49516296386719px, 127.00000762939453px) translate(-107.49516296386719px, -127.00000762939453px) translate(0px, 0px);transform: translate(107.49516296386719px, 127.00000762939453px) translate(-107.49516296386719px, -127.00000762939453px) translate(0px, 0px);}16.67%{-webkit-transform: translate(107.49516296386719px, 127.00000762939453px) translate(-107.49516296386719px, -127.00000762939453px) translate(0px, -10px);transform: translate(107.49516296386719px, 127.00000762939453px) translate(-107.49516296386719px, -127.00000762939453px) translate(0px, -10px);}33.33%{-webkit-transform: translate(107.49516296386719px, 127.00000762939453px) translate(-107.49516296386719px, -127.00000762939453px) translate(0px, 0px);transform: translate(107.49516296386719px, 127.00000762939453px) translate(-107.49516296386719px, -127.00000762939453px) translate(0px, 0px);}50%{-webkit-transform: translate(107.49516296386719px, 127.00000762939453px) translate(-107.49516296386719px, -127.00000762939453px) translate(0px, -10px);transform: translate(107.49516296386719px, 127.00000762939453px) translate(-107.49516296386719px, -127.00000762939453px) translate(0px, -10px);}66.67%{-webkit-transform: translate(107.49516296386719px, 127.00000762939453px) translate(-107.49516296386719px, -127.00000762939453px) translate(0px, 0px);transform: translate(107.49516296386719px, 127.00000762939453px) translate(-107.49516296386719px, -127.00000762939453px) translate(0px, 0px);}0%{-webkit-transform: translate(107.49516296386719px, 127.00000762939453px) translate(-107.49516296386719px, -127.00000762939453px) translate(0px, 0px);transform: translate(107.49516296386719px, 127.00000762939453px) translate(-107.49516296386719px, -127.00000762939453px) translate(0px, 0px);}100%{-webkit-transform: translate(107.49516296386719px, 127.00000762939453px) translate(-107.49516296386719px, -127.00000762939453px) translate(0px, 0px);transform: translate(107.49516296386719px, 127.00000762939453px) translate(-107.49516296386719px, -127.00000762939453px) translate(0px, 0px);}}@keyframes el_flzstue0dk_8usXyT1VF_Animation{3.33%{-webkit-transform: translate(107.49516296386719px, 127.00000762939453px) translate(-107.49516296386719px, -127.00000762939453px) translate(0px, 0px);transform: translate(107.49516296386719px, 127.00000762939453px) translate(-107.49516296386719px, -127.00000762939453px) translate(0px, 0px);}16.67%{-webkit-transform: translate(107.49516296386719px, 127.00000762939453px) translate(-107.49516296386719px, -127.00000762939453px) translate(0px, -10px);transform: translate(107.49516296386719px, 127.00000762939453px) translate(-107.49516296386719px, -127.00000762939453px) translate(0px, -10px);}33.33%{-webkit-transform: translate(107.49516296386719px, 127.00000762939453px) translate(-107.49516296386719px, -127.00000762939453px) translate(0px, 0px);transform: translate(107.49516296386719px, 127.00000762939453px) translate(-107.49516296386719px, -127.00000762939453px) translate(0px, 0px);}50%{-webkit-transform: translate(107.49516296386719px, 127.00000762939453px) translate(-107.49516296386719px, -127.00000762939453px) translate(0px, -10px);transform: translate(107.49516296386719px, 127.00000762939453px) translate(-107.49516296386719px, -127.00000762939453px) translate(0px, -10px);}66.67%{-webkit-transform: translate(107.49516296386719px, 127.00000762939453px) translate(-107.49516296386719px, -127.00000762939453px) translate(0px, 0px);transform: translate(107.49516296386719px, 127.00000762939453px) translate(-107.49516296386719px, -127.00000762939453px) translate(0px, 0px);}0%{-webkit-transform: translate(107.49516296386719px, 127.00000762939453px) translate(-107.49516296386719px, -127.00000762939453px) translate(0px, 0px);transform: translate(107.49516296386719px, 127.00000762939453px) translate(-107.49516296386719px, -127.00000762939453px) translate(0px, 0px);}100%{-webkit-transform: translate(107.49516296386719px, 127.00000762939453px) translate(-107.49516296386719px, -127.00000762939453px) translate(0px, 0px);transform: translate(107.49516296386719px, 127.00000762939453px) translate(-107.49516296386719px, -127.00000762939453px) translate(0px, 0px);}}#el_KOmg9cGvu *{-webkit-animation-duration: 9s;animation-duration: 9s;-webkit-animation-iteration-count: infinite;animation-iteration-count: infinite;-webkit-animation-timing-function: cubic-bezier(0, 0, 1, 1);animation-timing-function: cubic-bezier(0, 0, 1, 1);}#el_WY5O4sqqwv{fill: #D6E03E;stroke: #FFFFFF;}#el_qufxF43Jr0{fill: #FFFFFF;}#el_8DhYYvEiBn{fill: #FFFFFF;}#el_PxrCP9ijrr{fill: #FFFFFF;}#el_t8GG_L__9t{fill: #FFFFFF;}#el_kjTpbnoRiP{fill: #FFFFFF;}#el_GqZLEJfXQ0{fill: #FFFFFF;}#el_2aOYbdzWCa{fill: #FFFFFF;}#el_uZACaudQP3{fill: #FFFFFF;}#el_FrH-T0bMKS{fill: #FFFFFF;}#el_3Gk9wh4Pof{fill: #FFFFFF;}#el_gqd4xNQUhHk{fill: #FFFFFF;}#el_3ZdxWBUozzH{fill: #FFFFFF;}#el_Zomt1SrBtc-{fill: #FFFFFF;}#el_S6MRv3Ycrs2{fill: #FFFFFF;}#el_GZ9FZ9UOmxr{fill: #FFFFFF;}#el_flzstue0dk_8usXyT1VF{-webkit-animation-name: el_flzstue0dk_8usXyT1VF_Animation;animation-name: el_flzstue0dk_8usXyT1VF_Animation;}#el_ziUY6VZc2e_mPNfizkRj{-webkit-animation-name: el_ziUY6VZc2e_mPNfizkRj_Animation;animation-name: el_ziUY6VZc2e_mPNfizkRj_Animation;}#el_ziUY6VZc2e{-webkit-animation-name: el_ziUY6VZc2e_Animation;animation-name: el_ziUY6VZc2e_Animation;}#el_uQW_H8pdew6_KvmarFHaM{-webkit-animation-name: el_uQW_H8pdew6_KvmarFHaM_Animation;animation-name: el_uQW_H8pdew6_KvmarFHaM_Animation;}#el_uQW_H8pdew6{-webkit-animation-name: el_uQW_H8pdew6_Animation;animation-name: el_uQW_H8pdew6_Animation;}#el_7tvdeN4XOoN_aSqWcqP4j{-webkit-animation-name: el_7tvdeN4XOoN_aSqWcqP4j_Animation;animation-name: el_7tvdeN4XOoN_aSqWcqP4j_Animation;}#el_7tvdeN4XOoN{-webkit-animation-name: el_7tvdeN4XOoN_Animation;animation-name: el_7tvdeN4XOoN_Animation;}#el_OGUCFIQ7VMW_PeMxnIfM7{-webkit-animation-name: el_OGUCFIQ7VMW_PeMxnIfM7_Animation;animation-name: el_OGUCFIQ7VMW_PeMxnIfM7_Animation;}#el_OGUCFIQ7VMW{-webkit-animation-name: el_OGUCFIQ7VMW_Animation;animation-name: el_OGUCFIQ7VMW_Animation;}#el__Z7PCK7EJwy_akiOE9-gA{-webkit-animation-name: el__Z7PCK7EJwy_akiOE9-gA_Animation;animation-name: el__Z7PCK7EJwy_akiOE9-gA_Animation;}#el_xS0kK9J9c0p_2_8i4xf5S{-webkit-animation-name: el_xS0kK9J9c0p_2_8i4xf5S_Animation;animation-name: el_xS0kK9J9c0p_2_8i4xf5S_Animation;}</style>
<circle id="el_WY5O4sqqwv" stroke-miterlimit="10" cx="206.989" cy="208.64" r="196.998"/>
<g id="el_flzstue0dk_8usXyT1VF" data-animator-group="true" data-animator-type="0"><g id="el_flzstue0dk">
	<defs>
		<circle id="circle_2_" cx="206.989" cy="208.64" r="196.998"/>
	</defs>
	<clipPath id="circle_3_">
		<use xlink:href="#circle_2_" overflow="visible"/>
	</clipPath>
	<path clip-path="url(#circle_3_)" d="M170.719,192.052h-49.32c-1.657,0-3.003,1.345-3.003,3.003v22.431&#10;&#9;&#9;c0,1.657,1.345,3.003,3.003,3.003h49.32c1.657,0,3.003-1.345,3.003-3.003v-22.431C173.722,193.397,172.376,192.052,170.719,192.052&#10;&#9;&#9;" id="el_qufxF43Jr0"/>
	<path clip-path="url(#circle_3_)" d="M267.629,200.43h-17.79c-0.708,0-1.287,0.579-1.287,1.287v17.79&#10;&#9;&#9;c0,0.708,0.579,1.287,1.287,1.287h17.79c0.708,0,1.287-0.579,1.287-1.287v-17.79C268.916,201.009,268.337,200.43,267.629,200.43" id="el_8DhYYvEiBn"/>
	<path clip-path="url(#circle_3_)" d="M239.096,200.43h-17.783c-0.715,0-1.293,0.579-1.293,1.287v17.79&#10;&#9;&#9;c0,0.708,0.579,1.287,1.293,1.287h17.783c0.715,0,1.287-0.579,1.287-1.287v-17.79C240.383,201.009,239.81,200.43,239.096,200.43" id="el_PxrCP9ijrr"/>
	<path clip-path="url(#circle_3_)" d="M210.563,200.43H192.78c-0.715,0-1.293,0.579-1.293,1.287v17.79&#10;&#9;&#9;c0,0.708,0.579,1.287,1.293,1.287h17.783c0.708,0,1.287-0.579,1.287-1.287v-17.79C211.85,201.009,211.271,200.43,210.563,200.43" id="el_t8GG_L__9t"/>
	<path clip-path="url(#circle_3_)" d="M239.096,173.751h-17.783c-0.715,0-1.293,0.579-1.293,1.287v17.79&#10;&#9;&#9;c0,0.708,0.579,1.287,1.293,1.287h17.783c0.715,0,1.287-0.579,1.287-1.287v-17.79C240.383,174.329,239.81,173.751,239.096,173.751" id="el_kjTpbnoRiP"/>
	<path clip-path="url(#circle_3_)" d="M210.563,173.751H192.78c-0.715,0-1.293,0.579-1.293,1.287v17.79&#10;&#9;&#9;c0,0.708,0.579,1.287,1.293,1.287h17.783c0.708,0,1.287-0.579,1.287-1.287v-17.79C211.85,174.329,211.271,173.751,210.563,173.751" id="el_GqZLEJfXQ0"/>
	<path clip-path="url(#circle_3_)" d="M154.074,162.222h-16.028c-0.949,0-1.722,0.767-1.722,1.716v20.331&#10;&#9;&#9;c0,0.949,0.773,1.722,1.722,1.722h16.028c0.949,0,1.716-0.773,1.716-1.722v-20.331C155.79,162.989,155.023,162.222,154.074,162.222&#10;&#9;&#9;" id="el_2aOYbdzWCa"/>
	<path clip-path="url(#circle_3_)" d="M154.074,148.222h-5.44v-18.648c0-1.423-1.15-2.574-2.574-2.574&#10;&#9;&#9;c-1.424,0-2.574,1.15-2.574,2.574v18.648h-5.44c-0.949,0-1.722,0.767-1.722,1.716v4.504c0,0.949,0.773,1.716,1.722,1.716h16.028&#10;&#9;&#9;c0.949,0,1.716-0.767,1.716-1.716v-4.504C155.79,148.989,155.023,148.222,154.074,148.222" id="el_uZACaudQP3"/>
	<path clip-path="url(#circle_3_)" d="M267.627,248.655c-2.327,0-4.212-1.885-4.212-4.212&#10;&#9;&#9;c0-2.327,1.885-4.212,4.212-4.212s4.212,1.885,4.212,4.212C271.839,246.77,269.954,248.655,267.627,248.655 M247.205,248.655&#10;&#9;&#9;c-2.32,0-4.212-1.885-4.212-4.212c0-2.327,1.891-4.212,4.212-4.212c2.333,0,4.218,1.885,4.218,4.212&#10;&#9;&#9;C251.423,246.77,249.538,248.655,247.205,248.655 M315.556,221.798c-0.189-0.338-0.546-0.552-0.936-0.552h-34.215&#10;&#9;&#9;c-0.331,0-0.643,0.156-0.845,0.416l-4.537,5.804H108.565c-0.351,0-0.689,0.176-0.884,0.474c-0.201,0.293-0.241,0.669-0.11,1.001&#10;&#9;&#9;c0,0,14.534,35.905,19.389,47.871c0.162,0.403,0.559,0.669,0.994,0.669h153.102c0.377,0,0.754-0.13,0.988-0.507&#10;&#9;&#9;c8.346-13.539,33.487-54.091,33.487-54.091C315.738,222.552,315.745,222.136,315.556,221.798" id="el_FrH-T0bMKS"/>
</g></g>
<g id="el_EX5zH8AJ4s">
	<defs>
		<circle id="circle" cx="206.989" cy="208.64" r="196.998"/>
	</defs>
	<clipPath id="circle_4_">
		<use xlink:href="#circle" overflow="visible"/>
	</clipPath>
	<g clip-path="url(#circle_4_)" id="el_ZLkOu6taik">
		<g id="el_ziUY6VZc2e_mPNfizkRj" data-animator-group="true" data-animator-type="0"><g id="el_ziUY6VZc2e">
			<path d="M-11.017,279.698h0.011c0,0-0.011-0.212-0.006-0.278c0.1-1.432,2.782-2.722,2.782-2.722s0.28,0,0.284,0&#10;&#9;&#9;&#9;&#9;c0,0,0.012,0,0.017,0c0.722,0.047,14.604,0.78,21.181-5.362c2.237-2.089,3.332-4.719,3.342-8.036&#10;&#9;&#9;&#9;&#9;c0.004-1.43,1.13-2.602,2.559-2.602h0.259c1.456,0,2.597,1.193,2.608,2.649c0.025,3.255,1.136,5.839,3.404,7.894&#10;&#9;&#9;&#9;&#9;c5.304,4.818,15.276,5.368,19.569,5.361c4.809-0.116,13.115-0.978,17.815-5.219c2.3-2.066,3.43-4.699,3.459-8.02&#10;&#9;&#9;&#9;&#9;c0.011-1.24,0.856-2.376,2.073-2.613c1.673-0.326,3.143,0.912,3.143,2.482c0,3.309,1.113,5.93,3.404,8.009&#10;&#9;&#9;&#9;&#9;c4.938,4.486,13.919,5.266,18.603,5.354c4.847-0.144,12.924-1.056,17.541-5.213c2.29-2.06,3.423-4.683,3.458-7.99&#10;&#9;&#9;&#9;&#9;c0.013-1.259,0.867-2.425,2.106-2.65c1.66-0.301,3.11,0.93,3.11,2.489c0,3.309,1.111,5.93,3.401,8.009&#10;&#9;&#9;&#9;&#9;c4.971,4.515,14.034,5.278,18.691,5.354c4.842-0.144,12.948-1.045,17.574-5.213c2.297-2.063,3.43-4.69,3.462-8.005&#10;&#9;&#9;&#9;&#9;c0.012-1.203,0.788-2.336,1.96-2.606c1.731-0.399,3.256,0.857,3.256,2.46c0,3.309,1.113,5.93,3.403,8.009&#10;&#9;&#9;&#9;&#9;c6.85,6.216,21.478,5.325,21.626,5.314c1.433-0.082,2.683,0.957,2.781,2.349c0.101,1.402-0.981,2.608-2.418,2.708&#10;&#9;&#9;&#9;&#9;c-0.689,0.046-17.015,1.067-25.538-6.656c-0.938-0.852-1.755-1.779-2.438-2.77c-1.945,2.9-4.972,5.2-9.017,6.813&#10;&#9;&#9;&#9;&#9;c-3.478,1.389-7.267,2.073-10.509,2.403c-0.265,0.11-0.545,0.194-0.842,0.209c-0.177,0.013-1.425,0.088-3.306,0.067&#10;&#9;&#9;&#9;&#9;c-0.558,0.011-1.07,0.022-1.522,0.022c-1.49,0-2.823-0.004-3.772-0.35c-5.463-0.598-12.338-2.223-16.936-6.394&#10;&#9;&#9;&#9;&#9;c-0.946-0.852-1.758-1.779-2.439-2.77c-1.947,2.9-4.974,5.2-9.017,6.813c-3.422,1.36-7.139,2.047-10.341,2.385&#10;&#9;&#9;&#9;&#9;c-0.276,0.124-0.573,0.213-0.89,0.228c-0.18,0.013-1.463,0.095-3.393,0.067c-0.568,0.011-1.095,0.022-1.561,0.022&#10;&#9;&#9;&#9;&#9;c-1.515,0-2.856-0.011-3.806-0.367c-5.44-0.616-12.226-2.248-16.782-6.377c-0.945-0.852-1.757-1.779-2.436-2.77&#10;&#9;&#9;&#9;&#9;c-1.948,2.9-4.974,5.2-9.019,6.813c-4.046,1.615-8.51,2.279-12.051,2.542c-0.139,0.037-0.275,0.064-0.425,0.068&#10;&#9;&#9;&#9;&#9;c-0.07,0.006-0.319,0.025-0.7,0.035c-0.649,0.049-1.368,0.053-2.129,0.053c-0.138,0-0.44,1-0.44,1h-0.438&#10;&#9;&#9;&#9;&#9;c0,0-2.04-0.41-2.864-0.538c-3.595-0.25-8.24-0.924-12.439-2.645c-4.024-1.657-7.046-4.008-8.988-6.969&#10;&#9;&#9;&#9;&#9;c-1.951,2.964-4.97,5.315-8.997,6.969c-5.891,2.415-12.667,2.777-16.181,2.777c-0.761,0-1.481-0.004-2.127-0.054&#10;&#9;&#9;&#9;&#9;c-0.382-0.011-0.629-0.03-0.704-0.036c-0.436-0.029-0.834-0.171-1.186-0.395c-0.637-0.307-1.052-0.834-1.175-1.691&#10;&#9;&#9;&#9;&#9;c-0.025-0.128-0.041-0.252-0.047-0.384C-11.006,279.688-11.017,279.698-11.017,279.698z M190.273,305.559&#10;&#9;&#9;&#9;&#9;c-0.145,0.011-14.776,0.907-21.627-5.306c-2.255-2.05-3.37-4.62-3.404-7.862c-0.012-1.195-0.776-2.323-1.937-2.605&#10;&#9;&#9;&#9;&#9;c-1.726-0.419-3.277,0.836-3.277,2.452c0,3.388-1.134,6.056-3.462,8.151c-4.629,4.172-12.735,5.071-17.578,5.216&#10;&#9;&#9;&#9;&#9;c-4.658-0.08-13.716-0.846-18.687-5.356c-2.257-2.047-3.37-4.619-3.404-7.862c-0.012-1.198-0.779-2.327-1.944-2.605&#10;&#9;&#9;&#9;&#9;c-1.728-0.412-3.272,0.844-3.272,2.452c0,3.388-1.132,6.055-3.459,8.153c-4.616,4.159-12.691,5.065-17.539,5.209&#10;&#9;&#9;&#9;&#9;c-4.686-0.082-13.666-0.87-18.604-5.348c-2.255-2.051-3.37-4.62-3.403-7.864c-0.012-1.198-0.779-2.328-1.944-2.606&#10;&#9;&#9;&#9;&#9;c-1.728-0.412-3.273,0.841-3.273,2.455c0,3.386-1.129,6.053-3.458,8.151c-4.701,4.236-13.007,5.099-17.815,5.22&#10;&#9;&#9;&#9;&#9;c-4.295,0-14.266-0.54-19.57-5.361c-2.266-2.056-3.377-4.639-3.403-7.898c-0.012-1.456-1.152-2.648-2.608-2.648h-0.256&#10;&#9;&#9;&#9;&#9;c-1.43,0-2.556,1.172-2.561,2.602c-0.01,3.322-1.105,5.951-3.343,8.041c-6.578,6.138-20.463,5.405-21.185,5.362&#10;&#9;&#9;&#9;&#9;c-0.005,0-0.016-0.004-0.016-0.004c-0.004,0-0.282,0-0.282,0s-2.681,0.697-2.782,2.135c-0.004,0.058,0.006,0.865,0.006,0.865&#10;&#9;&#9;&#9;&#9;h-0.019c0,0,0.013-0.603,0.013-0.554c0.006,0.124,0.022,0.248,0.048,0.377c0.122,0.856,0.536,1.385,1.175,1.698&#10;&#9;&#9;&#9;&#9;c0.352,0.217,0.75,0.366,1.187,0.395c0.072,0.007,0.323,0.02,0.704,0.038c0.645,0.049,1.365,0.049,2.127,0.049&#10;&#9;&#9;&#9;&#9;c3.515,0,10.291-0.36,16.181-2.778c4.027-1.649,7.047-4.004,8.996-6.969c1.943,2.965,4.966,5.322,8.99,6.969&#10;&#9;&#9;&#9;&#9;c4.2,1.721,8.845,2.4,12.44,2.645c0.82,0.129,2.863,0.13,2.863,0.13s0.289,0,0.439,0c0.15,0,0.304,0,0.44,0&#10;&#9;&#9;&#9;&#9;c0.761,0,1.477,0,2.129-0.048c0.382-0.017,0.627-0.03,0.7-0.037c0.148-0.011,0.287-0.041,0.425-0.067&#10;&#9;&#9;&#9;&#9;c3.54-0.263,8.004-0.935,12.05-2.55c4.043-1.613,7.07-3.913,9.02-6.811c0.679,0.997,1.49,1.917,2.435,2.775&#10;&#9;&#9;&#9;&#9;c4.557,4.131,11.342,5.758,16.782,6.37c0.95,0.363,2.29,0.367,3.806,0.367c0.463,0,0.992-0.004,1.561-0.022&#10;&#9;&#9;&#9;&#9;c1.935,0.028,3.215-0.05,3.392-0.06c0.319-0.024,0.616-0.106,0.889-0.228c3.203-0.335,6.921-1.023,10.341-2.391&#10;&#9;&#9;&#9;&#9;c4.041-1.613,7.068-3.913,9.016-6.811c0.684,0.997,1.494,1.917,2.439,2.775c4.601,4.171,11.473,5.788,16.939,6.388&#10;&#9;&#9;&#9;&#9;c0.951,0.346,2.278,0.35,3.768,0.35c0.457,0,0.966-0.004,1.524-0.022c1.884,0.028,3.129-0.05,3.304-0.06&#10;&#9;&#9;&#9;&#9;c0.301-0.024,0.582-0.099,0.843-0.207c3.246-0.335,7.033-1.023,10.511-2.412c4.043-1.613,7.07-3.913,9.019-6.811&#10;&#9;&#9;&#9;&#9;c0.681,0.997,1.495,1.917,2.436,2.775c8.523,7.723,24.852,6.703,25.538,6.655c1.439-0.099,2.522-1.312,2.419-2.703&#10;&#9;&#9;&#9;&#9;C192.952,306.515,191.706,305.483,190.273,305.559z" id="el_3Gk9wh4Pof"/>
		</g></g>
		<g id="el_uQW_H8pdew6_KvmarFHaM" data-animator-group="true" data-animator-type="0"><g id="el_uQW_H8pdew6">
			<path d="M185.526,279.698h0.011c0,0-0.011-0.212-0.007-0.278c0.1-1.432,2.782-2.722,2.782-2.722s0.28,0,0.284,0&#10;&#9;&#9;&#9;&#9;c0,0,0.012,0,0.017,0c0.722,0.047,14.604,0.78,21.181-5.362c2.237-2.089,3.332-4.719,3.342-8.036&#10;&#9;&#9;&#9;&#9;c0.004-1.43,1.13-2.602,2.559-2.602h0.259c1.456,0,2.597,1.193,2.608,2.649c0.025,3.255,1.136,5.839,3.404,7.894&#10;&#9;&#9;&#9;&#9;c5.304,4.818,15.276,5.368,19.569,5.361c4.809-0.116,13.115-0.978,17.815-5.219c2.3-2.066,3.43-4.699,3.459-8.02&#10;&#9;&#9;&#9;&#9;c0.011-1.24,0.856-2.376,2.073-2.613c1.673-0.326,3.143,0.912,3.143,2.482c0,3.309,1.113,5.93,3.404,8.009&#10;&#9;&#9;&#9;&#9;c4.938,4.486,13.919,5.266,18.603,5.354c4.847-0.144,12.924-1.056,17.541-5.213c2.29-2.06,3.423-4.683,3.458-7.99&#10;&#9;&#9;&#9;&#9;c0.013-1.259,0.867-2.425,2.106-2.65c1.66-0.301,3.11,0.93,3.11,2.489c0,3.309,1.111,5.93,3.401,8.009&#10;&#9;&#9;&#9;&#9;c4.971,4.515,14.034,5.278,18.691,5.354c4.842-0.144,12.948-1.045,17.574-5.213c2.297-2.063,3.43-4.69,3.462-8.005&#10;&#9;&#9;&#9;&#9;c0.012-1.203,0.788-2.336,1.96-2.606c1.731-0.399,3.256,0.857,3.256,2.46c0,3.309,1.113,5.93,3.403,8.009&#10;&#9;&#9;&#9;&#9;c6.85,6.216,21.478,5.325,21.626,5.314c1.433-0.082,2.683,0.957,2.781,2.349c0.101,1.402-0.981,2.608-2.418,2.708&#10;&#9;&#9;&#9;&#9;c-0.689,0.046-17.016,1.067-25.538-6.656c-0.938-0.852-1.755-1.779-2.438-2.77c-1.945,2.9-4.972,5.2-9.017,6.813&#10;&#9;&#9;&#9;&#9;c-3.478,1.389-7.267,2.073-10.509,2.403c-0.265,0.11-0.545,0.194-0.842,0.209c-0.177,0.013-1.425,0.088-3.306,0.067&#10;&#9;&#9;&#9;&#9;c-0.558,0.011-1.07,0.022-1.522,0.022c-1.49,0-2.823-0.004-3.772-0.35c-5.463-0.598-12.338-2.223-16.936-6.394&#10;&#9;&#9;&#9;&#9;c-0.946-0.852-1.758-1.779-2.439-2.77c-1.947,2.9-4.974,5.2-9.017,6.813c-3.422,1.36-7.139,2.047-10.341,2.385&#10;&#9;&#9;&#9;&#9;c-0.276,0.124-0.573,0.213-0.89,0.228c-0.18,0.013-1.463,0.095-3.393,0.067c-0.568,0.011-1.095,0.022-1.561,0.022&#10;&#9;&#9;&#9;&#9;c-1.515,0-2.856-0.011-3.806-0.367c-5.44-0.616-12.226-2.248-16.781-6.377c-0.945-0.852-1.757-1.779-2.436-2.77&#10;&#9;&#9;&#9;&#9;c-1.948,2.9-4.974,5.2-9.019,6.813c-4.046,1.615-8.51,2.279-12.051,2.542c-0.139,0.037-0.275,0.064-0.425,0.068&#10;&#9;&#9;&#9;&#9;c-0.07,0.006-0.319,0.025-0.7,0.035c-0.649,0.049-1.368,0.053-2.129,0.053c-0.138,0-0.44,1-0.44,1h-0.438&#10;&#9;&#9;&#9;&#9;c0,0-2.04-0.41-2.864-0.538c-3.595-0.25-8.24-0.924-12.439-2.645c-4.024-1.657-7.046-4.008-8.988-6.969&#10;&#9;&#9;&#9;&#9;c-1.951,2.964-4.97,5.315-8.997,6.969c-5.891,2.415-12.667,2.777-16.181,2.777c-0.761,0-1.481-0.004-2.128-0.054&#10;&#9;&#9;&#9;&#9;c-0.382-0.011-0.629-0.03-0.704-0.036c-0.436-0.029-0.834-0.171-1.186-0.395c-0.637-0.307-1.052-0.834-1.175-1.691&#10;&#9;&#9;&#9;&#9;c-0.025-0.128-0.041-0.252-0.047-0.384C185.537,279.688,185.526,279.698,185.526,279.698z M386.816,305.559&#10;&#9;&#9;&#9;&#9;c-0.145,0.011-14.776,0.907-21.627-5.306c-2.255-2.05-3.37-4.62-3.404-7.862c-0.012-1.195-0.776-2.323-1.937-2.605&#10;&#9;&#9;&#9;&#9;c-1.726-0.419-3.277,0.836-3.277,2.452c0,3.388-1.134,6.056-3.462,8.151c-4.629,4.172-12.735,5.071-17.578,5.216&#10;&#9;&#9;&#9;&#9;c-4.658-0.08-13.716-0.846-18.687-5.356c-2.257-2.047-3.37-4.619-3.404-7.862c-0.012-1.198-0.779-2.327-1.944-2.605&#10;&#9;&#9;&#9;&#9;c-1.728-0.412-3.272,0.844-3.272,2.452c0,3.388-1.132,6.055-3.459,8.153c-4.616,4.159-12.691,5.065-17.539,5.209&#10;&#9;&#9;&#9;&#9;c-4.686-0.082-13.666-0.87-18.604-5.348c-2.255-2.051-3.37-4.62-3.403-7.864c-0.012-1.198-0.779-2.328-1.944-2.606&#10;&#9;&#9;&#9;&#9;c-1.728-0.412-3.273,0.841-3.273,2.455c0,3.386-1.129,6.053-3.458,8.151c-4.701,4.236-13.007,5.099-17.815,5.22&#10;&#9;&#9;&#9;&#9;c-4.295,0-14.266-0.54-19.57-5.361c-2.266-2.056-3.377-4.639-3.403-7.898c-0.012-1.456-1.152-2.648-2.608-2.648h-0.256&#10;&#9;&#9;&#9;&#9;c-1.43,0-2.556,1.172-2.561,2.602c-0.01,3.322-1.105,5.951-3.343,8.041c-6.578,6.138-20.463,5.405-21.185,5.362&#10;&#9;&#9;&#9;&#9;c-0.005,0-0.016-0.004-0.016-0.004c-0.004,0-0.282,0-0.282,0s-2.681,0.697-2.782,2.135c-0.004,0.058,0.006,0.865,0.006,0.865&#10;&#9;&#9;&#9;&#9;h-0.019c0,0,0.013-0.603,0.013-0.554c0.006,0.124,0.022,0.248,0.048,0.377c0.122,0.856,0.536,1.385,1.175,1.698&#10;&#9;&#9;&#9;&#9;c0.352,0.217,0.75,0.366,1.187,0.395c0.072,0.007,0.323,0.02,0.704,0.038c0.645,0.049,1.365,0.049,2.127,0.049&#10;&#9;&#9;&#9;&#9;c3.515,0,10.291-0.36,16.181-2.778c4.027-1.649,7.047-4.004,8.996-6.969c1.943,2.965,4.966,5.322,8.99,6.969&#10;&#9;&#9;&#9;&#9;c4.2,1.721,8.845,2.4,12.44,2.645c0.82,0.129,2.863,0.13,2.863,0.13s0.289,0,0.439,0c0.15,0,0.304,0,0.44,0&#10;&#9;&#9;&#9;&#9;c0.761,0,1.477,0,2.129-0.048c0.382-0.017,0.627-0.03,0.7-0.037c0.148-0.011,0.287-0.041,0.425-0.067&#10;&#9;&#9;&#9;&#9;c3.54-0.263,8.004-0.935,12.05-2.55c4.043-1.613,7.07-3.913,9.02-6.811c0.679,0.997,1.49,1.917,2.435,2.775&#10;&#9;&#9;&#9;&#9;c4.557,4.131,11.342,5.758,16.782,6.37c0.95,0.363,2.29,0.367,3.806,0.367c0.463,0,0.992-0.004,1.561-0.022&#10;&#9;&#9;&#9;&#9;c1.935,0.028,3.215-0.05,3.392-0.06c0.319-0.024,0.616-0.106,0.889-0.228c3.203-0.335,6.921-1.023,10.341-2.391&#10;&#9;&#9;&#9;&#9;c4.041-1.613,7.068-3.913,9.016-6.811c0.684,0.997,1.494,1.917,2.439,2.775c4.6,4.171,11.473,5.788,16.939,6.388&#10;&#9;&#9;&#9;&#9;c0.951,0.346,2.278,0.35,3.768,0.35c0.457,0,0.966-0.004,1.524-0.022c1.884,0.028,3.129-0.05,3.304-0.06&#10;&#9;&#9;&#9;&#9;c0.301-0.024,0.582-0.099,0.843-0.207c3.246-0.335,7.033-1.023,10.511-2.412c4.043-1.613,7.07-3.913,9.019-6.811&#10;&#9;&#9;&#9;&#9;c0.681,0.997,1.495,1.917,2.436,2.775c8.523,7.723,24.852,6.703,25.538,6.655c1.439-0.099,2.522-1.312,2.419-2.703&#10;&#9;&#9;&#9;&#9;C389.495,306.515,388.249,305.483,386.816,305.559z" id="el_gqd4xNQUhHk"/>
		</g></g>
	</g>
	<g clip-path="url(#circle_4_)" id="el_n5ZtXdm4fJa">
		<g id="el_7tvdeN4XOoN_aSqWcqP4j" data-animator-group="true" data-animator-type="0"><g id="el_7tvdeN4XOoN">
			<path d="M382.725,279.698h0.011c0,0-0.011-0.212-0.007-0.278c0.1-1.432,2.782-2.722,2.782-2.722s0.28,0,0.284,0&#10;&#9;&#9;&#9;&#9;c0,0,0.012,0,0.017,0c0.722,0.047,14.604,0.78,21.181-5.362c2.237-2.089,3.332-4.719,3.342-8.036&#10;&#9;&#9;&#9;&#9;c0.004-1.43,1.13-2.602,2.559-2.602h0.259c1.456,0,2.597,1.193,2.608,2.649c0.025,3.255,1.136,5.839,3.404,7.894&#10;&#9;&#9;&#9;&#9;c5.304,4.818,15.276,5.368,19.569,5.361c4.809-0.116,13.115-0.978,17.815-5.219c2.3-2.066,3.43-4.699,3.459-8.02&#10;&#9;&#9;&#9;&#9;c0.011-1.24,0.856-2.376,2.073-2.613c1.673-0.326,3.143,0.912,3.143,2.482c0,3.309,1.113,5.93,3.404,8.009&#10;&#9;&#9;&#9;&#9;c4.938,4.486,13.919,5.266,18.603,5.354c4.847-0.144,12.924-1.056,17.541-5.213c2.29-2.06,3.423-4.683,3.458-7.99&#10;&#9;&#9;&#9;&#9;c0.013-1.259,0.867-2.425,2.106-2.65c1.66-0.301,3.11,0.93,3.11,2.489c0,3.309,1.111,5.93,3.401,8.009&#10;&#9;&#9;&#9;&#9;c4.971,4.515,14.034,5.278,18.691,5.354c4.842-0.144,12.948-1.045,17.574-5.213c2.297-2.063,3.43-4.69,3.462-8.005&#10;&#9;&#9;&#9;&#9;c0.012-1.203,0.788-2.336,1.96-2.606c1.731-0.399,3.256,0.857,3.256,2.46c0,3.309,1.113,5.93,3.403,8.009&#10;&#9;&#9;&#9;&#9;c6.85,6.216,21.478,5.325,21.626,5.314c1.433-0.082,2.683,0.957,2.781,2.349c0.101,1.402-0.981,2.608-2.418,2.708&#10;&#9;&#9;&#9;&#9;c-0.689,0.046-17.015,1.067-25.538-6.656c-0.938-0.852-1.755-1.779-2.438-2.77c-1.945,2.9-4.972,5.2-9.017,6.813&#10;&#9;&#9;&#9;&#9;c-3.478,1.389-7.267,2.073-10.509,2.403c-0.265,0.11-0.545,0.194-0.842,0.209c-0.177,0.013-1.425,0.088-3.306,0.067&#10;&#9;&#9;&#9;&#9;c-0.558,0.011-1.07,0.022-1.522,0.022c-1.49,0-2.823-0.004-3.772-0.35c-5.463-0.598-12.338-2.223-16.936-6.394&#10;&#9;&#9;&#9;&#9;c-0.946-0.852-1.758-1.779-2.439-2.77c-1.947,2.9-4.974,5.2-9.017,6.813c-3.422,1.36-7.139,2.047-10.341,2.385&#10;&#9;&#9;&#9;&#9;c-0.276,0.124-0.573,0.213-0.89,0.228c-0.18,0.013-1.463,0.095-3.393,0.067c-0.568,0.011-1.095,0.022-1.561,0.022&#10;&#9;&#9;&#9;&#9;c-1.515,0-2.856-0.011-3.806-0.367c-5.44-0.616-12.226-2.248-16.781-6.377c-0.945-0.852-1.757-1.779-2.436-2.77&#10;&#9;&#9;&#9;&#9;c-1.948,2.9-4.974,5.2-9.019,6.813c-4.046,1.615-8.51,2.279-12.051,2.542c-0.139,0.037-0.275,0.064-0.425,0.068&#10;&#9;&#9;&#9;&#9;c-0.07,0.006-0.319,0.025-0.7,0.035c-0.649,0.049-1.368,0.053-2.129,0.053c-0.138,0-0.44,1-0.44,1h-0.438&#10;&#9;&#9;&#9;&#9;c0,0-2.04-0.41-2.864-0.538c-3.595-0.25-8.24-0.924-12.439-2.645c-4.024-1.657-7.046-4.008-8.988-6.969&#10;&#9;&#9;&#9;&#9;c-1.951,2.964-4.97,5.315-8.997,6.969c-5.891,2.415-12.667,2.777-16.181,2.777c-0.761,0-1.481-0.004-2.128-0.054&#10;&#9;&#9;&#9;&#9;c-0.382-0.011-0.629-0.03-0.704-0.036c-0.436-0.029-0.834-0.171-1.186-0.395c-0.637-0.307-1.052-0.834-1.175-1.691&#10;&#9;&#9;&#9;&#9;c-0.025-0.128-0.041-0.252-0.047-0.384C382.736,279.688,382.725,279.698,382.725,279.698z M584.015,305.559&#10;&#9;&#9;&#9;&#9;c-0.145,0.011-14.776,0.907-21.627-5.306c-2.255-2.05-3.37-4.62-3.404-7.862c-0.012-1.195-0.776-2.323-1.937-2.605&#10;&#9;&#9;&#9;&#9;c-1.726-0.419-3.277,0.836-3.277,2.452c0,3.388-1.134,6.056-3.462,8.151c-4.629,4.172-12.735,5.071-17.578,5.216&#10;&#9;&#9;&#9;&#9;c-4.658-0.08-13.716-0.846-18.687-5.356c-2.257-2.047-3.37-4.619-3.404-7.862c-0.012-1.198-0.779-2.327-1.944-2.605&#10;&#9;&#9;&#9;&#9;c-1.728-0.412-3.272,0.844-3.272,2.452c0,3.388-1.132,6.055-3.459,8.153c-4.616,4.159-12.691,5.065-17.539,5.209&#10;&#9;&#9;&#9;&#9;c-4.686-0.082-13.666-0.87-18.604-5.348c-2.255-2.051-3.37-4.62-3.403-7.864c-0.012-1.198-0.779-2.328-1.944-2.606&#10;&#9;&#9;&#9;&#9;c-1.728-0.412-3.273,0.841-3.273,2.455c0,3.386-1.129,6.053-3.458,8.151c-4.701,4.236-13.007,5.099-17.815,5.22&#10;&#9;&#9;&#9;&#9;c-4.295,0-14.266-0.54-19.57-5.361c-2.266-2.056-3.377-4.639-3.403-7.898c-0.012-1.456-1.152-2.648-2.608-2.648h-0.256&#10;&#9;&#9;&#9;&#9;c-1.43,0-2.556,1.172-2.561,2.602c-0.01,3.322-1.105,5.951-3.343,8.041c-6.578,6.138-20.463,5.405-21.185,5.362&#10;&#9;&#9;&#9;&#9;c-0.005,0-0.016-0.004-0.016-0.004c-0.004,0-0.282,0-0.282,0s-2.681,0.697-2.782,2.135c-0.004,0.058,0.007,0.865,0.007,0.865&#10;&#9;&#9;&#9;&#9;h-0.02c0,0,0.013-0.603,0.013-0.554c0.006,0.124,0.022,0.248,0.048,0.377c0.122,0.856,0.536,1.385,1.175,1.698&#10;&#9;&#9;&#9;&#9;c0.352,0.217,0.75,0.366,1.187,0.395c0.072,0.007,0.323,0.02,0.704,0.038c0.645,0.049,1.365,0.049,2.127,0.049&#10;&#9;&#9;&#9;&#9;c3.515,0,10.291-0.36,16.181-2.778c4.027-1.649,7.047-4.004,8.996-6.969c1.943,2.965,4.966,5.322,8.99,6.969&#10;&#9;&#9;&#9;&#9;c4.2,1.721,8.845,2.4,12.44,2.645c0.82,0.129,2.863,0.13,2.863,0.13s0.289,0,0.439,0c0.15,0,0.304,0,0.44,0&#10;&#9;&#9;&#9;&#9;c0.761,0,1.477,0,2.129-0.048c0.382-0.017,0.627-0.03,0.7-0.037c0.148-0.011,0.287-0.041,0.425-0.067&#10;&#9;&#9;&#9;&#9;c3.54-0.263,8.004-0.935,12.05-2.55c4.043-1.613,7.07-3.913,9.02-6.811c0.679,0.997,1.49,1.917,2.435,2.775&#10;&#9;&#9;&#9;&#9;c4.557,4.131,11.342,5.758,16.782,6.37c0.95,0.363,2.29,0.367,3.806,0.367c0.463,0,0.992-0.004,1.561-0.022&#10;&#9;&#9;&#9;&#9;c1.935,0.028,3.215-0.05,3.392-0.06c0.319-0.024,0.616-0.106,0.889-0.228c3.203-0.335,6.921-1.023,10.341-2.391&#10;&#9;&#9;&#9;&#9;c4.041-1.613,7.068-3.913,9.016-6.811c0.684,0.997,1.494,1.917,2.439,2.775c4.601,4.171,11.473,5.788,16.939,6.388&#10;&#9;&#9;&#9;&#9;c0.951,0.346,2.278,0.35,3.768,0.35c0.457,0,0.966-0.004,1.524-0.022c1.884,0.028,3.129-0.05,3.304-0.06&#10;&#9;&#9;&#9;&#9;c0.301-0.024,0.582-0.099,0.843-0.207c3.246-0.335,7.033-1.023,10.511-2.412c4.043-1.613,7.07-3.913,9.018-6.811&#10;&#9;&#9;&#9;&#9;c0.681,0.997,1.495,1.917,2.436,2.775c8.523,7.723,24.852,6.703,25.538,6.655c1.439-0.099,2.522-1.312,2.419-2.703&#10;&#9;&#9;&#9;&#9;C586.694,306.515,585.448,305.483,584.015,305.559z" id="el_3ZdxWBUozzH"/>
		</g></g>
		<g id="el_OGUCFIQ7VMW_PeMxnIfM7" data-animator-group="true" data-animator-type="0"><g id="el_OGUCFIQ7VMW">
			<path d="M579.269,279.698h0.011c0,0-0.011-0.212-0.007-0.278c0.1-1.432,2.782-2.722,2.782-2.722s0.279,0,0.284,0&#10;&#9;&#9;&#9;&#9;c0,0,0.012,0,0.017,0c0.722,0.047,14.604,0.78,21.181-5.362c2.237-2.089,3.332-4.719,3.342-8.036&#10;&#9;&#9;&#9;&#9;c0.004-1.43,1.13-2.602,2.559-2.602h0.259c1.456,0,2.597,1.193,2.608,2.649c0.025,3.255,1.136,5.839,3.404,7.894&#10;&#9;&#9;&#9;&#9;c5.304,4.818,15.276,5.368,19.569,5.361c4.809-0.116,13.115-0.978,17.815-5.219c2.3-2.066,3.43-4.699,3.459-8.02&#10;&#9;&#9;&#9;&#9;c0.011-1.24,0.856-2.376,2.073-2.613c1.673-0.326,3.143,0.912,3.143,2.482c0,3.309,1.113,5.93,3.404,8.009&#10;&#9;&#9;&#9;&#9;c4.938,4.486,13.919,5.266,18.603,5.354c4.847-0.144,12.924-1.056,17.541-5.213c2.29-2.06,3.423-4.683,3.458-7.99&#10;&#9;&#9;&#9;&#9;c0.013-1.259,0.867-2.425,2.106-2.65c1.66-0.301,3.11,0.93,3.11,2.489c0,3.309,1.111,5.93,3.401,8.009&#10;&#9;&#9;&#9;&#9;c4.971,4.515,14.034,5.278,18.691,5.354c4.842-0.144,12.948-1.045,17.574-5.213c2.297-2.063,3.43-4.69,3.462-8.005&#10;&#9;&#9;&#9;&#9;c0.012-1.203,0.787-2.336,1.96-2.606c1.731-0.399,3.256,0.857,3.256,2.46c0,3.309,1.113,5.93,3.403,8.009&#10;&#9;&#9;&#9;&#9;c6.85,6.216,21.478,5.325,21.626,5.314c1.433-0.082,2.683,0.957,2.781,2.349c0.101,1.402-0.981,2.608-2.418,2.708&#10;&#9;&#9;&#9;&#9;c-0.689,0.046-17.016,1.067-25.538-6.656c-0.938-0.852-1.755-1.779-2.438-2.77c-1.945,2.9-4.972,5.2-9.017,6.813&#10;&#9;&#9;&#9;&#9;c-3.478,1.389-7.267,2.073-10.509,2.403c-0.265,0.11-0.545,0.194-0.842,0.209c-0.177,0.013-1.425,0.088-3.306,0.067&#10;&#9;&#9;&#9;&#9;c-0.558,0.011-1.07,0.022-1.522,0.022c-1.49,0-2.823-0.004-3.772-0.35c-5.463-0.598-12.338-2.223-16.936-6.394&#10;&#9;&#9;&#9;&#9;c-0.946-0.852-1.758-1.779-2.439-2.77c-1.947,2.9-4.974,5.2-9.017,6.813c-3.422,1.36-7.139,2.047-10.341,2.385&#10;&#9;&#9;&#9;&#9;c-0.276,0.124-0.573,0.213-0.89,0.228c-0.18,0.013-1.463,0.095-3.393,0.067c-0.568,0.011-1.095,0.022-1.561,0.022&#10;&#9;&#9;&#9;&#9;c-1.515,0-2.856-0.011-3.806-0.367c-5.44-0.616-12.226-2.248-16.781-6.377c-0.945-0.852-1.757-1.779-2.436-2.77&#10;&#9;&#9;&#9;&#9;c-1.948,2.9-4.974,5.2-9.019,6.813c-4.046,1.615-8.51,2.279-12.051,2.542c-0.139,0.037-0.275,0.064-0.425,0.068&#10;&#9;&#9;&#9;&#9;c-0.07,0.006-0.319,0.025-0.7,0.035c-0.649,0.049-1.368,0.053-2.129,0.053c-0.138,0-0.44,1-0.44,1h-0.438&#10;&#9;&#9;&#9;&#9;c0,0-2.04-0.41-2.864-0.538c-3.595-0.25-8.24-0.924-12.439-2.645c-4.024-1.657-7.046-4.008-8.988-6.969&#10;&#9;&#9;&#9;&#9;c-1.951,2.964-4.97,5.315-8.997,6.969c-5.891,2.415-12.667,2.777-16.181,2.777c-0.761,0-1.481-0.004-2.128-0.054&#10;&#9;&#9;&#9;&#9;c-0.382-0.011-0.629-0.03-0.704-0.036c-0.436-0.029-0.834-0.171-1.186-0.395c-0.637-0.307-1.052-0.834-1.175-1.691&#10;&#9;&#9;&#9;&#9;c-0.025-0.128-0.041-0.252-0.047-0.384C579.279,279.688,579.269,279.698,579.269,279.698z M780.558,305.559&#10;&#9;&#9;&#9;&#9;c-0.145,0.011-14.776,0.907-21.627-5.306c-2.255-2.05-3.37-4.62-3.404-7.862c-0.012-1.195-0.776-2.323-1.937-2.605&#10;&#9;&#9;&#9;&#9;c-1.726-0.419-3.277,0.836-3.277,2.452c0,3.388-1.134,6.056-3.462,8.151c-4.629,4.172-12.735,5.071-17.578,5.216&#10;&#9;&#9;&#9;&#9;c-4.658-0.08-13.716-0.846-18.687-5.356c-2.257-2.047-3.37-4.619-3.404-7.862c-0.013-1.198-0.779-2.327-1.944-2.605&#10;&#9;&#9;&#9;&#9;c-1.728-0.412-3.272,0.844-3.272,2.452c0,3.388-1.132,6.055-3.459,8.153c-4.616,4.159-12.691,5.065-17.539,5.209&#10;&#9;&#9;&#9;&#9;c-4.686-0.082-13.666-0.87-18.604-5.348c-2.255-2.051-3.37-4.62-3.403-7.864c-0.012-1.198-0.779-2.328-1.944-2.606&#10;&#9;&#9;&#9;&#9;c-1.728-0.412-3.273,0.841-3.273,2.455c0,3.386-1.129,6.053-3.458,8.151c-4.701,4.236-13.007,5.099-17.815,5.22&#10;&#9;&#9;&#9;&#9;c-4.295,0-14.266-0.54-19.57-5.361c-2.266-2.056-3.377-4.639-3.403-7.898c-0.012-1.456-1.152-2.648-2.608-2.648h-0.256&#10;&#9;&#9;&#9;&#9;c-1.43,0-2.556,1.172-2.561,2.602c-0.01,3.322-1.105,5.951-3.343,8.041c-6.578,6.138-20.463,5.405-21.185,5.362&#10;&#9;&#9;&#9;&#9;c-0.005,0-0.016-0.004-0.016-0.004c-0.004,0-0.282,0-0.282,0s-2.681,0.697-2.782,2.135c-0.004,0.058,0.006,0.865,0.006,0.865&#10;&#9;&#9;&#9;&#9;h-0.019c0,0,0.013-0.603,0.013-0.554c0.006,0.124,0.022,0.248,0.048,0.377c0.122,0.856,0.536,1.385,1.175,1.698&#10;&#9;&#9;&#9;&#9;c0.352,0.217,0.75,0.366,1.187,0.395c0.072,0.007,0.323,0.02,0.704,0.038c0.645,0.049,1.365,0.049,2.127,0.049&#10;&#9;&#9;&#9;&#9;c3.515,0,10.291-0.36,16.181-2.778c4.027-1.649,7.047-4.004,8.996-6.969c1.943,2.965,4.966,5.322,8.99,6.969&#10;&#9;&#9;&#9;&#9;c4.2,1.721,8.845,2.4,12.44,2.645c0.82,0.129,2.863,0.13,2.863,0.13s0.289,0,0.439,0c0.15,0,0.304,0,0.44,0&#10;&#9;&#9;&#9;&#9;c0.761,0,1.477,0,2.129-0.048c0.382-0.017,0.627-0.03,0.7-0.037c0.148-0.011,0.287-0.041,0.425-0.067&#10;&#9;&#9;&#9;&#9;c3.54-0.263,8.004-0.935,12.05-2.55c4.043-1.613,7.07-3.913,9.02-6.811c0.679,0.997,1.49,1.917,2.435,2.775&#10;&#9;&#9;&#9;&#9;c4.557,4.131,11.342,5.758,16.782,6.37c0.95,0.363,2.29,0.367,3.806,0.367c0.463,0,0.992-0.004,1.561-0.022&#10;&#9;&#9;&#9;&#9;c1.935,0.028,3.215-0.05,3.392-0.06c0.319-0.024,0.616-0.106,0.889-0.228c3.203-0.335,6.921-1.023,10.341-2.391&#10;&#9;&#9;&#9;&#9;c4.041-1.613,7.068-3.913,9.016-6.811c0.684,0.997,1.494,1.917,2.439,2.775c4.6,4.171,11.473,5.788,16.939,6.388&#10;&#9;&#9;&#9;&#9;c0.951,0.346,2.278,0.35,3.768,0.35c0.457,0,0.966-0.004,1.524-0.022c1.884,0.028,3.129-0.05,3.304-0.06&#10;&#9;&#9;&#9;&#9;c0.301-0.024,0.582-0.099,0.843-0.207c3.246-0.335,7.033-1.023,10.511-2.412c4.043-1.613,7.07-3.913,9.019-6.811&#10;&#9;&#9;&#9;&#9;c0.681,0.997,1.495,1.917,2.436,2.775c8.523,7.723,24.852,6.703,25.538,6.655c1.439-0.099,2.522-1.312,2.419-2.703&#10;&#9;&#9;&#9;&#9;C783.237,306.515,781.991,305.483,780.558,305.559z" id="el_Zomt1SrBtc-"/>
		</g></g>
	</g>
	<g clip-path="url(#circle_4_)" id="el_jt4g1kZG926">
		<g id="el__Z7PCK7EJwy_akiOE9-gA" data-animator-group="true" data-animator-type="0"><g id="el__Z7PCK7EJwy">
			<path d="M777.04,279.698h0.011c0,0-0.011-0.212-0.006-0.278c0.1-1.432,2.782-2.722,2.782-2.722s0.28,0,0.284,0&#10;&#9;&#9;&#9;&#9;c0,0,0.012,0,0.017,0c0.722,0.047,14.604,0.78,21.181-5.362c2.237-2.089,3.332-4.719,3.342-8.036&#10;&#9;&#9;&#9;&#9;c0.004-1.43,1.13-2.602,2.56-2.602h0.259c1.456,0,2.597,1.193,2.608,2.649c0.025,3.255,1.137,5.839,3.404,7.894&#10;&#9;&#9;&#9;&#9;c5.304,4.818,15.276,5.368,19.569,5.361c4.809-0.116,13.115-0.978,17.815-5.219c2.3-2.066,3.43-4.699,3.459-8.02&#10;&#9;&#9;&#9;&#9;c0.011-1.24,0.856-2.376,2.073-2.613c1.673-0.326,3.143,0.912,3.143,2.482c0,3.309,1.113,5.93,3.404,8.009&#10;&#9;&#9;&#9;&#9;c4.938,4.486,13.919,5.266,18.603,5.354c4.847-0.144,12.924-1.056,17.541-5.213c2.29-2.06,3.423-4.683,3.458-7.99&#10;&#9;&#9;&#9;&#9;c0.013-1.259,0.867-2.425,2.106-2.65c1.66-0.301,3.11,0.93,3.11,2.489c0,3.309,1.111,5.93,3.401,8.009&#10;&#9;&#9;&#9;&#9;c4.971,4.515,14.034,5.278,18.691,5.354c4.842-0.144,12.948-1.045,17.574-5.213c2.297-2.063,3.43-4.69,3.462-8.005&#10;&#9;&#9;&#9;&#9;c0.012-1.203,0.788-2.336,1.96-2.606c1.731-0.399,3.256,0.857,3.256,2.46c0,3.309,1.113,5.93,3.403,8.009&#10;&#9;&#9;&#9;&#9;c6.85,6.216,21.478,5.325,21.626,5.314c1.433-0.082,2.683,0.957,2.781,2.349c0.101,1.402-0.981,2.608-2.418,2.708&#10;&#9;&#9;&#9;&#9;c-0.689,0.046-17.016,1.067-25.538-6.656c-0.938-0.852-1.755-1.779-2.438-2.77c-1.945,2.9-4.972,5.2-9.017,6.813&#10;&#9;&#9;&#9;&#9;c-3.478,1.389-7.267,2.073-10.509,2.403c-0.265,0.11-0.545,0.194-0.842,0.209c-0.177,0.013-1.425,0.088-3.306,0.067&#10;&#9;&#9;&#9;&#9;c-0.558,0.011-1.07,0.022-1.522,0.022c-1.49,0-2.823-0.004-3.772-0.35c-5.463-0.598-12.338-2.223-16.936-6.394&#10;&#9;&#9;&#9;&#9;c-0.946-0.852-1.758-1.779-2.439-2.77c-1.947,2.9-4.974,5.2-9.017,6.813c-3.422,1.36-7.139,2.047-10.341,2.385&#10;&#9;&#9;&#9;&#9;c-0.276,0.124-0.573,0.213-0.89,0.228c-0.18,0.013-1.463,0.095-3.393,0.067c-0.568,0.011-1.095,0.022-1.561,0.022&#10;&#9;&#9;&#9;&#9;c-1.515,0-2.856-0.011-3.806-0.367c-5.44-0.616-12.226-2.248-16.781-6.377c-0.945-0.852-1.757-1.779-2.436-2.77&#10;&#9;&#9;&#9;&#9;c-1.948,2.9-4.974,5.2-9.019,6.813c-4.046,1.615-8.51,2.279-12.051,2.542c-0.139,0.037-0.275,0.064-0.425,0.068&#10;&#9;&#9;&#9;&#9;c-0.07,0.006-0.319,0.025-0.7,0.035c-0.649,0.049-1.368,0.053-2.129,0.053c-0.138,0-0.44,1-0.44,1h-0.438&#10;&#9;&#9;&#9;&#9;c0,0-2.04-0.41-2.864-0.538c-3.595-0.25-8.24-0.924-12.439-2.645c-4.024-1.657-7.046-4.008-8.988-6.969&#10;&#9;&#9;&#9;&#9;c-1.951,2.964-4.97,5.315-8.997,6.969c-5.891,2.415-12.667,2.777-16.181,2.777c-0.761,0-1.481-0.004-2.128-0.054&#10;&#9;&#9;&#9;&#9;c-0.382-0.011-0.629-0.03-0.704-0.036c-0.436-0.029-0.834-0.171-1.186-0.395c-0.637-0.307-1.052-0.834-1.175-1.691&#10;&#9;&#9;&#9;&#9;c-0.025-0.128-0.041-0.252-0.047-0.384C777.051,279.688,777.04,279.698,777.04,279.698z M978.33,305.559&#10;&#9;&#9;&#9;&#9;c-0.145,0.011-14.776,0.907-21.627-5.306c-2.255-2.05-3.37-4.62-3.404-7.862c-0.013-1.195-0.776-2.323-1.937-2.605&#10;&#9;&#9;&#9;&#9;c-1.726-0.419-3.277,0.836-3.277,2.452c0,3.388-1.134,6.056-3.462,8.151c-4.629,4.172-12.735,5.071-17.578,5.216&#10;&#9;&#9;&#9;&#9;c-4.658-0.08-13.716-0.846-18.687-5.356c-2.257-2.047-3.37-4.619-3.404-7.862c-0.012-1.198-0.779-2.327-1.944-2.605&#10;&#9;&#9;&#9;&#9;c-1.728-0.412-3.272,0.844-3.272,2.452c0,3.388-1.132,6.055-3.459,8.153c-4.616,4.159-12.691,5.065-17.539,5.209&#10;&#9;&#9;&#9;&#9;c-4.686-0.082-13.666-0.87-18.604-5.348c-2.255-2.051-3.37-4.62-3.403-7.864c-0.012-1.198-0.779-2.328-1.944-2.606&#10;&#9;&#9;&#9;&#9;c-1.728-0.412-3.273,0.841-3.273,2.455c0,3.386-1.129,6.053-3.458,8.151c-4.701,4.236-13.007,5.099-17.815,5.22&#10;&#9;&#9;&#9;&#9;c-4.295,0-14.266-0.54-19.57-5.361c-2.266-2.056-3.377-4.639-3.403-7.898c-0.012-1.456-1.152-2.648-2.608-2.648h-0.256&#10;&#9;&#9;&#9;&#9;c-1.43,0-2.556,1.172-2.561,2.602c-0.01,3.322-1.105,5.951-3.343,8.041c-6.578,6.138-20.463,5.405-21.185,5.362&#10;&#9;&#9;&#9;&#9;c-0.005,0-0.016-0.004-0.016-0.004c-0.004,0-0.282,0-0.282,0s-2.681,0.697-2.782,2.135c-0.004,0.058,0.007,0.865,0.007,0.865&#10;&#9;&#9;&#9;&#9;h-0.019c0,0,0.013-0.603,0.013-0.554c0.006,0.124,0.022,0.248,0.048,0.377c0.122,0.856,0.536,1.385,1.175,1.698&#10;&#9;&#9;&#9;&#9;c0.352,0.217,0.75,0.366,1.187,0.395c0.072,0.007,0.323,0.02,0.704,0.038c0.645,0.049,1.365,0.049,2.127,0.049&#10;&#9;&#9;&#9;&#9;c3.515,0,10.291-0.36,16.181-2.778c4.027-1.649,7.047-4.004,8.996-6.969c1.943,2.965,4.966,5.322,8.99,6.969&#10;&#9;&#9;&#9;&#9;c4.2,1.721,8.845,2.4,12.44,2.645c0.82,0.129,2.863,0.13,2.863,0.13s0.289,0,0.439,0c0.15,0,0.304,0,0.44,0&#10;&#9;&#9;&#9;&#9;c0.761,0,1.477,0,2.129-0.048c0.382-0.017,0.627-0.03,0.7-0.037c0.148-0.011,0.287-0.041,0.425-0.067&#10;&#9;&#9;&#9;&#9;c3.54-0.263,8.004-0.935,12.05-2.55c4.043-1.613,7.07-3.913,9.02-6.811c0.679,0.997,1.49,1.917,2.435,2.775&#10;&#9;&#9;&#9;&#9;c4.557,4.131,11.342,5.758,16.782,6.37c0.95,0.363,2.29,0.367,3.806,0.367c0.463,0,0.992-0.004,1.561-0.022&#10;&#9;&#9;&#9;&#9;c1.935,0.028,3.215-0.05,3.392-0.06c0.319-0.024,0.616-0.106,0.889-0.228c3.203-0.335,6.921-1.023,10.341-2.391&#10;&#9;&#9;&#9;&#9;c4.041-1.613,7.068-3.913,9.016-6.811c0.684,0.997,1.494,1.917,2.439,2.775c4.601,4.171,11.473,5.788,16.939,6.388&#10;&#9;&#9;&#9;&#9;c0.951,0.346,2.278,0.35,3.768,0.35c0.457,0,0.966-0.004,1.524-0.022c1.884,0.028,3.129-0.05,3.304-0.06&#10;&#9;&#9;&#9;&#9;c0.301-0.024,0.582-0.099,0.843-0.207c3.246-0.335,7.033-1.023,10.511-2.412c4.043-1.613,7.07-3.913,9.019-6.811&#10;&#9;&#9;&#9;&#9;c0.68,0.997,1.495,1.917,2.436,2.775c8.523,7.723,24.852,6.703,25.538,6.655c1.439-0.099,2.522-1.312,2.419-2.703&#10;&#9;&#9;&#9;&#9;C981.009,306.515,979.763,305.483,978.33,305.559z" id="el_S6MRv3Ycrs2"/>
		</g></g>
		<g id="el_xS0kK9J9c0p_2_8i4xf5S" data-animator-group="true" data-animator-type="0"><g id="el_xS0kK9J9c0p">
			<path d="M973.583,279.698h0.011c0,0-0.011-0.212-0.006-0.278c0.1-1.432,2.782-2.722,2.782-2.722s0.28,0,0.284,0&#10;&#9;&#9;&#9;&#9;c0,0,0.012,0,0.017,0c0.722,0.047,14.604,0.78,21.181-5.362c2.237-2.089,3.332-4.719,3.342-8.036&#10;&#9;&#9;&#9;&#9;c0.004-1.43,1.13-2.602,2.56-2.602h0.259c1.456,0,2.597,1.193,2.608,2.649c0.025,3.255,1.136,5.839,3.404,7.894&#10;&#9;&#9;&#9;&#9;c5.304,4.818,15.276,5.368,19.569,5.361c4.809-0.116,13.115-0.978,17.815-5.219c2.3-2.066,3.431-4.699,3.459-8.02&#10;&#9;&#9;&#9;&#9;c0.011-1.24,0.856-2.376,2.073-2.613c1.673-0.326,3.143,0.912,3.143,2.482c0,3.309,1.113,5.93,3.404,8.009&#10;&#9;&#9;&#9;&#9;c4.938,4.486,13.919,5.266,18.603,5.354c4.847-0.144,12.924-1.056,17.541-5.213c2.29-2.06,3.423-4.683,3.458-7.99&#10;&#9;&#9;&#9;&#9;c0.013-1.259,0.867-2.425,2.106-2.65c1.66-0.301,3.11,0.93,3.11,2.489c0,3.309,1.111,5.93,3.401,8.009&#10;&#9;&#9;&#9;&#9;c4.971,4.515,14.034,5.278,18.691,5.354c4.842-0.144,12.948-1.045,17.574-5.213c2.297-2.063,3.43-4.69,3.462-8.005&#10;&#9;&#9;&#9;&#9;c0.012-1.203,0.787-2.336,1.96-2.606c1.731-0.399,3.256,0.857,3.256,2.46c0,3.309,1.113,5.93,3.403,8.009&#10;&#9;&#9;&#9;&#9;c6.85,6.216,21.478,5.325,21.626,5.314c1.433-0.082,2.683,0.957,2.781,2.349c0.101,1.402-0.981,2.608-2.418,2.708&#10;&#9;&#9;&#9;&#9;c-0.689,0.046-17.016,1.067-25.538-6.656c-0.938-0.852-1.755-1.779-2.438-2.77c-1.945,2.9-4.972,5.2-9.017,6.813&#10;&#9;&#9;&#9;&#9;c-3.478,1.389-7.267,2.073-10.509,2.403c-0.265,0.11-0.545,0.194-0.842,0.209c-0.177,0.013-1.425,0.088-3.306,0.067&#10;&#9;&#9;&#9;&#9;c-0.558,0.011-1.07,0.022-1.522,0.022c-1.49,0-2.823-0.004-3.772-0.35c-5.463-0.598-12.338-2.223-16.936-6.394&#10;&#9;&#9;&#9;&#9;c-0.946-0.852-1.758-1.779-2.439-2.77c-1.947,2.9-4.974,5.2-9.017,6.813c-3.422,1.36-7.139,2.047-10.341,2.385&#10;&#9;&#9;&#9;&#9;c-0.276,0.124-0.573,0.213-0.89,0.228c-0.18,0.013-1.463,0.095-3.393,0.067c-0.568,0.011-1.095,0.022-1.561,0.022&#10;&#9;&#9;&#9;&#9;c-1.515,0-2.856-0.011-3.806-0.367c-5.44-0.616-12.226-2.248-16.781-6.377c-0.945-0.852-1.757-1.779-2.436-2.77&#10;&#9;&#9;&#9;&#9;c-1.948,2.9-4.974,5.2-9.019,6.813c-4.046,1.615-8.51,2.279-12.051,2.542c-0.139,0.037-0.275,0.064-0.425,0.068&#10;&#9;&#9;&#9;&#9;c-0.07,0.006-0.319,0.025-0.7,0.035c-0.649,0.049-1.368,0.053-2.129,0.053c-0.138,0-0.44,1-0.44,1h-0.438&#10;&#9;&#9;&#9;&#9;c0,0-2.04-0.41-2.864-0.538c-3.595-0.25-8.24-0.924-12.439-2.645c-4.024-1.657-7.046-4.008-8.988-6.969&#10;&#9;&#9;&#9;&#9;c-1.951,2.964-4.97,5.315-8.997,6.969c-5.891,2.415-12.667,2.777-16.181,2.777c-0.761,0-1.481-0.004-2.128-0.054&#10;&#9;&#9;&#9;&#9;c-0.382-0.011-0.629-0.03-0.704-0.036c-0.436-0.029-0.834-0.171-1.186-0.395c-0.637-0.307-1.052-0.834-1.175-1.691&#10;&#9;&#9;&#9;&#9;c-0.025-0.128-0.041-0.252-0.047-0.384C973.594,279.688,973.583,279.698,973.583,279.698z M1174.873,305.559&#10;&#9;&#9;&#9;&#9;c-0.145,0.011-14.776,0.907-21.627-5.306c-2.255-2.05-3.37-4.62-3.404-7.862c-0.012-1.195-0.776-2.323-1.937-2.605&#10;&#9;&#9;&#9;&#9;c-1.726-0.419-3.277,0.836-3.277,2.452c0,3.388-1.134,6.056-3.462,8.151c-4.629,4.172-12.735,5.071-17.578,5.216&#10;&#9;&#9;&#9;&#9;c-4.658-0.08-13.716-0.846-18.687-5.356c-2.257-2.047-3.37-4.619-3.404-7.862c-0.012-1.198-0.779-2.327-1.944-2.605&#10;&#9;&#9;&#9;&#9;c-1.728-0.412-3.272,0.844-3.272,2.452c0,3.388-1.132,6.055-3.459,8.153c-4.616,4.159-12.691,5.065-17.539,5.209&#10;&#9;&#9;&#9;&#9;c-4.686-0.082-13.666-0.87-18.604-5.348c-2.255-2.051-3.37-4.62-3.403-7.864c-0.012-1.198-0.779-2.328-1.944-2.606&#10;&#9;&#9;&#9;&#9;c-1.728-0.412-3.273,0.841-3.273,2.455c0,3.386-1.13,6.053-3.458,8.151c-4.701,4.236-13.007,5.099-17.815,5.22&#10;&#9;&#9;&#9;&#9;c-4.295,0-14.266-0.54-19.57-5.361c-2.266-2.056-3.377-4.639-3.403-7.898c-0.012-1.456-1.152-2.648-2.608-2.648h-0.256&#10;&#9;&#9;&#9;&#9;c-1.43,0-2.556,1.172-2.561,2.602c-0.01,3.322-1.105,5.951-3.343,8.041c-6.578,6.138-20.463,5.405-21.185,5.362&#10;&#9;&#9;&#9;&#9;c-0.005,0-0.016-0.004-0.016-0.004c-0.004,0-0.282,0-0.282,0s-2.682,0.697-2.782,2.135c-0.004,0.058,0.007,0.865,0.007,0.865&#10;&#9;&#9;&#9;&#9;h-0.02c0,0,0.013-0.603,0.013-0.554c0.006,0.124,0.022,0.248,0.048,0.377c0.122,0.856,0.536,1.385,1.175,1.698&#10;&#9;&#9;&#9;&#9;c0.352,0.217,0.75,0.366,1.187,0.395c0.072,0.007,0.323,0.02,0.704,0.038c0.645,0.049,1.365,0.049,2.127,0.049&#10;&#9;&#9;&#9;&#9;c3.515,0,10.291-0.36,16.181-2.778c4.027-1.649,7.047-4.004,8.996-6.969c1.943,2.965,4.966,5.322,8.99,6.969&#10;&#9;&#9;&#9;&#9;c4.2,1.721,8.845,2.4,12.44,2.645c0.82,0.129,2.863,0.13,2.863,0.13s0.289,0,0.439,0c0.15,0,0.304,0,0.44,0&#10;&#9;&#9;&#9;&#9;c0.761,0,1.477,0,2.129-0.048c0.382-0.017,0.627-0.03,0.7-0.037c0.148-0.011,0.287-0.041,0.425-0.067&#10;&#9;&#9;&#9;&#9;c3.54-0.263,8.004-0.935,12.05-2.55c4.043-1.613,7.07-3.913,9.02-6.811c0.679,0.997,1.49,1.917,2.435,2.775&#10;&#9;&#9;&#9;&#9;c4.557,4.131,11.342,5.758,16.782,6.37c0.95,0.363,2.29,0.367,3.806,0.367c0.463,0,0.992-0.004,1.561-0.022&#10;&#9;&#9;&#9;&#9;c1.935,0.028,3.215-0.05,3.392-0.06c0.319-0.024,0.616-0.106,0.889-0.228c3.203-0.335,6.922-1.023,10.341-2.391&#10;&#9;&#9;&#9;&#9;c4.041-1.613,7.068-3.913,9.016-6.811c0.684,0.997,1.494,1.917,2.439,2.775c4.6,4.171,11.473,5.788,16.939,6.388&#10;&#9;&#9;&#9;&#9;c0.951,0.346,2.278,0.35,3.768,0.35c0.457,0,0.966-0.004,1.525-0.022c1.884,0.028,3.129-0.05,3.304-0.06&#10;&#9;&#9;&#9;&#9;c0.301-0.024,0.582-0.099,0.843-0.207c3.246-0.335,7.033-1.023,10.511-2.412c4.043-1.613,7.07-3.913,9.019-6.811&#10;&#9;&#9;&#9;&#9;c0.681,0.997,1.495,1.917,2.436,2.775c8.522,7.723,24.852,6.703,25.538,6.655c1.439-0.099,2.522-1.312,2.419-2.703&#10;&#9;&#9;&#9;&#9;C1177.552,306.515,1176.306,305.483,1174.873,305.559z" id="el_GZ9FZ9UOmxr"/>
		</g></g>
	</g>
</g>
</svg>