<?xml version="1.0" encoding="utf-8"?>
<!-- Generator: Adobe Illustrator 24.0.0, SVG Export Plug-In . SVG Version: 6.00 Build 0)  -->
<svg version="1.0" xmlns="http://www.w3.org/2000/svg" xmlns:xlink="http://www.w3.org/1999/xlink" x="0px" y="0px"
	 viewBox="0 0 409.266 409.28" enable-background="new 0 0 409.266 409.28" xml:space="preserve">
<g id="Layer_1">
	<circle id="circle_1_" fill="#D6E03E" stroke="#FFFFFF" stroke-miterlimit="10" cx="206.989" cy="202.64" r="196.998"/>
	<path id="MEDIA" fill="#FFFFFF" d="M238.925,212.502c0,2.55-2.059,4.615-4.609,4.615h-7.492c-2.544,0-4.609-2.065-4.609-4.615
		v-6.913c0-2.544,2.065-4.609,4.609-4.609h7.492c2.55,0,4.609,2.065,4.609,4.609V212.502z M206.658,224.61
		c0,2.544-2.065,4.609-4.615,4.609h-53.591c-2.55,0-4.609-2.065-4.609-4.609v-19.02c0-2.544,2.059-4.609,4.609-4.609h53.591
		c2.55,0,4.615,2.065,4.615,4.609V224.61z M288.815,189.182c-1.379,0-2.72,0.548-4.099,1.65l-21.337,17.062h-6.013v-16.71
		c0-7.958-6.258-14.412-14.21-14.412h-45.57c-0.863-5.471-6.491-9.985-14.556-12.101v-10.37h47.931
		c2.519,2.304,5.95,4.029,9.727,4.029h22.389c7.731,0,14.021-6.384,14.021-14.116c0-7.731-6.29-14.122-14.021-14.122h-22.389
		c-3.778,0-7.209,1.731-9.727,4.036h-51.86c-8.739,0-16.244,7.096-16.244,15.835v14.707c-7.492,2.115-12.901,6.63-13.763,12.101
		h-10.25c-7.958,0-14.6,6.453-14.6,14.412v63.388c0,7.958,6.642,14.412,14.6,14.412h104.312c7.952,0,14.21-6.453,14.21-14.412
		v-5.182h6l21.4,17.056c1.372,1.096,2.77,1.643,4.143,1.643c1.587,0,2.915-0.775,3.809-2.109c0.699-1.045,0.957-2.386,0.957-3.973
		v-66.75C293.675,191.058,291.283,189.182,288.815,189.182"/>
	
		<line id="RIGHT-C" fill="none" stroke="#D6E03E" stroke-width="11.3386" stroke-miterlimit="10" x1="122.345" y1="151.093" x2="147.917" y2="151.093"/>
	
		<line id="LEFT-C" fill="none" stroke="#D6E03E" stroke-width="11.3386" stroke-miterlimit="10" x1="289.355" y1="151.093" x2="314.927" y2="151.093"/>
	<circle id="RIGHT-O" fill="#D6E03E" cx="302.66" cy="151.333" r="9.333"/>
	<circle id="LEFT-O" fill="#D6E03E" cx="135.993" cy="151.333" r="9.333"/>
</g>
<g id="Layer_2">
</g>
</svg>
