<?xml version="1.0" encoding="utf-8"?>
<!-- Generator: Adobe Illustrator 24.0.0, SVG Export Plug-In . SVG Version: 6.00 Build 0)  -->
<svg version="1.0" id="Layer_1" xmlns="http://www.w3.org/2000/svg" xmlns:xlink="http://www.w3.org/1999/xlink" x="0px" y="0px"
	 viewBox="0 0 409.266 409.28" enable-background="new 0 0 409.266 409.28" xml:space="preserve">
<circle id="circle_1_" fill="#D6E03E" stroke="#FFFFFF" stroke-miterlimit="10" cx="206.989" cy="208.64" r="196.998"/>
<g id="truck">
	<defs>
		<circle id="circle_2_" cx="206.989" cy="208.64" r="196.998"/>
	</defs>
	<clipPath id="circle_4_">
		<use xlink:href="#circle_2_"  overflow="visible"/>
	</clipPath>
	<path clip-path="url(#circle_4_)" fill="#FFFFFF" d="M215.607,190.047h-35.228c-2.778,0-5.033-2.255-5.033-5.033v-22.647
		c0-2.784,2.255-5.033,5.033-5.033h35.228c2.784,0,5.033,2.255,5.033,5.033v22.647C220.64,187.793,218.385,190.047,215.607,190.047
		 M162.765,190.047h-35.234c-2.778,0-5.033-2.255-5.033-5.033v-22.647c0-2.784,2.255-5.033,5.033-5.033h35.234
		c2.778,0,5.033,2.249,5.033,5.033v22.647C167.798,187.793,165.543,190.047,162.765,190.047 M215.607,230.309h-88.076
		c-2.778,0-5.033-2.255-5.033-5.033v-22.647c0-2.778,2.255-5.033,5.033-5.033h88.076c2.778,0,5.033,2.255,5.033,5.033v22.647
		C220.64,228.054,218.385,230.309,215.607,230.309 M272.884,194.425h-31.357c-1.386,0-2.514-1.11-2.514-2.52v-17.384
		c0-1.386,1.133-2.52,2.514-2.52h19.098c0.834,0,1.611,0.403,2.065,1.058l12.258,17.413
		C276.128,192.136,274.92,194.425,272.884,194.425 M297.947,235.342h-6.115v-34.198c0-4.004-1.208-7.927-3.446-11.252
		l-15.325-22.693c-3.727-5.54-9.992-8.859-16.688-8.859h-23.752c-2.773,0-5.033,2.238-5.033,5.033v71.969h-38.881
		c3.676,3.199,6.213,7.628,6.943,12.684h41.044c1.438-9.992,10.044-17.718,20.433-17.718c10.395,0,19,7.726,20.462,17.718h20.358
		c1.409,0,2.514-1.133,2.514-2.52v-7.651C300.461,236.476,299.357,235.342,297.947,235.342 M161.723,235.348h-35.09
		c-1.386,0-2.514,1.128-2.514,2.52v7.633c0,1.386,1.128,2.514,2.514,2.514h28.124C155.493,242.976,158.036,238.529,161.723,235.348"
		/>
	<g clip-path="url(#circle_4_)">
		<path fill="#FFFFFF" d="M257.333,240.551c-6.129,0-11.116,4.987-11.116,11.116c0,6.129,4.987,11.116,11.116,11.116
			s11.116-4.987,11.116-11.116C268.449,245.537,263.462,240.551,257.333,240.551z M263.02,244.703
			c0.125-0.139,0.301-0.221,0.488-0.229c0.161-0.018,0.369,0.06,0.505,0.189c1.441,1.364,2.421,3.101,2.831,5.023
			c0.065,0.307-0.083,0.619-0.361,0.763c-0.68,0.351-1.487,0.522-2.261,0.522c-1.008,0-1.963-0.289-2.517-0.843
			C260.527,248.951,261.019,246.923,263.02,244.703z M251.647,258.739c-0.125,0.139-0.301,0.222-0.488,0.229
			c-0.008,0.001-0.018,0.001-0.027,0.001c-0.178,0-0.349-0.068-0.478-0.19c-1.441-1.364-2.421-3.101-2.831-5.023
			c-0.065-0.307,0.083-0.619,0.361-0.763c1.566-0.808,3.799-0.657,4.778,0.321C254.138,254.491,253.647,256.519,251.647,258.739z
			 M252.961,250.128c-0.554,0.554-1.509,0.843-2.517,0.843c-0.773,0-1.579-0.17-2.261-0.522c-0.278-0.144-0.426-0.456-0.361-0.763
			c0.41-1.921,1.389-3.658,2.831-5.023c0.136-0.129,0.335-0.209,0.505-0.189c0.187,0.007,0.364,0.09,0.488,0.229
			C253.648,246.923,254.139,248.951,252.961,250.128z M260.294,260.931c-0.962,0.307-1.958,0.462-2.961,0.462
			s-1.999-0.155-2.961-0.462c-0.305-0.098-0.505-0.391-0.483-0.71c0.174-2.5,1.654-4.386,3.444-4.386c1.79,0,3.27,1.885,3.444,4.386
			C260.799,260.54,260.599,260.833,260.294,260.931z M254.554,251.666c0-1.533,1.247-2.779,2.779-2.779
			c1.532,0,2.779,1.246,2.779,2.779s-1.247,2.779-2.779,2.779C255.801,254.445,254.554,253.199,254.554,251.666z M257.333,247.552
			c-1.79,0-3.27-1.885-3.444-4.385c-0.022-0.32,0.176-0.613,0.482-0.71c1.924-0.615,4-0.615,5.924,0
			c0.305,0.097,0.503,0.39,0.482,0.71C260.603,245.667,259.123,247.552,257.333,247.552z M266.844,253.645
			c-0.41,1.922-1.389,3.659-2.831,5.023c-0.129,0.122-0.3,0.19-0.478,0.19c-0.009,0-0.019,0-0.027-0.001
			c-0.187-0.007-0.364-0.09-0.488-0.229c-2.001-2.22-2.493-4.248-1.315-5.426c0.978-0.979,3.21-1.128,4.778-0.321
			C266.761,253.026,266.909,253.338,266.844,253.645z"/>
		<path fill="#FFFFFF" d="M257.333,234.993c-9.194,0-16.674,7.48-16.674,16.674c0,9.194,7.479,16.674,16.674,16.674
			s16.674-7.48,16.674-16.674C274.007,242.473,266.528,234.993,257.333,234.993z M257.333,264.172
			c-6.896,0-12.505-5.61-12.505-12.505s5.609-12.505,12.505-12.505s12.505,5.61,12.505,12.505S264.229,264.172,257.333,264.172z"/>
	</g>
	<g clip-path="url(#circle_4_)">
		<path fill="#FFFFFF" d="M175.68,240.551c-6.129,0-11.116,4.987-11.116,11.116c0,6.129,4.987,11.116,11.116,11.116
			s11.116-4.987,11.116-11.116C186.796,245.537,181.809,240.551,175.68,240.551z M181.367,244.703
			c0.125-0.139,0.301-0.221,0.488-0.229c0.161-0.018,0.369,0.06,0.505,0.189c1.441,1.364,2.421,3.101,2.831,5.023
			c0.065,0.307-0.083,0.619-0.361,0.763c-0.68,0.351-1.487,0.522-2.261,0.522c-1.008,0-1.963-0.289-2.517-0.843
			C178.874,248.951,179.365,246.923,181.367,244.703z M169.993,258.739c-0.125,0.139-0.301,0.222-0.488,0.229
			c-0.008,0.001-0.018,0.001-0.027,0.001c-0.178,0-0.349-0.068-0.478-0.19c-1.441-1.364-2.421-3.101-2.83-5.023
			c-0.065-0.307,0.083-0.619,0.361-0.763c1.566-0.808,3.799-0.657,4.778,0.321C172.484,254.491,171.993,256.519,169.993,258.739z
			 M171.308,250.128c-0.554,0.554-1.509,0.843-2.517,0.843c-0.773,0-1.579-0.17-2.261-0.522c-0.278-0.144-0.426-0.456-0.361-0.763
			c0.41-1.921,1.389-3.658,2.83-5.023c0.136-0.129,0.335-0.209,0.505-0.189c0.187,0.007,0.364,0.09,0.488,0.229
			C171.995,246.923,172.486,248.951,171.308,250.128z M178.641,260.931c-0.962,0.307-1.958,0.462-2.961,0.462
			c-1.003,0-1.999-0.155-2.961-0.462c-0.305-0.098-0.505-0.391-0.483-0.71c0.174-2.5,1.654-4.386,3.444-4.386
			c1.79,0,3.27,1.885,3.444,4.386C179.145,260.54,178.946,260.833,178.641,260.931z M172.901,251.666
			c0-1.533,1.247-2.779,2.779-2.779c1.532,0,2.779,1.246,2.779,2.779s-1.247,2.779-2.779,2.779
			C174.148,254.445,172.901,253.199,172.901,251.666z M175.68,247.552c-1.79,0-3.27-1.885-3.444-4.385
			c-0.022-0.32,0.176-0.613,0.482-0.71c1.924-0.615,4-0.615,5.924,0c0.305,0.097,0.503,0.39,0.482,0.71
			C178.95,245.667,177.47,247.552,175.68,247.552z M185.19,253.645c-0.41,1.922-1.389,3.659-2.831,5.023
			c-0.129,0.122-0.3,0.19-0.478,0.19c-0.009,0-0.019,0-0.027-0.001c-0.187-0.007-0.364-0.09-0.488-0.229
			c-2.001-2.22-2.493-4.248-1.315-5.426c0.978-0.979,3.21-1.128,4.778-0.321C185.108,253.026,185.255,253.338,185.19,253.645z"/>
		<path fill="#FFFFFF" d="M175.68,234.993c-9.194,0-16.674,7.48-16.674,16.674c0,9.194,7.479,16.674,16.674,16.674
			s16.674-7.48,16.674-16.674C192.353,242.473,184.874,234.993,175.68,234.993z M175.68,264.172c-6.896,0-12.505-5.61-12.505-12.505
			s5.609-12.505,12.505-12.505c6.896,0,12.505,5.61,12.505,12.505S182.576,264.172,175.68,264.172z"/>
	</g>
</g>
<g id="building">
	<defs>
		<circle id="circle_3_" cx="206.989" cy="208.64" r="196.998"/>
	</defs>
	<clipPath id="circle_5_">
		<use xlink:href="#circle_3_"  overflow="visible"/>
	</clipPath>
	<g clip-path="url(#circle_5_)">
		<path fill="#FFFFFF" d="M556.68,148.045c-0.965,0-1.747,0.782-1.747,1.746c0,0.966,0.782,1.748,1.747,1.748h73.38
			c0.965,0,1.747-0.782,1.747-1.748c0-0.965-0.782-1.746-1.747-1.746h-13.415c2.124-8.107,7.997-36.133-4.767-60.223
			c-1.095-2.028-2.306-3.992-3.629-5.881c0.939-0.69,1.701-1.593,2.224-2.633l0.667-1.333c0.542-1.083,0.485-2.37-0.152-3.401
			c-0.637-1.03-1.763-1.657-2.974-1.657h-7.458c-5.209-4.887-11.176-8.895-17.669-11.869V48.457c0-0.965-0.783-1.747-1.747-1.747
			c-0.965,0-1.748,0.782-1.748,1.747V59.53c-0.319-0.132-0.625-0.273-0.95-0.398c-0.052-0.026-0.113-0.022-0.174-0.044
			c-0.125-0.05-0.256-0.085-0.39-0.102c-0.098-0.015-0.198-0.022-0.297-0.019c-0.204,0.035-0.408,0.07-0.612,0.106
			c-0.044,0.019-0.079,0.052-0.122,0.074c-0.044,0.021-0.081,0.046-0.121,0.072c-0.154,0.095-0.291,0.213-0.409,0.35
			c-0.016,0.017-0.038,0.026-0.054,0.046c-0.016,0.019,0,0.02-0.014,0.029c-0.132,0.175-0.231,0.372-0.29,0.582v0.045
			c-0.038,0.136-0.059,0.275-0.061,0.416v18.951l-6.289-0.898c-1.841-0.263-3.683,0.476-4.832,1.939
			c-1.148,1.463-1.429,3.428-0.736,5.154c0.692,1.726,2.254,2.952,4.096,3.215l7.761,1.108v57.888H556.68z M579.392,65.287
			c1.871,2.623,3.456,5.439,4.73,8.399l-4.73,1.893V65.287z M604.34,90.388c0.806,2.293,1.493,4.626,2.062,6.989h-3.704
			c-0.334-2.367-0.753-4.704-1.271-6.989H604.34z M600.725,148.045c0.232-1.269,0.537-3.038,0.874-5.242h5.43
			c-0.412,2.325-0.798,4.126-1.048,5.242H600.725z M607.202,100.871c0.233,1.152,0.441,2.318,0.622,3.494h-4.368
			c-0.09-1.165-0.196-2.33-0.32-3.494H607.202z M608.425,132.32h-5.523c0.111-1.134,0.22-2.292,0.318-3.494h5.488
			c-0.075,1.101-0.17,2.256-0.289,3.494H608.425z M607.583,139.308h-5.487c0.147-1.103,0.293-2.267,0.435-3.494h5.509
			c-0.146,1.197-0.301,2.362-0.462,3.494H607.583z M608.88,114.849c0.052,1.177,0.088,2.341,0.106,3.494h-5.214
			c0.028-1.156,0.044-2.32,0.047-3.494H608.88z M603.468,125.332c0.071-1.146,0.133-2.31,0.186-3.494h5.336
			c-0.012,1.164-0.044,2.33-0.098,3.494H603.468z M603.79,111.354c-0.024-1.16-0.069-2.326-0.124-3.494h4.636
			c0.132,1.175,0.249,2.339,0.349,3.494H603.79z M587.716,72.917c-1.11-2.622-2.432-5.148-3.955-7.553
			c4.109,2.089,7.975,4.622,11.531,7.553H587.716z M579.392,81.653v-2.311l6.053-2.422c0.791,2.096,1.562,4.443,2.282,7.073
			l-8.335,3.707V81.653z M579.392,91.522l9.206-4.094c1.322,5.826,2.216,11.74,2.675,17.697l-11.881,5.288V91.522z M579.392,114.236
			l12.15-5.405c0.303,5.114,0.404,10.714,0.217,16.898l-12.367,5.624V114.236z M589.103,76.411h3.271
			c13.067,21.6,6.289,63.478,4.791,71.634h-3.592C597.755,111.862,593.931,89.588,589.103,76.411L589.103,76.411z M613.016,148.045
			h-3.464c0.339-1.538,0.799-3.814,1.268-6.723c0.35-2.231,0.654-4.609,0.92-7.072c0.281-2.676,0.46-4.925,0.565-7.061
			c0.145-2.35,0.212-4.742,0.195-7.098c0-2.306-0.072-4.693-0.212-7.107c-0.161-2.328-0.391-4.718-0.699-7.105
			c-0.307-2.386-0.747-4.809-1.246-7.117c-0.615-2.832-1.391-5.628-2.325-8.373h1.239
			C621.149,113.882,614.669,141.91,613.016,148.045L613.016,148.045z M607.3,86.894h-6.753c-0.537-1.913-1.169-3.798-1.898-5.646
			c1.38,1.38,3.252,2.154,5.203,2.153c0.37-0.001,0.738-0.03,1.103-0.086C605.786,84.481,606.567,85.674,607.3,86.894L607.3,86.894z
			 M608.014,76.411l-0.667,1.335c-0.662,1.323-2.015,2.159-3.495,2.159c-1.479,0-2.832-0.836-3.494-2.159l-0.668-1.335H608.014z
			 M568.632,85.588c-0.842-0.124-1.465-0.843-1.469-1.695c0-0.942,0.76-1.707,1.704-1.713c0.083,0.001,0.167,0.007,0.249,0.019
			l6.782,0.968v3.46L568.632,85.588z M579.392,135.193l12.203-5.549c-0.267,5.679-0.766,11.802-1.536,18.401h-10.667V135.193z
			 M579.392,135.193"/>
	</g>
	<g clip-path="url(#circle_5_)">
		<polygon fill="#BEE6EE" points="981.211,128.577 981.211,113.192 984.639,113.192 984.639,93.066 986.898,93.066 986.898,77.606 
			990.469,77.606 990.469,113.192 993.776,113.192 993.776,128.577 		"/>
		<path fill="#FFFFFF" d="M1006.761,133.897v-10.789h-3.793v-19.11h-3.304V68.414h-5.689V39.071h-4.528V25.282h-3.87v13.789h-3.783
			v22.052h-4.086v22.751h-2.259V104h-3.428v16.774h-4.521v13.123H960.4v13.304h54.138v-13.305H1006.761z M971.368,124.644h9.843
			v-3.87h-5.322V107.87h8.75V104h-5.322V87.744h7.581v-3.87h-5.322V64.993h4.086V42.941h4.441v25.472h-4.262v3.87h9.952V104h-5.322
			v3.87h8.626v15.24h-5.322v3.87h9.115v6.916h-31.522V124.644z M1010.668,143.331h-46.397v-5.564h46.397V143.331L1010.668,143.331z"
			/>
		<line fill="none" stroke="#FFFFFF" stroke-width="2.8346" stroke-miterlimit="10" x1="938.585" y1="148" x2="1035.316" y2="148"/>
	</g>
</g>
</svg>
