<svg xmlns="http://www.w3.org/2000/svg" viewBox="0 0 628.17 203.89"><defs><style>.cls-1,.cls-3{fill:#ed1c24;}.cls-1{fill-rule:evenodd;}.cls-2{fill:#58595b;}</style></defs><title>Asset 1</title><g id="Layer_2" data-name="Layer 2"><g id="Layer_1-2" data-name="Layer 1"><polygon class="cls-1" points="139.76 43.36 39.48 7.52 39.36 7.55 21.78 15.8 139.76 43.36"/><polygon class="cls-1" points="95.11 195.38 101.3 203.89 135.03 173.61 95.11 195.38"/><polygon class="cls-1" points="86.23 180 86.52 183.56 90.83 189.48 141.75 154.88 86.23 180"/><polygon class="cls-1" points="84.76 161.64 85.62 172.42 147.56 138.69 84.76 161.64"/><polygon class="cls-1" points="83.35 144.03 84.18 154.4 152.07 124.56 83.35 144.03"/><polygon class="cls-1" points="77.89 127.77 81.47 137.35 155.49 111.91 77.89 127.77"/><polygon class="cls-1" points="71.75 111.3 75.41 121.12 164.74 99.4 71.75 111.3"/><polygon class="cls-1" points="59.17 94.56 67.97 104.55 175.75 88.4 59.17 94.56"/><polygon class="cls-1" points="7.91 75.27 15.45 88.15 181.6 77.96 7.91 75.27"/><polygon class="cls-1" points="5.49 50.05 0 61.76 0.72 63.01 160.72 67.03 5.49 50.05"/><polygon class="cls-1" points="16.5 26.55 10.8 38.74 151.15 56.1 16.5 26.55"/><polygon class="cls-1" points="123.94 23.61 68.41 0 68.34 0.01 58.12 4.09 123.94 23.61"/><path class="cls-2" d="M226.06,14.54h11.68l18.07,82.74h-8.92l-4.81-24.37H221.26l-4.81,24.37h-8.36Zm14.3,50.59-8.69-43.26-8.58,43.26Z"/><path class="cls-2" d="M271,14.54h34.67v7.67H279.48v28.5h20.14v7.55H279.48v39H271Z"/><path class="cls-2" d="M322.26,14.54h15.11c17.85,0,26.66,7.1,26.66,21.75,0,10.07-4.57,17.05-13,19.79l13.5,41.2h-9.15L342.86,57.92c-2.86.11-5.84.22-8.81.22h-3.32V97.28h-8.47Zm15.68,36.17c11.33,0,17.05-4.81,17.05-14.42s-5.61-14.42-17.05-14.42h-7.21V50.71Z"/><path class="cls-2" d="M382.66,14.54h8.47V97.28h-8.47Z"/><path class="cls-2" d="M413.44,14.54H422V89.39h26v7.89H413.44Z"/><path class="cls-2" d="M475.33,14.54H487l18.08,82.74h-8.93l-4.8-24.37H470.52l-4.81,24.37h-8.35Zm14.3,50.59-8.69-43.26-8.58,43.26Z"/><path class="cls-2" d="M527.84,21V97.28H520.4V14.54h12.36l17,46.92c2.41,6.75,4.69,13.62,6.75,20.6A178.47,178.47,0,0,1,555.87,64V14.54h7.44V97.28H555L534.13,40.06C531.61,33.2,529.55,26.79,527.84,21Z"/><path class="cls-2" d="M585.38,14.54H600.7c19.58,0,27.47,12.82,27.47,41.2,0,28.61-7.78,41.54-27.47,41.54H585.38Zm8.58,75c1.59.11,3.2.23,4.57.23,16.48,0,21.17-9.84,21.17-34.22,0-24.14-4.69-33.87-21.06-33.87-1.48,0-3.09.11-4.68.23Z"/><path class="cls-3" d="M212.6,121.45h11.14c14.37,0,21.47,5.89,21.47,18.06s-7.1,18.05-21.47,18.05h-4.32v30.5H212.6Zm12.62,30.49c9,0,13.54-4.14,13.54-12.07,0-8.2-4.51-12.25-13.54-12.25h-5.8v24.32Z"/><path class="cls-3" d="M258,121.45h12.16c14.38,0,21.47,5.71,21.47,17.5,0,8.11-3.68,13.73-10.5,15.94L292,188.06h-7.36l-10-31.69c-2.3.08-4.69.18-7.09.18h-2.67v31.51H258Zm12.63,29.11c9.12,0,13.72-3.87,13.72-11.61s-4.51-11.61-13.72-11.61h-5.81v23.22Z"/><path class="cls-3" d="M303.46,154.71c0-22.94,6.36-34.55,18.33-34.55s18.42,11.61,18.42,34.55-6.45,34.63-18.42,34.63S303.46,177.65,303.46,154.71Zm7.18-1.57c0,20.18,2.95,29.94,11.15,29.94,8,0,11.15-9.3,11.15-28.37s-3.23-28.38-11.15-28.38S310.64,135.08,310.64,153.14Z"/><path class="cls-3" d="M354.51,121.45h11.14c14.37,0,21.47,5.89,21.47,18.06s-7.1,18.05-21.47,18.05h-4.32v30.5h-6.82Zm12.62,30.49c9,0,13.54-4.14,13.54-12.07,0-8.2-4.51-12.25-13.54-12.25h-5.8v24.32Z"/><path class="cls-3" d="M399.94,121.45h29.94v6.17H406.76v22.94h16.95v6.08H406.76v25.24h23.95v6.18H399.94Z"/><path class="cls-3" d="M442.88,121.45H455c14.37,0,21.47,5.71,21.47,17.5,0,8.11-3.69,13.73-10.5,15.94l10.86,33.17h-7.36l-10.05-31.69c-2.3.08-4.69.18-7.09.18H449.7v31.51h-6.82Zm12.63,29.11c9.12,0,13.72-3.87,13.72-11.61s-4.51-11.61-13.72-11.61H449.7v23.22Z"/><path class="cls-3" d="M498.72,127.16H485.45v-5.71h33.44v5.71H505.44v60.9h-6.72Z"/><path class="cls-3" d="M530.43,121.45h6.82v66.61h-6.82Z"/><path class="cls-3" d="M554,121.45H584v6.17H560.83v22.94h16.95v6.08H560.83v25.24h24v6.18H554Z"/><path class="cls-3" d="M600.74,170.37c.46,8.66,3.77,12.8,10.59,12.8,5.81,0,9.77-4.33,9.77-11,0-7.19-4.8-11.42-12.9-17.41s-12.89-10.51-12.89-19.53c0-8.48,6.16-15,14.74-15,9.85,0,15.93,6.54,16.3,18.06H620c-.55-8.21-3.78-12.35-9.67-12.35-5.44,0-8.94,3.59-8.94,9.31A11.54,11.54,0,0,0,604.6,143c3.51,3.68,8.12,6.54,12.44,10,7.1,5.71,10.51,11,10.51,18.79,0,10.69-6.64,17.5-16.4,17.5-10.5,0-16.68-6.81-16.86-19Z"/></g></g></svg>