<?xml version="1.0" encoding="UTF-8"?>
<!DOCTYPE svg PUBLIC "-//W3C//DTD SVG 1.1//EN" "http://www.w3.org/Graphics/SVG/1.1/DTD/svg11.dtd">
<!-- Creator: CorelDRAW 2021 (64-Bit) -->
<svg xmlns="http://www.w3.org/2000/svg" xml:space="preserve" width="1.01944in" height="0.296819in" version="1.1" style="shape-rendering:geometricPrecision; text-rendering:geometricPrecision; image-rendering:optimizeQuality; fill-rule:evenodd; clip-rule:evenodd"
viewBox="0 0 15.13 4.41"
 xmlns:xlink="http://www.w3.org/1999/xlink"
 xmlns:xodm="http://www.corel.com/coreldraw/odm/2003">
 <defs>
  <style type="text/css">
   <![CDATA[
    .fil0 {fill:black;fill-rule:nonzero}
   ]]>
  </style>
 </defs>
 <g id="Layer_x0020_1">
  <metadata id="CorelCorpID_0Corel-Layer"/>
  <g id="PesaLogo-ezgif.com-gif-maker.svg">
   <path class="fil0" d="M3.46 0.39c0.48,0.36 0.82,0.84 0.93,1.43 0.06,0.68 -0.04,1.26 -0.47,1.81 -0.34,0.4 -0.77,0.7 -1.3,0.77 -0.14,0.01 -0.28,0.01 -0.42,0.01 -0.07,0 -0.07,0 -0.14,0 -0.58,-0 -1.02,-0.23 -1.44,-0.62 -0.45,-0.47 -0.62,-1.02 -0.62,-1.66 0.01,-0.3 0.05,-0.54 0.17,-0.81 0.01,-0.03 0.03,-0.06 0.04,-0.09 0.12,-0.25 0.31,-0.45 0.5,-0.64 0.02,-0.02 0.04,-0.04 0.07,-0.07 0.73,-0.7 1.88,-0.62 2.69,-0.13zm-2.29 0.74c-0.04,0.13 -0.04,0.22 -0.04,0.35 -0,0.05 -0,0.1 -0,0.15 -0,0.05 -0,0.11 -0,0.16 -0,0.05 -0,0.11 -0,0.16 -0,0.11 -0,0.23 -0,0.34 -0,0.14 -0,0.29 -0,0.43 -0,0.11 -0,0.22 -0,0.33 -0,0.05 -0,0.11 -0,0.16 -0,0.07 -0,0.15 -0,0.22 0,0.04 0,0.09 -0,0.13 0.02,0.15 0.06,0.28 0.17,0.39 0.23,0.02 0.39,-0.03 0.6,-0.12 0.03,-0.01 0.06,-0.03 0.09,-0.04 0.06,-0.03 0.13,-0.05 0.19,-0.08 0.1,-0.04 0.19,-0.08 0.29,-0.12 0.06,-0.03 0.12,-0.05 0.19,-0.08 0.04,-0.02 0.04,-0.02 0.09,-0.04 0.19,-0.08 0.19,-0.08 0.34,-0.22 0.02,-0.09 0.02,-0.09 0.02,-0.19 0,-0.06 0,-0.06 0,-0.12 0,-0.04 0,-0.08 -0,-0.13 0,-0.04 0,-0.09 0,-0.13 0,-0.09 0,-0.18 0,-0.27 -0,-0.14 0,-0.28 0,-0.42 0,-0.09 0,-0.18 0,-0.27 0,-0.04 0,-0.08 0,-0.13 -0,-0.17 -0,-0.29 -0.08,-0.44 -0.12,-0.09 -0.19,-0.1 -0.34,-0.12 -0.05,-0 -0.1,-0.01 -0.15,-0.01 -0.05,-0 -0.1,-0.01 -0.15,-0.01 -0.05,-0 -0.1,-0.01 -0.15,-0.01 -0.14,-0.01 -0.29,-0.02 -0.43,-0.03 -0.04,-0 -0.09,-0.01 -0.13,-0.01 -0.04,-0 -0.08,-0 -0.12,-0 -0.05,-0 -0.05,-0 -0.11,-0 -0.13,0.02 -0.17,0.07 -0.25,0.17z"/>
   <path class="fil0" d="M7.54 0.99c0.25,0.14 0.38,0.37 0.48,0.63 0.04,0.15 0.04,0.3 0.04,0.45 -0,0.03 -0,0.06 -0,0.1 -0.01,0.33 -0.08,0.62 -0.33,0.86 -0.29,0.2 -0.58,0.23 -0.93,0.19 -0.18,-0.06 -0.33,-0.14 -0.47,-0.27 -0.01,0.35 -0.03,0.69 -0.04,1.05 -0.22,0 -0.43,0 -0.66,0 0,-1 0,-2 0,-3.02 0.22,0 0.43,0 0.66,0 0.01,0.08 0.03,0.15 0.04,0.23 0.03,-0.03 0.07,-0.06 0.1,-0.09 0.28,-0.25 0.76,-0.25 1.1,-0.12zm-1.14 0.64c-0.12,0.23 -0.13,0.49 -0.06,0.73 0.06,0.15 0.11,0.24 0.27,0.31 0.25,0.03 0.45,0.04 0.66,-0.12 0.16,-0.21 0.14,-0.48 0.12,-0.74 -0.06,-0.16 -0.12,-0.27 -0.27,-0.35 -0.28,-0.07 -0.49,-0.04 -0.71,0.16z"/>
   <path class="fil0" d="M10.06 1.03c0.25,0.19 0.39,0.42 0.48,0.73 0.02,0.16 0.01,0.33 0.01,0.49 -0.54,0 -1.07,0 -1.63,0 0.09,0.3 0.09,0.3 0.23,0.43 0.2,0.07 0.37,0.06 0.56,-0.01 0.11,-0.06 0.11,-0.06 0.18,-0.18 0.11,-0.01 0.22,-0.01 0.33,-0.01 0.05,0 0.05,0 0.09,0 0.08,0 0.15,0 0.23,0.01 -0.07,0.27 -0.15,0.44 -0.39,0.59 -0.36,0.19 -0.85,0.21 -1.24,0.1 -0.28,-0.11 -0.47,-0.31 -0.59,-0.58 -0.12,-0.32 -0.12,-0.76 0.01,-1.08 0.15,-0.26 0.34,-0.46 0.62,-0.56 0.34,-0.07 0.78,-0.1 1.1,0.08zm-1.05 0.52c-0.07,0.1 -0.08,0.15 -0.08,0.27 0.32,0 0.64,0 0.97,0 -0.02,-0.22 -0.02,-0.22 -0.11,-0.34 -0.24,-0.16 -0.59,-0.16 -0.78,0.07z"/>
   <path class="fil0" d="M14.75 1.01c0.17,0.11 0.28,0.22 0.35,0.42 0,0.06 0.01,0.11 0.01,0.17 0,0.05 0,0.05 0,0.1 0,0.04 0,0.07 0,0.11 0,0.04 0,0.08 0,0.11 0,0.12 0,0.24 0.01,0.36 0,0.08 0,0.16 0.01,0.24 0,0.2 0.01,0.4 0.01,0.6 -0.19,0 -0.38,0 -0.58,0 -0.03,-0.09 -0.05,-0.18 -0.08,-0.27 -0.02,0.03 -0.04,0.06 -0.06,0.09 -0.18,0.21 -0.4,0.25 -0.67,0.27 -0.24,-0.01 -0.43,-0.07 -0.61,-0.25 -0.12,-0.16 -0.15,-0.3 -0.14,-0.5 0.03,-0.21 0.1,-0.33 0.26,-0.45 0.17,-0.1 0.36,-0.13 0.55,-0.17 0.08,-0.02 0.16,-0.03 0.24,-0.05 0.08,-0.02 0.15,-0.03 0.23,-0.04 0.11,-0.01 0.11,-0.01 0.15,-0.06 0.01,-0.1 0.01,-0.1 0,-0.19 -0.1,-0.1 -0.15,-0.09 -0.29,-0.09 -0.04,-0 -0.07,-0 -0.11,-0 -0.12,0.02 -0.17,0.04 -0.26,0.13 -0.03,0.05 -0.05,0.1 -0.08,0.16 -0.2,0 -0.41,0 -0.62,0 0,-0.26 0.04,-0.35 0.19,-0.54 0.37,-0.3 1.04,-0.36 1.47,-0.15zm-0.66 1.17c-0.03,0.01 -0.06,0.02 -0.09,0.02 -0.13,0.04 -0.21,0.07 -0.3,0.16 -0.05,0.08 -0.05,0.08 -0.04,0.18 0.03,0.1 0.03,0.1 0.12,0.17 0.15,0.06 0.23,0.05 0.38,0 0.14,-0.09 0.26,-0.19 0.31,-0.35 0,-0.09 0,-0.18 0,-0.27 -0.13,0 -0.26,0.05 -0.39,0.09z"/>
   <path class="fil0" d="M12.42 1.03c0.13,0.09 0.24,0.18 0.31,0.32 0.02,0.09 0.03,0.18 0.04,0.27 -0.1,0.01 -0.2,0.01 -0.3,0.01 -0.03,0 -0.06,0 -0.09,0.01 -0.08,0 -0.08,0 -0.23,-0.02 -0.07,-0.1 -0.07,-0.1 -0.12,-0.19 -0.1,-0.05 -0.18,-0.05 -0.29,-0.05 -0.04,-0 -0.08,-0 -0.11,-0 -0.1,0 -0.1,0 -0.17,0.07 -0.01,0.02 -0.03,0.04 -0.04,0.06 0.02,0.1 0.02,0.1 0.08,0.19 0.1,0.04 0.1,0.04 0.21,0.05 0.04,0.01 0.08,0.01 0.13,0.02 0.06,0.01 0.06,0.01 0.13,0.01 0.28,0.04 0.52,0.08 0.74,0.27 0.12,0.2 0.15,0.39 0.12,0.62 -0.05,0.17 -0.12,0.28 -0.26,0.4 -0.39,0.2 -0.92,0.21 -1.34,0.08 -0.23,-0.1 -0.36,-0.25 -0.47,-0.47 -0.02,-0.09 -0.02,-0.09 -0.02,-0.24 0.2,0 0.41,0 0.62,0 0.04,0.08 0.08,0.15 0.12,0.23 0.16,0.1 0.32,0.09 0.5,0.08 0.09,-0.03 0.09,-0.03 0.16,-0.08 0.01,-0.11 0.01,-0.11 0,-0.23 -0.11,-0.08 -0.16,-0.09 -0.29,-0.11 -0.03,-0 -0.07,-0.01 -0.1,-0.01 -0.07,-0.01 -0.14,-0.02 -0.21,-0.03 -0.28,-0.04 -0.5,-0.09 -0.68,-0.33 -0.1,-0.18 -0.09,-0.37 -0.05,-0.56 0.09,-0.22 0.26,-0.36 0.48,-0.45 0.36,-0.09 0.83,-0.09 1.17,0.08z"/>
  </g>
 </g>
</svg>
