<svg width="133" height="30" viewBox="0 0 133 30" fill="none" xmlns="http://www.w3.org/2000/svg">
<g clip-path="url(#clip0_15019_86926)">
<path d="M27.6594 28.4249C27.533 28.2985 27.4697 28.1404 27.4697 27.9191V8.15965C27.4697 7.93839 27.533 7.7803 27.6594 7.65383C27.7858 7.52736 27.9439 7.46413 28.1653 7.46413H29.4298C29.6512 7.46413 29.8093 7.52736 29.9357 7.65383C30.0621 7.7803 30.1254 7.93839 30.1254 8.15965V9.45586C31.2636 7.93833 32.9075 7.17963 35.0257 7.17963C37.1123 7.17963 38.6614 7.84354 39.7048 9.17136C40.748 10.4992 41.2855 12.1748 41.3488 14.2298C41.3804 14.451 41.3804 14.7988 41.3804 15.2414C41.3804 15.6841 41.3804 16.0318 41.3488 16.2531C41.2855 18.2765 40.748 19.9521 39.7048 21.2799C38.6614 22.6077 37.1123 23.2717 35.0257 23.2717C32.9075 23.2717 31.2952 22.5129 30.1886 20.9954V27.9191C30.1886 28.1087 30.1254 28.2668 29.9989 28.4249C29.8725 28.5514 29.7144 28.6146 29.4931 28.6146H28.1653C27.9439 28.6146 27.7858 28.5514 27.6594 28.4249ZM37.5549 19.5727C38.2188 18.6875 38.5666 17.5177 38.6298 16.0634C38.6614 15.8738 38.6614 15.5892 38.6614 15.2098C38.6614 11.3844 37.2388 9.48748 34.425 9.48748C33.034 9.48748 31.9907 9.96174 31.2952 10.8785C30.5996 11.7954 30.2202 12.902 30.1886 14.1349C30.157 14.3562 30.157 14.7356 30.157 15.3047C30.157 15.8737 30.157 16.2531 30.1886 16.4745C30.2202 17.6758 30.5996 18.7191 31.3268 19.6043C32.0539 20.4895 33.0972 20.9321 34.425 20.9321C35.8477 20.9321 36.891 20.4895 37.5549 19.5727Z" fill="#0B2253"/>
<path d="M44.0989 22.7656C43.9724 22.6392 43.9092 22.4811 43.9092 22.2598V8.15946C43.9092 7.96975 43.9724 7.78005 44.0989 7.65364C44.2254 7.52717 44.3834 7.43231 44.6047 7.43231H45.8694C46.0906 7.43231 46.2487 7.49555 46.3752 7.62202C46.5017 7.74843 46.5649 7.93814 46.5649 8.12784V9.42405C47.3868 8.06461 48.7463 7.4007 50.7064 7.4007H51.8762C52.0975 7.4007 52.2556 7.46393 52.382 7.5904C52.5085 7.71681 52.5717 7.8749 52.5717 8.09623V9.20272C52.5717 9.39243 52.5085 9.55052 52.382 9.70861C52.2556 9.83508 52.0975 9.89831 51.8762 9.89831H50.169C49.0624 9.89831 48.2088 10.2144 47.6082 10.8467C46.9759 11.479 46.6597 12.3326 46.6597 13.4391V22.2281C46.6597 22.4178 46.5965 22.5759 46.4384 22.734C46.3119 22.8604 46.1222 22.9237 45.9326 22.9237H44.6047C44.3834 22.9553 44.2254 22.8921 44.0989 22.7656Z" fill="#0B2253"/>
<path d="M54.8466 21.3432C53.6452 20.0786 52.9813 18.3713 52.8549 16.1899L52.8232 15.1782L52.8549 14.1982C52.9813 12.0483 53.6452 10.3411 54.8466 9.07651C56.048 7.81192 57.692 7.17963 59.7154 7.17963C61.8969 7.17963 63.6042 7.87516 64.8054 9.26622C66.0066 10.6573 66.6075 12.5542 66.6075 14.9253V15.4627C66.6075 15.6525 66.5441 15.8105 66.4177 15.9686C66.2914 16.095 66.133 16.1583 65.9117 16.1583H55.5737V16.4112C55.637 17.7074 56.0164 18.8139 56.7752 19.7308C57.5339 20.6476 58.4823 21.0902 59.6837 21.0902C60.6322 21.0902 61.3909 20.9005 61.9598 20.5528C62.5607 20.1734 63.0032 19.794 63.288 19.4147C63.4778 19.1617 63.6042 19.0352 63.6991 18.972C63.7934 18.9088 63.9518 18.9088 64.2045 18.9088H65.5006C65.6904 18.9088 65.8488 18.972 65.9752 19.0669C66.1015 19.1617 66.165 19.2882 66.165 19.4462C66.165 19.8889 65.9117 20.4263 65.3743 21.027C64.8368 21.6277 64.0781 22.1652 63.0982 22.6077C62.1182 23.0503 60.9798 23.2717 59.7154 23.2717C57.692 23.24 56.0796 22.6077 54.8466 21.3432ZM63.8883 14.1033V14.0085C63.8883 12.6174 63.5092 11.4793 62.7505 10.6257C61.9918 9.74042 60.9798 9.32945 59.7154 9.32945C58.4192 9.32945 57.4075 9.77204 56.6803 10.6257C55.9532 11.5109 55.5737 12.6174 55.5737 14.0085V14.1033H63.8883Z" fill="#0B2253"/>
<path d="M71.1366 22.7988C70.1887 22.3561 69.4929 21.8503 69.0503 21.2813C68.6078 20.7122 68.3545 20.2379 68.3545 19.8586C68.3545 19.6689 68.418 19.5108 68.5758 19.3844C68.7027 19.2895 68.8605 19.2263 69.0189 19.2263H70.283C70.4099 19.2263 70.5043 19.2579 70.5677 19.2895C70.6312 19.3211 70.7261 19.416 70.8525 19.5424C71.295 20.1115 71.8324 20.5225 72.4013 20.8387C72.9708 21.1548 73.7295 21.3129 74.6774 21.3129C75.7529 21.3129 76.6065 21.1232 77.2383 20.7122C77.8706 20.3012 78.2189 19.7321 78.2189 18.9733C78.2189 18.4675 78.0919 18.0881 77.8078 17.772C77.523 17.4874 77.0805 17.2029 76.4167 16.9816C75.7844 16.7287 74.8044 16.4758 73.5397 16.1912C71.801 15.8119 70.5992 15.2744 69.8725 14.5472C69.1452 13.8201 68.7976 12.9033 68.7976 11.7651C68.7976 11.038 69.0189 10.3108 69.4614 9.6469C69.9039 8.95137 70.5363 8.41393 71.4214 7.97128C72.275 7.56031 73.3184 7.33899 74.5196 7.33899C75.7844 7.33899 76.8278 7.56031 77.7129 7.97128C78.5979 8.38231 79.2617 8.88814 79.7048 9.42558C80.1474 9.9947 80.3686 10.4373 80.3686 10.8167C80.3686 11.0063 80.3052 11.1328 80.1788 11.2593C80.0525 11.3858 79.8941 11.449 79.7048 11.449H78.5665C78.2817 11.449 78.0919 11.3541 77.9656 11.1328C77.6179 10.7535 77.3332 10.4689 77.1119 10.2476C76.8907 10.0263 76.5431 9.86823 76.1005 9.71014C75.658 9.55205 75.1206 9.48881 74.4562 9.48881C73.4762 9.48881 72.7489 9.67852 72.2115 10.0896C71.7061 10.5005 71.4528 11.038 71.4528 11.7019C71.4528 12.1129 71.5477 12.4606 71.769 12.7452C71.9902 13.0297 72.4013 13.3143 73.0337 13.5356C73.6346 13.7885 74.5511 14.0414 75.7844 14.2943C77.6814 14.7053 79.009 15.2428 79.7991 16.0015C80.5899 16.7287 80.9689 17.6771 80.9689 18.8469C80.9689 19.7005 80.7162 20.4593 80.2423 21.1548C79.7677 21.8503 79.0404 22.3878 78.0605 22.7988C77.1119 23.2098 75.9421 23.3995 74.6146 23.3995C73.2235 23.4627 72.0851 23.2414 71.1366 22.7988Z" fill="#0B2253"/>
<path d="M84.2182 17.7389V9.77191H81.8786C81.6888 9.77191 81.531 9.70868 81.4047 9.58221C81.2777 9.4558 81.2148 9.29771 81.2148 9.108V8.15953C81.2148 7.96989 81.2777 7.8118 81.4047 7.68533C81.531 7.55886 81.6888 7.49562 81.8786 7.49562H84.2182V2.53207C84.2182 2.34238 84.2817 2.18431 84.4081 2.02623C84.5344 1.89977 84.6922 1.83655 84.882 1.83655H86.1782C86.368 1.83655 86.5258 1.89977 86.6842 2.02623C86.8105 2.15269 86.874 2.31077 86.874 2.53207V7.464H90.5726C90.7624 7.464 90.9208 7.52724 91.0786 7.65371C91.205 7.78018 91.2684 7.93827 91.2684 8.12791V9.07639C91.2684 9.26609 91.205 9.42418 91.0786 9.55059C90.9523 9.67706 90.7939 9.7403 90.5726 9.7403H86.874V17.5176C86.874 18.5293 87.0318 19.2881 87.3794 19.7939C87.6956 20.2997 88.2651 20.5843 89.0552 20.5843H90.8573C91.0472 20.5843 91.205 20.6475 91.3313 20.774C91.4583 20.9004 91.5211 21.0585 91.5211 21.2798V22.2599C91.5211 22.4495 91.4583 22.6076 91.3313 22.7657C91.205 22.8922 91.0472 22.9554 90.8573 22.9554H88.8339C85.7671 22.9554 84.2182 21.2166 84.2182 17.7389Z" fill="#0B2253"/>
<path d="M93.4174 22.7657C93.2904 22.6392 93.2275 22.4812 93.2275 22.2599V8.12792C93.2275 7.93827 93.2904 7.78018 93.4174 7.65371C93.5437 7.52724 93.7015 7.464 93.9228 7.464H95.1875C95.3773 7.464 95.5351 7.52724 95.662 7.65371C95.7884 7.78018 95.8513 7.93827 95.8513 8.12792V9.13962C96.9261 7.8118 98.3807 7.14789 100.214 7.14789C102.396 7.14789 103.945 8.06474 104.862 9.89839C105.336 9.07639 106.032 8.41248 106.917 7.90665C107.802 7.40077 108.782 7.14789 109.889 7.14789C111.501 7.14789 112.86 7.71695 113.872 8.82345C114.916 9.93001 115.421 11.5424 115.421 13.6606V22.2599C115.421 22.4495 115.358 22.6076 115.232 22.7657C115.105 22.8922 114.947 22.9554 114.726 22.9554H113.43C113.24 22.9554 113.082 22.8922 112.924 22.7657C112.797 22.6392 112.734 22.4812 112.734 22.2599V13.9135C112.734 12.3327 112.418 11.1946 111.754 10.4991C111.09 9.80354 110.236 9.48736 109.162 9.48736C108.213 9.48736 107.391 9.83515 106.696 10.5307C106 11.2262 105.684 12.3643 105.684 13.9135V22.2599C105.684 22.4495 105.621 22.6076 105.494 22.7657C105.367 22.8922 105.21 22.9554 104.988 22.9554H103.692C103.502 22.9554 103.345 22.8922 103.186 22.7657C103.06 22.6392 102.996 22.4812 102.996 22.2599V13.9135C102.996 12.3327 102.649 11.2262 101.985 10.5307C101.289 9.83515 100.436 9.48736 99.4241 9.48736C98.4756 9.48736 97.6534 9.83515 96.9582 10.5307C96.2624 11.2262 95.9462 12.3327 95.9462 13.8819V22.2599C95.9462 22.4495 95.8833 22.6076 95.757 22.7657C95.63 22.8922 95.4722 22.9554 95.251 22.9554H93.9548C93.7015 22.9554 93.5437 22.8922 93.4174 22.7657Z" fill="#0B2253"/>
<path d="M118.394 4.36545C118.268 4.23898 118.204 4.08091 118.204 3.8596V2.31047C118.204 2.12078 118.268 1.93108 118.394 1.80463C118.52 1.67817 118.679 1.58331 118.9 1.58331H120.67C120.86 1.58331 121.05 1.64655 121.176 1.80463C121.302 1.93108 121.397 2.12078 121.397 2.31047V3.8596C121.397 4.0493 121.334 4.20737 121.176 4.36545C121.05 4.49191 120.86 4.55513 120.67 4.55513H118.9C118.679 4.55513 118.52 4.49191 118.394 4.36545ZM118.647 22.7654C118.52 22.6389 118.457 22.4809 118.457 22.2596V8.12765C118.457 7.93794 118.52 7.77986 118.647 7.65338C118.774 7.52697 118.931 7.46374 119.153 7.46374H120.449C120.639 7.46374 120.797 7.52697 120.955 7.65338C121.081 7.77986 121.145 7.93794 121.145 8.12765V22.2596C121.145 22.4493 121.081 22.6073 120.955 22.7654C120.828 22.8919 120.67 22.9551 120.449 22.9551H119.153C118.931 22.9551 118.774 22.8919 118.647 22.7654Z" fill="#0B2253"/>
<path d="M125.697 17.7389V9.77191H123.357C123.168 9.77191 123.01 9.70868 122.883 9.58221C122.757 9.4558 122.693 9.29771 122.693 9.108V8.15953C122.693 7.96989 122.757 7.8118 122.883 7.68533C123.01 7.55886 123.168 7.49562 123.357 7.49562H125.697V2.53207C125.697 2.34238 125.76 2.18431 125.887 2.02623C126.013 1.89977 126.171 1.83655 126.361 1.83655H127.657C127.847 1.83655 128.005 1.89977 128.163 2.02623C128.289 2.15269 128.353 2.31077 128.353 2.53207V7.464H132.052C132.241 7.464 132.399 7.52724 132.557 7.65371C132.684 7.78018 132.747 7.93827 132.747 8.12791V9.07639C132.747 9.26609 132.684 9.42418 132.557 9.55059C132.431 9.67706 132.273 9.7403 132.052 9.7403H128.353V17.5176C128.353 18.5293 128.511 19.2881 128.859 19.7939C129.175 20.2997 129.744 20.5843 130.534 20.5843H132.336C132.526 20.5843 132.684 20.6475 132.81 20.774C132.937 20.9004 133 21.0585 133 21.2798V22.2599C133 22.4495 132.937 22.6076 132.81 22.7657C132.684 22.8922 132.526 22.9554 132.336 22.9554H130.312C127.246 22.9554 125.697 21.2166 125.697 17.7389Z" fill="#0B2253"/>
<path d="M17.5458 1.74962C16.621 1.04001 15.4451 0.806883 14.3179 1.10661L2.06737 4.39084C0.830023 4.72131 0 5.80495 0 7.08586V24.0373C0 25.3156 0.830023 26.3993 2.06737 26.7297L8.85611 28.5512C9.09696 28.6152 9.34289 28.6485 9.58368 28.6485C10.1883 28.6485 10.7801 28.4512 11.2745 28.0695C11.9687 27.5367 12.3658 26.7297 12.3658 25.8562V20.4892L16.2444 19.4491C17.8686 19.0136 19.0009 17.5354 19.0009 15.8523V4.70594C19.0034 3.53776 18.4706 2.4618 17.5458 1.74962ZM10.5239 20.9862V25.8562C10.5239 26.1533 10.3881 26.4248 10.155 26.6068C9.91926 26.7861 9.61953 26.8475 9.33521 26.7707L2.54643 24.9493C1.89573 24.775 1.84449 24.2063 1.84449 24.0373C1.84449 23.8682 1.89573 23.2969 2.54643 23.1227L10.5239 20.9862ZM17.1589 15.8549C17.1589 16.7029 16.5876 17.4509 15.7679 17.6712L2.06737 21.3423C1.99051 21.3627 1.91623 21.3858 1.84194 21.4114V7.08586C1.84194 6.91423 1.89317 6.34549 2.54387 6.17129L14.7944 2.88706C14.9558 2.84351 15.1223 2.82302 15.2837 2.82302C15.691 2.82302 16.0881 2.95623 16.4211 3.21241C16.8899 3.57106 17.1563 4.11673 17.1563 4.70594V15.8549H17.1589Z" fill="#326CF6"/>
</g>
<defs>
<clipPath id="clip0_15019_86926">
<rect width="133" height="28.4136" fill="white" transform="translate(0 0.793213)"/>
</clipPath>
</defs>
</svg>
