<?xml version="1.0" encoding="UTF-8"?>
<!DOCTYPE svg PUBLIC "-//W3C//DTD SVG 1.1//EN" "http://www.w3.org/Graphics/SVG/1.1/DTD/svg11.dtd">
<!-- Creator: CorelDRAW 2021 (64-Bit) -->
<svg xmlns="http://www.w3.org/2000/svg" xml:space="preserve" width="2.82923in" height="0.80387in" version="1.1" style="shape-rendering:geometricPrecision; text-rendering:geometricPrecision; image-rendering:optimizeQuality; fill-rule:evenodd; clip-rule:evenodd"
viewBox="0 0 154.47 43.89"
 xmlns:xlink="http://www.w3.org/1999/xlink"
 xmlns:xodm="http://www.corel.com/coreldraw/odm/2003">
 <defs>
  <style type="text/css">
   <![CDATA[
    .fil4 {fill:none}
    .fil0 {fill:#00425F}
    .fil1 {fill:#00425F;fill-rule:nonzero}
    .fil5 {fill:#00425F;fill-rule:nonzero}
    .fil2 {fill:white;fill-opacity:0.000000}
    .fil3 {fill:#EE312A;fill-rule:nonzero}
   ]]>
  </style>
    <clipPath id="id0">
     <path d="M128.74 13.28c0,-0.75 9.43,-2.35 15.76,-2.35 2.74,0 4.9,0.3 5.46,1.11 2.85,3.74 -17.21,27.24 -18.88,26.52 -1.34,-0.36 10.69,-15.31 8.69,-21.36 -1,-3.2 -11.03,-2.85 -11.03,-3.92z"/>
    </clipPath>
    <clipPath id="id1">
     <path d="M128.74 13.28c0,-0.75 9.43,-2.35 15.76,-2.35 2.74,0 4.9,0.3 5.46,1.11 2.85,3.74 -17.21,27.24 -18.88,26.52 -1.34,-0.36 10.69,-15.31 8.69,-21.36 -1,-3.2 -11.03,-2.85 -11.03,-3.92z"/>
    </clipPath>
    <clipPath id="id2">
     <path d="M145.78 4.32c0,-2.39 1.95,-4.32 4.34,-4.32 2.4,0 4.34,1.93 4.34,4.32 0,2.39 -1.94,4.32 -4.34,4.32 -2.4,0 -4.34,-1.93 -4.34,-4.32z"/>
    </clipPath>
    <clipPath id="id3">
     <path d="M145.78 4.32c0,-2.39 1.95,-4.32 4.34,-4.32 2.4,0 4.34,1.93 4.34,4.32 0,2.39 -1.94,4.32 -4.34,4.32 -2.4,0 -4.34,-1.93 -4.34,-4.32z"/>
    </clipPath>
 </defs>
 <g id="PowerClip_x0020_Contents">
  <metadata id="CorelCorpID_0Corel-Layer"/>
  <g id="quickteller-homes.svg">
   <path class="fil0" d="M13.19 28.31l1.75 1.75 2.81 -2.02 -2.12 -2.11c0.92,-1.36 1.46,-2.99 1.46,-4.75 0,-4.7 -3.83,-8.51 -8.55,-8.51 -4.72,0 -8.55,3.81 -8.55,8.51 0,4.7 3.83,8.51 8.55,8.51 1.71,0 3.31,-0.5 4.64,-1.37zm-9.63 -7.14c0,-2.74 2.23,-4.96 4.99,-4.96 2.75,0 4.99,2.22 4.99,4.96 0,2.74 -2.23,4.96 -4.99,4.96 -2.75,0 -4.99,-2.22 -4.99,-4.96zm119.87 -1.47l0.51 -2.72c0,0 -3.95,-1.19 -7.16,1.02l0 10.87 3.41 0 0 -8.83c1.36,-1.02 3.24,-0.34 3.24,-0.34zm-84.27 0.73c-0.28,0.77 -0.42,1.58 -0.42,2.45 0,0.9 0.12,1.73 0.35,2.5 0.24,0.77 0.61,1.43 1.12,1.99 0.51,0.56 1.16,1.01 1.96,1.33 0.79,0.33 1.74,0.49 2.84,0.49 0.72,0 1.37,-0.06 1.97,-0.18 0.6,-0.12 1.09,-0.27 1.49,-0.43l-0.48 -2.78c-0.4,0.17 -0.83,0.29 -1.3,0.36 -0.47,0.08 -0.92,0.11 -1.33,0.11 -1.16,0 -1.97,-0.3 -2.44,-0.89 -0.47,-0.59 -0.7,-1.43 -0.7,-2.51 0,-1.02 0.25,-1.84 0.74,-2.46 0.5,-0.62 1.25,-0.93 2.26,-0.93 0.47,0 0.9,0.05 1.28,0.14 0.38,0.09 0.73,0.2 1.05,0.32l0.71 -2.71c-0.5,-0.21 -1.02,-0.38 -1.56,-0.49 -0.53,-0.11 -1.12,-0.17 -1.76,-0.17 -0.98,0 -1.85,0.17 -2.61,0.5 -0.76,0.33 -1.41,0.79 -1.95,1.36 -0.53,0.57 -0.94,1.24 -1.22,2.01zm41.01 -1.44c-2.22,0 -2.39,2.38 -2.39,2.38l4.78 0c0,0 -0.17,-2.38 -2.39,-2.38zm-2.39 4.75l7.68 0c0.34,-2.04 0,-7.13 -5.12,-7.13 -3.41,0 -5.8,2.38 -5.8,6.11 0,4.75 3.07,6.45 6.48,6.45 2.39,0 4.09,-0.68 4.09,-0.68l-0.34 -2.72c0,0 -1.71,0.51 -3.41,0.51 -3.41,0 -3.58,-2.55 -3.58,-2.55zm31.03 -4.75c-2.22,0 -2.39,2.38 -2.39,2.38l4.78 0c0,0 -0.17,-2.38 -2.39,-2.38zm-2.39 4.75l7.68 0c0.34,-2.04 0,-7.13 -5.12,-7.13 -3.41,0 -5.8,2.38 -5.8,6.11 0,4.75 3.07,6.45 6.48,6.45 2.39,0 4.09,-0.68 4.09,-0.68l-0.34 -2.72c0,0 -1.71,0.51 -3.41,0.51 -3.41,0 -3.58,-2.55 -3.58,-2.55z"/>
   <polygon class="fil1" points="36.12,28.87 32.71,28.87 32.71,16.88 36.12,16.88 "/>
   <path class="fil1" d="M30.29 16.88l0.01 10.86c0,0 -1.71,1.36 -5.46,1.36 -3.41,0 -5.29,-1.7 -5.29,-5.43l0 -6.79 3.41 0 0 6.79c0,2.38 1.19,2.55 2.22,2.55 1.02,0 1.71,-0.51 1.71,-0.51l-0 -8.83 3.41 0z"/>
   <path class="fil1" d="M54.29 21.18c0.34,-0.36 0.68,-0.74 1.04,-1.13 0.36,-0.39 0.71,-0.78 1.04,-1.17 0.34,-0.39 0.65,-0.75 0.95,-1.1 0.3,-0.35 0.55,-0.65 0.77,-0.91l4.06 0c-0.81,0.93 -1.6,1.81 -2.37,2.65 -0.77,0.84 -1.61,1.71 -2.53,2.6 0.46,0.41 0.93,0.9 1.42,1.47 0.49,0.57 0.96,1.16 1.42,1.77 0.46,0.61 0.88,1.22 1.26,1.83 0.38,0.61 0.7,1.16 0.96,1.67l-3.92 0c-0.24,-0.4 -0.52,-0.83 -0.83,-1.31 -0.31,-0.48 -0.64,-0.96 -0.99,-1.44 -0.35,-0.48 -0.72,-0.94 -1.11,-1.38 -0.39,-0.44 -0.77,-0.81 -1.15,-1.12l0 5.25 -3.41 0 0 -14.98 3.41 -0.6 0 7.9z"/>
   <path class="fil1" d="M64.29 13.89l3.41 -0.6 0 3.53 3.38 0 0 2.83 -3.38 0 0 4.22c0,0.71 0.13,1.28 0.38,1.71 0.25,0.43 0.76,0.64 1.52,0.64 0.37,0 0.74,-0.03 1.13,-0.1 0.39,-0.07 0.74,-0.16 1.06,-0.29l0.48 2.64c-0.41,0.17 -0.87,0.31 -1.37,0.43 -0.5,0.12 -1.12,0.18 -1.85,0.18 -0.93,0 -1.7,-0.13 -2.31,-0.38 -0.61,-0.25 -1.1,-0.6 -1.47,-1.05 -0.37,-0.45 -0.62,-0.99 -0.77,-1.63 -0.15,-0.64 -0.22,-1.34 -0.22,-2.12l0 -10.02z"/>
   <path class="fil1" d="M92.77 29.1c-0.99,-0.01 -1.8,-0.12 -2.42,-0.32 -0.62,-0.2 -1.11,-0.48 -1.47,-0.83 -0.36,-0.36 -0.6,-0.79 -0.73,-1.3 -0.13,-0.51 -0.19,-1.08 -0.19,-1.72l0 -11.04 3.41 -0.6 0 10.95c0,0.31 0.02,0.58 0.07,0.82 0.05,0.24 0.13,0.45 0.26,0.61 0.13,0.17 0.32,0.3 0.56,0.41 0.24,0.11 0.57,0.17 0.98,0.2l-0.48 2.8z"/>
   <path class="fil1" d="M100.48 29.1c-0.99,-0.01 -1.8,-0.12 -2.42,-0.32 -0.62,-0.2 -1.11,-0.48 -1.47,-0.83 -0.36,-0.36 -0.6,-0.79 -0.73,-1.3 -0.13,-0.51 -0.19,-1.08 -0.19,-1.72l0 -11.04 3.41 -0.6 0 10.95c0,0.31 0.02,0.58 0.07,0.82 0.05,0.24 0.13,0.45 0.26,0.61 0.13,0.17 0.32,0.3 0.56,0.41 0.24,0.11 0.57,0.17 0.98,0.2l-0.48 2.8z"/>
   <g style="clip-path:url(#id0)">
    <polygon class="fil2" points="128.74,10.92 150.23,10.92 150.23,38.57 128.74,38.57 "/>
   </g>
   <g style="clip-path:url(#id1)">
    <g>
     <polygon id="_1" class="fil3" points="123.24,44.05 155.74,44.05 155.74,5.44 123.24,5.44 "/>
    </g>
   </g>
   <path class="fil4" d="M128.74 13.28c0,-0.75 9.43,-2.35 15.76,-2.35 2.74,0 4.9,0.3 5.46,1.11 2.85,3.74 -17.21,27.24 -18.88,26.52 -1.34,-0.36 10.69,-15.31 8.69,-21.36 -1,-3.2 -11.03,-2.85 -11.03,-3.92z"/>
   <g style="clip-path:url(#id2)">
    <polygon class="fil2" points="145.78,0 154.47,0 154.47,8.65 145.78,8.65 "/>
   </g>
   <g style="clip-path:url(#id3)">
    <g>
     <polygon id="_1_0" class="fil3" points="140.28,13.77 159.97,13.77 159.97,-5.12 140.28,-5.12 "/>
    </g>
   </g>
   <path class="fil4" d="M145.78 4.32c0,-2.39 1.95,-4.32 4.34,-4.32 2.4,0 4.34,1.93 4.34,4.32 0,2.39 -1.94,4.32 -4.34,4.32 -2.4,0 -4.34,-1.93 -4.34,-4.32z"/>
  </g>
  <polygon class="fil5" points="78.75,33.25 78.75,43.8 80.04,43.8 80.04,39.37 85.56,39.37 85.56,43.8 86.85,43.8 86.85,33.25 85.56,33.25 85.56,38.2 80.04,38.2 80.04,33.25 "/>
  <path id="_1_1" class="fil5" d="M91.88 43.89c2.14,0 3.73,-1.5 3.73,-3.7 0,-2.2 -1.59,-3.71 -3.73,-3.71 -2.24,0 -3.74,1.63 -3.74,3.71 0,2.08 1.5,3.7 3.74,3.7zm0 -1.1c-1.5,0 -2.51,-1.16 -2.51,-2.6 0,-1.44 1,-2.61 2.51,-2.61 1.4,0 2.5,1.07 2.5,2.61 0,1.55 -1.11,2.6 -2.5,2.6z"/>
  <path id="_2" class="fil5" d="M96.71 36.56l0 7.23 1.2 0 0 -3.6c0,-1.62 0.89,-2.63 2.08,-2.63 1.08,0 1.68,0.85 1.68,2.39l0 3.83 1.2 0 0 -3.6c0,-1.62 0.91,-2.63 2.04,-2.63 1.1,0 1.65,0.85 1.65,2.39l0 3.83 1.2 0 0 -4.16c0,-2.07 -0.89,-3.16 -2.5,-3.16 -1.13,0 -2.11,0.56 -2.66,1.55l-0.01 0c-0.37,-1 -1.16,-1.55 -2.24,-1.55 -0.97,0 -1.87,0.52 -2.42,1.4l-0.01 0 0 -1.31 -1.2 0z"/>
  <path id="_3" class="fil5" d="M115.6 40.06c0,-2.07 -1.35,-3.58 -3.33,-3.58 -2.07,0 -3.57,1.53 -3.57,3.71 0,2.21 1.52,3.7 3.65,3.7 1.46,0 2.36,-0.55 2.99,-1.35l-0.85 -0.71c-0.45,0.55 -1.13,0.97 -2.09,0.97 -1.37,0 -2.32,-0.89 -2.48,-2.24l5.65 0c0,-0.09 0.03,-0.3 0.03,-0.49zm-3.34 -2.48c1.19,0 1.96,0.8 2.14,1.99l-4.44 0c0.22,-1.23 1.14,-1.99 2.3,-1.99z"/>
  <path id="_4" class="fil5" d="M118.86 43.89c1.74,0 2.6,-0.94 2.6,-2.07 0.01,-1.41 -1,-1.68 -2.53,-2.27 -0.79,-0.28 -1.37,-0.56 -1.37,-1.13 0,-0.55 0.55,-0.88 1.11,-0.88 0.62,0 1.29,0.19 1.92,0.77l0.62 -0.95c-0.8,-0.65 -1.62,-0.89 -2.5,-0.89 -1.37,0 -2.38,0.83 -2.38,1.95 0,1.32 1,1.8 2.17,2.21 1.05,0.39 1.72,0.56 1.72,1.2 0,0.55 -0.51,0.98 -1.38,0.98 -1.01,0 -1.65,-0.33 -2.21,-0.88l-0.61 0.92c0.7,0.61 1.62,1.03 2.82,1.03z"/>
 </g>
</svg>
