<svg id="Layer_1" data-name="Layer 1" xmlns="http://www.w3.org/2000/svg" viewBox="0 0 1321.71 402.71"><defs><style>.cls-1{fill:#00c3ff;}.cls-2{fill:#07f;}</style></defs><polygon class="cls-1" points="413.3 181.33 374.91 114.85 436.72 114.85 475.11 181.35 444.2 234.87 413.3 181.33"/><polygon class="cls-2" points="413.3 181.33 444.2 234.87 413.79 287.55 382.88 234.03 413.3 181.33"/><polygon class="cls-1" points="382.88 234.03 413.79 287.55 413.6 287.87 352.16 287.87 321.6 234.93 290.7 181.4 252.27 114.85 314.08 114.85 382.88 234.03"/><polygon class="cls-2" points="321.6 234.93 291.85 286.46 260.95 232.93 290.7 181.4 321.6 234.93"/><polygon class="cls-1" points="260.95 232.93 291.85 286.46 291.03 287.87 230.84 287.87 130.96 114.85 192.78 114.85 260.95 232.93"/><path class="cls-1" d="M675.36,154.74l-26.13,70.14-26-70.14H609.83l-26.45,69.82-25.5-69.82h-15l32.57,87.7h15.25l25.58-66.57,25.34,66.57h15.25l32.73-87.7Z"/><path class="cls-1" d="M719.18,169.43V154.74H703.92v87.7h15.89V198.75c0-19.23,10.57-29.63,27.64-29.63a31.11,31.11,0,0,1,3.66.15V153.94C735.7,153.94,724.82,159.19,719.18,169.43Z"/><path class="cls-1" d="M810,191l36.94-36.22H827.69l-47.83,43.69V154.74h-15.8v87.7h15.8v-24l18.28-16.92L831,242.44h19.54Z"/><path class="cls-1" d="M1053.73,153.94c-14.06,0-27.09,3.9-36.22,11.2l6.59,11.92c6.83-5.8,17.4-9.45,27.8-9.45,15.73,0,23.52,7.78,23.52,21.21v3.09h-25.18c-26.14,0-35.19,11.6-35.19,25.66,0,15.25,13.42,25,33.28,25,1.75,0,3.34-.08,4.92-.15h38v-53C1091.3,165.46,1077.72,153.94,1053.73,153.94Zm21.69,77.22h-25.34c-12.08,0-19.31-5.49-19.31-14.22,0-7.47,4.45-13.59,20.18-13.59h24.47Z"/><path class="cls-1" d="M1154.38,153.94c-13.9,0-25.18,5.09-31.62,14V154.74h-15.17v87.7h15.89v-45.2c0-19,10.88-29.08,27.8-29.08,15,0,23.59,8.42,23.59,25.58v48.7h15.89V191.91C1190.76,166.18,1175.75,153.94,1154.38,153.94Z"/><path class="cls-1" d="M1003.48,192v50.53H987.59v-48.7c0-17.16-8.26-25.58-22.64-25.58-14.54,0-24.63,8.5-26.14,24.55a43.43,43.43,0,0,0-.23,4.53v45.2H923v-45.2a40.78,40.78,0,0,0-.24-4.53c-1.51-16-11.6-24.55-26.14-24.55-14.37,0-22.63,8.42-22.63,25.58v48.7H858.11V192c0-25.73,14.61-38,35.9-38a41.87,41.87,0,0,1,5.48.32c12.56,1.11,22.8,6.2,29.63,13.82a13,13,0,0,1,1.67,2.07,14.15,14.15,0,0,1,1.67-2.07c6.83-7.62,17.08-12.71,29.63-13.82a42,42,0,0,1,5.48-.32C988.86,154,1003.48,166.26,1003.48,192Z"/></svg>