<?xml version="1.0" encoding="UTF-8"?>
<svg id="Layer_1" data-name="Layer 1" xmlns="http://www.w3.org/2000/svg" viewBox="0 0 76 76">
  <defs>
    <style>
      .cls-1 {
        fill: #bff355;
      }

      .cls-1, .cls-2 {
        stroke-width: 0px;
      }

      .cls-2 {
        fill: #243508;
      }
    </style>
  </defs>
  <rect class="cls-1" width="76" height="76"/>
  <g>
    <path class="cls-2" d="M26.7,49.3c3.8,0,4.8-3.4,4.8-5.3s-.9-5.3-4.8-5.3-4.8,3.4-4.8,5.3c0,1.8,1,5.3,4.8,5.3ZM26.7,39.5c2.4,0,2.5,2.5,2.5,4.5s-.1,4.5-2.5,4.5-2.4-2.5-2.4-4.5.1-4.5,2.4-4.5Z"/>
    <path class="cls-2" d="M37,49.6h2.06c.89,0,1.67.71,1.64,1.59-.06,1.71-1.82,1.91-3.3,1.91-2.6,0-3.7-1.2-3.7-2.9h-.7v2.6c1,.6,2.3,1,4.4,1s4.6-.4,4.6-3.4c0-2-1.4-2.8-4.1-2.8h-2c-1.4,0-1.9-.2-1.9-1,0-.7.7-1.1,1.4-1.2.5.2,1.1.4,1.8.4,3,0,3.8-2.1,3.8-3.5,0-.7-.2-1.3-.6-2,.4-.2.9-.3,1.5-.3v-.7h-2.5c-.6-.4-1.3-.6-2.3-.6-1.12,0-2.27.32-2.98,1.24-.89,1.16-.83,2.62-.26,3.92.1.22.21.43.35.63.05.07.39.53.49.51-1,.3-1.8,1-1.8,2.3,0,1.8,1.2,2.3,4.1,2.3ZM37.3,39.4c1.5,0,1.8,1.6,1.8,2.9s-.2,2.8-1.8,2.8c-1.5,0-1.8-1.5-1.8-2.8.1-1.3.3-2.9,1.8-2.9Z"/>
    <path class="cls-2" d="M58.8,48.4h-1.7v-4.5c0-1,.2-2.1.7-2.9s1.3-1.4,2.3-1.4c1.5,0,1.5,1.7,1.5,3v5.8h-1.7v.7l5.4-.1v-.7h-1.7v-6.3c0-2.1-1.1-3.3-3-3.3-1.7,0-2.8.8-3.5,2.1v-1.8h-3.8v.7h1.7v8.7h-1.7v.7h5.5v-.7Z"/>
    <path class="cls-2" d="M45.8,49.3c1.5,0,2.4-.8,3.1-1.9v1.7h3.7v-.7h-1.6v-5.76c0-2.11-1.71-3.84-3.82-3.84-1.29,0-2.38.4-3.18,1v2.4h.7c0-1.16.38-2.61,2.23-2.7,1.09-.05,1.97.9,1.97,1.99v1.51c-3.2-.1-6,.8-6,3.4,0,1.9.9,2.9,2.9,2.9ZM48.9,43.6s0,2.9-.7,3.8c-.4.5-1,.8-1.7.8-1.1,0-1.4-.9-1.4-2.1,0-2,1.2-2.5,3.8-2.5Z"/>
    <path class="cls-2" d="M24.6,58.3c-3.8,0-4.8,3.4-4.8,5.3s1,5.3,4.8,5.3,4.8-3.4,4.8-5.3-1-5.3-4.8-5.3ZM24.6,68.1c-2.3,0-2.4-2.5-2.4-4.5s.1-4.5,2.4-4.5,2.5,2.5,2.5,4.5-.1,4.5-2.5,4.5Z"/>
    <polygon class="cls-2" points="59.8 54.1 56.1 54.1 56.1 54.8 57.8 54.8 57.8 68 54.4 68 54.4 54 50.7 54 50.7 54.7 52.4 54.7 52.4 68 50.7 68 50.7 68.7 61.5 68.8 61.5 68.1 59.8 68.1 59.8 54.1"/>
    <path class="cls-2" d="M67.2,62.9c-1.5-.7-3.3-1-3.3-2.4,0-1,.8-1.4,2-1.4,2.2,0,2.5,1.8,2.5,2.7h.7v-2.4h-.2c-.8-.7-1.8-1-3.1-1-2.2,0-3.5,1.2-3.5,2.8,0,2.4,1.9,2.9,2.9,3.2,1.7.7,2.6,1.1,2.6,2.4,0,.8-.6,1.4-2.1,1.4s-2.6-1-2.6-2.9h-.7v2.7c.7.5,1.8.9,3.3.9,2.3,0,3.8-1.1,3.8-3,0-1.4-.6-2.2-2.3-3Z"/>
    <path class="cls-2" d="M50,63c.1-2.6-1.8-4.6-4.5-4.6s-4.5,2.5-4.5,5.3,1.5,5.3,4.5,5.3c3.4,0,4.2-3.1,4.2-3.1l-.7-.2s-.67,2.31-2.87,2.4c-1.52.06-2.73-1.26-2.73-2.78v-2.32h6.6ZM45.5,59.1c1.2,0,2.1.8,2.1,3.1h-4.1c0-1.5.4-3.1,2-3.1Z"/>
    <path class="cls-2" d="M13.4,68h-2.4v-13.3h1.8v-.7h-6v.7h1.8v13.3h-1.8v.7h11.5v-4.9h-.7c0,2.6-1.7,4.2-4.2,4.2Z"/>
    <polygon class="cls-2" points="12.7 48.4 10.9 48.4 10.9 41.9 17.4 41.9 17.4 48.4 15.6 48.4 15.6 49.1 21.5 49.1 21.5 48.4 19.7 48.4 19.7 35.1 21.5 35.1 21.5 34.4 15.7 34.4 15.7 35.1 17.5 35.1 17.5 41.1 11 41.1 11 35.1 12.9 35.1 12.9 34.4 6.8 34.4 6.8 35.1 8.6 35.1 8.6 48.4 6.8 48.4 6.8 49.1 12.7 49.1 12.7 48.4"/>
    <polygon class="cls-2" points="41 58.6 37.1 58.6 37.1 59.3 38.8 59.3 36 66.1 33.1 59.3 34.6 59.3 34.6 58.6 29.4 58.6 29.4 59.3 30.8 59.3 34.9 68.8 35.7 68.8 39.6 59.3 41 59.3 41 58.6"/>
  </g>
</svg>