<?xml version="1.0" encoding="UTF-8"?>
<svg id="Layer_2" data-name="Layer 2" xmlns="http://www.w3.org/2000/svg" viewBox="0 0 492.16 122.94">
  <defs>
    <style>
      .cls-1 {
        fill: #6935ee;
      }
    </style>
  </defs>
  <g id="Layer_1-2" data-name="Layer 1">
    <g>
      <path class="cls-1" d="M93.69,59.13c14.87,0,26.92-12.05,26.92-26.92V6.51c0-2.94-2.38-5.32-5.32-5.32h-25.7c-14.87,0-26.93,12.06-26.93,26.93v15.3c0,1.3-1.05,2.35-2.35,2.35h0c-1.3,0-2.35-1.05-2.35-2.35v-15.33c0-14.85-12.08-26.93-26.92-26.93H5.34C2.4,1.16.02,3.54.02,6.48v25.7C.02,47.02,12.1,59.1,26.95,59.1h18.14c1.3,0,2.35,1.05,2.35,2.35h0c0,1.3-1.05,2.35-2.35,2.35h-18.17c-14.84,0-26.92,12.08-26.92,26.93v25.7c0,2.94,2.38,5.32,5.32,5.32h25.7c14.85,0,26.93-12.08,26.93-26.93v-15.31c0-1.3,1.05-2.35,2.35-2.35h0c1.3,0,2.35,1.05,2.35,2.35v15.33c0,14.85,12.08,26.93,26.92,26.93h25.7c2.94,0,5.32-2.38,5.32-5.32v-25.7c0-14.87-12.05-26.92-26.92-26.92h-18.26c-1.3,0-2.35-1.05-2.35-2.35h0c0-1.3,1.05-2.35,2.35-2.35h18.28ZM50.35,94.83c0,10.66-8.67,19.33-19.33,19.33H7.6v-23.43c0-10.66,8.67-19.33,19.32-19.33h18.22l-25.67,25.67c-1.49,1.48-1.49,3.89,0,5.37.74.74,1.72,1.12,2.69,1.12s1.94-.37,2.69-1.11l25.29-25.28h.22v17.66ZM50.37,45.77h-.23l-25.3-25.32c-1.48-1.48-3.89-1.48-5.37,0-1.48,1.48-1.48,3.89,0,5.37l25.67,25.69h-18.18c-10.66,0-19.33-8.67-19.33-19.32V8.75h23.43c10.66,0,19.32,8.67,19.32,19.33v17.68ZM101.41,97.07l-25.62-25.64h17.88c10.66,0,19.32,8.67,19.32,19.32v23.43h-23.43c-10.66,0-19.32-8.67-19.32-19.33v-17.68h.54l25.26,25.27c.74.74,1.72,1.12,2.69,1.12s1.94-.37,2.68-1.11c1.48-1.49,1.49-3.89,0-5.38ZM70.8,45.77h-.53v-17.66c0-10.66,8.67-19.32,19.33-19.32h23.42v23.42c0,10.66-8.67,19.33-19.32,19.33h-17.92l25.68-25.67c1.49-1.48,1.49-3.89,0-5.37-1.48-1.48-3.88-1.49-5.37,0l-25.29,25.27Z"/>
      <g>
        <path class="cls-1" d="M263.49,3.04h15.18v116.87h-15.18V3.04Z"/>
        <path class="cls-1" d="M306.74,90.05c3.2,6.24,7.93,11,14.17,14.29,6.24,3.29,12.81,4.93,19.73,4.93,3.2,0,6.41-.51,9.61-1.52,3.2-1.01,6.07-2.44,8.6-4.3,2.53-1.85,4.59-4.09,6.2-6.7,1.6-2.61,2.4-5.6,2.4-8.98,0-5.39-1.73-9.44-5.19-12.14-3.46-2.7-7.72-4.81-12.77-6.32-5.06-1.52-10.62-2.82-16.69-3.92-6.07-1.09-11.64-2.78-16.69-5.06-5.06-2.28-9.32-5.44-12.77-9.49-3.46-4.05-5.19-9.78-5.19-17.2,0-5.73,1.18-10.71,3.54-14.92,2.36-4.21,5.44-7.72,9.23-10.5,3.79-2.78,8.05-4.85,12.77-6.2,4.72-1.35,9.53-2.02,14.42-2.02,9.61,0,17.92,1.77,24.92,5.31,7,3.54,12.43,9.11,16.32,16.69l-13.66,8.09c-2.87-5.4-6.45-9.49-10.75-12.27-4.3-2.78-9.91-4.17-16.82-4.17-2.7,0-5.53.42-8.47,1.26-2.95.85-5.61,2.02-7.97,3.54-2.36,1.52-4.34,3.46-5.94,5.82-1.6,2.36-2.4,5.06-2.4,8.09,0,5.23,1.73,9.11,5.19,11.64,3.45,2.53,7.72,4.51,12.77,5.94,5.06,1.43,10.62,2.66,16.69,3.67,6.07,1.01,11.64,2.66,16.69,4.93,5.06,2.28,9.32,5.57,12.77,9.87,3.46,4.3,5.19,10.41,5.19,18.34,0,6.07-1.14,11.34-3.42,15.81-2.28,4.47-5.4,8.22-9.36,11.26-3.96,3.04-8.47,5.31-13.53,6.83-5.06,1.52-10.37,2.28-15.94,2.28-10.12,0-19.35-1.94-27.7-5.82-8.35-3.88-14.8-9.87-19.35-17.96l13.41-9.11Z"/>
        <path class="cls-1" d="M489.88,70.83c0,5.73.04,10.88.13,15.43.08,4.55.21,8.77.38,12.65.17,3.88.38,7.51.63,10.88.25,3.38.63,6.75,1.14,10.12h-14.17c-1.01-5.73-1.52-12.06-1.52-18.97h-.51c-4.39,7.59-9.83,13.15-16.32,16.69-6.49,3.54-14.71,5.31-24.66,5.31-5.06,0-10.04-.63-14.92-1.9-4.89-1.26-9.28-3.29-13.15-6.07-3.88-2.78-7.04-6.36-9.49-10.75-2.45-4.38-3.67-9.7-3.67-15.94,0-8.94,2.28-16.02,6.83-21.25,4.55-5.23,10.16-9.15,16.82-11.76,6.66-2.61,13.74-4.3,21.25-5.06,7.5-.76,14.12-1.14,19.86-1.14h17.71v-7.08c0-10.12-3.12-17.37-9.36-21.75-6.24-4.38-14.08-6.58-23.53-6.58-13.49,0-25.38,4.39-35.67,13.15l-8.85-10.37c5.56-5.4,12.48-9.49,20.74-12.27,8.26-2.78,16.19-4.17,23.78-4.17,14.17,0,25.46,3.33,33.9,9.99,8.43,6.66,12.65,17.41,12.65,32.25v28.58ZM459.53,61.22c-6.41,0-12.61.42-18.59,1.26-5.99.85-11.38,2.28-16.19,4.3-4.81,2.02-8.64,4.72-11.51,8.09-2.87,3.38-4.3,7.59-4.3,12.65,0,3.54.8,6.7,2.4,9.49,1.6,2.78,3.67,5.06,6.2,6.83,2.53,1.77,5.35,3.12,8.47,4.05,3.12.93,6.28,1.39,9.49,1.39,8.09,0,14.75-1.18,19.98-3.54,5.23-2.36,9.4-5.44,12.52-9.23,3.12-3.79,5.27-8.09,6.45-12.9,1.18-4.81,1.77-9.65,1.77-14.54v-7.84h-16.69Z"/>
        <path class="cls-1" d="M150.55,3.04h13.9v49.65h62.56V3.04h13.9v117.18h-13.9v-54.62h-62.56v54.62h-13.9V3.04Z"/>
      </g>
    </g>
  </g>
</svg>