<svg width="730" height="111" viewBox="0 0 730 111" fill="none" xmlns="http://www.w3.org/2000/svg">
<g clip-path="url(#clip0_1511_87932)">
<path d="M147 110.236V110.25H110.25V73.4995H110.264L147 110.236Z" fill="white"/>
<path d="M147 36.736V110.236L110.264 73.5H110.25V36.75V35.5731V0H110.264L147 36.736Z" fill="#1569EC"/>
<path d="M110.25 0V35.5731L74.6768 0H110.25Z" fill="#1569EC"/>
<path d="M110.25 35.5731V36.75H73.5002V0H74.6771L110.25 35.5731Z" fill="white"/>
<path d="M110.25 73.4995V110.25H110.208L73.5002 73.5415V73.4995H110.25Z" fill="white"/>
<path d="M110.25 73.486V73.5H73.4582L36.7502 36.792V0H36.7643L73.5002 36.736V36.75H73.5143L110.25 73.486Z" fill="white"/>
<path d="M36.7502 36.75H36.7082L36.7502 36.792V73.5H36.5261L36.7502 73.7242V110.236L0.0142548 73.5H0.000244141V0H36.7502V36.75Z" fill="#1569EC"/>
<path d="M73.5002 73.5415V110.25H73.2761L36.7502 73.7237V73.4995H73.4582L73.5002 73.5415Z" fill="white"/>
<path d="M73.2761 110.25H36.7502V73.7241L73.2761 110.25Z" fill="#1569EC"/>
</g>
<path d="M710.329 82.2373C705.762 82.2373 701.61 81.3477 697.874 79.5683C694.196 77.7297 691.26 75.0903 689.066 71.6503C686.931 68.1509 685.863 63.9695 685.863 59.106C685.863 54.3018 686.96 50.1796 689.155 46.7396C691.349 43.2402 694.196 40.5712 697.696 38.7326C701.195 36.8939 704.902 35.9746 708.817 35.9746C713.384 35.9746 717.209 36.9236 720.293 38.8215C723.377 40.6602 725.691 43.1809 727.233 46.3837C728.834 49.5272 729.635 53.1155 729.635 57.1487C729.635 58.3349 729.546 59.4915 729.368 60.6184C729.249 61.686 729.131 62.4867 729.012 63.0205H695.561V54.2128H720.204L718.158 56.7039C718.158 53.1452 717.387 50.4762 715.845 48.6969C714.362 46.8582 712.168 45.9389 709.261 45.9389C707.126 45.9389 705.258 46.4134 703.656 47.3624C702.055 48.3113 700.81 49.7645 699.92 51.7217C699.03 53.679 698.585 56.1404 698.585 59.106C698.585 62.1308 699.119 64.6219 700.187 66.5792C701.254 68.4771 702.796 69.9006 704.813 70.8496C706.83 71.7986 709.261 72.2731 712.108 72.2731C714.125 72.2731 716.023 72.0062 717.802 71.4724C719.641 70.9386 721.539 70.1675 723.496 69.1592L727.855 77.0773C725.305 78.6787 722.488 79.9539 719.404 80.9028C716.319 81.7925 713.295 82.2373 710.329 82.2373Z" fill="white"/>
<path d="M651.468 81.17L634.831 37.0425H647.998L654.937 57.8607C655.649 60.0552 656.331 62.2794 656.984 64.5332C657.636 66.787 658.289 69.1002 658.941 71.4726H659.297C659.949 69.1002 660.572 66.787 661.165 64.5332C661.818 62.2794 662.5 60.0552 663.211 57.8607L670.151 37.0425H682.695L666.503 81.17H651.468Z" fill="white"/>
<path d="M607.909 81.1699V47.2736H590.115V37.0424H620.987V81.1699H607.909ZM613.869 30.103C611.378 30.103 609.303 29.3913 607.642 27.9678C605.981 26.485 605.151 24.5574 605.151 22.1849C605.151 19.7532 605.981 17.7959 607.642 16.3131C609.303 14.771 611.378 14 613.869 14C616.42 14 618.496 14.771 620.097 16.3131C621.758 17.7959 622.588 19.7532 622.588 22.1849C622.588 24.5574 621.758 26.485 620.097 27.9678C618.496 29.3913 616.42 30.103 613.869 30.103Z" fill="white"/>
<path d="M539.973 81.1699V23.1636H553.051V45.5832H568.887V23.1636H581.965V81.1699H568.887V56.971H553.051V81.1699H539.973Z" fill="white"/>
<path d="M498.104 98.4296C496.799 98.4296 495.584 98.3406 494.457 98.1627C493.33 97.9847 492.292 97.7771 491.343 97.5399L493.656 87.5756C494.249 87.7536 494.842 87.8722 495.435 87.9315C496.028 88.0501 496.592 88.1094 497.126 88.1094C499.676 88.1094 501.663 87.546 503.086 86.419C504.569 85.3514 505.666 83.9873 506.378 82.3266L507.268 80.0134L488.14 37.0425H501.129L508.513 55.9924C509.344 58.0683 510.115 60.2332 510.827 62.487C511.538 64.6815 512.25 66.9353 512.962 69.2485H513.318C513.911 67.0539 514.563 64.8298 515.275 62.576C515.987 60.3221 516.669 58.1276 517.321 55.9924L523.816 37.0425H536.182L518.745 81.6148C517.38 85.2921 515.779 88.3763 513.94 90.8674C512.161 93.3585 509.996 95.2268 507.446 96.4723C504.955 97.7771 501.841 98.4296 498.104 98.4296Z" fill="white"/>
<path d="M446.805 81.1697V37.0422H457.481L458.549 46.6506H458.816C461.01 43.0326 463.65 40.3636 466.734 38.6436C469.877 36.8643 473.199 35.9746 476.698 35.9746C478.655 35.9746 480.227 36.1229 481.413 36.4194C482.659 36.716 483.934 37.1608 485.239 37.7539L482.57 48.6969C481.206 48.2817 479.96 47.9851 478.833 47.8072C477.766 47.5699 476.401 47.4513 474.741 47.4513C472.012 47.4513 469.314 48.252 466.645 49.8534C464.035 51.4548 461.781 54.2425 459.883 58.2163V81.1697H446.805Z" fill="white"/>
<path d="M416.947 82.2373C412.38 82.2373 408.228 81.3477 404.492 79.5683C400.814 77.7297 397.879 75.0903 395.684 71.6503C393.549 68.1509 392.481 63.9695 392.481 59.106C392.481 54.3018 393.578 50.1796 395.773 46.7396C397.967 43.2402 400.814 40.5712 404.314 38.7326C407.813 36.8939 411.52 35.9746 415.435 35.9746C420.002 35.9746 423.827 36.9236 426.911 38.8215C429.996 40.6602 432.309 43.1809 433.851 46.3837C435.452 49.5272 436.253 53.1155 436.253 57.1487C436.253 58.3349 436.164 59.4915 435.986 60.6184C435.867 61.686 435.749 62.4867 435.63 63.0205H402.179V54.2128H426.822L424.776 56.7039C424.776 53.1452 424.005 50.4762 422.463 48.6969C420.98 46.8582 418.786 45.9389 415.879 45.9389C413.744 45.9389 411.876 46.4134 410.275 47.3624C408.673 48.3113 407.428 49.7645 406.538 51.7217C405.648 53.679 405.203 56.1404 405.203 59.106C405.203 62.1308 405.737 64.6219 406.805 66.5792C407.872 68.4771 409.415 69.9006 411.431 70.8496C413.448 71.7986 415.879 72.2731 418.726 72.2731C420.743 72.2731 422.641 72.0062 424.42 71.4724C426.259 70.9386 428.157 70.1675 430.114 69.1592L434.474 77.0773C431.923 78.6787 429.106 79.9539 426.022 80.9028C422.938 81.7925 419.913 82.2373 416.947 82.2373Z" fill="white"/>
<path d="M373.21 82.2376C368.525 82.2376 364.788 81.4369 362 79.8355C359.272 78.1748 357.285 75.8913 356.04 72.9851C354.794 70.0788 354.171 66.6981 354.171 62.8428V47.2737H343.139V37.5763L354.794 37.0425L356.484 23.5195H367.249V37.0425H385.932V47.2737H367.249V62.7539C367.249 64.9484 367.576 66.7277 368.228 68.0919C368.88 69.4561 369.889 70.4643 371.253 71.1168C372.617 71.7099 374.367 72.0064 376.502 72.0064C378.222 72.0064 379.794 71.8582 381.217 71.5616C382.641 71.265 384.005 70.8795 385.31 70.405L387.623 79.8355C385.666 80.4286 383.501 80.9624 381.128 81.4369C378.815 81.9707 376.176 82.2376 373.21 82.2376Z" fill="white"/>
<path d="M316.128 82.2373C312.214 82.2373 308.329 81.5849 304.474 80.2801C300.618 78.9159 297.297 77.3145 294.509 75.4759L300.114 67.2909C302.783 69.0109 305.6 70.3158 308.566 71.2055C311.591 72.0951 314.705 72.54 317.908 72.54C320.339 72.54 322.119 72.1841 323.246 71.4724C324.372 70.7013 324.936 69.8116 324.936 68.8034C324.936 68.1509 324.758 67.6171 324.402 67.202C324.106 66.7275 323.542 66.3123 322.712 65.9564C321.941 65.5412 320.843 65.1557 319.42 64.7998C318.056 64.444 316.276 64.0288 314.082 63.5543C308.092 62.2495 303.791 60.4701 301.182 58.2163C298.572 55.9625 297.267 53.1452 297.267 49.7645C297.267 45.6127 299.076 42.2913 302.694 39.8002C306.312 37.2498 311.265 35.9746 317.552 35.9746C321.526 35.9746 325.114 36.627 328.317 37.9319C331.579 39.1774 334.366 40.5416 336.68 42.0244L330.808 49.8534C328.613 48.4893 326.27 47.4513 323.779 46.7396C321.288 46.0279 318.827 45.672 316.395 45.672C315.031 45.672 313.904 45.8203 313.014 46.1168C312.125 46.3541 311.443 46.7692 310.968 47.3624C310.494 47.8962 310.256 48.4893 310.256 49.1417C310.256 50.3279 311.027 51.2176 312.57 51.8107C314.112 52.3445 316.751 53.0266 320.488 53.8569C324.995 54.8652 328.524 56.0218 331.075 57.3266C333.625 58.6315 335.375 60.1439 336.324 61.8639C337.332 63.5247 337.836 65.5709 337.836 68.0027C337.836 70.6717 337.006 73.0738 335.345 75.209C333.744 77.3442 331.312 79.0642 328.05 80.369C324.847 81.6146 320.873 82.2373 316.128 82.2373Z" fill="white"/>
<path d="M260.826 82.2373C257.86 82.2373 255.28 81.6442 253.085 80.458C250.95 79.2718 249.29 77.6704 248.103 75.6538C246.917 73.6372 246.324 71.3834 246.324 68.8923C246.324 63.9695 248.548 60.2032 252.996 57.5935C257.504 54.9838 264.977 53.3824 275.416 52.7893C275.238 51.4252 274.793 50.2686 274.082 49.3196C273.37 48.3706 272.332 47.6589 270.968 47.1844C269.663 46.6506 268.002 46.3837 265.986 46.3837C264.562 46.3837 263.139 46.5617 261.715 46.9175C260.292 47.2141 258.809 47.6886 257.267 48.341C255.784 48.9341 254.212 49.6458 252.552 50.4762L247.925 41.9354C249.942 40.7492 252.048 39.7112 254.242 38.8215C256.496 37.9319 258.809 37.2498 261.181 36.7753C263.613 36.2415 266.075 35.9746 268.566 35.9746C272.717 35.9746 276.276 36.716 279.242 38.1988C282.207 39.6222 284.491 41.8168 286.092 44.7823C287.694 47.6886 288.494 51.3955 288.494 55.9032V81.1697H277.818L276.84 76.1876H276.484C274.289 77.8483 271.857 79.2718 269.188 80.458C266.519 81.6442 263.732 82.2373 260.826 82.2373ZM265.007 72.0951C266.964 72.0951 268.803 71.7096 270.523 70.9386C272.243 70.1082 273.874 69.0999 275.416 67.9137V60.6184C271.086 60.8557 267.706 61.3005 265.274 61.9529C262.901 62.6053 261.241 63.4357 260.292 64.444C259.343 65.4523 258.868 66.6088 258.868 67.9137C258.868 68.8034 259.106 69.5744 259.58 70.2268C260.114 70.8792 260.826 71.3537 261.715 71.6503C262.664 71.9468 263.761 72.0951 265.007 72.0951Z" fill="white"/>
<path d="M197.16 81.1699V23.1636H210.861L216.555 43.7149L218.512 51.7219H218.868L220.825 43.7149L226.519 23.1636H240.22V81.1699H229.188V63.1986C229.188 61.5972 229.248 59.6103 229.366 57.2379C229.485 54.8061 229.633 52.2854 229.811 49.6757C229.989 47.066 230.167 44.5749 230.345 42.2025C230.582 39.83 230.76 37.8728 230.879 36.3307H230.612L226.163 51.8109L221.715 65.7787H215.309L210.772 51.8109L206.591 36.3307H206.324C206.442 37.8728 206.591 39.83 206.769 42.2025C207.006 44.5749 207.213 47.066 207.391 49.6757C207.569 52.2854 207.718 54.8061 207.836 57.2379C207.955 59.6103 208.014 61.5972 208.014 63.1986V81.1699H197.16Z" fill="white"/>
<defs>
<clipPath id="clip0_1511_87932">
<rect width="147" height="110.25" fill="white"/>
</clipPath>
</defs>
</svg>
