<svg width="83" height="23" viewBox="0 0 83 23" fill="none" xmlns="http://www.w3.org/2000/svg">
<path d="M5.61359 4.74817L4.7687 3.68947C4.52374 3.38223 4.59432 2.93384 4.91609 2.70964C6.74703 1.44127 8.9454 0.75 11.1832 0.75C13.421 0.75 15.6194 1.44127 17.4503 2.70964C17.7742 2.93384 17.8427 3.38223 17.5977 3.68947L16.7528 4.74817C16.5328 5.02219 16.1384 5.08654 15.8477 4.88933C14.4714 3.94895 12.8709 3.45489 11.1811 3.45489C9.49136 3.45489 7.89084 3.94895 6.51453 4.88933C6.2239 5.08862 5.82948 5.02426 5.60944 4.74817H5.61359Z" fill="#E1FFFD"/>
<path d="M3.12208 18.1643C2.81485 18.4093 2.36646 18.3387 2.14226 18.0169C0.87389 16.186 0.182617 13.9876 0.182617 11.7498C0.182617 9.69258 0.745184 7.71426 1.81427 5.98296C2.01978 5.65082 2.46402 5.55948 2.78371 5.78575L3.88809 6.57251C4.17664 6.77803 4.2576 7.1683 4.07492 7.47138C3.29646 8.76051 2.88751 10.2261 2.88751 11.7519C2.88751 13.4416 3.38157 15.0422 4.32195 16.4185C4.52123 16.7091 4.45688 17.1035 4.18079 17.3236L3.12208 18.1685V18.1643Z" fill="#E1FFFD"/>
<path d="M11.1824 22.7504C9.1252 22.7504 7.14687 22.1879 5.41558 21.1188C5.08343 20.9133 4.9921 20.469 5.21837 20.1494L6.00513 19.045C6.21064 18.7564 6.60091 18.6755 6.90399 18.8581C8.19312 19.6366 9.6587 20.0456 11.1845 20.0456C12.7103 20.0456 14.1758 19.6366 15.465 18.8581C15.7681 18.6755 16.1583 18.7585 16.3638 19.045L17.1506 20.1494C17.3769 20.469 17.2876 20.9112 16.9534 21.1188C15.2221 22.1879 13.2417 22.7504 11.1866 22.7504H11.1824Z" fill="#E1FFFD"/>
<path d="M19.2436 18.1645L18.1849 17.3196C17.9088 17.0995 17.8466 16.7051 18.0438 16.4145C18.9841 15.0382 19.4782 13.4377 19.4782 11.7479C19.4782 10.2242 19.0693 8.75653 18.2908 7.4674C18.1081 7.16432 18.1911 6.77406 18.4776 6.56854L19.582 5.78385C19.9017 5.55758 20.3439 5.64684 20.5514 5.98106C21.6205 7.71236 22.1831 9.69276 22.1831 11.7479C22.1831 13.9857 21.4918 16.1841 20.2234 18.015C19.9993 18.3389 19.5509 18.4074 19.2436 18.1624V18.1645Z" fill="#E1FFFD"/>
<path d="M11.1825 17.2635C14.2276 17.2635 16.6961 14.795 16.6961 11.7499C16.6961 8.70484 14.2276 6.23633 11.1825 6.23633C8.13746 6.23633 5.66895 8.70484 5.66895 11.7499C5.66895 14.795 8.13746 17.2635 11.1825 17.2635Z" fill="#0EA59D"/>
<path d="M67.1402 6.26331H66.4324C64.8692 6.26331 63.4265 6.78852 62.2723 7.67077V6.91307C62.2723 6.53941 61.9692 6.23633 61.5955 6.23633H60.2441C59.8705 6.23633 59.5674 6.53941 59.5674 6.91307V19.3435C59.5674 19.7172 59.8705 20.0203 60.2441 20.0203H61.5955C61.9692 20.0203 62.2723 19.7172 62.2723 19.3435V13.1283C62.2723 10.8344 64.1385 8.9682 66.4324 8.9682H67.1402C67.5139 8.9682 67.817 8.66512 67.817 8.29146V6.94006C67.817 6.5664 67.5139 6.26331 67.1402 6.26331Z" fill="#E1FFFD"/>
<path d="M51.2497 19.9936C47.4633 19.9936 44.3848 16.913 44.3848 13.1287C44.3848 9.3443 47.4654 6.26367 51.2497 6.26367C55.0341 6.26367 58.1147 9.3443 58.1147 13.1287C58.1147 16.913 55.0341 19.9936 51.2497 19.9936ZM51.2497 8.96649C48.9559 8.96649 47.0897 10.8327 47.0897 13.1266C47.0897 15.4204 48.9559 17.2867 51.2497 17.2867C53.5436 17.2867 55.4098 15.4204 55.4098 13.1266C55.4098 10.8327 53.5436 8.96649 51.2497 8.96649Z" fill="#E1FFFD"/>
<path d="M82.2386 14.4797C82.5832 14.4797 82.8739 14.2223 82.9112 13.8798C82.9382 13.6327 82.9528 13.3816 82.9528 13.1283C82.9528 9.25261 79.7247 6.11594 75.8158 6.26748C72.2536 6.40449 69.364 9.29413 69.2269 12.8564C69.0754 16.7653 72.2121 19.9933 76.0878 19.9933C78.4647 19.9933 80.5613 18.7789 81.7944 16.9396C82.0954 16.4892 81.7757 15.8851 81.2339 15.8851H79.4902C79.3096 15.8851 79.1373 15.9598 79.0086 16.0865C78.2571 16.8275 77.2254 17.2884 76.0878 17.2884C74.2672 17.2884 72.7165 16.1114 72.154 14.4797H82.2407H82.2386ZM76.0857 8.96614C77.9063 8.96614 79.457 10.1432 80.0195 11.7748H72.1519C72.7144 10.1432 74.2651 8.96614 76.0857 8.96614Z" fill="#E1FFFD"/>
<path d="M41.4033 16.5227C42.3645 15.1754 42.9291 13.5272 42.9291 11.7502C42.9291 7.204 39.232 3.50684 34.6858 3.50684C30.1396 3.50684 26.4424 7.204 26.4424 11.7502C26.4424 16.2964 30.1396 19.9936 34.6858 19.9936C36.4731 19.9936 38.1297 19.4206 39.4831 18.4512C39.7634 18.8311 39.9751 19.2068 40.081 19.5576C40.1661 19.84 40.4298 20.0289 40.7245 20.0289H42.1133C42.5389 20.0289 42.8627 19.6407 42.7776 19.2234C42.5804 18.2519 42.049 17.3323 41.4033 16.5227ZM29.1452 11.7502C29.1452 8.69657 31.63 6.21173 34.6837 6.21173C37.7373 6.21173 40.2222 8.69657 40.2222 11.7502C40.2222 12.7778 39.9398 13.741 39.4499 14.5672C39.0534 14.2371 38.686 13.9631 38.3975 13.7597C38.0819 13.5355 37.6418 13.6227 37.4342 13.9507L36.7139 15.0945C36.5229 15.3976 36.6018 15.7961 36.8924 16.0037C37.1042 16.1553 37.3221 16.3193 37.538 16.4936C36.7035 16.9981 35.7279 17.2887 34.6837 17.2887C31.63 17.2887 29.1452 14.8039 29.1452 11.7502Z" fill="#E1FFFD"/>
</svg>
