<svg xmlns="http://www.w3.org/2000/svg" width="300" height="40" viewBox="0 0 300 40" fill="none"><path d="M2.98284 14.4712C2.98284 15.1771 3.27527 15.7163 3.86014 16.0889C4.46451 16.4614 5.55626 16.7065 7.13541 16.8242C8.83153 16.9614 10.1182 17.3732 10.9956 18.0595C11.8924 18.7261 12.3408 19.7065 12.3408 21.0006V21.1771C12.3408 21.883 12.1945 22.5202 11.9021 23.0889C11.6292 23.6379 11.2392 24.1085 10.7324 24.5006C10.245 24.8928 9.6406 25.1869 8.91926 25.383C8.21742 25.5987 7.44734 25.7065 6.60903 25.7065C5.47828 25.7065 4.5035 25.5595 3.68468 25.2653C2.88536 24.9516 2.21276 24.5497 1.66688 24.0595C1.1405 23.5497 0.740835 22.981 0.467896 22.3536C0.194956 21.7065 0.0389912 21.0595 0 20.4124L2.16402 19.883C2.2615 21.0006 2.6904 21.9026 3.45073 22.5889C4.21106 23.2555 5.22484 23.5889 6.49205 23.5889C7.56431 23.5889 8.42212 23.383 9.06548 22.9712C9.72833 22.5399 10.0598 21.9418 10.0598 21.1771C10.0598 20.3536 9.73808 19.7653 9.09472 19.4124C8.45137 19.0595 7.40835 18.834 5.96567 18.7359C4.28904 18.6183 3.00233 18.2261 2.10553 17.5595C1.20873 16.8928 0.76033 15.9222 0.76033 14.6477V14.4712C0.76033 13.785 0.906548 13.1869 1.19898 12.6771C1.49142 12.1477 1.88133 11.7065 2.36872 11.3536C2.87561 11.0006 3.44098 10.7359 4.06484 10.5595C4.68871 10.383 5.34181 10.2948 6.02416 10.2948C6.97945 10.2948 7.81776 10.432 8.5391 10.7065C9.26044 10.9614 9.8648 11.3046 10.3522 11.7359C10.8396 12.1477 11.21 12.6281 11.4634 13.1771C11.7364 13.7261 11.9118 14.2751 11.9898 14.8242L9.82581 15.3536C9.72833 14.4124 9.34817 13.6771 8.68532 13.1477C8.04196 12.6183 7.1939 12.3536 6.14113 12.3536C5.73172 12.3536 5.33206 12.4026 4.94215 12.5006C4.57173 12.5791 4.24031 12.7065 3.94787 12.883C3.65544 13.0595 3.42149 13.285 3.24603 13.5595C3.07057 13.8144 2.98284 14.1183 2.98284 14.4712Z" fill="#024D8C"></path><path d="M19.5436 18.7065C19.602 20.1575 20.0504 21.3242 20.8888 22.2065C21.7271 23.0889 22.8968 23.5301 24.398 23.5301C25.0803 23.5301 25.6749 23.4516 26.1818 23.2948C26.6887 23.1379 27.1176 22.9222 27.4685 22.6477C27.839 22.3732 28.1314 22.0595 28.3458 21.7065C28.5798 21.334 28.765 20.9418 28.9015 20.5301L31.0655 21.1183C30.6561 22.4712 29.8958 23.5791 28.7845 24.4418C27.6927 25.285 26.2111 25.7065 24.3395 25.7065C23.3062 25.7065 22.3509 25.5301 21.4736 25.1771C20.6158 24.8046 19.875 24.285 19.2511 23.6183C18.6273 22.9516 18.1399 22.1575 17.7889 21.2359C17.438 20.3144 17.2626 19.2948 17.2626 18.1771V17.4712C17.2626 16.4516 17.438 15.5006 17.7889 14.6183C18.1594 13.7359 18.6663 12.981 19.3096 12.3536C19.953 11.7065 20.7036 11.2065 21.5614 10.8536C22.4387 10.481 23.3842 10.2948 24.398 10.2948C25.5872 10.2948 26.6107 10.5202 27.4685 10.9712C28.3458 11.4026 29.0574 11.9418 29.6033 12.5889C30.1687 13.2359 30.5781 13.9418 30.8315 14.7065C31.1045 15.4712 31.241 16.1771 31.241 16.8242V18.7065H19.5436ZM24.398 12.4712C23.7546 12.4712 23.1503 12.5791 22.5849 12.7948C22.039 12.9908 21.5516 13.2751 21.1227 13.6477C20.7133 14.0202 20.3721 14.4614 20.0992 14.9712C19.8457 15.4614 19.68 16.0006 19.602 16.5889H28.96C28.921 15.9614 28.765 15.3928 28.4921 14.883C28.2386 14.3732 27.8974 13.9418 27.4685 13.5889C27.0591 13.2359 26.5815 12.9614 26.0356 12.7653C25.5092 12.5693 24.9634 12.4712 24.398 12.4712Z" fill="#024D8C"></path><path d="M34.9638 10.7065H40.2276V12.6477H40.5785C40.949 11.8438 41.4753 11.2555 42.1577 10.883C42.84 10.4908 43.6199 10.2948 44.4972 10.2948C45.9593 10.2948 47.1388 10.7751 48.0356 11.7359C48.9324 12.6967 49.4101 14.0987 49.4686 15.9418L47.0706 16.2948C47.0706 14.9418 46.7489 13.9712 46.1056 13.383C45.4622 12.7751 44.6726 12.4712 43.7368 12.4712C43.1325 12.4712 42.6061 12.5889 42.1577 12.8242C41.7288 13.0595 41.3681 13.383 41.0757 13.7948C40.7832 14.2065 40.5688 14.6869 40.4323 15.2359C40.2958 15.785 40.2276 16.3732 40.2276 17.0006V23.1771H43.9123V25.2948H34.6129V23.1771H37.9466V12.8242H34.9638V10.7065Z" fill="#024D8C"></path><path d="M62.3154 25.2948H57.8119L52.7527 10.7065H55.4431L59.8881 24.2359H60.2391L64.6841 10.7065H67.3745L62.3154 25.2948Z" fill="#024D8C"></path><path d="M73.2613 18.7065C73.3198 20.1575 73.7682 21.3242 74.6065 22.2065C75.4448 23.0889 76.6146 23.5301 78.1158 23.5301C78.7981 23.5301 79.3927 23.4516 79.8996 23.2948C80.4065 23.1379 80.8354 22.9222 81.1863 22.6477C81.5567 22.3732 81.8492 22.0595 82.0636 21.7065C82.2976 21.334 82.4828 20.9418 82.6192 20.5301L84.7833 21.1183C84.3739 22.4712 83.6135 23.5791 82.5023 24.4418C81.4105 25.285 79.9288 25.7065 78.0573 25.7065C77.024 25.7065 76.0687 25.5301 75.1914 25.1771C74.3336 24.8046 73.5928 24.285 72.9689 23.6183C72.345 22.9516 71.8576 22.1575 71.5067 21.2359C71.1558 20.3144 70.9803 19.2948 70.9803 18.1771V17.4712C70.9803 16.4516 71.1558 15.5006 71.5067 14.6183C71.8771 13.7359 72.384 12.981 73.0274 12.3536C73.6707 11.7065 74.4213 11.2065 75.2791 10.8536C76.1564 10.481 77.102 10.2948 78.1158 10.2948C79.305 10.2948 80.3285 10.5202 81.1863 10.9712C82.0636 11.4026 82.7752 11.9418 83.3211 12.5889C83.8865 13.2359 84.2959 13.9418 84.5493 14.7065C84.8223 15.4712 84.9587 16.1771 84.9587 16.8242V18.7065H73.2613ZM78.1158 12.4712C77.4724 12.4712 76.868 12.5791 76.3027 12.7948C75.7568 12.9908 75.2694 13.2751 74.8405 13.6477C74.4311 14.0202 74.0899 14.4614 73.8169 14.9712C73.5635 15.4614 73.3978 16.0006 73.3198 16.5889H82.6777C82.6387 15.9614 82.4828 15.3928 82.2098 14.883C81.9564 14.3732 81.6152 13.9418 81.1863 13.5889C80.7769 13.2359 80.2993 12.9614 79.7534 12.7653C79.227 12.5693 78.6811 12.4712 78.1158 12.4712Z" fill="#024D8C"></path><path d="M88.6816 10.7065H93.9454V12.6477H94.2963C94.6667 11.8438 95.1931 11.2555 95.8755 10.883C96.5578 10.4908 97.3376 10.2948 98.2149 10.2948C99.6771 10.2948 100.857 10.7751 101.753 11.7359C102.65 12.6967 103.128 14.0987 103.186 15.9418L100.788 16.2948C100.788 14.9418 100.467 13.9712 99.8233 13.383C99.18 12.7751 98.3904 12.4712 97.4546 12.4712C96.8502 12.4712 96.3239 12.5889 95.8755 12.8242C95.4465 13.0595 95.0859 13.383 94.7934 13.7948C94.501 14.2065 94.2866 14.6869 94.1501 15.2359C94.0136 15.785 93.9454 16.3732 93.9454 17.0006V23.1771H97.6301V25.2948H88.3306V23.1771H91.6644V12.8242H88.6816V10.7065Z" fill="#024D8C"></path><path d="M120.975 20.1183C120.819 20.9222 120.546 21.6673 120.156 22.3536C119.786 23.0399 119.308 23.6379 118.724 24.1477C118.139 24.6379 117.456 25.0202 116.676 25.2948C115.897 25.5693 115.029 25.7065 114.074 25.7065C113.06 25.7065 112.095 25.5399 111.179 25.2065C110.282 24.8732 109.492 24.3928 108.81 23.7653C108.128 23.1183 107.582 22.334 107.172 21.4124C106.782 20.4908 106.587 19.432 106.587 18.2359V17.883C106.587 16.7065 106.782 15.6477 107.172 14.7065C107.582 13.7653 108.128 12.9712 108.81 12.3242C109.492 11.6771 110.282 11.1771 111.179 10.8242C112.095 10.4712 113.06 10.2948 114.074 10.2948C114.99 10.2948 115.838 10.432 116.618 10.7065C117.398 10.981 118.08 11.3732 118.665 11.883C119.269 12.3732 119.757 12.9614 120.127 13.6477C120.517 14.334 120.78 15.0791 120.917 15.883L118.636 16.4124C118.577 15.9026 118.431 15.4124 118.197 14.9418C117.983 14.4516 117.681 14.03 117.291 13.6771C116.92 13.3046 116.462 13.0104 115.916 12.7948C115.37 12.5791 114.737 12.4712 114.015 12.4712C113.313 12.4712 112.651 12.6085 112.027 12.883C111.422 13.1379 110.886 13.5104 110.418 14.0006C109.95 14.4712 109.58 15.0399 109.307 15.7065C109.054 16.3732 108.927 17.0987 108.927 17.883V18.2359C108.927 19.0595 109.054 19.8046 109.307 20.4712C109.58 21.1183 109.95 21.6673 110.418 22.1183C110.886 22.5693 111.432 22.9222 112.056 23.1771C112.68 23.4124 113.352 23.5301 114.074 23.5301C114.795 23.5301 115.419 23.4222 115.945 23.2065C116.491 22.9712 116.949 22.6771 117.32 22.3242C117.71 21.9516 118.012 21.53 118.226 21.0595C118.46 20.5889 118.616 20.0987 118.694 19.5889L120.975 20.1183Z" fill="#024D8C"></path><path d="M138.998 18.1771C138.998 19.3928 138.793 20.4712 138.384 21.4124C137.994 22.334 137.468 23.1183 136.805 23.7653C136.142 24.3928 135.362 24.8732 134.465 25.2065C133.588 25.5399 132.672 25.7065 131.717 25.7065C130.742 25.7065 129.816 25.5399 128.938 25.2065C128.061 24.8732 127.291 24.3928 126.628 23.7653C125.965 23.1183 125.429 22.334 125.02 21.4124C124.63 20.4712 124.435 19.3928 124.435 18.1771V17.8242C124.435 16.6281 124.63 15.5693 125.02 14.6477C125.429 13.7065 125.965 12.9124 126.628 12.2653C127.311 11.6183 128.09 11.1281 128.968 10.7948C129.845 10.4614 130.761 10.2948 131.717 10.2948C132.672 10.2948 133.588 10.4614 134.465 10.7948C135.343 11.1281 136.113 11.6183 136.776 12.2653C137.458 12.9124 137.994 13.7065 138.384 14.6477C138.793 15.5693 138.998 16.6281 138.998 17.8242V18.1771ZM131.717 23.5301C132.418 23.5301 133.062 23.4124 133.647 23.1771C134.251 22.9222 134.777 22.5595 135.226 22.0889C135.674 21.6183 136.025 21.0595 136.279 20.4124C136.532 19.7457 136.659 19.0006 136.659 18.1771V17.8242C136.659 17.0399 136.532 16.3242 136.279 15.6771C136.025 15.0104 135.674 14.4418 135.226 13.9712C134.777 13.5006 134.251 13.1379 133.647 12.883C133.042 12.6085 132.399 12.4712 131.717 12.4712C131.034 12.4712 130.391 12.6085 129.786 12.883C129.182 13.1379 128.656 13.5006 128.207 13.9712C127.759 14.4418 127.408 15.0104 127.155 15.6771C126.901 16.3242 126.774 17.0399 126.774 17.8242V18.1771C126.774 19.0006 126.901 19.7457 127.155 20.4124C127.408 21.0595 127.759 21.6183 128.207 22.0889C128.656 22.5595 129.172 22.9222 129.757 23.1771C130.362 23.4124 131.015 23.5301 131.717 23.5301Z" fill="#024D8C"></path><path d="M142.399 10.7065H147.663V12.6477H148.014C148.384 11.8438 148.911 11.2555 149.593 10.883C150.276 10.4908 151.055 10.2948 151.933 10.2948C153.395 10.2948 154.574 10.7751 155.471 11.7359C156.368 12.6967 156.846 14.0987 156.904 15.9418L154.506 16.2948C154.506 14.9418 154.184 13.9712 153.541 13.383C152.898 12.7751 152.108 12.4712 151.172 12.4712C150.568 12.4712 150.042 12.5889 149.593 12.8242C149.164 13.0595 148.804 13.383 148.511 13.7948C148.219 14.2065 148.004 14.6869 147.868 15.2359C147.731 15.785 147.663 16.3732 147.663 17.0006V23.1771H151.348V25.2948H142.048V23.1771H145.382V12.8242H142.399V10.7065Z" fill="#024D8C"></path><path d="M162.791 18.7065C162.849 20.1575 163.298 21.3242 164.136 22.2065C164.974 23.0889 166.144 23.5301 167.645 23.5301C168.328 23.5301 168.922 23.4516 169.429 23.2948C169.936 23.1379 170.365 22.9222 170.716 22.6477C171.086 22.3732 171.379 22.0595 171.593 21.7065C171.827 21.334 172.012 20.9418 172.149 20.5301L174.313 21.1183C173.903 22.4712 173.143 23.5791 172.032 24.4418C170.94 25.285 169.458 25.7065 167.587 25.7065C166.554 25.7065 165.598 25.5301 164.721 25.1771C163.863 24.8046 163.122 24.285 162.499 23.6183C161.875 22.9516 161.387 22.1575 161.036 21.2359C160.685 20.3144 160.51 19.2948 160.51 18.1771V17.4712C160.51 16.4516 160.685 15.5006 161.036 14.6183C161.407 13.7359 161.914 12.981 162.557 12.3536C163.2 11.7065 163.951 11.2065 164.809 10.8536C165.686 10.481 166.632 10.2948 167.645 10.2948C168.835 10.2948 169.858 10.5202 170.716 10.9712C171.593 11.4026 172.305 11.9418 172.851 12.5889C173.416 13.2359 173.825 13.9418 174.079 14.7065C174.352 15.4712 174.488 16.1771 174.488 16.8242V18.7065H162.791ZM167.645 12.4712C167.002 12.4712 166.398 12.5791 165.832 12.7948C165.286 12.9908 164.799 13.2751 164.37 13.6477C163.961 14.0202 163.62 14.4614 163.347 14.9712C163.093 15.4614 162.927 16.0006 162.849 16.5889H172.207C172.168 15.9614 172.012 15.3928 171.739 14.883C171.486 14.3732 171.145 13.9418 170.716 13.5889C170.307 13.2359 169.829 12.9614 169.283 12.7653C168.757 12.5693 168.211 12.4712 167.645 12.4712Z" fill="#024D8C"></path><path d="M174.643 0H184.001L172.303 40H162.945L174.643 0Z" fill="#1CFF86"></path><path fill-rule="evenodd" clip-rule="evenodd" d="M167.129 25.6949C167.28 25.7028 167.433 25.7068 167.587 25.7068C169.459 25.7068 170.94 25.2852 172.032 24.4421C173.143 23.5793 173.904 22.4715 174.313 21.1185L172.149 20.5303C172.013 20.9421 171.827 21.3342 171.593 21.7068C171.379 22.0597 171.087 22.3734 170.716 22.6479C170.365 22.9224 169.936 23.1381 169.429 23.295C168.952 23.4429 168.396 23.521 167.762 23.5295L167.129 25.6949ZM169.172 18.7068H174.489V16.8244C174.489 16.1773 174.352 15.4715 174.079 14.7068C173.826 13.9421 173.416 13.2362 172.851 12.5891C172.44 12.1017 171.935 11.6756 171.335 11.3105L170.678 13.557C170.691 13.5676 170.704 13.5783 170.716 13.5891C171.145 13.9421 171.486 14.3734 171.74 14.8832C172.013 15.393 172.169 15.9617 172.208 16.5891H169.792L169.172 18.7068Z" fill="#002357"></path><path d="M200.9 13.028H199.508C199.46 12.02 198.932 11.444 197.864 11.444C196.64 11.444 196.064 12.164 196.064 13.736C196.064 15.284 196.64 16.004 197.864 16.004C198.932 16.004 199.46 15.464 199.508 14.396H200.9C200.864 16.16 199.808 17.132 197.876 17.132C195.752 17.132 194.612 15.956 194.612 13.736C194.612 11.516 195.752 10.316 197.876 10.316C199.796 10.316 200.852 11.348 200.9 13.028ZM203.889 17H202.473V8H203.889V17ZM208.798 17.132C206.662 17.132 205.522 15.956 205.522 13.736C205.522 11.504 206.662 10.316 208.798 10.316C210.946 10.316 212.086 11.504 212.086 13.724C212.086 15.944 210.946 17.132 208.798 17.132ZM208.798 16.004C210.046 16.004 210.634 15.272 210.634 13.724C210.634 12.164 210.046 11.444 208.798 11.444C207.562 11.444 206.974 12.176 206.974 13.736C206.974 15.272 207.562 16.004 208.798 16.004ZM217.959 14.504V10.46H219.387V17H217.959V16.088C217.527 16.748 216.795 17.132 215.823 17.132C214.443 17.132 213.627 16.496 213.627 15.056V10.46H215.043V14.804C215.043 15.608 215.487 16.004 216.387 16.004C217.299 16.004 217.959 15.452 217.959 14.504ZM223.858 17.132C222.01 17.132 221.026 15.956 221.026 13.736C221.026 11.504 222.01 10.316 223.858 10.316C224.818 10.316 225.598 10.796 226.066 11.6V8H227.494V17H226.066V15.86C225.598 16.664 224.818 17.132 223.858 17.132ZM224.242 15.992C225.442 15.992 226.066 15.248 226.066 13.736C226.066 12.212 225.442 11.456 224.242 11.456C223.042 11.456 222.49 12.164 222.49 13.736C222.49 15.272 223.042 15.992 224.242 15.992ZM235.781 17.132C234.809 17.132 234.041 16.664 233.573 15.872V19.4H232.157V10.46H233.573V11.588C234.041 10.784 234.809 10.316 235.781 10.316C237.617 10.316 238.613 11.504 238.613 13.736C238.613 15.956 237.617 17.132 235.781 17.132ZM235.397 15.992C236.585 15.992 237.149 15.272 237.149 13.736C237.149 12.164 236.585 11.456 235.397 11.456C234.185 11.456 233.573 12.212 233.573 13.736C233.573 15.248 234.185 15.992 235.397 15.992ZM241.67 17H240.254V8H241.67V17ZM243.447 12.5C243.447 11.012 244.419 10.316 246.327 10.316C248.199 10.316 249.135 10.988 249.135 12.632V17H247.755V15.86C247.299 16.664 246.531 17.132 245.487 17.132C244.071 17.132 243.255 16.46 243.255 15.152C243.255 13.736 244.095 13.064 245.847 13.064H247.755V12.632C247.755 11.684 247.299 11.36 246.267 11.36C245.199 11.36 244.779 11.72 244.779 12.5H243.447ZM245.811 16.052C246.927 16.052 247.755 15.248 247.755 14.276V14.06H245.847C245.031 14.06 244.659 14.36 244.659 15.068C244.659 15.776 245.043 16.052 245.811 16.052ZM251.731 15.704V11.6H250.111V10.46H251.803L252.031 8.756H253.159V10.46H255.187V11.6H253.159V15.476C253.159 15.716 253.291 15.848 253.531 15.848H255.187V17H253.027C252.247 17 251.731 16.484 251.731 15.704ZM255.667 10.46H257.263V9.62C257.263 8.648 257.911 8 258.883 8H261.091V9.104H259.087C258.823 9.104 258.679 9.248 258.679 9.524V10.46H260.707V11.6H258.679V17H257.263V11.6H255.667V10.46ZM264.861 17.132C262.725 17.132 261.585 15.956 261.585 13.736C261.585 11.504 262.725 10.316 264.861 10.316C267.009 10.316 268.149 11.504 268.149 13.724C268.149 15.944 267.009 17.132 264.861 17.132ZM264.861 16.004C266.109 16.004 266.697 15.272 266.697 13.724C266.697 12.164 266.109 11.444 264.861 11.444C263.625 11.444 263.037 12.176 263.037 13.736C263.037 15.272 263.625 16.004 264.861 16.004ZM269.786 17V10.46H271.202V11.288C271.478 10.76 271.958 10.46 272.582 10.46H273.842V11.768H271.91C271.454 11.768 271.202 12.044 271.202 12.524V17H269.786ZM275.059 17V10.46H276.475V11.444C276.907 10.736 277.627 10.316 278.551 10.316C279.643 10.316 280.267 10.748 280.483 11.528C280.903 10.772 281.647 10.316 282.691 10.316C284.131 10.316 284.731 11.084 284.731 12.464V17H283.315V12.752C283.315 11.96 283.003 11.456 282.139 11.456C281.143 11.456 280.591 12.032 280.591 13.076V17H279.175V12.752C279.175 11.96 278.851 11.456 277.987 11.456C277.015 11.456 276.475 12.032 276.475 13.076V17H275.059ZM194.144 25.46H195.74V24.62C195.74 23.648 196.388 23 197.36 23H199.568V24.104H197.564C197.3 24.104 197.156 24.248 197.156 24.524V25.46H199.184V26.6H197.156V32H195.74V26.6H194.144V25.46ZM203.337 32.132C201.201 32.132 200.061 30.956 200.061 28.736C200.061 26.504 201.201 25.316 203.337 25.316C205.485 25.316 206.625 26.504 206.625 28.724C206.625 30.944 205.485 32.132 203.337 32.132ZM203.337 31.004C204.585 31.004 205.173 30.272 205.173 28.724C205.173 27.164 204.585 26.444 203.337 26.444C202.101 26.444 201.513 27.176 201.513 28.736C201.513 30.272 202.101 31.004 203.337 31.004ZM208.262 32V25.46H209.678V26.288C209.954 25.76 210.434 25.46 211.058 25.46H212.318V26.768H210.386C209.93 26.768 209.678 27.044 209.678 27.524V32H208.262ZM217.588 32H216.172V23H217.588V26.588C218.056 25.784 218.824 25.316 219.796 25.316C221.632 25.316 222.628 26.504 222.628 28.736C222.628 30.956 221.632 32.132 219.796 32.132C218.824 32.132 218.056 31.664 217.588 30.872V32ZM219.412 30.992C220.6 30.992 221.164 30.272 221.164 28.736C221.164 27.164 220.6 26.456 219.412 26.456C218.2 26.456 217.588 27.212 217.588 28.736C217.588 30.248 218.2 30.992 219.412 30.992ZM228.506 29.504V25.46H229.934V32H228.506V31.088C228.074 31.748 227.342 32.132 226.37 32.132C224.99 32.132 224.174 31.496 224.174 30.056V25.46H225.59V29.804C225.59 30.608 226.034 31.004 226.934 31.004C227.846 31.004 228.506 30.452 228.506 29.504ZM234.369 26.36C233.373 26.36 232.977 26.636 232.977 27.164C232.977 27.692 233.229 27.884 234.141 28.016L235.029 28.136C236.697 28.364 237.273 28.892 237.273 30.116C237.273 31.376 236.385 32.132 234.429 32.132C232.509 32.132 231.465 31.484 231.465 29.852H232.809C232.809 30.728 233.325 31.088 234.429 31.088C235.437 31.088 235.893 30.824 235.893 30.188C235.893 29.624 235.629 29.42 234.681 29.288L233.781 29.168C232.293 28.964 231.609 28.388 231.609 27.284C231.609 26.06 232.569 25.316 234.369 25.316C236.205 25.316 237.093 25.976 237.105 27.404H235.797C235.797 26.66 235.353 26.36 234.369 26.36ZM240.218 23V24.404H238.766V23H240.218ZM240.206 25.46V32H238.79V25.46H240.206ZM242.247 32V25.46H243.663V26.504C244.095 25.748 244.839 25.316 245.883 25.316C247.407 25.316 248.127 26.12 248.127 27.596V32H246.699V27.848C246.699 26.9 246.267 26.456 245.307 26.456C244.299 26.456 243.663 27.068 243.663 28.148V32H242.247ZM252.919 32.132C250.735 32.132 249.667 30.944 249.667 28.712C249.667 26.504 250.759 25.316 252.919 25.316C255.067 25.316 255.979 26.528 255.979 28.496C255.979 28.688 255.955 28.844 255.943 29.012H251.047C251.107 30.416 251.659 31.016 252.967 31.016C254.011 31.016 254.575 30.644 254.611 29.84H255.943C255.835 31.328 254.815 32.132 252.919 32.132ZM252.919 26.384C251.767 26.384 251.215 26.888 251.071 28.052H254.647C254.587 27.008 254.167 26.384 252.919 26.384ZM260.022 26.36C259.026 26.36 258.63 26.636 258.63 27.164C258.63 27.692 258.882 27.884 259.794 28.016L260.682 28.136C262.35 28.364 262.926 28.892 262.926 30.116C262.926 31.376 262.038 32.132 260.082 32.132C258.162 32.132 257.118 31.484 257.118 29.852H258.462C258.462 30.728 258.978 31.088 260.082 31.088C261.09 31.088 261.546 30.824 261.546 30.188C261.546 29.624 261.282 29.42 260.334 29.288L259.434 29.168C257.946 28.964 257.262 28.388 257.262 27.284C257.262 26.06 258.222 25.316 260.022 25.316C261.858 25.316 262.746 25.976 262.758 27.404H261.45C261.45 26.66 261.006 26.36 260.022 26.36ZM266.76 26.36C265.764 26.36 265.368 26.636 265.368 27.164C265.368 27.692 265.62 27.884 266.532 28.016L267.42 28.136C269.088 28.364 269.664 28.892 269.664 30.116C269.664 31.376 268.776 32.132 266.82 32.132C264.9 32.132 263.856 31.484 263.856 29.852H265.2C265.2 30.728 265.716 31.088 266.82 31.088C267.828 31.088 268.284 30.824 268.284 30.188C268.284 29.624 268.02 29.42 267.072 29.288L266.172 29.168C264.684 28.964 264 28.388 264 27.284C264 26.06 264.96 25.316 266.76 25.316C268.596 25.316 269.484 25.976 269.496 27.404H268.188C268.188 26.66 267.744 26.36 266.76 26.36Z" fill="#024D8C"></path></svg>