<svg width="82" height="25" viewBox="0 0 82 25" fill="none" xmlns="http://www.w3.org/2000/svg">
<path fill-rule="evenodd" clip-rule="evenodd" d="M51.8073 7.76339C51.8077 15.9653 51.806 15.831 51.9183 16.6935C52.0761 17.9061 52.4297 19.0356 52.944 19.97C53.7591 21.4507 55.0516 22.5584 56.7467 23.2289C57.2662 23.4345 58.1417 23.6758 58.7821 23.7899C59.607 23.937 60.32 23.9986 61.4444 24.0204L62.2822 24.0366V21.5538V19.0711L61.1838 19.0561C59.8532 19.0381 59.5831 19.0083 58.9807 18.8129C57.8652 18.4512 57.1314 17.6287 56.8241 16.3956C56.6838 15.833 56.687 15.9104 56.6786 12.8149L56.6709 9.95414H59.4765H62.2822V7.45944V4.96476H59.4773H56.6725L56.6662 2.48871L56.6598 0.0126598L54.2335 0.00632988L51.807 0L51.8073 7.76339ZM0.176025 4.9813C0.176025 4.99574 0.74213 6.61798 0.945526 7.18639C0.984622 7.29561 1.26946 8.10545 1.5785 8.98601C1.88754 9.86664 2.1724 10.6765 2.2115 10.7857C2.2506 10.8949 2.50195 11.6097 2.77003 12.3743C3.03815 13.1388 3.28944 13.8538 3.32852 13.963C3.36759 14.0722 3.65243 14.882 3.96147 15.7626C4.27051 16.6432 4.55538 17.453 4.59447 17.5623C4.63357 17.6715 4.88492 18.3863 5.15301 19.1509C5.42112 19.9154 5.67239 20.6303 5.71139 20.7396C5.77948 20.93 5.92948 21.3572 6.57217 23.1904L6.86572 24.0277L9.40144 24.0281L11.9371 24.0285L11.9616 23.9602C11.975 23.9227 12.541 22.317 13.2193 20.392C13.8975 18.467 14.4852 16.7998 14.5252 16.6872C14.5653 16.5746 14.6307 16.3903 14.6708 16.2776C14.7109 16.165 14.9184 15.5758 15.1319 14.9683C15.3455 14.3607 15.5538 13.7688 15.595 13.6527C15.6362 13.5367 15.7034 13.3467 15.7444 13.2307C15.7854 13.1146 15.8505 12.9303 15.8892 12.8211C15.9279 12.7119 16.1008 12.2204 16.2736 11.729C16.4463 11.2374 16.6203 10.7432 16.6601 10.6306C16.7 10.5179 16.7662 10.3308 16.8071 10.2147C16.8481 10.0987 16.9143 9.91164 16.9542 9.79893C16.994 9.68631 17.2016 9.09711 17.4152 8.48957C17.7849 7.43837 17.8444 7.26957 18.0194 6.77682C18.3109 5.95569 18.6442 4.99892 18.6441 4.98339C18.644 4.97313 17.2096 4.96476 15.4564 4.96476H12.2687L12.2178 5.19438C12.063 5.89224 9.81984 16.0409 9.59264 17.0708C9.44456 17.7426 9.31653 18.2843 9.30833 18.2747C9.30004 18.2651 9.26414 18.1121 9.2285 17.9346C9.17174 17.6517 9.0432 17.0313 8.51359 14.4842C8.44545 14.1566 8.37972 13.8383 8.36748 13.7768C8.35525 13.7154 8.28946 13.397 8.22131 13.0693C8.15311 12.7417 8.00107 12.0101 7.88344 11.4435C7.7658 10.8769 7.61377 10.1453 7.54558 9.81755C7.47741 9.48994 7.41166 9.1716 7.3995 9.11012C7.38731 9.04873 7.33156 8.78062 7.27561 8.5144C7.21964 8.24817 7.16375 7.98009 7.1514 7.91866C7.13904 7.85722 7.07206 7.53328 7.00256 7.1988C6.86857 6.55391 6.7844 6.14801 6.63461 5.42398L6.54215 4.97718L3.3591 4.97088C1.60841 4.96742 0.176025 4.97209 0.176025 4.9813ZM27.2574 4.97926C24.8284 5.10988 22.9278 5.84448 21.6106 7.16189C20.3912 8.38143 19.6608 10.0495 19.377 12.2627C19.2233 13.4617 19.2232 15.3047 19.3768 16.5006C19.8447 20.1415 21.5533 22.4637 24.4939 23.4548C25.5875 23.8234 26.7747 24.0091 28.0394 24.0093C30.1691 24.0095 31.9627 23.5076 33.3043 22.5361C34.4706 21.6915 35.2825 20.5768 35.8867 18.9906C35.9463 18.8341 35.995 18.6917 35.995 18.6741C35.995 18.6481 35.5278 18.642 33.5279 18.642H31.0608L30.8408 18.8308C30.2694 19.3215 29.5835 19.6823 28.9163 19.8433C28.3448 19.9812 27.6142 19.9916 27.0202 19.8701C25.5093 19.561 24.5842 18.4495 24.2832 16.5817C24.2558 16.4111 24.2265 16.2044 24.2182 16.1225C24.21 16.0406 24.1969 15.9205 24.189 15.8557L24.1748 15.7378H30.331H36.4872L36.505 15.5493C36.5348 15.2306 36.4994 13.2605 36.4564 12.846C36.2837 11.1823 35.9725 10.0007 35.4137 8.88673C34.7224 7.50879 33.7488 6.53186 32.4082 5.87094C31.474 5.41039 30.5796 5.16653 29.3053 5.02494C28.9992 4.99093 27.6148 4.96003 27.2574 4.97926ZM47.9843 4.98147C47.2211 4.99612 46.2916 5.09494 45.5517 5.24002C44.0462 5.53529 42.8441 6.04921 41.7911 6.84778C41.4692 7.09189 40.8005 7.76148 40.5533 8.0872C39.639 9.29179 39.0879 10.7446 38.8498 12.5778C38.7294 13.505 38.726 13.6798 38.7257 19.0206L38.7255 24.0285H41.1575H43.5895L43.5977 18.7227C43.6064 13.143 43.6024 13.3418 43.718 12.7715C43.9883 11.439 44.7409 10.5661 45.9639 10.1665C46.5097 9.98826 46.8569 9.95414 48.1252 9.95414H49.2006V7.45944V4.96476L48.7476 4.97013C48.4985 4.97309 48.155 4.97819 47.9843 4.98147ZM72.7449 4.98053C71.9673 5.00029 71.0878 5.11452 70.372 5.28878C69.2596 5.55961 68.2257 6.05232 67.4551 6.67884C65.9922 7.86822 65.0836 9.68346 64.7411 12.1013C64.6226 12.9379 64.6039 13.2608 64.6035 14.4967C64.6031 15.6674 64.6133 15.8839 64.7043 16.6314C65.1715 20.4717 67.0262 22.8305 70.2378 23.6691C71.194 23.9188 72.0067 24.011 73.2413 24.01C74.3067 24.009 75.0123 23.9404 75.8548 23.7557C79.2167 23.0188 81.1928 20.7148 81.7416 16.8921C81.8609 16.061 81.8782 15.7601 81.8782 14.5091C81.8782 13.2578 81.8623 12.9825 81.7405 12.1137C81.346 9.29927 80.1637 7.28948 78.2284 6.1431C76.825 5.31176 74.9934 4.92344 72.7449 4.98053ZM27.38 8.77499C25.6508 8.98458 24.6321 10.1524 24.2672 12.3433L24.2517 12.4364H27.8417H31.4317L31.418 12.3681C31.4106 12.3305 31.3866 12.1882 31.3647 12.0516C31.1452 10.6807 30.5717 9.6995 29.6886 9.18371C29.0771 8.82662 28.2143 8.67383 27.38 8.77499ZM72.8317 9.04953C72.5864 9.07662 72.3284 9.12072 72.1628 9.16402C70.8126 9.51685 69.9518 10.6197 69.6181 12.4239C69.3964 13.6222 69.3922 15.2188 69.6076 16.418C69.8859 17.9679 70.5246 19.0109 71.5042 19.5154C72.0008 19.7711 72.5046 19.8819 73.1732 19.8827C74.2003 19.884 74.9294 19.6064 75.5516 18.9775C76.0284 18.4955 76.3615 17.8525 76.5929 16.9679C76.895 15.8124 76.9772 14.1995 76.803 12.8429C76.5776 11.0874 75.962 9.96839 74.9169 9.41421C74.4546 9.1691 74.007 9.06566 73.3407 9.04989C73.1086 9.04445 72.8796 9.04428 72.8317 9.04953Z" fill="url(#paint0_linear_4945_15754)"/>
<defs>
<linearGradient id="paint0_linear_4945_15754" x1="0.176025" y1="24.0366" x2="81.8782" y2="24.0366" gradientUnits="userSpaceOnUse">
<stop stop-color="#0F8C93"/>
<stop offset="1" stop-color="#EA566E"/>
</linearGradient>
</defs>
</svg>
