<?xml version="1.0" encoding="UTF-8"?>
<!DOCTYPE svg PUBLIC "-//W3C//DTD SVG 1.1//EN" "http://www.w3.org/Graphics/SVG/1.1/DTD/svg11.dtd">
<!-- Creator: CorelDRAW 2021 (64-Bit) -->
<svg xmlns="http://www.w3.org/2000/svg" xml:space="preserve" width="1.26302in" height="0.31187in" version="1.1" style="shape-rendering:geometricPrecision; text-rendering:geometricPrecision; image-rendering:optimizeQuality; fill-rule:evenodd; clip-rule:evenodd"
viewBox="0 0 86.99 21.48"
 xmlns:xlink="http://www.w3.org/1999/xlink"
 xmlns:xodm="http://www.corel.com/coreldraw/odm/2003">
 <defs>
  <style type="text/css">
   <![CDATA[
    .fil1 {fill:#ffa600}
    .fil0 {fill:#ffa600;fill-rule:nonzero}
   ]]>
  </style>
 </defs>
 <g id="Layer_x0020_1">
  <metadata id="CorelCorpID_0Corel-Layer"/>
  <g id="_1788230234144">
   <path class="fil0" d="M24.43 9.57c0.09,-0.66 0.38,-1.19 0.84,-1.6 0.46,-0.42 1.02,-0.63 1.66,-0.63 0.61,0 1.14,0.17 1.58,0.5 0.44,0.32 0.73,0.76 0.87,1.31l-4.95 0.43zm2.53 -3.84c-1.16,-0.01 -2.15,0.4 -2.96,1.23 -0.81,0.83 -1.21,1.85 -1.21,3.06 0,1.18 0.42,2.19 1.26,3.03 0.84,0.84 1.85,1.26 3.03,1.26 0.75,0 1.44,-0.18 2.09,-0.54 0.66,-0.36 1.18,-0.86 1.57,-1.49 0.05,-0.08 0.03,-0.13 -0.05,-0.17l-1.18 -0.69c-0.07,-0.04 -0.13,-0.02 -0.17,0.05 -0.24,0.38 -0.57,0.68 -0.98,0.91 -0.4,0.22 -0.83,0.33 -1.29,0.33 -0.52,0 -1,-0.14 -1.44,-0.42 -0.43,-0.28 -0.76,-0.65 -0.98,-1.11l6.31 -0.54c0.07,-0.01 0.11,-0.05 0.11,-0.12l0 -0.54c0,-1.15 -0.4,-2.13 -1.2,-2.96 -0.8,-0.83 -1.77,-1.26 -2.92,-1.26z"/>
   <path id="_1" class="fil0" d="M34.93 11.27l-2.05 -5.55c-0.02,-0.05 -0.06,-0.08 -0.12,-0.08l-1.48 0c-0.05,0 -0.07,0.02 -0.09,0.05 -0.03,0.04 -0.03,0.08 -0.02,0.12l3.11 8.39c0.02,0.06 0.06,0.08 0.11,0.08l1.09 0c0.07,0 0.1,-0.03 0.12,-0.08l3.1 -8.39c0.02,-0.04 0.02,-0.08 -0.01,-0.12 -0.02,-0.03 -0.06,-0.05 -0.1,-0.05l-1.48 0c-0.06,0 -0.09,0.03 -0.11,0.08l-2.06 5.55z"/>
   <path id="_2" class="fil0" d="M39.84 9.57c0.09,-0.66 0.38,-1.19 0.84,-1.6 0.46,-0.42 1.02,-0.63 1.66,-0.63 0.61,0 1.14,0.17 1.58,0.5 0.44,0.32 0.73,0.76 0.87,1.31l-4.95 0.43zm2.53 -3.84c-1.16,-0.01 -2.15,0.4 -2.96,1.23 -0.81,0.83 -1.21,1.85 -1.21,3.06 0,1.18 0.42,2.19 1.26,3.03 0.84,0.84 1.85,1.26 3.03,1.26 0.75,0 1.44,-0.18 2.09,-0.54 0.66,-0.36 1.18,-0.86 1.57,-1.49 0.05,-0.08 0.03,-0.13 -0.05,-0.17l-1.18 -0.69c-0.07,-0.04 -0.13,-0.02 -0.17,0.05 -0.24,0.38 -0.57,0.68 -0.98,0.91 -0.4,0.22 -0.83,0.33 -1.29,0.33 -0.52,0 -1,-0.14 -1.44,-0.42 -0.43,-0.28 -0.76,-0.65 -0.98,-1.11l6.31 -0.54c0.07,-0.01 0.11,-0.05 0.11,-0.12l0 -0.54c0,-1.15 -0.4,-2.13 -1.2,-2.96 -0.8,-0.83 -1.77,-1.26 -2.92,-1.26z"/>
   <path id="_3" class="fil0" d="M54.69 11.51c0,-0.21 0,-0.53 0,-0.96l-0.01 -0.26 0 -0.27c0,-0.2 0,-0.38 0,-0.54l0 -0.28c0,-0.13 -0.01,-0.25 -0.03,-0.37 -0.02,-0.25 -0.08,-0.49 -0.16,-0.72 -0.17,-0.49 -0.43,-0.91 -0.8,-1.28 -0.35,-0.37 -0.77,-0.64 -1.26,-0.82 -0.23,-0.08 -0.47,-0.14 -0.72,-0.18l-0.09 -0.01c-0.03,-0.01 -0.07,-0.01 -0.1,-0.01l-0.05 0 -0.05 -0.01c-0.04,0 -0.07,0 -0.08,0l-0.07 0 -0.02 0 -0.04 0 -0.05 0 -0.08 0 -0.09 0.01c-0.46,0.04 -0.9,0.16 -1.31,0.37 -0.14,0.07 -0.28,0.16 -0.43,0.27l0 -0.65c0,-0.08 -0.04,-0.12 -0.12,-0.12l-1.4 0c-0.08,0 -0.12,0.04 -0.12,0.12l0 8.39c0,0.08 0.04,0.12 0.12,0.12l1.4 0c0.08,0 0.12,-0.04 0.12,-0.12l0 -4.84 0 -0.12c0.01,-0.03 0.01,-0.08 0.01,-0.13l0.01 -0.05 0 -0.03 0 -0.04c0.01,-0.04 0.02,-0.09 0.04,-0.16 0.03,-0.15 0.08,-0.29 0.15,-0.43 0.08,-0.18 0.19,-0.34 0.33,-0.48 0.35,-0.38 0.78,-0.58 1.29,-0.6l0.05 -0.01 0.06 0 0.02 0 0.02 0 0.07 0.01c0.03,0 0.05,0 0.06,0l0.02 0 0.03 0c0.01,0 0.02,0 0.04,0.01l0.06 0.01c0.14,0.02 0.27,0.06 0.39,0.11 0.27,0.1 0.51,0.25 0.7,0.46 0.2,0.21 0.34,0.45 0.43,0.72 0.04,0.13 0.07,0.26 0.08,0.4l0.01 0.2 0 0.28c0,0.16 0,0.35 0,0.54l0 0.27 0 0.26c-0.01,0.42 -0.01,0.74 -0.01,0.96 -0.01,0.79 -0.01,1.45 -0.01,1.98l-0.01 0.68c0,0.08 0.04,0.12 0.12,0.12l1.38 0c0.08,0 0.12,-0.04 0.12,-0.12l-0.01 -0.68c0,-0.53 -0,-1.19 -0.01,-1.98z"/>
   <path id="_4" class="fil0" d="M58.59 12.64c-0.24,-0.12 -0.36,-0.38 -0.36,-0.78l0 -4.56 1.31 0c0.08,0 0.12,-0.04 0.12,-0.13l0 -1.36c0,-0.08 -0.04,-0.12 -0.12,-0.12l-1.31 0 0 -1.8c0,-0.08 -0.04,-0.12 -0.13,-0.12l-1.37 0c-0.08,0 -0.12,0.04 -0.12,0.12l0.01 1.8 -1.31 0c-0.08,0 -0.12,0.04 -0.12,0.12l0 1.36c0,0.08 0.04,0.13 0.12,0.13l1.31 0 0 4.56c0,0.5 0.11,0.94 0.33,1.34 0.22,0.39 0.53,0.69 0.92,0.88 0.31,0.15 0.63,0.23 0.97,0.23 0.5,0 0.97,-0.16 1.43,-0.47 0.08,-0.04 0.08,-0.1 0.03,-0.17l-0.81 -1.09c-0.04,-0.07 -0.1,-0.08 -0.16,-0.04 -0.27,0.17 -0.52,0.21 -0.72,0.1z"/>
   <path id="_5" class="fil0" d="M68.46 11.49c-0.01,-0.24 -0.01,-0.56 -0.01,-0.98l0 -0.26 0 -0.28c0,-0.21 -0,-0.39 -0.01,-0.55l0 -0.14 0 -0.18c-0.01,-0.13 -0.03,-0.25 -0.05,-0.36 -0.04,-0.25 -0.1,-0.5 -0.2,-0.73 -0.19,-0.49 -0.47,-0.91 -0.85,-1.27 -0.38,-0.36 -0.81,-0.62 -1.3,-0.79 -0.24,-0.08 -0.49,-0.13 -0.74,-0.15 -0.02,-0.01 -0.06,-0.01 -0.09,-0.01l-0.1 -0.01 -0.05 0 -0.04 0 -0.07 -0.01 -0.06 0 -0.05 0.01 -0.08 0 -0.1 0 -0.08 0.01c-0.47,0.05 -0.9,0.19 -1.31,0.41 -0.14,0.07 -0.29,0.17 -0.45,0.28l0 -5.77c0,-0.08 -0.04,-0.12 -0.12,-0.12l-1.39 0c-0.08,0 -0.12,0.04 -0.12,0.12l0 13.43c0,0.09 0.04,0.13 0.12,0.13l1.39 0c0.08,0 0.12,-0.05 0.12,-0.13l0 -4.37 0.02 -0.49c0.01,-0.03 0.01,-0.08 0.01,-0.14l0.01 -0.05 0 -0.03 0 -0.03c0.01,-0.05 0.02,-0.1 0.04,-0.17 0.03,-0.15 0.08,-0.3 0.15,-0.45 0.09,-0.18 0.2,-0.35 0.34,-0.5 0.17,-0.18 0.36,-0.32 0.57,-0.43 0.24,-0.13 0.49,-0.2 0.76,-0.22l0.06 0 0.05 0 0.06 0 0.02 0 0.02 0 0.07 0c0.04,0 0.06,0 0.07,0l0.04 0.01c0.02,0 0.04,0 0.05,0 0.14,0.02 0.28,0.05 0.42,0.09 0.27,0.09 0.52,0.25 0.72,0.46 0.21,0.2 0.37,0.44 0.48,0.71 0.04,0.13 0.08,0.27 0.1,0.41 0.01,0.07 0.01,0.13 0.02,0.21l0 0.09 0 0.14c0,0.16 0,0.34 0,0.55l-0.01 0.28 0 0.26c0,0.41 0,0.74 0,0.98 -0.01,0.8 -0.01,1.47 -0.02,2.02l0 0.68c0,0.08 0.04,0.12 0.12,0.12l1.37 0c0.08,0 0.12,-0.04 0.12,-0.12l0 -0.68c-0.01,-0.54 -0.01,-1.21 -0.01,-2.02z"/>
   <path id="_6" class="fil0" d="M69.96 5.73c-0.08,0 -0.12,0.04 -0.12,0.12l0 8.33c0,0.08 0.04,0.12 0.12,0.12l1.36 0c0.08,0 0.13,-0.04 0.13,-0.12l0 -8.33c0,-0.08 -0.04,-0.12 -0.13,-0.12l-1.36 0zm0.68 -1.58c0.26,0 0.47,-0.09 0.65,-0.27 0.18,-0.19 0.27,-0.4 0.27,-0.66 0,-0.26 -0.09,-0.47 -0.27,-0.65 -0.18,-0.18 -0.39,-0.27 -0.65,-0.27 -0.25,0 -0.47,0.09 -0.65,0.27 -0.18,0.18 -0.28,0.39 -0.28,0.65 0,0.25 0.09,0.47 0.28,0.66 0.18,0.18 0.39,0.27 0.65,0.27z"/>
   <path id="_7" class="fil0" d="M75.43 11.27l-2.05 -5.55c-0.02,-0.05 -0.06,-0.08 -0.12,-0.08l-1.48 0c-0.05,0 -0.07,0.02 -0.09,0.05 -0.03,0.04 -0.03,0.08 -0.02,0.12l3.11 8.39c0.02,0.06 0.06,0.08 0.11,0.08l1.09 0c0.07,0 0.1,-0.03 0.12,-0.08l3.1 -8.39c0.02,-0.04 0.02,-0.08 -0.01,-0.12 -0.02,-0.03 -0.06,-0.05 -0.1,-0.05l-1.48 0c-0.06,0 -0.09,0.03 -0.11,0.08l-2.06 5.55z"/>
   <path id="_8" class="fil0" d="M80.34 9.57c0.09,-0.66 0.38,-1.19 0.84,-1.6 0.46,-0.42 1.02,-0.63 1.66,-0.63 0.61,0 1.14,0.17 1.58,0.5 0.44,0.32 0.73,0.76 0.87,1.31l-4.95 0.43zm2.53 -3.84c-1.16,-0.01 -2.15,0.4 -2.96,1.23 -0.81,0.83 -1.21,1.85 -1.21,3.06 0,1.18 0.42,2.19 1.26,3.03 0.84,0.84 1.85,1.26 3.03,1.26 0.75,0 1.44,-0.18 2.09,-0.54 0.66,-0.36 1.18,-0.86 1.57,-1.49 0.05,-0.08 0.03,-0.13 -0.05,-0.17l-1.18 -0.69c-0.07,-0.04 -0.13,-0.02 -0.17,0.05 -0.24,0.38 -0.57,0.68 -0.98,0.91 -0.4,0.22 -0.83,0.33 -1.29,0.33 -0.52,0 -1,-0.14 -1.44,-0.42 -0.43,-0.28 -0.76,-0.65 -0.98,-1.11l6.31 -0.54c0.07,-0.01 0.11,-0.05 0.11,-0.12l0 -0.54c0,-1.15 -0.4,-2.13 -1.2,-2.96 -0.8,-0.83 -1.77,-1.26 -2.92,-1.26z"/>
   <path class="fil1" d="M8.47 19.12c-0.06,0.09 -0.16,0.18 -0.36,0.23 -0.54,0.14 -0.95,0.31 -1.08,0.35 -0.13,0.03 -0.14,0 -0.24,0.08 0.17,0.37 0.81,0.41 0.95,0.77 0.08,0.1 0.51,0.33 0.62,0.4 0.5,0.29 1,0.67 1.37,0.47l7.05 -4.03c0.39,-0.24 0.85,-0.5 1.23,-0.77 0.81,-0.57 0.86,-0.54 0.86,-1.18 0.01,-0.67 0.01,-1.34 0.01,-2.01 0,-0.98 0.05,-11.58 -0.03,-12.07 -0.41,-0.07 -1.49,0.24 -1.92,0.33l-5.64 1.2c-1.24,0.29 -2.49,0.5 -3.74,0.8 -0.43,0.1 -3.56,0.78 -3.73,0.73l2.15 -0.69c1.71,-0.55 3.69,-1.1 5.36,-1.7 0.29,-0.11 0.84,-0.15 0.95,-0.45 -0.11,-0.15 -0.48,-0.33 -0.67,-0.44 -1.94,-1.09 -1.77,-1.65 -3.55,-0.52 -1.74,1.1 -3.58,2.05 -5.37,3.09 -0.42,0.25 -0.9,0.51 -1.32,0.79 -1.57,1.04 -1.38,0.53 -1.38,2.87l0 8.51c0,1.31 -0.08,2.91 0.02,4.18 0.83,0.07 5.23,-0.92 6.21,-1.2 0.33,-0.09 0.68,-0.14 1.02,-0.23 1.23,-0.31 8.74,-2.07 9.08,-1.9 -0.21,0.13 -0.66,0.25 -0.96,0.32 -0.52,0.12 -6.74,1.96 -6.92,2.08zm5.16 -6.03c-0.21,-0.16 -1.2,-0.74 -1.47,-0.78 -0.38,0.31 -1.05,1.52 -2.77,1.4 -1,-0.07 -2.28,-0.93 -2.4,-1.77 1.92,-0.02 3.96,-0.38 6.08,-0.47 0.38,-0.02 0.91,0.01 0.94,-0.38 0.06,-0.67 -0.21,-1.71 -0.42,-2.25 -1.65,-4.25 -8.42,-3.46 -8.65,1.63 -0.04,0.87 0.08,1.54 0.41,2.22 0.92,1.92 2.85,3.07 5.21,2.63 0.73,-0.14 1.35,-0.43 1.84,-0.78 0.36,-0.25 1.08,-0.96 1.22,-1.44z"/>
   <path class="fil1" d="M6.73 10.23c1.07,0.09 4.1,-0.35 5.4,-0.43 -0.04,-1.16 -1.57,-2.13 -2.93,-2.02 -1.19,0.1 -2.45,1.23 -2.47,2.45z"/>
   <path class="fil1" d="M7.75 20.56c-0.14,-0.36 -0.78,-0.4 -0.95,-0.77 0.1,-0.08 0.11,-0.05 0.24,-0.08 0.13,-0.03 0.54,-0.21 1.08,-0.35 0.19,-0.05 0.29,-0.14 0.36,-0.23 -0.35,0.06 -1.7,0.5 -1.89,0.66 0.08,0.15 0.08,0.15 0.23,0.23 0.12,0.07 0.17,0.1 0.3,0.18 0.18,0.11 0.42,0.3 0.63,0.35z"/>
  </g>
 </g>
</svg>
