<?xml version="1.0" encoding="UTF-8"?>
<!DOCTYPE svg PUBLIC "-//W3C//DTD SVG 1.1//EN" "http://www.w3.org/Graphics/SVG/1.1/DTD/svg11.dtd">
<!-- Creator: CorelDRAW 2021 (64-Bit) -->
<svg xmlns="http://www.w3.org/2000/svg" xml:space="preserve" width="0.126488in" height="0.213157in" version="1.1" style="shape-rendering:geometricPrecision; text-rendering:geometricPrecision; image-rendering:optimizeQuality; fill-rule:evenodd; clip-rule:evenodd"
viewBox="0 0 7.43 12.53"
 xmlns:xlink="http://www.w3.org/1999/xlink"
 xmlns:xodm="http://www.corel.com/coreldraw/odm/2003">
 <defs>
  <style type="text/css">
   <![CDATA[
    .fil1 {fill:#1A1A1A}
    .fil0 {fill:#FDFDFD}
   ]]>
  </style>
 </defs>
 <g id="Layer_x0020_1">
  <metadata id="CorelCorpID_0Corel-Layer"/>
  <g id="_2222137152656">
   <path class="fil0" d="M3.16 8.35c0.13,-0.23 0.18,-0.49 0.26,-0.73 0.04,-0.12 0.08,-0.24 0.11,-0.36 0.09,-0.28 0.08,-0.25 0.18,-0.31 0.12,0.08 0.09,0.01 0.19,0.35l0.36 1.04c0.39,0.01 1.15,-0.07 1.47,0.06 -0.03,0.28 -0.74,0.57 -1.15,0.97 0.06,0.37 0.44,1.14 0.38,1.43 -0.22,0.01 -0.98,-0.64 -1.26,-0.8 -0.26,0.15 -1.05,0.8 -1.26,0.8 -0.06,-0.3 0.31,-1.06 0.38,-1.43 -0.41,-0.41 -1.11,-0.7 -1.15,-0.97 0.33,-0.12 1.08,-0.05 1.47,-0.06zm1.79 -1.88l-2.48 0c-0.68,0 -0.36,-0.34 -0.99,0.21 -0.26,0.23 -0.49,0.52 -0.66,0.81 -0.39,0.69 -0.58,1.51 -0.39,2.41 0.74,3.46 5.74,3.53 6.54,0.05 0.28,-1.2 -0.14,-2.46 -1,-3.24 -0.63,-0.57 -0.34,-0.23 -1.03,-0.23z"/>
   <path class="fil0" d="M3.22 4.59c-0.11,-0.36 -1.2,-2.13 -1.53,-2.7 -0.13,-0.23 -0.47,-0.66 -0.42,-0.94 0.26,-0.11 4.63,-0.11 4.88,0 0.07,0.41 -1.72,2.91 -1.95,3.65 0.72,0 0.97,0.12 1.21,-0.26l1.72 -2.62c0.63,-0.96 0.15,-1.61 -0.5,-1.7l-5.79 -0.01c-0.66,0.06 -1.19,0.71 -0.57,1.67l1.72 2.62c0.26,0.43 0.38,0.3 1.23,0.3z"/>
   <path class="fil0" d="M2.15 5.27c0,1.14 -0.39,0.88 2.8,0.88 0.42,0 0.33,-0.19 0.33,-0.88 0,-0.28 -0.04,-0.36 -0.33,-0.36l-2.47 0c-0.3,0 -0.33,0.07 -0.33,0.36z"/>
   <path class="fil0" d="M2.15 8.57c0.21,0.19 0.69,0.56 0.95,0.69l-0.36 1.16c0.32,-0.18 0.66,-0.51 0.99,-0.67l0.97 0.67 -0.33 -1.17c0.21,-0.11 0.75,-0.52 0.93,-0.69l-1.19 -0.01 -0.41 -1.1 -0.38 1.1 -1.17 0.02z"/>
   <path class="fil1" d="M2.15 8.57l1.17 -0.02 0.38 -1.1 0.41 1.1 1.19 0.01c-0.17,0.17 -0.72,0.58 -0.93,0.69l0.33 1.17 -0.97 -0.67c-0.34,0.16 -0.67,0.49 -0.99,0.67l0.36 -1.16c-0.26,-0.14 -0.74,-0.5 -0.95,-0.69zm1.02 -0.22c-0.39,0.01 -1.15,-0.07 -1.47,0.06 0.03,0.27 0.73,0.57 1.15,0.97 -0.06,0.37 -0.44,1.13 -0.38,1.43 0.21,0.01 1,-0.64 1.26,-0.8 0.28,0.16 1.04,0.8 1.26,0.8 0.06,-0.3 -0.31,-1.06 -0.38,-1.43 0.4,-0.4 1.11,-0.69 1.15,-0.97 -0.33,-0.12 -1.08,-0.05 -1.47,-0.06l-0.36 -1.04c-0.11,-0.35 -0.08,-0.27 -0.19,-0.35 -0.1,0.06 -0.09,0.02 -0.18,0.31 -0.04,0.12 -0.07,0.23 -0.11,0.36 -0.08,0.25 -0.13,0.5 -0.26,0.73z"/>
  </g>
 </g>
</svg>
