<?xml version="1.0" encoding="UTF-8"?>
<!DOCTYPE svg PUBLIC "-//W3C//DTD SVG 1.1//EN" "http://www.w3.org/Graphics/SVG/1.1/DTD/svg11.dtd">
<!-- Creator: CorelDRAW 2021 (64-Bit) -->
<svg xmlns="http://www.w3.org/2000/svg" xml:space="preserve" width="0.205953in" height="0.204492in" version="1.1" style="shape-rendering:geometricPrecision; text-rendering:geometricPrecision; image-rendering:optimizeQuality; fill-rule:evenodd; clip-rule:evenodd"
viewBox="0 0 12.96 12.87"
 xmlns:xlink="http://www.w3.org/1999/xlink"
 xmlns:xodm="http://www.corel.com/coreldraw/odm/2003">
 <defs>
  <style type="text/css">
   <![CDATA[
    .fil0 {fill:#FEFEFE}
   ]]>
  </style>
 </defs>
 <g id="Layer_x0020_1">
  <metadata id="CorelCorpID_0Corel-Layer"/>
  <path class="fil0" d="M4.14 10.81l4.68 0 0 1.65 -4.68 0 0 -1.65zm-0.36 -0.79l5.39 0 0 0.36 -5.39 0 0 -0.36zm2.59 -1.68c0.48,0 0.85,0.09 1.18,0.4 0.26,0.25 0.43,0.46 0.53,0.87l-3.2 0c0.09,-0.4 0.24,-0.59 0.51,-0.86 0.2,-0.19 0.6,-0.41 0.99,-0.41zm-2.16 -0.15c0,-0.15 0.3,-0.24 0.3,0.03 0,0.16 -0.3,0.19 -0.3,-0.03zm4.4 0.15l-0.15 -0.03c-0.09,-0.4 0.2,-0.25 0.22,-0.22 0.08,0.08 0.04,0.25 -0.07,0.25zm-2.92 -1.25l0 -0.15c0,-0.34 0.37,-0.71 0.71,-0.71l0.15 0c0.34,0 0.71,0.37 0.71,0.71l0 0.15c0,0.34 -0.37,0.71 -0.71,0.71l-0.15 0c-0.34,0 -0.71,-0.37 -0.71,-0.71zm-0.43 -0.08c0,0.65 0.45,0.91 0.53,1.02 -0.63,0.15 -1.3,0.97 -1.35,1.58l-0.18 0c0,-0.14 0.05,-0.29 0.09,-0.42 0.03,-0.1 0.06,-0.37 0.12,-0.42 0.05,-0.04 0.01,-0.01 0.09,-0.04 0.08,-0.03 0.18,-0.08 0.24,-0.15 0.31,-0.35 0.15,-0.96 -0.48,-0.96 -0.25,0 -0.51,0.25 -0.51,0.51 0,0.47 0.2,0.41 0.23,0.53l-0.23 0.94c-0.53,0 -0.46,0.25 -0.46,0.81 0,0.42 0.36,0.28 0.36,0.43l0 0.81 -3.15 0c-0.21,0 -0.15,-0.44 -0.15,-0.66l0 -5.85c0.1,0.05 0.14,0.1 0.25,0.16 0.1,0.06 0.17,0.08 0.28,0.12 0.46,0.16 0.94,0.09 1.36,-0.12 0.19,-0.1 0.32,-0.24 0.45,-0.39 0.09,0.33 1.1,0.88 2,0.42 0.36,-0.18 0.39,-0.34 0.52,-0.42 0.09,0.35 1.12,0.87 1.96,0.43 0.14,-0.07 0.44,-0.28 0.48,-0.43 0.1,0.07 0.6,0.81 1.67,0.55 0.4,-0.1 0.62,-0.27 0.87,-0.55 0.04,0.14 0.29,0.32 0.42,0.39 0.41,0.21 0.89,0.28 1.34,0.13 0.37,-0.12 0.34,-0.18 0.55,-0.29l0 5.82c0,0.22 0.06,0.69 -0.15,0.69l-3.15 0 0 -0.81c0,-0.11 0.1,-0.05 0.23,-0.15 0.17,-0.13 0.12,-0.47 0.12,-0.74 0,-0.33 -0.24,-0.36 -0.46,-0.36l-0.23 -0.94c0.03,-0.11 0.23,-0.1 0.23,-0.51 0,-0.69 -1.14,-0.75 -1.14,0.05 0,0.15 0.07,0.28 0.15,0.36 0.15,0.17 0.29,0.15 0.35,0.21 0,0 0.01,0.01 0.01,0.01l0.05 0.16c0.04,0.19 0.14,0.51 0.14,0.65l-0.18 0c-0.05,-0.6 -0.72,-1.43 -1.35,-1.58 0.08,-0.11 0.53,-0.37 0.53,-1.02 0,-0.66 -0.56,-1.22 -1.22,-1.22 -0.66,0 -1.22,0.56 -1.22,1.22zm0.2 -2.69l0 -0.89 2.03 0c0,0.6 0.11,1.16 -0.32,1.46 -0.74,0.51 -1.71,0.05 -1.71,-0.57zm2.47 -0.13l0 -0.76 2.08 0 0 0.86c0,1.05 -2.08,1.15 -2.08,-0.1zm-3.91 0.91c-0.55,0 -1.07,-0.3 -1.07,-0.81l0 -0.86 2.08 0c0,0.66 0.1,1.08 -0.3,1.43 -0.15,0.14 -0.44,0.25 -0.72,0.25zm7.5 0c-0.56,0 -1.07,-0.3 -1.07,-0.84l0 -0.84 2.11 0c0,0.49 0.07,1.04 -0.26,1.37 -0.18,0.18 -0.44,0.31 -0.78,0.31zm-11.11 -1.12l0 -0.56 2.11 0 0 0.84c0,0.85 -1.27,1.1 -1.84,0.54 -0.22,-0.22 -0.27,-0.47 -0.27,-0.82zm0 -2.34c0,-0.34 0.21,-0.25 0.81,-0.25 0,0.31 -0.05,0.64 0.12,0.82 0.19,0.21 0.55,0.14 0.92,0.14 0.18,0 0.41,-0.2 0.41,-0.46l0 -0.51 1.58 0c0,0.31 -0.05,0.64 0.12,0.82 0.19,0.21 0.55,0.14 0.92,0.14 0.18,0 0.41,-0.2 0.41,-0.46l0 -0.51 1.58 0c0,0.31 -0.05,0.64 0.12,0.82 0.19,0.21 0.55,0.14 0.92,0.14 0.1,0 0.24,-0.09 0.29,-0.14 0.17,-0.19 0.12,-0.51 0.12,-0.82l1.58 0c0,0.31 -0.05,0.64 0.12,0.82 0.19,0.21 0.55,0.14 0.92,0.14 0.18,0 0.41,-0.2 0.41,-0.46l0 -0.51c0.6,0 0.81,-0.09 0.81,0.25l0 1.35 -12.15 0 0 -1.35zm10.32 0.23l0 -1.47 0.58 0 0 1.47c0,0.12 -0.18,0.08 -0.51,0.08 -0.06,0 -0.08,-0.02 -0.08,-0.08zm-3.02 0l0 -1.47 0.58 0 0 1.47c0,0.12 -0.18,0.08 -0.51,0.08 -0.06,0 -0.08,-0.02 -0.08,-0.08zm-3.02 0l0 -1.47 0.58 0 0 1.47c0,0.12 -0.19,0.08 -0.51,0.08 -0.06,0 -0.08,-0.02 -0.08,-0.08zm-3.02 0l0 -1.47 0.58 0 0 1.47c0,0.12 -0.18,0.08 -0.51,0.08 -0.06,0 -0.08,-0.02 -0.08,-0.08zm-0.43 -1.45l0 0.53c-0.47,0 -0.92,-0.08 -1.15,0.32 -0.04,0.07 -0.07,0.14 -0.07,0.24l0 10.01c0,0.3 0.29,0.56 0.61,0.56l3.1 0c0,0.38 -0.07,0.76 0.2,0.76l5.13 0c0.28,0 0.2,-0.38 0.2,-0.76l3.1 0c0.32,0 0.61,-0.25 0.61,-0.56l0 -10.01c0,-0.29 -0.3,-0.56 -0.64,-0.56l-0.58 0c0,-0.37 0.06,-0.63 -0.13,-0.83 -0.18,-0.19 -0.5,-0.13 -0.88,-0.13 -0.52,0 -0.43,0.63 -0.43,0.97l-1.58 0c0,-0.34 0.09,-0.97 -0.43,-0.97 -0.4,0 -1.02,-0.1 -1.02,0.46l0 0.51 -1.58 0c0,-0.34 0.09,-0.97 -0.43,-0.97 -0.4,0 -1.02,-0.1 -1.02,0.46l0 0.51 -1.58 0c0,-0.34 0.09,-0.97 -0.43,-0.97 -0.37,0 -1.02,-0.1 -1.02,0.43z"/>
 </g>
</svg>
