<?xml version="1.0" encoding="UTF-8"?>
<!DOCTYPE svg PUBLIC "-//W3C//DTD SVG 1.1//EN" "http://www.w3.org/Graphics/SVG/1.1/DTD/svg11.dtd">
<!-- Creator: CorelDRAW 2021 (64-Bit) -->
<svg xmlns="http://www.w3.org/2000/svg" xml:space="preserve" width="0.167693in" height="0.12074in" version="1.1" style="shape-rendering:geometricPrecision; text-rendering:geometricPrecision; image-rendering:optimizeQuality; fill-rule:evenodd; clip-rule:evenodd"
viewBox="0 0 11.25 8.1"
 xmlns:xlink="http://www.w3.org/1999/xlink"
 xmlns:xodm="http://www.corel.com/coreldraw/odm/2003">
 <defs>
  <style type="text/css">
   <![CDATA[
    .fil0 {fill:#FF0066;fill-rule:nonzero}
   ]]>
  </style>
 </defs>
 <g id="Layer_x0020_1">
  <metadata id="CorelCorpID_0Corel-Layer"/>
  <g id="surface1">
   <path class="fil0" d="M0.67 0c-0.37,0 -0.67,0.3 -0.67,0.67l0 6.75c0,0.37 0.3,0.67 0.67,0.67l9.9 0c0.37,0 0.67,-0.3 0.67,-0.67l0 -6.75c0,-0.37 -0.3,-0.67 -0.67,-0.67l-9.9 0zm0 0.45l9.9 0c0.13,0 0.22,0.1 0.22,0.22l0 6.75c0,0.13 -0.1,0.22 -0.22,0.22l-1.95 0c-0.29,-0.19 -0.63,-0.33 -0.93,-0.45 -0.41,-0.16 -0.81,-0.32 -0.92,-0.57 -0.02,-0.21 -0.02,-0.37 -0.01,-0.56l0 -0.08c0.18,-0.19 0.34,-0.56 0.41,-0.86 0.14,-0.08 0.3,-0.26 0.35,-0.67 0.02,-0.21 -0.03,-0.37 -0.11,-0.48 0.11,-0.39 0.33,-1.36 -0.06,-1.99 -0.17,-0.27 -0.42,-0.44 -0.75,-0.51 -0.19,-0.23 -0.53,-0.35 -1,-0.35 -0.71,0.01 -1.23,0.23 -1.55,0.65 -0.37,0.49 -0.44,1.23 -0.21,2.19 -0.09,0.11 -0.14,0.27 -0.12,0.49 0.05,0.42 0.21,0.6 0.35,0.67 0.07,0.32 0.24,0.68 0.41,0.86l0 0.07c0,0.19 0,0.36 -0.01,0.57 -0.11,0.25 -0.51,0.41 -0.93,0.57 -0.3,0.12 -0.63,0.26 -0.92,0.45l-1.95 0c-0.13,0 -0.22,-0.1 -0.22,-0.22l0 -6.75c0,-0.13 0.1,-0.22 0.22,-0.22z"/>
  </g>
 </g>
</svg>
