<?xml version="1.0" encoding="UTF-8"?>
<!DOCTYPE svg PUBLIC "-//W3C//DTD SVG 1.1//EN" "http://www.w3.org/Graphics/SVG/1.1/DTD/svg11.dtd">
<!-- Creator: CorelDRAW 2021 (64-Bit) -->
<svg xmlns="http://www.w3.org/2000/svg" xml:space="preserve" width="0.204583in" height="0.212898in" version="1.1" style="shape-rendering:geometricPrecision; text-rendering:geometricPrecision; image-rendering:optimizeQuality; fill-rule:evenodd; clip-rule:evenodd"
viewBox="0 0 12.79 13.31"
 xmlns:xlink="http://www.w3.org/1999/xlink"
 xmlns:xodm="http://www.corel.com/coreldraw/odm/2003">
 <defs>
  <style type="text/css">
   <![CDATA[
    .fil0 {fill:white}
   ]]>
  </style>
 </defs>
 <g id="Layer_x0020_1">
  <metadata id="CorelCorpID_0Corel-Layer"/>
  <g id="_2221958072352">
   <path class="fil0" d="M-0 2.31l0 4.01c0,0.41 0.24,0.73 0.65,0.73l11.52 0c0.39,0 0.62,-0.34 0.62,-0.78l0 -3.85c0,-1.09 -1.22,-0.94 -1.3,-0.21l-0 3.01c0,0.16 0.05,0.52 -0.1,0.52l-9.99 0c-0.17,0 -0.1,-0.5 -0.1,-0.68l0 -2.34c0,-0.36 0.07,-0.95 -0.48,-1.08 -0.45,-0.11 -0.82,0.22 -0.82,0.67z"/>
   <path class="fil0" d="M0.94 1.38c0.24,0.06 0.43,0.25 0.54,0.45 0.15,0.28 0.11,0.51 0.11,0.91 0,1.35 -0.09,1.23 0.26,1.22l4.03 0c0.17,0.02 0.24,0.12 0.37,0.15l0 -3.2c0,-0.24 -0.04,-0.37 -0.13,-0.52 -0.18,-0.27 -0.46,-0.39 -0.91,-0.39l-3.17 0c-0.46,0 -0.67,0.08 -0.89,0.33 -0.22,0.25 -0.2,0.59 -0.2,1.05z"/>
   <path class="fil0" d="M6.55 4.11c0.36,-0.1 -0.06,-0.16 0.83,-0.16l3.51 0c0.4,0 0.31,0.2 0.31,-1.2 0,-0.39 -0.04,-0.65 0.1,-0.91 0.11,-0.2 0.31,-0.41 0.55,-0.46 0,-0.45 0.02,-0.78 -0.19,-1.03 -0.23,-0.27 -0.43,-0.35 -0.9,-0.35l-3.17 0c-0.43,0 -0.71,0.11 -0.9,0.38 -0.21,0.3 -0.14,0.71 -0.14,1.16 0,0.86 0,1.72 0,2.57z"/>
   <path class="fil0" d="M1.77 11l9.26 0c0.41,0 0.4,-0.7 -0.03,-0.7l-9.21 0c-0.44,0 -0.41,0.7 -0.03,0.7z"/>
   <path class="fil0" d="M6.55 4.73l0 0.73 4.65 0 0 -1.22 -4.16 0c-0.26,0 -0.49,0.23 -0.49,0.49z"/>
   <path class="fil0" d="M1.59 5.46l4.65 0 0 -0.73c0,-0.26 -0.24,-0.49 -0.49,-0.49l-4.16 0 0 1.22z"/>
   <path class="fil0" d="M4.32 8.69c0,0.47 -0.13,1.32 0.47,1.32 0.59,0 0.47,-0.85 0.47,-1.32 0,-0.06 -0.02,-0.08 -0.08,-0.08l-0.78 0c-0.06,0 -0.08,0.02 -0.08,0.08z"/>
   <path class="fil0" d="M7.54 8.69c0,0.29 -0.05,0.93 0.1,1.12 0.19,0.25 0.52,0.27 0.73,0.01 0.16,-0.19 0.11,-0.82 0.11,-1.14 0,-0.06 -0.02,-0.08 -0.08,-0.08l-0.78 0c-0.06,0 -0.08,0.02 -0.08,0.08z"/>
   <path class="fil0" d="M10.14 13.31l0.08 0c0,-0.19 -0.32,-1.83 -0.36,-2l-0.73 0 0.85 1.78c0.04,0.08 0.08,0.23 0.16,0.23z"/>
   <path class="fil0" d="M2.57 13.31c0.17,0 0.14,-0.01 0.23,-0.21l0.86 -1.79 -0.73 0c-0.04,0.16 -0.36,1.82 -0.36,2z"/>
   <path class="fil0" d="M1.17 8.27c0.24,0 0.25,-0.02 0.37,-0.15 0.1,-0.1 0.18,-0.16 0.29,-0.26 0.1,-0.1 0.18,-0.15 0.27,-0.25 0.15,-0.15 0.23,-0.16 0.27,-0.28l-0.81 0c-0.06,0.12 -0.38,0.82 -0.39,0.94z"/>
   <path class="fil0" d="M11.75 8.27c-0.01,-0.13 -0.13,-0.36 -0.18,-0.47 -0.06,-0.14 -0.14,-0.36 -0.21,-0.46l-0.81 0c0.02,0.09 0.31,0.32 0.39,0.39l0.56 0.51c0.1,0.07 0.1,0.04 0.24,0.04z"/>
  </g>
 </g>
</svg>
