<?xml version="1.0" encoding="UTF-8"?>
<!DOCTYPE svg PUBLIC "-//W3C//DTD SVG 1.1//EN" "http://www.w3.org/Graphics/SVG/1.1/DTD/svg11.dtd">
<!-- Creator: CorelDRAW 2021 (64-Bit) -->
<svg xmlns="http://www.w3.org/2000/svg" xml:space="preserve" width="0.194583in" height="0.226161in" version="1.1" style="shape-rendering:geometricPrecision; text-rendering:geometricPrecision; image-rendering:optimizeQuality; fill-rule:evenodd; clip-rule:evenodd"
viewBox="0 0 31.84 37.01"
 xmlns:xlink="http://www.w3.org/1999/xlink"
 xmlns:xodm="http://www.corel.com/coreldraw/odm/2003">
 <defs>
  <style type="text/css">
   <![CDATA[
    .str0 {stroke:white;stroke-width:4.09;stroke-linecap:round;stroke-miterlimit:10}
    .fil2 {fill:none;fill-rule:nonzero}
    .fil1 {fill:#F55C00;fill-rule:nonzero}
    .fil3 {fill:#FF6600;fill-rule:nonzero}
    .fil0 {fill:white;fill-rule:nonzero}
   ]]>
  </style>
 </defs>
 <g id="Layer_x0020_1">
  <metadata id="CorelCorpID_0Corel-Layer"/>
  <path class="fil0" d="M15.92 25.93l-8.89 -9.99 -6.64 -7.46c-0.87,-0.98 -0.18,-2.53 1.13,-2.53l14.4 0 14.4 0c1.31,0 2,1.55 1.13,2.53l-6.64 7.46 -8.89 9.99z"/>
  <polygon class="fil1" points="15.92,22.01 11.04,16.35 6.16,10.69 15.92,10.69 25.68,10.69 20.8,16.35 "/>
  <line class="fil2 str0" x1="15.92" y1="15.94" x2="27.3" y2= "2.04" />
  <path class="fil3" d="M24.86 7.33c0,1.24 -1.01,2.25 -2.25,2.25 -1.24,0 -2.25,-1.01 -2.25,-2.25 0,-1.24 1.01,-2.25 2.25,-2.25 1.24,0 2.25,1.01 2.25,2.25z"/>
  <path class="fil3" d="M22.19 10.69c0,1.24 -1.01,2.25 -2.25,2.25 -1.24,0 -2.25,-1.01 -2.25,-2.25 0,-1.24 1.01,-2.25 2.25,-2.25 1.24,0 2.25,1.01 2.25,2.25z"/>
  <polygon class="fil0" points="8,35.28 23.84,35.28 23.84,37.01 8,37.01 "/>
  <polygon class="fil0" points="16.79,36.53 15.05,36.53 15.05,22.68 16.79,22.68 "/>
 </g>
</svg>
