<?xml version="1.0" encoding="UTF-8"?>
<!DOCTYPE svg PUBLIC "-//W3C//DTD SVG 1.1//EN" "http://www.w3.org/Graphics/SVG/1.1/DTD/svg11.dtd">
<!-- Creator: CorelDRAW 2021 (64-Bit) -->
<svg xmlns="http://www.w3.org/2000/svg" xml:space="preserve" width="0.224783in" height="0.217752in" version="1.1" style="shape-rendering:geometricPrecision; text-rendering:geometricPrecision; image-rendering:optimizeQuality; fill-rule:evenodd; clip-rule:evenodd"
viewBox="0 0 22.45 21.74"
 xmlns:xlink="http://www.w3.org/1999/xlink"
 xmlns:xodm="http://www.corel.com/coreldraw/odm/2003">
 <defs>
  <style type="text/css">
   <![CDATA[
    .fil0 {fill:white}
   ]]>
  </style>
 </defs>
 <g id="Layer_x0020_1">
  <metadata id="CorelCorpID_0Corel-Layer"/>
  <g id="_2221960787024">
   <path class="fil0" d="M3.66 4.51l5.82 0c0.56,0 0.43,0.73 0.1,0.73l-5.92 0c-0.5,0 -0.47,-0.73 0,-0.73zm0 -2.18l5.92 0c0.36,0 0.45,0.73 -0.1,0.73l-5.82 0c-0.48,0 -0.5,-0.73 0,-0.73zm-3.64 -0.73c0,0.83 -0.1,4.76 0.11,5.23 0.54,1.23 2.17,0.98 3.24,0.98l4.16 0.01c0.13,0.03 1.35,0.92 1.53,1.05 0.4,0.27 0.68,0.59 1.2,0.59 0.78,0 0.63,-1.13 0.63,-1.65 0.59,0 1.13,-0.03 1.62,-0.37 0.27,-0.19 0.61,-0.56 0.61,-0.99l0 -5.1c0,-0.74 -0.89,-1.36 -1.65,-1.36l-9.71 0c-0.49,0 -0.94,0.21 -1.22,0.43 -0.33,0.26 -0.53,0.6 -0.53,1.17z"/>
   <path class="fil0" d="M11.67 8.54c0.17,0.74 1.12,0.92 1.8,0.92 0,0.22 -0.26,1.36 0.63,1.36 0.37,0 1.37,-0.81 1.72,-1.05 0.5,-0.35 0.28,-0.31 1.1,-0.31 0.9,0 3.65,0.06 4.16,-0.01 0.77,-0.1 1.37,-0.55 1.37,-1.44l0 -3.64c0,-1.21 -1.04,-1.46 -2.09,-1.46l-6.36 0c-0.19,0 -0.15,0.16 -0.15,0.34l-0 3.49c-0.06,0.46 -0.47,0.99 -0.77,1.22 -0.47,0.36 -0.75,0.43 -1.41,0.58z"/>
   <path class="fil0" d="M10.94 17.28c-0.66,0 -0.96,-0.02 -1.57,-0.28 -0.25,-0.11 -0.78,-0.45 -0.91,-0.65 -0.94,0.49 -1.68,1.29 -2.05,2.36 -0.33,0.95 -0.52,3.02 0.84,3.02l7.18 0c0.5,0 1,-0.46 1.07,-0.97 0.14,-1.18 -0.11,-2.12 -0.69,-3 -0.22,-0.33 -0.46,-0.55 -0.73,-0.82 -0.17,-0.17 -0.78,-0.64 -0.96,-0.64 -0.11,0 -0.46,0.41 -0.92,0.63 -0.31,0.15 -0.8,0.34 -1.26,0.34z"/>
   <path class="fil0" d="M8.23 13.88c0,1.13 0.43,1.92 1.45,2.43 0.95,0.47 2.08,0.19 2.78,-0.43 1.39,-1.23 0.95,-4.38 -1.81,-4.38 -1.25,0 -2.43,1.13 -2.43,2.38z"/>
   <path class="fil0" d="M17.3 15.82c-0.65,0 -0.97,0.04 -1.59,-0.3 -0.46,-0.25 -0.53,-0.4 -0.79,-0.57 -1.62,1.41 -0.7,0.65 0.46,2.31 0.29,0.42 0.75,1.29 0.81,1.91 0.97,0 1.94,0 2.91,0 0.93,0 1.75,0.03 1.75,-1.31 0,-0.72 -0.23,-1.36 -0.5,-1.82 -0.19,-0.32 -0.84,-1.05 -1.19,-1.14 -0.28,0.19 -0.86,0.92 -1.84,0.92z"/>
   <path class="fil0" d="M4.49 16.02c-0.42,0 -0.93,-0.15 -1.21,-0.29 -0.26,-0.13 -0.71,-0.39 -0.87,-0.63 -0.77,0.52 -1.55,1.44 -1.55,2.72 0,0.58 -0.04,1.5 1.12,1.5l3.4 0c0.2,0 0.2,-0.43 0.4,-0.96 0.13,-0.34 0.28,-0.64 0.47,-0.94 0.57,-0.9 1.24,-1.26 1.37,-1.45 -0.05,-0.18 -0.09,-0.15 -0.2,-0.28 -0.17,-0.21 -0.54,-0.57 -0.82,-0.64 -0.15,0.1 -0.23,0.22 -0.38,0.35 -0.37,0.33 -1.21,0.62 -1.71,0.62z"/>
   <path class="fil0" d="M4.44 15.24c2.29,0 2.8,-2.97 0.91,-3.87 -0.79,-0.38 -1.76,-0.19 -2.34,0.37 -1.23,1.18 -0.5,3.51 1.42,3.51z"/>
   <path class="fil0" d="M14.97 13.06c0,1.9 2.23,2.63 3.48,1.49 0.11,-0.1 0.34,-0.43 0.4,-0.57 0.26,-0.57 0.26,-1.28 0,-1.85 -0.83,-1.79 -3.88,-1.36 -3.88,0.92z"/>
  </g>
 </g>
</svg>
