<svg width="2977" height="680" viewBox="0 0 2977 680" fill="none" xmlns="http://www.w3.org/2000/svg">
<g clip-path="url(#clip0_2_95)">
<path d="M368.055 247.859C368.055 110.996 479.005 0.0458984 615.868 0.0458984H680.299V432.232C680.299 569.096 569.35 680.046 432.486 680.046H368.055V247.859Z" fill="#FFCF33"/>
<path d="M0.296875 212.174C0.296875 349.038 111.247 459.987 248.11 459.987H312.542V247.859C312.542 110.996 201.592 0.0458984 64.7283 0.0458984H0.296875V212.174Z" fill="#FFCF33"/>
<path d="M312.54 458.182L2.17969 0.0458984H64.7262C201.59 0.0458984 312.54 110.996 312.54 247.859V458.182Z" fill="#FFD755"/>
<path d="M1167.48 367.801C1304.35 367.801 1415.3 478.751 1415.3 615.614V680.046H983.111C846.247 680.046 735.297 569.096 735.297 432.232V367.801H1167.48Z" fill="#4FA58C"/>
<path d="M1324.72 680.045L1113.2 367.8H1167.48C1304.34 367.8 1415.29 478.75 1415.29 615.614V680.045H1324.72Z" fill="#6CB49F"/>
<path d="M1167.48 312.291C1304.35 312.291 1415.3 201.341 1415.3 64.4778V0.0463867H983.111C846.247 0.0463867 735.297 110.996 735.297 247.86V312.291H1167.48Z" fill="#492B7C"/>
<path d="M1075.59 312.291L879.422 22.7148C910.967 8.16343 946.09 0.0463867 983.109 0.0463867H1415.3V64.4778C1415.3 201.341 1304.35 312.291 1167.48 312.291H1075.59Z" fill="#674E92"/>
<path d="M2552 368V680H2475.66V653.394C2460.76 671.131 2438.41 680 2408.61 680C2387.8 680 2368.82 675.214 2351.67 665.641C2334.52 655.787 2320.88 641.85 2310.76 623.831C2300.92 605.812 2296 584.977 2296 561.327C2296 537.677 2300.92 516.983 2310.76 499.245C2320.88 481.226 2334.52 467.43 2351.67 457.858C2368.82 448.285 2387.8 443.499 2408.61 443.499C2435.88 443.499 2456.97 451.382 2471.87 467.149V417C2471.87 389.938 2493.81 368 2520.87 368H2552ZM2425.48 616.229C2439.25 616.229 2450.64 611.443 2459.64 601.87C2468.63 592.016 2473.13 578.501 2473.13 561.327C2473.13 544.434 2468.63 531.201 2459.64 521.628C2450.92 512.056 2439.53 507.269 2425.48 507.269C2411.42 507.269 2399.89 512.056 2390.89 521.628C2381.9 531.201 2377.4 544.434 2377.4 561.327C2377.4 578.501 2381.9 592.016 2390.89 601.87C2399.89 611.443 2411.42 616.229 2425.48 616.229Z" fill="black"/>
<path d="M2213.29 474.829C2221.54 464.22 2232.22 456.334 2245.31 451.172C2258.69 445.724 2273.92 443 2291 443V516.552C2283.6 515.691 2277.48 515.261 2272.64 515.261C2255.27 515.261 2241.61 519.993 2231.65 529.456C2221.97 538.918 2217.13 553.399 2217.13 572.898V680H2136V443H2213.29V474.829Z" fill="black"/>
<path fill-rule="evenodd" clip-rule="evenodd" d="M1910.41 664.543C1926.8 674.848 1945.36 680 1966.07 680C1981.23 680 1994.99 677.034 2007.36 671.101C2015.35 667.268 2022.3 662.524 2028.23 656.868V680H2105V443H2028.23V466.587C2022.11 460.685 2015 455.789 2006.89 451.899C1994.83 445.966 1981.23 443 1966.07 443C1945.36 443 1926.8 448.152 1910.41 458.457C1894.33 468.761 1881.5 482.812 1871.92 500.611C1862.64 518.409 1858 538.706 1858 561.5C1858 584.294 1862.64 604.591 1871.92 622.389C1881.5 640.188 1894.33 654.239 1910.41 664.543ZM2017.1 600.375C2007.82 610.368 1995.61 615.364 1980.45 615.364C1970.87 615.364 1962.21 613.022 1954.48 608.338C1946.75 603.654 1940.72 597.253 1936.39 589.134C1932.06 581.016 1929.9 571.804 1929.9 561.5C1929.9 550.883 1932.06 541.516 1936.39 533.397C1941.03 525.279 1947.06 519.034 1954.48 514.662C1962.21 509.978 1971.02 507.636 1980.92 507.636C1990.81 507.636 1999.47 509.978 2006.89 514.662C2014.62 519.034 2020.5 525.279 2024.52 533.397C2028.85 541.516 2031.01 550.883 2031.01 561.5C2031.01 577.113 2026.37 590.071 2017.1 600.375Z" fill="black"/>
<path d="M1729 680C1697.57 680 1669.29 673.429 1644.14 660.286C1619.29 646.857 1599.71 628.286 1585.43 604.571C1571.14 580.857 1564 554 1564 524C1564 494 1571.14 467.143 1585.43 443.429C1599.71 419.714 1619.29 401.286 1644.14 388.143C1669.29 374.714 1697.57 368 1729 368C1756.43 368 1781.14 372.857 1803.14 382.571C1825.14 392.286 1843.43 406.286 1858 424.571L1804 473.429C1784.57 450 1761 438.286 1733.29 438.286C1717 438.286 1702.43 441.857 1689.57 449C1677 456.143 1667.14 466.286 1660 479.429C1653.14 492.286 1649.71 507.143 1649.71 524C1649.71 540.857 1653.14 555.857 1660 569C1667.14 581.857 1677 591.857 1689.57 599C1702.43 606.143 1717 609.714 1733.29 609.714C1761 609.714 1784.57 598 1804 574.571L1858 623.429C1843.43 641.714 1825.14 655.714 1803.14 665.429C1781.14 675.143 1756.43 680 1729 680Z" fill="black"/>
<path fill-rule="evenodd" clip-rule="evenodd" d="M2899.14 311L2977.14 72.0747H2905.01L2861.94 207.316L2819.99 72H2751.77L2708.7 206.069L2667.13 72.0747H2589.87L2667.86 311H2744.7L2784.23 190.909L2822.28 311H2899.14Z" fill="black"/>
<path d="M2464.5 312C2439.01 312 2416 306.721 2395.49 296.163C2374.98 285.605 2358.86 270.941 2347.14 252.171C2335.71 233.401 2330 212.138 2330 188.382C2330 164.92 2335.71 143.804 2347.14 125.034C2358.86 106.264 2374.83 91.7465 2395.05 81.4816C2415.56 70.9236 2438.71 65.6445 2464.5 65.6445C2490.29 65.6445 2513.44 70.9236 2533.95 81.4816C2554.46 91.7465 2570.43 106.264 2581.86 125.034C2593.29 143.51 2599 164.627 2599 188.382C2599 212.138 2593.29 233.401 2581.86 252.171C2570.43 270.941 2554.46 285.605 2533.95 296.163C2513.44 306.721 2490.29 312 2464.5 312ZM2464.5 245.572C2479.15 245.572 2491.16 240.586 2500.54 230.615C2509.92 220.35 2514.61 206.272 2514.61 188.382C2514.61 170.785 2509.92 157.001 2500.54 147.03C2491.16 137.058 2479.15 132.072 2464.5 132.072C2449.85 132.072 2437.83 137.058 2428.46 147.03C2419.08 157.001 2414.39 170.785 2414.39 188.382C2414.39 206.272 2419.08 220.35 2428.46 230.615C2437.83 240.586 2449.85 245.572 2464.5 245.572Z" fill="black"/>
<path d="M2100.78 0H2135.3C2162.36 0 2184.3 21.938 2184.3 49V312H2100.78V0Z" fill="black"/>
<path d="M2223 0H2257.51C2284.58 0 2306.51 21.938 2306.51 49V312H2223V0Z" fill="black"/>
<path d="M2077.98 189.262C2077.98 189.849 2077.54 196.741 2076.66 209.938H1903.48C1907 222.256 1913.74 231.788 1923.7 238.533C1933.96 244.985 1946.71 248.211 1961.94 248.211C1973.37 248.211 1983.19 246.598 1991.39 243.372C1999.89 240.146 2008.39 234.867 2016.89 227.535L2060.84 273.287C2037.69 299.096 2003.85 312 1959.31 312C1931.47 312 1907 306.721 1885.9 296.163C1864.8 285.605 1848.39 270.941 1836.67 252.171C1825.24 233.401 1819.53 212.138 1819.53 188.382C1819.53 164.92 1825.1 143.95 1836.23 125.474C1847.66 106.704 1863.34 92.0397 1883.26 81.4816C1903.19 70.9236 1925.61 65.6445 1950.52 65.6445C1974.25 65.6445 1995.79 70.6303 2015.13 80.6018C2034.47 90.2801 2049.71 104.504 2060.84 123.274C2072.27 141.751 2077.98 163.747 2077.98 189.262ZM1950.95 125.034C1938.06 125.034 1927.22 128.7 1918.43 136.032C1909.93 143.364 1904.51 153.335 1902.17 165.946H1999.74C1997.4 153.335 1991.83 143.364 1983.04 136.032C1974.54 128.7 1963.85 125.034 1950.95 125.034Z" fill="black"/>
<path d="M1740.39 197.524V311.794H1653.36V196.204L1536 0H1609.13C1620.75 0 1631.51 6.11245 1637.47 16.0923L1700.83 122.298L1764.19 16.0923C1770.15 6.11248 1780.91 0 1792.53 0H1858.19L1740.39 197.524Z" fill="black"/>
</g>
<defs>
<clipPath id="clip0_2_95">
<rect width="2977" height="680" fill="white"/>
</clipPath>
</defs>
</svg>
