<svg width="100" height="100" viewBox="0 0 100 100" xmlns="http://www.w3.org/2000/svg">
  <defs>
    <linearGradient id="grad1" x1="0%" y1="0%" x2="100%" y2="100%">
      <stop offset="0%" style="stop-color:#000066;stop-opacity:1" />
      <stop offset="100%" style="stop-color:#ffa600;stop-opacity:1" />
    </linearGradient>
  </defs>
  
  <!-- Background circle -->
  <circle cx="50" cy="50" r="45" fill="url(#grad1)" stroke="#ffa600" stroke-width="2"/>
  
  <!-- Building icon -->
  <rect x="30" y="35" width="15" height="30" fill="#ffffff" opacity="0.9"/>
  <rect x="50" y="25" width="15" height="40" fill="#ffffff" opacity="0.9"/>
  <rect x="70" y="30" width="15" height="35" fill="#ffffff" opacity="0.9"/>
  
  <!-- Windows -->
  <rect x="32" y="40" width="3" height="3" fill="#000066"/>
  <rect x="37" y="40" width="3" height="3" fill="#000066"/>
  <rect x="32" y="45" width="3" height="3" fill="#000066"/>
  <rect x="37" y="45" width="3" height="3" fill="#000066"/>
  
  <rect x="52" y="30" width="3" height="3" fill="#000066"/>
  <rect x="57" y="30" width="3" height="3" fill="#000066"/>
  <rect x="52" y="35" width="3" height="3" fill="#000066"/>
  <rect x="57" y="35" width="3" height="3" fill="#000066"/>
  <rect x="52" y="40" width="3" height="3" fill="#000066"/>
  <rect x="57" y="40" width="3" height="3" fill="#000066"/>
  
  <rect x="72" y="35" width="3" height="3" fill="#000066"/>
  <rect x="77" y="35" width="3" height="3" fill="#000066"/>
  <rect x="72" y="40" width="3" height="3" fill="#000066"/>
  <rect x="77" y="40" width="3" height="3" fill="#000066"/>
  
  <!-- Text -->
  <text x="50" y="78" font-family="Arial, sans-serif" font-size="8" font-weight="bold" text-anchor="middle" fill="#ffffff">AREF</text>
  <text x="50" y="86" font-family="Arial, sans-serif" font-size="4" text-anchor="middle" fill="#ffffff">2025</text>
</svg>
