<?xml version="1.0" encoding="UTF-8"?>
<!DOCTYPE svg PUBLIC "-//W3C//DTD SVG 1.1//EN" "http://www.w3.org/Graphics/SVG/1.1/DTD/svg11.dtd">
<!-- Creator: CorelDRAW 2021 (64-Bit) -->
<svg xmlns="http://www.w3.org/2000/svg" xml:space="preserve" width="3.34788in" height="0.899146in" version="1.1" style="shape-rendering:geometricPrecision; text-rendering:geometricPrecision; image-rendering:optimizeQuality; fill-rule:evenodd; clip-rule:evenodd"
viewBox="0 0 1598.37 429.28"
 xmlns:xlink="http://www.w3.org/1999/xlink"
 xmlns:xodm="http://www.corel.com/coreldraw/odm/2003">
 <defs>
  <style type="text/css">
   <![CDATA[
    .fil1 {fill:white}
    .fil2 {fill:white;fill-rule:nonzero}
    .fil0 {fill:white;fill-rule:nonzero}
   ]]>
  </style>
 </defs>
 <g id="Layer_x0020_1">
  <metadata id="CorelCorpID_0Corel-Layer"/>
  <g id="_2800479952576">
   <polygon class="fil0" points="561.68,368.04 606.82,368.04 626.52,269.16 665.73,269.16 672.81,234.15 549.25,234.15 542.17,269.16 581.38,269.16 "/>
   <polygon id="_1" class="fil0" points="786.42,268.2 793.31,234.15 684.48,234.15 657.7,368.04 769.02,368.04 775.9,334 708.77,334 712.21,316.4 769.02,316.4 775.52,283.88 718.91,283.88 721.97,268.2 "/>
   <path id="_2" class="fil0" d="M862.55 371.1c24.67,0 44.57,-6.69 60.83,-26.59l-26.59 -25.44c-9.18,11.1 -19.32,15.49 -29.84,15.49 -16.64,0 -27.54,-10.52 -27.54,-26.2 0,-23.91 14.92,-40.74 36.15,-40.74 12.24,0 21.04,5.74 26.78,15.68l32.52 -25.44c-9.75,-17.21 -30.79,-26.78 -56.42,-26.78 -49.54,0 -84.54,33.09 -84.54,80.14 0,35.58 27.16,59.87 68.67,59.87z"/>
   <polygon id="_3" class="fil0" points="1042.35,234.15 1032.78,281.59 991.08,281.59 1000.65,234.15 955.51,234.15 928.73,368.04 973.87,368.04 983.82,318.7 1025.51,318.7 1015.57,368.04 1060.71,368.04 1087.49,234.15 "/>
   <polygon id="_4" class="fil0" points="1211.24,268.2 1218.12,234.15 1109.29,234.15 1082.51,368.04 1127.65,368.04 1136.26,325.2 1191.92,325.2 1198.81,291.15 1142.96,291.15 1147.55,268.2 "/>
   <polygon id="_5" class="fil0" points="1334.42,268.2 1341.3,234.15 1232.47,234.15 1205.69,368.04 1317.01,368.04 1323.9,334 1256.76,334 1260.2,316.4 1317.01,316.4 1323.52,283.88 1266.9,283.88 1269.96,268.2 "/>
   <path id="_6" class="fil0" d="M1387.59 371.1c41.7,0 67.71,-20.08 67.71,-49.92 0,-41.31 -63.89,-31.94 -63.89,-46.67 0,-4.59 6.5,-8.99 19.7,-8.99 13.01,0 26.01,3.25 36.72,9.95l16.26 -32.9c-12.43,-7.46 -30.22,-11.48 -50.11,-11.48 -42.27,0 -67.71,19.89 -67.71,50.3 0,41.51 63.69,33.28 63.69,47.43 0,4.78 -6.12,7.84 -17.79,7.84 -14.92,0 -30.22,-3.83 -45.14,-12.43l-17.41 33.28c12.81,7.84 34.05,13.58 57.95,13.58z"/>
   <polygon id="_7" class="fil0" points="1487.24,368.04 1532.38,368.04 1552.09,269.16 1591.29,269.16 1598.37,234.15 1474.81,234.15 1467.73,269.16 1506.94,269.16 "/>
   <g>
    <polygon class="fil1" points="531.02,195.17 636.64,195.17 636.64,195.17 622.83,195.17 643.05,163.43 643.72,160.16 583.25,160.16 602.96,61.24 557.81,61.24 "/>
    <path class="fil2" d="M744.93 195.17l44.96 0 -2.89 -12.17c-12.98,-10.57 -20.39,-26.07 -20.39,-44.65 0,-9.06 1.3,-17.6 3.76,-25.48l-12.24 -51.62 -44.39 0 -85.34 133.93 47.64 0 13.39 -23.34 51.09 0 4.4 23.34zm-36.93 -55.87l19.71 -34.25 6.5 34.25 -26.21 0z"/>
    <g>
     <path class="fil1" d="M860.39 159.77c-4.4,1.34 -8.8,1.91 -13.2,1.91 -18.56,0 -29.47,-10.52 -29.47,-26.21 0,-23.92 14.92,-40.75 38.46,-40.75 12.63,0 22,3.64 30.61,14.73l10.94 -8.48c3.83,-8.69 9.17,-16.57 15.7,-23.29 -12.67,-12.84 -30.93,-19.51 -55.14,-19.51 -51.09,0 -86.1,33.1 -86.1,80.17 0,35.59 27.17,59.89 68.69,59.89 21.24,0 40.18,-5.74 54.34,-15.88l3.18 -16.03c-4.72,-10.15 -7.37,-21.47 -7.37,-33.41 0,-2.82 0.15,-5.6 0.44,-8.34l-24 0 -7.08 35.21z"/>
     <path class="fil1" d="M1097.62 202.74c41.71,0 67.73,-20.09 67.73,-49.94 0,-41.33 -63.91,-31.95 -63.91,-46.69 0,-4.59 6.51,-8.99 19.71,-8.99 13.01,0 26.02,3.25 36.74,9.95l16.26 -32.91c-12.44,-7.46 -30.23,-11.48 -50.13,-11.48 -36.25,0 -60.12,14.62 -66.2,37.96 3.22,6.14 5.65,12.75 7.18,19.7l0.35 0.19 0.22 0.12 -0.22 -0.12 -0.35 -0.19c1.14,5.19 1.76,10.57 1.83,16.08 18.09,15.33 53.17,13.52 53.17,24.02 0,4.78 -6.12,7.85 -17.79,7.85 -12.7,0 -25.67,-2.77 -38.45,-8.9 -3.24,11.24 -8.89,21.46 -16.37,30.06l0.03 0.11c-0.49,0.51 -0.98,1.02 -1.48,1.52l-0.01 0.01 -0.04 0.04 -0.88 0.95c12.97,6.31 31.78,10.67 52.61,10.67z"/>
    </g>
    <path class="fil1" d="M1001.24 119.11l-7.94 0 0 7.75 7.94 0 0 -7.75zm-22.52 -55.97c-41.48,0 -75.1,33.62 -75.1,75.1 0,5.76 0.65,11.36 1.88,16.75l79.58 -57.54 0 2.5 -79.07 57.16c2.19,8.47 5.83,16.35 10.62,23.39l68.96 -65.52 -0.68 -25.22 -1.83 -26.49c-1.44,-0.08 -2.9,-0.13 -4.36,-0.13zm-60.92 119.03c4.26,5.91 9.36,11.16 15.13,15.6l52.14 -68.53 0.63 -10.29 -0.03 -1.26 -67.87 64.48zm16.73 16.8c8.09,5.89 17.39,10.21 27.47,12.51l2.59 -7.2 20.16 -69.86 0.1 -1.58 -50.32 66.13zm44.19 14.38c20.04,-0.14 66.99,-27.04 74.4,-64.8l-42.77 -14.51 3.93 15.25 10.38 42.48c-6.24,4.31 -4.69,3.98 -11.49,8.39l-11.93 -66.87 -8.39 0.17 -11.14 57.71c-3.94,19.01 -5.98,22.01 -5.59,22.25 0.19,0.11 -2.97,-0.04 2.61,-0.08zm75.05 -67.61c0.22,-2.35 0.05,-4.72 0.05,-7.5 0,-2.78 -0.2,-6.25 -0.57,-9.3l-0.23 0.86 -44.27 -11.88 -0.16 2.84 0.22 7.78 -0.19 1.63 45.16 15.57zm-1.04 -18.63c-0.96,-5.56 -2.53,-12.58 -4.63,-17.66l-38.29 -10.28 -0.83 16.19 43.75 11.75zm-7.32 -21.34c-7.4,-14.72 -19.05,-27.88 -33.87,-35.09l-0.26 2.59 -0.85 23.11 34.98 9.39zm-43.73 -39.05c-3.87,-1.24 -7.89,-2.18 -12.01,-2.78l2.69 1.91c0.49,0.48 0.68,1.13 0.83,1.9l0.28 17.73 7.78 0 0 -18.14 0.43 -0.61zm-0.44 25.1l-7.94 0 0 7.75 7.94 0 0 -7.75zm0 14.26l-7.94 0 0 7.75 7.94 0 0 -7.75z"/>
   </g>
   <path class="fil1" d="M154.01 199.29c12.78,0 23.14,10.36 23.14,23.14 0,9.54 -5.77,17.73 -14.01,21.27l0 41.75 44.71 28.14 -0.57 50.68c8.73,-0.92 17.58,-1.53 26.53,-1.81l0.06 -57.94 -48.03 -29.6 0.59 -100.98c-9.18,-3.31 -15.74,-12.09 -15.74,-22.41 0,-13.15 10.66,-23.81 23.81,-23.81 13.15,0 23.81,10.66 23.81,23.81 0,10.71 -7.08,19.78 -16.81,22.77l1.52 93.24 31.26 16 -0.17 -27.61c-7.8,-3.91 -13.16,-11.98 -13.16,-21.3 0,-13.15 10.66,-23.81 23.81,-23.81 13.15,0 23.81,10.66 23.81,23.81 0,10.63 -6.96,19.63 -16.58,22.69l0.95 55.95 25.35 -13.17 0.39 -91.41c-8.17,-3.77 -13.83,-12.04 -13.83,-21.63 0,-13.15 10.66,-23.81 23.81,-23.81 13.15,0 23.81,10.66 23.81,23.81 0,10.55 -6.86,19.49 -16.36,22.62l-2.3 102.42 -41.16 23.04 -0.58 27.2c6.56,0.12 13.07,0.42 19.52,0.89l0.77 -12.3 45.48 -27.03 -0.93 -35.31c-9.09,-3.35 -15.58,-12.09 -15.58,-22.35 0,-13.15 10.66,-23.81 23.81,-23.81 13.15,0 23.81,10.66 23.81,23.81 0,9.62 -5.71,17.91 -13.92,21.67l0.92 29.84 -0.17 11.56 -2.69 5.14 -42.37 25.64 -0.19 5.01c56.09,7.08 107.02,27.1 148.18,56.24 -55.94,-18.28 -119.79,-28.65 -187.59,-28.65 -77.04,0 -148.98,13.39 -210.01,36.56 41.05,-32 93.13,-54.47 151.06,-63.08l0.73 -43.55 -47.09 -27.56 0.15 -50.95c-8.81,-3.27 -15.09,-11.75 -15.09,-21.7 0,-12.78 10.36,-23.14 23.14,-23.14zm90.75 23.77c6.4,0 11.58,5.19 11.58,11.58 0,6.4 -5.19,11.58 -11.58,11.58 -6.4,0 -11.58,-5.19 -11.58,-11.58 0,-6.4 5.19,-11.58 11.58,-11.58zm43.9 -47.56c6.4,0 11.58,5.19 11.58,11.58 0,6.4 -5.19,11.58 -11.58,11.58 -6.4,0 -11.58,-5.19 -11.58,-11.58 0,-6.4 5.19,-11.58 11.58,-11.58zm-94.16 -35.54c6.4,0 11.58,5.19 11.58,11.58 0,6.4 -5.19,11.58 -11.58,11.58 -6.4,0 -11.58,-5.19 -11.58,-11.58 0,-6.4 5.19,-11.58 11.58,-11.58zm130.64 114.73c6.4,0 11.58,5.19 11.58,11.58 0,6.4 -5.19,11.58 -11.58,11.58 -6.4,0 -11.58,-5.19 -11.58,-11.58 0,-6.4 5.19,-11.58 11.58,-11.58zm-171.12 -43.82c6.39,0 11.57,5.18 11.57,11.57 0,6.39 -5.18,11.57 -11.57,11.57 -6.39,0 -11.57,-5.18 -11.57,-11.57 0,-6.39 5.18,-11.57 11.57,-11.57z"/>
   <path class="fil1" d="M59.29 395.22l-4.41 -4.29c2.38,-10 24.4,-25.71 18.76,-32.29 -1.55,-1.81 0.5,-1.08 -2.46,-0.91l-12.47 -20.27c-1.58,-2.5 -3.24,-3.44 -3.19,-6.62 -0.19,-2.8 -3.28,-9.51 -4.59,-13.06 -4.2,-11.34 -20.86,-3.2 -39.02,-2.34l-6.15 -21.67c-1.42,-2.64 0.87,-0.95 -2.36,-2.25l-0.4 -5.05 -0.6 -7.4c5.14,-3.82 15.42,-7.98 22.89,-10.84 12.82,-4.89 8.52,-3.43 7.72,-22.36 -1.19,-28.37 5.47,-37.92 -4.57,-41.94 -6.59,-2.64 -8.05,-4.5 -12.61,-3.52 -2.52,-2.45 -11.51,-4.04 -15.79,-6.95 -0.39,-7.23 5.55,-18.01 5.55,-25.39l-0.52 -0.34c2.6,-2.35 2.67,-3.14 3.49,-7.1 1.41,-6.85 0.98,-5.08 2.73,-5.98 6.24,-2.62 25.8,3.7 35.74,1.93l8.45 -17c2.55,-4.84 7.66,-10.98 8.73,-16.95 0.52,-0.44 0.89,-1.26 0.94,-1.39 3.36,-0.46 6.69,-6.11 7.7,-9.22 0.18,-5.21 -0.18,-5.14 -3.23,-8.94l-12.07 -16.09c-2.23,-2.81 -5.41,-4.94 -2.83,-9.15 4.87,-1.73 2.09,-1.14 7.39,-5.97 5.87,-5.34 7.33,-5.8 13.88,-12.59 7.62,-7.9 5.09,-9.8 19.21,2.04 1.89,1.58 4.12,2.92 6.14,4.43l5.73 4.72c6.56,4.47 12.18,-1.39 23.65,-8.86l3.21 -3.66 -0.16 0.55 26.4 -12.58c1.87,-2.27 1.84,-7.38 1.42,-9.01 -1.14,-4.47 -0.4,-1.72 -1.84,-3.31l0.12 -1.89 -1.94 -22.51c5.98,-2.3 10.77,-1.54 13.23,-4.79 6.83,0.98 10.02,-2.14 16.99,-2.59l8.88 -1.68c0.55,1.4 1.14,3.26 1.72,4.74 0.01,0.03 1.05,2.33 1.06,2.34 1.31,1.8 0.72,1 2.49,2.17 -0.08,2.25 6.87,17.04 8.49,21.25 9.08,2.04 22.95,-0.79 33.55,-0.57 14.54,0.3 26.31,6.74 27.09,-4.94 1.28,-1.52 1.58,-2.68 2.23,-4.79 1.92,-1.13 1.22,-0.31 2.36,-1.99 1.57,-2.28 4.6,-14.35 8.29,-18.36l19.66 3.78c2.05,2.49 -0.73,-0.01 1.84,1.48 4.53,2.63 10.33,2.94 16.13,4.51 0.74,13.49 -7.02,33.19 0.39,37.79 5.1,3.16 15.46,6.51 22.17,10.88 3.66,2.38 2.57,3.48 8.39,3.88l1.6 0.28c2.42,3.19 3.75,2.14 8.48,6.27 5.49,4.79 7.7,3.51 17.78,-4.35 4.08,-3.19 6.2,-3.71 7.32,-6.76 4.95,-0.13 5.06,-4.05 10,-5.28 2.01,0.2 18.62,17.92 23.21,21.96 0.12,0.24 0.32,0.88 0.4,0.72 0.08,-0.14 0.3,0.55 0.41,0.71 2.06,2.97 2.37,2.23 3.53,4.8l-17.97 23.39c-4.91,6.65 0.55,11.45 7.06,19.68 15.88,20.11 10.78,39.96 33.39,32.86l1.42 -0.59c8.14,-0.14 13.08,-2.28 21.29,-1.77 1.08,3.01 1.04,6.61 2.24,10.03 1.01,2.88 1.73,5.5 2.42,9.09 1.09,5.65 4.42,14.87 4.37,19.33 -2.17,1.33 -4.06,1.89 -5.77,3.93 -7.71,-1.31 -11.52,6.29 -24.46,8.63 -3.23,5.29 -2.7,5.84 -1.44,12.11 1.01,4.96 0.64,10.29 0.67,15.35 0.04,5.55 0.06,11.1 -0.19,16.64 -0.26,5.78 -1.51,8.32 -0.61,14.65 2.24,1.66 6.63,3.92 10.22,3.86 1.7,1.97 0.35,1.17 4.95,3.04 6.37,2.58 6.35,3.77 16.12,6.9 0.21,7.64 -4.19,16.54 -4.85,25.07l-3.06 14.59 -16.49 -0.98c-1.28,-2.73 1.1,-0.75 -2.57,-2.1 -3.61,-1.33 -15.76,-1.21 -18.88,-0.48l-10.39 21.18c-1.59,2.61 -2.67,3.54 -3.36,7.07l-0.35 1.49c-3.21,1.26 -0.38,-0.31 -2.27,1.25 -0.13,0.1 -1.12,1.3 -1.26,1.53 -1.28,2.2 -0.73,1.49 -0.88,3.43 -2.83,1.11 -8.62,10.51 -8.17,13.08 2.95,6.97 18.68,21.76 19.8,27.96 -0.05,0.28 -0.23,0.62 -0.51,0.99 -27.64,-17.51 -59.12,-31.1 -93.21,-39.77 1.29,-0.81 2.89,-1.62 4.34,-2.7 8.93,-6.63 26.79,-24.6 28.79,-32.8l5.93 -10.91c7.4,-13.67 11.58,-21.17 14.85,-39.54 0.89,-5.05 2.49,-9.47 3.01,-14.32 0.59,-5.5 0.35,-12.63 0.33,-18.27 -0.02,-5.97 -2.95,-32.36 -2.73,-32.94 -0.53,-8.23 -8.64,-29.77 -14.84,-38.11 -5.03,-6.78 -8.14,-13.5 -14.2,-20.07 -2.01,-2.18 -2.52,-1.86 -4.36,-4.58 -4.6,-6.79 -6.25,-6.91 -13.26,-13.08 -4.05,-3.57 -5.17,-7.01 -10.17,-8.02 -2.21,-0.8 -6.72,-4.76 -9.6,-6.55 -1.86,-1.15 -3.35,-1.63 -5.32,-2.63 -2.5,-1.27 -4.2,-2.06 -6.98,-2.86l-0.36 0.05c-1.76,-4.03 -10.72,-6.42 -14.98,-7.57 -20.65,-5.58 -35.74,-10.04 -59.69,-8.88 -7.13,0.35 -13.23,1.4 -20.45,2.11l-18.47 4.34c-3.68,1.96 -28,9.27 -30.39,14.7 -1.23,-0.18 -0.98,-1.14 -3.94,0.36 -0.09,0.05 -1.33,1.05 -1.53,1.33 -1.65,2.28 0.39,-1.7 -1.06,2.45 -1.39,0.37 -10.44,6.85 -11.19,8.11 -5.9,2.19 -7.67,5.34 -11.91,9.19 -3.23,2.93 -8.02,6.62 -9.43,11.76 -0.57,0.38 -5.02,5.7 -5.73,6.59 -2.18,2.73 -2.53,4.82 -5.02,7.24 -1.75,1.09 -1.24,0.37 -2.55,1.95 -0.87,1.05 -0.6,1.1 -1.23,2.37 -1.14,2.31 -1.52,2.93 -2.35,5.68 -0.4,2.38 -4.09,9.49 -5.49,13.76 -1.31,4 -1.9,3.01 -3.18,6.2l-7.14 33.06c-1.14,31.51 -1.32,41.76 9.26,70.37 1.17,3.15 2.75,4.26 2.66,7.08 -0.21,4.92 3.93,11.13 6.92,15.9l4.47 6.89c0.11,0.16 0.26,0.38 0.37,0.54l1.4 2.02c0.95,1.11 1.91,1.71 3.26,2.66 2.39,4.19 17,21.74 23.61,23.4 1.77,0.86 1.44,1.73 3.05,3.01 1.33,1.07 2.92,1.6 4.38,2.17 -34.02,9.27 -65.31,23.48 -92.65,41.59z"/>
  </g>
 </g>
</svg>
