<?xml version="1.0" encoding="UTF-8"?>
<!DOCTYPE svg PUBLIC "-//W3C//DTD SVG 1.1//EN" "http://www.w3.org/Graphics/SVG/1.1/DTD/svg11.dtd">
<!-- Creator: CorelDRAW 2021 (64-Bit) -->
<svg xmlns="http://www.w3.org/2000/svg" xml:space="preserve" width="0.320484in" height="0.286724in" version="1.1" style="shape-rendering:geometricPrecision; text-rendering:geometricPrecision; image-rendering:optimizeQuality; fill-rule:evenodd; clip-rule:evenodd"
viewBox="0 0 10.47 9.36"
 xmlns:xlink="http://www.w3.org/1999/xlink"
 xmlns:xodm="http://www.corel.com/coreldraw/odm/2003">
 <defs>
  <style type="text/css">
   <![CDATA[
    .fil1 {fill:#FFCC00}
    .fil0 {fill:white}
   ]]>
  </style>
 </defs>
 <g id="Layer_x0020_1">
  <metadata id="CorelCorpID_0Corel-Layer"/>
  <path class="fil0" d="M3.36 4.35c0.28,0 0.5,0.23 0.5,0.5 0,0.21 -0.13,0.39 -0.31,0.46l0 0.91 0.98 0.61 -0.01 1.11c0.19,-0.02 0.38,-0.03 0.58,-0.04l0 -1.26 -1.05 -0.65 0.01 -2.2c-0.2,-0.07 -0.34,-0.26 -0.34,-0.49 0,-0.29 0.23,-0.52 0.52,-0.52 0.29,0 0.52,0.23 0.52,0.52 0,0.23 -0.15,0.43 -0.37,0.5l0.03 2.03 0.68 0.35 -0 -0.6c-0.17,-0.09 -0.29,-0.26 -0.29,-0.46 0,-0.29 0.23,-0.52 0.52,-0.52 0.29,0 0.52,0.23 0.52,0.52 0,0.23 -0.15,0.43 -0.36,0.5l0.02 1.22 0.55 -0.29 0.01 -1.99c-0.18,-0.08 -0.3,-0.26 -0.3,-0.47 0,-0.29 0.23,-0.52 0.52,-0.52 0.29,0 0.52,0.23 0.52,0.52 0,0.23 -0.15,0.43 -0.36,0.49l-0.05 2.23 -0.9 0.5 -0.01 0.59c0.14,0 0.29,0.01 0.43,0.02l0.02 -0.27 0.99 -0.59 -0.02 -0.77c-0.2,-0.07 -0.34,-0.26 -0.34,-0.49 0,-0.29 0.23,-0.52 0.52,-0.52 0.29,0 0.52,0.23 0.52,0.52 0,0.21 -0.12,0.39 -0.3,0.47l0.02 0.65 -0 0.25 -0.06 0.11 -0.92 0.56 -0 0.11c1.22,0.15 2.33,0.59 3.23,1.23 -1.22,-0.4 -2.61,-0.63 -4.09,-0.63 -1.68,0 -3.25,0.29 -4.58,0.8 0.9,-0.7 2.03,-1.19 3.3,-1.38l0.02 -0.95 -1.03 -0.6 0 -1.11c-0.19,-0.07 -0.33,-0.26 -0.33,-0.47 0,-0.28 0.23,-0.5 0.5,-0.5zm1.98 0.52c0.14,0 0.25,0.11 0.25,0.25 0,0.14 -0.11,0.25 -0.25,0.25 -0.14,0 -0.25,-0.11 -0.25,-0.25 0,-0.14 0.11,-0.25 0.25,-0.25zm0.96 -1.04c0.14,0 0.25,0.11 0.25,0.25 0,0.14 -0.11,0.25 -0.25,0.25 -0.14,0 -0.25,-0.11 -0.25,-0.25 0,-0.14 0.11,-0.25 0.25,-0.25zm-2.05 -0.78c0.14,0 0.25,0.11 0.25,0.25 0,0.14 -0.11,0.25 -0.25,0.25 -0.14,0 -0.25,-0.11 -0.25,-0.25 0,-0.14 0.11,-0.25 0.25,-0.25zm2.85 2.5c0.14,0 0.25,0.11 0.25,0.25 0,0.14 -0.11,0.25 -0.25,0.25 -0.14,0 -0.25,-0.11 -0.25,-0.25 0,-0.14 0.11,-0.25 0.25,-0.25zm-3.73 -0.96c0.14,0 0.25,0.11 0.25,0.25 0,0.14 -0.11,0.25 -0.25,0.25 -0.14,0 -0.25,-0.11 -0.25,-0.25 0,-0.14 0.11,-0.25 0.25,-0.25z"/>
  <path class="fil1" d="M1.29 8.62l-0.1 -0.09c0.05,-0.22 0.53,-0.56 0.41,-0.7 -0.03,-0.04 0.01,-0.02 -0.05,-0.02l-0.27 -0.44c-0.03,-0.05 -0.07,-0.08 -0.07,-0.14 -0,-0.06 -0.07,-0.21 -0.1,-0.28 -0.09,-0.25 -0.46,-0.07 -0.85,-0.05l-0.13 -0.47c-0.03,-0.06 0.02,-0.02 -0.05,-0.05l-0.01 -0.11 -0.01 -0.16c0.11,-0.08 0.34,-0.17 0.5,-0.24 0.28,-0.11 0.19,-0.07 0.17,-0.49 -0.03,-0.62 0.12,-0.83 -0.1,-0.91 -0.14,-0.06 -0.18,-0.1 -0.28,-0.08 -0.06,-0.05 -0.25,-0.09 -0.34,-0.15 -0.01,-0.16 0.12,-0.39 0.12,-0.55l-0.01 -0.01c0.06,-0.05 0.06,-0.07 0.08,-0.15 0.03,-0.15 0.02,-0.11 0.06,-0.13 0.14,-0.06 0.56,0.08 0.78,0.04l0.18 -0.37c0.06,-0.11 0.17,-0.24 0.19,-0.37 0.01,-0.01 0.02,-0.03 0.02,-0.03 0.07,-0.01 0.15,-0.13 0.17,-0.2 0,-0.11 -0,-0.11 -0.07,-0.19l-0.26 -0.35c-0.05,-0.06 -0.12,-0.11 -0.06,-0.2 0.11,-0.04 0.05,-0.02 0.16,-0.13 0.13,-0.12 0.16,-0.13 0.3,-0.27 0.17,-0.17 0.11,-0.21 0.42,0.04 0.04,0.03 0.09,0.06 0.13,0.1l0.12 0.1c0.14,0.1 0.27,-0.03 0.52,-0.19l0.07 -0.08 -0 0.01 0.58 -0.27c0.04,-0.05 0.04,-0.16 0.03,-0.2 -0.02,-0.1 -0.01,-0.04 -0.04,-0.07l0 -0.04 -0.04 -0.49c0.13,-0.05 0.23,-0.03 0.29,-0.1 0.15,0.02 0.22,-0.05 0.37,-0.06l0.19 -0.04c0.01,0.03 0.02,0.07 0.04,0.1 0,0 0.02,0.05 0.02,0.05 0.03,0.04 0.02,0.02 0.05,0.05 -0,0.05 0.15,0.37 0.19,0.46 0.2,0.04 0.5,-0.02 0.73,-0.01 0.32,0.01 0.57,0.15 0.59,-0.11 0.03,-0.03 0.03,-0.06 0.05,-0.1 0.04,-0.02 0.03,-0.01 0.05,-0.04 0.03,-0.05 0.1,-0.31 0.18,-0.4l0.43 0.08c0.04,0.05 -0.02,-0 0.04,0.03 0.1,0.06 0.23,0.06 0.35,0.1 0.02,0.29 -0.15,0.72 0.01,0.82 0.11,0.07 0.34,0.14 0.48,0.24 0.08,0.05 0.06,0.08 0.18,0.08l0.03 0.01c0.05,0.07 0.08,0.05 0.19,0.14 0.12,0.1 0.17,0.08 0.39,-0.09 0.09,-0.07 0.14,-0.08 0.16,-0.15 0.11,-0 0.11,-0.09 0.22,-0.12 0.04,0 0.41,0.39 0.51,0.48 0,0.01 0.01,0.02 0.01,0.02 0,-0 0.01,0.01 0.01,0.02 0.05,0.06 0.05,0.05 0.08,0.1l-0.39 0.51c-0.11,0.15 0.01,0.25 0.15,0.43 0.35,0.44 0.24,0.87 0.73,0.72l0.03 -0.01c0.18,-0 0.29,-0.05 0.46,-0.04 0.02,0.07 0.02,0.14 0.05,0.22 0.02,0.06 0.04,0.12 0.05,0.2 0.02,0.12 0.1,0.32 0.1,0.42 -0.05,0.03 -0.09,0.04 -0.13,0.09 -0.17,-0.03 -0.25,0.14 -0.53,0.19 -0.07,0.12 -0.06,0.13 -0.03,0.26 0.02,0.11 0.01,0.22 0.01,0.33 0,0.12 0,0.24 -0,0.36 -0.01,0.13 -0.03,0.18 -0.01,0.32 0.05,0.04 0.14,0.09 0.22,0.08 0.04,0.04 0.01,0.03 0.11,0.07 0.14,0.06 0.14,0.08 0.35,0.15 0,0.17 -0.09,0.36 -0.11,0.55l-0.07 0.32 -0.36 -0.02c-0.03,-0.06 0.02,-0.02 -0.06,-0.05 -0.08,-0.03 -0.34,-0.03 -0.41,-0.01l-0.23 0.46c-0.03,0.06 -0.06,0.08 -0.07,0.15l-0.01 0.03c-0.07,0.03 -0.01,-0.01 -0.05,0.03 -0,0 -0.02,0.03 -0.03,0.03 -0.03,0.05 -0.02,0.03 -0.02,0.07 -0.06,0.02 -0.19,0.23 -0.18,0.29 0.06,0.15 0.41,0.47 0.43,0.61 -0,0.01 -0,0.01 -0.01,0.02 -0.6,-0.38 -1.29,-0.68 -2.03,-0.87 0.03,-0.02 0.06,-0.04 0.09,-0.06 0.19,-0.14 0.58,-0.54 0.63,-0.72l0.13 -0.24c0.16,-0.3 0.25,-0.46 0.32,-0.86 0.02,-0.11 0.05,-0.21 0.07,-0.31 0.01,-0.12 0.01,-0.28 0.01,-0.4 -0,-0.13 -0.06,-0.71 -0.06,-0.72 -0.01,-0.18 -0.19,-0.65 -0.32,-0.83 -0.11,-0.15 -0.18,-0.29 -0.31,-0.44 -0.04,-0.05 -0.05,-0.04 -0.1,-0.1 -0.1,-0.15 -0.14,-0.15 -0.29,-0.29 -0.09,-0.08 -0.11,-0.15 -0.22,-0.17 -0.05,-0.02 -0.15,-0.1 -0.21,-0.14 -0.04,-0.03 -0.07,-0.04 -0.12,-0.06 -0.05,-0.03 -0.09,-0.05 -0.15,-0.06l-0.01 0c-0.04,-0.09 -0.23,-0.14 -0.33,-0.17 -0.45,-0.12 -0.78,-0.22 -1.3,-0.19 -0.16,0.01 -0.29,0.03 -0.45,0.05l-0.4 0.09c-0.08,0.04 -0.61,0.2 -0.66,0.32 -0.03,-0 -0.02,-0.02 -0.09,0.01 -0,0 -0.03,0.02 -0.03,0.03 -0.04,0.05 0.01,-0.04 -0.02,0.05 -0.03,0.01 -0.23,0.15 -0.24,0.18 -0.13,0.05 -0.17,0.12 -0.26,0.2 -0.07,0.06 -0.17,0.14 -0.21,0.26 -0.01,0.01 -0.11,0.12 -0.12,0.14 -0.05,0.06 -0.06,0.11 -0.11,0.16 -0.04,0.02 -0.03,0.01 -0.06,0.04 -0.02,0.02 -0.01,0.02 -0.03,0.05 -0.02,0.05 -0.03,0.06 -0.05,0.12 -0.01,0.05 -0.09,0.21 -0.12,0.3 -0.03,0.09 -0.04,0.07 -0.07,0.14l-0.16 0.72c-0.02,0.69 -0.03,0.91 0.2,1.54 0.03,0.07 0.06,0.09 0.06,0.15 -0,0.11 0.09,0.24 0.15,0.35l0.1 0.15c0,0 0.01,0.01 0.01,0.01l0.03 0.04c0.02,0.02 0.04,0.04 0.07,0.06 0.05,0.09 0.37,0.47 0.52,0.51 0.04,0.02 0.03,0.04 0.07,0.07 0.03,0.02 0.06,0.03 0.1,0.05 -0.74,0.2 -1.42,0.51 -2.02,0.91z"/>
 </g>
</svg>
