<?xml version="1.0" encoding="UTF-8"?>
<svg id="Layer_2" data-name="Layer 2" xmlns="http://www.w3.org/2000/svg" xmlns:xlink="http://www.w3.org/1999/xlink" viewBox="0 0 317.132 133.723">
  <defs>
    <style>
      .cls-1 {
        fill: url(#linear-gradient);
      }

      .cls-1, .cls-2, .cls-3, .cls-4, .cls-5, .cls-6, .cls-7, .cls-8 {
        stroke-width: 0px;
      }

      .cls-2 {
        fill: url(#linear-gradient-4);
      }

      .cls-3 {
        fill: url(#linear-gradient-2);
      }

      .cls-4 {
        fill: url(#linear-gradient-3);
      }

      .cls-5 {
        fill: url(#linear-gradient-8);
      }

      .cls-6 {
        fill: url(#linear-gradient-7);
      }

      .cls-7 {
        fill: url(#linear-gradient-5);
      }

      .cls-8 {
        fill: url(#linear-gradient-6);
      }
    </style>
    <linearGradient id="linear-gradient" x1="0" y1="66.222" x2="130.362" y2="66.222" gradientUnits="userSpaceOnUse">
      <stop offset="0" stop-color="#f77b09"/>
      <stop offset="1" stop-color="#f36607"/>
    </linearGradient>
    <linearGradient id="linear-gradient-2" x1="37.536" y1="84.998" y2="84.998" xlink:href="#linear-gradient"/>
    <linearGradient id="linear-gradient-3" x1="139.471" y1="103.539" x2="192.965" y2="103.539" xlink:href="#linear-gradient"/>
    <linearGradient id="linear-gradient-4" x1="194.74" y1="102.463" x2="256.045" y2="102.463" xlink:href="#linear-gradient"/>
    <linearGradient id="linear-gradient-5" x1="253.686" y1="103.468" x2="317.132" y2="103.468" xlink:href="#linear-gradient"/>
    <linearGradient id="linear-gradient-6" x1="75.26" y1="103.865" y2="103.865" xlink:href="#linear-gradient"/>
    <linearGradient id="linear-gradient-7" x1="100.982" y1="112.396" x2="119.979" y2="112.396" xlink:href="#linear-gradient"/>
    <linearGradient id="linear-gradient-8" x1="113.466" y1="129.851" x2="119.979" y2="129.851" xlink:href="#linear-gradient"/>
  </defs>
  <g id="Layer_1-2" data-name="Layer 1">
    <g>
      <path class="cls-1" d="M0,132.222v.222h23.46v-.222c0-59.444,47.697-107.755,106.902-108.753V0C58.198,1.007,0,59.819,0,132.222Z"/>
      <path class="cls-3" d="M37.536,132.222v.222h21.541v-.222c0-39.771,31.752-72.138,71.285-73.128v-21.541c-51.433.99-92.826,42.996-92.826,94.668Z"/>
      <path class="cls-4" d="M166.906,73.356c-3.638,0-7.375.939-11.112,2.816v-2.159h-16.323v59.711h16.323v-12.877c3.638,1.877,7.277,2.816,11.112,2.816,7.474,0,13.668-2.44,18.684-7.414,4.916-4.974,7.375-10.887,7.375-17.739s-2.459-12.764-7.474-17.739c-5.015-4.974-11.21-7.414-18.585-7.414ZM173.494,106.017c-2.163,1.971-4.523,3.003-7.08,3.003-5.212,0-8.752-2.347-10.62-6.007v-9.291c2.065-3.848,5.408-5.725,9.932-5.725,3.048,0,5.704,1.032,7.867,3.003,2.065,1.971,3.147,4.505,3.147,7.508s-1.082,5.537-3.245,7.508Z"/>
      <path class="cls-2" d="M226.069,116.392c-3.268,0-6.311-.86-9.128-2.474-2.818-1.614-4.395-3.872-4.62-6.669h43.612c.113-1.075.113-2.581.113-4.517,0-8.282-2.93-15.381-8.903-21.082-5.973-5.701-13.297-8.497-22.088-8.497-8.903,0-16.115,2.797-21.75,8.39-5.747,5.593-8.564,12.477-8.564,20.544,0,8.175,2.817,15.166,8.564,20.974,5.635,5.808,13.298,8.712,22.877,8.712,10.706,0,17.58-3.226,24.229-10.54l-10.03-9.895c-4.395,3.334-9.128,5.055-14.312,5.055ZM225.055,87.888c5.973,0,10.368,3.227,11.72,7.207h-24.003c1.465-4.84,5.635-7.207,12.284-7.207Z"/>
      <polygon class="cls-7" points="317.132 75.448 295.833 75.448 285.24 90.184 275.097 75.448 253.686 75.448 273.407 103.844 253.798 131.487 275.548 131.487 285.24 117.504 295.044 131.487 316.794 131.487 297.185 103.737 317.132 75.448"/>
      <path class="cls-8" d="M75.26,132.222v.222h24.357c-.949-.374-1.871-.82-2.761-1.358-2.907-1.758-5.204-4.26-6.89-7.506-1.687-3.244-2.53-6.997-2.53-11.258s.843-8,2.53-11.221c1.686-3.22,3.983-5.697,6.89-7.431,2.906-1.733,6.151-2.601,9.732-2.601,3.062,0,5.748.594,8.058,1.783,2.309,1.189,4.088,2.75,5.333,4.682v-4.078h10.383v-18.17c-30.601.981-55.102,26.096-55.102,56.936Z"/>
      <path class="cls-6" d="M110.48,102.141c-2.647,0-4.893.904-6.735,2.712-1.843,1.809-2.764,4.298-2.764,7.468s.921,5.685,2.764,7.543c1.842,1.858,4.088,2.787,6.735,2.787s4.891-.916,6.735-2.75c1.842-1.832,2.764-4.334,2.764-7.506s-.922-5.672-2.764-7.505c-1.843-1.833-4.088-2.75-6.735-2.75Z"/>
      <path class="cls-5" d="M114.568,131.94c-.357.184-.726.348-1.102.504h6.513v-5.186c-1.298,1.932-3.102,3.493-5.411,4.682Z"/>
    </g>
  </g>
</svg>