<?xml version="1.0" encoding="UTF-8"?>
<!DOCTYPE svg PUBLIC "-//W3C//DTD SVG 1.1//EN" "http://www.w3.org/Graphics/SVG/1.1/DTD/svg11.dtd">
<!-- Creator: CorelDRAW 2021 (64-Bit) -->
<svg xmlns="http://www.w3.org/2000/svg" xml:space="preserve" width="0.519331in" height="0.184571in" version="1.1" style="shape-rendering:geometricPrecision; text-rendering:geometricPrecision; image-rendering:optimizeQuality; fill-rule:evenodd; clip-rule:evenodd"
viewBox="0 0 4.03 1.43"
 xmlns:xlink="http://www.w3.org/1999/xlink"
 xmlns:xodm="http://www.corel.com/coreldraw/odm/2003">
 <defs>
  <style type="text/css">
   <![CDATA[
    .fil2 {fill:#642974;fill-rule:nonzero}
    .fil0 {fill:#652873;fill-rule:nonzero}
    .fil1 {fill:url(#id0)}
   ]]>
  </style>
  <linearGradient id="id0" gradientUnits="userSpaceOnUse" x1="0.58" y1="0.44" x2="0.58" y2="1.52">
   <stop offset="0" style="stop-opacity:1; stop-color:#1788CA"/>
   <stop offset="0.678431" style="stop-opacity:1; stop-color:#652873"/>
   <stop offset="1" style="stop-opacity:1; stop-color:#652873"/>
  </linearGradient>
 </defs>
 <g id="Layer_x0020_1">
  <metadata id="CorelCorpID_0Corel-Layer"/>
  <g id="_1616696536720">
   <path class="fil0" d="M0.59 0c0.01,0 0.03,0 0.04,0.01 0.03,0.01 0.05,0.02 0.07,0.03 0.05,0.03 0.09,0.05 0.14,0.08 0.01,0.01 0.03,0.02 0.04,0.03 0,0 0,0.01 0.01,0.01 0,0 0,0 0,0.01 0,0.1 0,0.2 0,0.31 0,0 0,0 -0,0.01 -0,0.01 -0,0.01 -0.01,0 -0.02,-0.01 -0.04,-0.02 -0.07,-0.04 -0.05,-0.03 -0.09,-0.05 -0.13,-0.08 -0.02,-0.01 -0.05,-0.03 -0.08,-0.03 -0.04,-0.01 -0.08,-0 -0.11,0.02 -0.05,0.03 -0.11,0.06 -0.16,0.09 -0.02,0.01 -0.04,0.02 -0.06,0.03 -0,0 -0.01,0 -0.01,-0 -0,-0 -0,-0 -0,-0.01 -0,-0.1 -0,-0.2 -0,-0.31 0,-0.01 0,-0.01 0.01,-0.02 0.05,-0.03 0.09,-0.06 0.14,-0.08 0.02,-0.01 0.05,-0.03 0.07,-0.04 0.02,-0.01 0.04,-0.02 0.06,-0.02 0,-0 0,-0 0,-0l0.05 0z"/>
   <path class="fil1" d="M0.95 0.37c-0,0.04 0,0.08 -0,0.12 -0,0.01 0,0.02 0.01,0.03 0.04,0.03 0.06,0.07 0.06,0.12 0,0.04 -0,0.09 -0,0.13 -0,0.04 0,0.07 0,0.11 0,0.03 0,0.05 0,0.08 -0,0.02 -0,0.04 -0.01,0.06 -0.02,0.05 -0.06,0.08 -0.11,0.11 -0,0 -0.01,-0 -0.01,-0 -0,-0.01 -0,-0.02 -0,-0.03 -0,-0.04 -0,-0.09 -0,-0.13 0,-0.04 0,-0.09 0,-0.13 -0,-0.06 -0,-0.12 -0,-0.17 -0,-0.02 -0,-0.03 -0.01,-0.05 -0.01,-0.02 -0.02,-0.04 -0.04,-0.06 -0.01,-0.01 -0.03,-0.02 -0.04,-0.03 -0.05,-0.03 -0.11,-0.06 -0.16,-0.09 -0.04,-0.02 -0.08,-0.03 -0.13,-0 -0.03,0.02 -0.07,0.04 -0.1,0.06 -0.02,0.01 -0.04,0.02 -0.06,0.03 -0.02,0.01 -0.04,0.02 -0.06,0.04 -0.02,0.02 -0.03,0.04 -0.03,0.07 -0,0.02 -0,0.04 -0,0.07 0,0.06 0,0.12 0,0.18 0,0.04 0,0.07 0,0.11 0,0.04 0,0.08 -0,0.13 0,0 -0,0.01 -0,0.01 -0.01,-0.01 -0.02,-0.01 -0.03,-0.02 -0.03,-0.01 -0.05,-0.03 -0.07,-0.06 -0.02,-0.03 -0.03,-0.07 -0.03,-0.11 0,-0.02 0,-0.04 0,-0.06 0,-0.02 0,-0.03 0,-0.05 0,-0.01 0,-0.03 0,-0.04 -0,-0.01 -0,-0.03 -0,-0.04 -0,-0.04 -0,-0.08 -0,-0.12 0,-0.01 0,-0.02 0,-0.03 0.01,-0.04 0.03,-0.07 0.06,-0.09 0.01,-0 0.01,-0.01 0.01,-0.02 -0,-0.02 -0,-0.03 -0,-0.05 -0,-0.03 -0,-0.05 -0,-0.08 -0,-0.01 -0,-0.01 -0.01,-0.01 -0.02,0.01 -0.05,0.03 -0.07,0.04 -0.04,0.02 -0.07,0.05 -0.09,0.09 -0.02,0.03 -0.03,0.07 -0.03,0.11 0,0.04 0,0.07 0,0.11 0,0.04 0,0.08 0,0.11 -0,0.03 -0,0.06 -0,0.1 -0,0.03 -0,0.05 -0,0.08 0,0.03 0.01,0.06 0.02,0.08 0.01,0.04 0.03,0.07 0.07,0.09 0.02,0.02 0.05,0.03 0.07,0.04 0.06,0.03 0.11,0.06 0.17,0.09 0.05,0.03 0.09,0.06 0.14,0.08 0.03,0.02 0.06,0.03 0.09,0.03 0.02,0 0.03,0 0.05,0 0.02,-0 0.04,-0.01 0.06,-0.01 0.03,-0.01 0.06,-0.03 0.09,-0.05 0.04,-0.02 0.08,-0.05 0.12,-0.07 0.05,-0.03 0.1,-0.06 0.16,-0.09 0.03,-0.02 0.06,-0.04 0.09,-0.07 0.02,-0.03 0.04,-0.06 0.04,-0.1 0,-0.03 0,-0.05 0,-0.08 -0,-0.04 -0,-0.07 -0,-0.11 0,-0.06 0,-0.12 0,-0.17 0,-0.02 0,-0.05 0,-0.07 -0,-0.03 -0.01,-0.06 -0.02,-0.09 -0.02,-0.03 -0.04,-0.06 -0.07,-0.09 -0.02,-0.02 -0.05,-0.03 -0.07,-0.04 -0.01,-0.01 -0.03,-0.01 -0.04,-0.02 -0,0.01 -0,0.01 -0,0.01z"/>
   <path class="fil2" d="M2.06 0.44c-0.03,0 -0.06,0.02 -0.06,0.06 0,0.04 0.03,0.06 0.06,0.06 0.03,0 0.06,-0.02 0.06,-0.06 0,-0.04 -0.03,-0.06 -0.06,-0.06z"/>
   <polygon class="fil2" points="2.01,1 2.11,1 2.11,0.6 2.01,0.6 "/>
   <polygon class="fil2" points="2.88,0.61 2.83,0.74 2.77,0.89 2.72,0.74 2.66,0.61 2.55,0.61 2.72,1 2.83,1 3,0.61 "/>
   <path class="fil2" d="M3.56 0.76c-0.05,-0 -0.07,-0.02 -0.07,-0.04 0,-0.02 0.02,-0.03 0.07,-0.03 0.04,0 0.07,0.01 0.09,0.03l0 0 0.06 -0.07 -0 -0c-0.04,-0.04 -0.09,-0.05 -0.15,-0.05 -0.08,0 -0.17,0.04 -0.17,0.12 0,0.1 0.1,0.12 0.16,0.12 0.06,0 0.07,0.02 0.07,0.04 0,0.01 -0,0.02 -0.01,0.02 -0.01,0.01 -0.03,0.02 -0.06,0.02 -0.05,-0 -0.1,-0.02 -0.13,-0.05l-0 -0 -0.05 0.08 0 0c0.06,0.06 0.13,0.07 0.18,0.07 0.12,0 0.17,-0.07 0.17,-0.13 0,-0.1 -0.09,-0.12 -0.17,-0.13z"/>
   <path class="fil2" d="M2.39 0.6c-0.05,0 -0.08,0.02 -0.12,0.05l-0.01 -0.05 -0.09 0 0 0.4 0.1 0 0 -0.2c0,-0.06 0.04,-0.1 0.09,-0.1 0.06,0 0.09,0.04 0.09,0.1l0 0.21 0.1 0 0 -0.21c0,-0.12 -0.07,-0.19 -0.17,-0.19z"/>
   <path class="fil2" d="M4 0.9l-0 0c-0.01,0.01 -0.03,0.01 -0.04,0.01 -0.03,0 -0.05,-0.02 -0.05,-0.05l0 -0.16 0.11 0 0 -0.09 -0.11 0 0 -0.11 -0.1 0.01 0 0.1 -0.07 0 0 0.09 0.07 0 0 0.16c0,0.05 0.01,0.09 0.04,0.11 0.02,0.02 0.06,0.03 0.1,0.03 0,0 0.01,-0 0.01,-0 0.03,-0 0.05,-0.01 0.08,-0.02l0 -0 -0.03 -0.09z"/>
   <polygon class="fil2" points="1.66,0.82 1.96,0.82 1.96,0.72 1.66,0.72 "/>
   <path class="fil2" d="M3.08 0.75c0.01,-0.04 0.05,-0.07 0.1,-0.07 0.05,0 0.09,0.02 0.1,0.07l-0.2 0zm0.21 0.13c-0.02,0.02 -0.07,0.03 -0.1,0.03 -0.06,0 -0.1,-0.03 -0.11,-0.07l0.3 0 0 -0c0.01,-0.08 -0.01,-0.14 -0.05,-0.19 -0.03,-0.04 -0.09,-0.06 -0.15,-0.06 -0.13,0 -0.21,0.08 -0.21,0.21 0,0.13 0.08,0.21 0.22,0.21 0.07,0 0.13,-0.02 0.17,-0.06l0 -0 -0.07 -0.07 -0 0z"/>
   <path class="fil2" d="M1.55 0.44c-0.03,0 -0.06,0.02 -0.06,0.06 0,0.04 0.03,0.06 0.06,0.06 0.03,0 0.06,-0.02 0.06,-0.06 0,-0.04 -0.03,-0.06 -0.06,-0.06z"/>
   <polygon class="fil2" points="1.5,1 1.61,1 1.61,0.6 1.5,0.6 "/>
  </g>
 </g>
</svg>
