<svg width="357" height="66" viewBox="0 0 357 66" fill="none" xmlns="http://www.w3.org/2000/svg">
<g clip-path="url(#clip0_1361_637)">
<path d="M81.1143 65.0086V3.05176e-05H105.241C109.657 3.05176e-05 113.56 0.811174 116.931 2.44247C120.365 4.01068 123.032 6.33596 124.952 9.4183C126.872 12.4376 127.863 16.1057 127.863 20.4679C127.863 24.83 126.755 28.7235 124.61 31.923C122.519 35.0594 119.671 37.3847 116.066 38.8988L130.954 64.9455H117.526L101.537 36.4564L109.216 40.9898H92.9389V64.9455H81.1323V64.9996L81.1143 65.0086ZM92.975 30.526H105.422C107.576 30.526 109.432 30.1205 111 29.3093C112.569 28.4351 113.794 27.2184 114.66 25.7042C115.525 24.1901 115.939 22.4507 115.939 20.4679C115.939 18.4851 115.471 16.6915 114.66 15.2315C113.785 13.7174 112.569 12.5547 111 11.7436C109.432 10.8693 107.567 10.4638 105.422 10.4638H92.975V30.526Z" fill="#003140"/>
<path d="M156.353 65.9996C151.468 65.9996 147.169 64.891 143.564 62.6829C139.905 60.4748 137.048 57.5096 135.02 53.7243C132.983 49.948 132.001 45.7571 132.001 41.1606C132.001 36.5641 133.046 32.1479 135.02 28.4888C137.111 24.7665 139.959 21.8013 143.51 19.7104C147.115 17.5564 151.126 16.4568 155.542 16.4568C159.264 16.4568 162.518 17.0967 165.312 18.3134C168.16 19.5301 170.602 21.2245 172.522 23.3695C174.496 25.5236 176.01 28.0201 177.055 30.814C178.101 33.5449 178.624 36.5101 178.624 39.7096C178.624 40.5207 178.57 41.3409 178.452 42.2061C178.398 43.0803 178.281 43.8374 177.984 44.4773H141.347V35.753H171.522L166.114 39.8267C166.637 37.15 166.52 34.7706 165.645 32.6706C164.888 30.5797 163.609 28.8943 161.806 27.7317C160.058 26.515 157.912 25.8751 155.407 25.8751C152.901 25.8751 150.874 26.4609 149.071 27.7317C147.214 28.8943 145.754 30.6428 144.826 32.9681C143.898 35.2393 143.546 37.9701 143.781 41.2237C143.546 44.1348 143.898 46.7485 144.943 48.9566C145.989 51.1647 147.503 52.9132 149.477 54.1299C151.513 55.3466 153.839 55.9324 156.452 55.9324C159.066 55.9324 161.274 55.3466 163.077 54.3011C164.933 53.1926 166.393 51.6874 167.439 49.8218L176.686 54.3552C175.758 56.6264 174.298 58.6543 172.324 60.4027C170.35 62.1512 167.962 63.4851 165.231 64.4765C162.554 65.5219 159.589 65.9906 156.335 65.9906L156.353 65.9996Z" fill="#003140"/>
<path d="M199.442 65.009L180.776 17.5571H193.277L206.769 54.8877H202.118L215.728 17.5571H228.174L209.509 65.009H199.451H199.442Z" fill="#003140"/>
<path d="M245.146 65.009L228.869 17.5571H240.901L252.879 53.5538L248.688 53.4997L261.423 17.5661H271.544L284.216 53.4997L280.025 53.5538L292.003 17.5571H304.035L287.758 65.009H277.529L264.623 27.39H268.462L255.375 65.009H245.146Z" fill="#003140"/>
<path d="M308.875 65.0086V17.5568H320.33V65.0086H308.875ZM308.875 12.2122V3.05176e-05H320.33V12.2122H308.875Z" fill="#003140"/>
<path d="M351.205 65.5314C345.851 65.5314 341.67 64.0804 338.704 61.1693C335.793 58.2041 334.342 54.0763 334.342 48.6687V27.7322H326.141V17.5568H327.015C329.34 17.5568 331.143 16.9169 332.422 15.7002C333.702 14.4835 334.342 12.681 334.342 10.3467V6.68752H345.797V17.5028H356.73V27.6781H345.797V48.0288C345.797 49.597 346.032 50.9399 346.554 52.0394C347.14 53.148 348.005 54.0132 349.168 54.599C350.385 55.1849 351.962 55.4733 353.819 55.4733C354.224 55.4733 354.693 55.4192 355.216 55.3561C355.801 55.302 356.324 55.2389 356.901 55.1849V64.9546C356.09 65.0718 355.153 65.1889 354.107 65.3061C352.998 65.4233 352.07 65.5404 351.196 65.5404L351.205 65.5314Z" fill="#003140"/>
<path fill-rule="evenodd" clip-rule="evenodd" d="M64.8914 -1.52588e-05L0 64.8914V-1.52588e-05H64.8914Z" fill="#003140"/>
<path fill-rule="evenodd" clip-rule="evenodd" d="M32.4457 32.4456L0 64.8913V32.4456H32.4457Z" fill="#0EE06E"/>
<path fill-rule="evenodd" clip-rule="evenodd" d="M64.892 32.4454L32.4463 64.8911V32.4454H64.892Z" fill="#0EE06E"/>
</g>
<defs>
<clipPath id="clip0_1361_637">
<rect width="356.903" height="66" fill="white"/>
</clipPath>
</defs>
</svg>
