<?xml version="1.0" encoding="UTF-8"?>
<svg width="899px" height="235px" viewBox="0 0 899 235" version="1.1" xmlns="http://www.w3.org/2000/svg" xmlns:xlink="http://www.w3.org/1999/xlink">
    <title>FBN Quest</title>
    <g id="Page-1" stroke="none" stroke-width="1" fill="none" fill-rule="evenodd">
        <g id="Desktop-HD-Copy-3" transform="translate(-271.000000, -395.000000)">
            <g id="FBN-Quest" transform="translate(271.000000, 395.288344)">
                <path d="M345.022393,46.7116564 C355.187423,46.7116564 363.248773,48.2797546 369.272699,51.3717791 C375.285583,54.4748466 379.66411,58.6601227 382.43589,63.8834356 C385.163497,69.1122699 386.59908,75.2355828 386.692945,82.2865031 C386.82546,89.3374233 386.052454,96.7693252 384.396012,104.515951 C382.734049,112.444785 380.459202,119.854601 377.499693,126.866871 C374.60092,133.846012 370.669632,139.958282 365.722393,145.176074 C360.791718,150.388344 354.679448,154.523926 347.429755,157.544172 C346.99908,157.720859 346.55184,157.87546 346.115644,158.046626 C349.975153,159.752761 354.38681,160.61411 359.278834,160.61411 C362.983742,160.61411 366.219325,160.144785 368.946933,159.211656 C370.802147,158.576687 372.629755,160.166871 372.204601,162.077301 L372.204601,162.077301 L369.515644,174.136196 C369.189877,175.604908 367.908896,176.670552 366.407055,176.720245 C365.324847,176.758896 364.215031,176.77546 363.077607,176.77546 C352.951227,176.77546 344.216258,175.251534 336.961043,172.220245 C330.788037,169.647239 325.448773,166.257055 320.948773,162.099387 C310.943865,162.060736 302.965337,160.53681 297.035276,157.544172 C291.033436,154.523926 286.643865,150.432515 283.88865,145.253374 C281.105828,140.10184 279.697853,134.050307 279.581902,127.076687 C279.471472,120.086503 280.227914,112.638037 281.939571,104.73681 C283.562883,96.8411043 285.898466,89.3705521 288.786196,82.3969325 C291.707055,75.3957055 295.654908,69.2834356 300.607669,63.9662577 C305.516258,58.6822086 311.639571,54.4748466 318.905828,51.3717791 C326.15,48.2797546 334.868405,46.7116564 345.022393,46.7116564 Z M403.319202,79.664908 C418.597117,79.664908 424.621043,87.2403681 421.457239,102.363681 L416.432699,126.619509 C415.83638,129.645276 415.505092,132.516442 415.416748,135.244049 C415.350491,138.015828 415.654172,140.42319 416.311227,142.488221 C416.984847,144.58638 418.100184,146.237301 419.723497,147.468589 C421.297117,148.727485 423.500184,149.367975 426.227791,149.367975 C437.281779,149.367975 444.421043,141.24589 447.662147,125.090061 L456.48546,82.7955828 C456.949264,80.7250307 458.169509,79.6759509 460.179325,79.6759509 L471.846196,79.6925153 C474.049264,79.6925153 474.921656,80.7471166 474.490982,82.8121472 L462.862761,138.347117 C462.11184,141.643436 462.078712,144.017669 462.724724,145.40908 C463.398344,146.811534 464.226564,147.501718 465.308773,147.501718 L465.590368,147.501718 C467.705092,147.501718 468.533313,148.56184 468.086074,150.632393 L466.672577,157.236074 C466.263988,159.306626 464.96092,160.328098 462.862761,160.328098 L461.918589,160.328098 C458.66092,160.328098 456.187301,159.99681 454.01184,159.51092 C452.835767,159.229325 450.798344,158.207853 449.749264,157.324417 C448.523497,156.302945 447.562761,154.78454 447.11,153.155706 C446.602025,151.582086 446.381166,149.793129 446.403252,147.827485 L446.088528,147.827485 C442.389141,152.791288 438.71184,156.457546 435.006933,158.842822 C431.390368,161.228098 426.78546,162.420736 421.252945,162.420736 C417.067669,162.420736 413.241288,161.747117 409.72411,160.383313 C406.245583,159.030552 403.319202,157.053865 401.055399,154.458773 C398.73638,151.880245 397.157239,148.699877 396.273804,144.901104 C395.401411,141.107853 395.462147,136.762454 396.395276,131.90908 L402.303252,103.440368 C403.065215,99.6029448 403.15908,96.8532515 402.590368,95.1912883 C401.988528,93.551411 401.21,92.7011043 400.127791,92.7011043 L399.796503,92.7011043 C397.753558,92.7011043 396.875644,91.6630675 397.31184,89.5925153 L398.692209,82.7403681 C399.156012,80.6808589 400.392822,79.664908 402.391595,79.664908 L403.319202,79.664908 Z M599.007914,77.1614724 C605.755153,77.1614724 611.458834,78.0173006 616.085828,79.6626994 C620.740429,81.341227 623.727546,83.0694479 625.096871,84.836319 C625.256994,85.14 625.455767,85.6148466 625.538589,86.2332515 C625.687669,86.8682209 625.201779,87.735092 624.174785,88.8890798 L619.779693,93.8749693 C619.277239,94.5927607 618.708528,94.8688344 617.902393,94.7307975 C617.112822,94.5541104 616.345337,94.3608589 615.660675,94.1786503 C612.977239,93.1130061 610.222025,92.2295706 607.395031,91.44 C604.645337,90.6614724 601.547791,90.2418405 598.163129,90.2418405 C593.431227,90.2418405 589.84227,91.1804908 587.396258,93.0522699 C584.944724,94.9130061 583.360061,97.3921472 582.68092,100.406871 C582.333067,102.151656 582.509755,103.719755 583.210982,105.044908 C583.945337,106.40319 585.30362,107.41362 587.396258,108.032025 L604.772331,113.332638 C611.21589,115.32589 615.285215,118.230184 617.112822,122.084172 C618.929387,125.932638 619.216503,130.874356 617.990736,136.870675 C617.085215,141.16638 615.401166,144.83816 612.977239,147.95227 C610.470491,151.088466 607.516503,153.683558 604.071104,155.831411 C600.592577,157.940613 596.777239,159.552883 592.614049,160.574356 C588.390123,161.628957 584.204847,162.109325 579.870491,162.109325 C576.480307,162.109325 573.272331,161.943681 570.312822,161.496442 C567.314663,161.082331 564.620184,160.535706 562.212822,159.84 C559.733681,159.149816 557.734908,158.382331 556.177853,157.393988 C554.609755,156.482945 553.522025,155.516687 552.975399,154.451043 C552.196871,153.12589 552.390123,151.756564 553.527546,150.387239 L557.977853,145.417914 C558.541043,144.909939 559.20362,144.683558 559.998712,144.722209 C560.777239,144.76638 561.483988,144.909939 562.102393,145.086626 C564.97908,146.135706 567.982761,147.085399 571.107914,147.847362 C574.222025,148.609325 577.722638,149.00135 581.63184,149.028957 C584.911595,149.028957 587.650245,148.714233 589.84227,148.106871 C592.045337,147.488466 593.823252,146.671288 595.115276,145.688466 C596.456994,144.694601 597.439816,143.573742 598.085828,142.303804 C598.748405,141.08908 599.239816,139.85227 599.532454,138.582331 C600.029387,136.208098 599.455153,134.363926 597.90362,133.049816 C596.357607,131.768834 593.458834,130.382945 589.223865,128.925276 L576.353313,124.861472 C570.881534,123.08908 567.23184,120.195828 565.442883,116.11546 C563.681534,112.051656 563.283988,107.45227 564.333067,102.251043 C565.095031,98.6896933 566.425706,95.4154601 568.286442,92.3344785 C570.185828,89.2811043 572.565583,86.636319 575.514049,84.3228221 C578.456994,82.0258896 581.885828,80.2590184 585.811595,79.0332515 C589.753926,77.7798773 594.149018,77.1614724 599.007914,77.1614724 Z M525.312822,77.1399387 C530.083374,77.1399387 534.390123,77.7914724 538.282761,79.1442331 C542.147791,80.4969939 545.344724,82.6282822 547.818344,85.4111043 C550.303006,88.1939264 551.998098,91.7111043 552.964356,95.9239877 C553.858834,100.125828 553.742883,105.073067 552.577853,110.666319 C551.987055,113.719693 551.225092,116.18227 550.253313,118.147914 C549.281534,120.152209 548.006074,121.692699 546.393804,122.929509 C544.814663,124.116626 542.865583,124.961411 540.541043,125.436258 C538.249632,125.97184 535.488896,126.242393 532.187055,126.242393 L499.682147,126.187178 C499.295644,129.516626 499.223865,132.586564 499.538589,135.352822 C499.770491,138.091472 500.477239,140.498834 501.60362,142.503129 C502.779693,144.523988 504.441656,146.119693 506.661288,147.262638 C508.875399,148.411104 511.718957,149.001902 515.203006,149.001902 C518.295031,149.001902 521.420184,148.609877 524.633681,147.847914 C527.858221,147.052822 531.149018,146.174908 534.622025,145.125828 C536.350245,144.64546 537.377239,144.463252 537.83,144.678589 C538.194417,144.855276 538.525706,145.125828 538.713436,145.440552 L541.004847,150.431963 C541.739202,151.88411 541.452086,153.27 540.082761,154.50681 C539.160675,155.301902 537.763742,156.207423 535.831227,157.118466 C533.85454,158.051595 531.56865,158.907423 528.929387,159.60865 C526.306687,160.343006 523.446564,160.950368 520.310368,161.414172 C517.141043,161.872454 513.850245,162.104356 510.520798,162.104356 C503.188282,162.060184 497.363129,160.950368 493.023252,158.647914 C488.661288,156.334417 485.475399,153.281043 483.437975,149.449141 C481.367423,145.589632 480.246564,141.161411 480.114049,136.17 C479.964969,131.189632 480.428773,125.938712 481.477853,120.422761 C482.692577,114.38227 484.448405,108.722761 486.712209,103.504969 C489.00362,98.2816564 491.974172,93.6877914 495.579693,89.767546 C499.223865,85.8914724 503.475399,82.8049693 508.334294,80.5246012 C513.220798,78.2331902 518.852699,77.1012883 525.312822,77.1399387 Z M124.458896,48.0622086 C136.617178,48.0622086 145.716564,50.6020859 151.685276,55.7094479 C157.703681,60.8002454 159.719018,68.1106748 157.73681,77.6904294 C156.516564,83.2947239 154.252761,88.0376687 150.939877,91.8806135 C147.621472,95.7180368 143.347853,98.7934969 138.102454,101.068344 L138.058282,101.377546 C145.368712,102.531534 150.465031,105.568344 153.374847,110.515583 C156.27362,115.429693 156.969325,121.403926 155.461963,128.366503 C154.545399,132.938282 152.778528,137.156687 150.177914,140.988589 C147.599387,144.831534 144.402454,148.221718 140.647853,151.126012 C136.854601,154.035828 132.619632,156.29411 127.931902,157.895337 C123.271779,159.51865 118.379755,160.335828 113.288957,160.335828 L78.1944785,160.335828 C76.0245399,160.335828 75.1631902,159.286748 75.5883436,157.216196 L97.5693252,51.1818405 C98.0386503,49.1057669 99.2865031,48.0622086 101.379141,48.0622086 L124.458896,48.0622086 Z M198.111472,48.0577914 C200.386319,48.0577914 201.893681,48.9025767 202.628037,50.5590184 L234.542147,126.644908 L234.873436,126.644908 L239.920061,94.841227 L248.897975,51.1884663 C249.356258,49.1013497 250.60411,48.0577914 252.66362,48.0577914 L264.534785,48.0577914 C266.61638,48.0577914 267.422515,49.1013497 266.986319,51.1884663 L244.988773,157.211779 C244.547055,159.282331 243.321288,160.331411 241.355644,160.331411 L230.439693,160.331411 C228.048896,160.331411 226.513926,159.486626 225.774049,157.824663 L193.832331,81.7332515 L193.550736,81.7332515 L188.631104,113.542454 L179.498589,157.211779 C179.045828,159.282331 177.847669,160.331411 175.870982,160.331411 L164.021902,160.331411 C161.857485,160.331411 160.963006,159.282331 161.432331,157.211779 L183.413313,51.1884663 C183.866074,49.1013497 185.097362,48.0577914 187.195521,48.0577914 L198.111472,48.0577914 Z M81.5018405,48.0616564 C83.5834356,48.0616564 84.4116564,49.0996933 83.9644172,51.1812883 L82.3631902,58.9665644 C81.9214724,61.0481595 80.6515337,62.0861963 78.5699387,62.0861963 L40.0466258,62.0861963 L32.9460123,96.551227 L63.6674847,96.551227 C65.7325153,96.551227 66.5552147,97.5892638 66.1079755,99.6708589 L64.501227,107.456135 C64.0484663,109.548773 62.7730061,110.575767 60.702454,110.575767 L29.9920245,110.575767 L20.3460123,157.215644 C19.9042945,159.286196 18.6895706,160.329755 16.7128834,160.329755 L3.31779141,160.329755 C1.13680982,160.329755 0.242331288,159.286196 0.711656442,157.215644 L22.692638,51.1812883 C23.1509202,49.0996933 24.4042945,48.0616564 26.4858896,48.0616564 L81.5018405,48.0616564 Z M669.858344,55.9656442 L664.938712,80.3815951 L675.081656,80.3815951 C677.152209,80.3981595 678.01908,81.4196319 677.538712,83.4570552 L677.538712,83.4570552 L676.224601,89.4754601 C675.816012,91.5128834 674.507423,92.5453988 672.442393,92.5453988 L672.442393,92.5453988 L662.332577,92.5453988 L652.957117,136.827607 C652.206196,140.609816 652.44362,143.337423 653.691472,144.977301 C654.950368,146.622699 656.750368,147.417791 658.500675,147.417791 L658.500675,147.417791 L661.128896,147.434356 C663.182883,147.434356 664.066319,148.466871 663.574908,150.482209 L663.574908,150.482209 L662.227669,157.234969 C661.791472,159.333129 660.576748,160.326994 658.605583,160.326994 L658.605583,160.326994 L652.035031,160.326994 C644.917853,160.326994 639.992699,158.366871 637.132577,154.413497 C634.217239,150.454601 633.631963,144.447239 635.299448,136.330675 L635.299448,136.330675 L644.630736,92.5067485 L636.50865,92.5067485 C634.432577,92.5067485 633.587791,91.5128834 634.040552,89.4533742 L634.040552,89.4533742 L635.354663,83.4460123 C635.807423,81.397546 637.082883,80.3815951 639.17,80.3815951 L639.17,80.3815951 L647.253436,80.3815951 L650.085951,66.5944785 L669.858344,55.9656442 Z M118.51227,109.654233 L105.111656,109.654233 L97.3153374,147.238896 L110.710429,147.238896 C114.978528,147.238896 118.600613,146.681227 121.58773,145.582454 C124.574847,144.489202 127.020859,143.09227 128.958896,141.369571 C130.902454,139.68 132.382209,137.686748 133.480982,135.445031 C134.568712,133.214356 135.341718,130.90638 135.827607,128.515583 C136.280368,126.229693 136.396319,123.982454 136.197546,121.729693 C135.965644,119.499018 135.214724,117.47816 133.939264,115.650552 C132.663804,113.845031 130.758896,112.38184 128.307362,111.283067 C125.822699,110.184294 122.553988,109.654233 118.51227,109.654233 Z M341.207055,62.9006135 C335.359816,62.9006135 330.302147,64.0490798 326.172086,66.3128834 C322.108282,68.5435583 318.585583,71.6300613 315.697853,75.4895706 C312.892945,79.2441718 310.557362,83.6558282 308.762883,88.6030675 C307.02362,93.4067485 305.621166,98.4202454 304.467178,103.958282 C303.390491,109.457669 302.694785,114.63681 302.396626,119.357669 C302.065337,124.53681 302.545706,128.893252 303.859816,132.664417 C305.240184,136.700613 307.66411,139.958282 311.054294,142.34908 C314.444479,144.734356 319.170859,145.943558 325.111963,145.943558 C330.754908,145.943558 335.768405,144.795092 340.019939,142.525767 C344.183129,140.278528 347.744479,137.236196 350.59908,133.481595 C353.392945,129.793252 355.734049,125.442331 357.539571,120.533742 C359.295398,115.735583 360.742025,110.534356 361.835276,105.084663 C362.851227,100.021472 363.557975,94.8754601 363.927914,89.7791411 C364.270245,84.6165644 363.795398,80.204908 362.475767,76.2957055 C361.078834,72.1601227 358.616258,68.8527607 355.159816,66.4674847 C351.730982,64.098773 347.03773,62.9006135 341.207055,62.9006135 Z M523.612209,90.2258282 C520.774172,90.2258282 518.173558,90.8221472 515.882147,92.0976074 C513.640429,93.3288957 511.614049,95.0019018 509.918957,97.061411 C508.190736,99.1485276 506.716503,101.544847 505.474172,104.33319 C504.220798,107.049755 503.171718,109.976135 502.349018,113.101288 L526.737362,113.173067 C529.161288,113.173067 530.906074,112.858344 531.872331,112.267546 C532.904847,111.748528 533.572945,110.274294 534.047791,107.85589 C534.478466,105.575521 534.594417,103.366933 534.362515,101.213558 C534.047791,99.0767485 533.550859,97.2049693 532.661902,95.6147853 C531.839202,93.9804294 530.613436,92.666319 529.072945,91.6945399 C527.532454,90.7006748 525.726933,90.2258282 523.612209,90.2258282 Z M121.554601,61.1646626 L115.166258,61.1646626 L107.844785,96.5517791 L117.187117,96.5517791 C119.473006,96.5517791 121.742331,96.1266258 123.973006,95.2984049 C126.214724,94.4591411 128.268712,93.2609816 130.146012,91.6321472 C132.023313,90.0419632 133.657669,88.087362 135.054601,85.7959509 C136.457055,83.5100613 137.456442,80.9039264 138.058282,77.9996319 C139.129448,72.9033129 138.389571,68.8119018 135.844172,65.7640491 C133.276687,62.6996319 128.517178,61.1646626 121.554601,61.1646626 Z" fill="#003B65"></path>
                <g id="elephant" transform="translate(677.262086, 0.047914)">
                    <path d="M201.417791,120.047853 C198.723313,120.047853 195.946012,120.047853 194.041104,119.821472 L219.572393,-3.26849658e-13 L49.5165644,-3.26849658e-13 L44.2380368,24.8190184 C38.1699387,23.8527607 33.9018405,26.3429448 32.6374233,30.307362 C31.3730061,34.2717791 26.8067485,51.1730061 26.8067485,62.2822086 C26.8067485,79.7134969 31.207362,86.1349693 31.207362,86.1349693 L5.68434189e-14,232.95092 L170.050307,232.95092 L190.595706,136.363804 C213.857669,135.56319 220.389571,128.307975 220.389571,124.05092 C220.389571,118.187117 208.722699,120.047853 201.417791,120.047853 Z" id="Fill-280" fill="#C6CCD1"></path>
                    <path d="M125.109939,106.885767 L125.109939,106.885767 C125.109939,106.885767 155.411779,137.209693 197.755951,132.030552 C213.138773,130.136687 216.528957,126.089448 216.032025,124.212147 C215.568221,122.467362 210.328344,123.207239 205.198896,123.43362 C202.266994,123.560613 176.741227,126.895583 142.773129,101.104785 C129.565767,97.6373006 125.109939,106.885767 125.109939,106.885767 L125.109939,106.885767 Z M26.6455215,171.625031 L26.6455215,171.625031 L60.0117791,160.040982 L106.182331,192.755706 L88.2927607,203.953252 L114.701963,225.906626 L115.060859,218.16 L123.066994,198.542209 L122.437546,181.613374 L105.663313,154.370429 L108.893374,142.526871 L107.78908,129.236687 C64.3847853,129.319509 45.7608589,110.320123 35.4964417,94.7826994 L19.5559509,170.570429 L26.6455215,171.625031 Z M122.60319,70.0023313 L122.60319,70.0023313 L113.089693,60.8366871 L98.8608589,73.2931288 L122.60319,70.0023313 Z M163.832025,88.957546 L163.832025,88.957546 C166.70319,94.2360736 167.708098,101.540982 168.536319,112.694356 C158.592147,108.150184 141.939387,94.7495706 141.939387,94.7495706 C123.006258,90.9949693 116.468834,106.162454 116.468834,106.162454 L120.753497,109.950184 C119.124663,117.354479 113.857178,121.125644 113.857178,121.125644 C29.2682209,121.125644 31.1234356,68.3458896 31.1234356,62.2833129 C31.1234356,51.1741104 35.4964417,34.9299387 36.8768098,31.3851534 C38.2682209,27.851411 44.64,29.0053988 44.64,29.0053988 L86.04,35.0403681 L94.736319,30.2919018 C94.736319,30.2919018 107.479877,29.3477301 121.355337,33.2790184 C121.355337,33.2790184 142.745521,51.1244172 150.972515,64.155092 L150.337546,70.9133742 C150.337546,70.9133742 161.192761,84.0931288 163.832025,88.957546 L163.832025,88.957546 Z M155.450429,192.882706 L155.450429,192.882706 C158.730184,192.866135 160.977423,190.872883 160.977423,190.872883 C161.314233,186.025031 160.182331,183.507239 160.182331,183.507239 C156.284172,184.534233 153.05411,183.131779 152.656564,179.139755 C152.109939,173.76184 164.251656,150.218282 167.354724,142.366748 C168.586012,139.313374 168.674356,134.934847 168.674356,134.934847 C155.720982,133.134847 144.50135,126.188834 144.50135,126.188834 L145.760245,134.437914 C146.279264,139.462454 139.730798,166.219509 141.066994,179.410307 C141.066994,179.410307 142.209939,192.893742 155.450429,192.882706 L155.450429,192.882706 Z M59.4541104,189.266135 L59.3878528,165.799877 L84.6927607,183.551411 L77.3602454,219.783313 L80.7614724,226.756933 L50.2001227,226.756933 L46.7215951,219.816442 L59.4541104,189.266135 Z" id="Fill-282" fill="#003B65"></path>
                </g>
            </g>
        </g>
    </g>
</svg>