<svg xmlns="http://www.w3.org/2000/svg" width="130" height="32" viewBox="0 0 130 32" fill="none"><path d="M33.3692 0.151475C32.4739 1.63564 31.7172 2.95482 30.8994 4.22493C23.6372 15.4277 13.6541 23.517 1.99122 29.6983C1.69121 29.8623 1.36904 29.9821 1.03472 30.0539C0.667057 30.0539 0.0305794 28.4893 0.0305794 27.0592C0.0284459 18.4465 0.0256013 8.6177 0 0H31.8801C32.2947 0 32.7071 0.0832044 33.3692 0.151475Z" fill="#002082"></path><path d="M7.50261 29.5893C8.59351 28.9279 9.70362 28.3028 10.7874 27.6301C14.5183 25.2609 18.0378 22.5742 21.3067 19.5998C26.4135 14.9604 30.8303 9.61433 34.4231 3.72409C34.8096 3.0602 35.1487 2.36985 35.438 1.6582C35.7729 1.72932 36.8873 3.01365 36.8709 5.11296C36.8922 13.2592 36.8709 31.7263 36.8709 31.7263C27.419 31.7263 4.11683 31.5912 3.34595 31.7476C4.51223 31.0393 6.34344 30.2926 7.50261 29.5893Z" fill="#6CC049"></path><path d="M72.4226 5.45027C72.3673 5.40577 72.324 5.3482 72.2966 5.28275C72.2692 5.2173 72.2585 5.14605 72.2656 5.07544C72.2726 5.00483 72.2972 4.9371 72.337 4.87838C72.3769 4.81966 72.4307 4.77179 72.4937 4.73912C73.5225 4.16844 74.7307 4.01321 75.8702 4.30532C76.1237 4.42921 76.3473 4.60639 76.5259 4.82475C76.7045 5.04311 76.8338 5.29748 76.905 5.57046C77.0611 6.41956 77.1111 7.2848 77.0536 8.14624C76.9974 11.7311 76.9078 15.3189 76.8402 18.9038C76.8402 19.2899 76.8402 19.6761 76.8708 20.0622C76.9789 21.6353 76.9249 23.3157 79.128 23.5903C77.7612 25.1206 75.7038 25.0424 73.9437 23.448C73.6401 23.6258 73.3122 23.82 72.9823 24.0098C72.3081 24.4187 71.5475 24.664 70.7614 24.726C69.9754 24.7881 69.1857 24.6651 68.4558 24.3671C67.7258 24.0691 67.0757 23.6043 66.5576 23.0099C66.0396 22.4154 65.668 21.7079 65.4725 20.9441C64.8207 18.7262 65.0749 16.3404 66.1794 14.3098C67.6806 11.4901 70.1149 10.3814 73.249 11.0307C73.4374 11.0712 73.6259 11.0925 74.0668 11.1608C73.9046 9.18167 74.0412 6.68909 72.4226 5.45027ZM74.0717 17.6863C74.0717 16.3145 74.0461 12.5824 74.0461 12.5824H73.2753C72.1957 12.561 70.7514 12.497 70.1647 13.7103C69.5565 14.8828 69.2348 16.1827 69.2262 17.5036C69.2175 18.8244 69.5221 20.1285 70.1149 21.3089C70.3503 21.8331 70.7451 22.2698 71.2431 22.5565C71.741 22.8433 72.3168 22.9657 72.8884 22.9061C73.2632 22.8848 74.0668 22.7639 74.0668 22.7639C74.0668 22.7639 74.0831 22.1552 74.0668 21.6929C74.0149 20.3659 74.0668 19.0318 74.0618 17.6955L74.0717 17.6863Z" fill="#002082"></path><path d="M55.4703 7.56305C54.2919 5.79798 52.6193 5.88048 50.9652 5.83354C50.3642 5.81434 50.1054 6.03053 50.0954 6.63216C50.0698 8.20309 50.0364 10.6601 49.9752 12.2197H50.8898C52.0418 12.1983 53.1946 12.2054 54.3702 12.2197C54.6176 12.2197 54.917 11.9352 55.0934 11.549C55.3999 13.3881 54.8744 14.1092 53.4442 14.2123C52.3249 14.2955 51.1942 14.2286 50.1018 14.2286V24.7416C49.002 24.7833 47.9007 24.7651 46.8028 24.6868C46.5674 24.6605 46.2517 23.9451 46.2517 23.549C46.2261 18.4785 46.2396 13.4101 46.2396 8.34176C46.2396 6.61936 45.9452 5.03848 45.5562 4.78602C45.4967 4.74358 45.4516 4.68405 45.4267 4.61534C45.4086 4.56897 45.4018 4.51889 45.4072 4.46937C45.4125 4.41984 45.4297 4.37233 45.4573 4.33088C45.485 4.28944 45.5225 4.25539 45.5663 4.23172C45.6102 4.20804 45.6592 4.19546 45.7091 4.19505C48.5252 4.15025 52.1656 4.15736 54.9106 4.19505C55.0563 4.21179 55.196 4.26229 55.3187 4.34254C55.4415 4.42279 55.5438 4.53057 55.6175 4.6573C55.9958 5.51139 55.892 6.33561 55.4703 7.56305Z" fill="#002082"></path><path d="M117.062 12.0604C117.022 12.024 116.99 11.9788 116.97 11.9283C116.95 11.8777 116.941 11.8232 116.945 11.769C116.949 11.7147 116.966 11.6621 116.994 11.6152C117.021 11.5683 117.059 11.5284 117.105 11.4985C117.517 11.1958 117.988 10.9844 118.488 10.8786C118.988 10.7727 119.505 10.7748 120.004 10.8848C121.035 11.1216 121.326 12.0006 121.599 12.8867C122.239 14.949 122.883 17.0114 123.552 19.0637C123.717 19.5658 123.988 20.033 124.351 20.8196C125.23 18.2132 126.033 15.9169 126.759 13.605C127.211 12.1549 126.217 12.1827 126.318 11.9274C126.587 11.2162 128.144 10.3849 128.851 10.9794C128.994 11.1614 129.098 11.3711 129.157 11.5954C129.215 11.8196 129.226 12.0535 129.189 12.2822C129.072 12.9358 128.875 13.5725 128.602 14.1774C126.873 18.6506 125.135 23.1154 123.386 27.5719C123.068 28.4176 122.682 29.2362 122.232 30.0197C121.924 30.6401 121.442 31.1574 120.845 31.5084C120.248 31.8594 119.561 32.0288 118.869 31.996C117.399 31.9249 116.654 30.8112 117.05 29.3235C119.51 30.5083 120.432 30.1811 121.636 27.6651C121.855 27.2057 122.036 26.7171 122.281 26.2791C122.753 25.4257 122.988 24.6797 121.904 24.0468C121.596 23.8668 121.433 23.3356 121.32 22.9331C120.816 21.3216 120.358 19.6938 119.866 18.0781C119.221 15.9653 118.86 13.7187 117.062 12.0604Z" fill="#002082"></path><path d="M82.3239 17.2166C82.5032 19.3039 82.7506 21.1991 84.7013 22.0859C86.989 23.1234 88.8487 22.0859 90.5284 20.3372C90.6647 20.92 90.6119 21.5311 90.3777 22.0819C90.1435 22.6327 89.7399 23.0947 89.2256 23.4008C88.2544 24.1491 87.094 24.612 85.8744 24.7377C84.6548 24.8633 83.4244 24.6466 82.3211 24.1119C80.0518 23.0601 79.3286 21.0078 79.2575 18.6624C79.1942 16.2246 79.729 13.9589 81.5573 12.2009C82.3766 11.4593 83.3965 10.976 84.4892 10.8115C85.582 10.6471 86.699 10.8088 87.7002 11.2764C89.3756 12.0629 90.4125 14.121 90.3314 16.3256C90.3009 17.1313 89.8009 17.2451 89.2519 17.2501C87.4513 17.2693 85.6493 17.2266 83.8472 17.2095C83.3985 17.2138 82.9462 17.2166 82.3239 17.2166ZM82.2158 15.7943H86.9286C87.0069 15.0111 86.8962 14.2204 86.6057 13.4888C86.5277 13.3093 86.4325 13.1378 86.3213 12.9768C86.1707 12.709 85.9508 12.4867 85.6848 12.3331C85.4187 12.1794 85.1163 12.1002 84.8091 12.1036C84.5019 12.107 84.2013 12.193 83.9387 12.3525C83.6762 12.512 83.4613 12.7391 83.3167 13.0102C82.751 13.8471 82.3751 14.7976 82.2151 15.795L82.2158 15.7943Z" fill="#002082"></path><path d="M96.3521 24.728H92.8625C92.8625 24.728 92.9002 18.4322 92.9237 15.8387C92.9407 13.7526 92.9595 11.6683 92.9799 9.58554C92.9984 7.96484 93.0929 6.32493 91.4865 5.08326C92.7402 4.2562 93.9207 3.89849 95.1603 4.31807C95.6649 4.58225 96.0457 5.034 96.2206 5.57609C96.3724 6.18449 96.4233 6.81369 96.3713 7.43859C96.3777 13.0154 96.4033 24.4059 96.3521 24.728Z" fill="#002082"></path><path d="M114.56 21.7611C114.644 22.2072 114.579 22.669 114.373 23.0738C114.167 23.4786 113.832 23.8035 113.422 23.9976C112.704 24.4467 111.887 24.7138 111.042 24.7757C110.198 24.8377 109.351 24.6927 108.575 24.3532C108.112 24.1652 107.717 23.8406 107.444 23.4228C107.17 23.0049 107.03 22.5136 107.043 22.0142C107 20.0166 107.068 18.0169 107.09 16.0171C107.09 15.195 107.106 14.3587 107.09 13.553C107.11 13.1493 106.997 12.7501 106.769 12.4163C106.541 12.0825 106.21 11.8324 105.827 11.704C105.784 11.6899 105.748 11.6629 105.721 11.6268C105.695 11.5907 105.681 11.5473 105.681 11.5028V11.0291C105.681 10.9725 105.703 10.9183 105.743 10.8783C105.783 10.8383 105.838 10.8158 105.894 10.8158C106.201 10.8406 106.509 10.8029 106.8 10.7048C107.092 10.6068 107.36 10.4505 107.589 10.2454C107.818 10.0404 108.003 9.79096 108.132 9.51222C108.262 9.23347 108.334 8.93128 108.343 8.62402H110.084C110.084 8.62402 110.136 9.311 110.117 9.64737C110.072 10.5143 110.352 10.8677 111.248 10.8016C112.143 10.7354 113.034 10.7873 114.054 10.7873C114.289 11.4508 113.941 11.9721 113.191 12.2466C112.82 12.3667 112.432 12.4291 112.041 12.4315C110.128 12.4955 110.131 12.4863 110.135 14.3794C110.135 16.1473 110.102 17.9145 110.153 19.6795C110.229 22.3449 111.291 23.0298 113.804 22.0974C114.062 21.9999 114.314 21.8876 114.56 21.7611V21.7611Z" fill="#002082"></path><path d="M98.7906 12.3047C98.7255 12.2453 98.6763 12.1706 98.6475 12.0874C98.6187 12.0041 98.6112 11.915 98.6257 11.8281C98.6402 11.7412 98.6762 11.6593 98.7305 11.5899C98.7848 11.5205 98.8555 11.4657 98.9364 11.4307C99.725 11.132 100.547 10.9314 101.385 10.8334C102.438 10.6911 103.034 11.4094 103.211 12.4918C103.24 12.6824 103.253 12.875 103.251 13.0678V24.6375H99.9085C99.9085 24.6375 99.8687 20.1352 99.9085 17.7663C99.9483 15.3975 99.8111 13.269 98.7906 12.3047Z" fill="#002082"></path><path d="M58.0268 12.1602C57.9817 12.1282 57.9461 12.0845 57.9236 12.0339C57.9012 11.9833 57.8927 11.9277 57.8992 11.8727C57.9057 11.8177 57.9268 11.7655 57.9604 11.7215C57.994 11.6775 58.0388 11.6434 58.0901 11.6226C58.7392 11.3371 59.4068 11.0957 60.0884 10.9001C61.766 10.5068 62.7197 11.1774 62.751 12.9048C62.8171 16.7813 62.7723 20.6599 62.7723 24.7305C61.8108 24.7305 59.3723 24.6857 59.3723 24.6857C59.3723 22.0175 59.4434 18.4233 59.4903 15.753C59.5601 15.08 59.4631 14.4002 59.2078 13.7736C58.9526 13.147 58.547 12.5929 58.0268 12.1602V12.1602Z" fill="#002082"></path><path d="M101.448 6.16108C101.898 6.22476 102.309 6.45451 102.598 6.80519C102.888 7.15587 103.035 7.60212 103.013 8.05629C102.974 8.50861 102.76 8.9277 102.415 9.22298C102.07 9.51826 101.623 9.66602 101.17 9.63432C100.943 9.62681 100.719 9.57342 100.513 9.47737C100.307 9.38131 100.122 9.24457 99.9704 9.07536C99.8178 8.90566 99.7007 8.70708 99.6262 8.49137C99.5517 8.27565 99.5212 8.04718 99.5366 7.81947C99.5726 7.34703 99.7936 6.90789 100.151 6.5974C100.509 6.2869 100.975 6.13011 101.448 6.16108V6.16108Z" fill="#002082"></path><path d="M62.5277 7.93083C62.5276 8.15685 62.4824 8.38057 62.3947 8.5889C62.307 8.79722 62.1786 8.98596 62.0171 9.14405C61.8561 9.30164 61.665 9.42522 61.4552 9.50744C61.2455 9.58966 61.0213 9.62884 60.7961 9.62265C60.5713 9.6262 60.348 9.58531 60.1391 9.50232C59.9302 9.41933 59.7397 9.29589 59.5786 9.13907C59.2524 8.82066 59.0657 8.38592 59.0594 7.93012C59.0599 7.69468 59.107 7.46168 59.1982 7.24462C59.2894 7.02756 59.4228 6.83078 59.5907 6.66569C59.7579 6.50136 59.9563 6.37211 60.1741 6.28552C60.392 6.19893 60.625 6.15676 60.8594 6.16149C61.3147 6.17636 61.7457 6.37075 62.0583 6.70223C62.3709 7.03371 62.5396 7.47538 62.5277 7.93083V7.93083Z" fill="#002082"></path></svg>