<?xml version="1.0" encoding="UTF-8"?>
<!DOCTYPE svg PUBLIC "-//W3C//DTD SVG 1.1//EN" "http://www.w3.org/Graphics/SVG/1.1/DTD/svg11.dtd">
<svg xmlns="http://www.w3.org/2000/svg" version="1.1" width="370px" height="370px" style="shape-rendering:geometricPrecision; text-rendering:geometricPrecision; image-rendering:optimizeQuality; fill-rule:evenodd; clip-rule:evenodd" xmlns:xlink="http://www.w3.org/1999/xlink">
<g><path style="opacity:0.916" fill="#f9f9f9" d="M 210.5,18.5 C 231.939,17.8837 246.939,27.3837 255.5,47C 284.215,51.0497 300.048,67.5497 303,96.5C 326.344,108.559 335.344,127.559 330,153.5C 323.768,170.885 311.601,181.719 293.5,186C 287.551,187.073 281.551,187.74 275.5,188C 296.699,212.414 307.365,240.914 307.5,273.5C 324.416,270.08 333.916,259.747 336,242.5C 336.333,230.5 336.667,218.5 337,206.5C 339.675,203.163 342.675,202.829 346,205.5C 346.667,220.833 346.667,236.167 346,251.5C 340.079,270.448 327.412,281.781 308,285.5C 310.927,320.408 295.094,335.742 260.5,331.5C 260.666,337.509 260.499,343.509 260,349.5C 258.734,353.1 256.234,355.267 252.5,356C 207.167,356.667 161.833,356.667 116.5,356C 112.766,355.267 110.266,353.1 109,349.5C 108.501,343.509 108.334,337.509 108.5,331.5C 73.9063,335.742 58.073,320.408 61,285.5C 41.5881,281.781 28.9215,270.448 23,251.5C 22.3333,236.167 22.3333,220.833 23,205.5C 26.325,202.829 29.325,203.163 32,206.5C 32.3333,218.5 32.6667,230.5 33,242.5C 35.0836,259.747 44.5836,270.08 61.5,273.5C 61.4421,240.838 72.1087,212.338 93.5,188C 84.5,187.667 75.5,187.333 66.5,187C 47.8021,182.475 38.1355,170.641 37.5,151.5C 37.6255,134.563 45.2922,122.563 60.5,115.5C 60.8333,114.833 61.1667,114.167 61.5,113.5C 55.4472,100.766 54.9472,87.7662 60,74.5C 71.6711,57.9229 87.5044,51.7562 107.5,56C 116.441,40.5348 129.774,32.2014 147.5,31C 151.035,33.8384 151.368,37.0051 148.5,40.5C 138.025,42.1529 129.192,46.8196 122,54.5C 119.165,59.0187 116.331,63.5187 113.5,68C 106.208,67.0122 98.8745,66.3455 91.5,66C 71.3516,70.7844 63.8516,83.2844 69,103.5C 74.0542,112.888 81.3875,119.888 91,124.5C 92.1345,129.2 90.3012,131.866 85.5,132.5C 80.2784,131.129 75.6117,128.629 71.5,125C 68.7433,124.416 66.0766,124.75 63.5,126C 48.9054,135.534 45.0721,148.367 52,164.5C 60.9439,175.779 72.6105,179.779 87,176.5C 93.5,176.333 100,176.167 106.5,176C 120.487,164.173 136.487,156.34 154.5,152.5C 154.664,149.813 154.497,147.146 154,144.5C 149.674,141.502 145.341,138.502 141,135.5C 126.585,144.376 114.918,141.71 106,127.5C 102.629,108.55 110.463,99.05 129.5,99C 143.129,102.618 148.462,111.284 145.5,125C 151.763,129.046 157.929,133.213 164,137.5C 165.354,141.363 165.854,145.363 165.5,149.5C 169.81,148.92 174.143,148.586 178.5,148.5C 178.666,139.494 178.5,130.494 178,121.5C 162.326,113.129 159.326,101.462 169,86.5C 179.035,78.7057 189.202,78.5391 199.5,86C 206.374,94.575 207.207,103.742 202,113.5C 199.042,117.145 195.375,119.812 191,121.5C 190.5,130.494 190.334,139.494 190.5,148.5C 194.857,148.586 199.19,148.92 203.5,149.5C 203.146,145.363 203.646,141.363 205,137.5C 211.08,133.21 217.247,129.043 223.5,125C 220.538,111.284 225.871,102.618 239.5,99C 258.537,99.05 266.371,108.55 263,127.5C 254.245,141.681 242.745,144.348 228.5,135.5C 223.864,138.304 219.364,141.304 215,144.5C 214.503,147.146 214.336,149.813 214.5,152.5C 232.513,156.34 248.513,164.173 262.5,176C 282.672,180.272 299.839,175.105 314,160.5C 326.833,134.325 319.667,115.825 292.5,105C 287.857,104.17 283.19,103.503 278.5,103C 274.5,99.6667 274.5,96.3333 278.5,93C 282.486,92.5012 286.486,92.3345 290.5,92.5C 287.661,73.4945 276.827,62.1612 258,58.5C 257.432,65.3393 256.099,72.006 254,78.5C 248.92,81.9079 245.42,80.7412 243.5,75C 249.603,55.9691 243.936,41.6357 226.5,32C 207.162,26.7519 193.329,33.2519 185,51.5C 184.427,55.8477 183.76,60.181 183,64.5C 177.761,68.9735 174.261,67.8068 172.5,61C 174.942,37.4041 187.609,23.2375 210.5,18.5 Z M 181.5,91.5 C 189.035,90.7595 193.368,94.0928 194.5,101.5C 191.619,111.27 185.952,113.437 177.5,108C 172.795,101.075 174.128,95.5755 181.5,91.5 Z M 123.5,109.5 C 133.644,110.477 137.144,115.81 134,125.5C 130.95,129.13 127.117,130.297 122.5,129C 117.268,126.367 115.435,122.201 117,116.5C 118.356,113.314 120.522,110.981 123.5,109.5 Z M 240.5,109.5 C 249.283,110.056 253.117,114.722 252,123.5C 248.608,129.467 243.774,130.967 237.5,128C 231.521,120.709 232.521,114.542 240.5,109.5 Z M 170.5,159.5 C 173.167,159.5 175.833,159.5 178.5,159.5C 178.667,173.171 178.5,186.837 178,200.5C 174,196.5 170,192.5 166,188.5C 165.5,179.173 165.334,169.839 165.5,160.5C 167.415,160.784 169.081,160.451 170.5,159.5 Z M 190.5,159.5 C 194.857,159.586 199.19,159.92 203.5,160.5C 203.666,169.839 203.5,179.173 203,188.5C 199,192.5 195,196.5 191,200.5C 190.5,186.837 190.333,173.171 190.5,159.5 Z M 153.5,163.5 C 154.201,173.525 154.867,183.692 155.5,194C 162.005,201.172 168.839,208.005 176,214.5C 177.936,216.808 178.769,219.475 178.5,222.5C 171.462,222.239 164.462,222.572 157.5,223.5C 153.619,225.418 151.619,228.585 151.5,233C 156.376,255.771 170.376,265.771 193.5,263C 207.438,257.731 215.438,247.731 217.5,233C 217.381,228.585 215.381,225.418 211.5,223.5C 204.538,222.572 197.538,222.239 190.5,222.5C 190.231,219.475 191.064,216.808 193,214.5C 200.161,208.005 206.995,201.172 213.5,194C 214.298,183.867 214.798,173.701 215,163.5C 261.937,178.968 288.937,211.302 296,260.5C 296.667,275.5 296.667,290.5 296,305.5C 293.772,313.061 288.939,317.895 281.5,320C 216.833,320.667 152.167,320.667 87.5,320C 80.0613,317.895 75.228,313.061 73,305.5C 68.4897,274.236 73.1564,244.569 87,216.5C 102.246,190.08 124.413,172.414 153.5,163.5 Z M 163.5,233.5 C 168.5,233.5 173.5,233.5 178.5,233.5C 178.829,239.537 178.496,245.537 177.5,251.5C 169.434,248.105 164.767,242.105 163.5,233.5 Z M 190.5,233.5 C 195.5,233.5 200.5,233.5 205.5,233.5C 204.233,242.105 199.566,248.105 191.5,251.5C 190.504,245.537 190.171,239.537 190.5,233.5 Z M 119.5,331.5 C 162.833,331.5 206.167,331.5 249.5,331.5C 249.5,336.167 249.5,340.833 249.5,345.5C 206.167,345.5 162.833,345.5 119.5,345.5C 119.5,340.833 119.5,336.167 119.5,331.5 Z"/></g>
<g><path style="opacity:0.931" fill="#fafafa" d="M 126.5,214.5 C 140.41,215.366 144.91,222.366 140,235.5C 134.694,240.652 128.528,241.819 121.5,239C 119.622,237.457 118.122,235.624 117,233.5C 114.016,223.742 117.183,217.409 126.5,214.5 Z"/></g>
<g><path style="opacity:0.931" fill="#fafafa" d="M 236.5,214.5 C 249.699,214.218 254.866,220.552 252,233.5C 248.235,239.76 242.735,241.927 235.5,240C 229.881,238.038 226.881,234.038 226.5,228C 226.695,220.995 230.028,216.495 236.5,214.5 Z"/></g>
</svg>
