<?xml version="1.0" encoding="UTF-8"?>
<!DOCTYPE svg PUBLIC "-//W3C//DTD SVG 1.1//EN" "http://www.w3.org/Graphics/SVG/1.1/DTD/svg11.dtd">
<!-- Creator: CorelDRAW 2021 (64-Bit) -->
<svg xmlns="http://www.w3.org/2000/svg" xml:space="preserve" width="0.765335in" height="0.596067in" version="1.1" style="shape-rendering:geometricPrecision; text-rendering:geometricPrecision; image-rendering:optimizeQuality; fill-rule:evenodd; clip-rule:evenodd"
viewBox="0 0 2168.07 1688.56"
 xmlns:xlink="http://www.w3.org/1999/xlink"
 xmlns:xodm="http://www.corel.com/coreldraw/odm/2003">
 <defs>
  <style type="text/css">
   <![CDATA[
    .str0 {stroke:#00008F;stroke-width:169.97;stroke-linecap:round;stroke-miterlimit:10}
    .fil0 {fill:none;fill-rule:nonzero}
    .fil2 {fill:#00008F;fill-rule:nonzero}
    .fil1 {fill:#FFA600;fill-rule:nonzero}
    .fil3 {fill:#FFFF99;fill-rule:nonzero}
   ]]>
  </style>
 </defs>
 <g id="Layer_x0020_1">
  <metadata id="CorelCorpID_0Corel-Layer"/>
  <g id="_1835832525632">
   <path class="fil0 str0" d="M1427.76 376l0 -183.58c0,0 20.57,-107.44 -110.5,-107.44l-348.2 0 229.95 0 -348.2 0c-131.08,0 -110.51,107.44 -110.51,107.44l0 183.58"/>
   <path class="fil1" d="M2102.71 1688.56l-2037.37 0c-36.09,0 -65.34,-29.25 -65.34,-65.36l0 -1209.21c0,-36.09 29.25,-65.37 65.34,-65.37l2037.37 0c36.09,0 65.36,29.28 65.36,65.37l0 1209.21c0,36.1 -29.27,65.36 -65.36,65.36z"/>
   <path class="fil2" d="M568.7 880.23l-12.92 0c-37.84,0 -68.52,-30.68 -68.52,-68.52l0 -463.07 149.97 0 0 463.07c0,37.84 -30.68,68.52 -68.53,68.52z"/>
   <polygon class="fil3" points="682.71,771.68 441.8,771.68 441.8,602.3 682.71,602.3 "/>
   <path class="fil2" d="M1612.26 880.23l-12.92 0c-37.84,0 -68.52,-30.68 -68.52,-68.52l0 -463.07 149.96 0 0 463.07c0,37.84 -30.68,68.52 -68.52,68.52z"/>
   <polygon class="fil3" points="1726.27,771.68 1485.36,771.68 1485.36,602.3 1726.27,602.3 "/>
  </g>
 </g>
</svg>
