<?xml version="1.0" encoding="UTF-8"?>
<!DOCTYPE svg PUBLIC "-//W3C//DTD SVG 1.1//EN" "http://www.w3.org/Graphics/SVG/1.1/DTD/svg11.dtd">
<svg xmlns="http://www.w3.org/2000/svg" version="1.1" width="354px" height="354px" style="shape-rendering:geometricPrecision; text-rendering:geometricPrecision; image-rendering:optimizeQuality; fill-rule:evenodd; clip-rule:evenodd" xmlns:xlink="http://www.w3.org/1999/xlink">
<g><path style="opacity:0.93" fill="#fafafa" d="M 160.5,10.5 C 180.503,10.3334 200.503,10.5 220.5,11C 266.289,22.5987 290.623,51.9321 293.5,99C 293.323,118.219 287.823,135.719 277,151.5C 276.333,154.167 276.333,156.833 277,159.5C 285.987,167.07 289.32,176.737 287,188.5C 284.64,199.862 277.806,207.029 266.5,210C 206.5,210.667 146.5,210.667 86.5,210C 69.8597,204.476 63.0264,192.976 66,175.5C 69.9511,161.721 79.1177,154.388 93.5,153.5C 94.2359,149.292 95.5692,145.292 97.5,141.5C 84.7677,114.456 84.2677,87.1222 96,59.5C 110.172,33.492 131.672,17.1586 160.5,10.5 Z M 166.5,22.5 C 171.5,22.5 176.5,22.5 181.5,22.5C 181.666,26.8461 181.499,31.1794 181,35.5C 174.833,41.6667 168.667,47.8333 162.5,54C 161.365,54.7494 160.365,54.5827 159.5,53.5C 154.628,43.929 146.962,40.7623 136.5,44C 126.942,49.0533 123.775,56.8866 127,67.5C 132.736,76.9838 140.903,79.8172 151.5,76C 155.026,73.9739 157.693,71.1405 159.5,67.5C 163.235,66.8473 166.901,66.0139 170.5,65C 177.667,57.8333 184.833,50.6667 192,43.5C 193.416,37.2855 193.916,30.9522 193.5,24.5C 201.465,26.3184 208.798,29.4851 215.5,34C 210,39.5 204.5,45 199,50.5C 198.5,59.4938 198.334,68.4938 198.5,77.5C 202.5,77.5 206.5,77.5 210.5,77.5C 210.334,70.825 210.5,64.1583 211,57.5C 216.333,52.1667 221.667,46.8333 227,41.5C 232.941,47.4351 238.108,53.9351 242.5,61C 237.712,66.7898 232.546,72.2898 227,77.5C 225.596,83.0438 225.096,88.7104 225.5,94.5C 229.5,94.5 233.5,94.5 237.5,94.5C 237.335,91.4816 237.502,88.4816 238,85.5C 241.667,81.8333 245.333,78.1667 249,74.5C 252.398,87.2735 253.398,100.274 252,113.5C 250.724,117.782 249.224,121.949 247.5,126C 242.511,126.499 237.511,126.666 232.5,126.5C 227.131,98.6303 210.297,83.6303 182,81.5C 153.712,83.6207 136.878,98.6207 131.5,126.5C 123.005,125.326 115.172,126.992 108,131.5C 104.766,125.941 102.433,119.941 101,113.5C 99.6016,100.274 100.602,87.2735 104,74.5C 107.667,78.1667 111.333,81.8333 115,85.5C 115.5,93.8267 115.666,102.16 115.5,110.5C 119.5,110.5 123.5,110.5 127.5,110.5C 127.666,100.161 127.5,89.828 127,79.5C 121.684,73.3501 116.184,67.3501 110.5,61.5C 119.588,45.1161 132.922,33.6161 150.5,27C 155.918,25.3872 161.251,23.8872 166.5,22.5 Z M 232.5,28.5 C 246.066,33.3937 257.066,41.7271 265.5,53.5C 261.5,54.8333 257.5,54.8333 253.5,53.5C 247.523,44.1995 240.523,35.8662 232.5,28.5 Z M 141.5,55.5 C 147.191,55.5544 148.858,58.2211 146.5,63.5C 138.249,64.9174 136.582,62.2507 141.5,55.5 Z M 259.5,67.5 C 264.234,66.1764 269.067,66.1764 274,67.5C 277.504,75.8427 279.671,84.5094 280.5,93.5C 275.5,93.5 270.5,93.5 265.5,93.5C 265.603,84.2234 263.603,75.5568 259.5,67.5 Z M 175.5,94.5 C 201.977,93.7108 216.644,106.377 219.5,132.5C 217.431,155.069 205.097,167.569 182.5,170C 181.536,174.066 181.203,178.233 181.5,182.5C 200.664,182.501 215.497,174.501 226,158.5C 228.153,152.855 230.32,147.188 232.5,141.5C 246.318,135.797 256.651,139.63 263.5,153C 243.608,153.076 232.942,162.909 231.5,182.5C 235.514,182.666 239.514,182.499 243.5,182C 246.011,168.91 253.678,164.243 266.5,168C 274.922,174.157 276.755,181.99 272,191.5C 268.748,195.366 264.581,197.533 259.5,198C 204.167,198.667 148.833,198.667 93.5,198C 79.3325,194.498 75.1658,185.998 81,172.5C 89.3333,164.5 97.6667,164.5 106,172.5C 108.006,175.536 108.84,178.869 108.5,182.5C 112.833,182.5 117.167,182.5 121.5,182.5C 121.539,170.234 116.205,161.234 105.5,155.5C 112.44,139.192 123.773,135.025 139.5,143C 145.014,147.529 147.681,153.362 147.5,160.5C 151.833,160.5 156.167,160.5 160.5,160.5C 160.501,148.166 155.501,138.499 145.5,131.5C 145.296,117.42 151.296,106.587 163.5,99C 167.61,97.4852 171.61,95.9852 175.5,94.5 Z M 265.5,105.5 C 270.5,105.5 275.5,105.5 280.5,105.5C 279.133,117.318 275.466,128.318 269.5,138.5C 266.89,135.206 263.89,132.372 260.5,130C 263.588,122.137 265.255,113.97 265.5,105.5 Z"/></g>
<g><path style="opacity:0.914" fill="#fefefe" d="M 10.5,32.5 C 32.8333,32.5 55.1667,32.5 77.5,32.5C 77.5,36.5 77.5,40.5 77.5,44.5C 55.1667,44.5 32.8333,44.5 10.5,44.5C 10.5,40.5 10.5,36.5 10.5,32.5 Z"/></g>
<g><path style="opacity:0.86" fill="#fefefe" d="M 87.5,32.5 C 91.5,32.5 95.5,32.5 99.5,32.5C 99.5,36.5 99.5,40.5 99.5,44.5C 95.5,44.5 91.5,44.5 87.5,44.5C 87.5,40.5 87.5,36.5 87.5,32.5 Z"/></g>
<g><path style="opacity:0.954" fill="#fefefe" d="M 297.5,59.5 C 305.167,59.5 312.833,59.5 320.5,59.5C 320.5,63.5 320.5,67.5 320.5,71.5C 312.833,71.5 305.167,71.5 297.5,71.5C 297.5,67.5 297.5,63.5 297.5,59.5 Z"/></g>
<g><path style="opacity:0.986" fill="#fdfdfd" d="M 330.5,59.5 C 334.5,59.5 338.5,59.5 342.5,59.5C 342.5,63.5 342.5,67.5 342.5,71.5C 338.5,71.5 334.5,71.5 330.5,71.5C 330.5,67.5 330.5,63.5 330.5,59.5 Z"/></g>
<g><path style="opacity:0.9" fill="#fefefe" d="M 26.5,76.5 C 37.8333,76.5 49.1667,76.5 60.5,76.5C 60.5,80.5 60.5,84.5 60.5,88.5C 49.1667,88.5 37.8333,88.5 26.5,88.5C 26.5,84.5 26.5,80.5 26.5,76.5 Z"/></g>
<g><path style="opacity:0.915" fill="#fefefe" d="M 303.5,109.5 C 316.5,109.5 329.5,109.5 342.5,109.5C 342.5,113.5 342.5,117.5 342.5,121.5C 329.5,121.5 316.5,121.5 303.5,121.5C 303.5,117.5 303.5,113.5 303.5,109.5 Z"/></g>
<g><path style="opacity:0.92" fill="#fbfbfb" d="M 43.5,115.5 C 49.8421,115.334 56.1754,115.5 62.5,116C 68.9072,119.486 71.9072,124.82 71.5,132C 72.3106,140.529 68.644,146.196 60.5,149C 43.8367,149.5 27.17,149.667 10.5,149.5C 10.5,145.5 10.5,141.5 10.5,137.5C 25.1705,137.667 39.8371,137.5 54.5,137C 60.2179,135.128 60.8845,132.128 56.5,128C 52.1794,127.501 47.8461,127.334 43.5,127.5C 43.5,123.5 43.5,119.5 43.5,115.5 Z"/></g>
<g><path style="opacity:0.957" fill="#fefefe" d="M 292.5,153.5 C 300.167,153.5 307.833,153.5 315.5,153.5C 315.5,157.5 315.5,161.5 315.5,165.5C 307.833,165.5 300.167,165.5 292.5,165.5C 292.5,161.5 292.5,157.5 292.5,153.5 Z"/></g>
<g><path style="opacity:0.917" fill="#fefefe" d="M 325.5,153.5 C 329.5,153.5 333.5,153.5 337.5,153.5C 337.5,157.5 337.5,161.5 337.5,165.5C 333.5,165.5 329.5,165.5 325.5,165.5C 325.5,161.5 325.5,157.5 325.5,153.5 Z"/></g>
<g><path style="opacity:0.892" fill="#fefefe" d="M 10.5,170.5 C 18.1667,170.5 25.8333,170.5 33.5,170.5C 33.5,174.5 33.5,178.5 33.5,182.5C 25.8333,182.5 18.1667,182.5 10.5,182.5C 10.5,178.5 10.5,174.5 10.5,170.5 Z"/></g>
<g><path style="opacity:0.85" fill="#fefefe" d="M 43.5,170.5 C 47.5,170.5 51.5,170.5 55.5,170.5C 55.5,174.5 55.5,178.5 55.5,182.5C 51.5,182.5 47.5,182.5 43.5,182.5C 43.5,178.5 43.5,174.5 43.5,170.5 Z"/></g>
<g><path style="opacity:0.934" fill="#fcfcfc" d="M 314.5,176.5 C 320.842,176.334 327.175,176.5 333.5,177C 342.178,182.501 345.012,190.334 342,200.5C 339.448,204.719 335.948,207.886 331.5,210C 318.504,210.5 305.504,210.667 292.5,210.5C 292.5,206.5 292.5,202.5 292.5,198.5C 303.505,198.667 314.505,198.5 325.5,198C 330.989,195.895 331.655,192.895 327.5,189C 323.179,188.501 318.846,188.334 314.5,188.5C 314.5,184.5 314.5,180.5 314.5,176.5 Z"/></g>
<g><path style="opacity:0.935" fill="#fafafa" d="M 112.5,220.5 C 138.835,220.333 165.169,220.5 191.5,221C 196.991,238.684 191.324,251.35 174.5,259C 169.167,259.333 163.833,259.667 158.5,260C 168.365,266.697 178.365,273.197 188.5,279.5C 221.244,264.089 253.911,248.589 286.5,233C 300.448,230.07 311.615,234.236 320,245.5C 321.746,249.327 323.746,252.993 326,256.5C 326.711,258.899 326.544,261.232 325.5,263.5C 277.66,289.921 229.66,316.087 181.5,342C 176.833,342.667 172.167,342.667 167.5,342C 139.241,336.518 110.908,331.518 82.5,327C 58.5023,326.5 34.5023,326.333 10.5,326.5C 10.5,322.5 10.5,318.5 10.5,314.5C 37.1687,314.333 63.8354,314.5 90.5,315C 118.57,319.852 146.57,325.018 174.5,330.5C 219.532,306.319 264.532,282.152 309.5,258C 310.022,257.439 310.355,256.772 310.5,256C 306.956,247.488 300.623,243.821 291.5,245C 259.322,260.512 226.989,275.845 194.5,291C 188.492,292.196 182.825,291.363 177.5,288.5C 163.637,278.804 149.637,269.304 135.5,260C 132.518,259.502 129.518,259.335 126.5,259.5C 126.5,255.5 126.5,251.5 126.5,247.5C 140.837,247.667 155.171,247.5 169.5,247C 176.805,244.869 180.471,240.036 180.5,232.5C 159.497,232.333 138.497,232.5 117.5,233C 107.352,241.905 97.0184,250.571 86.5,259C 61.1689,259.5 35.8355,259.667 10.5,259.5C 10.5,255.5 10.5,251.5 10.5,247.5C 33.8357,247.667 57.169,247.5 80.5,247C 91.3564,238.302 102.023,229.469 112.5,220.5 Z"/></g>
</svg>
