<svg xmlns="http://www.w3.org/2000/svg" version="1.0" viewBox="0 0 708.66 708.66" id="Tribune">
  <path fill="none" stroke="#ffffff" stroke-linecap="round" stroke-linejoin="round" stroke-miterlimit="10" stroke-width="12" d="m354.319 400.748-43.7-43.738h0a39.24 39.24 0 0 1-12.592 8.412h-.018l6.53 32.787 30.59 30.613 19.19-28.074zm0 0 43.718-43.738h0a38.93 38.93 0 0 0 12.598 8.412h.012l-6.53 32.787-30.603 30.613-19.195-28.074z" class="colorStroke373431 svgStroke"></path>
  <path fill="none" stroke="#ffffff" stroke-linecap="round" stroke-linejoin="round" stroke-miterlimit="10" stroke-width="12" d="m354.331 400.748 43.706-43.738c-7.031-7.031-11.376-16.723-11.376-27.44v-9.399c-10.059 6.055-20.935 9.423-32.33 9.423h-.012c-11.401 0-22.302-3.368-32.342-9.423v9.399c0 10.717-4.34 20.409-11.358 27.44l43.7 43.738h.012zM335.13 428.822l19.189-28.074h.012l19.183 28.074-19.183 28.076h-.012z" class="colorStroke373431 svgStroke"></path>
  <path fill="none" stroke="#ffffff" stroke-linecap="round" stroke-linejoin="round" stroke-miterlimit="10" stroke-width="12" d="m321.465 483.312 25.469-37.23-11.804-17.26-30.59-30.613zM387.198 483.312l-25.475-37.23 11.816-17.26 30.577-30.613zM444.118 176.192v-53.563c0-21.435-17.346-38.816-38.817-38.816-5.591 0-10.877 1.244-15.686 3.369-13.11-10.181-29.584-16.309-47.49-16.309-42.858 0-77.599 34.765-77.599 77.61v27.709c-11.706 4.163-20.159 15.222-20.159 28.345 0 25.756 13.067 46.568 29.339 47.301 14.966 46.129 45.409 77.756 80.613 77.756 35.222 0 65.666-31.627 80.644-77.744 16.26-.732 29.32-21.557 29.32-47.313 0-13.124-8.447-24.182-20.165-28.345z" class="colorStroke373431 svgStroke"></path>
  <path fill="none" stroke="#ffffff" stroke-linecap="round" stroke-linejoin="round" stroke-miterlimit="10" stroke-width="12" d="M264.526 176.192h47.087c36.615 0 69.737-14.819 93.712-38.793h.012c0 21.435 17.358 38.793 38.781 38.793v-53.563c0-21.435-17.346-38.816-38.817-38.816-5.591 0-10.877 1.244-15.686 3.369-13.11-10.181-29.584-16.309-47.49-16.309-42.858 0-77.599 34.765-77.599 77.61v27.709zM384.646 496.07l2.552-12.758-25.475-37.23-7.392 10.816h-.012l-7.385-10.816-25.469 37.23 2.545 12.758z" class="colorStroke373431 svgStroke"></path>
  <path fill="none" stroke="#ffffff" stroke-linecap="round" stroke-linejoin="round" stroke-miterlimit="10" stroke-width="12" d="m423.391 496.07 29.65-68.346-10.937-49.279-31.458-13.023-26 130.648zM324.01 496.07l-26-130.648-31.451 13.023-10.95 49.279 29.675 68.346z" class="colorStroke373431 svgStroke"></path>
  <path fill="none" stroke="#ffffff" stroke-linecap="round" stroke-linejoin="round" stroke-miterlimit="10" stroke-width="12" d="M423.391 496.07h122.275l-6.909-77.586-96.653-40.039 10.937 49.279zM255.609 427.724l10.95-49.279-96.665 40.039-6.91 77.586h122.293z" class="colorStroke373431 svgStroke"></path>
  <path fill="none" stroke="#ffffff" stroke-linecap="round" stroke-linejoin="round" stroke-miterlimit="10" stroke-width="12" d="M70.867 496.056h566.91v35.438H70.867zM177.163 566.929h354.318l-17.711 70.866H194.875z" class="colorStroke373431 svgStroke"></path>
  <path fill="none" stroke="#ffffff" stroke-linecap="round" stroke-linejoin="round" stroke-miterlimit="10" stroke-width="12" d="m70.867 531.506 70.86 70.865h44.292l-8.856-35.442h354.318l-8.862 35.442h44.299l70.859-70.865zM106.297 496.056c0-33.422 13.537-63.658 35.43-85.568l65.88-65.892-65.88 65.892c-21.893 21.91-35.43 52.147-35.43 85.568z" class="colorStroke373431 svgStroke"></path>
  <path fill="none" stroke="#ffffff" stroke-linecap="round" stroke-linejoin="round" stroke-miterlimit="10" stroke-width="12" d="M237.854 332.083c0 9.778-7.928 17.713-17.718 17.713-9.783 0-17.712-7.935-17.712-17.713 0-9.789 7.929-17.711 17.712-17.711 9.791 0 17.718 7.922 17.718 17.711zm364.5 163.973c0-33.422-13.537-63.658-35.436-85.568l-65.88-65.892 65.88 65.892c21.898 21.91 35.436 52.147 35.436 85.568z" class="colorStroke373431 svgStroke"></path>
  <path fill="none" stroke="#ffffff" stroke-linecap="round" stroke-linejoin="round" stroke-miterlimit="10" stroke-width="12" d="M470.789 332.083c0 9.778 7.935 17.713 17.725 17.713 9.777 0 17.712-7.935 17.712-17.713 0-9.789-7.935-17.711-17.712-17.711-9.79 0-17.725 7.922-17.725 17.711z" class="colorStroke373431 svgStroke"></path>
</svg>
