<?xml version="1.0" encoding="UTF-8"?>
<!DOCTYPE svg PUBLIC "-//W3C//DTD SVG 1.1//EN" "http://www.w3.org/Graphics/SVG/1.1/DTD/svg11.dtd">
<!-- Creator: CorelDRAW 2021 (64-Bit) -->
<svg xmlns="http://www.w3.org/2000/svg" xml:space="preserve" width="0.720217in" height="0.74752in" version="1.1" style="shape-rendering:geometricPrecision; text-rendering:geometricPrecision; image-rendering:optimizeQuality; fill-rule:evenodd; clip-rule:evenodd"
viewBox="0 0 400 415.16"
 xmlns:xlink="http://www.w3.org/1999/xlink"
 xmlns:xodm="http://www.corel.com/coreldraw/odm/2003">
 <defs>
  <style type="text/css">
   <![CDATA[
    .fil0 {fill:#00008F}
    .fil1 {fill:#FFA600}
   ]]>
  </style>
 </defs>
 <g id="Layer_x0020_1">
  <metadata id="CorelCorpID_0Corel-Layer"/>
  <g id="_1835569074544">
   <path class="fil0" d="M129.82 309.61c-0.73,-3.14 -1.51,-3.67 -1.7,-7.5 -0.15,-3.15 0.03,-6.85 0.03,-10.06l0 -60.23c-13.06,0 -15.16,-7.93 -21.26,-17.22 -5,-7.62 -12.87,-19.81 0.21,-23.9 9.56,-2.98 23.31,-2.06 30.09,-8.39 8.48,-7.9 -1.75,-16.25 27.47,-31.09 34.04,-17.29 39.8,2.42 44.4,-32.55 3.26,-24.78 -16.18,-14.85 -32.4,-25.7 0,9.81 -0.41,13.79 -4.86,19.39 -3.53,4.45 -9.19,7.24 -17.71,6.53 -10.5,-0.87 -16.83,-9.35 -16.78,-19.2 0.02,-4.19 0.03,-8.39 0.03,-12.58 -8.67,0 -14.32,3.79 -23.42,1.67 0.86,3.23 1.94,2.43 3.3,5.91 2.82,7.24 -1.14,16.3 -8.27,19.24 -5.45,2.25 -30.17,0.78 -38.53,0.78 0,11.44 0.02,22.88 0.03,34.33 0.01,6.55 -1.06,9.65 -3.84,13.73 -2.23,3.28 -6.23,6.04 -10.25,7.31 -10.22,3.24 -19.95,-3.03 -23.34,-9.6 -3.87,-7.49 -1.91,-22.86 -1.91,-33.22 -5.49,3.68 -12.46,20 -15.61,27.05 -1.61,3.59 -3.11,7.38 -4.35,10.71 -17.32,46.58 -14.2,101.56 7.4,145.44 4.59,9.33 10.28,18.08 16.07,26.59 2,2.94 4.19,5.95 6.4,8.65 8.68,10.63 18.81,20.51 29.51,29.04 29.6,23.61 66.97,38.21 105.28,40.27 9.93,0.53 19.76,-0.49 28.44,-0.85 29.44,-1.23 61.93,-15.14 85.99,-31.11 12.08,-8.02 21.75,-16.68 31.76,-26.79 30.49,-30.82 50.55,-80.73 50.4,-124.42 -0.05,-16.02 -1.59,-30.6 -5.17,-45.9 -0.74,-3.16 -0.09,-3.47 -2.38,-5.15 0,11.15 -0.07,22.32 0.01,33.47 0.19,26.67 -28.76,27.66 -36.87,11.75 -3.71,-7.27 -2.46,-20.78 -2.46,-31.83 0,-22.6 -0,-45.19 -0.03,-67.79 -0.01,-8.45 1.43,-7.97 3.45,-13.36 1.48,-3.96 -3.52,-7.27 -5.81,-10.15 -2.33,-2.91 -5.52,-5.64 -8.27,-8.46 -4.84,-4.96 -4.66,-3.96 -13.61,-3.96 0,14.57 2.45,41.1 -5.19,49.18 -6.76,7.16 -20.29,8.82 -28.5,1.23 -1.36,-1.25 -2.02,-2.18 -2.98,-3.71l-2.35 -4.34c-0.06,-0.11 -0.18,-0.37 -0.29,-0.54 0,4.77 0.44,9.02 1.69,12.52 1.54,4.32 5.38,4.16 10.01,4.26 15.17,0.34 43.55,-8.43 47.99,4.67 1.37,4.03 -0.05,8.76 -1.39,11.76 -1.88,4.18 -3.28,6.36 -8.01,7.05 -22.13,3.21 -48.98,-3.96 -51.99,-3.92 -7.4,0.08 -12.83,9.16 -11.92,15.76 0.98,7.14 -5.58,15.47 -8.51,20.31 -10.83,17.89 -4.59,27.76 9.06,37.68 12.72,9.25 37.71,-1.17 46.39,12.16 3.68,5.64 5.2,14.05 5.15,23.29 -0.06,10.67 0.81,18.27 0.83,28.45 0.02,10.94 -3.37,20.18 -3.33,25.98 0.06,10.55 14.64,8.42 19.22,8.32 -3.36,5.02 -9.14,10.1 -13.59,14.02 -8.64,7.61 -17.33,15.17 -27.35,21.16 -26.09,15.61 -56.32,25.05 -89.55,25.05 -33.26,0 -64.05,-8.99 -90.49,-24.94 -39.65,-23.91 -69.54,-65.48 -78.96,-112.59 -1.1,-5.52 -1.96,-11.41 -2.63,-16.61 -1.92,-14.91 -0.52,-38.52 2.79,-52.8 1.35,-5.81 2.36,-10 3.85,-15.39 1.37,-4.93 3.64,-9.23 4.85,-14.39 0.97,1.12 0.31,0.02 1.31,2.04 0.46,0.93 0.85,2.12 1.22,2.96 5.34,12.23 13.46,22.96 22.65,32.56l7.31 6.91c13.83,11.17 37.31,18.66 40.07,38.55 2.63,18.92 -1.68,34.82 15.26,46.64 4.68,3.27 8.91,6.68 12.3,11.12 1.93,2.52 1.24,3.05 3.59,4.77z"/>
   <path class="fil0" d="M129.82 309.61c1.63,6.99 4.57,9.7 8.02,27.12 1.92,9.73 9.09,50.52 24.63,44.08 14.45,-5.99 13.9,-38.62 20.6,-50.56 4.52,-8.06 9.93,-13.72 15.46,-20.51 5.41,-6.64 10.1,-12.73 13.63,-21.5 4.96,-12.33 5.52,-19.27 0.47,-28.81 -4.17,0.97 -3.71,2.55 -8,3.71 -3.77,1.02 -31.97,0.47 -37.17,0.47 0,8.64 0,17.28 0,25.93 0,10.77 0.92,15.18 -3.8,22.12 -5.27,7.74 -16.92,11.02 -27.13,4.64 -3.44,-2.15 -4.21,-4.86 -6.7,-6.69z"/>
   <path class="fil1" d="M140.69 207.56l0 92.01c0,9.2 14.22,10.99 14.22,-2.51l0 -46c10.34,0 39.54,1.06 47.68,-0.84 -0.29,-3.45 -1.3,-3.51 -3.54,-5.66l-14.86 -15.25c1.89,-7.1 26.41,-21.32 15.17,-22.65 -10.97,-1.29 -33.09,0.06 -45.28,0.06 -0.76,-9.13 -13.38,-7.07 -13.38,0.84z"/>
   <path class="fil1" d="M43.67 58.67l0 92.01c0,9.07 14.22,11.57 14.22,-2.51l0 -46c54.3,0 53.89,3.29 39.52,-11.08 -2.95,-2.95 -9.19,-7.55 -10.25,-11.5 4.56,-6.81 17.03,-14.93 18.4,-20.07 -1.51,-1.01 -1.47,-1.67 -3.35,-1.67l-23.42 0c-8.14,0 -12.9,0.84 -20.91,0.84 -2.44,-5.09 -2.18,-6.69 -7.53,-6.69 -4.04,0 -6.69,2.65 -6.69,6.69z"/>
   <path class="fil1" d="M274.53 32.74l0 93.68c0,9.75 13.38,7.38 13.38,1.67l0 -51.03 46 0c3.2,0 0.31,0.26 2.51,-0.84 -1.38,-5.15 -13.84,-13.27 -18.4,-20.08 1.72,-6.42 16.97,-16.38 18.4,-21.75 -5.12,-2.46 -39.52,-0.84 -48.52,-0.84 -0.19,-2.33 -0.43,-3.51 -1.87,-4.82 -4.55,-4.14 -11.51,-0.18 -11.51,3.99z"/>
   <path class="fil1" d="M149.89 6.81l0 92.84c0,8.41 13.38,9.36 13.38,0l0 -49.35 46 0c3.2,0 0.3,0.26 2.51,-0.84 -0.75,-2.83 -2.45,-3.76 -4.39,-5.65 -2.8,-2.72 -13.46,-14.04 -14.01,-16.1 4.56,-6.81 17.03,-14.93 18.4,-20.07 -3.4,-1.91 -41.59,-0.84 -48.51,-0.84 -0.21,-9.52 -13.38,-8.63 -13.38,0z"/>
   <path class="fil1" d="M338.93 122.24l0 96.19c0,5.71 13.38,8.07 13.38,-1.67l0 -49.35 47.68 0c-0.11,-4.78 -2.87,-5.8 -8.58,-11.5 -3.29,-3.29 -7.38,-6.59 -9.83,-10.25 6.09,-9.1 18.25,-14.86 18.4,-21.75l-47.68 0c-0.8,-9.63 -13.38,-7.53 -13.38,-1.67z"/>
   <path class="fil1" d="M220.16 60.34c8.8,0.2 34.5,9.95 40.99,13.38l0 -15.06c-5.52,-2.92 -29.3,-11.54 -36.8,-11.71 0,9.12 -2.85,7.68 -4.18,13.38z"/>
   <path class="fil1" d="M118.11 55.33c0,12.68 -0.8,10.02 -5.86,17.56l13.13 -5.27c13.14,-5.17 11.96,-0.62 11.96,-15.64 0,-5.41 -10.99,1.42 -19.24,3.35z"/>
  </g>
 </g>
</svg>
