<?xml version="1.0" encoding="UTF-8"?>
<!DOCTYPE svg PUBLIC "-//W3C//DTD SVG 1.1//EN" "http://www.w3.org/Graphics/SVG/1.1/DTD/svg11.dtd">
<svg xmlns="http://www.w3.org/2000/svg" version="1.1" width="370px" height="370px" style="shape-rendering:geometricPrecision; text-rendering:geometricPrecision; image-rendering:optimizeQuality; fill-rule:evenodd; clip-rule:evenodd" xmlns:xlink="http://www.w3.org/1999/xlink">
<g><path style="opacity:0.917" fill="#f9f9f9" d="M 243.5,-0.5 C 255.167,-0.5 266.833,-0.5 278.5,-0.5C 320.488,9.3217 347.322,34.9884 359,76.5C 366.899,122.677 351.732,159.011 313.5,185.5C 342.515,206.026 357.182,234.192 357.5,270C 355.951,314.87 334.618,346.203 293.5,364C 287.168,366.264 280.835,368.097 274.5,369.5C 263.5,369.5 252.5,369.5 241.5,369.5C 191.4,357.899 163.234,326.566 157,275.5C 137.859,286.005 117.359,289.838 95.5,287C 50.96,279.462 22.46,253.962 10,210.5C 2.18217,169.711 13.6822,135.877 44.5,109C 74.525,86.3036 107.525,80.9703 143.5,93C 148.985,95.2431 154.318,97.7431 159.5,100.5C 161.707,55.2088 183.373,23.3754 224.5,5C 230.832,2.73635 237.165,0.903013 243.5,-0.5 Z M 248.5,10.5 C 299.859,8.40524 333.026,31.7386 348,80.5C 354.115,121.198 340.281,153.031 306.5,176C 304.385,176.557 302.385,177.391 300.5,178.5C 276.063,168.328 251.063,166.828 225.5,174C 219.774,175.697 214.441,178.197 209.5,181.5C 206.726,152.284 194.226,128.284 172,109.5C 169.927,65.1267 189.093,33.96 229.5,16C 235.9,13.9877 242.233,12.1544 248.5,10.5 Z M 256.5,31.5 C 299.373,33.8736 323.373,56.3736 328.5,99C 327.662,117.537 320.995,133.537 308.5,147C 305.308,149.692 301.975,152.192 298.5,154.5C 274.612,146.418 250.445,145.418 226,151.5C 219.391,131.674 208.724,114.341 194,99.5C 194.208,74.6416 204.708,55.4749 225.5,42C 235.336,36.5553 245.669,33.0553 256.5,31.5 Z M 254.5,70.5 C 260.701,69.285 265.868,70.9517 270,75.5C 271.737,81.0838 269.904,84.9172 264.5,87C 261.183,87.4983 257.85,87.665 254.5,87.5C 254.5,81.8333 254.5,76.1667 254.5,70.5 Z M 96.5,98.5 C 138.177,96.0944 169.011,113.094 189,149.5C 206.192,194.737 195.692,232.071 157.5,261.5C 121.448,282.537 86.4481,281.037 52.5,257C 18.246,225.819 10.4127,188.986 29,146.5C 44.0196,120.066 66.5196,104.066 96.5,98.5 Z M 254.5,98.5 C 259.844,98.334 265.177,98.5006 270.5,99C 276.542,101.837 278.042,106.337 275,112.5C 273.581,113.46 272.081,114.293 270.5,115C 265.177,115.499 259.844,115.666 254.5,115.5C 254.5,109.833 254.5,104.167 254.5,98.5 Z M 102.5,119.5 C 142.571,120.412 166.737,140.412 175,179.5C 177.129,208.489 165.962,230.656 141.5,246C 110.424,261.101 82.5907,256.601 58,232.5C 34.3029,201.331 34.9695,170.665 60,140.5C 72.1082,129.199 86.2748,122.199 102.5,119.5 Z M 107.5,144.5 C 117.606,156.117 127.606,167.951 137.5,180C 127.812,184.844 118.146,189.677 108.5,194.5C 98.6068,190.22 88.9401,185.387 79.5,180C 88.9624,168.227 98.2957,156.394 107.5,144.5 Z M 250.5,180.5 C 300.166,181.032 331.666,205.032 345,252.5C 350.526,295.929 334.359,328.429 296.5,350C 250.706,367.597 212.873,357.097 183,318.5C 172.777,303.386 168.111,286.719 169,268.5C 192.071,249.699 205.404,225.366 209,195.5C 221.611,186.937 235.445,181.937 250.5,180.5 Z M 127.5,199.5 C 121.582,209.663 114.916,219.33 107.5,228.5C 100.966,218.522 94.799,208.522 89,198.5C 95.0076,202.276 101.341,205.276 108,207.5C 114.693,205.235 121.193,202.568 127.5,199.5 Z M 250.5,202.5 C 285.363,201.508 309.196,217.174 322,249.5C 329.755,286.815 316.922,314.315 283.5,332C 253.711,342.232 227.878,336.065 206,313.5C 197.279,302.993 192.279,290.993 191,277.5C 211.365,258.769 223.865,235.769 228.5,208.5C 235.714,205.861 243.047,203.861 250.5,202.5 Z"/></g>
<g><path style="opacity:0.915" fill="#f9f9f9" d="M 249.5,20.5 C 289.951,17.9585 318.451,34.9585 335,71.5C 346.805,110.753 336.305,142.253 303.5,166C 296.641,165.961 289.974,164.628 283.5,162C 269.629,158.393 255.629,157.726 241.5,160C 234.904,161.127 228.404,162.627 222,164.5C 220.439,164.397 218.939,164.063 217.5,163.5C 210.798,140.765 198.964,121.098 182,104.5C 182.888,59.0274 205.388,31.0274 249.5,20.5 Z M 256.5,31.5 C 245.669,33.0553 235.336,36.5553 225.5,42C 204.708,55.4749 194.208,74.6416 194,99.5C 208.724,114.341 219.391,131.674 226,151.5C 250.445,145.418 274.612,146.418 298.5,154.5C 301.975,152.192 305.308,149.692 308.5,147C 320.995,133.537 327.662,117.537 328.5,99C 323.373,56.3736 299.373,33.8736 256.5,31.5 Z M 254.5,70.5 C 254.5,76.1667 254.5,81.8333 254.5,87.5C 257.85,87.665 261.183,87.4983 264.5,87C 269.904,84.9172 271.737,81.0838 270,75.5C 265.868,70.9517 260.701,69.285 254.5,70.5 Z M 254.5,98.5 C 254.5,104.167 254.5,109.833 254.5,115.5C 259.844,115.666 265.177,115.499 270.5,115C 272.081,114.293 273.581,113.46 275,112.5C 278.042,106.337 276.542,101.837 270.5,99C 265.177,98.5006 259.844,98.334 254.5,98.5 Z"/></g>
<g><path style="opacity:0.927" fill="#fafafa" d="M 252.5,49.5 C 259.091,48.7578 262.091,51.7578 261.5,58.5C 277.656,61.1537 284.156,70.487 281,86.5C 280.535,87.9308 279.701,89.0975 278.5,90C 288.759,96.8474 291.259,106.014 286,117.5C 279.844,125.501 271.677,128.501 261.5,126.5C 261.543,129.91 261.043,133.243 260,136.5C 257.141,139.022 254.308,139.022 251.5,136.5C 249.816,133.388 249.15,130.054 249.5,126.5C 244.297,128.114 239.297,127.614 234.5,125C 233.556,122.281 233.223,119.448 233.5,116.5C 236.455,115.841 239.455,115.508 242.5,115.5C 242.5,100.5 242.5,85.5 242.5,70.5C 235,71.8343 232.167,68.8343 234,61.5C 235.171,60.1068 236.671,59.2735 238.5,59C 242.152,58.5014 245.818,58.3347 249.5,58.5C 249.129,54.9966 250.129,51.9966 252.5,49.5 Z M 254.5,70.5 C 254.5,76.1667 254.5,81.8333 254.5,87.5C 257.85,87.665 261.183,87.4983 264.5,87C 269.904,84.9172 271.737,81.0838 270,75.5C 265.868,70.9517 260.701,69.285 254.5,70.5 Z M 254.5,98.5 C 254.5,104.167 254.5,109.833 254.5,115.5C 259.844,115.666 265.177,115.499 270.5,115C 272.081,114.293 273.581,113.46 275,112.5C 278.042,106.337 276.542,101.837 270.5,99C 265.177,98.5006 259.844,98.334 254.5,98.5 Z"/></g>
<g><path style="opacity:0.917" fill="#f9f9f9" d="M 97.5,108.5 C 131.755,106.171 158.255,119.171 177,147.5C 194.567,184.598 189.067,217.765 160.5,247C 138.071,265.268 112.738,270.601 84.5,263C 42.7473,246.199 24.9139,215.366 31,170.5C 40.6379,136.285 62.8045,115.618 97.5,108.5 Z M 102.5,119.5 C 86.2748,122.199 72.1082,129.199 60,140.5C 34.9695,170.665 34.3029,201.331 58,232.5C 82.5907,256.601 110.424,261.101 141.5,246C 165.962,230.656 177.129,208.489 175,179.5C 166.737,140.412 142.571,120.412 102.5,119.5 Z M 107.5,144.5 C 98.2957,156.394 88.9624,168.227 79.5,180C 88.9401,185.387 98.6068,190.22 108.5,194.5C 118.146,189.677 127.812,184.844 137.5,180C 127.606,167.951 117.606,156.117 107.5,144.5 Z M 127.5,199.5 C 121.193,202.568 114.693,205.235 108,207.5C 101.341,205.276 95.0076,202.276 89,198.5C 94.799,208.522 100.966,218.522 107.5,228.5C 114.916,219.33 121.582,209.663 127.5,199.5 Z"/></g>
<g><path style="opacity:0.922" fill="#f8f8f8" d="M 104.5,129.5 C 106.857,129.337 109.19,129.503 111.5,130C 124.659,145.663 137.659,161.497 150.5,177.5C 151.894,180.908 151.728,184.241 150,187.5C 137.755,205.653 125.755,223.986 114,242.5C 109.003,246.835 104.669,246.168 101,240.5C 90.4969,223.49 79.4969,206.824 68,190.5C 63.156,184.553 63.4893,178.886 69,173.5C 81.0766,158.934 92.91,144.268 104.5,129.5 Z M 107.5,144.5 C 98.2957,156.394 88.9624,168.227 79.5,180C 88.9401,185.387 98.6068,190.22 108.5,194.5C 118.146,189.677 127.812,184.844 137.5,180C 127.606,167.951 117.606,156.117 107.5,144.5 Z M 127.5,199.5 C 121.193,202.568 114.693,205.235 108,207.5C 101.341,205.276 95.0076,202.276 89,198.5C 94.799,208.522 100.966,218.522 107.5,228.5C 114.916,219.33 121.582,209.663 127.5,199.5 Z"/></g>
<g><path style="opacity:0.916" fill="#f8f8f8" d="M 242.5,191.5 C 264.564,188.472 284.897,192.972 303.5,205C 332.264,228.06 342.097,257.56 333,293.5C 317.709,332.236 289.209,350.403 247.5,348C 211.593,341.632 189.093,320.799 180,285.5C 178.756,281.221 178.423,276.888 179,272.5C 200.689,253.12 214.022,229.12 219,200.5C 226.553,196.596 234.386,193.596 242.5,191.5 Z M 250.5,202.5 C 243.047,203.861 235.714,205.861 228.5,208.5C 223.865,235.769 211.365,258.769 191,277.5C 192.279,290.993 197.279,302.993 206,313.5C 227.878,336.065 253.711,342.232 283.5,332C 316.922,314.315 329.755,286.815 322,249.5C 309.196,217.174 285.363,201.508 250.5,202.5 Z"/></g>
<g><path style="opacity:0.914" fill="#fcfcfc" d="M 253.5,228.5 C 262.027,227.155 265.36,230.822 263.5,239.5C 267.79,238.987 271.623,239.987 275,242.5C 276.379,246.475 275.213,249.309 271.5,251C 264.842,251.5 258.175,251.666 251.5,251.5C 251.5,255.833 251.5,260.167 251.5,264.5C 258.841,264.334 266.174,264.5 273.5,265C 274.126,265.75 274.626,266.584 275,267.5C 275.667,277.167 275.667,286.833 275,296.5C 274.167,297.333 273.333,298.167 272.5,299C 269.518,299.498 266.518,299.665 263.5,299.5C 263.929,303.257 263.263,306.757 261.5,310C 258.54,312.052 255.707,311.886 253,309.5C 251.684,306.312 251.184,302.978 251.5,299.5C 248.482,299.665 245.482,299.498 242.5,299C 238.965,296.162 238.632,292.995 241.5,289.5C 248.803,288.503 256.137,288.169 263.5,288.5C 263.5,284.167 263.5,279.833 263.5,275.5C 256.492,275.666 249.492,275.5 242.5,275C 241.299,274.097 240.465,272.931 240,271.5C 239.077,261.426 239.41,251.426 241,241.5C 244.285,239.863 247.785,239.196 251.5,239.5C 251.111,235.586 251.778,231.92 253.5,228.5 Z"/></g>
</svg>
