<?xml version="1.0" encoding="UTF-8"?>
<!DOCTYPE svg PUBLIC "-//W3C//DTD SVG 1.1//EN" "http://www.w3.org/Graphics/SVG/1.1/DTD/svg11.dtd">
<svg xmlns="http://www.w3.org/2000/svg" version="1.1" width="354px" height="354px" style="shape-rendering:geometricPrecision; text-rendering:geometricPrecision; image-rendering:optimizeQuality; fill-rule:evenodd; clip-rule:evenodd" xmlns:xlink="http://www.w3.org/1999/xlink">
<g><path style="opacity:0.906" fill="#fbfbfb" d="M 141.5,3.5 C 164.836,3.33337 188.169,3.50003 211.5,4C 212.46,7.72998 212.793,11.5633 212.5,15.5C 219.175,15.3337 225.842,15.5004 232.5,16C 233.931,16.4652 235.097,17.2986 236,18.5C 236.5,44.4979 236.667,70.4979 236.5,96.5C 239.5,96.5 242.5,96.5 245.5,96.5C 245.334,88.4931 245.5,80.4931 246,72.5C 247.333,71.8333 248.667,71.1667 250,70.5C 252.99,72.1502 255.99,73.8169 259,75.5C 262.488,74.1028 264.155,71.4361 264,67.5C 266.801,64.9262 269.635,64.9262 272.5,67.5C 272.946,70.2765 273.946,72.7765 275.5,75C 279.253,74.1375 282.919,72.6375 286.5,70.5C 288.258,71.1279 289.758,72.1279 291,73.5C 291.5,81.1594 291.666,88.8261 291.5,96.5C 296.511,96.3341 301.511,96.5007 306.5,97C 307.416,97.3742 308.25,97.8742 309,98.5C 309.5,127.165 309.667,155.831 309.5,184.5C 322.171,184.333 334.838,184.5 347.5,185C 349.662,187.522 349.995,190.355 348.5,193.5C 344.571,194.433 340.571,194.766 336.5,194.5C 333.245,254.842 305.579,300.342 253.5,331C 222.805,347.009 190.138,353.009 155.5,349C 96.3447,339.493 54.178,307.66 29,253.5C 20.8158,234.732 16.6491,215.065 16.5,194.5C 12.4295,194.766 8.42949,194.433 4.5,193.5C 3.00453,190.355 3.33787,187.522 5.5,185C 18.1623,184.5 30.8289,184.333 43.5,184.5C 43.3334,155.831 43.5,127.165 44,98.5C 44.7504,97.8742 45.5838,97.3742 46.5,97C 51.8333,96.6667 57.1667,96.3333 62.5,96C 61.3534,88.5799 61.1868,81.0799 62,73.5C 66.2683,70.1181 70.4349,70.6181 74.5,75C 78.6773,75.1418 80.5106,72.9751 80,68.5C 82.7291,65.1361 85.7291,64.8028 89,67.5C 88.8451,71.4361 90.5118,74.1028 94,75.5C 105.01,67.5926 109.843,70.5926 108.5,84.5C 108.387,88.5347 108.054,92.5347 107.5,96.5C 110.5,96.5 113.5,96.5 116.5,96.5C 116.333,70.4979 116.5,44.4979 117,18.5C 117.903,17.2986 119.069,16.4652 120.5,16C 127.158,15.5004 133.825,15.3337 140.5,15.5C 140.237,11.3998 140.57,7.39977 141.5,3.5 Z M 150.5,13.5 C 167.846,13.1672 185.179,13.5005 202.5,14.5C 193.833,14.8333 185.167,15.1667 176.5,15.5C 167.473,15.4981 158.807,14.8315 150.5,13.5 Z M 126.5,26.5 C 159.833,26.5 193.167,26.5 226.5,26.5C 226.5,79.1667 226.5,131.833 226.5,184.5C 217.5,184.5 208.5,184.5 199.5,184.5C 199.5,177.5 199.5,170.5 199.5,163.5C 206.263,163.453 208.263,160.286 205.5,154C 186.167,153.333 166.833,153.333 147.5,154C 144.737,160.286 146.737,163.453 153.5,163.5C 153.5,170.5 153.5,177.5 153.5,184.5C 144.5,184.5 135.5,184.5 126.5,184.5C 126.5,131.833 126.5,79.1667 126.5,26.5 Z M 83.5,82.5 C 84.5,82.5 85.5,82.5 86.5,82.5C 86.5,83.8333 86.5,85.1667 86.5,86.5C 83.0464,86.7332 82.0464,85.3999 83.5,82.5 Z M 266.5,82.5 C 268.346,82.2222 269.68,82.8888 270.5,84.5C 269.68,86.1112 268.346,86.7778 266.5,86.5C 266.5,85.1667 266.5,83.8333 266.5,82.5 Z M 75.5,93.5 C 80.2287,96.3984 79.2287,97.2317 72.5,96C 73.5707,95.1482 74.5707,94.3149 75.5,93.5 Z M 276.5,93.5 C 277.973,94.072 279.307,94.9054 280.5,96C 278.167,96.6667 275.833,96.6667 273.5,96C 274.942,95.6232 275.942,94.7899 276.5,93.5 Z M 91.5,94.5 C 93.6547,94.372 95.6547,94.872 97.5,96C 95.1667,96.6667 92.8333,96.6667 90.5,96C 91.056,95.6174 91.3893,95.1174 91.5,94.5 Z M 257.5,94.5 C 259.429,94.2308 261.095,94.7308 262.5,96C 260.167,96.6667 257.833,96.6667 255.5,96C 256.416,95.7216 257.082,95.2216 257.5,94.5 Z M 53.5,106.5 C 62.1667,106.5 70.8333,106.5 79.5,106.5C 79.5,132.5 79.5,158.5 79.5,184.5C 70.8333,184.5 62.1667,184.5 53.5,184.5C 53.5,158.5 53.5,132.5 53.5,106.5 Z M 89.5,106.5 C 98.5,106.5 107.5,106.5 116.5,106.5C 116.5,132.5 116.5,158.5 116.5,184.5C 107.5,184.5 98.5,184.5 89.5,184.5C 89.5,158.5 89.5,132.5 89.5,106.5 Z M 236.5,106.5 C 245.5,106.5 254.5,106.5 263.5,106.5C 263.5,132.5 263.5,158.5 263.5,184.5C 254.5,184.5 245.5,184.5 236.5,184.5C 236.5,158.5 236.5,132.5 236.5,106.5 Z M 273.5,106.5 C 282.167,106.5 290.833,106.5 299.5,106.5C 299.5,132.5 299.5,158.5 299.5,184.5C 290.833,184.5 282.167,184.5 273.5,184.5C 273.5,158.5 273.5,132.5 273.5,106.5 Z M 164.5,163.5 C 172.5,163.5 180.5,163.5 188.5,163.5C 188.5,169.167 188.5,174.833 188.5,180.5C 180.5,179.167 172.5,179.167 164.5,180.5C 164.5,174.833 164.5,169.167 164.5,163.5 Z M 171.5,189.5 C 174.85,189.335 178.183,189.502 181.5,190C 182.689,192.878 184.022,195.712 185.5,198.5C 193.017,200.593 200.017,203.76 206.5,208C 211.032,208.213 215.365,207.547 219.5,206C 221.888,208.05 223.888,210.384 225.5,213C 224.203,215.725 223.203,218.559 222.5,221.5C 226.403,229.194 229.736,237.194 232.5,245.5C 235.226,247.365 238.226,248.365 241.5,248.5C 241.665,252.182 241.499,255.848 241,259.5C 237.045,260.486 233.711,262.486 231,265.5C 229.119,272.474 226.453,279.141 223,285.5C 223.357,289.583 224.023,293.583 225,297.5C 222.95,299.888 220.616,301.888 218,303.5C 215.275,302.203 212.441,301.203 209.5,300.5C 202.481,304.178 195.147,307.011 187.5,309C 184.747,311.832 182.747,315.166 181.5,319C 178.167,319.667 174.833,319.667 171.5,319C 170.253,315.166 168.253,311.832 165.5,309C 157.853,307.011 150.519,304.178 143.5,300.5C 140.559,301.203 137.725,302.203 135,303.5C 132.384,301.888 130.05,299.888 128,297.5C 129.07,293.604 129.737,289.604 130,285.5C 126.479,278.769 123.646,271.769 121.5,264.5C 118.629,262.319 115.463,260.652 112,259.5C 111.501,255.848 111.335,252.182 111.5,248.5C 119.697,248.136 123.864,243.803 124,235.5C 126.421,230.989 128.588,226.323 130.5,221.5C 129.797,218.559 128.797,215.725 127.5,213C 129.112,210.384 131.112,208.05 133.5,206C 137.635,207.547 141.968,208.213 146.5,208C 152.983,203.76 159.983,200.593 167.5,198.5C 169.122,195.592 170.456,192.592 171.5,189.5 Z M 28.5,194.5 C 56.8333,194.5 85.1667,194.5 113.5,194.5C 114.166,204.494 114.833,214.494 115.5,224.5C 115.541,229.039 114.874,233.372 113.5,237.5C 88.2337,235.189 64.9003,227.356 43.5,214C 36.7593,208.769 31.7593,202.269 28.5,194.5 Z M 124.5,194.5 C 126.857,194.337 129.19,194.503 131.5,195C 128.898,195.883 126.731,197.383 125,199.5C 124.506,197.866 124.34,196.199 124.5,194.5 Z M 137.5,195.5 C 140.64,194.359 143.973,194.192 147.5,195C 144.401,197.816 141.068,197.982 137.5,195.5 Z M 205.5,195.5 C 208.64,194.359 211.973,194.192 215.5,195C 212.156,197.611 208.822,197.778 205.5,195.5 Z M 221.5,195.5 C 223.607,194.532 225.941,194.198 228.5,194.5C 228.66,196.199 228.494,197.866 228,199.5C 226.362,197.266 224.195,195.933 221.5,195.5 Z M 238.5,194.5 C 267.169,194.333 295.835,194.5 324.5,195C 317.746,207.752 307.746,217.085 294.5,223C 277.086,230.922 258.752,235.756 239.5,237.5C 238.097,232.305 237.43,226.971 237.5,221.5C 238.166,212.511 238.499,203.511 238.5,194.5 Z M 28.5,214.5 C 45.349,229.591 65.0156,239.425 87.5,244C 92.1796,244.837 96.8462,245.671 101.5,246.5C 101.253,252.541 101.586,258.541 102.5,264.5C 102.919,265.672 103.585,266.672 104.5,267.5C 107.158,268.829 109.824,270.162 112.5,271.5C 114.312,277.285 116.645,282.785 119.5,288C 116.517,292.579 116.017,297.412 118,302.5C 121.5,306 125,309.5 128.5,313C 131.053,313.761 133.553,314.594 136,315.5C 140.202,323.204 145.369,330.204 151.5,336.5C 112.068,330.522 80.2343,311.522 56,279.5C 41.6766,260.034 32.51,238.367 28.5,214.5 Z M 323.5,214.5 C 322.974,224.269 320.807,233.936 317,243.5C 294.968,295.89 256.135,327.056 200.5,337C 206.819,331.017 211.986,324.184 216,316.5C 218.557,314.811 221.391,313.644 224.5,313C 228,309.5 231.5,306 235,302.5C 236.983,297.412 236.483,292.579 233.5,288C 236.359,282.742 238.692,277.242 240.5,271.5C 243.176,270.162 245.842,268.829 248.5,267.5C 249.415,266.672 250.081,265.672 250.5,264.5C 251.414,258.541 251.747,252.541 251.5,246.5C 272.608,243.483 292.274,236.65 310.5,226C 315.621,223.045 319.955,219.211 323.5,214.5 Z M 172.5,219.5 C 195.278,220.279 208.278,231.945 211.5,254.5C 208.829,275.171 197.162,286.838 176.5,289.5C 149.647,284.826 138.814,269.159 144,242.5C 149.526,229.798 159.026,222.131 172.5,219.5 Z M 147.5,313.5 C 151.689,315.423 156.022,317.09 160.5,318.5C 160.927,322.995 162.927,326.495 166.5,329C 173.167,329.667 179.833,329.667 186.5,329C 187.579,328.044 188.745,327.211 190,326.5C 190.897,323.708 192.063,321.041 193.5,318.5C 197.447,316.939 201.281,315.273 205,313.5C 198.962,325.694 189.462,334.36 176.5,339.5C 163.332,334.662 153.666,325.995 147.5,313.5 Z"/></g>
<g><path style="opacity:0.892" fill="#f7f7f7" d="M 78.5,15.5 C 90.1452,14.7552 101.145,16.9219 111.5,22C 115.621,26.9433 114.454,30.1099 108,31.5C 103.823,30.2172 99.6563,28.7172 95.5,27C 84.6743,24.6448 74.341,25.9781 64.5,31C 56.5185,32.0411 54.5185,29.0411 58.5,22C 64.9628,18.9207 71.6295,16.754 78.5,15.5 Z"/></g>
<g><path style="opacity:0.893" fill="#f8f8f8" d="M 261.5,15.5 C 273.145,14.7552 284.145,16.9219 294.5,22C 298.57,26.3774 297.736,29.544 292,31.5C 287.701,30.4368 283.534,28.9368 279.5,27C 268.62,24.5073 258.287,25.8407 248.5,31C 240.299,32.6459 237.965,29.8126 241.5,22.5C 247.839,18.9859 254.506,16.6526 261.5,15.5 Z"/></g>
<g><path style="opacity:0.899" fill="#f8f8f8" d="M 75.5,28.5 C 84.0275,27.8851 92.3609,28.7185 100.5,31C 105.308,32.4496 107.141,35.6162 106,40.5C 104.874,41.9436 103.374,42.6102 101.5,42.5C 96.2028,40.4412 90.7028,39.1079 85,38.5C 80.0952,38.2485 75.5952,39.4152 71.5,42C 65,43.5 62.5,41 64,34.5C 67.5903,31.8328 71.4236,29.8328 75.5,28.5 Z"/></g>
<g><path style="opacity:0.888" fill="#f8f8f8" d="M 259.5,28.5 C 267.696,27.8976 275.696,28.7309 283.5,31C 288.746,32.2371 290.58,35.4038 289,40.5C 287.874,41.9436 286.374,42.6102 284.5,42.5C 274.586,37.4941 264.586,37.3274 254.5,42C 247.069,43.2335 244.902,40.4002 248,33.5C 251.731,31.452 255.565,29.7854 259.5,28.5 Z"/></g>
<g><path style="opacity:0.89" fill="#f7f7f7" d="M 81.5,40.5 C 87.1425,40.3282 92.4758,41.4949 97.5,44C 100.476,48.7418 99.3092,51.9085 94,53.5C 91.1566,52.2015 88.1566,51.2015 85,50.5C 81.8434,51.2015 78.8434,52.2015 76,53.5C 70.9107,53.0729 69.244,50.4063 71,45.5C 74.1466,42.8409 77.6466,41.1743 81.5,40.5 Z"/></g>
<g><path style="opacity:0.837" fill="#f7f7f7" d="M 142.5,39.5 C 145.272,39.22 147.772,39.8866 150,41.5C 150.667,46.5 150.667,51.5 150,56.5C 142.384,60.2426 139.218,57.7426 140.5,49C 140.696,45.6505 141.363,42.4839 142.5,39.5 Z"/></g>
<g><path style="opacity:0.841" fill="#f7f7f7" d="M 173.5,39.5 C 176.365,39.0548 178.865,39.7215 181,41.5C 181.667,46.5 181.667,51.5 181,56.5C 178,59.1667 175,59.1667 172,56.5C 171.333,51.5 171.333,46.5 172,41.5C 172.717,40.9558 173.217,40.2891 173.5,39.5 Z"/></g>
<g><path style="opacity:0.837" fill="#f8f8f8" d="M 205.5,39.5 C 211.283,39.5645 213.616,42.5645 212.5,48.5C 212.704,51.9058 212.038,55.0724 210.5,58C 207.653,58.9439 205.153,58.4439 203,56.5C 202.333,51.5 202.333,46.5 203,41.5C 203.995,40.9341 204.828,40.2674 205.5,39.5 Z"/></g>
<g><path style="opacity:0.891" fill="#f8f8f8" d="M 264.5,40.5 C 271.069,39.9993 276.902,41.666 282,45.5C 283.756,50.4063 282.089,53.0729 277,53.5C 274.157,52.2015 271.157,51.2015 268,50.5C 265.645,50.9586 263.479,51.7919 261.5,53C 254.999,53.8123 252.832,50.979 255,44.5C 258.005,42.4883 261.171,41.155 264.5,40.5 Z"/></g>
<g><path style="opacity:0.809" fill="#f0f0f0" d="M 83.5,52.5 C 89.3775,53.242 91.0442,56.4087 88.5,62C 82.021,64.1681 79.1877,62.0014 80,55.5C 81.1451,54.3636 82.3117,53.3636 83.5,52.5 Z"/></g>
<g><path style="opacity:0.827" fill="#f5f5f5" d="M 266.5,52.5 C 273.358,53.1549 275.025,56.3216 271.5,62C 268.901,62.769 266.401,62.6023 264,61.5C 263.052,57.9029 263.885,54.9029 266.5,52.5 Z"/></g>
<g><path style="opacity:0.834" fill="#f8f8f8" d="M 143.5,69.5 C 145.936,69.317 148.103,69.9837 150,71.5C 150.667,76.5 150.667,81.5 150,86.5C 147,89.1667 144,89.1667 141,86.5C 140.333,81.8333 140.333,77.1667 141,72.5C 141.698,71.3094 142.531,70.3094 143.5,69.5 Z"/></g>
<g><path style="opacity:0.833" fill="#f9f9f9" d="M 174.5,69.5 C 176.936,69.317 179.103,69.9837 181,71.5C 181.667,76.5 181.667,81.5 181,86.5C 178,89.1667 175,89.1667 172,86.5C 171.333,81.5 171.333,76.5 172,71.5C 172.995,70.9341 173.828,70.2674 174.5,69.5 Z"/></g>
<g><path style="opacity:0.838" fill="#f7f7f7" d="M 205.5,69.5 C 208.368,69.085 210.535,70.085 212,72.5C 212.667,77.1667 212.667,81.8333 212,86.5C 209,89.1667 206,89.1667 203,86.5C 202.333,81.5 202.333,76.5 203,71.5C 203.995,70.9341 204.828,70.2674 205.5,69.5 Z"/></g>
<g><path style="opacity:0.833" fill="#fafafa" d="M 143.5,99.5 C 145.936,99.317 148.103,99.9837 150,101.5C 150.667,106.5 150.667,111.5 150,116.5C 147,119.167 144,119.167 141,116.5C 140.333,111.833 140.333,107.167 141,102.5C 142.045,101.627 142.878,100.627 143.5,99.5 Z"/></g>
<g><path style="opacity:0.833" fill="#f8f8f8" d="M 174.5,99.5 C 176.936,99.317 179.103,99.9837 181,101.5C 181.667,106.5 181.667,111.5 181,116.5C 178,119.167 175,119.167 172,116.5C 171.333,111.5 171.333,106.5 172,101.5C 172.995,100.934 173.828,100.267 174.5,99.5 Z"/></g>
<g><path style="opacity:0.833" fill="#fafafa" d="M 205.5,99.5 C 208.325,99.0807 210.491,100.081 212,102.5C 212.667,107.167 212.667,111.833 212,116.5C 209,119.167 206,119.167 203,116.5C 202.333,111.5 202.333,106.5 203,101.5C 203.995,100.934 204.828,100.267 205.5,99.5 Z"/></g>
<g><path style="opacity:0.834" fill="#f8f8f8" d="M 144.5,129.5 C 146.484,129.383 148.15,130.05 149.5,131.5C 150.833,136.833 150.833,142.167 149.5,147.5C 142.207,149.879 139.207,147.213 140.5,139.5C 139.669,135.087 141.003,131.753 144.5,129.5 Z"/></g>
<g><path style="opacity:0.842" fill="#f8f8f8" d="M 174.5,129.5 C 180.344,129.764 182.677,132.931 181.5,139C 182.782,147.743 179.616,150.243 172,146.5C 170.743,140.319 171.576,134.652 174.5,129.5 Z"/></g>
<g><path style="opacity:0.834" fill="#f8f8f8" d="M 205.5,129.5 C 208.099,129.549 210.266,130.549 212,132.5C 212.667,137.167 212.667,141.833 212,146.5C 204.509,150.488 201.343,148.155 202.5,139.5C 202.37,135.649 203.37,132.315 205.5,129.5 Z"/></g>
<g><path style="opacity:0.906" fill="#f8f8f8" d="M 169.5,209.5 C 197.484,208.392 214.651,221.392 221,248.5C 222.319,276.707 209.152,293.54 181.5,299C 154.488,299.652 137.988,286.819 132,260.5C 130.886,233.366 143.386,216.366 169.5,209.5 Z M 172.5,219.5 C 159.026,222.131 149.526,229.798 144,242.5C 138.814,269.159 149.647,284.826 176.5,289.5C 197.162,286.838 208.829,275.171 211.5,254.5C 208.278,231.945 195.278,220.279 172.5,219.5 Z"/></g>
</svg>
