<svg xmlns="http://www.w3.org/2000/svg" id="exhibitionbooth" viewBox="0 0 64 64">
  <g fill="#000000" class="color000000 svgShape">
    <path fill="#ffffff" d="M56,60.499H8c-.829,0-1.5-.671-1.5-1.5v-17.184c0-.829.671-1.5,1.5-1.5s1.5.671,1.5,1.5v15.684h45v-15.684c0-.829.671-1.5,1.5-1.5s1.5.671,1.5,1.5v17.184c0,.829-.671,1.5-1.5,1.5Z" class="color293a4c svgShape"></path>
    <path fill="#ffffff" d="M50.826,55.669H13.173c-.829,0-1.5-.671-1.5-1.5v-12.354c0-.829.671-1.5,1.5-1.5s1.5.671,1.5,1.5v10.854h34.653v-10.854c0-.829.671-1.5,1.5-1.5s1.5.671,1.5,1.5v12.354c0,.829-.671,1.5-1.5,1.5Z" class="color293a4c svgShape"></path>
    <path fill="#ffffff" d="M59,43.315H5c-.829,0-1.5-.671-1.5-1.5v-5.087c0-.829.671-1.5,1.5-1.5h54c.829,0,1.5.671,1.5,1.5v5.087c0,.829-.671,1.5-1.5,1.5ZM6.5,40.315h51v-2.087H6.5v2.087Z" class="color293a4c svgShape"></path>
    <path fill="#ffffff" d="M50.826 38.228c-.829 0-1.5-.671-1.5-1.5v-15.228c0-.829.671-1.5 1.5-1.5s1.5.671 1.5 1.5v15.228c0 .829-.671 1.5-1.5 1.5ZM13.173 38.228c-.829 0-1.5-.671-1.5-1.5v-20.568c0-.829.671-1.5 1.5-1.5s1.5.671 1.5 1.5v20.568c0 .829-.671 1.5-1.5 1.5Z" class="color293a4c svgShape"></path>
    <path fill="#ffffff" d="M56,17.66H8c-.829,0-1.5-.671-1.5-1.5V5c0-.829.671-1.5,1.5-1.5h48c.829,0,1.5.671,1.5,1.5v11.16c0,.829-.671,1.5-1.5,1.5ZM9.5,14.66h45V6.5H9.5v8.16Z" class="color293a4c svgShape"></path>
    <path fill="#ffffff" d="M48.963,12.08H15.036c-.829,0-1.5-.671-1.5-1.5s.671-1.5,1.5-1.5h33.927c.829,0,1.5.671,1.5,1.5s-.671,1.5-1.5,1.5Z" class="color293a4c svgShape"></path>
  </g>
  <path fill="#ffffff" d="M28.326,31.484h-9.658c-.829,0-1.5-.671-1.5-1.5v-8.484c0-.829.671-1.5,1.5-1.5h9.658c.829,0,1.5.671,1.5,1.5v8.484c0,.829-.671,1.5-1.5,1.5ZM20.168,28.484h6.658v-5.484h-6.658v5.484Z" class="color293a4c svgShape"></path>
  <g fill="#000000" class="color000000 svgShape">
    <path fill="#ffffff" d="M38.855,31.556c-3.186,0-5.778-2.592-5.778-5.778s2.592-5.778,5.778-5.778,5.778,2.592,5.778,5.778-2.592,5.778-5.778,5.778ZM38.855,23c-1.532,0-2.778,1.246-2.778,2.778s1.246,2.778,2.778,2.778,2.778-1.246,2.778-2.778-1.246-2.778-2.778-2.778Z" class="color293a4c svgShape"></path>
    <path fill="#ffffff" d="M45.527,38.228c-.829,0-1.5-.671-1.5-1.5,0-2.852-2.32-5.172-5.172-5.172s-5.173,2.32-5.173,5.172c0,.829-.671,1.5-1.5,1.5s-1.5-.671-1.5-1.5c0-4.506,3.667-8.172,8.173-8.172s8.172,3.666,8.172,8.172c0,.829-.671,1.5-1.5,1.5Z" class="color293a4c svgShape"></path>
  </g>
</svg>
