<?xml version="1.0" encoding="UTF-8"?>
<!DOCTYPE svg PUBLIC "-//W3C//DTD SVG 1.1//EN" "http://www.w3.org/Graphics/SVG/1.1/DTD/svg11.dtd">
<svg xmlns="http://www.w3.org/2000/svg" version="1.1" width="310px" height="372px" style="shape-rendering:geometricPrecision; text-rendering:geometricPrecision; image-rendering:optimizeQuality; fill-rule:evenodd; clip-rule:evenodd" xmlns:xlink="http://www.w3.org/1999/xlink">
<g><path style="opacity:0.965" fill="#fcfcfc" d="M 107.5,-0.5 C 112.833,-0.5 118.167,-0.5 123.5,-0.5C 138.182,4.53011 146.182,14.8634 147.5,30.5C 170.169,30.3334 192.836,30.5 215.5,31C 224.096,33.9294 229.596,39.7627 232,48.5C 232.5,104.499 232.667,160.499 232.5,216.5C 274.373,219.044 300.04,240.711 309.5,281.5C 309.5,289.833 309.5,298.167 309.5,306.5C 301.5,341.833 279.833,363.5 244.5,371.5C 236.167,371.5 227.833,371.5 219.5,371.5C 192.465,365.973 172.798,350.806 160.5,326C 112.833,325.667 65.1667,325.333 17.5,325C 8.74455,322.408 2.74455,316.908 -0.5,308.5C -0.5,221.167 -0.5,133.833 -0.5,46.5C 1.43772,42.8075 3.77106,39.3075 6.5,36C 9.33883,34.0797 12.3388,32.4131 15.5,31C 38.4976,30.5 61.4976,30.3334 84.5,30.5C 85.1349,14.8789 92.8016,4.54552 107.5,-0.5 Z M 112.5,15.5 C 119.789,14.6435 125.289,17.3102 129,23.5C 130.423,33.4203 130.923,43.4203 130.5,53.5C 120.5,53.5 110.5,53.5 100.5,53.5C 100.109,43.767 100.609,34.1003 102,24.5C 104.489,20.1675 107.989,17.1675 112.5,15.5 Z M 20.5,46.5 C 41.8333,46.5 63.1667,46.5 84.5,46.5C 84.3338,52.8421 84.5005,59.1754 85,65.5C 86.1667,66.6667 87.3333,67.8333 88.5,69C 97.5,69.1667 106.5,69.3333 115.5,69.5C 125.262,69.6423 134.929,69.1423 144.5,68C 145.893,66.8289 146.727,65.3289 147,63.5C 147.499,57.8431 147.666,52.1764 147.5,46.5C 168.836,46.3334 190.169,46.5 211.5,47C 213,47.8333 214.167,49 215,50.5C 215.667,106.167 215.667,161.833 215,217.5C 203.104,220.448 192.437,225.781 183,233.5C 180.359,226.521 175.859,221.021 169.5,217C 159.859,212.349 150.359,207.515 141,202.5C 140.333,199.5 140.333,196.5 141,193.5C 144.11,189.111 146.277,184.278 147.5,179C 154.307,171.592 155.974,163.092 152.5,153.5C 156.045,142.867 156.212,132.2 153,121.5C 151.114,117.56 148.614,114.06 145.5,111C 139.377,108.185 133.377,105.185 127.5,102C 113.027,97.8566 99.6936,100.19 87.5,109C 82.379,113.74 79.2124,119.573 78,126.5C 77.0603,135.936 77.5603,145.27 79.5,154.5C 77.5151,159.311 77.0151,164.311 78,169.5C 82.8877,177.129 87.2211,185.129 91,193.5C 91.1141,196.833 90.7808,200.166 90,203.5C 80.9728,208.182 71.8062,212.682 62.5,217C 48.8484,226.149 43.1817,238.983 45.5,255.5C 85.1681,255.333 124.835,255.5 164.5,256C 154.805,272.62 151.805,290.454 155.5,309.5C 111.499,309.667 67.4987,309.5 23.5,309C 20.1268,308.899 17.6268,307.399 16,304.5C 15.3333,220.167 15.3333,135.833 16,51.5C 17.025,49.313 18.525,47.6464 20.5,46.5 Z M 107.5,116.5 C 112.93,116.161 118.264,116.661 123.5,118C 124.167,119 124.833,120 125.5,121C 135.269,121.855 139.602,127.188 138.5,137C 138.174,144.798 136.507,152.298 133.5,159.5C 134.347,160.845 135.513,161.845 137,162.5C 137.483,163.448 137.649,164.448 137.5,165.5C 135.833,165.5 134.167,165.5 132.5,165.5C 132.625,170.333 131.792,175 130,179.5C 129.027,181.64 127.527,183.307 125.5,184.5C 124.09,193.224 124.257,201.891 126,210.5C 128.567,214.7 132.067,217.867 136.5,220C 145.127,223.429 153.46,227.429 161.5,232C 163.741,233.739 165.408,235.906 166.5,238.5C 132.84,239.5 99.1733,239.833 65.5,239.5C 65.472,237.418 66.1387,235.584 67.5,234C 77.19,228.488 87.19,223.488 97.5,219C 105.768,213.386 109.101,205.553 107.5,195.5C 107.167,191.833 106.833,188.167 106.5,184.5C 104.528,183.695 103.028,182.361 102,180.5C 100.327,175.948 99.1604,171.281 98.5,166.5C 96.4904,165.935 94.8237,164.935 93.5,163.5C 95.1667,162.5 96.5,161.167 97.5,159.5C 94.2645,150.421 93.0978,141.088 94,131.5C 95.601,123.739 100.101,118.739 107.5,116.5 Z M 224.5,232.5 C 257.281,231.297 279.448,245.964 291,276.5C 298.233,313.539 284.4,339.039 249.5,353C 212.461,360.233 186.961,346.4 173,311.5C 166.253,280.724 176.086,256.891 202.5,240C 209.578,236.364 216.911,233.864 224.5,232.5 Z"/></g>
<g><path style="opacity:0.926" fill="#fcfcfc" d="M 112.5,22.5 C 123.182,22.3471 126.182,27.1805 121.5,37C 112.059,40.5439 107.559,37.3772 108,27.5C 109.025,25.313 110.525,23.6464 112.5,22.5 Z"/></g>
<g><path style="opacity:0.955" fill="#fcfcfc" d="M 257.5,256.5 C 261.381,257.774 265.048,259.607 268.5,262C 270.612,262.906 271.445,264.406 271,266.5C 257.232,289.051 242.732,311.051 227.5,332.5C 215.542,322.876 204.209,312.543 193.5,301.5C 197.195,297.474 200.862,293.474 204.5,289.5C 211.167,295.5 217.833,301.5 224.5,307.5C 235.76,290.642 246.76,273.642 257.5,256.5 Z"/></g>
</svg>
