<?xml version="1.0" encoding="UTF-8"?>
<!DOCTYPE svg PUBLIC "-//W3C//DTD SVG 1.1//EN" "http://www.w3.org/Graphics/SVG/1.1/DTD/svg11.dtd">
<!-- Creator: CorelDRAW 2021 (64-Bit) -->
<svg xmlns="http://www.w3.org/2000/svg" xml:space="preserve" width="0.348815in" height="0.325937in" version="1.1" style="shape-rendering:geometricPrecision; text-rendering:geometricPrecision; image-rendering:optimizeQuality; fill-rule:evenodd; clip-rule:evenodd"
viewBox="0 0 346.01 323.31"
 xmlns:xlink="http://www.w3.org/1999/xlink"
 xmlns:xodm="http://www.corel.com/coreldraw/odm/2003">
 <defs>
  <style type="text/css">
   <![CDATA[
    .fil0 {fill:#DA8B25;fill-rule:nonzero}
   ]]>
  </style>
 </defs>
 <g id="Layer_x0020_1">
  <metadata id="CorelCorpID_0Corel-Layer"/>
  <g id="_1835527613200">
   <g id="surface1">
    <path class="fil0" d="M81.43 0c-4.14,0.38 -7.2,4.08 -6.81,8.22 0.38,4.14 4.08,7.2 8.22,6.81l49.34 0 -129.94 129.93c-3,3 -3,7.81 0,10.81 3,3 7.81,3 10.81,0l129.94 -129.94 0 49.34c-0.03,2.7 1.38,5.23 3.73,6.61 2.35,1.35 5.23,1.35 7.58,0 2.35,-1.38 3.76,-3.91 3.73,-6.61l0 -75.19 -75.19 0c-0.24,0 -0.47,0 -0.71,0 -0.23,0 -0.47,0 -0.7,0zm159.31 30.07l0 293.24 105.27 0 0 -293.24 -105.27 0zm15.04 15.04l75.19 0 0 263.16 -75.19 0 0 -263.16zm-135.34 82.71l0 195.49 105.26 0 0 -195.49 -105.26 0zm15.04 15.04l75.19 0 0 165.42 -75.19 0 0 -165.42zm-135.34 67.67l0 112.78 105.27 0 0 -112.78 -105.27 0zm15.04 15.04l75.19 0 0 82.71 -75.19 0 0 -82.71z"/>
   </g>
  </g>
 </g>
</svg>
