<?xml version="1.0" encoding="UTF-8"?>
<!DOCTYPE svg PUBLIC "-//W3C//DTD SVG 1.1//EN" "http://www.w3.org/Graphics/SVG/1.1/DTD/svg11.dtd">
<!-- Creator: CorelDRAW 2021 (64-Bit) -->
<svg xmlns="http://www.w3.org/2000/svg" xml:space="preserve" width="0.459681in" height="0.328346in" version="1.1" style="shape-rendering:geometricPrecision; text-rendering:geometricPrecision; image-rendering:optimizeQuality; fill-rule:evenodd; clip-rule:evenodd"
viewBox="0 0 38.25 27.32"
 xmlns:xlink="http://www.w3.org/1999/xlink"
 xmlns:xodm="http://www.corel.com/coreldraw/odm/2003">
 <defs>
  <style type="text/css">
   <![CDATA[
    .fil0 {fill:#ffffff;fill-rule:nonzero}
   ]]>
  </style>
 </defs>
 <g id="Layer_x0020_1">
  <metadata id="CorelCorpID_0Corel-Layer"/>
  <g id="_1835374183440">
   <g id="surface1">
    <path class="fil0" d="M12.98 0c-2.63,0 -4.78,2.16 -4.78,4.78 0,2.63 2.16,4.78 4.78,4.78 2.63,0 4.78,-2.16 4.78,-4.78 0,-2.63 -2.16,-4.78 -4.78,-4.78zm12.29 0c-2.63,0 -4.78,2.16 -4.78,4.78 0,2.63 2.16,4.78 4.78,4.78 2.63,0 4.78,-2.16 4.78,-4.78 0,-2.63 -2.16,-4.78 -4.78,-4.78zm-12.29 2.73c1.15,0 2.05,0.9 2.05,2.05 0,1.15 -0.9,2.05 -2.05,2.05 -1.15,0 -2.05,-0.9 -2.05,-2.05 0,-1.15 0.9,-2.05 2.05,-2.05zm12.29 0c1.15,0 2.05,0.9 2.05,2.05 0,1.15 -0.9,2.05 -2.05,2.05 -1.15,0 -2.05,-0.9 -2.05,-2.05 0,-1.15 0.9,-2.05 2.05,-2.05zm-18.44 5.46c-3,0 -5.46,2.46 -5.46,5.46 0,1.52 0.65,2.89 1.66,3.88 -1.82,1.23 -3.03,3.33 -3.03,5.68l2.73 0c0,-2.28 1.82,-4.1 4.1,-4.1 2.28,0 4.1,1.82 4.1,4.1l2.73 0c0,-2.35 -1.21,-4.44 -3.03,-5.68 1.01,-0.99 1.66,-2.36 1.66,-3.88 0,-3 -2.46,-5.46 -5.46,-5.46zm6.83 15.02c-0.85,1.14 -1.37,2.58 -1.37,4.1l2.73 0c0,-2.28 1.82,-4.1 4.1,-4.1 2.28,0 4.1,1.82 4.1,4.1l2.73 0c0,-1.52 -0.51,-2.96 -1.37,-4.1 -0.46,-0.62 -1.02,-1.15 -1.66,-1.58 1.01,-0.99 1.66,-2.36 1.66,-3.88 0,-3 -2.46,-5.46 -5.46,-5.46 -3,0 -5.46,2.46 -5.46,5.46 0,1.52 0.65,2.89 1.66,3.88 -0.64,0.43 -1.2,0.96 -1.66,1.58zm10.93 0l2.73 0c0,-2.28 1.82,-4.1 4.1,-4.1 2.28,0 4.1,1.82 4.1,4.1l2.73 0c0,-2.35 -1.21,-4.44 -3.03,-5.68 1.01,-0.99 1.66,-2.36 1.66,-3.88 0,-3 -2.46,-5.46 -5.46,-5.46 -3,0 -5.46,2.46 -5.46,5.46 0,1.52 0.65,2.89 1.66,3.88 -1.82,1.23 -3.03,3.33 -3.03,5.68zm-17.76 -12.29c1.53,0 2.73,1.21 2.73,2.73 0,1.53 -1.21,2.73 -2.73,2.73 -1.53,0 -2.73,-1.21 -2.73,-2.73 0,-1.53 1.21,-2.73 2.73,-2.73zm24.59 0c1.53,0 2.73,1.21 2.73,2.73 0,1.53 -1.21,2.73 -2.73,2.73 -1.53,0 -2.73,-1.21 -2.73,-2.73 0,-1.53 1.21,-2.73 2.73,-2.73zm-12.29 4.1c1.53,0 2.73,1.21 2.73,2.73 0,1.53 -1.21,2.73 -2.73,2.73 -1.53,0 -2.73,-1.21 -2.73,-2.73 0,-1.53 1.21,-2.73 2.73,-2.73z"/>
   </g>
  </g>
 </g>
</svg>
