<svg xmlns="http://www.w3.org/2000/svg" xml:space="preserve" id="networking" x="0" y="0" enable-background="new 0 0 66 66" version="1.1" viewBox="0 0 66 66">
  <path d="M33,19.9c-7.2,0-13.1,5.9-13.1,13.1c0,7.2,5.9,13.1,13.1,13.1c7.2,0,13.1-5.9,13.1-13.1C46.1,25.8,40.2,19.9,33,19.9z
		 M30.2,41.9c-0.1,0.3-0.4,0.5-0.7,0.5c-0.1,0-0.2,0-0.3,0c-0.3-0.1-0.7-0.3-1.1-0.5c-0.4-0.2-0.5-0.7-0.3-1c0.2-0.4,0.7-0.5,1-0.3
		c0.3,0.2,0.6,0.3,0.9,0.4C30.2,41.1,30.4,41.5,30.2,41.9z M37.8,41.8c-1.5,0.8-3.2,1.2-4.8,1.2c-0.3,0-0.7,0-1,0
		c-0.4,0-0.7-0.4-0.7-0.8c0-0.4,0.4-0.7,0.8-0.7c1.7,0.2,3.4-0.2,4.9-1c0.4-0.2,0.8-0.1,1,0.3C38.3,41.2,38.2,41.6,37.8,41.8z
		 M41.7,40.7c-0.8-4.3-5.5-4.3-8.7-4.3c-3.2,0-7.9,0-8.6,4.3c-1.8-2-2.9-4.7-2.9-7.7c0-6.4,5.2-11.6,11.6-11.6
		c6.4,0,11.6,5.2,11.6,11.6C44.6,35.9,43.5,38.6,41.7,40.7z" fill="#ffffff" class="color000000 svgShape"></path>
  <path d="M57.4,40.6c4.2,0,7.6-3.4,7.6-7.6c0-4.2-3.4-7.6-7.6-7.6c-0.2,0-0.4,0-0.6,0c-0.4-1.2-0.8-2.3-1.4-3.4
		c1.7-1.4,2.9-3.5,2.9-5.9c0-4.2-3.4-7.6-7.6-7.6c-2.3,0-4.3,1-5.7,2.6c-1.4-0.8-2.9-1.4-4.5-2c0-0.1,0-0.3,0-0.4
		c0-4.2-3.4-7.6-7.6-7.6c-4.2,0-7.6,3.4-7.6,7.6c0,0.2,0,0.3,0,0.5c-1.6,0.5-3.1,1.1-4.5,1.9c-1.4-1.6-3.4-2.6-5.7-2.6
		c-4.2,0-7.6,3.4-7.6,7.6c0,2.4,1.1,4.5,2.9,5.9c-0.5,1.1-1,2.2-1.4,3.4c-0.2,0-0.4,0-0.6,0C4.4,25.4,1,28.8,1,33
		c0,4.2,3.4,7.6,7.6,7.6c0.2,0,0.4,0,0.6,0c0.4,1.1,0.8,2.3,1.3,3.4c-1.7,1.4-2.9,3.5-2.9,5.9c0,4.2,3.4,7.6,7.6,7.6
		c2.3,0,4.3-1,5.7-2.6c1.4,0.8,2.9,1.4,4.5,1.9c0,0.1,0,0.3,0,0.4c0,2.3,1,4.4,2.6,5.8c0,0,0,0,0,0c0,0,0,0,0,0
		c0.1,0.1,0.2,0.2,0.3,0.3c0.1,0.1,0.1,0.1,0.2,0.2c0.1,0.1,0.2,0.1,0.3,0.2c0.1,0,0.2,0.1,0.2,0.1c0.1,0.1,0.2,0.1,0.4,0.2
		c0.1,0,0.2,0.1,0.2,0.1c0.1,0.1,0.3,0.1,0.4,0.2c0.1,0,0.2,0.1,0.2,0.1c0.1,0,0.3,0.1,0.4,0.1c0.1,0,0.2,0,0.2,0.1
		c0.1,0,0.3,0.1,0.4,0.1c0.1,0,0.2,0,0.3,0c0.1,0,0.3,0,0.4,0.1c0.1,0,0.2,0,0.4,0c0.1,0,0.2,0,0.3,0c0.1,0,0.2,0,0.3,0
		c0.1,0,0.3,0,0.4,0c0.1,0,0.3,0,0.4-0.1c0.1,0,0.2,0,0.3,0c0.1,0,0.3-0.1,0.4-0.1c0.1,0,0.2-0.1,0.3-0.1c0.1,0,0.3-0.1,0.4-0.1
		c0.1,0,0.2-0.1,0.3-0.1c0.1,0,0.2-0.1,0.4-0.2c0.1,0,0.2-0.1,0.3-0.1c0.1-0.1,0.2-0.1,0.3-0.2c0.1-0.1,0.2-0.1,0.3-0.2
		c0.1-0.1,0.2-0.1,0.3-0.2c0.1-0.1,0.2-0.1,0.3-0.2c0.1-0.1,0.2-0.1,0.3-0.2c0,0,0,0,0,0c0,0,0,0,0,0c1.6-1.4,2.7-3.5,2.7-5.8
		c0-0.1,0-0.3,0-0.5c1.6-0.5,3.1-1.1,4.5-1.9c1.4,1.6,3.4,2.6,5.7,2.6c4.2,0,7.6-3.4,7.6-7.6c0-2.4-1.1-4.5-2.9-5.9
		c0.6-1.1,1-2.2,1.4-3.4C57,40.6,57.2,40.6,57.4,40.6z M50.8,10c3.4,0,6.1,2.7,6.1,6.1c0,1.3-0.4,2.5-1.1,3.5c-0.8-2-3.3-2-5-2
		c-1.6,0-4.2,0-4.9,2c-0.7-1-1.1-2.2-1.1-3.5C44.7,12.8,47.4,10,50.8,10z M33,2.6c3.4,0,6.1,2.7,6.1,6.1c0,1.3-0.4,2.5-1.1,3.5
		c-0.8-2-3.3-2-5-2c-1.6,0-4.2,0-4.9,2c-0.7-1-1.1-2.2-1.1-3.5C26.9,5.4,29.6,2.6,33,2.6z M10.3,19.7c-0.7-1-1.1-2.2-1.1-3.5
		c0-3.4,2.7-6.1,6.1-6.1c3.4,0,6.1,2.7,6.1,6.1c0,1.3-0.4,2.5-1.1,3.5c-0.8-2-3.3-2-5-2C13.6,17.7,11.1,17.7,10.3,19.7z M8.6,34.5
		c-1.6,0-4.2,0-4.9,2c-0.7-1-1.1-2.2-1.1-3.5c0-3.4,2.7-6.1,6.1-6.1c0.3,0,0.6,0,0.9,0.1c0,0,0.1,0,0.1,0c2.9,0.5,5.1,3,5.1,6
		c0,1.3-0.4,2.5-1.1,3.5C12.8,34.5,10.2,34.5,8.6,34.5z M20.2,53.4c-0.8-2-3.3-2-5-2c-1.6,0-4.2,0-4.9,2c-0.7-1-1.1-2.2-1.1-3.5
		c0-3.3,2.7-6.1,6.1-6.1c3.4,0,6.1,2.7,6.1,6.1C21.3,51.2,20.9,52.4,20.2,53.4z M38,60.8c-0.8-2-3.3-2-5-2c-1.6,0-4.2,0-4.9,2
		c-0.7-1-1.1-2.2-1.1-3.5c0-3.4,2.7-6.1,6.1-6.1c3.4,0,6.1,2.7,6.1,6.1C39.1,58.6,38.7,59.8,38,60.8z M40.3,55.3
		c-0.9-3.2-3.8-5.6-7.3-5.6s-6.5,2.4-7.3,5.7c-1.3-0.4-2.6-1-3.9-1.7c0.6-1.1,1-2.4,1-3.8c0-4.2-3.4-7.6-7.6-7.6
		c-1.2,0-2.4,0.3-3.5,0.8c-0.4-0.9-0.8-1.9-1.1-2.8c3.2-0.9,5.5-3.8,5.5-7.3c0-3.5-2.3-6.4-5.5-7.3c0.3-1,0.7-1.9,1.1-2.8
		c1,0.5,2.2,0.8,3.4,0.8c4.2,0,7.6-3.4,7.6-7.6c0-1.4-0.4-2.7-1-3.8c1.2-0.7,2.5-1.2,3.9-1.7c0.9,3.2,3.8,5.6,7.3,5.6
		s6.5-2.4,7.3-5.7c1.3,0.4,2.6,1,3.9,1.7c-0.6,1.1-1,2.4-1,3.8c0,4.2,3.4,7.6,7.6,7.6c1.2,0,2.4-0.3,3.5-0.8
		c0.4,0.9,0.8,1.9,1.1,2.8c-3.2,0.9-5.5,3.8-5.5,7.3c0,3.5,2.3,6.4,5.5,7.3c-0.3,1-0.7,1.9-1.1,2.8c-1-0.5-2.2-0.8-3.5-0.8
		c-4.2,0-7.6,3.4-7.6,7.6c0,1.4,0.4,2.7,1,3.8C43,54.3,41.7,54.9,40.3,55.3z M56.9,49.9c0,1.3-0.4,2.5-1.1,3.5c-0.8-2-3.3-2-5-2
		c-1.6,0-4.2,0-4.9,2c-0.7-1-1.1-2.2-1.1-3.5c0-3.3,2.7-6.1,6.1-6.1C54.1,43.8,56.9,46.5,56.9,49.9z M52.5,36.5
		c-0.7-1-1.1-2.2-1.1-3.5c0-3,2.2-5.5,5.1-6c0,0,0.1,0,0.1,0c0,0,0,0,0,0c0.3,0,0.6-0.1,0.9-0.1c3.4,0,6.1,2.7,6.1,6.1
		c0,1.3-0.4,2.5-1.1,3.5c-0.8-2-3.3-2-4.9-2C55.8,34.5,53.2,34.5,52.5,36.5z" fill="#ffffff" class="color000000 svgShape"></path>
  <circle cx="57.4" cy="30.9" r="2.9" fill="#ffffff" class="color000000 svgShape"></circle>
  <path d="M11.5 30.9c0 1.6-1.3 2.9-2.9 2.9-1.6 0-2.9-1.3-2.9-2.9 0-1.6 1.3-2.9 2.9-2.9C10.2 27.9 11.5 29.3 11.5 30.9zM18.2 14c0 1.6-1.3 2.9-2.9 2.9-1.6 0-2.9-1.3-2.9-2.9s1.3-2.9 2.9-2.9C16.9 11.1 18.2 12.4 18.2 14zM53.7 14c0 1.6-1.3 2.9-2.9 2.9-1.6 0-2.9-1.3-2.9-2.9s1.3-2.9 2.9-2.9C52.4 11.1 53.7 12.4 53.7 14zM18.2 47.8c0 1.6-1.3 2.9-2.9 2.9-1.6 0-2.9-1.3-2.9-2.9 0-1.6 1.3-2.9 2.9-2.9C16.9 44.8 18.2 46.1 18.2 47.8zM35.9 6.6c0 1.6-1.3 2.9-2.9 2.9-1.6 0-2.9-1.3-2.9-2.9s1.3-2.9 2.9-2.9C34.6 3.7 35.9 5 35.9 6.6zM35.9 55.1c0 1.6-1.3 2.9-2.9 2.9-1.6 0-2.9-1.3-2.9-2.9 0-1.6 1.3-2.9 2.9-2.9C34.6 52.2 35.9 53.5 35.9 55.1zM53.7 47.8c0 1.6-1.3 2.9-2.9 2.9-1.6 0-2.9-1.3-2.9-2.9 0-1.6 1.3-2.9 2.9-2.9C52.4 44.8 53.7 46.1 53.7 47.8zM38.4 27.3C38.4 27.3 38.4 27.3 38.4 27.3 38.3 27.3 38.3 27.3 38.4 27.3 38.3 27.2 38.3 27.2 38.4 27.3L38.4 27.3c-.8-2.3-3-3.8-5.4-3.8-2.7 0-5 1.9-5.6 4.5 0 0 0 0 0 0-.1.4-.1.8-.1 1.1 0 3.1 2.5 5.7 5.7 5.7 3.1 0 5.7-2.5 5.7-5.7C38.7 28.5 38.6 27.9 38.4 27.3zM33 33.4c-2.3 0-4.2-1.9-4.2-4.2 0 0 0-.1 0-.1 1 .1 2.1 0 3-.4.8.6 1.8.9 2.8.9.1 0 .2 0 .2 0 .8 0 1.6-.3 2.2-.7 0 .1 0 .2 0 .4C37.2 31.5 35.3 33.4 33 33.4z" fill="#ffffff" class="color000000 svgShape"></path>
</svg>
