<?xml version="1.0" encoding="UTF-8"?>
<!DOCTYPE svg PUBLIC "-//W3C//DTD SVG 1.1//EN" "http://www.w3.org/Graphics/SVG/1.1/DTD/svg11.dtd">
<!-- Creator: CorelDRAW 2021 (64-Bit) -->
<svg xmlns="http://www.w3.org/2000/svg" xml:space="preserve" width="0.36174in" height="0.36174in" version="1.1" style="shape-rendering:geometricPrecision; text-rendering:geometricPrecision; image-rendering:optimizeQuality; fill-rule:evenodd; clip-rule:evenodd"
viewBox="0 0 27.68 27.68"
 xmlns:xlink="http://www.w3.org/1999/xlink"
 xmlns:xodm="http://www.corel.com/coreldraw/odm/2003">
 <defs>
  <style type="text/css">
   <![CDATA[
    .fil0 {fill:#006633;fill-rule:nonzero}
    .fil1 {fill:#07DD15;fill-rule:nonzero}
   ]]>
  </style>
 </defs>
 <g id="Layer_x0020_1">
  <metadata id="CorelCorpID_0Corel-Layer"/>
  <path class="fil0" d="M6.77 9.58c-0.32,0 -0.53,0.31 -0.53,0.63l0.96 6.49c0.85,-1.17 2.24,-1.8 3.73,-1.8 1.49,0 2.87,0.73 3.73,1.8 0.85,-1.06 2.24,-1.8 3.73,-1.8 1.49,0 2.87,0.73 3.73,1.8l0.96 -6.49c0.11,-0.32 -0.21,-0.63 -0.53,-0.63l-15.77 0z"/>
  <g id="_1835217606016">
   <path class="fil1" d="M21.82 22.36c-1.49,0 -2.66,1.17 -2.66,2.66 0,1.49 1.17,2.66 2.66,2.66 1.49,0 2.66,-1.17 2.66,-2.66 0,-1.49 -1.17,-2.66 -2.66,-2.66z"/>
   <path class="fil1" d="M13.84 22.36c-1.49,0 -2.66,1.17 -2.66,2.66 0,1.49 1.17,2.66 2.66,2.66 1.49,0 2.66,-1.17 2.66,-2.66 0,-1.49 -1.17,-2.66 -2.66,-2.66z"/>
   <path class="fil1" d="M5.86 22.36c-1.49,0 -2.66,1.17 -2.66,2.66 0,1.49 1.17,2.66 2.66,2.66 1.49,0 2.66,-1.17 2.66,-2.66 0,-1.49 -1.17,-2.66 -2.66,-2.66z"/>
   <path class="fil1" d="M25.02 17.03c-1.49,0 -2.66,1.17 -2.66,2.66 0,1.49 1.17,2.66 2.66,2.66 1.49,0 2.66,-1.17 2.66,-2.66 0,-1.49 -1.17,-2.66 -2.66,-2.66z"/>
   <path class="fil1" d="M17.57 17.03c-1.49,0 -2.66,1.17 -2.66,2.66 0,1.49 1.17,2.66 2.66,2.66 1.49,0 2.66,-1.17 2.66,-2.66 0,-1.49 -1.17,-2.66 -2.66,-2.66z"/>
   <path class="fil1" d="M10.11 17.03c-1.49,0 -2.66,1.17 -2.66,2.66 0,1.49 1.17,2.66 2.66,2.66 1.49,0 2.66,-1.17 2.66,-2.66 0,-1.49 -1.17,-2.66 -2.66,-2.66z"/>
   <path class="fil1" d="M2.66 17.03c-1.49,0 -2.66,1.17 -2.66,2.66 0,1.49 1.17,2.66 2.66,2.66 1.49,0 2.66,-1.17 2.66,-2.66 0,-1.49 -1.17,-2.66 -2.66,-2.66z"/>
   <path class="fil1" d="M23.95 0c-0.88,0 -1.6,0.72 -1.6,1.6 0,0.88 0.72,1.6 1.6,1.6 0.3,0 0.59,-0.09 0.83,-0.23 0.15,0.18 0.27,0.36 0.37,0.57 0.23,0.47 0.33,1.06 0.37,1.8l-24.45 0c-0.64,0 -1.06,0.42 -1.06,1.06l0 2.13 2.13 3.19 2.46 0 -0.43 -2.56c-0.11,-0.32 0.21,-0.63 0.53,-0.63l18.3 0c0.32,0 0.64,0.31 0.53,0.63l-0.43 2.56 2.46 0 2.13 -3.19 0 -2.13c0,-0.64 -0.42,-1.06 -1.06,-1.06l-0.03 0c-0.04,-0.87 -0.18,-1.61 -0.5,-2.26 -0.17,-0.34 -0.38,-0.65 -0.63,-0.93 0.06,-0.17 0.1,-0.35 0.1,-0.53 0,-0.88 -0.72,-1.6 -1.6,-1.6z"/>
  </g>
 </g>
</svg>
