<?xml version="1.0" encoding="UTF-8"?>
<!DOCTYPE svg PUBLIC "-//W3C//DTD SVG 1.1//EN" "http://www.w3.org/Graphics/SVG/1.1/DTD/svg11.dtd">
<svg xmlns="http://www.w3.org/2000/svg" version="1.1" width="354px" height="354px" style="shape-rendering:geometricPrecision; text-rendering:geometricPrecision; image-rendering:optimizeQuality; fill-rule:evenodd; clip-rule:evenodd" xmlns:xlink="http://www.w3.org/1999/xlink">
<g><path style="opacity:0.938" fill="#fdfdfd" d="M 78.5,10.5 C 159.071,10.1683 239.571,10.5017 320,11.5C 320.333,49.1667 320.667,86.8333 321,124.5C 348.743,145.902 355.743,172.902 342,205.5C 326.325,230.971 303.492,241.471 273.5,237C 239.545,226.356 223.711,203.189 226,167.5C 226.627,163.154 227.794,158.988 229.5,155C 206.502,154.5 183.502,154.333 160.5,154.5C 160.667,170.837 160.5,187.17 160,203.5C 158.694,207.813 156.194,211.313 152.5,214C 129.061,215.152 105.561,215.652 82,215.5C 58.7475,215.657 35.5809,215.157 12.5,214C 8.7664,211.284 6.2664,207.784 5,203.5C 4.02344,173.105 4.35677,142.772 6,112.5C 8.21428,109.285 11.0476,106.785 14.5,105C 35.164,104.5 55.8306,104.333 76.5,104.5C 76.3334,73.8315 76.5,43.1649 77,12.5C 77.7172,11.9558 78.2172,11.2891 78.5,10.5 Z M 88.5,22.5 C 161.833,22.5 235.167,22.5 308.5,22.5C 308.667,54.5017 308.5,86.5017 308,118.5C 301.097,116.038 293.931,114.871 286.5,115C 291.139,112.387 296.139,110.72 301.5,110C 302.667,109.5 303.5,108.667 304,107.5C 304.667,90.8333 304.667,74.1667 304,57.5C 303.5,56.3333 302.667,55.5 301.5,55C 285.643,53.8102 277.143,45.3102 276,29.5C 275.5,28.3333 274.667,27.5 273.5,27C 223.5,26.3333 173.5,26.3333 123.5,27C 122.667,27.8333 121.833,28.6667 121,29.5C 119.638,45.6953 110.804,54.3619 94.5,55.5C 93.5006,71.8197 93.1672,88.1531 93.5,104.5C 91.8333,104.5 90.1667,104.5 88.5,104.5C 88.5,77.1667 88.5,49.8333 88.5,22.5 Z M 132.5,38.5 C 176.501,38.3333 220.501,38.5 264.5,39C 268.245,53.3217 277.245,62.4884 291.5,66.5C 292.833,77.1667 292.833,87.8333 291.5,98.5C 280.376,101.461 272.042,107.961 266.5,118C 261.269,120.231 256.269,122.897 251.5,126C 221.168,126.5 190.835,126.667 160.5,126.5C 162.43,116.755 159.096,109.588 150.5,105C 139.833,104.667 129.167,104.333 118.5,104C 114.484,101.74 110.317,99.9068 106,98.5C 105.333,87.8333 105.333,77.1667 106,66.5C 120.513,62.4879 129.347,53.1545 132.5,38.5 Z M 193.5,61.5 C 213.732,61.627 221.899,71.627 218,91.5C 211.728,102.367 202.561,105.867 190.5,102C 178.655,95.1421 175.155,85.3088 180,72.5C 183.213,67.1075 187.713,63.4408 193.5,61.5 Z M 19.5,116.5 C 61.5013,116.333 103.501,116.5 145.5,117C 147.794,119.718 148.794,122.885 148.5,126.5C 104.5,126.5 60.5,126.5 16.5,126.5C 16.3066,122.752 17.3066,119.418 19.5,116.5 Z M 279.5,127.5 C 307.653,126.163 326.153,138.83 335,165.5C 338.472,197.008 324.972,216.841 294.5,225C 265,226.493 246.5,212.993 239,184.5C 237.224,154.469 250.724,135.469 279.5,127.5 Z M 16.5,138.5 C 60.5,138.5 104.5,138.5 148.5,138.5C 148.5,141.833 148.5,145.167 148.5,148.5C 104.5,148.5 60.5,148.5 16.5,148.5C 16.5,145.167 16.5,141.833 16.5,138.5 Z M 160.5,138.5 C 186.175,138.167 211.842,138.5 237.5,139.5C 237.167,140.167 236.833,140.833 236.5,141.5C 211.175,142.5 185.842,142.833 160.5,142.5C 160.5,141.167 160.5,139.833 160.5,138.5 Z M 16.5,160.5 C 60.5,160.5 104.5,160.5 148.5,160.5C 148.667,173.171 148.5,185.838 148,198.5C 147.691,199.766 147.191,200.933 146.5,202C 125.228,203.15 103.895,203.65 82.5,203.5C 61.105,203.65 39.7716,203.15 18.5,202C 17.8095,200.933 17.3095,199.766 17,198.5C 16.5001,185.838 16.3334,173.171 16.5,160.5 Z"/></g>
<g><path style="opacity:0.928" fill="#f9f9f9" d="M 191.5,48.5 C 219.642,47.808 233.142,61.4747 232,89.5C 225.893,109.478 212.393,118.312 191.5,116C 171.522,109.893 162.688,96.393 165,75.5C 168.709,61.2925 177.542,52.2925 191.5,48.5 Z M 193.5,61.5 C 187.713,63.4408 183.213,67.1075 180,72.5C 175.155,85.3088 178.655,95.1421 190.5,102C 202.561,105.867 211.728,102.367 218,91.5C 221.899,71.627 213.732,61.627 193.5,61.5 Z"/></g>
<g><path style="opacity:0.92" fill="#fafafa" d="M 283.5,142.5 C 289.119,141.063 292.452,143.063 293.5,148.5C 297.846,148.334 302.179,148.501 306.5,149C 308.954,149.943 309.954,151.776 309.5,154.5C 309.954,157.224 308.954,159.057 306.5,160C 298.167,160.333 289.833,160.667 281.5,161C 277.476,162.35 276.476,165.016 278.5,169C 285.833,170 293.167,171 300.5,172C 309.564,177.97 312.064,186.136 308,196.5C 304.702,201.967 299.869,204.634 293.5,204.5C 293.108,208.391 290.941,210.391 287,210.5C 282.914,210.58 281.081,208.58 281.5,204.5C 276.821,204.666 272.155,204.499 267.5,204C 264.43,201.431 263.763,198.264 265.5,194.5C 266.025,193.808 266.692,193.308 267.5,193C 275.833,192.667 284.167,192.333 292.5,192C 298.123,190.473 298.79,187.807 294.5,184C 287.184,182.956 279.85,181.956 272.5,181C 264.582,174.496 262.416,166.329 266,156.5C 268.027,154.228 270.194,152.061 272.5,150C 275.432,149.047 278.432,148.547 281.5,148.5C 281.253,146.142 281.919,144.142 283.5,142.5 Z"/></g>
<g><path style="opacity:0.928" fill="#f9f9f9" d="M 186.5,225.5 C 190.846,225.334 195.179,225.501 199.5,226C 222.024,233.089 244.524,240.256 267,247.5C 267.279,242.227 269.946,239.227 275,238.5C 281.563,240.133 288.063,241.966 294.5,244C 297.47,244.763 299.97,246.263 302,248.5C 302.198,252.596 301.531,256.596 300,260.5C 292.939,281.685 286.272,303.018 280,324.5C 278.761,331.072 274.927,333.238 268.5,331C 261.452,328.821 254.452,326.488 247.5,324C 247,323.5 246.5,323 246,322.5C 245.518,319.093 245.518,315.76 246,312.5C 244.077,311.684 242.077,311.017 240,310.5C 223.026,318.61 206.193,327.11 189.5,336C 185.594,337.434 181.594,337.767 177.5,337C 137.77,324.818 98.1037,312.485 58.5,300C 49.3672,295.152 46.2005,287.652 49,277.5C 50.0385,268.668 54.2052,261.834 61.5,257C 66.4602,255.295 71.4602,255.295 76.5,257C 90.2368,261.349 103.903,265.849 117.5,270.5C 119.976,266.19 123.31,262.69 127.5,260C 147.581,248.946 167.248,237.446 186.5,225.5 Z M 191.5,237.5 C 215.721,244.554 239.721,252.22 263.5,260.5C 259.083,273.349 254.75,286.182 250.5,299C 246.988,298.95 243.488,298.45 240,297.5C 236.731,297.923 233.564,298.756 230.5,300C 215.135,308.015 199.802,316.015 184.5,324C 182.833,324.667 181.167,324.667 179.5,324C 140.849,312.006 102.182,300.006 63.5,288C 62.6667,287.167 61.8333,286.333 61,285.5C 61.5354,280.363 62.8688,275.363 65,270.5C 66.3129,269.427 67.8129,268.76 69.5,268.5C 86.1758,273.84 102.842,279.173 119.5,284.5C 121.534,289.102 124.034,293.435 127,297.5C 128.731,299.617 130.898,301.117 133.5,302C 138.167,302.667 142.833,302.667 147.5,302C 162.897,294.132 178.231,285.966 193.5,277.5C 196.557,273.008 195.89,269.175 191.5,266C 190.167,265.333 188.833,265.333 187.5,266C 171.915,274.442 156.248,282.608 140.5,290.5C 138.617,290.124 137.117,289.124 136,287.5C 133.14,283.142 131.473,278.476 131,273.5C 151.313,261.6 171.479,249.6 191.5,237.5 Z M 278.5,253.5 C 281.774,253.635 284.774,254.635 287.5,256.5C 281.223,276.997 274.556,297.33 267.5,317.5C 264.824,316.162 262.158,314.829 259.5,313.5C 266.241,293.61 272.575,273.61 278.5,253.5 Z"/></g>
</svg>
