<svg xmlns="http://www.w3.org/2000/svg" enable-background="new 0 0 75 75" viewBox="0 0 75 75" id="Assets">
  <g fill="#ffffff" class="color000000 svgShape">
    <g fill="#ffffff" class="color000000 svgShape">
      <path d="M37.583847,64.9336243c0.3139-0.1144714,0.1329231-0.5867767-0.171875-0.46875
			c-2.328125,0.8549805-5.0878906,0.4155273-7.0322247-1.1230469c-0.2599754-0.2032547-0.5697994,0.1870422-0.3105469,0.3925781
			C32.1583176,65.3869858,35.1091881,65.8454895,37.583847,64.9336243z" fill="#ffffff" class="color000000 svgShape"></path>
      <path d="M22.1658802,61.4814758c3.3072948,2.8831253,6.9403133,5.4804688,11.3486309,5.4804688
			c1.8224564,0,2.0011482-0.2768402,8.0439453-1.6928711c8.2949409-1.9430923,8.4991264-2.6505623,13.6020508-1.5615234
			c-0.2980957,0.6218262-0.559082,1.1652832-0.7607422,1.5852051c-0.3212357,0.7070923,0.0284653,1.5091248,0.7099609,1.75
			l4.8701172,1.8498535c0.694294,0.2781677,1.443409-0.1275482,1.6699219-0.75l7.4101563-19.5499268
			c0.2610931-0.6632881-0.0869141-1.4212761-0.7700195-1.6700439l-3.2001953-1.1398926
			c-0.5959473-0.2211914-1.2390137,0.0368652-1.5461426,0.5720215c-1.0541992-0.8740234-2.295166-1.5708008-3.6245117-2.0292969
			l2.5114746-11.651001l0.479248,0.3983154c1.5576477,1.2881813,3.7750168,0.5420876,4.5600586-1.290041
			c0.4499512-1.0600586,0.119873-2.2800293-0.7700195-3.0200195c-7.5800781-6.3800049-15.170166-12.75-22.75-19.1300049
			c-1.0200195-0.8499756-2.5300293-0.8599854-3.5700684-0.0200195L17.019762,28.7627239
			c-0.8699951,0.7199707-1.2199707,1.8898926-0.8299561,2.9399414c0.6878109,1.9052029,2.9590588,2.45154,4.3999023,1.2299824
			c0.4316406-0.3608398,0.9931641-0.828125,1.6513672-1.3745136c0.7099609,2.6990986,1.9228516,7.3225117,2.9067383,11.0959492
			c-1.0034199-0.5475578-2.5354252-1.3317299-2.9711914-0.2734375c-0.9013672-1.2359619-1.9345703-2.342041-3.3331299-2.9953613
			c-1.0664063-0.4873047-2.0048828-0.5874023-2.7910156-0.296875c-0.8087883,0.29813-1.4665356,1.1875725-1.2972412,2.0800781
			c-1.3912115-0.8463211-3.9780693-2.0215721-5.4888916-1.4057617c-0.428833,0.173584-0.7562256,0.5372314-0.8546143,0.9318848
			c-1.6298141-0.5072517-2.5649605,0.3403397-2.5584722,1.470459C5.8835311,47.0371399,22.0027943,61.3403625,22.1658802,61.4814758
			z M62.9437103,64.2192688c-0.1000061,0,0.2221451,0.1087189-5.3691406-2.2719727
			c-0.303627-0.1296272-0.1067314-0.592083,0.1972656-0.4599609l5.2705078,2.2519531
			C63.2918816,63.8458214,63.2132645,64.2192688,62.9437103,64.2192688z M64.7464447,57.5659485l-4.1220703-1.456543
			c-0.3124619-0.1095963-0.1441841-0.5824661,0.1660156-0.4716797l4.1220703,1.456543
			c0.1308594,0.0458984,0.1982422,0.1889648,0.1523438,0.3193359C65.018013,57.5463982,64.8722534,57.610878,64.7464447,57.5659485z
			 M67.2151947,52.5781555c0.2987518,0.1354752,0.0979996,0.5942192-0.2050781,0.4560547l-3.8232422-1.7246094
			c-0.3004837-0.1362686-0.097374-0.5921593,0.2050781-0.4560547L67.2151947,52.5781555z M25.1797962,25.4927044
			l10.9299297-8.4100342c0.2844543-0.2065601,0.5621758,0.2062511,0.3100586,0.3900146L25.4898548,25.882719
			c-0.0923882,0.0736866-0.2558403,0.0728397-0.3500977-0.0400391
			C25.0496693,25.7326946,25.0696888,25.5727825,25.1797962,25.4927044z M39.9598236,16.9426556
			c0.5549316-0.4580078,1.2458496-0.6606445,1.9250488-0.6235352L59.653183,31.3071575l-2.6608887,12.387331
			c-3.8219261-0.3515625-7.7114868,0.8370094-11.232666,2.4019775v-7.5637207c0-1.5605469-1.2695313-2.8300781-2.8300781-2.8300781
			h-2.0498047c-1.5605469,0-2.8300781,1.2695313-2.8300781,2.8300781c0,0.4054451,0,9.6997032,0,9.3144531
			c-0.801487-0.1078758-1.568821-0.2204056-2.3847656-0.2045898c-2.3383827,0.0454979-5.2338676,0.2318726-7.5356426,0.840332
			h-0.972168c-0.4636478-1.9677429-3.982851-15.3447304-4.4909668-17.2771015
			C27.3511829,27.3213177,36.184433,20.0477581,39.9598236,16.9426556z M40.9402924,39.2529602
			c0-1.1845703,0.6933594-2.28125,1.7666016-2.7944336c0.097168-0.0463867,0.151123-0.1496582,0.1381836-0.2558594h0.0844727
			c1.2851563,0,2.3300781,1.0454102,2.3300781,2.3300781v7.7885742c-1.2632446,0.5762177-2.9512367,1.3478088-4.3193359,1.5854492
			V39.2529602z M22.7215443,42.4438782c0.4023457-0.3802414,2.1326084,0.6044312,2.6015625,0.8828125
			c0.6914063,2.6549072,1.2373047,4.7678223,1.3598633,5.2867432c-1.1529655-1.0752869-2.1512146-3.0178871-3.4555664-4.6846924
			c-0.0783939-0.1001816,0.0951786,0.1313248-0.4833984-0.7338867
			C22.606554,42.9114075,22.5413685,42.6208801,22.7215443,42.4438782z M6.6764998,41.3286438
			c0.4719238-0.4208984,1.1617432-0.3215332,1.7669683-0.0976563c0.1593008,0.4314194,0.3962717,0.4766541,0.5455322,0.3295898
			c0.020752-0.0205078,0.0194092-0.0495605,0.0316162-0.0742188c3.622324,1.8774872,6.4672451,6.018177,10.2349854,8.4072266
			c0.2784843,0.1781807,0.5476303-0.2456779,0.2675781-0.421875c-3.6995945-2.3466644-7.0949402-7.0537682-10.6348877-8.5985107
			c0.0372133-0.2977104,0.2976198-0.538681,0.5655518-0.647583c0.4648438-0.1879883,1.0742188-0.1865234,1.8691406,0.0083008
			c4.7861328,1.1748047,8.7021484,6.0498047,11.9034424,10.6640625c0.0478516,0.0698242,0.1259766,0.1074219,0.2050781,0.1074219
			c0.200882,0,0.3206711-0.226326,0.2050781-0.3925781c-2.355957-3.3973389-5.1031494-6.9279785-8.3168945-9.0821533
			c0.0297852-0.0665283,0.0378418-0.1407471,0.0023193-0.2108154c-0.4492588-0.8904495,0.6400061-2.7002792,3.3125-1.4804688
			c1.9766693,0.9233627,3.2287235,2.8866844,4.4259033,4.7568359c1.3773346,2.1566162,1.5194607,2.1481056,3.1879883,4.6217041
			c-1.605978,0.9176102-2.5664978,2.5278854-1.9868164,4.3099365c0.7363281,2.2636719,3.6630859,4.1264648,5.8291016,4.3828125
			c3.4202862,0.4041557,6.9028988,0.0294418,10.3154278-0.3295898c0.3219528-0.0342522,0.2860336-0.5256844-0.0527344-0.4970703
			c-3.3760986,0.3569984-6.8373795,0.7263908-10.2040997,0.3305664c-2.9882813-0.3539543-7.7340355-4.1506271-4.4306641-7.2070313
			c1.9443188-1.7805557,7.2683735-2.0125809,9.9570293-2.0649414c1.7633781-0.0455246,2.8213577,0.4927979,5.0449219,0.3081055
			c1.7904625-0.2545853,3.712574-1.2197037,5.3808594-1.9594727c4.0833359-1.8076782,9.2638359-3.2318878,13.4462891-1.7719727l0,0
			c0.4563904,0.199646,1.9740677,0.5742302,3.7590332,2.0849609c-0.2753906,0.5585938-0.6245117,1.2731934-1.0373535,2.1240234
			c-2.9619141-1.6032715-6.4614258-2.1135254-9.6054688-1.3989258c-0.3243942,0.0728722-0.2090302,0.5626106,0.1113281,0.4873047
			c3.0273438-0.6875,6.40625-0.1933594,9.265625,1.355957c0.0036621,0.0019531,0.0078125,0.0010986,0.0117188,0.0029297
			c-1.9331055,3.987793-4.8981934,10.1749268-6.6699219,13.8691406c-0.2363281-0.0476074-0.4716797-0.0987549-0.7060547-0.1547852
			c-2.0809975-0.4964218-4.1919403-0.624733-7.2529297,0.2119141c-3.8926353,1.065567-7.671875,1.807663-11.5898438,2.8598633
			c-2.1875,0.5986328-4.7656231,0.2978516-7.2617168-0.8466797c-2.2773438-1.0297852-4.2675781-2.6323242-6.078125-4.2109375
			C19.4216118,58.4358559,3.8246586,43.8699493,6.6764998,41.3286438z" fill="#ffffff" class="color000000 svgShape"></path>
      <path d="M37.5223236,32.5976868c0.005127,0.0047607,0.0117188,0.0080566,0.017334,0.0123291
			c0.001709,0.0012207,0.0014648,0.00354,0.0031738,0.0047607c0.0055466,0.0039597-0.0000839,0.0009956,0.03125,0.0195313
			c0.0007324,0.0003662,0.0014648,0.0007324,0.0024414,0.0010986c2.0097351,1.4436073,4.6287155,1.6788979,6.8598633,0.6341553
			c0,0,0,0,0-0.0004883c5.039341-2.3657398,5.2473412-9.4443741,0.385498-12.1347675
			c-0.1044273-0.0393791-3.1268654-2.4913788-6.9587402-0.6977539
			C32.7313728,22.8461704,32.7108536,30.0326767,37.5223236,32.5976868z M38.0760345,20.8891888
			c3.155571-1.4807453,6.9102745-0.1312084,8.3974609,3.0302734c1.4805946,3.1518059,0.1319199,6.9123363-3.0302734,8.3969746
			c-3.2030182,1.5026855-6.9149742,0.1007614-8.3964844-3.0302753
			C33.5672455,26.1352825,34.9256439,22.3681927,38.0760345,20.8891888z" fill="#ffffff" class="color000000 svgShape"></path>
      <path d="M43.1141205,31.6323528c2.5624466-1.2034187,3.6295052-4.3061504,2.3955078-6.9306641
			c-1.2333984-2.621582-4.3115234-3.7802734-6.8652344-2.5786133c-2.5489883,1.1980457-3.6336632,4.2909069-2.3945313,6.9306641
			C37.4793625,31.6677513,40.554348,32.835556,43.1141205,31.6323528z M38.8572845,22.5752239
			c2.3201523-1.0883732,5.0921364-0.0171719,6.1992188,2.3393555c1.1038933,2.3472672,0.1809731,5.1680813-2.1552734,6.265625
			c-2.3027344,1.0825214-5.0830078,0.0332031-6.1982422-2.3393555
			C35.6016693,26.499052,36.5164375,23.6758957,38.8572845,22.5752239z" fill="#ffffff" class="color000000 svgShape"></path>
      <path d="M42.5975189 27.5220013c.1826172.2988281-.0917969.6269531-.4082031.8339844-.8513069.5567493-2.6023331.6722717-2.8544922.1279297-.0107422-.0219727-.03125-.0678711.0263672-.1513672.1856918-.2704105-.2197876-.5574169-.4121094-.2841797-.4146347.6005077.2047272 1.5224075 2.0581055 1.2366943l.152832.5299072c.0902672.3159237.5722427.1813602.4804688-.1386719l-.1418457-.491333c.362793-.0977783.7011719-.2382813.9641113-.4100342.6445313-.421875.8652344-1.015625.5605469-1.5136719-.8074188-1.3228283-3.8905296-.6935215-4.0722656-1.6787109-.0322266-.175293.0722656-.3730469.2958984-.5566406.8152657-.6686172 2.1955986-.6066704 2.3222656-.3452148.0419922.1318359.1845703.2050781.3134766.1606445.5483475-.1746578-.1257591-1.2025814-1.8720703-.729248l-.0966797-.4645996c-.0714874-.3300419-.5551453-.2183685-.4902344.1015625l.111084.5336914c-.5999947.2652969-1.1952248.7435379-1.0749512 1.3911133C38.74403 27.2116871 41.9010544 26.3867245 42.5975189 27.5220013zM54.653183 39.3911438c.1318893.0179825.2621269-.0778961.2783203-.2182617.21875-1.8144531.5527344-3.6293945.9921875-5.394043.0341797-.1337891-.0478516-.2695313-.1816406-.3032227-.1376953-.03125-.2695313.0483398-.3027344.1821289-.4453125 1.7851563-.7832031 3.6206055-1.0039063 5.4555664C54.418808 39.2505188 54.5164642 39.3750305 54.653183 39.3911438zM22.5779896 14.2832327c.2083149.2478952.5971508-.069334.3808594-.3232422-.7460938-.8808594-1.5166016-1.7915039-1.9853516-2.8525391-.506958-1.1513672-.5469971-2.3271484-.1094971-3.2270508.7867165-1.6186328 2.8752422-1.7490544 3.3526611-.6416016.2122517.495254-.2043133.8659124-.7431641.8696289-.1002064-.0190735-.2080631.0577421-1.0478516-.265625-.3088627-.1190658-.4887142.3474007-.1796875.4667969.3681641.1416016.8007813.3242188 1.2314453.2988281.5371094-.003418 1.0087891-.2714844 1.2011719-.6831055.3371735-.7245359-.2749958-1.5465217-1.0214844-1.7958984-1.1855469-.3945313-2.6396484.293457-3.2423096 1.5322266-.5019531 1.0322266-.4648438 2.3613281.1015625 3.6474609C21.0135365 12.436553 21.8084583 13.3755178 22.5779896 14.2832327zM19.1931019 14.4326468c.1866913 0 .3084888-.1992683.2216797-.3662109l-1.2167969-2.3212891c-.1543808-.2912188-.5959873-.0622692-.4433594.2324219C18.9961205 14.2376127 18.9157887 14.4326468 19.1931019 14.4326468zM12.3757191 18.5620403c1.2532377 0 1.7447166-1.413517 1.0644531-2.1254883-.2261934-.2378521-.591507.1061306-.3613281.3457031.2947807.3083878.1737022.9062252-.1953125 1.1420898-.3759766.2402344-.9599609.1591797-1.3291016-.1821289-1.0616817-.9824276-.4232254-3.3232851 1.6220703-3.8491201 2.0144663-.5171795 4.4081917.9216633 5.0732422 3.9433584.0699692.3218632.5587959.2169437.4882813-.1074219-.7187538-3.2655897-3.3651876-4.9179554-5.6865234-4.3203115-2.4191208.6219616-3.1996908 3.4375505-1.8369141 4.7006826C11.5368519 18.4062786 11.9636097 18.5620403 12.3757191 18.5620403z" fill="#ffffff" class="color000000 svgShape"></path>
    </g>
  </g>
</svg>
