<svg xmlns="http://www.w3.org/2000/svg" xml:space="preserve" id="SearchProperty" x="0" y="0" version="1.1" viewBox="0 0 132 132" enable-background="new 0 0 132 132">
  <g fill="#ffffff" class="color000000 svgShape">
    <path d="M119.6000519,59.2987671l3.2999268-17.0700073l2.8100586,0.960022
		c0.0200195,0.0100098,0.0500488,0.0100098,0.0800781,0.0100098c0.0898438,0,0.1799316-0.0499878,0.2199707-0.1400146
		c0.0599365-0.1199951,0.0100098-0.2600098-0.1000977-0.3200073L90.0700226,21.9187641l-16.1300049-5.5100098l-0.0200195-2.6199961
		l1.5600586-0.8999634c0.0799561-0.0499878,0.1300049-0.1300049,0.1300049-0.2200317l-0.0100098-3.7199707
		c0-0.0635242-0.0532379-0.1716385-0.1300049-0.210022c0-0.0100098,0-0.0100098,0-0.0100098l-8.9499512-5.2000122
		c-0.0800781-0.039978-0.1800537-0.0499878-0.2600098,0l-9.0200195,5.210022
		c-0.1001015,0.0500498-0.0344467,0.009963-0.0900879,0.1099854c-0.0200195,0.0300293-0.0300293,0.0700073-0.0300293,0.1000366
		c0,0.0100098,0,0.0100098,0,0.0100098l0.0100098,3.7099609c0,0.0900269,0.0500488,0.1700439,0.1201172,0.2200317
		l1.5100098,0.8699951l0.0300293,9.3999643L41.5700226,48.9987793c-0.039917,0.0599976-0.0499268,0.1300049-0.0299072,0.2000122
		c0.0098877,0.0700073,0.0499268,0.1300049,0.1098633,0.1599731l6.6900635,3.8800049l1.5799561,6.1900024
		c-6.8798828,4.7600098-10.6398926,10.7200317-10.6298828,17.0300293c0,0.0099487,0,0.0099487,0,0.0099487l-0.0200195,10.9200439
		c-0.0100098,2.7699585,0.7199707,5.5199585,2.1699219,8.1599731l-0.8599854,0.4899902
		c-0.3299561-0.2600098-0.6800537-0.5-1.039917-0.7099609c-1.6401367-0.9500122-3.1900635-1.0900269-4.3601074-0.3900146
		L3.2100365,113.5087891c-0.0100098,0.0100098-0.0100098,0.0100098-0.0100098,0.0100098
		c-1.1599121,0.6799927-1.8100585,2.0700073-1.8100585,3.9299927c-0.01569,5.8779678,6.2852373,12.8853607,10.25,10.6199951
		c0.1036758,0,31.8895454-18.5416183,31.9899902-18.6000366c1.9522934-1.1542358,2.0647163-3.9252777,1.5400391-6.1399536
		l1.8500977-1.0700073c9.6395607,8.4057388,24.9993134,11.7999878,38.0599365,11.7999878
		c11.6700439,0,23.3299561-2.5700073,32.1900635-7.7199707c8.5699463-4.9800415,13.2999268-11.6100464,13.3199463-18.6900024
		c0.0018768-1.0365067-0.0069733,3.8527222,0.0200195-11.0599976
		C130.6000519,70.1687622,126.7100372,64.1087646,119.6000519,59.2987671z M114.9400177,80.7287598l-6.6599121,3.8400269
		l-0.0400391-12.3300171c0-4.425087-3.178833-6.4159851-7.1999512-4.0999756
		c-3.8200684,2.2099609-6.9101563,7.5700073-6.8901367,11.9500122l0.0400391,12.6199951l-6.5700684,3.789978l-6.9899902-27.2600098
		l-0.6298828-2.4799805l21.2600098-31.9100342l21.1599121,7.2200317L114.9400177,80.7287598z M53.5000763,73.3787842
		l1.1899414,4.6599731c0.0200195,0.0700073,0.0600586,0.1199951,0.1199951,0.1600342l32.5300293,18.8999634
		c0.0100098,0.0100098,0.0100098,0,0.0200195,0.0100098c0,0,0,0,0.0098877,0.0100098
		c0.0300293,0.0100098,0.0600586,0.0200195,0.0900879,0.0200195c0.0500488,0,0.0899658-0.0200195,0.1300049-0.0400391
		c14.0908813-8.1338425,4.2437668-2.3707809,27.7000732-15.9899902c0.0599365-0.039978,0.1098633-0.0999756,0.119873-0.1699829
		l1.380127-7.1199951c2.4199219,2.2099609,4.1499023,4.6499634,5.0599365,7.2199707
		c-1.460083,4.0599976-4.9200439,7.8000488-10.0999756,10.8200073c-14.6800537,8.5300293-38.6400146,8.5300293-53.4200439,0
		c-5.2800293-3.0599976-8.8099365-6.8499756-10.289917-10.9599609
		C49.0200958,78.1887817,50.8799591,75.6488037,53.5000763,73.3787842z M101.7300568,70.3087769
		c2.6250153-1.5284882,4.4850082-0.5057373,4.5,2.5499878l0.0300293,12.8699951
		c-13.7863541,7.975769-9.0314178,5.2249146-10.0600586,5.8200073l-0.0300293-11.5999756
		C96.1499786,76.4187622,98.6499786,72.0888062,101.7300568,70.3087769z M75.1100616,12.5287485l-8.5300293,4.9200449v-3.1400156
		c0.1009598-0.0584211,9.0912552-5.2605286,8.5200195-4.9299927L75.1100616,12.5287485z M73.4800568,23.5188007
		l-6.8601074,9.8899517l-0.0499268-15.380003l6.8499756-3.9499521L73.4800568,23.5188007z M66.3899689,4.0287485l8.460083,4.9200439
		l-8.5200195,4.9199829l-8.460083-4.9099731L66.3899689,4.0287485z M57.6299591,12.5287485l-0.0100098-3.1399536l8.460083,4.9199829
		v3.1300058L57.6299591,12.5287485z M42.1399689,49.0587769l16.6501465-24.9999981l0.0198975,5.9000244
		c0,0.0899658,0.0500488,0.1699829,0.1300049,0.2199707l7.3100586,4.2399883
		c0.0100098,0.0100098,0.0200195,0.0100098,0.0300293,0.0100098c0.0100098,0.0100098,0.0100098,0.0100098,0.0198975,0.0200195
		c0.0200195,0,0.0500488,0.0100098,0.0699463,0.0100098c0.0400391,0,0.0800781-0.0100098,0.1201172-0.0300293
		c0,0,0,0,0.0100098-0.0100098c0.0100098,0,0.0100098-0.0199585,0.0200195-0.0199585
		c0.0200195-0.0200195,0.039917-0.0300293,0.0599365-0.0500488c7.7504425-11.2171135,7.4000244-10.6119232,7.4000244-10.7599468
		l-0.0300293-4.5600586l26.8499756,15.6000347L77.5000763,69.6087646L42.1399689,49.0587769z M48.9400177,53.5888062
		l28.5100098,16.5699463c0.0400391,0.0200195,0.0800781,0.0400391,0.1300049,0.0400391
		c0.0799561,0,0.1600342-0.0400391,0.2000732-0.1199951l1.8398438-2.7600098l2.2401123,8.7000122l5.2099609,20.3499756
		L55.1499786,77.8187866L48.9400177,53.5888062z M7.4199977,124.2787476
		c-1.6799316-0.9699707-3.0300293-3.3099976-3.0300293-5.2399902c0.0100098-1.9199829,1.3701172-2.6999512,3.0500488-1.7299805
		c1.6700435,0.960022,3.0200191,3.3099976,3.0200191,5.2299805C10.4500265,124.46875,9.0900412,125.2387695,7.4199977,124.2787476z
		 M43.3799591,109.0387573l-30.5,17.7300415c2.0860949-4.1721878-1.8234663-11.6350937-6.2099605-13.2800293
		c-0.495893-0.1908493-1.179728-0.3999634-1.7399902-0.3999634l30.5-17.7200317
		c1.0200195-0.5999756,2.3900146-0.460022,3.8601074,0.3900146C44.1978951,98.606041,46.8308334,106.9822769,43.3799591,109.0387573
		z M130.0900421,87.6488037c-0.0200195,6.8899536-4.6600342,13.3699951-13.0799561,18.25
		c-20.2568359,11.7827835-53.8684235,9.5934219-69.5400391-3.9100342c1.0974693-0.7222061,1.7153816-0.7472305,2.0899658-1.6599731
		c0.1400146-0.3300171,0.2301025-0.7200317,0.2301025-1.1700439c0,0,0,0,0-0.0099487v-0.0599976
		c-0.0606079-2.8458176-3.0799179-6.5266724-5.3000488-5.3300171l-2.6300049,1.539978
		c-1.3900146-2.5700073-2.0999756-5.2199707-2.0899658-7.9099731l0.0100098-7.0100098
		c2.6606598,10.1711121,13.9410057,16.5815735,24.0998535,19.6699829
		c16.581337,5.0304108,38.5250397,3.9415359,53.4101563-4.7099609c0.1098633-0.0600586,0.1999512-0.1200562,0.3099365-0.1800537
		c5.9125214-3.6128769,10.5429535-7.8044891,12.4599609-14.4099731c0.0100098-0.0499878,0.0300293-0.0999756,0.0400391-0.1500244
		L130.0900421,87.6488037z M117.0301056,94.9087524c-9.8607941,5.7279892-22.6769867,7.9701996-34.2301025,7.6300049
		c-10.7999268-0.3200073-21.4599609-2.8599854-29.7299805-7.6300049
		c-13.9550056-8.0241013-15.797924-18.9895248-10.6400146-27.2599487c1.7399902-2.7800293,4.3000488-5.3900146,7.6199951-7.710022
		l1.4801025,5.7600098c-0.1900635,0.1900024-0.3901367,0.3900146-0.5600586,0.5899658
		c-0.0200195,0.0200195-0.0400391,0.0400391-0.0500488,0.0500488c-8.0929527,9.3190231-3.7557259,19.6475754,7.1600342,25.9499512
		c7.460083,4.3000488,17.2299805,6.460022,26.9899902,6.460022c9.7700195,0,19.5200195-2.1599731,26.9300537-6.460022
		c12.9117355-7.5068817,14.1005554-18.7394104,6.3399658-26.5l1.1500244-5.9599609
		c6.8599854,4.6999512,10.6099854,10.5700073,10.6199951,16.7600098
		C130.016922,76.8047104,131.2001953,86.6960754,117.0301056,94.9087524z" fill="#ffffff" class="color000000 svgShape"></path>
    <path d="m58.5000763 75.3988037 22.1699219 12.8899536c.0400391.0300293.0800781.0400391.1300049.0400391.0500488 0 .0999756-.0200195.1500244-.0500488.0800781-.0599976.1099854-.1699829.0900879-.2699585l-3.210083-12.5200195c-.0200195-.0700073-.0599365-.1199951-.1199951-.1599731L55.5401154 62.4487915c-.0900879-.0499878-.2000732-.0400391-.2800293.0199585-.0800781.0599976-.1101074.1700439-.0900879.2600098l3.2099609 12.5200195C58.3999786 75.3087769 58.4400177 75.3687744 58.5000763 75.3988037zM97.865799 83.2109375c.4885254-.2819824.8833008-.9658813.8818359-1.5272217-.001709-.5631104-.3991699-.7895508-.8875732-.5075684-.4885254.2820435-.8834229.9659424-.8817139 1.5290527C96.9799347 83.2665405 97.3772736 83.492981 97.865799 83.2109375zM96.0200958 55.4087524c.0211563 3.3820534 2.4767914 4.6811295 5.3399658 3.0400391 2.789917-1.6099854 5.0599365-5.5400391 5.0499268-8.75 0-3.3493195-2.4442673-4.729538-5.3299561-3.0599976C98.2801056 48.2587891 96.0100861 52.1887817 96.0200958 55.4087524zM100.970047 58.0888062c-2.4690704 1.3486443-4.368103.2402725-4.4299316-2.5300293l4.4299316-2.5800171V58.0888062zM100.970047 52.3988037 96.5600128 54.96875c.1700439-2.8299561 2.0400391-6.0699463 4.4100342-7.6399536V52.3988037zM101.470047 52.6887817l2.8699951-1.6699829c.1199951-.0700073.1600342-.2300415.0999756-.3500366-.0799561-.1199951-.2299805-.1599731-.3499756-.0899658l-2.6199951 1.5299683v-5.1099854c2.6418915-1.4167671 4.4399414-.0556602 4.4399414 2.7000122.0100098 2.9099731-1.9599609 6.4199829-4.4399414 8.0700073V52.6887817zM66.4900665 12.3787851h.0100098l5.5499268-3.210022c.1733093-.1083517.1734161-.331583 0-.4400024L66.5000763 5.50879c-.0400391-.0200195-.0900879-.0300293-.130127-.0300293-.039917 0-.079834.0100098-.119873.0300293l-5.5800781 3.2299805c-.1794357.1121826-.1634903.3422709-.0100098.4299927l5.5500488 3.2200317C66.2819138 12.4365692 66.4089279 12.4193544 66.4900665 12.3787851zM66.1199493 11.7687998l-4.829834-2.8099976 4.829834-2.8000488V11.7687998z" fill="#ffffff" class="color000000 svgShape"></path>
  </g>
</svg>
