<?xml version="1.0" encoding="UTF-8"?>
<!DOCTYPE svg PUBLIC "-//W3C//DTD SVG 1.1//EN" "http://www.w3.org/Graphics/SVG/1.1/DTD/svg11.dtd">
<!-- Creator: CorelDRAW 2021 (64-Bit) -->
<svg xmlns="http://www.w3.org/2000/svg" xml:space="preserve" width="0.632343in" height="0.695512in" version="1.1" style="shape-rendering:geometricPrecision; text-rendering:geometricPrecision; image-rendering:optimizeQuality; fill-rule:evenodd; clip-rule:evenodd"
viewBox="0 0 131.87 145.04"
 xmlns:xlink="http://www.w3.org/1999/xlink"
 xmlns:xodm="http://www.corel.com/coreldraw/odm/2003">
 <defs>
  <style type="text/css">
   <![CDATA[
    .fil1 {fill:#00AC29}
    .fil2 {fill:#80B4FB}
    .fil3 {fill:#9CC5FA}
    .fil5 {fill:#E28424}
    .fil4 {fill:#E49440}
    .fil7 {fill:#F1D333}
    .fil6 {fill:#F5E165}
    .fil0 {fill:#FFA600}
   ]]>
  </style>
 </defs>
 <g id="Layer_x0020_1">
  <metadata id="CorelCorpID_0Corel-Layer"/>
  <g id="_1835376508160">
   <path class="fil0" d="M101.1 3.63c0,7.78 1.01,6.66 12.71,6.66 -1.02,1.52 -21.83,21.85 -24.74,24.91 -1.5,1.57 -1.49,1.14 -4.32,1.13 -3.73,-0.02 -7.47,-0 -11.2,-0 -10.1,0 -8.45,-0.19 -12.48,4.17 -1.07,1.15 -1.76,1.65 -2.78,2.97 -0.88,1.13 -1.75,1.73 -2.67,2.78l-19.98 21.8c-2.46,2.8 -1.02,2.51 -5.68,2.5l-22.4 0c-7.4,0 -7.57,-0.15 -7.57,6.36 0,2.58 1.35,3.94 3.93,3.94l31.48 0c3.47,0 5.39,-3.27 7.34,-5.38l4.09 -4.39c3.9,-3.84 9.84,-10.99 14.23,-15.43l7.94 -9.01c6.76,0 13.53,-0.01 20.29,0.01 3.72,0.01 4.48,-1.63 6.42,-3.57l25.65 -25.5c0,2 -0.46,9.9 0.53,11.28 1.41,1.97 3.44,1.44 6.73,1.44 1.67,0 3.03,-1.75 3.03,-3.33l0 -21.19c0,-3.38 -2.2,-5.75 -4.54,-5.75l-23.01 0c-1.89,0 -3.03,1.68 -3.03,3.63z"/>
   <path class="fil1" d="M106.25 93.01l0.12 51.69c0.88,0.45 24.24,0.47 25.15,0 0.67,-3.37 0.15,-14.02 0.15,-18.16 0,-6.05 0,-12.11 0,-18.16 0,-12.05 0,-24.11 0,-36.16l-3.05 2.83c-0.59,0.54 -0.86,1.06 -1.41,1.61 -0.5,0.51 -0.88,0.83 -1.43,1.3 -2.07,1.77 -3.99,3.5 -6.18,5.33 -2.42,2.02 -10.92,8.58 -13.36,9.72z"/>
   <path class="fil2" d="M70.83 111.53l0.15 33.16c0.88,0.48 24.35,0.44 25.19,0l0.09 -45.37c-1.47,0.46 -4.48,2.34 -6.11,3.24 -2.09,1.15 -4.08,2.12 -6.21,3.17 -3.86,1.89 -8.93,4.31 -13.11,5.81z"/>
   <path class="fil3" d="M70.83 111.53c4.18,-1.5 9.25,-3.92 13.11,-5.81 2.13,-1.04 4.12,-2.02 6.21,-3.17 1.63,-0.89 4.64,-2.77 6.11,-3.24 0,-7.58 -0.04,-15.17 0.01,-22.75 0.03,-4.82 -2.73,-4.23 -7.28,-4.22 -3.83,0 -7.67,0 -11.5,0 -8.11,-0 -6.66,0.48 -6.66,16.04 0,7.71 0,15.43 0,23.14z"/>
   <path class="fil4" d="M35.72 122.89c3.73,-0.64 9.17,-2.29 12.86,-3.46 2.16,-0.68 4.13,-1.27 6.24,-1.94 1.81,-0.58 4.59,-1.81 6.34,-2.01 0,-6.37 0.42,-14.23 -0.01,-20.41 -0.24,-3.51 -2.31,-3.97 -6.04,-3.95 -22.29,0.14 -19.38,-1.87 -19.38,11.2 0,6.86 0,13.71 0,20.57z"/>
   <path class="fil5" d="M35.72 122.89l0.12 21.81c0.87,0.44 24.23,0.47 25.14,0 0.57,-2.6 0.17,-11.27 0.17,-14.53 0,-4.9 0,-9.8 0,-14.7 -1.75,0.21 -4.53,1.43 -6.34,2.01 -2.11,0.68 -4.08,1.26 -6.24,1.94 -3.69,1.17 -9.13,2.82 -12.86,3.46z"/>
   <path class="fil1" d="M106.25 93.01c2.44,-1.14 10.94,-7.7 13.36,-9.72 2.19,-1.83 4.12,-3.56 6.18,-5.33 0.55,-0.47 0.92,-0.79 1.43,-1.3 0.55,-0.56 0.82,-1.07 1.41,-1.61l3.05 -2.83c0,-8.59 1.54,-12.6 -5.13,-12.59 -23.23,0.04 -20.29,-3.26 -20.29,15.45 0,5.98 0,11.96 0,17.93z"/>
   <path class="fil6" d="M0.3 128.47c4.17,-0.64 8.73,-0.78 13,-1.36 4.02,-0.54 8.63,-1.61 12.43,-1.97 0,-2.91 0.37,-14.43 -0.12,-16.35 -0.61,-2.38 -2.74,-2.57 -5.63,-2.55l-16.55 0.11c-2.73,0.49 -3.16,2.2 -3.14,5.34 0.04,5.59 0,11.19 0,16.78z"/>
   <path class="fil7" d="M0.3 128.47l0.16 16.22c0.91,0.47 24.26,0.44 25.15,0l0.12 -19.55c-3.8,0.36 -8.41,1.43 -12.43,1.97 -4.27,0.58 -8.83,0.72 -13,1.36z"/>
  </g>
 </g>
</svg>
