<?xml version="1.0" encoding="UTF-8"?>
<!DOCTYPE svg PUBLIC "-//W3C//DTD SVG 1.1//EN" "http://www.w3.org/Graphics/SVG/1.1/DTD/svg11.dtd">
<!-- Creator: CorelDRAW 2021 (64-Bit) -->
<svg xmlns="http://www.w3.org/2000/svg" xml:space="preserve" width="0.424917in" height="0.77111in" version="1.1" style="shape-rendering:geometricPrecision; text-rendering:geometricPrecision; image-rendering:optimizeQuality; fill-rule:evenodd; clip-rule:evenodd"
viewBox="0 0 46.03 83.53"
 xmlns:xlink="http://www.w3.org/1999/xlink"
 xmlns:xodm="http://www.corel.com/coreldraw/odm/2003">
 <defs>
  <style type="text/css">
   <![CDATA[
    .str0 {stroke:#FFA600;stroke-width:4.63;stroke-linecap:round;stroke-miterlimit:10}
    .fil2 {fill:none;fill-rule:nonzero}
    .fil0 {fill:#00008F;fill-rule:nonzero}
    .fil1 {fill:#FFA600;fill-rule:nonzero}
    .fil3 {fill:white;fill-rule:nonzero}
   ]]>
  </style>
 </defs>
 <g id="Layer_x0020_1">
  <metadata id="CorelCorpID_0Corel-Layer"/>
  <g id="_1797790819728">
   <path class="fil0" d="M39.2 15.02l0 21.98c0,2.95 -0.86,5.72 -2.36,8.05 -1.36,2.13 -3.23,3.9 -5.44,5.12 -2.15,1.19 -4.62,1.87 -7.24,1.87l-2.3 0c-2.63,0 -5.1,-0.68 -7.25,-1.87 -2.21,-1.22 -4.08,-2.98 -5.43,-5.12 -1.5,-2.33 -2.36,-5.09 -2.36,-8.05l0 -21.98c0,-2.99 0.89,-5.78 2.42,-8.13 1.37,-2.12 3.26,-3.88 5.48,-5.08 2.12,-1.16 4.56,-1.81 7.14,-1.81l2.3 0c2.58,0 5.01,0.65 7.13,1.81 2.23,1.2 4.12,2.95 5.49,5.08 1.53,2.35 2.42,5.14 2.42,8.13z"/>
   <path class="fil1" d="M2.91 83.53c-1.61,-0.03 -2.91,-1.35 -2.91,-2.97l0 -3.95c0,-1.64 1.33,-2.97 2.97,-2.97l40.08 0c1.64,0 2.97,1.33 2.97,2.97l0 3.95c0,1.62 -1.3,2.94 -2.91,2.97l-40.2 0z"/>
   <path class="fil2 str0" d="M42.58 22.68l0 16.85c0,0 0.2,17.05 -18.41,17.05l-2.31 0c-18.61,0 -18.41,-17.05 -18.41,-17.05l0 -16.85"/>
   <polygon class="fil1" points="25.57,73.63 20.46,73.63 20.46,58.45 25.57,58.45 "/>
   <polygon class="fil1" points="30.5,60.33 15.53,60.33 15.53,56.58 30.5,56.58 "/>
   <path class="fil3" d="M39.2 16.01l-2.64 0c-0.55,0 -0.99,-0.44 -0.99,-0.99 0,-0.55 0.44,-0.99 0.99,-0.99l2.64 0c0.55,0 0.99,0.44 0.99,0.99 0,0.55 -0.44,0.99 -0.99,0.99zm-5.61 0l-2.97 0c-0.55,0 -0.99,-0.44 -0.99,-0.99 0,-0.55 0.44,-0.99 0.99,-0.99l2.97 0c0.55,0 0.99,0.44 0.99,0.99 0,0.55 -0.44,0.99 -0.99,0.99zm-5.95 0l-2.97 0c-0.55,0 -0.99,-0.44 -0.99,-0.99 0,-0.55 0.44,-0.99 0.99,-0.99l2.97 0c0.55,0 0.99,0.44 0.99,0.99 0,0.55 -0.44,0.99 -0.99,0.99zm-5.95 0l-2.97 0c-0.55,0 -0.99,-0.44 -0.99,-0.99 0,-0.55 0.44,-0.99 0.99,-0.99l2.97 0c0.55,0 0.99,0.44 0.99,0.99 0,0.55 -0.44,0.99 -0.99,0.99zm-5.95 0l-2.97 0c-0.55,0 -0.99,-0.44 -0.99,-0.99 0,-0.55 0.44,-0.99 0.99,-0.99l2.97 0c0.55,0 0.99,0.44 0.99,0.99 0,0.55 -0.44,0.99 -0.99,0.99zm-5.95 0l-2.97 0c-0.55,0 -0.99,-0.44 -0.99,-0.99 0,-0.55 0.44,-0.99 0.99,-0.99l2.97 0c0.55,0 0.99,0.44 0.99,0.99 0,0.55 -0.44,0.99 -0.99,0.99z"/>
   <path class="fil3" d="M39.2 22.21l-2.64 0c-0.55,0 -0.99,-0.44 -0.99,-0.99 0,-0.55 0.44,-0.99 0.99,-0.99l2.64 0c0.55,0 0.99,0.44 0.99,0.99 0,0.55 -0.44,0.99 -0.99,0.99zm-5.61 0l-2.97 0c-0.55,0 -0.99,-0.44 -0.99,-0.99 0,-0.55 0.44,-0.99 0.99,-0.99l2.97 0c0.55,0 0.99,0.44 0.99,0.99 0,0.55 -0.44,0.99 -0.99,0.99zm-5.95 0l-2.97 0c-0.55,0 -0.99,-0.44 -0.99,-0.99 0,-0.55 0.44,-0.99 0.99,-0.99l2.97 0c0.55,0 0.99,0.44 0.99,0.99 0,0.55 -0.44,0.99 -0.99,0.99zm-5.95 0l-2.97 0c-0.55,0 -0.99,-0.44 -0.99,-0.99 0,-0.55 0.44,-0.99 0.99,-0.99l2.97 0c0.55,0 0.99,0.44 0.99,0.99 0,0.55 -0.44,0.99 -0.99,0.99zm-5.95 0l-2.97 0c-0.55,0 -0.99,-0.44 -0.99,-0.99 0,-0.55 0.44,-0.99 0.99,-0.99l2.97 0c0.55,0 0.99,0.44 0.99,0.99 0,0.55 -0.44,0.99 -0.99,0.99zm-5.95 0l-2.97 0c-0.55,0 -0.99,-0.44 -0.99,-0.99 0,-0.55 0.44,-0.99 0.99,-0.99l2.97 0c0.55,0 0.99,0.44 0.99,0.99 0,0.55 -0.44,0.99 -0.99,0.99z"/>
   <path class="fil3" d="M39.2 28.42l-2.64 0c-0.55,0 -0.99,-0.44 -0.99,-0.99 0,-0.55 0.44,-0.99 0.99,-0.99l2.64 0c0.55,0 0.99,0.44 0.99,0.99 0,0.55 -0.44,0.99 -0.99,0.99zm-5.61 0l-2.97 0c-0.55,0 -0.99,-0.44 -0.99,-0.99 0,-0.55 0.44,-0.99 0.99,-0.99l2.97 0c0.55,0 0.99,0.44 0.99,0.99 0,0.55 -0.44,0.99 -0.99,0.99zm-5.95 0l-2.97 0c-0.55,0 -0.99,-0.44 -0.99,-0.99 0,-0.55 0.44,-0.99 0.99,-0.99l2.97 0c0.55,0 0.99,0.44 0.99,0.99 0,0.55 -0.44,0.99 -0.99,0.99zm-5.95 0l-2.97 0c-0.55,0 -0.99,-0.44 -0.99,-0.99 0,-0.55 0.44,-0.99 0.99,-0.99l2.97 0c0.55,0 0.99,0.44 0.99,0.99 0,0.55 -0.44,0.99 -0.99,0.99zm-5.95 0l-2.97 0c-0.55,0 -0.99,-0.44 -0.99,-0.99 0,-0.55 0.44,-0.99 0.99,-0.99l2.97 0c0.55,0 0.99,0.44 0.99,0.99 0,0.55 -0.44,0.99 -0.99,0.99zm-5.95 0l-2.97 0c-0.55,0 -0.99,-0.44 -0.99,-0.99 0,-0.55 0.44,-0.99 0.99,-0.99l2.97 0c0.55,0 0.99,0.44 0.99,0.99 0,0.55 -0.44,0.99 -0.99,0.99z"/>
   <path class="fil3" d="M39.2 34.63l-2.64 0c-0.55,0 -0.99,-0.44 -0.99,-0.99 0,-0.55 0.44,-0.99 0.99,-0.99l2.64 0c0.55,0 0.99,0.44 0.99,0.99 0,0.55 -0.44,0.99 -0.99,0.99zm-5.61 0l-2.97 0c-0.55,0 -0.99,-0.44 -0.99,-0.99 0,-0.55 0.44,-0.99 0.99,-0.99l2.97 0c0.55,0 0.99,0.44 0.99,0.99 0,0.55 -0.44,0.99 -0.99,0.99zm-5.95 0l-2.97 0c-0.55,0 -0.99,-0.44 -0.99,-0.99 0,-0.55 0.44,-0.99 0.99,-0.99l2.97 0c0.55,0 0.99,0.44 0.99,0.99 0,0.55 -0.44,0.99 -0.99,0.99zm-5.95 0l-2.97 0c-0.55,0 -0.99,-0.44 -0.99,-0.99 0,-0.55 0.44,-0.99 0.99,-0.99l2.97 0c0.55,0 0.99,0.44 0.99,0.99 0,0.55 -0.44,0.99 -0.99,0.99zm-5.95 0l-2.97 0c-0.55,0 -0.99,-0.44 -0.99,-0.99 0,-0.55 0.44,-0.99 0.99,-0.99l2.97 0c0.55,0 0.99,0.44 0.99,0.99 0,0.55 -0.44,0.99 -0.99,0.99zm-5.95 0l-2.97 0c-0.55,0 -0.99,-0.44 -0.99,-0.99 0,-0.55 0.44,-0.99 0.99,-0.99l2.97 0c0.55,0 0.99,0.44 0.99,0.99 0,0.55 -0.44,0.99 -0.99,0.99z"/>
   <path class="fil3" d="M39.2 40.83l-2.64 0c-0.55,0 -0.99,-0.44 -0.99,-0.99 0,-0.55 0.44,-0.99 0.99,-0.99l2.64 0c0.55,0 0.99,0.44 0.99,0.99 0,0.55 -0.44,0.99 -0.99,0.99zm-5.61 0l-2.97 0c-0.55,0 -0.99,-0.44 -0.99,-0.99 0,-0.55 0.44,-0.99 0.99,-0.99l2.97 0c0.55,0 0.99,0.44 0.99,0.99 0,0.55 -0.44,0.99 -0.99,0.99zm-5.95 0l-2.97 0c-0.55,0 -0.99,-0.44 -0.99,-0.99 0,-0.55 0.44,-0.99 0.99,-0.99l2.97 0c0.55,0 0.99,0.44 0.99,0.99 0,0.55 -0.44,0.99 -0.99,0.99zm-5.95 0l-2.97 0c-0.55,0 -0.99,-0.44 -0.99,-0.99 0,-0.55 0.44,-0.99 0.99,-0.99l2.97 0c0.55,0 0.99,0.44 0.99,0.99 0,0.55 -0.44,0.99 -0.99,0.99zm-5.95 0l-2.97 0c-0.55,0 -0.99,-0.44 -0.99,-0.99 0,-0.55 0.44,-0.99 0.99,-0.99l2.97 0c0.55,0 0.99,0.44 0.99,0.99 0,0.55 -0.44,0.99 -0.99,0.99zm-5.95 0l-2.97 0c-0.55,0 -0.99,-0.44 -0.99,-0.99 0,-0.55 0.44,-0.99 0.99,-0.99l2.97 0c0.55,0 0.99,0.44 0.99,0.99 0,0.55 -0.44,0.99 -0.99,0.99z"/>
  </g>
 </g>
</svg>
