<?xml version="1.0" encoding="UTF-8"?>
<!DOCTYPE svg PUBLIC "-//W3C//DTD SVG 1.1//EN" "http://www.w3.org/Graphics/SVG/1.1/DTD/svg11.dtd">
<svg xmlns="http://www.w3.org/2000/svg" version="1.1" width="283px" height="283px" style="shape-rendering:geometricPrecision; text-rendering:geometricPrecision; image-rendering:optimizeQuality; fill-rule:evenodd; clip-rule:evenodd" xmlns:xlink="http://www.w3.org/1999/xlink">
<g><path style="opacity:0.958" fill="#fbfbfb" d="M 225.5,-0.5 C 239.167,-0.5 252.833,-0.5 266.5,-0.5C 274.167,2.5 279.5,7.83333 282.5,15.5C 282.5,28.8333 282.5,42.1667 282.5,55.5C 277.152,112.191 252.319,158.525 208,194.5C 207.044,208.503 206.044,222.503 205,236.5C 203.633,243.41 200.133,248.91 194.5,253C 179.324,262.696 164.324,272.53 149.5,282.5C 145.5,282.5 141.5,282.5 137.5,282.5C 133.189,280.353 130.022,277.02 128,272.5C 126.279,260.117 124.279,247.783 122,235.5C 115.456,236.888 109.29,235.721 103.5,232C 85.6667,214.167 67.8333,196.333 50,178.5C 46.2785,172.71 45.1118,166.544 46.5,160C 33.1422,157.759 19.8089,155.425 6.5,153C 3.51895,150.536 1.18562,147.703 -0.5,144.5C -0.5,140.5 -0.5,136.5 -0.5,132.5C 10.7178,115.266 22.3845,98.2663 34.5,81.5C 37.9655,79.5114 41.6322,78.0114 45.5,77C 59.4968,75.9558 73.4968,74.9558 87.5,74C 123.187,29.991 169.187,5.15764 225.5,-0.5 Z M 246.5,16.5 C 251.822,17.0293 257.156,17.5293 262.5,18C 269.483,80.0481 249.816,132.048 203.5,174C 190.876,185.617 176.876,195.284 161.5,203C 160.5,203.667 159.5,203.667 158.5,203C 132,176.5 105.5,150 79,123.5C 78.3333,122.5 78.3333,121.5 79,120.5C 114.856,53.6553 170.69,18.9886 246.5,16.5 Z M 189.5,64.5 C 207.975,64.808 217.142,74.1413 217,92.5C 210.861,111.151 198.695,116.651 180.5,109C 168.912,99.978 166.412,88.8113 173,75.5C 175.5,73 178,70.5 180.5,68C 183.571,66.7043 186.571,65.5377 189.5,64.5 Z M 60.5,93.5 C 64.8461,93.3343 69.1794,93.501 73.5,94C 63.0022,108.799 55.1689,124.965 50,142.5C 39.6275,140.207 29.1275,138.374 18.5,137C 27.8333,123.333 37.1667,109.667 46.5,96C 51.336,95.3196 56.0027,94.4862 60.5,93.5 Z M 69.5,141.5 C 93.9641,164.131 117.631,187.631 140.5,212C 132.173,215.583 123.506,217.25 114.5,217C 98,200.5 81.5,184 65,167.5C 64.8998,158.565 66.3998,149.898 69.5,141.5 Z M 187.5,208.5 C 188.607,217.41 188.107,226.41 186,235.5C 172.333,244.833 158.667,254.167 145,263.5C 143.626,252.872 141.793,242.372 139.5,232C 155.661,226.728 170.995,219.728 185.5,211C 186.381,210.292 187.047,209.458 187.5,208.5 Z"/></g>
<g><path style="opacity:0.952" fill="#fcfcfc" d="M 187.5,46.5 C 210.496,45.0712 225.996,55.0712 234,76.5C 239.049,99.0476 231.549,115.881 211.5,127C 187.26,135.589 168.427,129.089 155,107.5C 146.19,83.5975 152.357,64.7642 173.5,51C 178.127,48.9561 182.794,47.4561 187.5,46.5 Z M 189.5,64.5 C 186.571,65.5377 183.571,66.7043 180.5,68C 178,70.5 175.5,73 173,75.5C 166.412,88.8113 168.912,99.978 180.5,109C 198.695,116.651 210.861,111.151 217,92.5C 217.142,74.1413 207.975,64.808 189.5,64.5 Z"/></g>
<g><path style="opacity:0.955" fill="#fcfcfc" d="M -0.5,228.5 C -0.5,225.833 -0.5,223.167 -0.5,220.5C 9.27057,210.228 19.2706,200.062 29.5,190C 37.4794,186.656 42.4794,189.156 44.5,197.5C 44.1012,199.197 43.6012,200.863 43,202.5C 33.1667,212.333 23.3333,222.167 13.5,232C 7.72218,234.733 3.05552,233.566 -0.5,228.5 Z"/></g>
<g><path style="opacity:0.935" fill="#ededed" d="M 12.5,282.5 C 9.5,282.5 6.5,282.5 3.5,282.5C 2.20498,281.512 0.871651,280.512 -0.5,279.5C -0.5,276.167 -0.5,272.833 -0.5,269.5C 17.1903,251.975 34.857,234.142 52.5,216C 60.7468,210.92 66.4135,213.086 69.5,222.5C 68.8064,225.088 67.6398,227.421 66,229.5C 48.2717,247.396 30.4383,265.062 12.5,282.5 Z"/></g>
<g><path style="opacity:0.955" fill="#fcfcfc" d="M 61.5,282.5 C 58.8333,282.5 56.1667,282.5 53.5,282.5C 48.4339,278.944 47.2672,274.278 50,268.5C 59.8333,258.667 69.6667,248.833 79.5,239C 87.4194,236.078 92.0861,238.745 93.5,247C 93.4581,248.967 92.9581,250.801 92,252.5C 81.9382,262.729 71.7716,272.729 61.5,282.5 Z"/></g>
</svg>
