<?xml version="1.0" encoding="UTF-8"?>
<!DOCTYPE svg PUBLIC "-//W3C//DTD SVG 1.1//EN" "http://www.w3.org/Graphics/SVG/1.1/DTD/svg11.dtd">
<svg xmlns="http://www.w3.org/2000/svg" version="1.1" width="341px" height="341px" style="shape-rendering:geometricPrecision; text-rendering:geometricPrecision; image-rendering:optimizeQuality; fill-rule:evenodd; clip-rule:evenodd" xmlns:xlink="http://www.w3.org/1999/xlink">
<g><path style="opacity:0.909" fill="#f7f7f7" d="M 68.5,-0.5 C 71.1667,-0.5 73.8333,-0.5 76.5,-0.5C 81.4669,10.6905 86.1336,22.0238 90.5,33.5C 88.1098,39.5394 84.4431,40.5394 79.5,36.5C 74.6013,26.0397 70.268,15.3731 66.5,4.5C 66.4365,2.48607 67.1032,0.819406 68.5,-0.5 Z"/></g>
<g><path style="opacity:0.912" fill="#f8f8f8" d="M 262.5,-0.5 C 265.5,-0.5 268.5,-0.5 271.5,-0.5C 272.435,2.11279 272.602,4.77946 272,7.5C 268.333,16.5 264.667,25.5 261,34.5C 256.204,41.343 252.038,41.0097 248.5,33.5C 252.778,21.928 257.445,10.5947 262.5,-0.5 Z"/></g>
<g><path style="opacity:0.918" fill="#f9f9f9" d="M 167.5,4.5 C 174.292,4.48053 180.125,6.81386 185,11.5C 191.294,23.2546 197.461,35.088 203.5,47C 206.648,48.6047 209.981,49.6047 213.5,50C 223.885,51.3759 234.218,53.0426 244.5,55C 256.351,61.8725 259.518,71.7058 254,84.5C 244.358,93.8097 235.025,103.476 226,113.5C 227.016,126.579 228.849,139.579 231.5,152.5C 228.742,169.223 219.076,175.39 202.5,171C 191.6,165.258 180.6,159.758 169.5,154.5C 158.361,159.826 147.361,165.326 136.5,171C 115.317,174.819 106.151,165.986 109,144.5C 110.741,135.371 112.241,126.205 113.5,117C 113.458,115.033 112.958,113.199 112,111.5C 107.299,107.134 102.966,102.467 99,97.5C 99.0372,90.8636 102.204,88.6969 108.5,91C 115.5,96.3248 121,102.825 125,110.5C 124.715,124.666 122.881,138.666 119.5,152.5C 121.076,158.913 125.076,161.413 131.5,160C 140.77,155.029 150.104,150.029 159.5,145C 166.167,141.667 172.833,141.667 179.5,145C 188.865,150.015 198.198,155.015 207.5,160C 213.084,161.737 216.917,159.904 219,154.5C 217.459,141.68 215.626,128.846 213.5,116C 213.816,111.901 214.983,108.067 217,104.5C 226.027,95.473 235.027,86.473 244,77.5C 245.724,72.2686 244.224,68.4353 239.5,66C 228.198,64.1146 216.865,62.4479 205.5,61C 199.156,59.5788 194.323,56.0788 191,50.5C 186.311,39.457 180.811,28.7904 174.5,18.5C 169.472,15.4644 165.305,16.4644 162,21.5C 157.035,31.8137 152.035,42.147 147,52.5C 144.795,55.0402 142.295,57.2068 139.5,59C 126.302,61.9724 112.969,64.3057 99.5,66C 96.1874,67.5663 94.5208,70.2329 94.5,74C 95.8333,77.3333 97.1667,80.6667 98.5,84C 97.5014,89.0037 94.5014,90.6703 89.5,89C 82.0373,81.6496 80.5373,73.1496 85,63.5C 87.84,57.996 92.34,54.8293 98.5,54C 110.555,52.2552 122.555,50.2552 134.5,48C 135.333,47.1667 136.167,46.3333 137,45.5C 142.38,34.74 147.713,24.0733 153,13.5C 156.768,8.54452 161.601,5.54452 167.5,4.5 Z"/></g>
<g><path style="opacity:0.909" fill="#f9f9f9" d="M 27.5,40.5 C 30.1873,40.3359 32.854,40.5026 35.5,41C 44.8333,44 54.1667,47 63.5,50C 67.2916,52.0527 68.4582,55.2194 67,59.5C 64.1592,61.5037 60.9926,62.0037 57.5,61C 47.6078,57.3599 37.6078,54.0265 27.5,51C 24.8805,47.5019 24.8805,44.0019 27.5,40.5 Z"/></g>
<g><path style="opacity:0.907" fill="#f8f8f8" d="M 303.5,40.5 C 312.99,39.1377 315.657,42.6377 311.5,51C 301.381,54.0285 291.381,57.3618 281.5,61C 272.01,62.8554 269.344,59.5221 273.5,51C 283.684,47.7272 293.684,44.2272 303.5,40.5 Z"/></g>
<g><path style="opacity:0.905" fill="#f9f9f9" d="M 64.5,84.5 C 72.8038,84.2779 75.1372,87.7779 71.5,95C 62.5885,99.4742 53.2552,102.141 43.5,103C 39.5,99.6667 39.5,96.3333 43.5,93C 50.6287,90.2409 57.6287,87.4076 64.5,84.5 Z"/></g>
<g><path style="opacity:0.903" fill="#f7f7f7" d="M 268.5,84.5 C 278.05,86.4038 287.383,89.2371 296.5,93C 300.276,101.443 297.609,104.776 288.5,103C 281.422,100.53 274.422,97.863 267.5,95C 265.076,91.3063 265.409,87.8063 268.5,84.5 Z"/></g>
<g><path style="opacity:0.926" fill="#fafafa" d="M 147.5,340.5 C 123.167,340.5 98.8333,340.5 74.5,340.5C 74.2172,339.711 73.7172,339.044 73,338.5C 72.954,327.735 72.2873,317.069 71,306.5C 50.6667,283.5 30.3333,260.5 10,237.5C 4.65103,230.596 1.15103,222.929 -0.5,214.5C -0.5,180.833 -0.5,147.167 -0.5,113.5C 5.40015,102.056 14.7335,97.8892 27.5,101C 34.5825,104.413 39.0825,109.913 41,117.5C 42.3368,141.916 44.3368,166.249 47,190.5C 60.796,206.631 74.9627,222.465 89.5,238C 94.3457,241.261 97.6791,239.928 99.5,234C 99.1667,233 98.8333,232 98.5,231C 86.6611,217.828 74.8278,204.662 63,191.5C 56.7886,180.017 58.9552,170.517 69.5,163C 77.9786,160.077 85.6453,161.41 92.5,167C 109.985,185.319 127.652,203.485 145.5,221.5C 156.491,232.284 162.157,245.451 162.5,261C 159.132,283.579 155.298,306.079 151,328.5C 150.358,332.754 149.191,336.754 147.5,340.5 Z M 17.5,111.5 C 23.1397,111.57 26.973,114.237 29,119.5C 30.4536,138.156 31.7869,156.823 33,175.5C 32.7647,185.244 35.0981,194.244 40,202.5C 53.6841,217.017 67.1841,231.683 80.5,246.5C 85.9818,251.218 92.3151,252.718 99.5,251C 112.373,243.842 114.873,234.009 107,221.5C 95.4337,209.356 84.1004,197.023 73,184.5C 70.0105,176.317 72.8438,172.817 81.5,174C 102.697,195.196 123.53,216.696 144,238.5C 148.109,245.435 150.276,252.935 150.5,261C 146.825,283.894 142.825,306.727 138.5,329.5C 120.5,329.5 102.5,329.5 84.5,329.5C 84.6663,322.492 84.4996,315.492 84,308.5C 83.7497,305.246 82.7497,302.246 81,299.5C 60.0193,275.352 38.8526,251.352 17.5,227.5C 15.0211,223.837 13.1878,219.837 12,215.5C 11.0136,183.17 10.6803,150.837 11,118.5C 12.3483,115.321 14.515,112.988 17.5,111.5 Z"/></g>
<g><path style="opacity:0.924" fill="#f9f9f9" d="M 340.5,114.5 C 340.5,147.167 340.5,179.833 340.5,212.5C 339.253,221.675 335.753,230.008 330,237.5C 324.167,244 318.333,250.5 312.5,257C 304.966,257.964 302.299,254.798 304.5,247.5C 310.5,240.833 316.5,234.167 322.5,227.5C 325.386,223.634 327.22,219.3 328,214.5C 328.722,182.832 329.056,151.166 329,119.5C 326.724,112.612 322.224,110.445 315.5,113C 313.622,114.543 312.122,116.376 311,118.5C 309,143.167 307,167.833 305,192.5C 303.777,196.615 301.777,200.282 299,203.5C 284.833,218.667 270.667,233.833 256.5,249C 243.616,254.797 234.449,251.297 229,238.5C 227.532,232.14 228.865,226.474 233,221.5C 244.566,209.356 255.9,197.023 267,184.5C 269.81,178.483 267.976,174.816 261.5,173.5C 258.25,174.13 255.584,175.797 253.5,178.5C 234.819,197.348 216.319,216.348 198,235.5C 191.034,245.41 188.367,256.41 190,268.5C 193.696,288.881 197.53,309.214 201.5,329.5C 219.5,329.5 237.5,329.5 255.5,329.5C 255.334,322.159 255.5,314.826 256,307.5C 256.856,303.456 258.522,299.789 261,296.5C 271.5,284.833 282,273.167 292.5,261.5C 301.987,259.46 304.487,262.793 300,271.5C 290.234,282.689 280.234,293.689 270,304.5C 269.333,305.833 268.667,307.167 268,308.5C 267.667,318.5 267.333,328.5 267,338.5C 266.283,339.044 265.783,339.711 265.5,340.5C 241.167,340.5 216.833,340.5 192.5,340.5C 190.914,337.06 189.747,333.393 189,329.5C 184.608,306.758 180.775,283.925 177.5,261C 177.608,249.012 181.108,238.178 188,228.5C 208.167,207.667 228.333,186.833 248.5,166C 258.719,159.406 268.219,160.239 277,168.5C 281.667,176.167 281.667,183.833 277,191.5C 265.167,204.5 253.333,217.5 241.5,230.5C 239.97,235.112 241.47,238.445 246,240.5C 247.419,239.54 248.919,238.707 250.5,238C 264.333,222.833 278.167,207.667 292,192.5C 292.471,190.754 293.138,189.087 294,187.5C 295.704,163.836 297.37,140.169 299,116.5C 303.725,102.883 313.225,97.7161 327.5,101C 333.748,103.747 338.082,108.247 340.5,114.5 Z"/></g>
</svg>
