<?xml version="1.0" encoding="UTF-8"?>
<!DOCTYPE svg PUBLIC "-//W3C//DTD SVG 1.1//EN" "http://www.w3.org/Graphics/SVG/1.1/DTD/svg11.dtd">
<!-- Creator: CorelDRAW 2021 (64-Bit) -->
<svg xmlns="http://www.w3.org/2000/svg" xml:space="preserve" width="0.355469in" height="0.36389in" version="1.1" style="shape-rendering:geometricPrecision; text-rendering:geometricPrecision; image-rendering:optimizeQuality; fill-rule:evenodd; clip-rule:evenodd"
viewBox="0 0 23.13 23.68"
 xmlns:xlink="http://www.w3.org/1999/xlink"
 xmlns:xodm="http://www.corel.com/coreldraw/odm/2003">
 <defs>
  <style type="text/css">
   <![CDATA[
    .fil0 {fill:#003399;fill-rule:nonzero}
   ]]>
  </style>
 </defs>
 <g id="Layer_x0020_1">
  <metadata id="CorelCorpID_0Corel-Layer"/>
  <g id="_1797729594032">
   <g id="surface1">
    <path class="fil0" d="M10.81 0c-7.02,0 -10.81,5.15 -10.81,9.99 0,2.57 1,4.53 1.98,6.43 0.83,1.62 1.62,3.16 1.62,4.89l0 2.36 12.35 0 0 -1.54 0.97 0c2.3,0 4.18,-1.88 4.18,-4.18l0 -2.17 1 -0.42c0.44,-0.18 0.78,-0.54 0.93,-1 0.16,-0.45 0.12,-0.95 -0.11,-1.37l-2.11 -3.8c-0.74,-5.93 -4.29,-9.2 -10,-9.2zm0 6.18c2.56,0 4.63,2.07 4.63,4.63 0,1.78 -1.02,3.33 -2.49,4.1 -0.25,0.45 -0.46,0.94 -0.55,1.56l-3.17 0c-0.08,-0.62 -0.31,-1.11 -0.56,-1.56 -1.48,-0.77 -2.49,-2.31 -2.49,-4.1 0,-2.56 2.07,-4.63 4.63,-4.63zm-1.29 4.12c-0.43,0 -0.77,0.35 -0.77,0.77 0,0.43 0.35,0.77 0.77,0.77 0.27,0 0.5,-0.13 0.64,-0.34 0.08,0.09 0.13,0.21 0.13,0.34l0 3.6 1.03 0 0 -3.6c0,-0.13 0.05,-0.25 0.13,-0.34 0.14,0.21 0.38,0.34 0.64,0.34 0.43,0 0.77,-0.35 0.77,-0.77 0,-0.43 -0.35,-0.77 -0.77,-0.77l-0.26 0c-0.39,0 -0.76,0.15 -1.03,0.4 -0.27,-0.25 -0.64,-0.4 -1.03,-0.4l-0.26 0zm-0.26 7.21l3.09 0 0 0.51c0,0.42 -0.25,0.77 -0.61,0.93 -0.16,0.36 -0.51,0.61 -0.93,0.61 -0.42,0 -0.77,-0.25 -0.93,-0.61 -0.36,-0.16 -0.61,-0.51 -0.61,-0.93l0 -0.51z"/>
   </g>
  </g>
 </g>
</svg>
