<svg width="104" height="40" viewBox="0 0 104 40" fill="none" xmlns="http://www.w3.org/2000/svg">
<path d="M22.3877 13.2467L16.798 24.6452L7.52344 12.0456H22.9794L33.5336 26.3856L27.0876 39.5245H10.8186L17.2646 26.3856H32.0567L22.3877 13.2467Z" fill="#45C734"/>
<path d="M6.44601 12.5849L0 25.7238L9.76041 38.9852L16.2064 25.8512L6.44601 12.5849Z" fill="#45C734"/>
<path d="M45.7524 4.82902C45.7524 6.97144 48.4366 10.4032 50.8322 12.8447H56.547V14.9822C54.6307 15.0159 52.716 14.8516 50.8322 14.492V37.2889L53.1268 39.2499V39.549H39.9894V39.2205L42.2359 37.2595L42.0868 14.8106L39.1572 13.1438V12.8447H42.0868L41.9906 11.2759C41.4518 1.69138 50.736 0 52.1503 0C56.1093 0 58.9907 1.69138 60.8476 4.02991L56.5951 11.0994L56.3017 11.0504C54.3583 6.52041 50.2934 2.58855 47.8016 2.58855C46.2911 2.58855 45.7524 3.6328 45.7524 4.82902Z" fill="black"/>
<path d="M79.2332 32.3569C75.1443 36.9016 71.6856 40.0294 70.05 40.0245C62.3533 40.0245 56.422 34.916 56.4317 26.6454C56.4317 15.0459 66.9184 12.5162 69.6075 12.5211C75.659 12.5211 78.5357 16.3991 78.9109 21.2918C78.9109 22.6645 72.5178 25.6404 70.5022 25.6355H64.3545C66.1295 29.7487 69.5305 33.4796 74.4564 33.4796C75.8033 33.4796 77.0541 33.1413 78.9734 32.1167L79.2332 32.3569ZM62.9258 19.12C62.9641 21.0471 63.3353 22.9523 64.0225 24.7481H70.3098C70.2232 19.0709 68.1644 14.7616 65.5234 14.7567C64.1332 14.7371 62.9306 16.1784 62.9258 19.12Z" fill="black"/>
<path d="M103.333 13.3398L90.0518 38.5782C95.5694 38.5292 97.229 35.6367 102.357 25.0913H102.65V39.1763L102.554 39.5244H80.9648V39.2205L93.6163 13.9331C88.9742 14.0311 87.6081 15.2764 82.0376 26.3807H81.696L81.6479 13.2859L81.8452 13.0359H103.333V13.3398Z" fill="black"/>
</svg>
