<?xml version="1.0" encoding="UTF-8"?>
<svg id="Layer_1" xmlns="http://www.w3.org/2000/svg" xmlns:xlink="http://www.w3.org/1999/xlink" version="1.1" viewBox="0 0 969.81 212.62">
  <!-- Generator: Adobe Illustrator 29.0.1, SVG Export Plug-In . SVG Version: 2.1.0 Build 192)  -->
  <defs>
    <style>
      .st0 {
        fill: none;
      }

      .st1 {
        isolation: isolate;
      }

      .st2 {
        fill: #1a69e4;
      }

      .st3 {
        clip-path: url(#clipPath);
      }
    </style>
    <clipPath id="clipPath">
      <rect class="st0" x="7.86" y="-12" width="969.81" height="212.62"/>
    </clipPath>
  </defs>
  <g class="st3">
    <g>
      <path class="st2" d="M213.26,163.63c-10.49,0-19.57-2.08-27.25-6.24s-13.6-10.06-17.76-17.68c-4.17-7.62-6.25-16.63-6.25-27s2.06-19.33,6.17-26.84c4.11-7.51,9.94-13.3,17.52-17.36,7.57-4.06,16.43-6.08,26.6-6.08s18.49,1.92,25.63,5.76c7.13,3.84,12.65,9.35,16.54,16.54s5.84,15.71,5.84,25.54v8.43h-74.93c.86,8.22,3.7,14.52,8.51,18.9,4.81,4.38,11.21,6.57,19.22,6.57,5.95,0,10.79-1.1,14.52-3.32,3.73-2.22,6.35-5.54,7.86-9.98h24.33c-2.28,10.27-7.49,18.3-15.65,24.09-8.16,5.78-18.46,8.67-30.9,8.67M185.85,102.32h51.26c-.97-6.7-3.57-11.81-7.79-15.32-4.22-3.51-9.89-5.28-17.03-5.28s-12.81,1.79-17.36,5.35c-4.54,3.57-7.56,8.66-9.08,15.25"/>
      <path class="st2" d="M306.52,161.68c-6.39,0-11.33-1.62-14.84-4.86-3.51-3.25-5.27-8.17-5.27-14.76v-58.87h-17.19v-18.81h17.35v-29.2h23.68v29.2h23.52v18.81h-23.19v59.52h25.47v18.97h-29.53Z"/>
      <path class="st2" d="M359.07,161.68v-73.15h-12v-24.17h24.66v18.81h6.81c2.7-6.49,6.87-11.41,12.49-14.76,5.62-3.35,12.05-5.02,19.3-5.02h8.11v20.76h-9.24c-8.76,0-15.32,2.54-19.7,7.62s-6.57,11.84-6.57,20.27v49.63h-23.86Z"/>
      <path class="st2" d="M475.04,163.63c-10.38,0-19.43-2.08-27.17-6.24-7.73-4.16-13.73-10.06-18-17.68-4.28-7.62-6.41-16.57-6.41-26.84s2.13-19.19,6.41-26.77c4.27-7.56,10.3-13.4,18.09-17.52,7.78-4.1,16.86-6.16,27.25-6.16s19.7,2.06,27.33,6.16c7.62,4.11,13.54,9.95,17.76,17.52,4.21,7.57,6.32,16.54,6.32,26.93s-2.11,19.22-6.32,26.84c-4.22,7.62-10.17,13.49-17.85,17.59-7.68,4.11-16.81,6.17-27.41,6.17M475.21,142.55c8.65,0,15.35-2.62,20.11-7.87,4.75-5.24,7.13-12.46,7.13-21.65s-2.38-16.54-7.13-21.74c-4.76-5.19-11.46-7.78-20.11-7.78s-15.55,2.59-20.36,7.78c-4.82,5.19-7.22,12.38-7.22,21.58s2.41,16.57,7.22,21.81c4.81,5.25,11.6,7.87,20.36,7.87"/>
      <path class="st2" d="M533.59,161.68l56.6-131.37h18.01l56.44,131.37h-15.57l-17.84-41.52h-64.56l-17.84,41.52h-15.25.01ZM571.71,106.54h54.49l-26.76-62.61h-.81l-26.92,62.61Z"/>
      <path class="st2" d="M682.82,200.62v-120.03h-8.11v-16.21h16.87v14.6h6.81c3.24-5.4,7.62-9.51,13.14-12.33,5.51-2.81,12.16-4.22,19.95-4.22,9.62,0,17.84,2.03,24.65,6.08,6.82,4.06,12.03,9.87,15.65,17.43,3.62,7.57,5.44,16.6,5.44,27.09s-1.79,19.52-5.35,27.09c-3.57,7.57-8.68,13.38-15.33,17.43-6.65,4.06-14.57,6.08-23.76,6.08-7.9,0-14.79-1.6-20.68-4.78-5.9-3.19-10.36-7.76-13.38-13.71h-.65v55.47h-15.25ZM729.36,150.66c10.27,0,18.27-3.3,24.01-9.89,5.73-6.59,8.6-15.84,8.6-27.73s-2.87-21.14-8.6-27.73c-5.73-6.6-13.73-9.89-24.01-9.89-9.41,0-16.97,2.7-22.71,8.11-5.73,5.41-8.59,12.6-8.59,21.57v15.89c0,8.98,2.86,16.17,8.59,21.58,5.73,5.4,13.3,8.11,22.71,8.11"/>
      <path class="st2" d="M802.84,200.62v-120.03h-8.11v-16.21h16.87v14.6h6.81c3.24-5.4,7.62-9.51,13.14-12.33,5.51-2.81,12.16-4.22,19.95-4.22,9.62,0,17.84,2.03,24.65,6.08,6.82,4.06,12.03,9.87,15.65,17.43,3.62,7.57,5.44,16.6,5.44,27.09s-1.79,19.52-5.35,27.09c-3.57,7.57-8.68,13.38-15.33,17.43-6.65,4.06-14.57,6.08-23.76,6.08-7.89,0-14.79-1.6-20.68-4.78-5.9-3.19-10.36-7.76-13.38-13.71h-.65v55.47h-15.25ZM849.39,150.66c10.28,0,18.27-3.3,24.01-9.89,5.73-6.59,8.6-15.84,8.6-27.73s-2.87-21.14-8.6-27.73c-5.73-6.6-13.73-9.89-24.01-9.89-9.41,0-16.97,2.7-22.71,8.11-5.73,5.41-8.59,12.6-8.59,21.57v15.89c0,8.98,2.86,16.17,8.59,21.58,5.73,5.4,13.3,8.11,22.71,8.11"/>
      <path class="st2" d="M145,41.68c-8.68-7.88-20.88-11.81-36.62-11.81h-57.34v22.74h55.79c8.08,0,14.25,1.9,18.47,5.72s6.34,9.07,6.34,15.78-2.12,11.98-6.34,15.8c-4.22,3.82-10.39,5.72-18.47,5.72h-55.79v66.08h22.96v-43.39h32.83v.05h1.55c15.62,0,27.8-3.96,36.52-11.89,8.74-7.93,13.1-18.71,13.1-32.37s-4.33-24.57-13.01-32.43"/>
      <rect class="st2" x="7.86" y="52.61" width="43.18" height="43.18"/>
      <g class="st1">
        <path class="st2" d="M919.77,64.81c0-10.71,8.82-19.3,19.88-19.3s19.65,8.59,19.65,19.3-8.59,19.41-19.65,19.41-19.88-8.47-19.88-19.41ZM954.48,64.93c0-8.59-6.24-15.41-14.83-15.41s-14.94,6.82-14.94,15.3,6.47,15.41,15.06,15.41,14.71-6.82,14.71-15.3ZM932.13,55.64c1.65-.35,4.24-.59,7.41-.59,3.65,0,5.41.59,6.71,1.41,1.06.82,1.88,2.35,1.88,4.24,0,2.12-1.76,3.76-4,4.47v.24c1.88.59,2.82,2.12,3.41,4.82.59,2.82,1.06,4,1.53,4.71h-4.82c-.59-.71-1.06-2.47-1.53-4.71-.47-2.12-1.53-3.06-4-3.06h-2.12v7.77h-4.47v-19.3ZM938.83,63.99c2.35,0,4.47-.94,4.47-2.82,0-1.65-1.29-2.94-4.12-2.94-1.18,0-2,.12-2.47.24v5.53h2.12Z"/>
      </g>
    </g>
  </g>
</svg>