<?xml version="1.0" encoding="UTF-8"?>
<!DOCTYPE svg PUBLIC "-//W3C//DTD SVG 1.1//EN" "http://www.w3.org/Graphics/SVG/1.1/DTD/svg11.dtd">
<!-- Creator: CorelDRAW 2021 (64-Bit) -->
<svg xmlns="http://www.w3.org/2000/svg" xml:space="preserve" width="0.161236in" height="0.138209in" version="1.1" style="shape-rendering:geometricPrecision; text-rendering:geometricPrecision; image-rendering:optimizeQuality; fill-rule:evenodd; clip-rule:evenodd"
viewBox="0 0 20.38 17.47"
 xmlns:xlink="http://www.w3.org/1999/xlink"
 xmlns:xodm="http://www.corel.com/coreldraw/odm/2003">111
 <defs>
  <style type="text/css">
   <![CDATA[
    .fil0 {fill:#FEB510;fill-rule:nonzero}
   ]]>
  </style>
 </defs>
 <g id="Layer_x0020_1">
  <metadata id="CorelCorpID_0Corel-Layer"/>
  <g id="surface1">
   <path class="fil0" d="M3.64 0c-1.2,0 -2.18,0.98 -2.18,2.18 0,1.2 0.98,2.18 2.18,2.18 1.2,0 2.18,-0.98 2.18,-2.18 0,-1.2 -0.98,-2.18 -2.18,-2.18zm0 4.37l-1.46 0c-1.2,0 -2.18,0.98 -2.18,2.18l0 4.67 1.46 1.46 0 4.79 4.37 0 0 -7.28 -1.46 0 0 5.82 -1.46 0 0 -3.94 -1.46 -1.46 0 -4.06c0,-0.41 0.32,-0.73 0.73,-0.73l2.91 0c0.22,0 0.79,0.26 1.36,0.62 0.57,0.36 1.08,0.84 1.92,0.84l3.28 0 0 -1.46 -3.28 0c0.04,0 -0.55,-0.24 -1.14,-0.61 -0.59,-0.38 -1.26,-0.84 -2.13,-0.84l-1.46 0zm5.82 -4.37c-0.4,0 -0.73,0.32 -0.73,0.73l0 3.64 8.73 0 0 5.82 -7.28 0 0 -1.46 -1.46 0 0 5.09c0,0.04 0,0.08 0.01,0.11l-1.38 2.44c-0.13,0.23 -0.13,0.5 0.01,0.73 0.13,0.22 0.37,0.36 0.63,0.36l11.65 0c0.25,0 0.48,-0.13 0.62,-0.35 0.13,-0.21 0.14,-0.48 0.03,-0.7l-1.38 -2.76 0 -12.93c0,-0.4 -0.32,-0.73 -0.73,-0.73l-8.73 0zm-5.82 1.46c0.41,0 0.73,0.32 0.73,0.73 0,0.41 -0.32,0.73 -0.73,0.73 -0.41,0 -0.73,-0.32 -0.73,-0.73 0,-0.41 0.32,-0.73 0.73,-0.73zm6.55 0l7.28 0 0 1.46 -7.28 0 0 -1.46zm0 10.19l7.28 0 0 1.46 -7.28 0 0 -1.46zm-0.12 2.91l7.68 0 0.73 1.46 -9.22 0 0.82 -1.46z"/>
  </g>
 </g>
</svg>
