<?xml version="1.0" encoding="UTF-8"?>
<!DOCTYPE svg PUBLIC "-//W3C//DTD SVG 1.1//EN" "http://www.w3.org/Graphics/SVG/1.1/DTD/svg11.dtd">
<!-- Creator: CorelDRAW 2021 (64-Bit) -->
<svg xmlns="http://www.w3.org/2000/svg" xml:space="preserve" width="0.148969in" height="0.152496in" version="1.1" style="shape-rendering:geometricPrecision; text-rendering:geometricPrecision; image-rendering:optimizeQuality; fill-rule:evenodd; clip-rule:evenodd"
viewBox="0 0 17.49 17.9"
 xmlns:xlink="http://www.w3.org/1999/xlink"
 xmlns:xodm="http://www.corel.com/coreldraw/odm/2003">
 <defs>
  <style type="text/css">
   <![CDATA[
    .fil0 {fill:#33cc66;fill-rule:nonzero}
   ]]>
  </style>
 </defs>
 <g id="Layer_x0020_1">
  <metadata id="CorelCorpID_0Corel-Layer"/>
  <g id="_2220979516768">
   <g id="surface1">
    <path class="fil0" d="M8.17 0c-5.31,0 -8.17,3.89 -8.17,7.55 0,1.95 0.76,3.43 1.5,4.87 0.63,1.23 1.23,2.39 1.23,3.7l0 1.79 9.34 0 0 -1.17 0.73 0c1.74,0 3.16,-1.42 3.16,-3.16l0 -1.64 0.75 -0.32c0.33,-0.14 0.59,-0.41 0.71,-0.75 0.12,-0.34 0.09,-0.72 -0.09,-1.03l-1.59 -2.87c-0.56,-4.49 -3.25,-6.96 -7.57,-6.96zm0 4.67c1.94,0 3.5,1.57 3.5,3.5 0,1.35 -0.77,2.52 -1.88,3.1 -0.19,0.34 -0.35,0.71 -0.41,1.18l-2.4 0c-0.06,-0.47 -0.24,-0.84 -0.43,-1.18 -1.12,-0.58 -1.89,-1.75 -1.89,-3.1 0,-1.94 1.57,-3.5 3.5,-3.5zm-0.97 3.11c-0.32,0 -0.58,0.26 -0.58,0.58 0,0.32 0.26,0.58 0.58,0.58 0.2,0 0.38,-0.1 0.49,-0.26 0.06,0.07 0.1,0.15 0.1,0.26l0 2.72 0.78 0 0 -2.72c0,-0.1 0.04,-0.19 0.1,-0.26 0.1,0.15 0.28,0.26 0.49,0.26 0.32,0 0.58,-0.26 0.58,-0.58 0,-0.32 -0.26,-0.58 -0.58,-0.58l-0.19 0c-0.3,0 -0.57,0.12 -0.78,0.3 -0.21,-0.19 -0.48,-0.3 -0.78,-0.3l-0.19 0zm-0.19 5.45l2.34 0 0 0.39c0,0.32 -0.19,0.58 -0.46,0.71 -0.12,0.27 -0.39,0.46 -0.71,0.46 -0.32,0 -0.58,-0.19 -0.71,-0.46 -0.27,-0.12 -0.46,-0.39 -0.46,-0.71l0 -0.39z"/>
   </g>
  </g>
 </g>
</svg>
