<?xml version="1.0" encoding="UTF-8"?>
<!DOCTYPE svg PUBLIC "-//W3C//DTD SVG 1.1//EN" "http://www.w3.org/Graphics/SVG/1.1/DTD/svg11.dtd">
<svg xmlns="http://www.w3.org/2000/svg" version="1.1" width="382px" height="382px" style="shape-rendering:geometricPrecision; text-rendering:geometricPrecision; image-rendering:optimizeQuality; fill-rule:evenodd; clip-rule:evenodd" xmlns:xlink="http://www.w3.org/1999/xlink">
<g><path style="opacity:0.927" fill="#fafafa" d="M 249.5,-0.5 C 260.833,-0.5 272.167,-0.5 283.5,-0.5C 301.512,3.08963 317.346,11.0896 331,23.5C 332.201,32.1034 328.701,34.9367 320.5,32C 300.52,15.0643 277.52,8.73094 251.5,13C 253.261,15.941 255.928,17.6077 259.5,18C 267.983,18.9351 276.316,20.6018 284.5,23C 292.413,30.6331 292.413,38.2998 284.5,46C 270.401,49.1332 257.901,55.2999 247,64.5C 245.692,66.1343 244.858,67.9676 244.5,70C 248.288,77.7937 248.788,85.6271 246,93.5C 241.544,98.9949 235.711,101.828 228.5,102C 214.134,102.837 199.801,104.004 185.5,105.5C 185.267,110.034 186.1,114.368 188,118.5C 191.53,119.679 195.03,121.012 198.5,122.5C 207.417,118.417 216.75,115.751 226.5,114.5C 244.974,117.175 252.474,127.842 249,146.5C 247.238,151.956 245.404,157.289 243.5,162.5C 250.698,164.028 255.364,168.362 257.5,175.5C 281.542,178.468 302.542,171.968 320.5,156C 312.055,150.555 303.888,144.721 296,138.5C 290.25,131.207 287.917,122.873 289,113.5C 288.265,111.129 287.432,108.795 286.5,106.5C 280.208,100.709 274.041,94.7089 268,88.5C 264.178,79.5907 265.678,71.7574 272.5,65C 277.602,62.6567 282.936,61.99 288.5,63C 293.593,65.3957 298.259,68.3957 302.5,72C 317.12,73.5799 331.787,73.9133 346.5,73C 343.659,63.9842 339.992,55.3175 335.5,47C 336.315,40.9605 339.648,38.9605 345.5,41C 360.215,62.2278 365.382,85.7278 361,111.5C 355.676,138.665 341.509,159.832 318.5,175C 336.707,230.265 328.04,280.599 292.5,326C 299.939,326.07 307.272,326.737 314.5,328C 317.167,331.333 317.167,334.667 314.5,338C 304.934,339.613 295.267,339.947 285.5,339C 281.833,338.667 278.167,338.333 274.5,338C 273.151,337.228 272.318,336.061 272,334.5C 271.333,321.833 271.333,309.167 272,296.5C 275.746,292.607 279.412,292.607 283,296.5C 284.196,302.419 284.862,308.419 285,314.5C 315.242,274.063 322.409,229.73 306.5,181.5C 290.181,188.167 273.181,191 255.5,190C 254.042,192.46 252.209,194.627 250,196.5C 253.632,203.298 257.299,210.298 261,217.5C 276.065,254.919 267.898,285.919 236.5,310.5C 211.569,324.821 186.569,324.988 161.5,311C 159.5,309.333 157.5,307.667 155.5,306C 131.5,305.667 107.5,305.333 83.5,305C 73.663,301.66 67.9963,294.827 66.5,284.5C 67.3366,278.981 69.3366,273.981 72.5,269.5C 64.5976,259.69 64.5976,249.856 72.5,240C 64.5292,230.075 64.6958,220.242 73,210.5C 75.8593,208.106 79.026,206.272 82.5,205C 88.1667,204.333 93.8333,204.333 99.5,205C 103.5,209 103.5,213 99.5,217C 94.8333,217.333 90.1667,217.667 85.5,218C 79.7409,221.892 79.0742,226.559 83.5,232C 84.8333,232.667 86.1667,233.333 87.5,234C 102.163,234.5 116.83,234.667 131.5,234.5C 132.758,229.058 134.425,223.724 136.5,218.5C 130.087,217.92 123.753,217.087 117.5,216C 115.933,212.108 116.267,208.442 118.5,205C 126.833,204.667 135.167,204.333 143.5,204C 145.167,201.667 146.833,199.333 148.5,197C 140.839,190.602 138.339,182.435 141,172.5C 144.246,167.259 148.746,163.425 154.5,161C 146.989,148.802 146.155,136.302 152,123.5C 157.356,117.277 164.189,114.277 172.5,114.5C 171.768,105.185 171.434,95.8517 171.5,86.5C 142.338,87.2883 115.671,95.7883 91.5,112C 85.984,113.925 82.6507,112.091 81.5,106.5C 81.8481,104.303 82.8481,102.47 84.5,101C 111.273,82.9118 140.94,73.7452 173.5,73.5C 184.098,33.5671 209.431,8.90046 249.5,-0.5 Z M 234.5,17.5 C 238.5,18.6556 241.5,21.1556 243.5,25C 245.5,26.3333 247.5,27.6667 249.5,29C 258.12,31.157 266.786,32.9903 275.5,34.5C 265.945,38.1845 256.611,42.3511 247.5,47C 240.562,51.2711 235.395,57.1045 232,64.5C 230.722,71.5122 231.889,78.0122 235.5,84C 234.929,85.2051 234.262,86.3717 233.5,87.5C 228.958,88.95 224.292,89.7834 219.5,90C 207.799,90.4647 196.132,91.2981 184.5,92.5C 186.745,57.9154 203.412,32.9154 234.5,17.5 Z M 282.5,74.5 C 287.746,78.5587 293.413,82.0587 299.5,85C 315.79,86.4061 332.124,86.9061 348.5,86.5C 350.553,108.963 344.553,128.963 330.5,146.5C 320.446,140.568 311.28,133.568 303,125.5C 303.084,117.252 301.751,109.252 299,101.5C 292.55,93.8474 285.716,86.5141 278.5,79.5C 279.16,77.1853 280.493,75.5186 282.5,74.5 Z M 168.5,127.5 C 178.76,129.708 188.927,132.374 199,135.5C 208.205,132.931 217.371,130.265 226.5,127.5C 233.052,128.262 236.718,131.929 237.5,138.5C 236.237,147.562 232.237,155.062 225.5,161C 207.5,161.667 189.5,161.667 171.5,161C 162.987,153.171 159.821,143.671 162,132.5C 163.965,130.45 166.132,128.783 168.5,127.5 Z M 156.5,174.5 C 184.502,174.333 212.502,174.5 240.5,175C 245.833,178.667 245.833,182.333 240.5,186C 212.5,186.667 184.5,186.667 156.5,186C 151.248,182.173 151.248,178.34 156.5,174.5 Z M 162.5,199.5 C 186.502,199.333 210.502,199.5 234.5,200C 250.291,218.27 256.791,239.437 254,263.5C 245.845,290.992 227.512,305.992 199,308.5C 164.497,304.831 145.664,285.831 142.5,251.5C 142.616,242.891 144.116,234.557 147,226.5C 151.2,216.835 156.366,207.835 162.5,199.5 Z M 85.5,246.5 C 100.167,246.5 114.833,246.5 129.5,246.5C 129.313,252.212 129.646,257.879 130.5,263.5C 115.83,263.667 101.163,263.5 86.5,263C 78.8732,258.009 78.5399,252.509 85.5,246.5 Z M 84.5,276.5 C 101.167,276.5 117.833,276.5 134.5,276.5C 136.118,282.17 138.784,287.337 142.5,292C 123.5,292.667 104.5,292.667 85.5,292C 79.1873,287.272 78.854,282.105 84.5,276.5 Z"/></g>
<g><path style="opacity:0.926" fill="#f9f9f9" d="M 194.5,381.5 C 180.167,381.5 165.833,381.5 151.5,381.5C 85.1468,368.904 42.3135,330.237 23,265.5C 12.0331,215.421 22.1997,170.255 53.5,130C 46.8333,129.667 40.1667,129.333 33.5,129C 28.5899,125.432 28.2565,121.432 32.5,117C 45.5,116.333 58.5,116.333 71.5,117C 72.3333,117.833 73.1667,118.667 74,119.5C 75.1104,126.424 75.6104,133.424 75.5,140.5C 75.3333,146.5 75.1667,152.5 75,158.5C 71.8468,161.569 68.1802,162.235 64,160.5C 62.7446,153.941 62.0779,147.274 62,140.5C 29.9342,183.645 23.2675,230.645 42,281.5C 65.1731,331.99 104.34,361.157 159.5,369C 194.67,371.265 226.67,362.599 255.5,343C 262.885,342.053 265.719,345.22 264,352.5C 250.502,363.334 235.336,371.167 218.5,376C 210.44,378.164 202.44,379.997 194.5,381.5 Z"/></g>
<g><path style="opacity:0.92" fill="#f8f8f8" d="M 196.5,211.5 C 203.813,211.488 206.813,215.155 205.5,222.5C 210.579,223.623 215.079,225.957 219,229.5C 221.17,235.146 219.17,238.479 213,239.5C 208.794,237.152 204.294,235.485 199.5,234.5C 197.291,234.569 195.291,235.236 193.5,236.5C 191.96,237.532 191.46,238.865 192,240.5C 199.51,243.924 207.01,247.424 214.5,251C 223.756,260.593 223.756,270.26 214.5,280C 211.691,281.741 208.691,282.908 205.5,283.5C 206.336,291.829 202.67,294.995 194.5,293C 192.975,290.092 191.975,286.926 191.5,283.5C 186.011,281.51 181.178,278.51 177,274.5C 174.514,268.804 176.348,265.137 182.5,263.5C 185.829,264.322 188.495,266.155 190.5,269C 195.895,272.13 201.229,272.13 206.5,269C 209.167,266.667 209.167,264.333 206.5,262C 199.207,258.689 191.874,255.356 184.5,252C 176.33,242.856 176.663,234.023 185.5,225.5C 187.487,223.673 189.821,222.673 192.5,222.5C 192.336,219.813 192.503,217.146 193,214.5C 194.145,213.364 195.312,212.364 196.5,211.5 Z"/></g>
</svg>
