<?xml version="1.0" encoding="UTF-8"?>
<!DOCTYPE svg PUBLIC "-//W3C//DTD SVG 1.1//EN" "http://www.w3.org/Graphics/SVG/1.1/DTD/svg11.dtd">
<svg xmlns="http://www.w3.org/2000/svg" version="1.1" width="350px" height="350px" style="shape-rendering:geometricPrecision; text-rendering:geometricPrecision; image-rendering:optimizeQuality; fill-rule:evenodd; clip-rule:evenodd" xmlns:xlink="http://www.w3.org/1999/xlink">
<g><path style="opacity:0.894" fill="#f6f6f6" d="M 102.5,6.5 C 150.501,6.33334 198.501,6.50001 246.5,7C 258.604,9.76166 267.104,16.9283 272,28.5C 273.445,50.4551 273.945,72.4551 273.5,94.5C 279.868,94.8297 286.202,94.4963 292.5,93.5C 297.885,82.978 306.219,79.8113 317.5,84C 326.396,91.3427 327.73,99.8427 321.5,109.5C 314.415,116.025 306.748,116.859 298.5,112C 296.257,109.512 294.257,106.846 292.5,104C 286.175,103.5 279.842,103.334 273.5,103.5C 273.5,123.167 273.5,142.833 273.5,162.5C 285.833,162.5 298.167,162.5 310.5,162.5C 314.184,152.154 321.518,148.321 332.5,151C 342.745,156.994 345.245,165.494 340,176.5C 332.698,184.517 324.531,185.517 315.5,179.5C 312.887,176.964 311.22,173.964 310.5,170.5C 298.167,170.5 285.833,170.5 273.5,170.5C 273.5,190.5 273.5,210.5 273.5,230.5C 279.868,230.83 286.202,230.496 292.5,229.5C 299.237,217.298 308.57,214.798 320.5,222C 328.364,233.106 326.698,242.44 315.5,250C 304.744,252.952 297.077,249.452 292.5,239.5C 286.202,238.504 279.868,238.17 273.5,238.5C 273.667,264.169 273.5,289.835 273,315.5C 269.473,329.693 260.64,338.527 246.5,342C 198.5,342.667 150.5,342.667 102.5,342C 88.36,338.527 79.5266,329.693 76,315.5C 75.5,289.835 75.3334,264.169 75.5,238.5C 69.1318,238.17 62.7985,238.504 56.5,239.5C 51.9227,249.452 44.256,252.952 33.5,250C 22.5259,242.737 20.6926,233.571 28,222.5C 40.0107,214.588 49.5107,216.921 56.5,229.5C 62.7985,230.496 69.1318,230.83 75.5,230.5C 75.5,210.5 75.5,190.5 75.5,170.5C 63.1667,170.5 50.8333,170.5 38.5,170.5C 33.9947,182.623 25.6613,186.123 13.5,181C 6.44701,174.863 4.61368,167.363 8,158.5C 12.8064,150.94 19.6397,148.44 28.5,151C 33.8534,153.18 37.1867,157.013 38.5,162.5C 50.8333,162.5 63.1667,162.5 75.5,162.5C 75.5,142.833 75.5,123.167 75.5,103.5C 69.1579,103.334 62.8246,103.5 56.5,104C 50.5779,115.023 41.9113,117.856 30.5,112.5C 20.9165,102.663 21.2499,93.1627 31.5,84C 42.7814,79.8113 51.1148,82.978 56.5,93.5C 62.7985,94.4963 69.1318,94.8297 75.5,94.5C 75.0552,72.4551 75.5552,50.4551 77,28.5C 82.0677,16.9153 90.5677,9.58201 102.5,6.5 Z M 108.5,14.5 C 152.501,14.3333 196.501,14.5 240.5,15C 251.879,16.1031 259.712,21.9365 264,32.5C 264.5,53.164 264.667,73.8306 264.5,94.5C 262.5,94.5 260.5,94.5 258.5,94.5C 258.667,76.1636 258.5,57.8303 258,39.5C 256.962,29.4624 251.462,23.6291 241.5,22C 196.833,21.3333 152.167,21.3333 107.5,22C 97.5375,23.6291 92.0375,29.4624 91,39.5C 90.5001,57.8303 90.3334,76.1636 90.5,94.5C 88.5,94.5 86.5,94.5 84.5,94.5C 84.3334,73.8306 84.5,53.164 85,32.5C 89.5104,22.0114 97.3437,16.0114 108.5,14.5 Z M 106.5,30.5 C 151.835,30.3333 197.168,30.5 242.5,31C 245.333,32.5 247.5,34.6667 249,37.5C 249.5,56.4971 249.667,75.4971 249.5,94.5C 245.781,94.0025 242.447,94.8358 239.5,97C 233.284,103.718 226.617,109.885 219.5,115.5C 215.454,111.909 210.788,110.743 205.5,112C 201.802,114.186 198.468,116.853 195.5,120C 194.552,120.483 193.552,120.649 192.5,120.5C 192.575,116.103 192.075,111.77 191,107.5C 190.31,104.804 188.81,102.637 186.5,101C 178.486,99.0376 170.486,99.0376 162.5,101C 157.206,105.937 155.039,112.104 156,119.5C 155.586,119.957 155.086,120.291 154.5,120.5C 150.475,117.157 146.142,114.324 141.5,112C 137.11,111.688 133.11,112.854 129.5,115.5C 121.685,108.852 114.018,102.019 106.5,95C 104.19,94.5034 101.857,94.3367 99.5,94.5C 99.3334,75.4971 99.5001,56.4971 100,37.5C 101.694,34.6424 103.861,32.309 106.5,30.5 Z M 37.5,90.5 C 43.6095,90.1041 47.2762,92.9374 48.5,99C 44.6717,107.713 39.5051,108.88 33,102.5C 32.3333,100.167 32.3333,97.8333 33,95.5C 34.3657,93.6383 35.8657,91.9717 37.5,90.5 Z M 306.5,90.5 C 314.193,90.877 317.36,94.877 316,102.5C 309.495,108.88 304.328,107.713 300.5,99C 301.424,95.2872 303.424,92.4538 306.5,90.5 Z M 84.5,103.5 C 86.5,103.5 88.5,103.5 90.5,103.5C 90.5,123.167 90.5,142.833 90.5,162.5C 88.5,162.5 86.5,162.5 84.5,162.5C 84.5,142.833 84.5,123.167 84.5,103.5 Z M 99.5,103.5 C 100.873,103.343 102.207,103.51 103.5,104C 110.167,110 116.833,116 123.5,122C 120.09,125.899 118.924,130.399 120,135.5C 122.639,139.639 125.472,143.639 128.5,147.5C 123.32,149.152 117.987,150.318 112.5,151C 108.507,153.819 106.84,157.653 107.5,162.5C 104.833,162.5 102.167,162.5 99.5,162.5C 99.5,142.833 99.5,123.167 99.5,103.5 Z M 245.5,103.5 C 246.833,103.5 248.167,103.5 249.5,103.5C 249.5,123.167 249.5,142.833 249.5,162.5C 246.833,162.5 244.167,162.5 241.5,162.5C 242.139,157.616 240.473,153.783 236.5,151C 231.318,149.197 225.984,148.364 220.5,148.5C 220.351,147.448 220.517,146.448 221,145.5C 224.083,142.092 226.749,138.425 229,134.5C 229.865,129.761 228.698,125.594 225.5,122C 232.43,116.049 239.097,109.883 245.5,103.5 Z M 258.5,103.5 C 260.5,103.5 262.5,103.5 264.5,103.5C 264.5,123.167 264.5,142.833 264.5,162.5C 262.5,162.5 260.5,162.5 258.5,162.5C 258.5,142.833 258.5,123.167 258.5,103.5 Z M 166.5,108.5 C 171.833,108.5 177.167,108.5 182.5,108.5C 182.913,113.894 183.747,119.227 185,124.5C 188.059,128.117 191.892,129.617 196.5,129C 201.214,126.65 205.547,123.817 209.5,120.5C 214.034,123.099 217.7,126.599 220.5,131C 218.403,134.768 215.903,138.268 213,141.5C 210.705,148.688 212.872,153.855 219.5,157C 223.5,157.333 227.5,157.667 231.5,158C 232.94,160.795 233.607,163.795 233.5,167C 233.695,169.793 233.029,172.293 231.5,174.5C 226.905,175.655 222.238,176.488 217.5,177C 212.728,180.699 211.228,185.533 213,191.5C 215.646,194.98 218.479,198.314 221.5,201.5C 218.749,206.587 214.749,210.253 209.5,212.5C 193.098,198.648 184.265,202.315 183,223.5C 182.5,224 182,224.5 181.5,225C 176.581,225.802 171.748,225.635 167,224.5C 165.106,202.026 155.773,198.36 139,213.5C 134.437,210.605 130.937,206.772 128.5,202C 130.626,198.253 133.126,194.753 136,191.5C 138.067,185.013 136.234,180.18 130.5,177C 116.151,178.312 111.818,172.312 117.5,159C 121.716,157.796 126.049,157.13 130.5,157C 136.109,153.723 137.942,148.89 136,142.5C 133.287,138.908 130.453,135.408 127.5,132C 130.353,127.163 134.186,123.329 139,120.5C 142.717,123.946 146.883,126.779 151.5,129C 156.952,130.023 161.119,128.19 164,123.5C 164.62,118.444 165.454,113.444 166.5,108.5 Z M 173.5,139.5 C 190.03,141.03 199.364,150.03 201.5,166.5C 199.803,182.95 190.803,191.95 174.5,193.5C 158.197,191.95 149.197,182.95 147.5,166.5C 149.47,150.866 158.137,141.866 173.5,139.5 Z M 21.5,158.5 C 28.3254,159.152 31.1587,162.819 30,169.5C 25.8334,175.759 21.1668,176.092 16,170.5C 14.0357,164.532 15.8691,160.532 21.5,158.5 Z M 324.5,158.5 C 332.197,159.033 335.03,163.033 333,170.5C 327.833,176.092 323.167,175.759 319,169.5C 317.665,164.17 319.498,160.504 324.5,158.5 Z M 84.5,170.5 C 86.5,170.5 88.5,170.5 90.5,170.5C 90.5,190.5 90.5,210.5 90.5,230.5C 88.5,230.5 86.5,230.5 84.5,230.5C 84.5,210.5 84.5,190.5 84.5,170.5 Z M 99.5,170.5 C 102.167,170.5 104.833,170.5 107.5,170.5C 106.7,175.126 108.034,178.96 111.5,182C 117.258,183.419 122.924,184.919 128.5,186.5C 125.046,190.449 122.213,194.782 120,199.5C 119.347,203.875 120.513,207.708 123.5,211C 116.526,217.305 109.526,223.638 102.5,230C 101.552,230.483 100.552,230.649 99.5,230.5C 99.5,210.5 99.5,190.5 99.5,170.5 Z M 241.5,170.5 C 244.167,170.5 246.833,170.5 249.5,170.5C 249.5,190.5 249.5,210.5 249.5,230.5C 248.448,230.649 247.448,230.483 246.5,230C 239.474,223.638 232.474,217.305 225.5,211C 229.047,207.51 230.214,203.343 229,198.5C 226.424,194.359 223.59,190.359 220.5,186.5C 220.709,185.914 221.043,185.414 221.5,185C 226.123,184.042 230.79,183.375 235.5,183C 240.025,180.115 242.025,175.948 241.5,170.5 Z M 258.5,170.5 C 260.5,170.5 262.5,170.5 264.5,170.5C 264.5,190.5 264.5,210.5 264.5,230.5C 262.5,230.5 260.5,230.5 258.5,230.5C 258.5,210.5 258.5,190.5 258.5,170.5 Z M 194.5,212.5 C 198.329,215.581 202.329,218.414 206.5,221C 211.382,222.213 215.548,221.046 219,217.5C 226.833,224.333 234.667,231.167 242.5,238C 244.81,238.497 247.143,238.663 249.5,238.5C 249.667,257.503 249.5,276.503 249,295.5C 247.833,298.667 245.667,300.833 242.5,302C 197.167,302.667 151.833,302.667 106.5,302C 103.333,300.833 101.167,298.667 100,295.5C 99.5001,276.503 99.3334,257.503 99.5,238.5C 101.857,238.663 104.19,238.497 106.5,238C 114.333,231.167 122.167,224.333 130,217.5C 137.772,224.057 144.939,223.224 151.5,215C 153.025,213.991 154.692,213.491 156.5,213.5C 156.381,219.457 157.547,225.124 160,230.5C 161.255,231.211 162.421,232.044 163.5,233C 167.222,233.238 170.889,233.738 174.5,234.5C 178.111,233.738 181.778,233.238 185.5,233C 187.286,232.215 188.786,231.049 190,229.5C 191.581,223.739 193.081,218.073 194.5,212.5 Z M 36.5,226.5 C 44.204,225.58 48.0373,228.913 48,236.5C 43.3705,244.084 38.3705,244.418 33,237.5C 31.8824,233.077 33.0491,229.41 36.5,226.5 Z M 305.5,226.5 C 311.991,225.328 315.658,227.995 316.5,234.5C 315.884,240.615 312.551,243.115 306.5,242C 298.867,237.302 298.534,232.135 305.5,226.5 Z M 84.5,238.5 C 86.5,238.5 88.5,238.5 90.5,238.5C 90.3334,256.836 90.5001,275.17 91,293.5C 91.8032,302.639 96.6365,308.473 105.5,311C 151.5,311.667 197.5,311.667 243.5,311C 252.363,308.473 257.197,302.639 258,293.5C 258.5,275.17 258.667,256.836 258.5,238.5C 260.5,238.5 262.5,238.5 264.5,238.5C 264.667,264.502 264.5,290.502 264,316.5C 259.712,327.064 251.879,332.897 240.5,334C 196.5,334.667 152.5,334.667 108.5,334C 97.1209,332.897 89.2875,327.064 85,316.5C 84.5,290.502 84.3334,264.502 84.5,238.5 Z"/></g>
<g><path style="opacity:0.881" fill="#f5f5f5" d="M 173.5,130.5 C 200.484,134.132 212.317,149.466 209,176.5C 200.024,198.071 184.191,205.904 161.5,200C 143.601,191.37 136.435,177.204 140,157.5C 145.707,141.617 156.874,132.617 173.5,130.5 Z M 173.5,139.5 C 158.137,141.866 149.47,150.866 147.5,166.5C 149.197,182.95 158.197,191.95 174.5,193.5C 190.803,191.95 199.803,182.95 201.5,166.5C 199.364,150.03 190.03,141.03 173.5,139.5 Z"/></g>
<g><path style="opacity:0.886" fill="#f6f6f6" d="M 171.5,143.5 C 173.527,143.338 175.527,143.505 177.5,144C 178.38,145.356 178.714,146.856 178.5,148.5C 180.39,148.297 181.89,148.963 183,150.5C 186.753,154.744 185.919,157.744 180.5,159.5C 178.253,158.594 176.253,157.261 174.5,155.5C 170.893,156.964 170.226,158.964 172.5,161.5C 183.783,163.266 187.95,169.599 185,180.5C 181.768,183.353 178.935,186.52 176.5,190C 174.299,190.825 172.466,190.325 171,188.5C 168.108,185.468 165.608,182.135 163.5,178.5C 164.486,174.853 166.819,173.686 170.5,175C 173.349,178.5 175.683,178.334 177.5,174.5C 177.471,172.971 176.804,171.804 175.5,171C 163.959,169.738 160.126,163.571 164,152.5C 165.571,150.077 167.737,148.744 170.5,148.5C 170.366,146.708 170.699,145.042 171.5,143.5 Z"/></g>
<g><path style="opacity:0.942" fill="#fbfbfb" d="M 160.5,318.5 C 171.505,318.333 182.505,318.5 193.5,319C 195.442,320.972 195.776,323.139 194.5,325.5C 182.848,326.666 171.181,326.833 159.5,326C 158.083,323.257 158.416,320.757 160.5,318.5 Z"/></g>
</svg>
