<?xml version="1.0" encoding="UTF-8"?>
<!DOCTYPE svg PUBLIC "-//W3C//DTD SVG 1.1//EN" "http://www.w3.org/Graphics/SVG/1.1/DTD/svg11.dtd">
<svg xmlns="http://www.w3.org/2000/svg" version="1.1" width="339px" height="339px" style="shape-rendering:geometricPrecision; text-rendering:geometricPrecision; image-rendering:optimizeQuality; fill-rule:evenodd; clip-rule:evenodd" xmlns:xlink="http://www.w3.org/1999/xlink">
<g><path style="opacity:0.954" fill="#fbfbfb" d="M 153.5,-0.5 C 163.833,-0.5 174.167,-0.5 184.5,-0.5C 204.417,3.20967 221.25,12.543 235,27.5C 237.696,36.7964 234.363,42.1297 225,43.5C 218.889,42.4073 214.056,39.2407 210.5,34C 182.833,14.6667 155.167,14.6667 127.5,34C 124.414,37.7565 120.748,40.7565 116.5,43C 104.949,44.1104 100.449,38.9437 103,27.5C 116.75,12.543 133.583,3.20967 153.5,-0.5 Z"/></g>
<g><path style="opacity:0.948" fill="#fcfcfc" d="M 160.5,38.5 C 178.945,36.487 194.445,42.1536 207,55.5C 208.428,69.4049 202.595,73.9049 189.5,69C 181.287,60.7746 171.62,58.1079 160.5,61C 154.635,63.5419 149.301,66.8752 144.5,71C 133.274,71.7711 128.774,66.6044 131,55.5C 139.163,46.7426 148.996,41.076 160.5,38.5 Z"/></g>
<g><path style="opacity:0.91" fill="#fafafa" d="M 168.5,77.5 C 178.947,79.7274 181.947,85.7274 177.5,95.5C 171.833,100.833 166.167,100.833 160.5,95.5C 156.149,86.2107 158.816,80.2107 168.5,77.5 Z"/></g>
<g><path style="opacity:0.959" fill="#fbfbfb" d="M 338.5,222.5 C 338.5,226.167 338.5,229.833 338.5,233.5C 336.954,236.2 334.621,238.033 331.5,239C 318.167,239.333 304.833,239.667 291.5,240C 277.423,262.752 259.756,282.418 238.5,299C 218.257,314.106 196.923,327.273 174.5,338.5C 170.833,338.5 167.167,338.5 163.5,338.5C 127.381,320.985 95.214,297.651 67,268.5C 59.3915,259.558 52.5582,250.058 46.5,240C 33.1667,239.667 19.8333,239.333 6.5,239C 3.37935,238.033 1.04602,236.2 -0.5,233.5C -0.5,229.833 -0.5,226.167 -0.5,222.5C 1.43331,220.404 3.76664,218.904 6.5,218C 16.1667,217.667 25.8333,217.333 35.5,217C 26.9665,196.686 24.1332,175.519 27,153.5C 36.9667,114.273 62.1333,93.6063 102.5,91.5C 131.669,91.4959 153.836,103.829 169,128.5C 187.932,99.4583 214.766,87.2916 249.5,92C 282.685,99.8512 303.185,120.351 311,153.5C 313.867,175.519 311.033,196.686 302.5,217C 312.167,217.333 321.833,217.667 331.5,218C 334.233,218.904 336.567,220.404 338.5,222.5 Z M 95.5,112.5 C 114.517,110.958 130.684,116.958 144,130.5C 147.735,136.904 152.235,142.737 157.5,148C 165.167,152.667 172.833,152.667 180.5,148C 186.167,141 191.833,134 197.5,127C 222.043,108.047 246.709,107.714 271.5,126C 289.146,142.91 294.979,163.41 289,187.5C 287.054,197.971 283.887,207.971 279.5,217.5C 269.161,217.666 258.828,217.5 248.5,217C 238.444,197.096 228.611,177.263 219,157.5C 215.723,151.891 210.89,150.058 204.5,152C 202.376,153.122 200.543,154.622 199,156.5C 188.933,181.444 178.267,206.111 167,230.5C 157.338,214.203 147.671,197.87 138,181.5C 130.49,175.567 123.99,176.567 118.5,184.5C 111.5,195.167 104.5,205.833 97.5,216.5C 84.5171,217.499 71.5171,217.832 58.5,217.5C 53.4549,205.326 49.9549,192.659 48,179.5C 45.1362,143.578 60.9695,121.244 95.5,112.5 Z M 209.5,188.5 C 216.935,202.598 224.102,216.931 231,231.5C 232.458,233.96 234.291,236.127 236.5,238C 246.093,239.255 255.76,239.921 265.5,240C 239.051,273.833 206.385,299.166 167.5,316C 130.271,297.787 98.6044,272.454 72.5,240C 83.5,239.667 94.5,239.333 105.5,239C 106.833,238.333 108.167,237.667 109.5,237C 115.957,227.92 122.29,218.754 128.5,209.5C 139.447,226.424 149.947,243.757 160,261.5C 164.557,265.676 169.724,266.509 175.5,264C 177.543,262.189 179.043,260.022 180,257.5C 189.274,234.283 199.107,211.283 209.5,188.5 Z"/></g>
</svg>
