<svg height="512" viewBox="0 0 128 128" width="512" xmlns="http://www.w3.org/2000/svg" xmlns:xlink="http://www.w3.org/1999/xlink"><linearGradient id="linear-gradient" gradientUnits="userSpaceOnUse" x1="26.57" x2="26.57" y1="137.93" y2="90.4"><stop offset="0" stop-color="#808080"/><stop offset="1" stop-color="#333"/></linearGradient><linearGradient id="linear-gradient-2" x1="101.43" x2="101.43" xlink:href="#linear-gradient" y1="137.93" y2="90.4"/><linearGradient id="linear-gradient-3" x1="64" x2="64" xlink:href="#linear-gradient" y1="137.93" y2="90.4"/><linearGradient id="linear-gradient-4" gradientUnits="userSpaceOnUse" x1="64" x2="64" y1="8.03" y2="64.05"><stop offset="0" stop-color="#1488cc"/><stop offset="1" stop-color="#2b32b2"/></linearGradient><linearGradient id="linear-gradient-5" gradientUnits="userSpaceOnUse" x1="64" x2="64" y1="29.7" y2="100.86"><stop offset="0" stop-color="#f3f7ff"/><stop offset="1" stop-color="#cdd9ff"/></linearGradient><linearGradient id="linear-gradient-6" x1="45.94" x2="45.94" xlink:href="#linear-gradient-5" y1="80.89" y2="169.59"/><linearGradient id="linear-gradient-7" x1="82.06" x2="82.06" xlink:href="#linear-gradient-5" y1="80.89" y2="169.59"/><linearGradient id="linear-gradient-8" gradientUnits="userSpaceOnUse" x1="81.54" x2="81.54" y1="15.84" y2="158.21"><stop offset="0" stop-color="#00c6ff"/><stop offset="1" stop-color="#0072ff"/></linearGradient><linearGradient id="linear-gradient-9" x1="81.08" x2="81.08" xlink:href="#linear-gradient-8" y1="59.54" y2="80.99"/><linearGradient id="linear-gradient-10" x1="83.47" x2="83.47" xlink:href="#linear-gradient-8" y1="61.04" y2="80.18"/><linearGradient id="linear-gradient-11" x1="91.07" x2="91.07" xlink:href="#linear-gradient-8" y1="60.17" y2="68.57"/><linearGradient id="linear-gradient-12" x1="46.54" x2="46.54" xlink:href="#linear-gradient-8" y1="15.84" y2="158.21"/><linearGradient id="linear-gradient-13" x1="42.09" x2="42.09" xlink:href="#linear-gradient-8" y1="50.93" y2="66.61"/><linearGradient id="linear-gradient-14" x1="47.21" x2="47.21" xlink:href="#linear-gradient-8" y1="57.07" y2="79.08"/><g id="Train_2" data-name="Train 2"><path d="m16 112.5a2 2 0 0 1 -1.41-3.41l21.14-21.15a2 2 0 1 1 2.83 2.83l-21.15 21.14a2 2 0 0 1 -1.41.59z" fill="url(#linear-gradient)"/><path d="m112 112.5a2 2 0 0 1 -1.41-.59l-21.15-21.14a2 2 0 1 1 2.83-2.83l21.14 21.15a2 2 0 0 1 -1.41 3.41z" fill="url(#linear-gradient-2)"/><path d="m104 104.5h-80a2 2 0 0 1 0-4h80a2 2 0 0 1 0 4z" fill="url(#linear-gradient-3)"/><path d="m28 62.49v-35a10 10 0 0 1 10-10h52a10 10 0 0 1 10 10v35l-36 14.91z" fill="url(#linear-gradient-4)"/><path d="m28 62.49v22a10 10 0 0 0 10 10h52a10 10 0 0 0 10-10v-22z" fill="url(#linear-gradient-5)"/><circle cx="45.94" cy="79.11" fill="url(#linear-gradient-6)" r="5.19"/><path d="m45.94 85.3a6.19 6.19 0 1 1 6.18-6.19 6.2 6.2 0 0 1 -6.18 6.19zm0-10.37a4.19 4.19 0 1 0 4.18 4.18 4.19 4.19 0 0 0 -4.18-4.18z" fill="#fff"/><circle cx="82.06" cy="79.11" fill="url(#linear-gradient-7)" r="5.19"/><path d="m82.06 85.3a6.19 6.19 0 1 1 6.19-6.19 6.19 6.19 0 0 1 -6.19 6.19zm0-10.37a4.19 4.19 0 1 0 4.19 4.18 4.18 4.18 0 0 0 -4.19-4.18z" fill="#fff"/><rect fill="url(#linear-gradient-8)" height="32" rx="2" width="30.93" x="66.07" y="27.5"/><path d="m95 27.5h-10.4l-18.53 18.5v11.5a3.16 3.16 0 0 0 0 .32l30-30a2 2 0 0 0 -1.07-.32z" fill="url(#linear-gradient-9)"/><path d="m74.29 59.5 22.71-22.71v-4.36l-27.07 27.07z" fill="url(#linear-gradient-10)"/><path d="m97 47.64-11.86 11.86h9.86a2 2 0 0 0 2-2z" fill="url(#linear-gradient-11)"/><path d="m95 60h-26.93a2.5 2.5 0 0 1 -2.5-2.5v-28a2.5 2.5 0 0 1 2.5-2.5h26.93a2.5 2.5 0 0 1 2.5 2.5v28a2.5 2.5 0 0 1 -2.5 2.5zm-26.93-32a1.5 1.5 0 0 0 -1.5 1.5v28a1.5 1.5 0 0 0 1.5 1.5h26.93a1.5 1.5 0 0 0 1.5-1.5v-28a1.5 1.5 0 0 0 -1.5-1.5z" fill="#fff"/><rect fill="url(#linear-gradient-12)" height="32" rx="2" width="31.07" x="31" y="27.5"/><path d="m31 49.67 22.17-22.17h-11.82l-10.35 10.35z" fill="url(#linear-gradient-13)"/><path d="m62.07 29.65-29.73 29.73a2.08 2.08 0 0 0 .66.12h5.7l23.37-23.37z" fill="url(#linear-gradient-14)"/><g fill="#fff"><path d="m60.07 60h-27.07a2.5 2.5 0 0 1 -2.5-2.5v-28a2.5 2.5 0 0 1 2.5-2.5h27.07a2.5 2.5 0 0 1 2.5 2.5v28a2.5 2.5 0 0 1 -2.5 2.5zm-27.07-32a1.5 1.5 0 0 0 -1.5 1.5v28a1.5 1.5 0 0 0 1.5 1.5h27.07a1.5 1.5 0 0 0 1.5-1.5v-28a1.5 1.5 0 0 0 -1.5-1.5z"/><path d="m38.69 24h-1.63a1 1 0 0 1 0-2h1.63a1 1 0 0 1 0 2z"/><path d="m52.16 24h-10.06a1 1 0 1 1 0-2h10.06a1 1 0 0 1 0 2z"/><path d="m36.31 68.75h-1.63a1 1 0 0 1 0-2h1.63a1 1 0 0 1 0 2z"/><path d="m49.78 68.75h-10.06a1 1 0 0 1 0-2h10.06a1 1 0 0 1 0 2z"/><path d="m33.34 40.19a1 1 0 0 1 -1-1v-1.66a1 1 0 0 1 2 0v1.66a1 1 0 0 1 -1 1z"/><path d="m33.34 51.5a1 1 0 0 1 -1-1v-7.37a1 1 0 1 1 2 0v7.37a1 1 0 0 1 -1 1z"/><path d="m69.93 40.19a1 1 0 0 1 -1-1v-1.66a1 1 0 0 1 2 0v1.66a1 1 0 0 1 -1 1z"/><path d="m69.93 51.5a1 1 0 0 1 -1-1v-7.37a1 1 0 1 1 2 0v7.37a1 1 0 0 1 -1 1z"/></g></g></svg>