<svg width="135" height="40" viewBox="0 0 135 40" fill="none" xmlns="http://www.w3.org/2000/svg">
<path d="M62.9537 12.9434C61.1325 12.9434 59.6655 13.54 58.5528 14.7334L57.9546 13.27H54.1484V26.69H58.9304V19.5067C58.9304 17.9067 59.9362 16.85 61.4299 16.85C62.653 16.85 63.5485 17.77 63.5485 18.9934V26.6934H68.3305V18.2067C68.3305 16.66 67.8426 15.4134 66.8367 14.4367C65.8309 13.4334 64.5544 12.9467 62.9504 12.9467L62.9537 12.9434Z" fill="#1B1A19"/>
<path d="M51.5651 7.06641H46.7832V11.8364H51.5651V7.06641Z" fill="#1B1A19"/>
<path d="M51.5651 13.2695H46.7832V26.6895H51.5651V13.2695Z" fill="#1B1A19"/>
<path d="M133.239 14.9196C132.069 13.5963 130.576 12.9463 128.754 12.9463C127.12 12.9463 125.79 13.4596 124.754 14.513L124.153 13.2663H120.354V32.3296H125.132V25.7396C126.195 26.5796 127.388 27.0163 128.751 27.0163C130.572 27.0163 132.066 26.3596 133.236 25.063C134.399 23.7296 135 22.0496 135 19.9896C135 17.9296 134.399 16.2196 133.236 14.9163L133.239 14.9196ZM127.475 23.2696C126.031 23.2696 125.055 22.1863 125.055 20.6996V19.2896C125.055 17.773 126.034 16.6896 127.475 16.6896C129.025 16.6896 130.138 18.043 130.138 19.9963C130.138 21.9496 129.025 23.273 127.475 23.273V23.2696Z" fill="#1B1A19"/>
<path d="M115.378 7.00684C113.827 7.00684 112.661 8.14684 112.661 9.7435C112.661 11.3402 113.831 12.4535 115.378 12.4535C117.009 12.4535 118.121 11.2868 118.121 9.7435C118.121 8.20017 117.009 7.00684 115.378 7.00684Z" fill="#1B1A19"/>
<path d="M117.77 13.2705H112.988V26.6905H117.77V13.2705Z" fill="#1B1A19"/>
<path d="M93.0383 14.9196C91.6248 13.5963 89.7735 12.9463 87.5246 12.9463C85.2756 12.9463 83.4478 13.593 82.0042 14.9196C80.5606 16.253 79.8555 17.933 79.8555 19.993C79.8555 22.053 80.5639 23.733 82.0042 25.0663C83.4478 26.363 85.269 27.0196 87.5246 27.0196C89.7802 27.0196 91.6248 26.363 93.0383 25.0663C94.4819 23.733 95.187 22.053 95.187 19.993C95.187 17.933 94.4786 16.223 93.0383 14.9196ZM87.5246 23.3263C85.8905 23.3263 84.7477 21.943 84.7477 19.993C84.7477 18.043 85.8905 16.6296 87.5246 16.6296C89.1587 16.6296 90.3249 18.013 90.3249 19.993C90.3249 21.973 89.1553 23.3263 87.5246 23.3263Z" fill="#1B1A19"/>
<path d="M77.9007 11.0736C78.3351 11.0736 78.853 11.1269 79.4779 11.2369L80.0761 7.71361C78.9633 7.41361 77.8472 7.28027 76.7344 7.28027C75.2407 7.28027 74.0176 7.71361 73.0653 8.58027C72.1396 9.44694 71.6785 10.5869 71.6785 12.0236V13.2703H69.4229V16.8769H71.6785V26.6903H76.4604V16.8769H79.234V13.2703H76.4604V12.5103C76.4604 11.6169 77.0318 11.0736 77.9007 11.0736Z" fill="#1B1A19"/>
<path d="M109.48 14.9202C108.317 13.5968 106.816 12.9468 104.995 12.9468C103.608 12.9468 102.419 13.3735 101.383 14.2135V7.60352H96.5977V26.6868H100.404L101.005 25.4402C102.035 26.4935 103.368 27.0135 104.999 27.0135C106.82 27.0135 108.32 26.3568 109.483 25.0602C110.653 23.7268 111.254 22.0468 111.254 19.9868C111.254 17.9268 110.653 16.2168 109.483 14.9135L109.48 14.9202ZM103.725 23.2702C102.282 23.2702 101.306 22.1868 101.306 20.7002V19.2902C101.306 17.7735 102.285 16.6902 103.725 16.6902C105.269 16.6902 106.382 18.0435 106.382 19.9968C106.382 21.9502 105.269 23.2735 103.725 23.2735V23.2702Z" fill="#1B1A19"/>
<path d="M31.5286 31.45C29.3331 33.6367 25.0458 34.94 20.05 34.94C15.0542 34.94 10.7602 33.6367 8.57471 31.45C6.38258 29.26 5.06931 24.9833 5.06931 20C5.06931 15.0167 6.38258 10.74 8.57471 8.55333C10.7635 6.36333 15.0575 5.05667 20.05 5.05667C25.0424 5.05667 29.3331 6.36667 31.5286 8.55333C33.7141 10.7433 35.0273 15.02 35.0273 20C35.0273 24.98 33.7141 29.26 31.5286 31.45ZM40.0966 19.9967C40.1 8.95333 31.1209 0 20.05 0C8.97906 0 0 8.95333 0 20C0 31.0467 8.97571 40 20.05 40C31.1243 40 40.1 31.0467 40.1 20L40.0966 19.9967Z" fill="#1B1A19"/>
<path d="M24.06 17.1737V22.8204C24.06 23.4737 23.5321 23.9971 22.8871 23.9971H17.213C16.5647 23.9971 16.04 23.4737 16.04 22.8204V17.1737C16.04 16.5204 16.5647 15.9971 17.213 15.9971H22.8871C23.5321 15.9971 24.06 16.5204 24.06 17.1737Z" fill="#1B1A19"/>
<path d="M29.5035 10.5667C27.9396 9.00667 24.2304 8 20.0466 8C15.8662 8 12.1536 9.01 10.5897 10.5667C9.0191 12.1233 8.0166 15.83 8.0166 20C8.0166 24.17 9.0191 27.8767 10.5897 29.4333C12.1536 30.99 15.8628 32 20.0466 32C24.227 32 27.9396 30.99 29.5035 29.4333C31.0741 27.8733 32.0766 24.17 32.0766 20C32.0766 15.83 31.0741 12.1233 29.5035 10.5667ZM25.8511 25.7467C25.5236 26.0733 24.5311 27.0633 20.0199 27.0633C15.5086 27.0633 14.5095 26.0767 14.1887 25.7467C13.8612 25.42 12.8687 24.43 12.8687 19.9333C12.8687 15.4367 13.8578 14.4467 14.1887 14.12C14.5095 13.7933 15.5019 12.81 20.0199 12.81C24.5378 12.81 25.5236 13.79 25.8511 14.12C26.1752 14.4467 27.1643 15.4367 27.1643 19.9333C27.1643 24.43 26.1752 25.42 25.8511 25.7467Z" fill="#1B1A19"/>
</svg>
