<?xml version="1.0" encoding="UTF-8"?>
<svg width="98px" height="43px" viewBox="0 0 98 43" version="1.1" xmlns="http://www.w3.org/2000/svg" xmlns:xlink="http://www.w3.org/1999/xlink">
    <!-- Generator: Sketch 60 (88103) - https://sketch.com -->
    <title>migo-logo-final-01</title>
    <desc>Created with Sketch.</desc>
    <g id="Symbols" stroke="none" stroke-width="1" fill="none" fill-rule="evenodd">
        <g id="migo-logo-final-01" fill-rule="nonzero">
            <rect id="Rectangle" fill="#000064" x="38.6446667" y="12.2880769" width="7.0756" height="20.3092308"></rect>
            <path d="M64.6244667,14.4248462 C63.1194319,12.6794694 60.9312047,11.6944411 58.6432,11.7323846 C55.8882393,11.7036585 53.2513079,12.8630849 51.3912,14.921 C50.4743527,15.9384285 49.752145,17.1194644 49.2613333,18.404 C48.7299951,19.7846625 48.4638971,21.255355 48.4773333,22.7370769 C48.458794,24.1632938 48.7047859,25.5803639 49.2025333,26.9146923 C50.1029403,29.3414609 51.9685686,31.2737253 54.3442667,32.2400769 C55.598094,32.7506417 56.9390609,33.0057927 58.2904,32.9909231 C58.8931303,32.9948257 59.4951508,32.9483604 60.0903333,32.852 C60.6277574,32.7623824 61.1529307,32.6091796 61.6550667,32.3955385 C62.1686015,32.1760134 62.6589143,31.904506 63.1185333,31.5851538 C63.6541367,31.2129541 64.1578885,30.7958185 64.6244667,30.3381538 L64.6244667,32.2797692 C64.6244667,33.7814615 64.2270222,34.9556923 63.4321333,35.8024615 C62.6372444,36.6492308 61.4971778,37.0715128 60.0119333,37.0693077 C58.2697111,37.0693077 57.1492444,36.395641 56.6505333,35.0483077 L48.6733333,35.0483077 C48.8788164,36.1473142 49.3046263,37.1919991 49.9244667,38.1178462 C50.5732132,39.0760201 51.387742,39.9075021 52.3287333,40.5721538 C53.3739881,41.3073804 54.53018,41.8659264 55.7522,42.226 C58.4138884,42.9740098 61.2211704,43.0138851 63.9025333,42.3417692 C65.0176259,42.0555306 66.089106,41.6171049 67.0875333,41.0385385 C67.986465,40.5177381 68.7979972,39.8556697 69.4918,39.0770769 C70.1309209,38.3687585 70.6289488,37.5421394 70.9585333,36.6426154 C71.2140369,35.8699862 71.397767,35.0748972 71.5073333,34.2676923 C71.6440285,33.2571229 71.7095273,32.2379848 71.7033333,31.218 L71.7033333,12.298 L64.6244667,12.298 L64.6244667,14.4248462 Z M64.6048667,24.1825385 C64.3684227,24.7328822 64.0365124,25.23588 63.6248667,25.6676923 C63.2148621,26.0955247 62.7222592,26.4333054 62.1777333,26.66 C61.6150919,26.8987434 61.0107075,27.0202384 60.4006667,27.0172308 C59.7766387,27.0228533 59.1578647,26.9013688 58.5811333,26.66 C58.0370481,26.4324752 57.5446024,26.0948023 57.134,25.6676923 C56.7264347,25.2372859 56.401827,24.7336023 56.1768667,24.1825385 C55.9384931,23.5997217 55.8185067,22.9742562 55.8240667,22.3434615 C55.8199627,21.72896 55.9469926,21.1208109 56.1964667,20.5606154 C56.4309783,20.0209748 56.7633948,19.5306735 57.1764667,19.1151538 C57.599546,18.7033899 58.0889567,18.3677982 58.6236,18.1228462 C59.1768474,17.8702389 59.7774535,17.7416137 60.3843333,17.7457692 C60.9814448,17.7453815 61.5725062,17.8668783 62.1222,18.103 C62.6700755,18.334256 63.168252,18.6712937 63.5889333,19.0953077 C64.0005755,19.5195918 64.3326377,20.0160951 64.5689333,20.5606154 C65.0701081,21.720352 65.0701081,23.0393403 64.5689333,24.1990769 L64.6048667,24.1825385 Z" id="Shape" fill="#000064"></path>
            <path d="M96.9514,18.0467692 C96.363922,16.7294268 95.5039122,15.5551861 94.4295333,14.6034615 C93.3041028,13.6136877 92.0040027,12.8482966 90.5977333,12.3476154 C89.0609922,11.7937578 87.4399136,11.5183188 85.8088,11.5339231 C84.1630744,11.5162979 82.5276432,11.798642 80.9806667,12.3674615 C79.5802612,12.8772974 78.287049,13.6492802 77.1684667,14.6431538 C76.1116716,15.5909889 75.2597621,16.7497672 74.6662,18.0467692 C74.0649219,19.3688156 73.7582297,20.8086098 73.7678667,22.2640769 C73.747728,23.8218935 74.0538999,25.3663425 74.6662,26.7956154 C75.2451794,28.1247643 76.0906052,29.3175932 77.1488667,30.2984615 C78.2437489,31.2999035 79.5270585,32.067184 80.9218667,32.5543077 C82.4544037,33.0959655 84.0680648,33.3645562 85.6912,33.3481538 C87.3462582,33.3635087 88.9919452,33.0951025 90.5585333,32.5543077 C91.9755416,32.0759804 93.2838674,31.3157634 94.4066667,30.3183077 C95.4733469,29.3594186 96.3320492,28.1869632 96.9285333,26.875 C97.5526781,25.4897338 97.8661587,23.9817182 97.8464667,22.4592308 C97.8668162,20.9401705 97.5614368,19.4347238 96.9514,18.0467692 L96.9514,18.0467692 Z M90.013,24.2222308 C89.7753308,24.7718963 89.443558,25.2746857 89.033,25.7073846 C88.6223976,26.1344947 88.1299519,26.4721675 87.5858667,26.6996923 C86.4466892,27.1758533 85.1676442,27.1758533 84.0284667,26.6996923 C83.4839408,26.4729977 82.9913379,26.135217 82.5813333,25.7073846 C82.1696876,25.2755723 81.8377773,24.7725745 81.6013333,24.2222308 C81.3477888,23.6295583 81.2208795,22.9892973 81.2289333,22.3434615 C81.2248294,21.72896 81.3518592,21.1208109 81.6013333,20.5606154 C81.8412394,20.0181227 82.1728907,19.5222338 82.5813333,19.0953077 C82.9922309,18.6685548 83.4845993,18.3309349 84.0284667,18.103 C85.1676442,17.626839 86.4466892,17.626839 87.5858667,18.103 C88.1293028,18.3317453 88.6215193,18.669261 89.033,19.0953077 C89.4428659,19.5285696 89.7745522,20.0312279 90.013,20.5804615 C90.2612606,21.1480545 90.3881704,21.7623921 90.3854,22.3831538 C90.3907777,23.0159154 90.2638647,23.642668 90.013,24.2222308 L90.013,24.2222308 Z" id="Shape" fill="#000064"></path>
            <path d="M24.6535333,11.3916923 C22.2538714,11.3545233 19.9146575,12.1545653 18.0287333,13.6574615 C17.7402545,13.8836472 17.3372122,13.8836472 17.0487333,13.6574615 C15.1628091,12.1545653 12.8235953,11.3545233 10.4239333,11.3916923 C4.64846667,11.4776923 0.0751333333,16.3929231 0.0751333333,22.2409231 L0.0751333333,32.594 L7.15073333,32.594 L7.15073333,22.1284615 C7.13069438,20.3148251 8.46794815,18.7793802 10.2475333,18.5726923 C11.2094948,18.4785616 12.1660373,18.7997186 12.8818784,19.4571676 C13.5977195,20.1146166 14.0064256,21.0473432 14.0074667,22.0259231 L14.0074667,32.594 L21.0830667,32.594 L21.0830667,22.1284615 C21.0611518,20.3165128 22.3955944,18.7810564 24.1733333,18.5726923 C25.1349926,18.4785012 26.0912377,18.7997415 26.8065794,19.4573032 C27.5219212,20.114865 27.9298836,21.0476414 27.93,22.0259231 L27.93,32.594 L35.0056,32.594 L35.0056,22.2409231 C35.0023333,16.3929231 30.429,11.4776923 24.6535333,11.3916923 Z" id="Path" fill="#0000FF"></path>
            <path d="M7.79426667,0.102538462 L13.6742667,3.53923077 C13.7766147,3.59796256 13.8398698,3.70788108 13.8398698,3.827 C13.8398698,3.94611892 13.7766147,4.05603744 13.6742667,4.11476923 L7.79426667,7.55146154 C7.69280209,7.61238355 7.56678129,7.61318341 7.46457044,7.55355413 C7.36235959,7.49392484 7.29983756,7.38313007 7.30098407,7.26369231 L7.30098407,0.390307692 C7.29983756,0.270869932 7.36235959,0.160075159 7.46457044,0.100445874 C7.56678129,0.0408165902 7.69280209,0.0416164462 7.79426667,0.102538462 Z" id="Path" fill="#0000FF"></path>
            <path d="M21.8344,0.102538462 L27.7144,3.53923077 C27.8167481,3.59796256 27.8800031,3.70788108 27.8800031,3.827 C27.8800031,3.94611892 27.8167481,4.05603744 27.7144,4.11476923 L21.8344,7.55146154 C21.7331279,7.61066655 21.6083258,7.61054171 21.5071695,7.55113419 C21.4060132,7.49172668 21.3439347,7.38209952 21.3443974,7.26369231 L21.3443974,0.390307692 C21.3439347,0.271900479 21.4060132,0.162273316 21.5071695,0.102865805 C21.6083258,0.0434582941 21.7331279,0.0433334488 21.8344,0.102538462 Z" id="Path" fill="#0000FF"></path>
        </g>
    </g>
</svg>