<?xml version="1.0" encoding="UTF-8" standalone="no"?>
<!DOCTYPE svg PUBLIC "-//W3C//DTD SVG 1.1//EN" "http://www.w3.org/Graphics/SVG/1.1/DTD/svg11.dtd">

<svg height="100%" stroke-miterlimit="10" style="fill-rule:nonzero;clip-rule:evenodd;stroke-linecap:round;stroke-linejoin:round;" version="1.1" viewBox="0 0 229 50" width="100%" xml:space="preserve" xmlns="http://www.w3.org/2000/svg" xmlns:vectornator="http://vectornator.io" xmlns:xlink="http://www.w3.org/1999/xlink">
<defs/>
<g id="Untitled" vectornator:layerName="Untitled">
<path d="M1.26172 1.26562L18.5141 1.26562L23.4433 6.68779L6.68388 6.68779L6.68388 31.334L31.3301 31.334L31.3301 16.0533L36.7523 21.4755L36.7523 36.7562L1.26172 36.7562L1.26172 1.26562Z" fill="#1b1b1b" fill-rule="nonzero" opacity="1" stroke="none"/>
<path d="M29.8514 5.70194L15.5566 20.4897L18.0213 22.9543L32.809 8.16656L32.809 12.11L36.7524 16.0533L36.7524 1.26562L22.9505 1.26562L26.8939 5.70194L29.8514 5.70194Z" fill="#e43625" fill-rule="nonzero" opacity="1" stroke="none"/>
<path d="M45.3829 29.311L45.3829 9.32008L52.2198 9.32008C53.8991 9.32008 55.3473 9.59551 56.5645 10.1464C57.7906 10.6884 58.7324 11.4658 59.3899 12.4787C60.0474 13.4826 60.3761 14.6821 60.3761 16.077C60.3761 17.4719 60.0474 18.6803 59.3899 19.7021C58.7324 20.7149 57.7951 21.4968 56.5778 22.0477C55.3695 22.5985 53.9301 22.8739 52.2598 22.8739L49.4877 22.8739L49.4877 29.311L45.3829 29.311ZM49.4877 19.2756L51.8333 19.2756C53.2282 19.2756 54.2989 19.0001 55.0452 18.4493C55.8004 17.8895 56.178 17.0988 56.178 16.077C56.178 15.073 55.8004 14.2956 55.0452 13.7447C54.2989 13.185 53.2282 12.9051 51.8333 12.9051L49.4877 12.9051L49.4877 19.2756ZM67.0931 29.311L63.2681 29.311L63.2681 15.9837L66.6 15.9837L66.7332 18.2894C67.1775 17.4808 67.7817 16.85 68.5458 16.3969C69.3099 15.9438 70.185 15.7172 71.1712 15.7172C71.4556 15.7172 71.7399 15.7394 72.0242 15.7838C72.3174 15.8194 72.615 15.8771 72.9171 15.9571L72.4373 19.3955C71.8509 19.2267 71.2956 19.1423 70.7714 19.1423C70.034 19.1423 69.3854 19.3111 68.8256 19.6487C68.2748 19.9775 67.8483 20.4395 67.5462 21.0348C67.2441 21.6212 67.0931 22.3098 67.0931 23.1005L67.0931 29.311ZM86.9508 27.8184C85.2982 28.9912 83.4901 29.5776 81.5265 29.5776C80.0694 29.5776 78.7589 29.2666 77.595 28.6447C76.44 28.0138 75.5248 27.1609 74.8496 26.0858C74.1832 25.0108 73.85 23.798 73.85 22.4475C73.85 21.1592 74.1521 20.0086 74.7563 18.9957C75.3693 17.9828 76.2001 17.1832 77.2485 16.5968C78.2969 16.0104 79.4875 15.7172 80.8202 15.7172C82.1974 15.7172 83.4101 16.0415 84.4586 16.6901C85.507 17.3298 86.3244 18.2272 86.9108 19.3822C87.4972 20.5283 87.7904 21.8566 87.7904 23.3671L87.7904 23.7935L77.9682 23.7935C78.1281 24.3177 78.3902 24.7798 78.7545 25.1796C79.1187 25.5705 79.5719 25.8815 80.1139 26.1125C80.6558 26.3435 81.2778 26.459 81.9797 26.459C83.3391 26.459 84.6052 26.0192 85.778 25.1396L86.9508 27.8184ZM77.7949 21.8477L84.2586 21.8477C84.1876 21.2702 84.0054 20.7638 83.7122 20.3284C83.4279 19.8842 83.0503 19.5377 82.5794 19.2889C82.1174 19.0401 81.5976 18.9157 81.0201 18.9157C80.4337 18.9157 79.9095 19.0446 79.4475 19.3022C78.9944 19.5599 78.6256 19.9064 78.3413 20.3418C78.057 20.7771 77.8749 21.2791 77.7949 21.8477ZM111.899 29.311L108.075 29.311L108.075 22.6207C108.075 21.5101 107.857 20.6527 107.421 20.0486C106.986 19.4444 106.369 19.1423 105.569 19.1423C104.752 19.1423 104.112 19.4488 103.65 20.0619C103.197 20.6749 102.97 21.5279 102.97 22.6207L102.97 29.311L99.1452 29.311L99.1452 22.6207C99.1452 21.5101 98.9276 20.6527 98.4922 20.0486C98.0568 19.4444 97.4349 19.1423 96.6264 19.1423C95.8179 19.1423 95.1826 19.4488 94.7206 20.0619C94.2675 20.6749 94.0409 21.5279 94.0409 22.6207L94.0409 29.311L90.216 29.311L90.216 15.9837L93.2679 15.9837L93.4012 18.1827C93.8454 17.3742 94.4407 16.7612 95.187 16.3436C95.9422 15.926 96.8174 15.7172 97.8125 15.7172C98.852 15.7172 99.7494 15.9349 100.505 16.3702C101.26 16.8056 101.842 17.432 102.251 18.2494C102.704 17.4231 103.303 16.7967 104.05 16.3702C104.805 15.9349 105.698 15.7172 106.728 15.7172C108.354 15.7172 109.621 16.237 110.527 17.2765C111.442 18.3071 111.899 19.7509 111.899 21.6079L111.899 29.311ZM116.831 12.7985C116.324 12.7985 115.898 12.6208 115.551 12.2654C115.205 11.91 115.031 11.4791 115.031 10.9727C115.031 10.4662 115.205 10.0398 115.551 9.69325C115.898 9.33785 116.324 9.16015 116.831 9.16015C117.346 9.16015 117.777 9.33785 118.123 9.69325C118.479 10.0398 118.656 10.4662 118.656 10.9727C118.656 11.4791 118.479 11.91 118.123 12.2654C117.777 12.6208 117.346 12.7985 116.831 12.7985ZM118.75 29.311L114.925 29.311L114.925 15.9837L118.75 15.9837L118.75 29.311ZM135.076 29.311L131.97 29.311L131.837 27.1787C131.366 27.9605 130.74 28.5558 129.958 28.9645C129.185 29.3732 128.279 29.5776 127.239 29.5776C125.533 29.5776 124.196 29.0534 123.228 28.005C122.259 26.9565 121.775 25.5172 121.775 23.6869L121.775 15.9837L125.6 15.9837L125.6 22.8073C125.6 23.8468 125.844 24.6642 126.333 25.2595C126.83 25.8459 127.506 26.1391 128.359 26.1391C129.247 26.1391 129.949 25.8326 130.464 25.2196C130.989 24.5976 131.251 23.758 131.251 22.7007L131.251 15.9837L135.076 15.9837L135.076 29.311ZM160.011 29.311L156.186 29.311L156.186 22.6207C156.186 21.5101 155.968 20.6527 155.533 20.0486C155.098 19.4444 154.48 19.1423 153.681 19.1423C152.863 19.1423 152.223 19.4488 151.761 20.0619C151.308 20.6749 151.082 21.5279 151.082 22.6207L151.082 29.311L147.257 29.311L147.257 22.6207C147.257 21.5101 147.039 20.6527 146.604 20.0486C146.168 19.4444 145.546 19.1423 144.738 19.1423C143.929 19.1423 143.294 19.4488 142.832 20.0619C142.379 20.6749 142.152 21.5279 142.152 22.6207L142.152 29.311L138.328 29.311L138.328 15.9837L141.379 15.9837L141.513 18.1827C141.957 17.3742 142.552 16.7612 143.299 16.3436C144.054 15.926 144.929 15.7172 145.924 15.7172C146.964 15.7172 147.861 15.9349 148.616 16.3702C149.371 16.8056 149.953 17.432 150.362 18.2494C150.815 17.4231 151.415 16.7967 152.161 16.3702C152.916 15.9349 153.809 15.7172 154.84 15.7172C156.466 15.7172 157.732 16.237 158.638 17.2765C159.553 18.3071 160.011 19.7509 160.011 21.6079L160.011 29.311Z" fill="#1b1b1b" fill-rule="nonzero" opacity="1" stroke="none"/>
<path d="M171.646 29.311L167.541 29.311L167.541 12.9051L161.65 12.9051L161.65 9.32008L177.55 9.32008L177.55 12.9051L171.646 12.9051L171.646 29.311ZM183.281 29.311L179.456 29.311L179.456 15.9837L182.787 15.9837L182.921 18.2894C183.365 17.4808 183.969 16.85 184.733 16.3969C185.497 15.9438 186.372 15.7172 187.359 15.7172C187.643 15.7172 187.927 15.7394 188.212 15.7838C188.505 15.8194 188.802 15.8771 189.105 15.9571L188.625 19.3955C188.038 19.2267 187.483 19.1423 186.959 19.1423C186.221 19.1423 185.573 19.3111 185.013 19.6487C184.462 19.9775 184.036 20.4395 183.734 21.0348C183.432 21.6212 183.281 22.3098 183.281 23.1005L183.281 29.311ZM203.898 29.311L200.793 29.311L200.659 27.1787C200.188 27.9605 199.562 28.5558 198.78 28.9645C198.007 29.3732 197.101 29.5776 196.061 29.5776C194.355 29.5776 193.018 29.0534 192.05 28.005C191.081 26.9565 190.597 25.5172 190.597 23.6869L190.597 15.9837L194.422 15.9837L194.422 22.8073C194.422 23.8468 194.666 24.6642 195.155 25.2595C195.653 25.8459 196.328 26.1391 197.181 26.1391C198.069 26.1391 198.771 25.8326 199.287 25.2196C199.811 24.5976 200.073 23.758 200.073 22.7007L200.073 15.9837L203.898 15.9837L203.898 29.311ZM206.217 28.1649L207.056 24.913C207.323 25.2062 207.678 25.4772 208.123 25.726C208.576 25.9748 209.06 26.1747 209.575 26.3257C210.099 26.4679 210.593 26.539 211.055 26.539C211.605 26.539 212.036 26.4368 212.347 26.2324C212.658 26.0192 212.814 25.7349 212.814 25.3795C212.814 25.0863 212.707 24.8419 212.494 24.6465C212.29 24.4421 212.01 24.2644 211.654 24.1134C211.308 23.9535 210.921 23.798 210.495 23.6469C209.917 23.4248 209.322 23.1671 208.709 22.8739C208.105 22.5807 207.594 22.1809 207.176 21.6745C206.759 21.1681 206.55 20.4972 206.55 19.6621C206.55 18.8624 206.759 18.1694 207.176 17.583C207.594 16.9877 208.185 16.5302 208.949 16.2103C209.713 15.8816 210.601 15.7172 211.614 15.7172C213.258 15.7172 214.897 16.1303 216.532 16.9566L215.453 19.9819C215.168 19.7598 214.813 19.5554 214.386 19.3689C213.96 19.1734 213.52 19.0179 213.067 18.9024C212.623 18.7869 212.223 18.7292 211.868 18.7292C211.432 18.7292 211.09 18.818 210.841 18.9957C210.601 19.1734 210.482 19.4177 210.482 19.7287C210.482 19.9597 210.566 20.1685 210.735 20.3551C210.904 20.5328 211.152 20.706 211.481 20.8749C211.819 21.0348 212.232 21.208 212.721 21.3946C213.325 21.6167 213.933 21.8833 214.546 22.1943C215.168 22.4963 215.688 22.905 216.106 23.4204C216.532 23.9268 216.745 24.6021 216.745 25.4461C216.745 26.2724 216.519 26.9965 216.066 27.6185C215.621 28.2404 214.991 28.7246 214.173 29.0711C213.365 29.4088 212.414 29.5776 211.321 29.5776C209.5 29.5776 207.798 29.1067 206.217 28.1649ZM228.247 28.9645C227.225 29.3732 226.234 29.5776 225.275 29.5776C224.28 29.5776 223.4 29.3688 222.636 28.9512C221.881 28.5247 221.29 27.9339 220.863 27.1787C220.437 26.4146 220.224 25.535 220.224 24.5399L220.224 19.3955L217.892 19.3955L217.892 15.9837L220.424 15.9837L220.424 12.6519L224.049 12.6519L224.049 15.9837L227.74 15.9837L227.74 19.3955L224.049 19.3955L224.049 23.8468C224.049 24.5754 224.249 25.144 224.648 25.5527C225.048 25.9526 225.546 26.1525 226.141 26.1525C226.683 26.1525 227.212 25.9837 227.727 25.646L228.247 28.9645Z" fill="#e43625" fill-rule="nonzero" opacity="1" stroke="none"/>
<path d="M50.4082 48.3735L50.4082 32.7284L56.1969 32.7284C57.8796 32.7284 59.1834 33.0865 60.1082 33.8027C61.0399 34.512 61.5058 35.5098 61.5058 36.7962C61.5058 37.5819 61.3215 38.2772 60.953 38.8822C60.5845 39.4802 60.0873 39.9356 59.4615 40.2485C60.3515 40.5127 61.0434 40.9682 61.5371 41.6149C62.0377 42.2546 62.2881 43.0403 62.2881 43.972C62.2881 44.8621 62.069 45.6374 61.631 46.298C61.1998 46.9516 60.588 47.4626 59.7953 47.8312C59.0095 48.1927 58.0847 48.3735 57.0209 48.3735L50.4082 48.3735ZM53.6207 39.2785L56.0196 39.2785C56.7358 39.2785 57.3025 39.1082 57.7197 38.7674C58.1369 38.4267 58.3455 37.9643 58.3455 37.3802C58.3455 36.8101 58.1334 36.3616 57.7093 36.0348C57.2921 35.701 56.7114 35.5341 55.9674 35.5341L53.6207 35.5341L53.6207 39.2785ZM53.6207 45.5678L56.2178 45.5678C56.7879 45.5678 57.2816 45.4879 57.6988 45.328C58.116 45.1611 58.4359 44.9281 58.6584 44.6291C58.8879 44.3232 59.0026 43.9686 59.0026 43.5653C59.0026 43.162 58.8983 42.8178 58.6897 42.5327C58.488 42.2476 58.1925 42.0321 57.8031 41.886C57.4137 41.7331 56.9513 41.6566 56.4159 41.6566L53.6207 41.6566L53.6207 45.5678ZM73.5421 48.3735L70.9346 48.3735L70.7781 47.1324C70.3957 47.5913 69.9229 47.9494 69.3596 48.2067C68.7964 48.457 68.1776 48.5821 67.5031 48.5821C66.773 48.5821 66.1228 48.4431 65.5527 48.1649C64.9825 47.8798 64.534 47.4905 64.2072 46.9968C63.8804 46.4961 63.717 45.9294 63.717 45.2967C63.717 44.6291 63.8943 44.0416 64.2489 43.534C64.6035 43.0264 65.0903 42.63 65.7091 42.345C66.3349 42.0529 67.0442 41.9069 67.8368 41.9069C68.3027 41.9069 68.7686 41.959 69.2345 42.0633C69.7073 42.1676 70.1454 42.3137 70.5487 42.5014L70.5487 42.2302C70.5487 41.813 70.4305 41.4549 70.194 41.1559C69.9646 40.85 69.6447 40.6136 69.2345 40.4467C68.8312 40.2798 68.3792 40.1964 67.8786 40.1964C67.3988 40.1964 66.9225 40.2729 66.4496 40.4258C65.9838 40.5788 65.5527 40.8083 65.1563 41.1142L64.3428 38.83C65.0451 38.4685 65.7543 38.1973 66.4705 38.0165C67.1937 37.8287 67.8925 37.7349 68.567 37.7349C69.5821 37.7349 70.4617 37.9365 71.2058 38.3398C71.9498 38.7362 72.5234 39.2994 72.9267 40.0295C73.337 40.7526 73.5421 41.6114 73.5421 42.6057L73.5421 48.3735ZM68.1602 46.2771C68.5565 46.2771 68.9355 46.1902 69.2971 46.0163C69.6586 45.8425 69.9507 45.6061 70.1732 45.3071C70.4026 45.0081 70.5243 44.6778 70.5382 44.3162L70.5382 44.2432C70.2323 44.0346 69.8916 43.8747 69.5161 43.7634C69.1476 43.6452 68.7721 43.5861 68.3896 43.5861C67.8195 43.5861 67.3536 43.7113 66.992 43.9616C66.6304 44.2119 66.4496 44.5353 66.4496 44.9316C66.4496 45.1889 66.5227 45.4218 66.6687 45.6304C66.8217 45.8321 67.0268 45.992 67.2841 46.1102C67.5413 46.2215 67.8334 46.2771 68.1602 46.2771ZM86.2876 48.3735L83.2942 48.3735L83.2942 43.0333C83.2942 42.2198 83.0995 41.5836 82.7101 41.1246C82.3277 40.6588 81.8027 40.4258 81.1352 40.4258C80.4398 40.4258 79.887 40.6692 79.4768 41.1559C79.0735 41.6357 78.8719 42.2893 78.8719 43.1168L78.8719 48.3735L75.8784 48.3735L75.8784 37.9435L78.2982 37.9435L78.4025 39.6123C78.778 39.0004 79.2682 38.5345 79.8731 38.2147C80.4781 37.8948 81.1908 37.7349 82.0113 37.7349C83.3394 37.7349 84.3824 38.1451 85.1403 38.9656C85.9052 39.7792 86.2876 40.9056 86.2876 42.345L86.2876 48.3735ZM91.6174 48.3735L88.624 48.3735L88.624 32.7284L91.6174 32.7284L91.6174 42.345L92.6395 41.1142L95.6434 37.9435L99.3878 37.9435L94.9759 42.5849L99.9093 48.3735L96.0397 48.3735L92.9211 44.4623L91.6174 45.6513L91.6174 48.3735Z" fill="#1b1b1b" fill-rule="nonzero" opacity="1" stroke="none"/>
</g>
</svg>
