<svg width="380" height="90" viewBox="0 0 380 90" fill="none" xmlns="http://www.w3.org/2000/svg">
<g clip-path="url(#clip0_17_202)">
<path d="M72.7645 60.1069L37.0005 24.3428L17.2133 44.2844L36.8743 64.5695L53.8214 47.3171L62.0346 61.0324L47.9108 75.4107C41.8192 81.6121 31.8154 81.5786 25.7654 75.3366L3.13492 51.9876C-1.08006 47.6388 -1.03967 40.7167 3.22578 36.4174L26.0611 13.4035C32.0993 7.50179 41.7807 7.52857 47.7858 13.5065L67.6292 33.2605L84.9821 15.5949C85.165 15.7745 85.3668 15.9721 85.5845 16.1846C91.3457 21.8095 91.5024 31.0364 85.8591 36.7796L78.5933 44.1753L84.9937 50.5469C91.049 56.5748 91.0711 66.3702 85.0431 72.4254L72.7168 60.1546L72.7645 60.1069Z" fill="#3B87EB"/>
<path d="M32 51C35.866 51 39 47.866 39 44C39 40.134 35.866 37 32 37C28.134 37 25 40.134 25 44C25 47.866 28.134 51 32 51Z" fill="#3B87EB"/>
<mask id="path-2-outside-1_17_202" maskUnits="userSpaceOnUse" x="109.616" y="16" width="270" height="62" fill="black">
<rect fill="white" x="109.616" y="16" width="270" height="62"/>
<path fill-rule="evenodd" clip-rule="evenodd" d="M354.905 33.5431V34.1268C355.579 33.329 356.343 32.6208 357.217 32.0252C359.139 30.7149 361.519 29.9968 364.471 29.9968C369.037 29.9968 372.704 31.668 375.208 34.7666C377.69 37.8374 378.944 42.2032 378.944 47.46C378.944 52.7287 377.613 57.2152 375.077 60.4062C372.522 63.6215 368.804 65.4409 364.241 65.4409C361.401 65.4409 359.053 64.7359 357.143 63.452C356.304 62.8883 355.562 62.2209 354.905 61.4688V73.7987C354.905 74.7482 354.574 75.5911 353.893 76.1828C353.23 76.7583 352.349 77 351.417 77C350.463 77 349.568 76.7622 348.896 76.1878C348.203 75.5952 347.87 74.749 347.87 73.7987V33.6581C347.87 32.6885 348.197 31.8336 348.903 31.2416C349.581 30.6727 350.48 30.4568 351.417 30.4568C352.273 30.4568 353.137 30.6607 353.809 31.1835C354.515 31.732 354.905 32.5533 354.905 33.5431ZM353.717 37.7412C355.73 33.6581 358.893 30.9553 364.471 30.9553C359.861 30.9553 356.901 32.8011 354.876 35.7464C354.45 36.3651 354.066 37.0323 353.717 37.7412ZM353.832 47.6326C353.832 48.0783 353.847 48.5163 353.875 48.9459L353.832 47.6326ZM354.79 47.6326C354.79 44.2446 355.645 41.4234 357.162 39.4724C358.658 37.5485 360.848 36.3993 363.723 36.3993C366.336 36.3993 368.283 37.429 369.61 39.2658C370.967 41.1438 371.736 43.9534 371.736 47.5751C371.736 51.1598 370.942 54.0329 369.55 55.982C368.183 57.8948 366.202 58.9808 363.608 58.9808C360.893 58.9808 358.726 57.8302 357.214 55.8739C355.685 53.8953 354.79 51.0409 354.79 47.6326Z"/>
<path d="M329.023 31.2276C329.722 31.7868 330.126 32.6147 330.137 33.6158C331.798 31.7875 334.27 30.2981 337.557 30.1715C338.058 30.1118 338.497 30.1118 338.881 30.1118H338.898C339.848 30.1118 340.551 30.2397 341.363 30.4129C342.184 30.5276 342.877 30.857 343.355 31.4402C343.833 32.0228 343.997 32.738 343.997 33.4281C343.997 33.7966 343.928 34.209 343.875 34.5251L343.867 34.5742L343.865 34.5851C343.592 36.0161 342.547 37.607 340.68 37.607L340.654 37.6071C340.503 37.6075 340.221 37.6082 339.92 37.5192L339.863 37.5071C339.109 37.345 338.459 37.2055 337.414 37.2045C335.308 37.257 333.66 38.3218 332.349 39.999L332.344 40.0063L332.338 40.0134C330.966 41.7016 330.191 43.6248 330.137 45.8042V61.6646C330.137 62.7014 329.741 63.5601 329.03 64.1398C328.346 64.6976 327.463 64.9234 326.591 64.9234C325.654 64.9234 324.737 64.7077 324.035 64.1443C323.302 63.5551 322.93 62.6867 322.93 61.6646V33.6582C322.93 32.6528 323.311 31.7998 324.042 31.2232C324.741 30.6726 325.654 30.4569 326.591 30.4569C327.463 30.4569 328.341 30.6825 329.023 31.2276Z"/>
<path fill-rule="evenodd" clip-rule="evenodd" d="M212.382 33.6581V34.0888C213.098 33.2697 213.916 32.5513 214.843 31.9537C216.817 30.683 219.231 29.9968 222.12 29.9968C225.738 29.9968 228.652 31.0972 230.651 33.2588C232.64 35.4088 233.602 38.4757 233.602 42.1693V61.6645C233.602 62.7021 233.205 63.5638 232.482 64.1443C231.788 64.7013 230.892 64.9233 229.998 64.9233C229.083 64.9233 228.18 64.7044 227.488 64.1398C226.766 63.5512 226.394 62.6859 226.394 61.6645V43.262C226.394 40.9207 225.922 39.2595 225.084 38.1988C224.279 37.1803 223.022 36.5719 221.084 36.5719C218.312 36.5719 216.003 37.7832 214.212 40.2582L214.208 40.2643C212.88 42.0703 212.382 43.542 212.382 45.5623V61.6645C212.382 62.6852 212.011 63.5474 211.301 64.1352C210.618 64.7009 209.729 64.9233 208.835 64.9233C207.898 64.9233 206.989 64.7076 206.297 64.1352C205.577 63.5386 205.231 62.6693 205.231 61.6645V33.6581C205.231 32.6527 205.612 31.7998 206.344 31.2231C207.043 30.6725 207.955 30.4568 208.893 30.4568C209.787 30.4568 210.664 30.6796 211.335 31.2416C212.03 31.8245 212.382 32.672 212.382 33.6581ZM222.12 30.9552C216.656 30.9552 213.206 33.5431 211.193 37.6262C211.54 36.9223 211.93 36.2628 212.365 35.6533C214.455 32.7277 217.598 30.9552 222.12 30.9552Z"/>
<path fill-rule="evenodd" clip-rule="evenodd" d="M190.83 33.6582V61.6646C190.83 62.6518 191.149 63.5218 191.856 64.1256C192.537 64.7076 193.439 64.9234 194.376 64.9234C195.291 64.9234 196.194 64.7045 196.887 64.1398C197.609 63.5513 197.98 62.686 197.98 61.6646V33.6582C197.98 32.6536 197.6 31.8037 196.88 31.2276C196.19 30.6758 195.292 30.4569 194.376 30.4569C193.439 30.4569 192.541 30.6727 191.863 31.2417C191.157 31.8337 190.83 32.6885 190.83 33.6582Z"/>
<path fill-rule="evenodd" clip-rule="evenodd" d="M199.245 22.2716C199.245 19.5476 197.081 17.4601 194.434 17.4601C191.738 17.4601 189.565 19.5384 189.565 22.2716C189.565 25.053 191.728 27.1406 194.434 27.1406C197.091 27.1406 199.245 25.0437 199.245 22.2716Z"/>
<path fill-rule="evenodd" clip-rule="evenodd" d="M185.179 47.6326C185.179 42.4649 183.783 38.0533 181.096 34.9177C178.393 31.7643 174.463 29.9968 169.614 29.9968C164.709 29.9968 160.711 31.7767 157.951 34.932C155.205 38.0724 153.761 42.4853 153.761 47.6326C153.761 52.9151 155.186 57.3879 157.943 60.5543C160.715 63.7375 164.745 65.4984 169.729 65.4984C174.481 65.4984 178.378 63.6606 181.073 60.4554C183.752 57.2676 185.179 52.8046 185.179 47.6326ZM160.968 47.8051C160.968 44.1149 161.83 41.2418 163.326 39.3136C164.798 37.4165 166.953 36.3418 169.786 36.3418C172.413 36.3418 174.41 37.4317 175.782 39.3245C177.179 41.2522 177.972 44.0806 177.972 47.5751C177.972 51.2813 177.175 54.1881 175.736 56.1435C174.326 58.0583 172.236 59.1534 169.384 59.1534C166.726 59.1534 164.668 58.047 163.246 56.1267C161.8 54.1758 160.968 51.32 160.968 47.8051Z"/>
<path fill-rule="evenodd" clip-rule="evenodd" d="M308.15 32.6226C305.961 31.1358 303.275 30.2479 300.168 30.0645C295.272 29.7753 291.176 31.3165 288.235 34.3036C285.308 37.2766 283.607 41.5967 283.303 46.735C282.992 52.0084 284.151 56.5574 286.716 59.8809C289.295 63.2219 293.215 65.2173 298.19 65.5111C302.068 65.7401 305.448 64.7096 308.125 62.6647C308.136 62.7128 308.147 62.7599 308.159 62.8059C308.348 63.6366 308.877 64.1961 309.525 64.5203C310.141 64.8282 310.854 64.9234 311.507 64.9234H312.063L312.101 64.9203C313.798 64.7845 315.283 63.7523 315.283 62.1247C315.283 61.7986 315.188 61.4548 315.122 61.2545C314.815 60.2792 314.536 58.4307 314.536 56.4889V38.9042C314.536 36.9624 314.815 35.1139 315.122 34.1387C315.188 33.9384 315.283 33.5946 315.283 33.2684C315.283 31.6408 313.798 30.6086 312.101 30.4728L312.063 30.4697H311.507C310.854 30.4697 310.141 30.5649 309.525 30.8728C308.877 31.197 308.348 31.7565 308.159 32.5872C308.156 32.5989 308.153 32.6107 308.15 32.6226ZM293.342 38.9944C291.735 40.8311 290.706 43.6484 290.488 47.3322C290.281 50.841 290.943 53.7408 292.271 55.7736C293.578 57.7744 295.567 59.0001 298.22 59.1568C301.067 59.3249 303.218 58.355 304.738 56.5266C306.29 54.6595 307.257 51.8046 307.475 48.1049C307.681 44.6165 307.057 41.7463 305.776 39.7395C304.518 37.7692 302.588 36.5635 299.966 36.4087C297.138 36.2416 294.924 37.1874 293.342 38.9944Z"/>
<path fill-rule="evenodd" clip-rule="evenodd" d="M141.917 30.8639L141.925 30.8849L141.935 30.9055C142.641 32.3947 143.942 32.9489 145.217 32.9489C145.753 32.9489 146.327 32.8823 146.917 32.6639C148.022 32.289 149.338 31.2063 149.338 29.4601C149.338 29.0138 149.264 28.4814 149.034 27.9401C147.951 25.295 146.204 22.5482 143.369 20.4642C140.523 18.3722 136.651 17 131.415 17C125.168 17 119.936 19.4266 116.28 23.7126C112.636 27.9844 110.616 34.03 110.616 41.1917C110.616 48.521 112.633 54.6013 116.336 58.8642C120.051 63.1417 125.386 65.4984 131.817 65.4984C137.154 65.4984 141.143 63.8128 144.061 61.339C146.963 58.8787 148.755 55.684 149.801 52.7253L149.804 52.7171L149.806 52.7089C149.946 52.2908 150.028 51.8993 150.028 51.4281C150.028 49.6384 148.542 48.5023 147.299 48.2003C146.828 48.0675 146.344 47.9968 145.907 47.9968C144.484 47.9968 143.039 48.7023 142.418 50.4105L142.412 50.4261L142.407 50.4418C141.695 52.6345 140.579 54.6467 138.883 56.1078C137.204 57.5544 134.887 58.5208 131.645 58.5208C127.622 58.5208 124.32 56.87 122.003 53.9326C119.668 50.9742 118.284 46.6446 118.284 41.2492C118.284 35.7349 119.67 31.3935 122.001 28.4524C124.315 25.5337 127.614 23.9201 131.645 23.9201C134.746 23.9201 136.887 24.7183 138.446 25.932C140.02 27.1576 141.088 28.875 141.917 30.8639Z"/>
<path d="M270.525 30.8849L270.516 30.8639C269.688 28.875 268.619 27.1576 267.045 25.932C265.487 24.7183 263.346 23.9201 260.245 23.9201C256.214 23.9201 252.915 25.5337 250.601 28.4524C248.27 31.3935 246.883 35.7349 246.883 41.2492C246.883 46.6446 248.268 50.9742 250.602 53.9326C252.92 56.87 256.222 58.5208 260.245 58.5208C263.487 58.5208 265.804 57.5544 267.483 56.1078C269.179 54.6467 270.295 52.6345 271.007 50.4418L271.012 50.4261L271.018 50.4105C271.639 48.7023 273.084 47.9968 274.507 47.9968C274.944 47.9968 275.428 48.0675 275.899 48.2003C277.142 48.5023 278.628 49.6384 278.628 51.4281C278.628 51.8993 278.546 52.2908 278.406 52.7089L278.403 52.7171L278.401 52.7253C277.355 55.684 275.563 58.8787 272.661 61.339C269.743 63.8128 265.754 65.4984 260.417 65.4984C253.986 65.4984 248.651 63.1417 244.935 58.8642C241.233 54.6013 239.216 48.521 239.216 41.1917C239.216 34.03 241.235 27.9844 244.88 23.7126C248.536 19.4266 253.768 17 260.014 17C265.251 17 269.123 18.3722 271.969 20.4642C274.804 22.5482 276.55 25.295 277.634 27.9401C277.864 28.4814 277.938 29.0138 277.938 29.4601C277.938 31.2063 276.622 32.289 275.517 32.6639C274.927 32.8823 274.353 32.9489 273.816 32.9489C272.542 32.9489 271.24 32.3947 270.535 30.9055L270.525 30.8849Z"/>
</mask>
<path fill-rule="evenodd" clip-rule="evenodd" d="M354.905 33.5431V34.1268C355.579 33.329 356.343 32.6208 357.217 32.0252C359.139 30.7149 361.519 29.9968 364.471 29.9968C369.037 29.9968 372.704 31.668 375.208 34.7666C377.69 37.8374 378.944 42.2032 378.944 47.46C378.944 52.7287 377.613 57.2152 375.077 60.4062C372.522 63.6215 368.804 65.4409 364.241 65.4409C361.401 65.4409 359.053 64.7359 357.143 63.452C356.304 62.8883 355.562 62.2209 354.905 61.4688V73.7987C354.905 74.7482 354.574 75.5911 353.893 76.1828C353.23 76.7583 352.349 77 351.417 77C350.463 77 349.568 76.7622 348.896 76.1878C348.203 75.5952 347.87 74.749 347.87 73.7987V33.6581C347.87 32.6885 348.197 31.8336 348.903 31.2416C349.581 30.6727 350.48 30.4568 351.417 30.4568C352.273 30.4568 353.137 30.6607 353.809 31.1835C354.515 31.732 354.905 32.5533 354.905 33.5431ZM353.717 37.7412C355.73 33.6581 358.893 30.9553 364.471 30.9553C359.861 30.9553 356.901 32.8011 354.876 35.7464C354.45 36.3651 354.066 37.0323 353.717 37.7412ZM353.832 47.6326C353.832 48.0783 353.847 48.5163 353.875 48.9459L353.832 47.6326ZM354.79 47.6326C354.79 44.2446 355.645 41.4234 357.162 39.4724C358.658 37.5485 360.848 36.3993 363.723 36.3993C366.336 36.3993 368.283 37.429 369.61 39.2658C370.967 41.1438 371.736 43.9534 371.736 47.5751C371.736 51.1598 370.942 54.0329 369.55 55.982C368.183 57.8948 366.202 58.9808 363.608 58.9808C360.893 58.9808 358.726 57.8302 357.214 55.8739C355.685 53.8953 354.79 51.0409 354.79 47.6326Z" fill="black"/>
<path d="M329.023 31.2276C329.722 31.7868 330.126 32.6147 330.137 33.6158C331.798 31.7875 334.27 30.2981 337.557 30.1715C338.058 30.1118 338.497 30.1118 338.881 30.1118H338.898C339.848 30.1118 340.551 30.2397 341.363 30.4129C342.184 30.5276 342.877 30.857 343.355 31.4402C343.833 32.0228 343.997 32.738 343.997 33.4281C343.997 33.7966 343.928 34.209 343.875 34.5251L343.867 34.5742L343.865 34.5851C343.592 36.0161 342.547 37.607 340.68 37.607L340.654 37.6071C340.503 37.6075 340.221 37.6082 339.92 37.5192L339.863 37.5071C339.109 37.345 338.459 37.2055 337.414 37.2045C335.308 37.257 333.66 38.3218 332.349 39.999L332.344 40.0063L332.338 40.0134C330.966 41.7016 330.191 43.6248 330.137 45.8042V61.6646C330.137 62.7014 329.741 63.5601 329.03 64.1398C328.346 64.6976 327.463 64.9234 326.591 64.9234C325.654 64.9234 324.737 64.7077 324.035 64.1443C323.302 63.5551 322.93 62.6867 322.93 61.6646V33.6582C322.93 32.6528 323.311 31.7998 324.042 31.2232C324.741 30.6726 325.654 30.4569 326.591 30.4569C327.463 30.4569 328.341 30.6825 329.023 31.2276Z" fill="black"/>
<path fill-rule="evenodd" clip-rule="evenodd" d="M212.382 33.6581V34.0888C213.098 33.2697 213.916 32.5513 214.843 31.9537C216.817 30.683 219.231 29.9968 222.12 29.9968C225.738 29.9968 228.652 31.0972 230.651 33.2588C232.64 35.4088 233.602 38.4757 233.602 42.1693V61.6645C233.602 62.7021 233.205 63.5638 232.482 64.1443C231.788 64.7013 230.892 64.9233 229.998 64.9233C229.083 64.9233 228.18 64.7044 227.488 64.1398C226.766 63.5512 226.394 62.6859 226.394 61.6645V43.262C226.394 40.9207 225.922 39.2595 225.084 38.1988C224.279 37.1803 223.022 36.5719 221.084 36.5719C218.312 36.5719 216.003 37.7832 214.212 40.2582L214.208 40.2643C212.88 42.0703 212.382 43.542 212.382 45.5623V61.6645C212.382 62.6852 212.011 63.5474 211.301 64.1352C210.618 64.7009 209.729 64.9233 208.835 64.9233C207.898 64.9233 206.989 64.7076 206.297 64.1352C205.577 63.5386 205.231 62.6693 205.231 61.6645V33.6581C205.231 32.6527 205.612 31.7998 206.344 31.2231C207.043 30.6725 207.955 30.4568 208.893 30.4568C209.787 30.4568 210.664 30.6796 211.335 31.2416C212.03 31.8245 212.382 32.672 212.382 33.6581ZM222.12 30.9552C216.656 30.9552 213.206 33.5431 211.193 37.6262C211.54 36.9223 211.93 36.2628 212.365 35.6533C214.455 32.7277 217.598 30.9552 222.12 30.9552Z" fill="black"/>
<path fill-rule="evenodd" clip-rule="evenodd" d="M190.83 33.6582V61.6646C190.83 62.6518 191.149 63.5218 191.856 64.1256C192.537 64.7076 193.439 64.9234 194.376 64.9234C195.291 64.9234 196.194 64.7045 196.887 64.1398C197.609 63.5513 197.98 62.686 197.98 61.6646V33.6582C197.98 32.6536 197.6 31.8037 196.88 31.2276C196.19 30.6758 195.292 30.4569 194.376 30.4569C193.439 30.4569 192.541 30.6727 191.863 31.2417C191.157 31.8337 190.83 32.6885 190.83 33.6582Z" fill="black"/>
<path fill-rule="evenodd" clip-rule="evenodd" d="M199.245 22.2716C199.245 19.5476 197.081 17.4601 194.434 17.4601C191.738 17.4601 189.565 19.5384 189.565 22.2716C189.565 25.053 191.728 27.1406 194.434 27.1406C197.091 27.1406 199.245 25.0437 199.245 22.2716Z" fill="black"/>
<path fill-rule="evenodd" clip-rule="evenodd" d="M185.179 47.6326C185.179 42.4649 183.783 38.0533 181.096 34.9177C178.393 31.7643 174.463 29.9968 169.614 29.9968C164.709 29.9968 160.711 31.7767 157.951 34.932C155.205 38.0724 153.761 42.4853 153.761 47.6326C153.761 52.9151 155.186 57.3879 157.943 60.5543C160.715 63.7375 164.745 65.4984 169.729 65.4984C174.481 65.4984 178.378 63.6606 181.073 60.4554C183.752 57.2676 185.179 52.8046 185.179 47.6326ZM160.968 47.8051C160.968 44.1149 161.83 41.2418 163.326 39.3136C164.798 37.4165 166.953 36.3418 169.786 36.3418C172.413 36.3418 174.41 37.4317 175.782 39.3245C177.179 41.2522 177.972 44.0806 177.972 47.5751C177.972 51.2813 177.175 54.1881 175.736 56.1435C174.326 58.0583 172.236 59.1534 169.384 59.1534C166.726 59.1534 164.668 58.047 163.246 56.1267C161.8 54.1758 160.968 51.32 160.968 47.8051Z" fill="black"/>
<path fill-rule="evenodd" clip-rule="evenodd" d="M308.15 32.6226C305.961 31.1358 303.275 30.2479 300.168 30.0645C295.272 29.7753 291.176 31.3165 288.235 34.3036C285.308 37.2766 283.607 41.5967 283.303 46.735C282.992 52.0084 284.151 56.5574 286.716 59.8809C289.295 63.2219 293.215 65.2173 298.19 65.5111C302.068 65.7401 305.448 64.7096 308.125 62.6647C308.136 62.7128 308.147 62.7599 308.159 62.8059C308.348 63.6366 308.877 64.1961 309.525 64.5203C310.141 64.8282 310.854 64.9234 311.507 64.9234H312.063L312.101 64.9203C313.798 64.7845 315.283 63.7523 315.283 62.1247C315.283 61.7986 315.188 61.4548 315.122 61.2545C314.815 60.2792 314.536 58.4307 314.536 56.4889V38.9042C314.536 36.9624 314.815 35.1139 315.122 34.1387C315.188 33.9384 315.283 33.5946 315.283 33.2684C315.283 31.6408 313.798 30.6086 312.101 30.4728L312.063 30.4697H311.507C310.854 30.4697 310.141 30.5649 309.525 30.8728C308.877 31.197 308.348 31.7565 308.159 32.5872C308.156 32.5989 308.153 32.6107 308.15 32.6226ZM293.342 38.9944C291.735 40.8311 290.706 43.6484 290.488 47.3322C290.281 50.841 290.943 53.7408 292.271 55.7736C293.578 57.7744 295.567 59.0001 298.22 59.1568C301.067 59.3249 303.218 58.355 304.738 56.5266C306.29 54.6595 307.257 51.8046 307.475 48.1049C307.681 44.6165 307.057 41.7463 305.776 39.7395C304.518 37.7692 302.588 36.5635 299.966 36.4087C297.138 36.2416 294.924 37.1874 293.342 38.9944Z" fill="black"/>
<path fill-rule="evenodd" clip-rule="evenodd" d="M141.917 30.8639L141.925 30.8849L141.935 30.9055C142.641 32.3947 143.942 32.9489 145.217 32.9489C145.753 32.9489 146.327 32.8823 146.917 32.6639C148.022 32.289 149.338 31.2063 149.338 29.4601C149.338 29.0138 149.264 28.4814 149.034 27.9401C147.951 25.295 146.204 22.5482 143.369 20.4642C140.523 18.3722 136.651 17 131.415 17C125.168 17 119.936 19.4266 116.28 23.7126C112.636 27.9844 110.616 34.03 110.616 41.1917C110.616 48.521 112.633 54.6013 116.336 58.8642C120.051 63.1417 125.386 65.4984 131.817 65.4984C137.154 65.4984 141.143 63.8128 144.061 61.339C146.963 58.8787 148.755 55.684 149.801 52.7253L149.804 52.7171L149.806 52.7089C149.946 52.2908 150.028 51.8993 150.028 51.4281C150.028 49.6384 148.542 48.5023 147.299 48.2003C146.828 48.0675 146.344 47.9968 145.907 47.9968C144.484 47.9968 143.039 48.7023 142.418 50.4105L142.412 50.4261L142.407 50.4418C141.695 52.6345 140.579 54.6467 138.883 56.1078C137.204 57.5544 134.887 58.5208 131.645 58.5208C127.622 58.5208 124.32 56.87 122.003 53.9326C119.668 50.9742 118.284 46.6446 118.284 41.2492C118.284 35.7349 119.67 31.3935 122.001 28.4524C124.315 25.5337 127.614 23.9201 131.645 23.9201C134.746 23.9201 136.887 24.7183 138.446 25.932C140.02 27.1576 141.088 28.875 141.917 30.8639Z" fill="black"/>
<path d="M270.525 30.8849L270.516 30.8639C269.688 28.875 268.619 27.1576 267.045 25.932C265.487 24.7183 263.346 23.9201 260.245 23.9201C256.214 23.9201 252.915 25.5337 250.601 28.4524C248.27 31.3935 246.883 35.7349 246.883 41.2492C246.883 46.6446 248.268 50.9742 250.602 53.9326C252.92 56.87 256.222 58.5208 260.245 58.5208C263.487 58.5208 265.804 57.5544 267.483 56.1078C269.179 54.6467 270.295 52.6345 271.007 50.4418L271.012 50.4261L271.018 50.4105C271.639 48.7023 273.084 47.9968 274.507 47.9968C274.944 47.9968 275.428 48.0675 275.899 48.2003C277.142 48.5023 278.628 49.6384 278.628 51.4281C278.628 51.8993 278.546 52.2908 278.406 52.7089L278.403 52.7171L278.401 52.7253C277.355 55.684 275.563 58.8787 272.661 61.339C269.743 63.8128 265.754 65.4984 260.417 65.4984C253.986 65.4984 248.651 63.1417 244.935 58.8642C241.233 54.6013 239.216 48.521 239.216 41.1917C239.216 34.03 241.235 27.9844 244.88 23.7126C248.536 19.4266 253.768 17 260.014 17C265.251 17 269.123 18.3722 271.969 20.4642C274.804 22.5482 276.55 25.295 277.634 27.9401C277.864 28.4814 277.938 29.0138 277.938 29.4601C277.938 31.2063 276.622 32.289 275.517 32.6639C274.927 32.8823 274.353 32.9489 273.816 32.9489C272.542 32.9489 271.24 32.3947 270.535 30.9055L270.525 30.8849Z" fill="black"/>
<path fill-rule="evenodd" clip-rule="evenodd" d="M354.905 33.5431V34.1268C355.579 33.329 356.343 32.6208 357.217 32.0252C359.139 30.7149 361.519 29.9968 364.471 29.9968C369.037 29.9968 372.704 31.668 375.208 34.7666C377.69 37.8374 378.944 42.2032 378.944 47.46C378.944 52.7287 377.613 57.2152 375.077 60.4062C372.522 63.6215 368.804 65.4409 364.241 65.4409C361.401 65.4409 359.053 64.7359 357.143 63.452C356.304 62.8883 355.562 62.2209 354.905 61.4688V73.7987C354.905 74.7482 354.574 75.5911 353.893 76.1828C353.23 76.7583 352.349 77 351.417 77C350.463 77 349.568 76.7622 348.896 76.1878C348.203 75.5952 347.87 74.749 347.87 73.7987V33.6581C347.87 32.6885 348.197 31.8336 348.903 31.2416C349.581 30.6727 350.48 30.4568 351.417 30.4568C352.273 30.4568 353.137 30.6607 353.809 31.1835C354.515 31.732 354.905 32.5533 354.905 33.5431ZM353.717 37.7412C355.73 33.6581 358.893 30.9553 364.471 30.9553C359.861 30.9553 356.901 32.8011 354.876 35.7464C354.45 36.3651 354.066 37.0323 353.717 37.7412ZM353.832 47.6326C353.832 48.0783 353.847 48.5163 353.875 48.9459L353.832 47.6326ZM354.79 47.6326C354.79 44.2446 355.645 41.4234 357.162 39.4724C358.658 37.5485 360.848 36.3993 363.723 36.3993C366.336 36.3993 368.283 37.429 369.61 39.2658C370.967 41.1438 371.736 43.9534 371.736 47.5751C371.736 51.1598 370.942 54.0329 369.55 55.982C368.183 57.8948 366.202 58.9808 363.608 58.9808C360.893 58.9808 358.726 57.8302 357.214 55.8739C355.685 53.8953 354.79 51.0409 354.79 47.6326Z" stroke="black" stroke-width="0.6" mask="url(#path-2-outside-1_17_202)"/>
<path d="M329.023 31.2276C329.722 31.7868 330.126 32.6147 330.137 33.6158C331.798 31.7875 334.27 30.2981 337.557 30.1715C338.058 30.1118 338.497 30.1118 338.881 30.1118H338.898C339.848 30.1118 340.551 30.2397 341.363 30.4129C342.184 30.5276 342.877 30.857 343.355 31.4402C343.833 32.0228 343.997 32.738 343.997 33.4281C343.997 33.7966 343.928 34.209 343.875 34.5251L343.867 34.5742L343.865 34.5851C343.592 36.0161 342.547 37.607 340.68 37.607L340.654 37.6071C340.503 37.6075 340.221 37.6082 339.92 37.5192L339.863 37.5071C339.109 37.345 338.459 37.2055 337.414 37.2045C335.308 37.257 333.66 38.3218 332.349 39.999L332.344 40.0063L332.338 40.0134C330.966 41.7016 330.191 43.6248 330.137 45.8042V61.6646C330.137 62.7014 329.741 63.5601 329.03 64.1398C328.346 64.6976 327.463 64.9234 326.591 64.9234C325.654 64.9234 324.737 64.7077 324.035 64.1443C323.302 63.5551 322.93 62.6867 322.93 61.6646V33.6582C322.93 32.6528 323.311 31.7998 324.042 31.2232C324.741 30.6726 325.654 30.4569 326.591 30.4569C327.463 30.4569 328.341 30.6825 329.023 31.2276Z" stroke="black" stroke-width="0.6" mask="url(#path-2-outside-1_17_202)"/>
<path fill-rule="evenodd" clip-rule="evenodd" d="M212.382 33.6581V34.0888C213.098 33.2697 213.916 32.5513 214.843 31.9537C216.817 30.683 219.231 29.9968 222.12 29.9968C225.738 29.9968 228.652 31.0972 230.651 33.2588C232.64 35.4088 233.602 38.4757 233.602 42.1693V61.6645C233.602 62.7021 233.205 63.5638 232.482 64.1443C231.788 64.7013 230.892 64.9233 229.998 64.9233C229.083 64.9233 228.18 64.7044 227.488 64.1398C226.766 63.5512 226.394 62.6859 226.394 61.6645V43.262C226.394 40.9207 225.922 39.2595 225.084 38.1988C224.279 37.1803 223.022 36.5719 221.084 36.5719C218.312 36.5719 216.003 37.7832 214.212 40.2582L214.208 40.2643C212.88 42.0703 212.382 43.542 212.382 45.5623V61.6645C212.382 62.6852 212.011 63.5474 211.301 64.1352C210.618 64.7009 209.729 64.9233 208.835 64.9233C207.898 64.9233 206.989 64.7076 206.297 64.1352C205.577 63.5386 205.231 62.6693 205.231 61.6645V33.6581C205.231 32.6527 205.612 31.7998 206.344 31.2231C207.043 30.6725 207.955 30.4568 208.893 30.4568C209.787 30.4568 210.664 30.6796 211.335 31.2416C212.03 31.8245 212.382 32.672 212.382 33.6581ZM222.12 30.9552C216.656 30.9552 213.206 33.5431 211.193 37.6262C211.54 36.9223 211.93 36.2628 212.365 35.6533C214.455 32.7277 217.598 30.9552 222.12 30.9552Z" stroke="black" stroke-width="0.6" mask="url(#path-2-outside-1_17_202)"/>
<path fill-rule="evenodd" clip-rule="evenodd" d="M190.83 33.6582V61.6646C190.83 62.6518 191.149 63.5218 191.856 64.1256C192.537 64.7076 193.439 64.9234 194.376 64.9234C195.291 64.9234 196.194 64.7045 196.887 64.1398C197.609 63.5513 197.98 62.686 197.98 61.6646V33.6582C197.98 32.6536 197.6 31.8037 196.88 31.2276C196.19 30.6758 195.292 30.4569 194.376 30.4569C193.439 30.4569 192.541 30.6727 191.863 31.2417C191.157 31.8337 190.83 32.6885 190.83 33.6582Z" stroke="black" stroke-width="0.6" mask="url(#path-2-outside-1_17_202)"/>
<path fill-rule="evenodd" clip-rule="evenodd" d="M199.245 22.2716C199.245 19.5476 197.081 17.4601 194.434 17.4601C191.738 17.4601 189.565 19.5384 189.565 22.2716C189.565 25.053 191.728 27.1406 194.434 27.1406C197.091 27.1406 199.245 25.0437 199.245 22.2716Z" stroke="black" stroke-width="0.6" mask="url(#path-2-outside-1_17_202)"/>
<path fill-rule="evenodd" clip-rule="evenodd" d="M185.179 47.6326C185.179 42.4649 183.783 38.0533 181.096 34.9177C178.393 31.7643 174.463 29.9968 169.614 29.9968C164.709 29.9968 160.711 31.7767 157.951 34.932C155.205 38.0724 153.761 42.4853 153.761 47.6326C153.761 52.9151 155.186 57.3879 157.943 60.5543C160.715 63.7375 164.745 65.4984 169.729 65.4984C174.481 65.4984 178.378 63.6606 181.073 60.4554C183.752 57.2676 185.179 52.8046 185.179 47.6326ZM160.968 47.8051C160.968 44.1149 161.83 41.2418 163.326 39.3136C164.798 37.4165 166.953 36.3418 169.786 36.3418C172.413 36.3418 174.41 37.4317 175.782 39.3245C177.179 41.2522 177.972 44.0806 177.972 47.5751C177.972 51.2813 177.175 54.1881 175.736 56.1435C174.326 58.0583 172.236 59.1534 169.384 59.1534C166.726 59.1534 164.668 58.047 163.246 56.1267C161.8 54.1758 160.968 51.32 160.968 47.8051Z" stroke="black" stroke-width="0.6" mask="url(#path-2-outside-1_17_202)"/>
<path fill-rule="evenodd" clip-rule="evenodd" d="M308.15 32.6226C305.961 31.1358 303.275 30.2479 300.168 30.0645C295.272 29.7753 291.176 31.3165 288.235 34.3036C285.308 37.2766 283.607 41.5967 283.303 46.735C282.992 52.0084 284.151 56.5574 286.716 59.8809C289.295 63.2219 293.215 65.2173 298.19 65.5111C302.068 65.7401 305.448 64.7096 308.125 62.6647C308.136 62.7128 308.147 62.7599 308.159 62.8059C308.348 63.6366 308.877 64.1961 309.525 64.5203C310.141 64.8282 310.854 64.9234 311.507 64.9234H312.063L312.101 64.9203C313.798 64.7845 315.283 63.7523 315.283 62.1247C315.283 61.7986 315.188 61.4548 315.122 61.2545C314.815 60.2792 314.536 58.4307 314.536 56.4889V38.9042C314.536 36.9624 314.815 35.1139 315.122 34.1387C315.188 33.9384 315.283 33.5946 315.283 33.2684C315.283 31.6408 313.798 30.6086 312.101 30.4728L312.063 30.4697H311.507C310.854 30.4697 310.141 30.5649 309.525 30.8728C308.877 31.197 308.348 31.7565 308.159 32.5872C308.156 32.5989 308.153 32.6107 308.15 32.6226ZM293.342 38.9944C291.735 40.8311 290.706 43.6484 290.488 47.3322C290.281 50.841 290.943 53.7408 292.271 55.7736C293.578 57.7744 295.567 59.0001 298.22 59.1568C301.067 59.3249 303.218 58.355 304.738 56.5266C306.29 54.6595 307.257 51.8046 307.475 48.1049C307.681 44.6165 307.057 41.7463 305.776 39.7395C304.518 37.7692 302.588 36.5635 299.966 36.4087C297.138 36.2416 294.924 37.1874 293.342 38.9944Z" stroke="black" stroke-width="0.6" mask="url(#path-2-outside-1_17_202)"/>
<path fill-rule="evenodd" clip-rule="evenodd" d="M141.917 30.8639L141.925 30.8849L141.935 30.9055C142.641 32.3947 143.942 32.9489 145.217 32.9489C145.753 32.9489 146.327 32.8823 146.917 32.6639C148.022 32.289 149.338 31.2063 149.338 29.4601C149.338 29.0138 149.264 28.4814 149.034 27.9401C147.951 25.295 146.204 22.5482 143.369 20.4642C140.523 18.3722 136.651 17 131.415 17C125.168 17 119.936 19.4266 116.28 23.7126C112.636 27.9844 110.616 34.03 110.616 41.1917C110.616 48.521 112.633 54.6013 116.336 58.8642C120.051 63.1417 125.386 65.4984 131.817 65.4984C137.154 65.4984 141.143 63.8128 144.061 61.339C146.963 58.8787 148.755 55.684 149.801 52.7253L149.804 52.7171L149.806 52.7089C149.946 52.2908 150.028 51.8993 150.028 51.4281C150.028 49.6384 148.542 48.5023 147.299 48.2003C146.828 48.0675 146.344 47.9968 145.907 47.9968C144.484 47.9968 143.039 48.7023 142.418 50.4105L142.412 50.4261L142.407 50.4418C141.695 52.6345 140.579 54.6467 138.883 56.1078C137.204 57.5544 134.887 58.5208 131.645 58.5208C127.622 58.5208 124.32 56.87 122.003 53.9326C119.668 50.9742 118.284 46.6446 118.284 41.2492C118.284 35.7349 119.67 31.3935 122.001 28.4524C124.315 25.5337 127.614 23.9201 131.645 23.9201C134.746 23.9201 136.887 24.7183 138.446 25.932C140.02 27.1576 141.088 28.875 141.917 30.8639Z" stroke="black" stroke-width="0.6" mask="url(#path-2-outside-1_17_202)"/>
<path d="M270.525 30.8849L270.516 30.8639C269.688 28.875 268.619 27.1576 267.045 25.932C265.487 24.7183 263.346 23.9201 260.245 23.9201C256.214 23.9201 252.915 25.5337 250.601 28.4524C248.27 31.3935 246.883 35.7349 246.883 41.2492C246.883 46.6446 248.268 50.9742 250.602 53.9326C252.92 56.87 256.222 58.5208 260.245 58.5208C263.487 58.5208 265.804 57.5544 267.483 56.1078C269.179 54.6467 270.295 52.6345 271.007 50.4418L271.012 50.4261L271.018 50.4105C271.639 48.7023 273.084 47.9968 274.507 47.9968C274.944 47.9968 275.428 48.0675 275.899 48.2003C277.142 48.5023 278.628 49.6384 278.628 51.4281C278.628 51.8993 278.546 52.2908 278.406 52.7089L278.403 52.7171L278.401 52.7253C277.355 55.684 275.563 58.8787 272.661 61.339C269.743 63.8128 265.754 65.4984 260.417 65.4984C253.986 65.4984 248.651 63.1417 244.935 58.8642C241.233 54.6013 239.216 48.521 239.216 41.1917C239.216 34.03 241.235 27.9844 244.88 23.7126C248.536 19.4266 253.768 17 260.014 17C265.251 17 269.123 18.3722 271.969 20.4642C274.804 22.5482 276.55 25.295 277.634 27.9401C277.864 28.4814 277.938 29.0138 277.938 29.4601C277.938 31.2063 276.622 32.289 275.517 32.6639C274.927 32.8823 274.353 32.9489 273.816 32.9489C272.542 32.9489 271.24 32.3947 270.535 30.9055L270.525 30.8849Z" stroke="black" stroke-width="0.6" mask="url(#path-2-outside-1_17_202)"/>
</g>
<defs>
<clipPath id="clip0_17_202">
<rect width="380" height="90" fill="white"/>
</clipPath>
</defs>
</svg>
