<?xml version="1.0" encoding="utf-8"?>
<!-- Generator: Adobe Illustrator 27.9.6, SVG Export Plug-In . SVG Version: 9.03 Build 54986)  -->
<svg version="1.1" id="Layer_1" xmlns="http://www.w3.org/2000/svg" xmlns:xlink="http://www.w3.org/1999/xlink" x="0px" y="0px"
	 width="985.9px" height="210px" viewBox="0 0 985.9 210" style="enable-background:new 0 0 985.9 210;" xml:space="preserve">
<style type="text/css">
	.st0{fill:#E9C231;}
</style>
<g>
	<g>
		<path id="XMLID_7_" d="M104.1,210c57.4,0,105-46.7,105-105c0-57.4-46.7-105-105-105C45.8,0,0,47.6,0,105S46.7,210,104.1,210z
			 M104.1,10.2c52.5,0,95.2,42.7,95.2,95.2c0,52.5-42.7,95.2-95.2,95.2c-52.1,0-95.2-41.8-95.2-95.2C8.9,52.5,52.1,10.2,104.1,10.2z
			"/>
		<path id="XMLID_6_" d="M104.1,191.3c48.1,0,86.3-38.7,86.3-86.3c0-48.1-38.7-86.3-86.3-86.3c-48.1,0-86.3,38.7-86.3,86.3
			C17.4,153.1,56.5,191.3,104.1,191.3z M104.1,21.4c46.7,0,84.1,37.8,84.1,84.1c0,46.7-37.8,84.1-84.1,84.1
			c-46.7,0-84.1-37.8-84.1-84.1C20,58.7,57.8,21.4,104.1,21.4z"/>
		<path id="XMLID_5_" class="st0" d="M104.1,37.4L75.2,54.3C42.7,73,45.8,67.2,45.8,105s-2.2,32,29.4,50.7l20,11.6v-17.4v-2.2v-16.5
			c0-7.6,0-15.1,0-22.2l18.2,22.2l4-2.2c7.1-4,9.8-5.3,10.7-8.5l0,0l0,0c0.4-2.2,0.4-6.7,0.4-14.2v-36c16.5,9.8,18.2,8.9,18.2,20.5
			v19.6c0,22.2,1.8,18.7-21.4,32.5c-20.9,12-20.9,9.8-21.4,29.4l0,0l29.4-16.9c32.5-18.7,29.4-10.7,29.4-50.7
			c0-39.6,3.6-31.6-29.4-50.7l-20-11.6V61v18.2c0,7.6,0,15.1,0,22.2L95.2,79.2C77,89.4,78.3,85.9,78.3,106.8v32.9
			c-4-2.2-7.1-4-9.3-6.2c-7.6-5.8-7.6-10.2-7.6-26.2c0-28-2.2-25.8,21.4-39.6C104.6,55.6,103.2,60.1,104.1,37.4L104.1,37.4z"/>
	</g>
	<g>
		<g>
			<path class="st0" d="M232.2,128.6l12.9-103.7h6.7l51.6,65l8.5-65H331l-12.9,103.7H311l-50.7-64.5l-8,64.5H232.2z"/>
			<path class="st0" d="M332.4,128.6l51.2-103.7h19.1L428,128.6h-20.5l-3.6-16h-43.2l-8,16H332.4z M390.2,52.5l-19.6,39.2h28.5
				L390.2,52.5z"/>
			<path class="st0" d="M441.8,128.6l12.9-103.7h6.7l35.1,50.7l48.1-50.7h6.7l-12.9,103.7h-19.1l7.6-60.1l-32.9,34.7l-24.5-34.7
				l-7.6,60.1H441.8z"/>
			<path class="st0" d="M556.1,128.6L569,24.9h69.9L636.7,44h-51.2l-2.7,21.8h38.3L618.9,85h-38.3l-2.7,23.1h50.7l-2.2,19.1h-69.9
				v1.3H556.1z"/>
			<path class="st0" d="M656.7,113.5c-8-9.8-10.7-22.2-8.9-37.4c1.8-14.7,8-26.7,18.2-36.9c10.2-9.8,22.2-15.1,36-15.1
				S727,28.5,735,37.8l-14.2,15.1c-5.8-5.8-12.9-8.5-21.4-8.5c-8.5,0-16,2.7-21.8,8.9c-6.2,5.8-9.3,12.9-10.7,21.8
				c-1.3,9.8,0.4,17.4,5.3,22.7c4.9,5.3,11.1,8.5,19.6,8.5s16.5-2.7,23.1-8.5l10.7,15.1c-10.7,9.3-23.1,13.8-36.9,13.8
				C674.9,128.6,664.7,123.2,656.7,113.5z"/>
			<path class="st0" d="M755,113.5c-8-9.8-10.7-22.2-8.9-36.9c1.8-15.1,8-27.1,18.2-36.9s22.2-15.1,36-15.1c13.8,0,24.5,5.3,32,15.1
				c8,9.8,10.7,22.2,8.9,36.9c-1.8,15.1-8,27.1-18.2,36.9s-22.2,15.1-36,15.1C773.3,128.6,762.6,123.2,755,113.5z M789.7,109
				c8.5,0,16-3.1,21.8-9.3c5.8-6.2,9.8-13.8,10.7-23.1c1.3-9.3-0.4-16.9-5.3-23.1c-4.4-6.2-11.1-9.3-19.6-9.3
				c-8.5,0-16,3.1-21.8,9.3c-6.2,6.2-9.8,13.8-10.7,23.1c-0.9,9.3,0.4,16.9,5.3,23.1C774.6,105.9,781.3,109,789.7,109z"/>
			<path class="st0" d="M861.8,24.9h19.1L868,128.6h-19.1L861.8,24.9z"/>
			<path class="st0" d="M887.2,128.6l12.9-103.7h6.7l51.6,65l8.5-65h19.1l-13.3,103.7h-7.1l-50.7-64.5l-8.5,64.5H887.2z"/>
		</g>
		<g>
			<path d="M639.3,185.5l5.8-49.4h3.1l23.1,30.7l3.6-30.7h8.5l-5.8,49.4h-3.1l-22.7-30.7l-3.6,30.7H639.3z"/>
			<path d="M686.1,185.5l5.8-49.4h31.6l-0.9,8.9h-22.7l-1.3,10.2h17.4l-0.9,8.9h-17.4l-1.3,11.1H719l-0.9,8.9L686.1,185.5
				L686.1,185.5z"/>
			<path d="M756.8,149.5l-12.9,36h-8.5l-5.8-49.4h9.3l3.6,33.4l11.6-33.4h8.9l3.6,33.4l11.6-33.4h9.3l-17.4,49.4h-8.5L756.8,149.5z"
				/>
			<path d="M816.4,138.4c2.2,0.9,4,2.7,5.8,4.9l-6.7,6.7c-1.8-2.7-4-4-7.6-4c-3.6,0-5.8,0.9-7.1,2.7c-1.3,1.8-1.3,3.6-0.4,4.4
				c0.9,1.3,3.1,2.2,6.2,2.7c3.6,0.4,6.7,1.8,9.3,4s3.6,5.8,3.1,11.1c-0.4,4-2.7,7.1-5.8,10.2c-3.6,2.7-7.1,4-11.6,4
				c-4,0-7.1-0.4-9.8-1.8c-2.7-1.3-4.4-3.1-6.2-5.3l6.7-6.7c1.8,2.7,4.4,4,9.3,4.4c3.6,0,6.2-0.9,7.6-2.7c1.3-1.8,1.3-3.6,0.4-5.3
				c-0.4-1.8-3.1-3.1-6.7-3.6s-6.2-1.3-8.9-3.6c-2.7-1.8-3.6-5.3-3.1-10.2c0.4-4.4,2.7-7.6,6.2-10.2c3.6-2.7,7.1-4,10.7-4
				C811.1,136.6,814.2,137,816.4,138.4z"/>
		</g>
		<path id="XMLID_4_" d="M973.5,143.3H833.8c-0.4,0-1.3,0.4-1.3,0.4v2.2c0,0.4,0.4,0.4,1.3,0.4H973L973.5,143.3z"/>
		<path id="XMLID_3_" d="M972.6,154.8H832.9c-0.4,0-1.3,0.4-1.3,0.4v2.2c0,0.4,0.4,0.4,1.3,0.4h139.7V154.8z"/>
		<path id="XMLID_2_" d="M971.2,166.8H831.5c-0.4,0-1.3,0.4-1.3,0.4v2.2c0,0.4,0.4,0.4,1.3,0.4h139.7V166.8z"/>
		<path id="XMLID_1_" d="M969.9,178.4H830.2c-0.4,0-1.3,0.4-1.3,0.4v2.2c0,0.4,0.4,0.4,1.3,0.4h139.3L969.9,178.4z"/>
	</g>
</g>
</svg>
