<?xml version="1.0" encoding="utf-8"?>
<!-- Generator: Adobe Illustrator 27.9.6, SVG Export Plug-In . SVG Version: 9.03 Build 54986)  -->
<svg version="1.1" id="Layer_1" xmlns="http://www.w3.org/2000/svg" xmlns:xlink="http://www.w3.org/1999/xlink" x="0px" y="0px"
	 width="1024px" height="200px" viewBox="0 410 1024 200" style="enable-background:new 0 0 1024 1024;" xml:space="preserve">
<style type="text/css">
	.st0{fill:#0F0F0F;}
</style>
<g>
	<path d="M335.7,484l-1.5,17.6h-35.3v77.2h-18.6v-77.2h-36.8L245,484H335.7z M364.6,509.6v69.2H346v-68.3L364.6,509.6z M366.9,493.4
		c0,6.6-5.2,11.8-11.8,11.8c-6.5,0-11.7-5.2-11.7-11.8c0-6.5,5.2-11.7,11.7-11.7C361.7,481.7,366.9,486.9,366.9,493.4z M486,578.8
		l-0.1-38.6c0-4.1,0-13.9-15-13.9c-6.3,0-15,2.1-20.3,4.3c0.8,2.9,1.2,6.2,1.2,9.6v38.6h-18.6l-0.1-38.6c0-4.1,0.1-13.9-15-13.9
		c-5.9,0-13.8,1.8-19,3.9v48.6h-18.7v-68.3l16.5-0.8l0.7,3.7c6.3-2.5,14.6-4.8,22.2-4.8c9.4,0,17.4,2.9,23,8.3
		c5.6-3,18.6-8.3,29.6-8.3c18.7,0,32.2,11.3,32.2,31.7v38.6H486z M587.8,541.4c0,5.4-0.6,10.9-0.6,10.9l-51.7-0.3
		c2.5,4.8,8,9.5,20.3,9.5c9.2,0,16.7-1.9,22.3-3.9l5.2,16.5c-7,3.2-16.9,5.1-27.8,5.1c-23.7,0-40.6-14.2-40.6-35.4
		c0-21.2,15.7-35.4,39.4-35.4C571.9,508.5,587.8,520,587.8,541.4z M554.6,526.3c-12.7,0-17.8,5.5-19.7,10.6l34-0.3
		C568.9,529.9,563.1,526.3,554.6,526.3z M594.7,531.4c0-17.8,16-22.9,33.8-22.9c10.3,0,20.3,2.2,26.7,4L651,529
		c-5.4-1.4-15.2-3-21.9-3c-10.9,0-15.7,0.8-15.7,3.9c0,2.9,4.5,3.7,14.1,4.5c13.8,1.4,33.2,3,33.2,21.4c0,17.1-13.4,23.6-35.3,23.6
		c-11,0-23.1-2.1-29.9-3.7l4.1-16.5c4.4,1.1,16.5,2.8,25.8,2.8c18.3,0,16.5-3,16.5-5.1c0-2.2-6.3-3.2-17.9-4.4
		C609.1,551,594.7,546.3,594.7,531.4z M752.2,579.3c-29.5,0-52.2-15-52.2-47.8c0-32.9,22.7-47.9,52.2-47.9c29.6,0,52.4,15,52.4,47.9
		C804.6,564.3,781.9,579.3,752.2,579.3z M752.2,501.4c-24.9,0-33.5,13.5-33.5,30.2c0,16.7,8.5,30,33.5,30c25.1,0,33.5-13.4,33.5-30
		C785.7,514.9,777.3,501.4,752.2,501.4z M869.4,509.6l-1.5,17.6h-26.2v51.5H823v-51.5h-11.6l1.5-17.6H823v-1.5
		c0-21.2,16.7-25.1,30.4-25.1c9.2,0,18.3,1.9,18.3,1.9l-2.5,17.2c0,0-7-1.4-15-1.4c-10.9,0-12.5,2.3-12.5,7.3v1.5H869.4z
		 M998.4,578.8h-19.6l-6.9-20.3h-40.1l-6.9,20.3h-19.6l33.5-93.4l25.5-1.4L998.4,578.8z M952,499.6l-14.2,41.3H966L952,499.6z
		 M1024,484v94.8h-18.7V484H1024z"/>
	<g>
		<path class="st0" d="M114.3,515.8c0-3.2,0.6-6.3,2-9.1c1.3-2.9,3.3-5.4,5.7-7.4c2.4-2,5.3-3.4,8.4-4.2c3.1-0.7,6.3-0.8,9.4-0.1
			c3.7,0.7,7.2,2.4,10,5c2.8,2.6,4.8,5.9,5.9,9.5c0.9,2.9,1.2,6,0.8,9c-0.4,3-1.4,5.9-3,8.5c-1.6,2.6-3.8,4.8-6.3,6.5
			c-2.6,1.7-5.4,2.8-8.5,3.3c-3,0.5-6.1,0.3-9.1-0.6s-5.7-2.3-8-4.3c-2.3-2-4.2-4.5-5.5-7.2C114.9,521.9,114.2,518.9,114.3,515.8
			L114.3,515.8z"/>
		<path class="st0" d="M92.5,515.8c0,2.8-0.5,5.6-1.5,8.2c-1.1,2.6-2.6,5-4.6,7c-2,2-4.3,3.6-7,4.7c-2.6,1.1-5.4,1.6-8.2,1.6
			c-2.8,0-5.6-0.6-8.2-1.7c-2.6-1.1-4.9-2.7-6.9-4.7c-2-2-3.5-4.4-4.5-7c-1-2.6-1.5-5.4-1.4-8.2c0-2.8,0.5-5.6,1.5-8.2
			c1.1-2.6,2.6-5,4.6-7c2-2,4.3-3.6,7-4.7c2.6-1.1,5.4-1.6,8.2-1.6c2.8,0,5.6,0.6,8.2,1.7c2.6,1.1,4.9,2.7,6.9,4.7
			c2,2,3.5,4.4,4.5,7S92.6,513,92.5,515.8z"/>
		<path class="st0" d="M189,432.5c-0.7,0-1.3,0.1-2,0.4s-1.2,0.6-1.7,1.1c-0.5,0.5-0.9,1-1.1,1.7c-0.3,0.6-0.4,1.3-0.4,2V464
			c-13.3-13-31.1-20.3-49.7-20.3H71.1c-18.9,0.1-36.9,7.6-50.2,20.9C7.6,477.9,0.1,495.9,0,514.7v2.8c0,18.8,7.5,36.9,20.8,50.2
			c13.3,13.3,31.4,20.8,50.3,20.9h60.3c9.8,0,19.4-2,28.4-5.7c9-3.8,17.2-9.3,24-16.2v21.9c0,0.4,0.1,0.8,0.2,1.2
			c0.2,0.4,0.4,0.7,0.7,1c0.3,0.3,0.6,0.5,1,0.7c0.4,0.2,0.8,0.2,1.2,0.2h19.8c0.4,0,0.8-0.1,1.2-0.2c0.4-0.2,0.7-0.4,1-0.7
			c0.3-0.3,0.5-0.6,0.7-1c0.2-0.4,0.2-0.8,0.2-1.2V437.6c0-1.4-0.5-2.7-1.5-3.6c-1-1-2.3-1.5-3.6-1.5L189,432.5z M131.4,567.2H71.1
			c-13.2,0-25.8-5.3-35.2-14.6c-9.3-9.3-14.6-21.9-14.6-35.1v-2.7c0-13.2,5.2-25.8,14.6-35.1c9.3-9.3,22-14.6,35.2-14.6h62.1
			c26.5,0,49.8,21.6,50.6,48c0,0.5,0,1.1,0,1.6c0,13.9-5.5,27.2-15.4,37C158.7,561.6,145.4,567.1,131.4,567.2z"/>
	</g>
</g>
</svg>
