<svg width="152" height="29" viewBox="0 0 152 29" fill="none" xmlns="http://www.w3.org/2000/svg">
<g clip-path="url(#clip0_21334_25911)">
<path d="M34.4848 11.5826C33.8119 11.1428 33.0687 10.8267 32.2553 10.6342C31.4417 10.442 30.6248 10.3459 29.8039 10.3459C28.6131 10.3459 27.526 10.5216 26.5427 10.8729C25.559 11.2241 24.7271 11.7492 24.0469 12.4479C23.3665 13.1467 22.8783 14.014 22.5827 15.0492L26.332 15.5816C26.5315 14.9975 26.9178 14.4909 27.4911 14.0619C28.0639 13.6331 28.8424 13.4186 29.826 13.4186C30.7578 13.4186 31.4713 13.648 31.9668 14.1063C32.4623 14.565 32.7102 15.2118 32.7102 16.0475V16.114C32.7102 16.4986 32.5677 16.7816 32.2829 16.9625C31.9982 17.1439 31.5453 17.2771 30.9241 17.3619C30.3029 17.447 29.4932 17.5413 28.4949 17.6447C27.6665 17.7335 26.8662 17.876 26.0934 18.072C25.3207 18.2679 24.6272 18.5544 24.0135 18.9315C23.3996 19.3086 22.9154 19.8116 22.5604 20.4402C22.2056 21.0688 22.028 21.8637 22.028 22.8251C22.028 23.9416 22.2776 24.8809 22.7768 25.6424C23.2759 26.4043 23.9561 26.9791 24.8179 27.3673C25.6792 27.7556 26.6497 27.9498 27.7295 27.9498C28.6169 27.9498 29.3914 27.8259 30.0535 27.578C30.7151 27.3304 31.2661 27.0012 31.7061 26.591C32.1462 26.1805 32.4882 25.7387 32.7323 25.2653H32.8655V27.6059H36.7255V16.2028C36.7255 15.0713 36.5203 14.1284 36.11 13.3742C35.6996 12.6198 35.1577 12.0227 34.4848 11.5826ZM32.7212 21.4939C32.7212 22.1226 32.5604 22.7029 32.2388 23.2353C31.9169 23.768 31.4603 24.195 30.8687 24.5166C30.2771 24.8383 29.5781 24.9991 28.7722 24.9991C27.9365 24.9991 27.2488 24.8107 26.7091 24.4333C26.1692 24.0562 25.8992 23.498 25.8992 22.7584C25.8992 22.241 26.036 21.8175 26.3097 21.4883C26.5832 21.1594 26.9567 20.9023 27.4301 20.7174C27.9031 20.5327 28.4395 20.3995 29.0384 20.3182C29.3046 20.281 29.6189 20.2369 29.9812 20.185C30.3436 20.1333 30.7096 20.0741 31.0794 20.0076C31.4492 19.9408 31.7839 19.8633 32.0835 19.7745C32.3828 19.6857 32.5953 19.5898 32.7212 19.4862L32.7212 21.4939Z" fill="url(#paint0_linear_21334_25911)"/>
<path d="M48.0814 17.8888L45.1753 17.2676C44.31 17.0679 43.6906 16.813 43.3172 16.5024C42.9439 16.1917 42.7607 15.7888 42.7682 15.2931C42.7607 14.7163 43.04 14.2469 43.6057 13.8845C44.1715 13.5222 44.872 13.3409 45.7077 13.3409C46.3289 13.3409 46.8538 13.4407 47.2828 13.6404C47.7116 13.8402 48.0538 14.1026 48.309 14.428C48.5641 14.7534 48.7433 15.1009 48.8469 15.4707L52.5074 15.0713C52.2337 13.6221 51.5219 12.472 50.3721 11.6215C49.2222 10.7712 47.6489 10.3459 45.6523 10.3459C44.2914 10.3459 43.0916 10.5585 42.0527 10.9837C41.0138 11.409 40.2039 12.0081 39.6235 12.7807C39.0428 13.5536 38.7563 14.4651 38.7637 15.5151C38.7563 16.7573 39.1446 17.7834 39.9284 18.5933C40.7122 19.403 41.9213 19.978 43.5558 20.3182L46.4619 20.9281C47.2457 21.0984 47.8245 21.3423 48.1981 21.6602C48.5714 21.9783 48.7581 22.3813 48.7581 22.8693C48.7581 23.4461 48.4678 23.9305 47.8875 24.3225C47.3067 24.7146 46.5397 24.9103 45.5858 24.9103C44.6612 24.9103 43.9108 24.7146 43.334 24.3225C42.7572 23.9305 42.3799 23.3502 42.2025 22.581L38.2868 22.9581C38.5309 24.5259 39.2888 25.7478 40.5609 26.6242C41.8327 27.5005 43.5114 27.9386 45.5968 27.9386C47.0166 27.9386 48.2736 27.7093 49.3682 27.2509C50.4626 26.7925 51.3187 26.1547 51.9361 25.3376C52.5536 24.5204 52.8659 23.5755 52.8735 22.5032C52.8659 21.2831 52.4685 20.2959 51.681 19.5417C50.8934 18.7873 49.6937 18.2365 48.0814 17.8888Z" fill="url(#paint1_linear_21334_25911)"/>
<path d="M67.9701 12.4091C67.2491 11.7066 66.4208 11.1872 65.4855 10.8505C64.55 10.5143 63.5571 10.3459 62.5072 10.3459C60.8802 10.3459 59.4639 10.7175 58.2586 11.4607C57.0533 12.2038 56.1159 13.2392 55.4468 14.5667C54.7774 15.8942 54.4427 17.4339 54.4427 19.1867C54.4427 20.969 54.7757 22.5163 55.4412 23.8289C56.1067 25.1416 57.0588 26.1547 58.2974 26.8682C59.5361 27.582 61.0096 27.9386 62.7179 27.9386C64.0414 27.9386 65.2173 27.7371 66.2452 27.3342C67.2731 26.9312 68.1179 26.3617 68.78 25.6258C69.4416 24.8902 69.8909 24.0269 70.1278 23.0359L66.3784 22.6143C66.2008 23.0951 65.9384 23.498 65.5909 23.8234C65.2432 24.1488 64.8327 24.3947 64.3595 24.561C63.8863 24.7274 63.3574 24.8107 62.7734 24.8107C61.9007 24.8107 61.1388 24.624 60.4882 24.2504C59.8374 23.8771 59.3309 23.3372 58.9686 22.6309C58.6187 21.949 58.4394 21.1327 58.4275 20.185H70.2941V18.9536C70.2941 17.46 70.0869 16.1714 69.6729 15.0881C69.2587 14.0047 68.6912 13.1118 67.9701 12.4091ZM58.4343 17.4783C58.4732 16.8108 58.6452 16.1912 58.952 15.6204C59.2957 14.9809 59.7785 14.4631 60.3994 14.0675C61.0206 13.672 61.7417 13.4741 62.5626 13.4741C63.3316 13.4741 64.0063 13.648 64.5871 13.9954C65.1674 14.3429 65.6203 14.8181 65.9459 15.4208C66.2711 16.0236 66.4374 16.7093 66.4449 17.4783H58.4343Z" fill="url(#paint2_linear_21334_25911)"/>
<path d="M87.9109 22.4813H87.7446L84.6829 10.5679H80.6343L77.5727 22.5477H77.4173L74.4224 10.5679H70.3293L75.1435 27.606H79.3364L82.531 16.092H82.7641L85.9587 27.606H90.1406L94.9658 10.5679H90.8614L87.9109 22.4813Z" fill="url(#paint3_linear_21334_25911)"/>
<path d="M107.469 11.5826C106.796 11.1428 106.053 10.8267 105.24 10.6342C104.426 10.442 103.609 10.3459 102.788 10.3459C101.597 10.3459 100.51 10.5216 99.527 10.8729C98.5433 11.2241 97.7113 11.7492 97.0311 12.4479C96.3507 13.1467 95.8625 14.014 95.5669 15.0492L99.3162 15.5816C99.5157 14.9975 99.9021 14.4909 100.475 14.0619C101.048 13.6331 101.827 13.4186 102.81 13.4186C103.742 13.4186 104.456 13.648 104.951 14.1063C105.447 14.565 105.694 15.2118 105.694 16.0475V16.114C105.694 16.4986 105.552 16.7816 105.267 16.9625C104.982 17.1439 104.53 17.2771 103.908 17.3619C103.287 17.447 102.477 17.5413 101.479 17.6447C100.651 17.7335 99.8504 17.876 99.0777 18.072C98.3049 18.2679 97.6114 18.5544 96.9977 18.9315C96.3838 19.3086 95.8996 19.8116 95.5446 20.4402C95.1898 21.0688 95.0122 21.8637 95.0122 22.8251C95.0122 23.9416 95.2618 24.8809 95.7611 25.6424C96.2601 26.4043 96.9403 26.9791 97.8021 27.3673C98.6634 27.7556 99.6339 27.9498 100.714 27.9498C101.601 27.9498 102.376 27.8259 103.038 27.578C103.699 27.3304 104.25 27.0012 104.69 26.591C105.13 26.1805 105.472 25.7387 105.717 25.2653H105.85V27.6059H109.71V16.2028C109.71 15.0713 109.505 14.1284 109.094 13.3742C108.684 12.6198 108.142 12.0227 107.469 11.5826ZM105.705 21.4939C105.705 22.1226 105.545 22.7029 105.223 23.2353C104.901 23.768 104.444 24.195 103.853 24.5166C103.261 24.8383 102.562 24.9991 101.756 24.9991C100.921 24.9991 100.233 24.8107 99.6933 24.4333C99.1534 24.0562 98.8835 23.498 98.8835 22.7584C98.8835 22.241 99.0202 21.8175 99.2939 21.4883C99.5674 21.1594 99.941 20.9023 100.414 20.7174C100.887 20.5327 101.424 20.3995 102.023 20.3182C102.289 20.281 102.603 20.2369 102.966 20.185C103.328 20.1333 103.694 20.0741 104.064 20.0076C104.433 19.9408 104.768 19.8633 105.068 19.7745C105.367 19.6857 105.58 19.5898 105.705 19.4862V21.4939Z" fill="url(#paint4_linear_21334_25911)"/>
<path d="M116.4 4.88843H112.384V27.606H116.4V4.88843Z" fill="url(#paint5_linear_21334_25911)"/>
<path d="M123.886 4.88843H119.87V27.606H123.886V4.88843Z" fill="url(#paint6_linear_21334_25911)"/>
<path d="M139.553 12.4091C138.832 11.7066 138.003 11.1872 137.068 10.8505C136.133 10.5143 135.14 10.3459 134.09 10.3459C132.463 10.3459 131.047 10.7175 129.841 11.4607C128.636 12.2038 127.699 13.2392 127.029 14.5667C126.36 15.8942 126.025 17.4339 126.025 19.1867C126.025 20.969 126.358 22.5163 127.024 23.8289C127.689 25.1416 128.641 26.1547 129.88 26.8682C131.119 27.582 132.592 27.9386 134.301 27.9386C135.624 27.9386 136.8 27.7371 137.828 27.3342C138.856 26.9312 139.701 26.3617 140.363 25.6258C141.024 24.8902 141.474 24.0269 141.71 23.0359L137.961 22.6143C137.783 23.0951 137.521 23.498 137.174 23.8234C136.826 24.1488 136.415 24.3947 135.942 24.561C135.469 24.7274 134.94 24.8107 134.356 24.8107C133.483 24.8107 132.721 24.624 132.071 24.2504C131.42 23.8771 130.914 23.3372 130.551 22.6309C130.201 21.949 130.022 21.1327 130.01 20.185H141.877V18.9536C141.877 17.46 141.67 16.1714 141.256 15.0881C140.841 14.0047 140.274 13.1118 139.553 12.4091ZM130.017 17.4783C130.056 16.8108 130.228 16.1912 130.535 15.6204C130.878 14.9809 131.361 14.4631 131.982 14.0675C132.603 13.672 133.324 13.4741 134.145 13.4741C134.914 13.4741 135.589 13.648 136.17 13.9954C136.75 14.3429 137.203 14.8181 137.529 15.4208C137.854 16.0236 138.02 16.7093 138.028 17.4783H130.017Z" fill="url(#paint7_linear_21334_25911)"/>
<path d="M151.321 24.3005C151.21 24.33 151.049 24.3634 150.838 24.4003C150.627 24.4374 150.396 24.4558 150.145 24.4558C149.812 24.4558 149.509 24.4041 149.235 24.3005C148.962 24.1969 148.742 24.0029 148.575 23.7181C148.409 23.4334 148.326 23.0211 148.326 22.4813V13.6737H151.687V10.5679H148.326V6.48584H144.31V10.5679H141.892V13.6737H144.31V23.1469C144.303 24.2117 144.534 25.0991 145.003 25.8091C145.473 26.5189 146.111 27.0422 146.917 27.3787C147.723 27.7149 148.629 27.8684 149.635 27.8388C150.204 27.824 150.686 27.7723 151.082 27.6835C151.478 27.5949 151.783 27.5137 151.997 27.4396L151.321 24.3005Z" fill="url(#paint8_linear_21334_25911)"/>
<path d="M19.5898 23.5873C17.527 18.2787 12.7095 14.3455 6.8929 13.5417C6.171 13.4418 5.43362 13.3904 4.68426 13.3904H0.00268555V17.6053H4.68426C5.43913 17.6053 6.1775 17.6762 6.8929 17.8127C11.6045 18.7064 15.3218 22.4093 16.2381 27.1128C16.365 27.7633 16.9305 28.2354 17.5934 28.2354H19.0741C19.929 28.2354 20.5804 27.4656 20.4345 26.6238C20.2521 25.5731 19.967 24.5569 19.5898 23.5873Z" fill="url(#paint9_linear_21334_25911)"/>
<path d="M6.8929 22.1485C6.19448 21.9352 5.4526 21.8203 4.68426 21.8203H0.00268555V26.0353H4.68376C5.76884 26.0353 6.73304 26.5523 7.34353 27.3536C7.76167 27.9026 8.40364 28.2354 9.09355 28.2354H10.7757C11.521 28.2354 12.0431 27.495 11.7883 26.7941C10.981 24.5749 9.16399 22.8415 6.8929 22.1485Z" fill="url(#paint10_linear_21334_25911)"/>
<path d="M6.8929 9.29527C10.7791 9.71737 14.3347 11.2421 17.2392 13.5502C18.694 12.1364 19.5963 10.156 19.5898 7.96536C19.5768 3.68146 16.0522 0.235352 11.7683 0.235352H1.20119C0.539235 0.235354 0.00268555 0.771903 0.00268555 1.43384V9.17532H4.68426C5.43064 9.17532 6.16752 9.21583 6.8929 9.29527Z" fill="url(#paint11_linear_21334_25911)"/>
</g>
<defs>
<linearGradient id="paint0_linear_21334_25911" x1="29.304" y1="10.3495" x2="29.4436" y2="27.9365" gradientUnits="userSpaceOnUse">
<stop stop-color="#0195FF"/>
<stop offset="0.2331" stop-color="#0785FC"/>
<stop offset="0.71378" stop-color="#116BF9"/>
<stop offset="1" stop-color="#1662F8"/>
</linearGradient>
<linearGradient id="paint1_linear_21334_25911" x1="45.4819" y1="10.3469" x2="45.6215" y2="27.9388" gradientUnits="userSpaceOnUse">
<stop stop-color="#0195FF"/>
<stop offset="0.2331" stop-color="#0785FC"/>
<stop offset="0.71378" stop-color="#116BF9"/>
<stop offset="1" stop-color="#1662F8"/>
</linearGradient>
<linearGradient id="paint2_linear_21334_25911" x1="62.2992" y1="10.3473" x2="62.4389" y2="27.9412" gradientUnits="userSpaceOnUse">
<stop stop-color="#0195FF"/>
<stop offset="0.2331" stop-color="#0785FC"/>
<stop offset="0.71378" stop-color="#116BF9"/>
<stop offset="1" stop-color="#1662F8"/>
</linearGradient>
<linearGradient id="paint3_linear_21334_25911" x1="82.6468" y1="10.4701" x2="82.7832" y2="27.6644" gradientUnits="userSpaceOnUse">
<stop stop-color="#0195FF"/>
<stop offset="0.2331" stop-color="#0785FC"/>
<stop offset="0.71378" stop-color="#116BF9"/>
<stop offset="1" stop-color="#1662F8"/>
</linearGradient>
<linearGradient id="paint4_linear_21334_25911" x1="102.288" y1="10.3495" x2="102.428" y2="27.9365" gradientUnits="userSpaceOnUse">
<stop stop-color="#0195FF"/>
<stop offset="0.2331" stop-color="#0785FC"/>
<stop offset="0.71378" stop-color="#116BF9"/>
<stop offset="1" stop-color="#1662F8"/>
</linearGradient>
<linearGradient id="paint5_linear_21334_25911" x1="114.302" y1="4.87321" x2="114.482" y2="27.6212" gradientUnits="userSpaceOnUse">
<stop stop-color="#0195FF"/>
<stop offset="0.2331" stop-color="#0785FC"/>
<stop offset="0.71378" stop-color="#116BF9"/>
<stop offset="1" stop-color="#1662F8"/>
</linearGradient>
<linearGradient id="paint6_linear_21334_25911" x1="121.788" y1="4.87321" x2="121.968" y2="27.6212" gradientUnits="userSpaceOnUse">
<stop stop-color="#0195FF"/>
<stop offset="0.2331" stop-color="#0785FC"/>
<stop offset="0.71378" stop-color="#116BF9"/>
<stop offset="1" stop-color="#1662F8"/>
</linearGradient>
<linearGradient id="paint7_linear_21334_25911" x1="133.882" y1="10.3473" x2="134.022" y2="27.9412" gradientUnits="userSpaceOnUse">
<stop stop-color="#0195FF"/>
<stop offset="0.2331" stop-color="#0785FC"/>
<stop offset="0.71378" stop-color="#116BF9"/>
<stop offset="1" stop-color="#1662F8"/>
</linearGradient>
<linearGradient id="paint8_linear_21334_25911" x1="146.833" y1="6.46582" x2="147.003" y2="27.8616" gradientUnits="userSpaceOnUse">
<stop stop-color="#0195FF"/>
<stop offset="0.2331" stop-color="#0785FC"/>
<stop offset="0.71378" stop-color="#116BF9"/>
<stop offset="1" stop-color="#1662F8"/>
</linearGradient>
<linearGradient id="paint9_linear_21334_25911" x1="10.1581" y1="13.3098" x2="10.2771" y2="28.3052" gradientUnits="userSpaceOnUse">
<stop stop-color="#0195FF"/>
<stop offset="0.2331" stop-color="#0785FC"/>
<stop offset="0.71378" stop-color="#116BF9"/>
<stop offset="1" stop-color="#1662F8"/>
</linearGradient>
<linearGradient id="paint10_linear_21334_25911" x1="5.88989" y1="21.7736" x2="5.94148" y2="28.2738" gradientUnits="userSpaceOnUse">
<stop stop-color="#0195FF"/>
<stop offset="0.2331" stop-color="#0785FC"/>
<stop offset="0.71378" stop-color="#116BF9"/>
<stop offset="1" stop-color="#1662F8"/>
</linearGradient>
<linearGradient id="paint11_linear_21334_25911" x1="9.72958" y1="0.167629" x2="9.83625" y2="13.609" gradientUnits="userSpaceOnUse">
<stop stop-color="#0195FF"/>
<stop offset="0.2331" stop-color="#0785FC"/>
<stop offset="0.71378" stop-color="#116BF9"/>
<stop offset="1" stop-color="#1662F8"/>
</linearGradient>
<clipPath id="clip0_21334_25911">
<rect width="151.995" height="28" fill="white" transform="translate(0.00268555 0.235352)"/>
</clipPath>
</defs>
</svg>
