<svg xmlns="http://www.w3.org/2000/svg" width="168" height="32" viewBox="0 0 168 32" fill="none"><path d="M164.208 6.67762H163.46V6.40723H165.282V6.67762H164.53V8.86808H164.209V6.67762H164.208Z" fill="#0A1226"></path><path d="M167.628 7.78758C167.61 7.44459 167.588 7.03217 167.591 6.72496H167.581C167.497 7.01323 167.395 7.32045 167.27 7.65922L166.836 8.85335H166.595L166.197 7.68132C166.081 7.33412 165.982 7.01639 165.912 6.72496H165.905C165.897 7.03217 165.88 7.4446 165.857 7.81283L165.792 8.86808H165.489L165.661 6.40723H166.066L166.486 7.59715C166.588 7.90015 166.672 8.17054 166.734 8.4262H166.744C166.806 8.17791 166.894 7.90752 167.003 7.59715L167.441 6.40723H167.846L168 8.86808H167.689L167.628 7.78758Z" fill="#0A1226"></path><path d="M14.5589 0L0 6.88493L14.5242 13.9403L29.0653 6.90281L14.5589 0Z" fill="#82BAE4"></path><path d="M29.0664 24.7201L14.5254 31.7576V13.9403L29.0664 6.90283V24.7201Z" fill="#1F4274"></path><path d="M29.0664 24.7201L14.5254 31.7576V13.9403L29.0664 6.90283V24.7201Z" fill="#2462AA"></path><path d="M0.0078125 24.7201L14.5499 31.7576V13.9403L0.0078125 6.90283V24.7201Z" fill="#4775B8"></path><path d="M33.4355 20.8132V10.3259H36.7065C38.0953 10.3259 39.1306 10.529 39.8134 10.934C40.4962 11.3401 40.8371 12.0145 40.8371 12.9593C40.8371 13.1119 40.8276 13.2623 40.8086 13.4107C40.7897 13.559 40.7466 13.7274 40.6803 13.9157C40.613 14.104 40.5256 14.2744 40.4152 14.4281C40.3057 14.5806 40.1521 14.73 39.9575 14.8752C39.7618 15.0204 39.5325 15.134 39.2705 15.215C39.9196 15.3728 40.4162 15.6748 40.7592 16.1209C41.1032 16.567 41.2747 17.1172 41.2747 17.7706C41.2747 18.7585 40.9254 19.5128 40.2258 20.0326C39.5261 20.5523 38.5593 20.8132 37.323 20.8132H33.4355ZM35.3756 14.6574H37.0358C38.3194 14.6574 38.9612 14.1682 38.9612 13.1897C38.9612 12.6405 38.776 12.2639 38.4067 12.0587C38.0374 11.8536 37.4482 11.7505 36.6423 11.7505H35.3756V14.6574ZM35.3756 19.4097H37.0579C38.5466 19.4097 39.2915 18.8279 39.2915 17.6633C39.2915 17.0762 39.1053 16.6543 38.7329 16.3965C38.3604 16.1388 37.786 16.0104 37.0074 16.0104H35.3756V19.4097V19.4097Z" fill="#0A1226"></path><path d="M45.5538 20.9205C45.0141 20.9205 44.5669 20.8574 44.2113 20.7311C43.8557 20.6049 43.5759 20.4029 43.3697 20.1262C43.1645 19.8495 43.0214 19.5202 42.9404 19.1383C42.8594 18.7564 42.8184 18.2819 42.8184 17.7137V10.0471L44.6942 9.92505V17.6769C44.6942 18.3829 44.7774 18.8616 44.9446 19.112C45.1119 19.3624 45.436 19.4876 45.9178 19.4876C46.1567 19.4876 46.4597 19.4613 46.8268 19.4087L46.8774 20.7469C46.8721 20.7469 46.8142 20.7585 46.7017 20.7827C46.5891 20.8069 46.4818 20.8269 46.3797 20.8437C46.2766 20.8606 46.1472 20.8774 45.9894 20.8942C45.8326 20.9121 45.6874 20.9205 45.5538 20.9205Z" fill="#0A1226"></path><path d="M51.1453 20.9637C49.9806 20.9637 49.0642 20.587 48.3961 19.8327C47.728 19.0783 47.3945 18.0862 47.3945 16.8552C47.3945 15.5853 47.728 14.5848 48.3961 13.8525C49.0642 13.1203 50.0069 12.7542 51.2231 12.7542C52.3973 12.7542 53.3168 13.1276 53.9828 13.8746C54.6487 14.6216 54.9812 15.6148 54.9812 16.8563C54.9812 18.1114 54.6445 19.1099 53.9722 19.8516C53.3 20.5923 52.3573 20.9637 51.1453 20.9637ZM51.1947 19.5391C51.8291 19.5391 52.3068 19.3077 52.6266 18.8447C52.9465 18.3818 53.1064 17.719 53.1064 16.8552C53.1064 15.982 52.9465 15.316 52.6266 14.8583C52.3068 14.4007 51.8249 14.1713 51.181 14.1713C50.5466 14.1713 50.0679 14.4017 49.746 14.8626C49.424 15.3234 49.2631 15.9904 49.2631 16.8636C49.2631 17.7232 49.4251 18.3839 49.7502 18.8468C50.0732 19.3077 50.5561 19.5391 51.1947 19.5391Z" fill="#0A1226"></path><path d="M59.9575 20.9641C58.7549 20.9641 57.8186 20.6064 57.1484 19.8899C56.4782 19.1744 56.1426 18.1508 56.1426 16.8188C56.1426 15.53 56.494 14.5305 57.1989 13.8193C57.9038 13.1081 58.8296 12.7524 59.9796 12.7524C60.9002 12.7524 61.6787 12.9502 62.3131 13.3469L61.8691 14.6851C61.22 14.3464 60.6161 14.177 60.0585 14.177C59.4241 14.177 58.9243 14.4042 58.5593 14.8566C58.1942 15.3101 58.0111 15.9708 58.0111 16.8398C58.0111 17.7183 58.191 18.3864 58.5519 18.8441C58.9117 19.3018 59.422 19.5311 60.0806 19.5311C60.7676 19.5311 61.4283 19.3281 62.0638 18.923L62.2426 20.3475C61.9133 20.5674 61.5725 20.7242 61.2189 20.8199C60.8644 20.9157 60.4446 20.9641 59.9575 20.9641Z" fill="#0A1226"></path><path d="M63.7285 20.8132V10.0471L65.6044 9.92505V14.7563L65.5613 16.3449C65.5655 16.3407 65.6149 16.2923 65.7075 16.2019C65.8001 16.1114 65.8517 16.0609 65.8611 16.0514C66.1231 15.741 66.4093 15.4212 66.7165 15.0919C67.0247 14.7626 67.413 14.3596 67.8832 13.882C68.3535 13.4043 68.6597 13.0919 68.8028 12.9446H71.0364L67.8012 16.2944L71.2447 20.8111H68.9753L66.384 17.2392L65.6034 17.8547V20.8111H63.7285V20.8132Z" fill="#0A1226"></path><path d="M75.2973 20.9641C74.0948 20.9641 73.1584 20.6064 72.4882 19.8899C71.818 19.1744 71.4824 18.1508 71.4824 16.8188C71.4824 15.53 71.8338 14.5305 72.5387 13.8193C73.2426 13.1081 74.1695 12.7524 75.3194 12.7524C76.24 12.7524 77.0186 12.9502 77.653 13.3469L77.209 14.6851C76.5599 14.3464 75.9559 14.177 75.3983 14.177C74.7639 14.177 74.2642 14.4042 73.8991 14.8566C73.534 15.3101 73.3509 15.9708 73.3509 16.8398C73.3509 17.7183 73.5309 18.3864 73.8917 18.8441C74.2526 19.3018 74.7618 19.5311 75.4204 19.5311C76.1074 19.5311 76.7682 19.3281 77.4036 18.923L77.5825 20.3475C77.2532 20.5674 76.9123 20.7242 76.5588 20.8199C76.2042 20.9157 75.7845 20.9641 75.2973 20.9641Z" fill="#0A1226"></path><path d="M79.0703 20.8132V10.0471L80.9462 9.92505V12.1944C80.9462 12.3038 80.9388 12.6079 80.9252 13.1066C80.9104 13.6053 80.9041 13.8599 80.9041 13.8694C81.5291 13.1245 82.3686 12.7531 83.4239 12.7531C84.3024 12.7531 84.9831 13.0045 85.4671 13.5085C85.951 14.0124 86.1941 14.7857 86.1941 15.8315V20.8132H84.3171V16.0388C84.3171 15.3949 84.214 14.9225 84.0089 14.6216C83.8037 14.3207 83.4555 14.1703 82.9641 14.1703C82.5443 14.1703 82.1719 14.2765 81.8478 14.489C81.5238 14.7016 81.2797 14.9751 81.1177 15.3086C81.003 15.7474 80.9462 16.3208 80.9462 17.0267V20.8132H79.0703V20.8132Z" fill="#0A1226"></path><path d="M90.1142 20.9641C89.3841 20.9641 88.7939 20.7621 88.3425 20.3591C87.8912 19.9562 87.666 19.3754 87.666 18.6158C87.666 17.7994 87.9332 17.1944 88.4677 16.8009C89.0022 16.4074 89.8091 16.1581 90.8875 16.0529C91.0359 16.0339 91.1958 16.015 91.3673 15.9961C91.5388 15.9771 91.7324 15.9582 91.947 15.9392C92.1616 15.9203 92.331 15.9035 92.4552 15.8887V15.4732C92.4552 14.9955 92.3457 14.6494 92.1259 14.4316C91.906 14.2149 91.5725 14.1054 91.1232 14.1054C90.4835 14.1054 89.6945 14.2843 88.7539 14.642C88.7486 14.6273 88.6708 14.4105 88.5172 13.9908C88.3646 13.571 88.2857 13.3563 88.2804 13.3469C89.2063 12.9513 90.2079 12.7524 91.2873 12.7524C92.3468 12.7524 93.1169 12.9829 93.5998 13.4437C94.0817 13.9045 94.3226 14.6494 94.3226 15.6804V20.8126H92.9339C92.9297 20.7936 92.8771 20.6337 92.7761 20.3328C92.6761 20.0319 92.6256 19.872 92.6256 19.853C92.2342 20.235 91.8513 20.5148 91.4767 20.6947C91.1032 20.8746 90.6487 20.9641 90.1142 20.9641ZM90.6224 19.6321C91.0569 19.6321 91.4346 19.528 91.7566 19.3207C92.0785 19.1134 92.3089 18.8609 92.4478 18.5653V17.0482C92.4331 17.0482 92.3079 17.0576 92.0722 17.0766C91.8355 17.0955 91.7082 17.105 91.6892 17.105C90.9307 17.1723 90.3741 17.3154 90.0217 17.5342C89.6682 17.7541 89.4914 18.1066 89.4914 18.5937C89.4914 18.9272 89.5893 19.1839 89.7849 19.3628C89.9806 19.5427 90.2605 19.6321 90.6224 19.6321Z" fill="#0A1226"></path><path d="M96.2578 11.8012V10.1978H98.14V11.8012H96.2578ZM96.2578 20.8134V12.9469H98.1337V20.8134H96.2578Z" fill="#0A1226"></path><path d="M100.086 20.8132V12.9467H101.597L101.804 13.942C102.606 13.1497 103.496 12.7542 104.474 12.7542C105.391 12.7542 106.077 13.0182 106.532 13.5453C106.988 14.0724 107.216 14.8373 107.216 15.84V20.8153H105.334V16.0693C105.329 15.4349 105.226 14.9593 105.026 14.6448C104.826 14.3302 104.465 14.1724 103.945 14.1724C103.539 14.1724 103.169 14.2765 102.832 14.4838C102.495 14.6911 102.251 14.953 102.099 15.2676C102.008 15.6401 101.963 16.2124 101.963 16.9857V20.8153H100.086V20.8132Z" fill="#0A1226"></path><path d="M117.688 20.9636C116.156 20.9636 114.942 20.4817 114.045 19.518C113.147 18.5543 112.699 17.2223 112.699 15.5243C112.699 13.9114 113.168 12.6173 114.106 11.641C115.043 10.6646 116.271 10.1775 117.788 10.1775C119.015 10.1775 120.052 10.4616 120.902 11.0297L120.294 12.4974C119.478 11.9966 118.657 11.7462 117.831 11.7462C116.868 11.7462 116.105 12.0934 115.544 12.7877C114.983 13.4821 114.703 14.4143 114.703 15.5832C114.703 16.7952 114.974 17.7326 115.516 18.3965C116.058 19.0593 116.83 19.3918 117.831 19.3918C118.71 19.3918 119.58 19.1719 120.444 18.7331L120.701 20.2503C119.9 20.7248 118.896 20.9636 117.688 20.9636Z" fill="#0A1226"></path><path d="M125.625 20.9637C124.46 20.9637 123.544 20.587 122.876 19.8327C122.208 19.0783 121.873 18.0862 121.873 16.8552C121.873 15.5853 122.207 14.5848 122.876 13.8525C123.544 13.1203 124.486 12.7542 125.704 12.7542C126.878 12.7542 127.797 13.1276 128.463 13.8746C129.129 14.6216 129.462 15.6148 129.462 16.8563C129.462 18.1114 129.125 19.1099 128.453 19.8516C127.781 20.5933 126.837 20.9637 125.625 20.9637ZM125.675 19.5391C126.31 19.5391 126.787 19.3077 127.107 18.8447C127.427 18.3818 127.587 17.719 127.587 16.8552C127.587 15.982 127.427 15.316 127.107 14.8583C126.787 14.4007 126.306 14.1713 125.662 14.1713C125.027 14.1713 124.549 14.4017 124.227 14.8626C123.905 15.3234 123.744 15.9904 123.744 16.8636C123.744 17.7232 123.906 18.3839 124.231 18.8468C124.554 19.3077 125.036 19.5391 125.675 19.5391Z" fill="#0A1226"></path><path d="M136.672 20.1937C136.047 20.7071 135.224 20.9628 134.203 20.9628C133.182 20.9628 132.36 20.7071 131.737 20.1969C131.114 19.6866 130.803 18.9375 130.803 17.9496V12.9458H132.685V17.878C132.685 18.4651 132.808 18.8902 133.053 19.1521C133.299 19.4151 133.689 19.5456 134.223 19.5456C134.748 19.5456 135.131 19.4152 135.372 19.1553C135.613 18.8954 135.734 18.4693 135.734 17.878V12.9458H137.61V17.9496C137.61 18.9333 137.297 19.6813 136.672 20.1937Z" fill="#0A1226"></path><path d="M139.32 20.8132V12.9467H140.831L141.038 13.942C141.84 13.1497 142.73 12.7542 143.709 12.7542C144.625 12.7542 145.311 13.0182 145.767 13.5453C146.222 14.0724 146.45 14.8373 146.45 15.84V20.8153H144.568V16.0693C144.563 15.4349 144.461 14.9593 144.26 14.6448C144.06 14.3302 143.699 14.1724 143.179 14.1724C142.773 14.1724 142.403 14.2765 142.066 14.4838C141.73 14.6911 141.486 14.953 141.333 15.2676C141.242 15.6401 141.197 16.2124 141.197 16.9857V20.8153H139.32V20.8132Z" fill="#0A1226"></path><path d="M151.741 20.9641C150.538 20.9641 149.602 20.6064 148.932 19.8899C148.261 19.1744 147.926 18.1508 147.926 16.8188C147.926 15.53 148.277 14.5305 148.982 13.8193C149.686 13.1081 150.613 12.7524 151.763 12.7524C152.683 12.7524 153.462 12.9502 154.096 13.3469L153.652 14.6851C153.003 14.3464 152.399 14.177 151.842 14.177C151.207 14.177 150.708 14.4042 150.342 14.8566C149.977 15.3101 149.794 15.9708 149.794 16.8398C149.794 17.7183 149.974 18.3864 150.335 18.8441C150.696 19.3018 151.205 19.5311 151.864 19.5311C152.551 19.5311 153.212 19.3281 153.847 18.923L154.026 20.3475C153.697 20.5674 153.356 20.7242 153.002 20.8199C152.648 20.9157 152.228 20.9641 151.741 20.9641Z" fill="#0A1226"></path><path d="M155.555 11.8012V10.1978H157.437V11.8012H155.555ZM155.555 20.8134V12.9469H157.431V20.8134H155.555Z" fill="#0A1226"></path><path d="M162.139 20.9205C161.599 20.9205 161.152 20.8574 160.796 20.7311C160.441 20.6049 160.161 20.4029 159.956 20.1262C159.75 19.8495 159.607 19.5202 159.526 19.1383C159.445 18.7564 159.404 18.2819 159.404 17.7137V10.0471L161.28 9.92505V17.6769C161.28 18.3829 161.363 18.8616 161.531 19.112C161.698 19.3624 162.022 19.4876 162.504 19.4876C162.743 19.4876 163.046 19.4613 163.413 19.4087L163.463 20.7469C163.458 20.7469 163.4 20.7585 163.288 20.7827C163.175 20.8069 163.068 20.8269 162.966 20.8437C162.863 20.8606 162.733 20.8774 162.575 20.8942C162.418 20.9111 162.272 20.9205 162.139 20.9205Z" fill="#0A1226"></path></svg>