<?xml version="1.0" encoding="UTF-8"?>
<svg id="Layer_2" data-name="Layer 2" xmlns="http://www.w3.org/2000/svg" viewBox="0 0 460 123.54">
  <defs>
    <style>
      .cls-1 {
        fill: #00bf5b;
      }

      .cls-2 {
        fill: #ffce00;
      }

      .cls-3 {
        fill: #015627;
      }

      .cls-4 {
        fill: #009b46;
      }
    </style>
  </defs>
  <g id="Layer_1-2" data-name="Layer 1">
    <g>
      <g>
        <g>
          <path class="cls-2" d="M69.62,3.33C65.83,1.14,61.61.03,57.38,0c-4.23.03-8.45,1.14-12.24,3.33L13.13,21.81c1.04-.14,2.18-.21,3.45-.19,5.97.09,9.05,2.06,11.77,3.79,2.45,1.56,4.39,2.8,8.69,2.87,4.31.06,6.28-1.11,8.77-2.6,2.72-1.62,5.8-3.46,11.56-3.44,5.76-.02,8.84,1.82,11.56,3.44,2.5,1.49,4.46,2.67,8.77,2.6,4.31-.07,6.24-1.31,8.69-2.87,2.72-1.74,5.8-3.71,11.77-3.79,1.27-.02,2.41.05,3.45.19L69.62,3.33ZM38.55,22.87c-2.11,0-3.82-1.71-3.82-3.81s1.71-3.82,3.82-3.82,3.82,1.71,3.82,3.82-1.71,3.81-3.82,3.81ZM76.22,22.87c-2.11,0-3.82-1.71-3.82-3.81s1.71-3.82,3.82-3.82,3.82,1.71,3.82,3.82-1.71,3.81-3.82,3.81Z"/>
          <path class="cls-2" d="M98.26,27.5c-4.3.06-6.24,1.3-8.69,2.87-2.72,1.74-5.8,3.71-11.77,3.8-5.97.09-9.11-1.78-11.88-3.44-2.45-1.46-4.4-2.62-8.54-2.6-4.15-.02-6.09,1.14-8.54,2.6-2.77,1.65-5.9,3.53-11.88,3.44-5.97-.09-9.05-2.06-11.77-3.8-2.45-1.57-4.39-2.81-8.69-2.87-3.92-.06-5.91.91-8.11,2.21l31.92,18.43c5.29,3.05,11.18,4.59,17.08,4.62,5.9-.03,11.79-1.57,17.08-4.62l31.92-18.43c-2.21-1.3-4.19-2.27-8.11-2.21ZM57.38,43.28c-2.03-.1-3.64-1.76-3.64-3.81s1.61-3.72,3.64-3.81c2.03.1,3.64,1.76,3.64,3.81s-1.61,3.71-3.64,3.81Z"/>
        </g>
        <path class="cls-1" d="M36.39,54.92l-26.8-15.47c2.06,4.19,2.02,7.36,1.97,10.18-.04,2.91-.08,5.21,2.13,8.9,2.21,3.7,4.25,4.75,6.83,6.09,2.86,1.48,6.11,3.17,9.17,8.29,3.07,5.13,3.01,8.78,2.97,12-.04,2.91-.08,5.2,2.13,8.9,2.21,3.7,4.25,4.75,6.83,6.09,2.86,1.48,6.11,3.17,9.17,8.29,1.89,3.15,2.59,5.75,2.84,8.03v-31.42c0-12.33-6.58-23.72-17.25-29.89ZM24.32,61.04c-2.11,0-3.82-1.71-3.82-3.82s1.71-3.82,3.82-3.82,3.82,1.71,3.82,3.82-1.71,3.82-3.82,3.82ZM44.26,95.16c-2.11,0-3.82-1.71-3.82-3.82s1.71-3.82,3.82-3.82,3.82,1.71,3.82,3.82-1.71,3.82-3.82,3.82Z"/>
        <path class="cls-1" d="M47.89,120.13c.04-2.91.07-5.21-2.13-8.9-2.21-3.7-4.25-4.75-6.83-6.09-2.86-1.48-6.1-3.16-9.17-8.29-3.07-5.13-3.01-8.78-2.96-12,.04-2.91.08-5.2-2.13-8.9-2.21-3.69-4.25-4.75-6.83-6.09-2.86-1.48-6.11-3.17-9.17-8.29-3.07-5.13-3.01-8.78-2.97-12,.04-2.91.08-5.21-2.13-8.9-1.2-2-2.34-3.22-3.55-4.14v45.01c0,8.87,4.73,17.07,12.42,21.51l35.54,20.52c-.1-1.21-.08-2.34-.07-3.42ZM15.02,89.24c-2.11,0-3.82-1.71-3.82-3.82s1.71-3.82,3.82-3.82,3.82,1.71,3.82,3.82-1.71,3.82-3.82,3.82Z"/>
        <path class="cls-4" d="M105.53,39.45l-26.8,15.47c-10.68,6.17-17.25,17.56-17.25,29.89v31.42c.25-2.28.96-4.87,2.84-8.03,3.07-5.13,6.31-6.81,9.17-8.29,2.58-1.34,4.63-2.4,6.83-6.09,2.21-3.69,2.18-5.99,2.13-8.9-.05-3.22-.1-6.88,2.96-12,3.07-5.13,6.31-6.81,9.17-8.29,2.58-1.34,4.62-2.4,6.83-6.09,2.21-3.69,2.18-5.99,2.13-8.9-.04-2.83-.09-5.99,1.97-10.18ZM70.86,95.16c-2.11,0-3.82-1.71-3.82-3.82s1.71-3.82,3.82-3.82,3.82,1.71,3.82,3.82-1.71,3.82-3.82,3.82ZM90.8,61.04c-2.11,0-3.82-1.71-3.82-3.82s1.71-3.82,3.82-3.82,3.82,1.71,3.82,3.82-1.71,3.82-3.82,3.82Z"/>
        <path class="cls-4" d="M111.57,40.64c-2.21,3.69-2.18,5.99-2.13,8.9.04,3.22.1,6.88-2.97,12-3.07,5.13-6.31,6.81-9.17,8.29-2.58,1.34-4.62,2.4-6.83,6.09-2.21,3.7-2.18,5.99-2.13,8.9.04,3.22.1,6.87-2.97,12-3.07,5.13-6.31,6.81-9.17,8.29-2.58,1.34-4.62,2.4-6.83,6.09-2.21,3.69-2.18,5.99-2.13,8.9.01,1.08.03,2.2-.07,3.42l35.53-20.52c7.68-4.43,12.42-12.64,12.42-21.51v-45.01c-1.21.91-2.35,2.14-3.55,4.14ZM100.1,89.24c-2.11,0-3.82-1.71-3.82-3.82s1.71-3.82,3.82-3.82,3.82,1.71,3.82,3.82-1.71,3.82-3.82,3.82Z"/>
      </g>
      <g>
        <g>
          <g>
            <path class="cls-3" d="M151.12,65.1V26.82h21.05c3.87,0,7.18,1.25,9.93,3.75,2.75,2.49,4.12,5.49,4.12,9.01,0,1.76-1.37,3.27-4.12,4.52-.9.41-1.87.75-2.9,1.03v1.68c1.03.28,2,.63,2.9,1.05,2.75,1.24,4.12,2.73,4.12,4.49,0,3.53-1.37,6.54-4.12,9.03-2.75,2.49-6.06,3.73-9.93,3.73h-21.05ZM172.17,42.76c.97,0,1.8-.31,2.49-.94.68-.61,1.03-1.36,1.03-2.25s-.34-1.62-1.03-2.25c-.68-.63-1.51-.94-2.49-.94h-10.54v6.37h10.54ZM172.17,55.55c.97,0,1.8-.31,2.49-.94.68-.63,1.03-1.38,1.03-2.27s-.34-1.62-1.03-2.25c-.68-.63-1.51-.94-2.49-.94h-10.54v6.39h10.54Z"/>
            <path class="cls-3" d="M189.74,65.1V26.82h10.52v38.29h-10.52Z"/>
            <path class="cls-3" d="M217.79,65.1c-3.87,0-7.18-1.24-9.93-3.73-2.73-2.49-4.1-5.5-4.1-9.03v-6.37c0-3.52,1.37-6.53,4.1-9.03,2.75-2.49,6.06-3.73,9.93-3.73h3.51c3.88,0,7.19,1.24,9.93,3.73,2.75,2.5,4.12,5.51,4.12,9.03v6.37c0,3.53-1.37,6.54-4.12,9.03-2.73,2.49-6.04,3.73-9.93,3.73h-3.51ZM221.31,55.55c.97,0,1.8-.31,2.49-.94.68-.63,1.03-1.38,1.03-2.27v-6.37c0-.89-.34-1.64-1.03-2.25-.68-.64-1.51-.96-2.49-.96h-3.51c-.96,0-1.78.32-2.47.96-.7.61-1.05,1.36-1.05,2.25v6.37c0,.89.35,1.64,1.05,2.27.68.63,1.51.94,2.47.94h3.51Z"/>
            <path class="cls-3" d="M252.89,65.1c-3.87,0-7.18-1.24-9.93-3.73-2.73-2.49-4.1-5.5-4.1-9.03v-6.37c0-3.52,1.37-6.53,4.1-9.03,2.75-2.49,6.06-3.73,9.93-3.73h3.51c3.88,0,7.19,1.24,9.93,3.73,2.75,2.5,4.12,5.51,4.12,9.03h-10.54c0-.89-.34-1.64-1.03-2.25-.68-.64-1.51-.96-2.49-.96h-3.51c-.96,0-1.78.32-2.47.96-.7.61-1.05,1.36-1.05,2.25v6.37c0,.89.35,1.64,1.05,2.27.68.63,1.51.94,2.47.94h3.51c.97,0,1.8-.31,2.49-.94.68-.63,1.03-1.38,1.03-2.27h10.54c0,3.53-1.37,6.54-4.12,9.03-2.73,2.49-6.04,3.73-9.93,3.73h-3.51Z"/>
            <path class="cls-3" d="M273.97,65.1V26.82h10.52v15.95h7.02c.97,0,1.8-.31,2.49-.94.68-.61,1.03-1.36,1.03-2.25v-6.37h10.54v6.37c0,1.18-.69,2.18-2.07,3.01-1.37.83-3.02,1.24-4.95,1.24v2.14c1.93,0,3.59.63,4.95,1.88,1.38,1.24,2.07,2.73,2.07,4.49v12.76h-10.54v-9.56c0-.89-.34-1.64-1.03-2.27-.68-.63-1.51-.94-2.49-.94h-7.02v12.76h-10.52Z"/>
            <path class="cls-3" d="M323.1,65.1c-3.87,0-7.18-1.24-9.93-3.73-2.73-2.49-4.1-5.5-4.1-9.03v-6.37c0-3.52,1.37-6.53,4.1-9.03,2.75-2.49,6.06-3.73,9.93-3.73h3.51c3.88,0,7.19,1.24,9.93,3.73,2.75,2.5,4.12,5.51,4.12,9.03h-10.54c0-.89-.34-1.64-1.03-2.25-.68-.64-1.51-.96-2.49-.96h-3.51c-.96,0-1.78.32-2.47.96-.7.61-1.05,1.36-1.05,2.25v6.37c0,.89.35,1.64,1.05,2.27.68.63,1.51.94,2.47.94h3.51c.97,0,1.8-.31,2.49-.94.68-.63,1.03-1.38,1.03-2.27h10.54c0,3.53-1.37,6.54-4.12,9.03-2.73,2.49-6.04,3.73-9.93,3.73h-3.51Z"/>
            <path class="cls-3" d="M344.17,65.1V26.82h10.52v12.76h2.36c0-1.76.45-3.26,1.35-4.52.92-1.24,2.02-1.85,3.32-1.85,3.88,0,7.19,1.24,9.93,3.73,2.75,2.5,4.12,5.51,4.12,9.03v19.13h-10.54v-19.13c0-.89-.34-1.64-1.03-2.25-.68-.64-1.51-.96-2.49-.96-1.93,0-3.59.31-4.97.94-1.37.63-2.05,1.38-2.05,2.27v19.13h-10.52Z"/>
            <path class="cls-3" d="M383.38,61.37c-2.73-2.49-4.1-5.5-4.1-9.03v-.79c0-.89.34-1.64,1.03-2.27.68-.63,1.51-.94,2.47-.94h17.56v-2.38c0-.89-.34-1.64-1.03-2.25-.68-.64-1.51-.96-2.49-.96h-3.51c-.96,0-1.78.32-2.47.96-.7.61-1.05,1.36-1.05,2.25h-10.52c0-3.52,1.37-6.53,4.1-9.03,2.75-2.49,6.06-3.73,9.93-3.73h3.51c3.88,0,7.19,1.24,9.93,3.73,2.75,2.5,4.12,5.51,4.12,9.03v19.13h-10.54v-6.37h-2.33c0,1.76-.46,3.27-1.37,4.52-.92,1.24-2.02,1.85-3.32,1.85-3.87,0-7.18-1.24-9.93-3.73ZM393.3,55.55c1.95,0,3.61-.31,4.97-.94,1.37-.63,2.05-1.38,2.05-2.27h-8.77c-.49,0-.91.16-1.24.48-.35.31-.52.68-.52,1.11s.17.83.52,1.13c.33.32.75.48,1.24.48h1.75Z"/>
            <path class="cls-3" d="M414.38,30.81v-3.99h10.52v3.99h-10.52ZM414.38,65.1v-31.9h10.52v31.9h-10.52Z"/>
            <path class="cls-3" d="M428.41,65.1v-31.9h10.52v6.37h2.36c0-1.76.45-3.26,1.35-4.52.92-1.24,2.02-1.85,3.32-1.85,3.88,0,7.19,1.24,9.93,3.73,2.75,2.5,4.12,5.51,4.12,9.03v19.13h-10.54v-19.13c0-.89-.34-1.64-1.03-2.25-.68-.64-1.51-.96-2.49-.96-1.93,0-3.59.31-4.97.94-1.37.63-2.05,1.38-2.05,2.27v19.13h-10.52Z"/>
          </g>
          <g>
            <path class="cls-3" d="M218.64,81.66c1.32,1.01,2.21,2.39,2.67,4.12h-2.79c-.38-.98-.99-1.76-1.83-2.34-.84-.58-1.86-.86-3.08-.86-.97,0-1.83.24-2.59.71-.76.48-1.36,1.16-1.8,2.04-.44.88-.66,1.92-.66,3.1s.22,2.19.66,3.08c.44.88,1.04,1.56,1.8,2.04.76.48,1.62.71,2.59.71,1.21,0,2.24-.29,3.08-.86.84-.58,1.45-1.35,1.83-2.32h2.79c-.46,1.74-1.35,3.11-2.67,4.11-1.32,1.01-2.98,1.51-4.98,1.51-1.54,0-2.9-.35-4.08-1.05-1.18-.7-2.1-1.67-2.74-2.93-.65-1.25-.97-2.68-.97-4.3s.32-3.04.97-4.3c.65-1.25,1.56-2.23,2.74-2.94,1.18-.71,2.54-1.06,4.08-1.06,2,0,3.65.51,4.98,1.52Z"/>
            <path class="cls-3" d="M260.06,90.74h-9.77c.05,1.31.41,2.27,1.08,2.9.68.63,1.51.94,2.51.94.88,0,1.62-.22,2.22-.67.61-.45.98-1.04,1.12-1.77h2.81c-.17.89-.52,1.68-1.06,2.37-.54.69-1.24,1.23-2.1,1.62s-1.82.59-2.88.59c-1.23,0-2.32-.26-3.26-.78-.94-.52-1.69-1.27-2.22-2.26-.54-.98-.81-2.14-.81-3.48s.27-2.47.81-3.46c.54-.98,1.28-1.74,2.22-2.26.94-.52,2.03-.78,3.26-.78s2.33.26,3.26.77c.93.51,1.64,1.22,2.14,2.12.5.9.75,1.9.75,3.01,0,.43-.03.81-.09,1.13ZM257.08,87.45c-.31-.56-.74-.98-1.29-1.24-.55-.27-1.14-.4-1.79-.4-1.03,0-1.89.32-2.58.94-.69.63-1.07,1.56-1.13,2.79h7.21c.03-.83-.11-1.52-.43-2.08Z"/>
            <path class="cls-3" d="M297.75,85.09c.89.95,1.34,2.31,1.34,4.08v7.39h-2.63v-7.12c0-1.14-.29-2.02-.88-2.64-.58-.62-1.38-.93-2.4-.93s-1.88.33-2.51,1c-.63.67-.94,1.65-.94,2.94v6.75h-2.63v-12.69h2.63v2.79c.34-.95.91-1.69,1.7-2.21.8-.52,1.72-.78,2.76-.78,1.47,0,2.66.48,3.55,1.43Z"/>
            <path class="cls-3" d="M332.95,94.28v2.28h-1.61c-1.35,0-2.38-.33-3.08-.98-.7-.65-1.05-1.74-1.05-3.26v-6.22h-1.82v-2.23h1.82v-3.16h2.65v3.16h3.06v2.23h-3.06v6.27c0,.72.13,1.22.4,1.5.27.28.74.41,1.42.41h1.27Z"/>
            <path class="cls-3" d="M364.3,84.39c.8-.48,1.72-.73,2.76-.73v2.86h-.78c-1.15,0-2.08.28-2.78.84-.7.56-1.05,1.49-1.05,2.78v6.43h-2.63v-12.69h2.63v2.49c.43-.83,1.04-1.49,1.84-1.97Z"/>
            <path class="cls-3" d="M405.15,90.74h-9.77c.05,1.31.41,2.27,1.08,2.9.68.63,1.51.94,2.51.94.88,0,1.62-.22,2.22-.67.61-.45.98-1.04,1.12-1.77h2.81c-.17.89-.52,1.68-1.06,2.37-.54.69-1.24,1.23-2.1,1.62-.86.39-1.82.59-2.88.59-1.23,0-2.32-.26-3.26-.78-.94-.52-1.69-1.27-2.22-2.26-.54-.98-.81-2.14-.81-3.48s.27-2.47.81-3.46c.54-.98,1.28-1.74,2.22-2.26.94-.52,2.03-.78,3.26-.78s2.33.26,3.26.77c.93.51,1.64,1.22,2.14,2.12s.75,1.9.75,3.01c0,.43-.03.81-.09,1.13ZM402.16,87.45c-.31-.56-.75-.98-1.29-1.24-.55-.27-1.14-.4-1.79-.4-1.03,0-1.89.32-2.58.94-.69.63-1.07,1.56-1.13,2.79h7.21c.03-.83-.11-1.52-.43-2.08Z"/>
          </g>
        </g>
        <rect class="cls-3" x="417.94" y="89.11" width="42.06" height="2.22"/>
        <rect class="cls-3" x="151.12" y="89.11" width="42.06" height="2.22"/>
      </g>
    </g>
  </g>
</svg>