<?xml version="1.0" encoding="UTF-8"?>
<svg id="Layer_1" xmlns="http://www.w3.org/2000/svg" viewBox="0 0 295.13 48.69">
  <defs>
    <style>
      .cls-1 {
        fill: #d81e2e;
      }

      .cls-2 {
        fill: #0b0b45;
      }
    </style>
  </defs>
  <path class="cls-2" d="M22.31,47.73c-3.13,0-6.06-.51-8.78-1.52-2.73-1.01-5.1-2.48-7.13-4.41-1.99-1.89-3.55-4.22-4.69-7-1.14-2.78-1.71-5.84-1.71-9.17s.57-6.38,1.72-9.2c1.15-2.82,2.78-5.26,4.86-7.33,2.05-2.03,4.5-3.6,7.37-4.71s5.94-1.67,9.2-1.67c2.37,0,4.52.29,6.47.87,1.95.58,3.59,1.23,4.93,1.96l1.87-1.66h2.62l.27,15.58h-2.65c-1.5-4.76-3.31-8.26-5.41-10.49-2.09-2.23-4.66-3.35-7.69-3.35-3.76,0-6.63,1.66-8.59,4.99-1.96,3.32-2.94,7.99-2.94,13.99,0,3.39.33,6.29,1,8.69.67,2.4,1.55,4.33,2.63,5.8,1.16,1.53,2.53,2.65,4.12,3.36,1.58.71,3.33,1.07,5.25,1.07,2.81,0,5.3-.76,7.5-2.29,2.2-1.52,4.19-3.83,5.99-6.92l2.59,1.56c-.86,1.77-1.85,3.34-2.95,4.74-1.1,1.39-2.38,2.59-3.82,3.6-1.58,1.1-3.34,1.97-5.25,2.59s-4.17.93-6.78.93h0Z"/>
  <path class="cls-2" d="M78.36,45.92c-.88.38-1.92.73-3.12,1.05-1.2.32-2.47.48-3.81.48-2.46,0-4.27-.37-5.43-1.1-1.16-.73-1.95-1.78-2.37-3.14h-.18c-.68.68-1.34,1.26-1.98,1.75-.63.48-1.31.89-2.03,1.23-.95.44-1.86.77-2.73.99-.87.22-2.09.33-3.66.33-2.33,0-4.32-.69-5.96-2.06-1.65-1.38-2.47-3.2-2.47-5.47,0-1.31.18-2.42.54-3.33.36-.91.87-1.72,1.54-2.42.6-.64,1.3-1.18,2.09-1.6.8-.42,1.66-.81,2.61-1.18,1.81-.66,3.97-1.35,6.5-2.06,2.53-.71,4.38-1.35,5.54-1.91v-2.89c0-.5-.04-1.16-.12-1.99s-.25-1.51-.51-2.08c-.28-.64-.72-1.18-1.32-1.62s-1.39-.66-2.38-.66c-.88,0-1.62.13-2.21.38-.59.25-1.07.51-1.43.77.06.4.24,1.01.52,1.83.28.82.42,1.61.42,2.38,0,.34-.09.77-.27,1.28s-.44.92-.79,1.22c-.46.4-.98.71-1.55.93-.58.22-1.45.33-2.64.33-1.69,0-2.97-.41-3.83-1.22-.87-.81-1.3-1.87-1.3-3.17,0-1.12.45-2.13,1.34-3.02.89-.89,1.98-1.63,3.26-2.21,1.26-.6,2.72-1.07,4.36-1.4,1.65-.33,3.17-.49,4.57-.49,1.95,0,3.73.12,5.35.35,1.62.23,3.09.71,4.39,1.43,1.24.7,2.23,1.72,2.96,3.05s1.1,3.07,1.1,5.22c0,2.27-.05,4.95-.14,8.06-.09,3.11-.14,5.15-.14,6.14,0,.9.14,1.61.41,2.13s.69.91,1.25,1.17c.34.16.88.26,1.61.28.73.03,1.4.05,2,.05v2.2h0ZM63.45,30.26c-1.13.38-2.25.82-3.35,1.31-1.11.49-2.01,1.01-2.72,1.56-.75.56-1.33,1.28-1.76,2.16-.42.88-.63,1.9-.63,3.09,0,1.56.36,2.7,1.07,3.4.71.7,1.59,1.05,2.64,1.05,1.1,0,2.01-.23,2.73-.68.71-.45,1.34-1.01,1.88-1.67l.12-10.22h0Z"/>
  <path class="cls-2" d="M118.59,45.92l-14.34.87-.45-.42v-3.94h-.18c-.68.62-1.35,1.23-1.99,1.82-.65.59-1.43,1.13-2.33,1.61-1.02.54-1.99.94-2.9,1.2-.91.26-2.23.39-3.98.39-3.02,0-5.34-.91-6.95-2.74-1.61-1.82-2.42-4.4-2.42-7.73v-13.53c0-.78-.15-1.42-.45-1.91-.3-.49-.7-.93-1.2-1.31-.4-.3-.92-.52-1.56-.65s-1.22-.22-1.73-.26v-2.2l14.53-.78.33.45v20c0,2.07.39,3.59,1.19,4.57s1.88,1.47,3.26,1.47,2.7-.37,3.83-1.11c1.13-.74,1.96-1.53,2.48-2.38v-16.21c0-.68-.13-1.29-.39-1.83s-.64-.98-1.14-1.32c-.36-.24-.88-.4-1.55-.48-.67-.08-1.36-.14-2.06-.18v-2.2l14.62-.78.45.45v23.22c0,.7.14,1.3.42,1.79.28.49.69.91,1.23,1.25.38.24.87.41,1.48.49.61.09,1.21.15,1.81.16v2.2h0Z"/>
  <path class="cls-2" d="M151.91,22.23c0,1.52-.47,2.86-1.41,4.02-.94,1.15-2.19,1.73-3.73,1.73s-2.7-.37-3.71-1.11-1.52-1.83-1.52-3.27c0-.7.05-1.24.15-1.63.1-.39.19-.75.27-1.09-.92.04-1.89.36-2.92.95s-1.92,1.39-2.71,2.38v16.51c0,.7.11,1.28.33,1.75s.59.82,1.11,1.08c.44.22,1.16.41,2.15.56.99.15,1.71.24,2.15.26v2.2h-20.12v-2.2c.5-.04,1.01-.09,1.52-.16.51-.07.95-.16,1.31-.28.64-.22,1.08-.56,1.32-1.02.24-.46.36-1.06.36-1.8v-17.5c0-.72-.17-1.37-.51-1.94s-.75-1.03-1.23-1.37c-.36-.24-.82-.44-1.37-.6-.55-.16-1.16-.27-1.82-.33v-2.2l14.34-.78.45.45v4.36h.12c1.38-1.6,2.85-2.86,4.41-3.77,1.56-.91,3.17-1.37,4.86-1.37,1.87,0,3.36.58,4.5,1.73,1.13,1.15,1.7,2.64,1.7,4.46h0Z"/>
  <path class="cls-2" d="M174.27,46.55h-19.01v-2.2c.52-.04,1.03-.09,1.53-.15s.93-.16,1.29-.3c.64-.24,1.09-.59,1.35-1.04.26-.45.39-1.05.39-1.79v-17.5c0-.7-.16-1.32-.48-1.85s-.72-.96-1.2-1.28c-.36-.24-.91-.47-1.64-.69s-1.4-.36-2-.42v-2.2l14.74-.78.45.45v23.88c0,.7.15,1.3.45,1.79.3.49.73.86,1.29,1.1.4.18.84.34,1.32.48.48.14.98.24,1.5.3v2.2h0ZM169.88,5.53c0,1.52-.59,2.82-1.76,3.9-1.17,1.07-2.56,1.61-4.16,1.61s-3.02-.54-4.2-1.61-1.76-2.37-1.76-3.9.59-2.83,1.76-3.91S162.33,0,163.96,0s3.02.54,4.18,1.62,1.75,2.39,1.75,3.91h0Z"/>
  <path class="cls-1" d="M215.24,45.92l-14.83.87-.45-.42v-2.77l-.21-.06c-.98,1.06-2.31,1.99-3.98,2.78-1.67.79-3.36,1.19-5.06,1.19-4.04,0-7.38-1.5-10-4.51s-3.93-6.9-3.93-11.67c0-4.23,1.47-7.86,4.4-10.89s6.48-4.54,10.65-4.54c1.65,0,3.18.18,4.63.56,1.45.37,2.59.81,3.45,1.31V7.94c0-.74-.15-1.44-.45-2.09-.3-.65-.7-1.16-1.2-1.52-.62-.44-1.4-.76-2.33-.95-.93-.19-1.87-.33-2.81-.41V.78l16.27-.78.45.48v39.43c0,.76.13,1.4.38,1.92.25.52.65.93,1.21,1.23.42.22,1.03.38,1.84.48.81.1,1.47.16,1.99.18v2.2h0ZM199.91,40.57v-16.99c-.14-.46-.34-.97-.59-1.53-.25-.56-.59-1.09-1.03-1.59-.4-.42-.94-.79-1.6-1.11-.67-.32-1.43-.48-2.27-.48-2,0-3.64,1.13-4.92,3.4-1.28,2.27-1.92,5.46-1.92,9.59,0,1.62.12,3.08.35,4.37s.63,2.47,1.21,3.53,1.33,1.89,2.23,2.5c.91.6,2,.9,3.29.9s2.22-.24,3.03-.71,1.54-1.1,2.22-1.88h0Z"/>
  <path class="cls-1" d="M295.12,22.23c0,1.52-.47,2.86-1.41,4.02-.94,1.15-2.19,1.73-3.73,1.73s-2.7-.37-3.71-1.11-1.52-1.83-1.52-3.27c0-.7.05-1.24.15-1.63.1-.39.19-.75.27-1.09-.92.04-1.89.36-2.92.95-1.02.59-1.92,1.39-2.71,2.38v16.51c0,.7.11,1.28.33,1.75s.59.82,1.11,1.08c.44.22,1.16.41,2.15.56.99.15,1.71.24,2.15.26v2.2h-20.12v-2.2c.5-.04,1.01-.09,1.52-.16s.95-.16,1.31-.28c.64-.22,1.08-.56,1.32-1.02.24-.46.36-1.06.36-1.8v-17.5c0-.72-.17-1.37-.51-1.94s-.75-1.03-1.23-1.37c-.36-.24-.82-.44-1.37-.6-.55-.16-1.16-.27-1.82-.33v-2.2l14.34-.78.45.45v4.36h.12c1.38-1.6,2.85-2.86,4.41-3.77,1.56-.91,3.17-1.37,4.86-1.37,1.87,0,3.36.58,4.5,1.73,1.13,1.15,1.7,2.64,1.7,4.46h0Z"/>
  <g>
    <path class="cls-1" d="M240.16,2.41c.53,0,1.06.03,1.58.06-.52-.04-1.05-.06-1.58-.06Z"/>
    <path class="cls-1" d="M242.1,2.5c.51.05,1.02.11,1.53.19-.5-.08-1.02-.14-1.53-.19Z"/>
    <path class="cls-1" d="M245.51,3.07c.49.12.98.27,1.46.42-.48-.16-.97-.3-1.46-.42Z"/>
    <path class="cls-1" d="M243.89,2.73c.46.08.92.17,1.37.28-.45-.11-.91-.2-1.37-.28Z"/>
    <path class="cls-1" d="M218.08,25.79c-.02-.42-.04-.83-.04-1.26,0,.42.02.84.04,1.26Z"/>
    <path class="cls-1" d="M218.38,28.38c-.05-.28-.1-.57-.14-.85.04.28.08.57.14.85Z"/>
    <path class="cls-1" d="M219.08,31.2c-.13-.39-.24-.79-.35-1.19.1.4.22.8.35,1.19Z"/>
    <path class="cls-1" d="M247.26,3.59c.99.34,1.95.75,2.87,1.22-.92-.47-1.88-.88-2.87-1.22Z"/>
    <path class="cls-1" d="M218.19,27.08c-.03-.29-.06-.58-.08-.87.02.29.05.58.08.87Z"/>
    <path class="cls-1" d="M218.7,29.9c-.09-.37-.17-.73-.25-1.11.07.37.16.74.25,1.11Z"/>
    <path class="cls-1" d="M229.32,6.64h0c-.05.03-.1.06-.15.1h0c.05-.03.1-.06.15-.1Z"/>
    <path class="cls-1" d="M224.44,38.27s-.02-.03-.03-.04c.01.01.02.03.03.04Z"/>
    <path class="cls-1" d="M223.68,37.35s-.04-.05-.05-.07c.02.02.04.05.05.07Z"/>
    <path class="cls-1" d="M260.38,18.02c.11.26.21.53.3.8-.21.1.52,2.64.36,2.78-.09-.42-.27-.93-.47-1.44.16.78.28,1.57.36,2.37l.25-.15.89-.53c-.18-1.51-.51-2.97-.99-4.36-.27.12-.51.3-.71.53h0Z"/>
    <path class="cls-1" d="M256.85,10.07c-.71-.82-1.48-1.59-2.31-2.31.82.71,1.6,1.48,2.31,2.31Z"/>
    <path class="cls-1" d="M226.7,42.03c.32.24.64.48.97.71-.33-.23-.65-.46-.97-.71Z"/>
    <path class="cls-1" d="M224.61,40.22c-.3-.3-.6-.61-.89-.93.29.32.58.63.89.93Z"/>
    <path class="cls-1" d="M227.94,41.66c-.19.37-.27.74-.26,1.1.62.43,1.26.82,1.93,1.18.52-.14,1.08-.3,1.67-.52-1.14-.54-2.23-1.18-3.25-1.9-.03.05-.07.09-.1.14h0Z"/>
    <path class="cls-1" d="M243.63,3.91s-.09-.01-.14-.02c.05,0,.09.02.14.03h0s0,0,0,0Z"/>
    <path class="cls-1" d="M239.81,3.62h0c-.43,0-.85.03-1.27.06h0c.42-.03.84-.05,1.27-.06Z"/>
    <path class="cls-1" d="M241.7,3.68c.1,0,.21.01.31.02-.1,0-.21-.02-.31-.02Z"/>
    <path class="cls-1" d="M233.57,4.68h0c-1.4.47-2.74,1.08-3.99,1.81q-.83.49,0,0c1.25-.74,2.59-1.35,3.99-1.81Z"/>
    <path class="cls-1" d="M225.73,41.24c.25.22.51.43.78.64-.26-.21-.52-.42-.78-.64Z"/>
    <path class="cls-1" d="M247.24,45.42c.02-.22,0-.45-.06-.66-.06-.18-.15-.35-.24-.5-.73.25-1.49.47-2.26.64-1,.6-2,1.15-3.01,1.66,3.97-.27,7.65-1.59,10.77-3.69h-.01c-1.59,1.06-3.33,1.93-5.18,2.57h0Z"/>
    <path class="cls-1" d="M224.71,40.31c.26.26.53.51.81.75-.27-.24-.54-.49-.81-.75Z"/>
    <path class="cls-1" d="M220.16,33.94h0c.16.33.32.66.49.97-.17-.32-.33-.65-.49-.98h0Z"/>
    <path class="cls-1" d="M220.68,34.99c.2.37.41.73.63,1.08-.22-.36-.43-.71-.63-1.08Z"/>
    <path class="cls-1" d="M251.81,5.75c.44.27.87.57,1.29.87-.42-.3-.85-.59-1.29-.87Z"/>
    <path class="cls-1" d="M256.91,10.14c1.1,1.28,2.05,2.68,2.83,4.18-.79-1.5-1.74-2.91-2.83-4.18Z"/>
    <path class="cls-1" d="M221.45,36.28c.17.28.36.55.55.82-.19-.27-.37-.54-.55-.82Z"/>
    <path class="cls-1" d="M253.18,6.68c.43.32.85.65,1.26,1-.41-.35-.82-.68-1.26-1Z"/>
    <path class="cls-1" d="M259.74,14.33c.52,1.01.97,2.06,1.34,3.15-.37-1.09-.81-2.14-1.34-3.15Z"/>
    <path class="cls-1" d="M259.86,31.37c.25.31.59.55,1.05.64-1.6,4.4-4.55,8.15-8.36,10.75l-.02.04c5.28-3.59,8.93-9.4,9.59-16.07l-1.74,2.91c-.15.59-.33,1.17-.52,1.73h0Z"/>
    <path class="cls-1" d="M222.19,37.38c.18.26.38.51.57.76-.19-.25-.38-.5-.57-.76Z"/>
    <path class="cls-1" d="M250.36,4.92c.46.24.91.5,1.36.77-.44-.27-.9-.53-1.36-.77Z"/>
    <path class="cls-1" d="M222.94,38.37c.25.31.51.61.77.91-.27-.29-.52-.6-.77-.91Z"/>
    <path class="cls-1" d="M250.52,38.65l1.63,1.63,9.86-16.52-16.52,9.86,1.51,1.51c-.16.12-.32.25-.45.37-8.77,7.53-15.43,10.49-20.06,10.49-6.93,0-9.35-6.62-7.55-14.46-4.02,12.06.92,17.15,8.78,17.15,6.73,0,15.59-3.74,22.79-10.04h0Z"/>
    <path class="cls-1" d="M252.42,42.84h.01s.04.05.04.05l.06-.1.02-.04s-.09.05-.13.08h0Z"/>
    <path class="cls-1" d="M242.02,3.92s0,.01,0,.02h0s0,.01.05.05c.03.02.03.02.04.03,0,0,0,0-.03,0-.03,0-.02,0-.02.01,0,0,0,0,0,0,0,0,.05.05.09.04.04,0,.11.05.12.06,0,.01,0,.02-.02.03-.03.02-.04.04-.02.05.03.03.02,0,.02,0,.05,0,.09,0,.14.02.04,0,.07.03.11.03,0-.01-.04-.04-.06-.04-.02,0-.04-.03-.04-.03.01,0,.02.02.04,0,0-.02-.03-.02-.04-.04,0,0,.02,0,.03,0,0-.02-.11-.07-.13-.08,0,0-.02,0-.03-.03,0,0,0,0,.03,0,.08,0,.03-.03-.02-.05-.03-.01-.05-.02-.06-.04,0-.02,0-.02.01-.03,0-.02.01-.05.02-.07,0-.02,0-.03,0-.05,0-.02.03,0,.04-.01,0,0,0-.02-.11-.06-.08-.03-.13-.05-.15-.04,0,0,0,0,0,0,0,.02.03.04.05.05.02.01.04.03.05.04s.01.03-.03.05c-.03,0-.06,0-.09,0h0s.04.02.05.05c0,.02-.02.01-.03.03h0Z"/>
    <path class="cls-1" d="M242.31,4.26h0s0,0,.02.03c.08.08.1.1.11.13,0,.02-.03.01-.04.03-.02.02.07.09.1.1.04.02.08,0,.13,0,.08.01.13.1.2.12.04.01.05.02.06.02.1.01.27.03.22-.05,0,0,0-.01-.01-.02-.11-.06-.24-.07-.35-.13-.05-.03-.17-.09-.19-.15-.01-.03-.06-.06-.1-.08,0,0-.04-.02-.14-.02h0Z"/>
    <path class="cls-1" d="M245.81,30.87c.3-1.2-.6-2.24-.41-3.42.14-.87,1.05-1.2,1.28-2.01.31-.69,1-.55,1.3-1.24.69-1.6,1.4-1.74,1.11-2.04-.62.22-.73,1.07-1.57.68-.56-.26-.69-.9-1.08-1.3-.38-.38-.62-.88-1.03-1.23l-1.96-3.07c.62-.81,1.06.03,1.06.03.05.11.36.45.42.55l3.1,4.39c3.31-1.88,4.74-3.8,3.54-4.47-.44-.25-.74-.6-.91-1.06-.2.29-.02.71-.3.97,0,0-.31.18-.77.03-.14-.33-.22-.51-.26-.55-.02.06-.04.14-.06.2-.05,0-.13,0-.18.02-.08-.6-1.03-.71-.81-1.47.05-.03.12-.06.18-.09h0c.66.28,1.09.93,1.76,1.2.23-.23.37-.37.42-.39.51.42,1.09.9,2.58.2.37.25.65.62,1.08.77-.05.25-.03.36.42.63.11-.04.25-.11.34-.19.05.03.13.06.18.08.19,1.17,2.16,4.52,2.18,4.55.06,0,.13.01.19.02.03-.09-.04-1.03-.21-2.82l.41-3.04c.06,0,.14,0,.19-.01.06-.1.13-.24.17-.35.35.44.98,1.29,1.25,2.07.08-.08.15-.23.15-.35.12.12.6,1.05,1,2.03.2.5.38,1.02.47,1.44.16-.15-.57-2.69-.36-2.78-.09-.27-.19-.53-.3-.8-.1.12-.19.25-.26.4-2.28-7.47-8.65-13.18-16.49-14.51h0c.27.35.71.27,1.05.42-.48-.12-.78-.16-.89-.1.4.45,1.12.32,1.46.87-.06,0-.13-.03-.19-.04-.24-.37-1.72-.88-1.73-.88.05.06.44.29,1.17.7-.32-.04-.62-.2-.95-.14.05.04.11.09.16.13-.05,0-.13,0-.18-.02l-.05.14c-.06.09-.09.13-.09.13h0s-.09-.1-.13-.15c-.27.15-.28.22-.31.43-.05,0-.13,0-.19,0-.02-.06-.05-.15-.07-.22-.11-.03-.25-.07-.36-.09.12.12.25.28.4.48-.05,0-.13-.02-.18-.03-.04.04-.1.09-.14.12.03.06.06.14.08.2-.11.03-.26,0-.36-.05.03.05.06.13.08.18-.11.02-.26,0-.37-.03-.02-.11-.11-.25-.2-.31.06-.03.24-.04.54-.03.04-.04.09-.09.13-.14-.19-.33-1.9-.79-2.21-.49-.05-.03-.11-.06-.16-.09-.08.07-.16.2-.17.31-.16.08-.29.22-.48.27-.02.04-.24.25-.66.62.05,0,.13,0,.18.01-.05.03-.11.08-.16.11-.16-.05-.31-.09-.89.31.05.02.12.05.17.06-.05.03-.13.06-.18.08.02.05.05.13.06.18-.06.09-.17.2-.27.27.28.67.87-.06.87-.07h.02c.12.35.07.73.17,1.09.05.01.13.03.18.05.22-.22.54-.59.96-1.11-.06-.1-.16-.22-.25-.3.16-.36.6-.49.65-.94.05-.03.11-.07.15-.1h.1c.05,0,.13.02.18.02-.02.13-.17.33-.44.59.04.25.41.45,1.13.58-.03.05-.08.11-.11.16-.35-.01-.59.03-.71.13.14.15.19.21.25.4-.05.02-.12.05-.17.08-.05-.03-.1-.08-.15-.11-.26.15-.26.19-.26.65q-.1.06-.1.06h-.03l-1.42.05c-.11.03-.26.06-.38.06-.02-.02-.05-.05-.07-.08h-.04s-.06-.11-.06-.11v-.07s0-.02.01-.03v-.03s.02-.03.02-.03l.02-.03s.12-.2.25-.49c-.52.06-.57.2-.56.82-.05.05-.11.1-.15.15-.97-.17-1.34,1.22-2.33.97-.09.06-.19.18-.25.28-.22-.09-.41-.09-.6-.03,0,.05-.02.13-.03.19,1.09,1.28-.08,1.39-.14,1.4-.11,0-.26-.03-.36-.05h-.09c-.58-.13-.96-.12-1.15.02-.04.33-.24.74-.6,1.25.04.13.02.32-.05.58.04.04.09.1.12.15.06,0,.13,0,.19,0,.09.1.2.24.27.35.02,0,1.54-.26,1.86-.71-.12-.71.82-1.27,2.79-1.67.03.02,2.27,1.8,1.22,2.05-.2.05-.39-.03-.58-.03-.02.06-.05.15-.07.21.02.01.37.29.7.38.04-.16.01-.32.07-.48.32-.05.34-.08.5-.35-.03-.06-.07-.14-.1-.2.03-.05.07-.11.1-.16.11.02.26.02.37.02.02-.02.02-.03.02-.04-.35-.49-.98-.68-1.28-1.24l-.13-.05h0c-.02-.13,0-.32.06-.44.06-.01.14-.03.19-.04.84.71,1.72,1.45,1.69,2.49.26.2.4.53.74.63,0-.2-.06-.39-.04-.59.22.17.34.46.64.53.05-.03.1-.08.15-.11-.11-.54-.73-.68-.86-1.2.65-.64.74,1.12,1.42,1.32.02-.05.04-.13.05-.18h0c.22.12.5.1.84-.05.5-.22-.12-.36.61.83.58.95-.31,1.48-.34,1.5-.68.4-1.46.15-2.87-.31v-.05c-.33-.09-.44-.09-.72.2.01.12.02.28,0,.4-1.09.63-1.63-.7-2.48-.95-.12-.36.18-.73-.02-1.1-.37-.05-1.77,0-1.78,0-.02,0-1.97.74-2.19.47-3.67,3.33-3.64,2.92-4.1,3.62-.01.02-1.01,2.11-.6,3.2-.7.6,1.47,3.3,2.02,3.37.22.03.48-.03.61-.06.06-.01.15-.04.21-.05.38-.06.72.23,1.1.17.4-.06.65-.45,1.05-.5,0,0,.16,0,.55.03.06,0,.14.03.2.06.32.14.3.59.61.73.33.16.68-.25,1.01.02.91.75-.21,1.3.25,2.11.38.67,1,1.18,1.2,1.96.08.29.03.36-.07.51.04.1.08.24.12.34.12.28.01.85-.31,1.73-.14.37-.01.97.38,1.79.29.6.34,1.31.71,1.88.42.64,0,.65.57,1.21.87.83,3.89-.72,4.34-1.71.16-.35.45-.64.66-.97.21-.3.36-.64.29-1.08-.03-.17-.02-.32.01-.45.21-.87,1.56-.85,1.78-1.75h.02ZM248.55,10.48s.05-.03.04-.07c-.02-.07-.03-.11-.02-.12,0-.01.03,0,.04-.02,0,0,0-.01,0-.04,0-.04,0-.04,0-.04,0,0,.2.09.26.19,0,.02.02.05.03.06,0,0,0,.02,0,.02,0,.04.01.08.03.13,0,.05.03.08.04.13,0,.05-.01.06-.04.07-.07,0-.28-.06-.29-.06,0,0-.01-.02-.03-.05-.02,0-.12-.14-.05-.19h0ZM246.17,10.63s0,0,.12-.01c.07,0,.11-.1.13-.15.02-.1.12-.13.18-.19.12-.13.15-.13.35-.13.25,0,.39.42.34.47-.1.09-.17-.14-.27-.05-.03.03-.02.11.05.26-.05.03-.21.02-.16.1l.37.38s.05.04.1.06c.15.05.2.06.26.12.06.07.02.17.08.24.08.11.15-.19.27-.12l.28.23s.04.04.05.08c0,.03,0,.05,0,.06,0,.04-.1.04-.16.04-.12,0-.18.01-.17.05,0,.05.06.19.12.2.15.03.11.09.07.16-.02.04,0,.24.14.17.19-.1.38.64.38.65-.01.06-.31.16-.31.16-.02,0-.32-.05-.35-.07-.08-.04-.14-.14-.24-.16-.19-.04-.29-.07-.31-.09-.15-.17-.21-.61-.08-.77.09-.1,0-.21-.06-.21-.08,0-.12,0-.14-.01-.13-.08-.23-.21-.36-.31,0,0-.33-.28-.35-.3-.06-.1-.02-.23-.1-.32-.07-.07-.19-.03-.24-.15-.02-.05-.02-.36,0-.38h0ZM243.35,10.61c.1-.05.22-.07.33-.12.05-.02.07-.04.08-.04.02-.02.03-.05.06-.06,0,0,0,0,0,0,.02,0,.07-.01.17-.02.05,0,.1-.04.16-.04.03,0,.05.03.05.05,0,.02-.05.04-.08.05-.03,0-.03.01-.05.02-.02.02-.04.03-.06.03-.03,0-.07,0-.07.02,0,.02.02.05.02.05.02.03.06.04.08.06.05.04-.01.23-.11.26-.06.02-.12,0-.17,0-.07,0-.13.04-.19.04-.05,0-.07,0-.07,0-.14-.05-.17-.25-.17-.25,0-.01,0-.04.03-.05h0ZM243.59,11.95h0c-.32.04-.4.07-.65.25-.14.1-.18.11-.28.13-.32,0-.55-.05-.66-.15-.04-.04-.15-.25-.15-.26l.06-.28s.06,0,.08-.04c.04-.08.04-.17.07-.26.03-.08.1-.13.14-.21,0-.01.01-.04.03-.09.04-.14.13-.5.32-.49,0,.08.07.13.25.12.29,0,.27.1.19.14-.05.02-.07.04-.11.1.06.07.17.02.23.09.05.07-.02.16.04.23,0,0,.02.02.03.02.07.03.16-.06.2-.11.23-.25.62-.1.82-.01l.92.55s.13.1.15.23c.04.32-.2.33-.72.34-.08,0-.12-.01-.19-.04l-.75-.26h0Z"/>
    <path class="cls-1" d="M240.21,3.88s.02,0,.03-.01h0s0-.02,0-.04c0-.02.03,0,.04-.01h0s0-.02,0-.03c0,0,0,0,0,0-.01,0-.03,0-.04,0,0,0-.01,0-.02,0-.02,0-.02.09-.02.12h.01Z"/>
    <path class="cls-1" d="M240.21,3.62h-.03s0,.01.02.02c0,0,0,0,.01-.02h0Z"/>
    <path class="cls-1" d="M239.99,3.68c0,.06-.03.06-.05.05h0s-.02.02-.03.02c-.02,0-.03,0-.05,0,0,0-.02.03-.02.04,0,0,0,.05,0,.07,0,.01.02,0,.02.01.01.02,0,.04.02.06.01.02.04,0,.05,0,.03-.03.03-.06.05-.09,0,0,.02-.02.03-.02.01,0,.02,0,.02-.04,0-.02,0-.02,0-.03,0,0,.01,0,.02,0,0,0,0-.02.01-.04,0-.03,0-.03.02-.04,0,0,.03-.02.05-.01.01,0,.03.04,0,.05-.02,0,0,.02,0,.03,0,0,.04.01.05-.01,0-.01,0-.1-.05-.1-.01,0-.02,0-.02,0,0,0,0,0-.02-.01-.02,0,0,0,0-.01h-.07s0,.04,0,.06h0Z"/>
    <path class="cls-1" d="M239.82,3.69s.02,0,.02,0t0,.02h0s.04.03.04.03c0,0,.03-.01.05-.05t0-.01h0s0,.03,0,.05h.03s0-.02,0-.03c0-.02.01-.05,0-.07h0c-.05,0-.11,0-.16,0h0s-.02.06,0,.06h0Z"/>
    <path class="cls-1" d="M236.8,12.95s0,.05,0,.06c0,.02,0,.04.02.05.06.07.29-.07.35-.33,0-.03.02-.09.02-.18,0-.14-.04-.27-.03-.4.01-.12.07-.23.07-.36,0-.05-.03-.06-.06-.07h-.02c-.19.27-.2.27-.16.34.05.1.07.25.04.26-.05.02-.09-.03-.14-.03,0,0-.12,0-.13.12,0,.07.07.11.07.18,0,.12-.05.24-.04.36h0Z"/>
    <path class="cls-1" d="M236.03,7.2c-.05.01-.1,0-.16,0-.01,0-.03,0-.04.02-.14.08-.15.29-.34.32-.07,0-.18.14-.06.23-.12.08-.18.16-.16.22.03.01.03.01.08,0-.11.13-.1.17.05.18h.02c.1.03.07.16.13.21-.11.13-.31.01-.42.15-.07.08-.04.14-.03.16,0,.02.02.04,0,.05,0,0-.07.05-.16.04-.09,0-.11,0-.14.11.1.06.25.02.32.16-.22.11-.47.13-.68.28.02,0,.05-.02.06-.03,0,0,0,.01,0,.02,0,.03.05.03.09.03.21-.01.41-.11.62-.12.22,0,.44.05.65.01.14-.02.24-.09.31-.2.05-.09.12-.3.1-.38-.03-.1-.14-.02-.21-.03,0-.01,0-.05,0-.1.02-.14-.02-.33-.11-.56-.01-.04-.18-.16-.22-.15.06-.07.1-.09.18-.07.03,0,.07.01.12-.02.13-.09.19-.27.18-.3-.07-.15-.22.01-.33-.01.13-.11.29-.17.38-.32-.09.02-.17.07-.27.09h0Z"/>
    <path class="cls-1" d="M234.01,8.9h0c.06,0,.13,0,.16-.02l.5-.14s.05-.02.06-.03c.1-.05.26-.23.21-.28-.06-.07.17-.25.24-.25h0c.03-.07.1-.22-.14-.27-.13,0-.22.02-.32.1.02.1-.02.15-.13.15h0c-.05,0-.09-.06-.14-.07-.03,0-.07,0-.1.04,0,0-.29.3-.07.32-.08.09-.19.15-.28.22-.05.04-.18.19.02.23h0Z"/>
    <path class="cls-1" d="M233.01,4.97c.09-.02.18-.07.28-.06-.41.31-.95.4-1.32.8,0,.01,0,.03,0,.05.08,0,.16-.04.24-.03-.2.15-.3.23-.31.25.16.03.54-.19.83-.38.3-.2,1.15-.5,1.15-.5.01,0,1.61-.25,1.63-.25h0c.11.02.75-.09.88-.19-.09-.06-.19-.07-.28-.14.15-.06.16-.06.23-.06.02.02.04.05.05.06.13-.06.14-.08.15-.13-.03,0-.06-.01-.08-.02.03,0,.08-.02.11,0-.01.04-.06.11-.16.23-.15.18.03.01.04.02.1.03.49-.15.41-.34.05-.03.29-.17.4-.11,0,.01,0,.03,0,.05.21-.08.4-.22.62-.27-.02.02-.05.05-.07.07.11-.03.28-.12.31-.14v-.05s.1-.04.14-.04c0,.01,0,.03,0,.04,0,0,.16-.02.27-.13h0c-1.73.13-3.39.47-4.98,1h0c-.3.14-.53.27-.55.29h0Z"/>
    <path class="cls-1" d="M234.78,5.74s.13,0,.14,0c.04,0,.04.01.05.04.02.05.04.09.13.08,0,0,.28-.04.32-.05.09-.02.18-.03.27-.06l.24-.1s.02-.01.02-.02c0,0,.19-.16.2-.23,0-.02,0-.03,0-.03-.03-.01-.06.01-.09.02-.04,0-.03-.05-.06-.05-.09,0-.15.07-.23.08,0,0,0,0,0,0,0-.03,0-.05-.02-.05-.04-.02-.08.01-.13,0-.03-.01-.04-.01-.08,0-.08.04-.12.06-.13.05.02-.05.07-.07.09-.12-.1-.1-.41.07-.43.09.03.02.07.03.11.02.06-.02.06-.02.07-.01,0,0-.09.18-.18.1-.05-.04-.08-.03-.16.02,0,.02.03.04.06.05.07.02.03.08-.02.08-.09,0-.16.02-.18.08h0Z"/>
    <path class="cls-1" d="M228.68,7.3h-.03c-.08.02-.27.13-.47.24-.04.02-.08.05-.11.07-.14.08-.27.18-.4.27-.09.05-.19.08-.27.15-.02.02-.06.05-.07.08l-.02.16c.04.08.12-.07.19-.03-.02.03-.02.04-.11.12-.08.08-.08.09-.08.1h0c.1-.02.17-.09.25-.14-.08.1-.19.19-.26.3,0,0,0,.01,0,.02.05,0,.14-.07.2-.13.09-.07.18-.16.2-.19h0s-.06.01-.07,0c0-.03.15-.22.33-.32.04-.02.21-.14.2-.18-.09-.03-.15.07-.23.07-.05,0,.03-.08.24-.23-.08.05-.1.05-.12.05,0,0,0,0,0,0,.06-.04.08-.05.25-.16.33-.2.36-.23.39-.26h0Z"/>
    <path class="cls-1" d="M221.99,34.54c-.04-.14,0-.28-.01-.43-.05-.5-.04-1-.07-1.49-.04-.54-.52-1.01-.26-1.6.04,0,.08,0,.11.01.3-.97.44-1.59.43-1.84-.06-1.42-.82-2.17-1.06-2.36-.03.01-.06.03-.09.05h-.03c-.04-.05-.09-.12-.13-.18-.03,0-.07,0-.1,0-.07-.09-.11-.19-.16-.28-.05.04-.11.1-.13.16-.22-.72-.35-1.1-.4-1.14-.03,0-.07.03-.1.04-.08-.13-.05-.29-.13-.42-.03.01-.07.03-.1.04-.01-.04-.03-.08-.05-.12.02-.04.05-.34.1-.91-.02-.02-.05-.05-.07-.08.04-.34.11-.9-.05-1.44-.17-.08-.26-.25-.3-.58-.1.83-.16,1.68-.16,2.54,0,3.64.94,7.07,2.59,10.05.03.02.06.05.08.07.02-.03.05-.06.07-.08h0Z"/>
    <path class="cls-1" d="M229.31,6.78s-.02-.03-.02-.04c-.06,0-.09,0-.12,0h0c-.36.22-.7.46-1.05.7.44-.09.54-.13.87-.36.25-.17.29-.25.32-.3h0Z"/>
    <path class="cls-1" d="M229.57,6.57s-.02-.03-.03-.04c0-.01.02-.02.03-.04t0,0c-.08.05-.17.09-.25.15h0c.09-.02.17-.03.25-.07h0Z"/>
    <path class="cls-1" d="M226.76,8.51s-.02,0-.07.02c-.02.02-.05.04-.07.06.03-.01.05-.03.08-.05.02,0,.04-.03.05-.04h0Z"/>
    <path class="cls-1" d="M246.93,44.25c.1.16.18.32.24.5.07.21.08.44.06.66,1.85-.63,3.59-1.51,5.18-2.58.04-.03.09-.05.13-.08,3.81-2.6,6.76-6.35,8.36-10.75-.46-.09-.8-.33-1.05-.64,0,0,0,0-.01-.02-1.13,3.25-3.05,6.14-5.52,8.43-.86.8-1.79,1.53-2.78,2.18-1.43.94-2.97,1.71-4.62,2.28,0,0,0,0,0,0Z"/>
    <path class="cls-1" d="M220.16,33.94c.16.33.32.66.49.98.01.02.02.05.04.07.2.37.41.73.63,1.08.05.07.09.14.14.21.17.28.36.55.55.82.06.09.13.18.19.27.18.26.38.51.57.76.06.08.12.16.18.23.25.31.51.61.77.91,0,0,0,.01.02.02.29.32.58.63.89.93.03.03.06.06.1.09.26.26.53.51.81.75.07.06.14.12.21.18.25.22.51.43.78.64.07.05.13.11.2.16.32.24.64.48.97.71,0,0,.01,0,.02.01h0c-.02-.36.06-.73.26-1.1.03-.05.06-.09.1-.14h0c-1.32-.94-2.53-2.04-3.6-3.26-.01-.01-.02-.03-.03-.04-.25-.28-.49-.58-.72-.88-.02-.02-.04-.05-.05-.07-.66-.86-1.26-1.77-1.78-2.72-1.65-2.98-2.59-6.41-2.59-10.05,0-.86.06-1.71.16-2.54.65-5.34,3.32-10.06,7.22-13.37.02-.02.05-.04.07-.06.46-.39.94-.75,1.43-1.1.34-.24.69-.48,1.05-.7.05-.03.1-.06.15-.1.08-.05.17-.1.25-.15,1.25-.74,2.59-1.35,3.99-1.81,1.58-.53,3.25-.87,4.98-1,.42-.03.84-.05,1.27-.06.05,0,.11,0,.16,0h.23c.5,0,1,.03,1.49.06.1,0,.21.01.31.02.5.05.99.11,1.48.18.05,0,.09.01.14.02,7.84,1.33,14.21,7.03,16.49,14.51.07-.15.16-.28.26-.4.19-.23.43-.41.71-.53h0s0,0,0-.01c-.37-1.09-.81-2.14-1.34-3.15h0c-.79-1.5-1.74-2.91-2.83-4.18-.02-.02-.04-.04-.05-.06-.71-.82-1.48-1.59-2.31-2.31-.04-.03-.07-.06-.1-.09-.41-.35-.83-.68-1.26-1-.03-.02-.06-.04-.08-.06-.42-.3-.85-.59-1.29-.87-.03-.02-.06-.04-.09-.06-.44-.27-.9-.53-1.36-.77-.07-.04-.15-.08-.23-.12-.92-.47-1.88-.88-2.87-1.22-.1-.03-.19-.07-.29-.1-.48-.16-.97-.3-1.46-.42-.08-.02-.17-.04-.25-.06-.45-.11-.91-.2-1.37-.28-.09-.02-.17-.03-.26-.05-.5-.08-1.02-.14-1.53-.19-.12,0-.24-.02-.36-.03-.52-.04-1.05-.06-1.58-.06h-.02c-12.19,0-22.1,9.92-22.1,22.1v.03c0,.42.02.84.04,1.26,0,.14.02.28.03.42.02.29.05.58.08.87.02.15.04.3.06.45.04.28.08.57.14.85.02.14.05.27.07.41.07.37.16.74.25,1.11,0,.04.02.07.03.11.1.4.22.8.35,1.19.04.11.07.22.11.33.28.83.6,1.64.97,2.42h0Z"/>
  </g>
</svg>