<svg width="75" height="50" viewBox="0 0 75 50" fill="none" xmlns="http://www.w3.org/2000/svg">
<g clip-path="url(#clip0_1181_68640)">
<path d="M38.045 49.3337C58.2103 49.3337 74.5575 38.7407 74.5575 25.6737C74.5575 12.6066 58.2103 2.01367 38.045 2.01367C17.8797 2.01367 1.53247 12.6066 1.53247 25.6737C1.53247 38.7407 17.8797 49.3337 38.045 49.3337Z" fill="white"/>
<path d="M61.27 7.41626C66.3975 10.0113 71.18 13.885 73.5762 19.2488C76.5887 25.9688 74.5975 33.1238 69.6975 38.3475C57.1688 51.2975 33.8025 52.8588 17.8575 45.9625C11.9887 43.3913 6.3625 39.4 3.34625 33.595C1.54875 30.1725 0.938747 26.09 1.89375 22.3275C1.52 24.2075 1.55375 26.1488 1.855 28.03C2.86125 33.7088 6.93375 38.3188 11.6012 41.4413C25.8 50.785 47.4612 51.005 62.175 42.6875C78.8225 32.9913 77.5737 16.6538 61.27 7.41626Z" fill="#0D5A2F"/>
<path d="M71.6075 22.2887C71.6075 25.09 70.78 27.77 69.26 30.2388C69.175 30.1912 69.09 30.1475 69.0025 30.0987C65.1562 27.4837 60.115 26.6338 52.6875 26.79C44.6312 26.77 19.9925 30.5513 19.405 42.1087C7.88 38.4025 0 30.9188 0 22.2887C0 9.97625 16.03 0 35.8063 0C55.5825 0 71.6087 9.97625 71.6087 22.2887H71.6075Z" fill="#08783D"/>
<path d="M12.9162 22.6213C12.1375 22.6213 11.4087 22.495 10.73 22.2413C10.0512 21.9875 9.45999 21.6213 8.95624 21.14C8.46249 20.6688 8.07249 20.0875 7.78874 19.3925C7.50499 18.6988 7.36249 17.9363 7.36249 17.1038C7.36249 16.2713 7.50624 15.5113 7.79249 14.8088C8.07874 14.105 8.48249 13.495 9.00124 12.9788C9.50999 12.4725 10.1212 12.0813 10.835 11.8025C11.5487 11.525 12.3125 11.385 13.1262 11.385C13.715 11.385 14.2512 11.4575 14.7362 11.6025C15.22 11.7475 15.63 11.91 15.9637 12.09L16.4275 11.6775H17.0787L17.1462 15.565H16.4875C16.1137 14.3763 15.665 13.5038 15.1412 12.9475C14.6175 12.3913 13.98 12.1125 13.2275 12.1125C12.29 12.1125 11.5775 12.5275 11.0887 13.3563C10.6 14.1863 10.3562 15.35 10.3562 16.8475C10.3562 17.695 10.44 18.4175 10.6062 19.0163C10.7725 19.615 10.9912 20.0975 11.2612 20.4625C11.55 20.8438 11.8912 21.1225 12.285 21.3C12.6787 21.4775 13.115 21.5675 13.5937 21.5675C14.2912 21.5675 14.9137 21.3775 15.4587 20.9975C16.005 20.6175 16.5012 20.0413 16.95 19.2713L17.5937 19.6613C17.3787 20.1013 17.135 20.4963 16.86 20.8438C16.585 21.1913 16.2687 21.49 15.9087 21.74C15.5137 22.015 15.0787 22.23 14.6025 22.385C14.125 22.54 13.5625 22.6175 12.915 22.6175L12.9162 22.6213Z" fill="white"/>
<path d="M27.9638 22.3274H23.4638V21.7799C23.5638 21.7699 23.6813 21.7574 23.8163 21.7424C23.9513 21.7274 24.0513 21.7024 24.1163 21.6674C24.2213 21.6124 24.295 21.5324 24.3375 21.4274C24.38 21.3224 24.4013 21.1674 24.4013 20.9624V17.4499C24.4013 16.9349 24.305 16.5499 24.1125 16.2949C23.92 16.0399 23.6463 15.9124 23.2925 15.9124C23.0925 15.9124 22.9075 15.9424 22.735 16.0024C22.5625 16.0624 22.395 16.1499 22.23 16.2649C22.085 16.3649 21.9688 16.4674 21.8813 16.5724C21.7938 16.6774 21.72 16.7699 21.66 16.8499V20.8799C21.66 21.0649 21.6825 21.2112 21.7275 21.3187C21.7725 21.4262 21.8575 21.5149 21.9825 21.5849C22.0575 21.6299 22.1563 21.6699 22.2775 21.7049C22.4 21.7399 22.5188 21.7649 22.6338 21.7799V22.3274H18.0675V21.7799C18.1975 21.7699 18.325 21.7574 18.4475 21.7424C18.57 21.7274 18.68 21.7024 18.775 21.6674C18.9363 21.6074 19.045 21.5212 19.1025 21.4087C19.16 21.2962 19.1888 21.1474 19.1888 20.9624V12.5949C19.1888 12.4349 19.1513 12.2649 19.0763 12.0849C19.0013 11.9049 18.8963 11.7699 18.7625 11.6799C18.6625 11.6149 18.5175 11.5637 18.3288 11.5262C18.14 11.4887 17.9688 11.4649 17.82 11.4549V10.9074L21.5475 10.7124L21.66 10.8324V15.9949H21.69C21.88 15.8249 22.05 15.6712 22.2025 15.5337C22.355 15.3962 22.54 15.2574 22.76 15.1174C22.9438 14.9974 23.185 14.8949 23.4813 14.8099C23.7775 14.7249 24.0975 14.6824 24.4425 14.6824C25.25 14.6824 25.8563 14.9149 26.2625 15.3799C26.6688 15.8449 26.8725 16.4587 26.8725 17.2187V20.8962C26.8725 21.0812 26.9 21.2287 26.955 21.3387C27.01 21.4487 27.1125 21.5362 27.2625 21.6012C27.3525 21.6412 27.4525 21.6762 27.5625 21.7062C27.6725 21.7362 27.8075 21.7612 27.9675 21.7812V22.3287L27.9638 22.3274Z" fill="white"/>
<path d="M37.2087 22.17C36.99 22.265 36.73 22.3525 36.4312 22.4325C36.1325 22.5125 35.8162 22.5525 35.4825 22.5525C34.87 22.5525 34.4187 22.4612 34.13 22.2787C33.8412 22.0962 33.645 21.835 33.54 21.495H33.495C33.325 21.665 33.1612 21.81 33.0037 21.93C32.8462 22.05 32.6775 22.1525 32.4975 22.2375C32.2625 22.3475 32.0362 22.43 31.8187 22.485C31.6012 22.54 31.2975 22.5675 30.9075 22.5675C30.3275 22.5675 29.8325 22.3962 29.4225 22.0525C29.0125 21.71 28.8075 21.255 28.8075 20.6887C28.8075 20.3625 28.8525 20.0862 28.9425 19.8587C29.0325 19.6312 29.16 19.4287 29.325 19.2537C29.475 19.0937 29.6487 18.96 29.8462 18.855C30.0437 18.75 30.26 18.6525 30.495 18.5625C30.945 18.3975 31.485 18.225 32.115 18.0475C32.7437 17.87 33.205 17.7112 33.4937 17.57V16.85C33.4937 16.725 33.4837 16.56 33.4637 16.355C33.4437 16.15 33.4012 15.9775 33.3362 15.8375C33.2662 15.6775 33.1562 15.5425 33.0062 15.4325C32.8562 15.3225 32.66 15.2675 32.415 15.2675C32.195 15.2675 32.0112 15.2987 31.865 15.3612C31.7187 15.4237 31.5987 15.4875 31.51 15.5525C31.525 15.6525 31.5675 15.805 31.6375 16.01C31.7075 16.215 31.7425 16.4125 31.7425 16.6025C31.7425 16.6875 31.72 16.7937 31.675 16.9212C31.63 17.0487 31.565 17.15 31.48 17.225C31.365 17.325 31.2362 17.4025 31.0937 17.4575C30.9512 17.5125 30.7325 17.54 30.4362 17.54C30.0162 17.54 29.6987 17.4387 29.4825 17.2362C29.2662 17.0337 29.16 16.77 29.16 16.445C29.16 16.165 29.2712 15.9137 29.4937 15.6912C29.7162 15.4687 29.9862 15.285 30.3062 15.14C30.62 14.99 30.9825 14.8737 31.3912 14.7912C31.8 14.7087 32.18 14.6675 32.5287 14.6675C33.0125 14.6675 33.4575 14.6962 33.8612 14.7537C34.265 14.8112 34.63 14.93 34.9537 15.11C35.2637 15.285 35.5087 15.5387 35.6912 15.8712C35.8737 16.2037 35.9637 16.6375 35.9637 17.1737C35.9637 17.7387 35.9525 18.41 35.93 19.185C35.9075 19.96 35.8962 20.4712 35.8962 20.7162C35.8962 20.9412 35.93 21.1187 35.9975 21.2487C36.065 21.3787 36.1687 21.4762 36.3087 21.5412C36.3937 21.5812 36.5275 21.605 36.7087 21.6125C36.89 21.62 37.0575 21.6237 37.2062 21.6237V22.1712L37.2087 22.17ZM33.495 18.26C33.215 18.355 32.9362 18.465 32.6612 18.5875C32.3862 18.71 32.16 18.8387 31.985 18.975C31.8 19.115 31.655 19.295 31.5487 19.5125C31.4425 19.73 31.3912 19.9875 31.3912 20.2837C31.3912 20.675 31.48 20.9587 31.6575 21.1337C31.835 21.3087 32.0537 21.3975 32.315 21.3975C32.59 21.3975 32.8175 21.3412 32.995 21.2287C33.1725 21.1162 33.33 20.9762 33.465 20.8112L33.495 18.2612V18.26Z" fill="white"/>
<path d="M52.6525 22.3274H48.2063V21.7799C48.315 21.7649 48.4288 21.7524 48.5475 21.7424C48.6663 21.7324 48.765 21.7074 48.845 21.6674C48.9538 21.6174 49.0225 21.5337 49.0525 21.4162C49.0825 21.2987 49.0975 21.1474 49.0975 20.9624V17.4574C49.0975 16.9424 49.0063 16.5562 48.8238 16.2974C48.6413 16.0399 48.3788 15.9112 48.0388 15.9112C47.8238 15.9112 47.6325 15.9449 47.465 16.0124C47.2975 16.0799 47.1425 16.1637 47.0038 16.2637C46.8588 16.3687 46.7463 16.4737 46.6663 16.5787C46.5863 16.6837 46.5188 16.7737 46.4638 16.8487V20.8787C46.4638 21.0587 46.485 21.2049 46.5263 21.3174C46.5675 21.4299 46.6463 21.5187 46.76 21.5837C46.8388 21.6287 46.93 21.6687 47.0313 21.7037C47.1325 21.7387 47.24 21.7637 47.3538 21.7787V22.3262H43.1013V21.7787C43.195 21.7687 43.3088 21.7562 43.4425 21.7412C43.5763 21.7262 43.675 21.7012 43.74 21.6662C43.8438 21.6112 43.9113 21.5312 43.9438 21.4262C43.9763 21.3212 43.9925 21.1662 43.9925 20.9612V17.4562C43.9925 16.9412 43.9013 16.5549 43.7188 16.2962C43.5363 16.0374 43.275 15.9099 42.9338 15.9099C42.7188 15.9099 42.5275 15.9437 42.3588 16.0112C42.1913 16.0787 42.0375 16.1624 41.8975 16.2624C41.7525 16.3674 41.64 16.4724 41.56 16.5774C41.48 16.6824 41.4125 16.7724 41.3575 16.8474V20.8774C41.3575 21.0524 41.38 21.1974 41.425 21.3124C41.47 21.4274 41.55 21.5174 41.665 21.5824C41.745 21.6274 41.8363 21.6674 41.9388 21.7024C42.0413 21.7374 42.15 21.7624 42.2638 21.7774V22.3249H37.78V21.7774C37.91 21.7674 38.0375 21.7549 38.1613 21.7399C38.2863 21.7249 38.3938 21.6999 38.4838 21.6649C38.6438 21.6049 38.7538 21.5187 38.8125 21.4062C38.8725 21.2937 38.9025 21.1449 38.9025 20.9599V16.5924C38.9025 16.4324 38.86 16.2762 38.775 16.1237C38.69 15.9712 38.5875 15.8524 38.4675 15.7674C38.3775 15.7074 38.2638 15.6574 38.1263 15.6174C37.9888 15.5774 37.8375 15.5499 37.6738 15.5349V14.9874L41.245 14.7924L41.3575 14.9049V15.9624H41.3875C41.5275 15.8374 41.6938 15.6887 41.885 15.5162C42.0763 15.3437 42.2575 15.2049 42.4275 15.0999C42.6125 14.9799 42.85 14.8799 43.1388 14.7999C43.4275 14.7199 43.745 14.6799 44.09 14.6799C44.6588 14.6799 45.1338 14.8037 45.5163 15.0512C45.8988 15.2987 46.1688 15.6274 46.3288 16.0374H46.3963C46.5413 15.9024 46.7188 15.7437 46.9275 15.5612C47.1375 15.3787 47.3288 15.2324 47.5038 15.1224C47.6988 14.9974 47.9463 14.8924 48.2488 14.8074C48.55 14.7224 48.8738 14.6799 49.2175 14.6799C49.9713 14.6799 50.5513 14.9024 50.9588 15.3474C51.365 15.7924 51.5688 16.4249 51.5688 17.2462V20.8937C51.5688 21.0787 51.5963 21.2274 51.6513 21.3399C51.7063 21.4524 51.805 21.5387 51.9513 21.5987C52.0313 21.6337 52.13 21.6687 52.2463 21.7037C52.3638 21.7387 52.4988 21.7637 52.6538 21.7787V22.3262L52.6525 22.3274Z" fill="white"/>
<path d="M56.8225 22.5824C56.3387 22.5824 55.865 22.5111 55.4037 22.3686C54.9425 22.2261 54.5837 22.0749 54.3287 21.9149L54.1037 22.4249H53.52L53.4225 19.6261H53.9687C54.0437 19.8511 54.1687 20.1049 54.3425 20.3874C54.5162 20.6699 54.7162 20.9236 54.9412 21.1486C55.1762 21.3736 55.4437 21.5636 55.7462 21.7186C56.0475 21.8736 56.3712 21.9511 56.7162 21.9511C57.17 21.9511 57.5087 21.8624 57.73 21.6849C57.9512 21.5074 58.0637 21.2336 58.0637 20.8636C58.0637 20.6636 58.0137 20.4986 57.9137 20.3686C57.8137 20.2386 57.6762 20.1261 57.5012 20.0311C57.3062 19.9311 57.0937 19.8461 56.8612 19.7761C56.63 19.7061 56.3437 19.6211 56.0037 19.5211C55.665 19.4211 55.3737 19.3199 55.1325 19.2174C54.89 19.1149 54.64 18.9536 54.38 18.7336C54.155 18.5386 53.9762 18.3036 53.8412 18.0286C53.7062 17.7536 53.6387 17.4261 53.6387 17.0461C53.6387 16.3411 53.935 15.7699 54.5262 15.3349C55.1175 14.8999 55.8925 14.6824 56.85 14.6824C57.305 14.6824 57.7225 14.7286 58.1037 14.8211C58.485 14.9136 58.8062 15.0149 59.0662 15.1249L59.2237 14.6824H59.7925L59.9125 17.2411H59.3887C59.2137 16.7211 58.915 16.2724 58.49 15.8949C58.0662 15.5174 57.6087 15.3286 57.12 15.3286C56.7362 15.3286 56.4337 15.4086 56.2137 15.5686C55.9937 15.7286 55.8837 15.9511 55.8837 16.2361C55.8837 16.6161 56.045 16.8911 56.3662 17.0611C56.6875 17.2311 57.1375 17.3911 57.715 17.5411C58.6075 17.7711 59.26 18.0849 59.6737 18.4836C60.0875 18.8811 60.2937 19.3874 60.2937 20.0036C60.2937 20.8236 59.9725 21.4599 59.3312 21.9099C58.69 22.3599 57.8525 22.5849 56.82 22.5849L56.8225 22.5824Z" fill="white"/>
<path d="M33.735 37.5786H30.755L29.9862 39.0348H28.4375L32.625 31.5073H33.5863L35.6375 39.0348H34.0887L33.7363 37.5786H33.735ZM32.805 33.6273L31.33 36.3686H33.4987L32.805 33.6273Z" fill="#A92F34"/>
<path d="M36.3225 35.7899C36.3225 33.3587 37.9037 31.3987 40.4675 31.3987C41.76 31.3987 42.465 31.7737 42.9675 32.1374L42.155 33.3162C41.8237 33.0587 41.3225 32.7599 40.435 32.7599C38.8962 32.7599 37.8812 33.9274 37.8812 35.6399C37.8812 36.9037 38.6725 37.7812 39.9537 37.7812C40.8187 37.7812 41.3425 37.4487 41.5887 37.2462L42.1762 38.3387C41.845 38.6274 41.0537 39.1312 39.8362 39.1312C37.6675 39.1312 36.3212 37.6749 36.3212 35.7899H36.3225Z" fill="#A92F34"/>
<path d="M42.9463 35.7899C42.9463 33.3587 44.5275 31.3987 47.0913 31.3987C48.3838 31.3987 49.0888 31.7737 49.5913 32.1374L48.7788 33.3162C48.4475 33.0587 47.9463 32.7599 47.0588 32.7599C45.52 32.7599 44.505 33.9274 44.505 35.6399C44.505 36.9037 45.2963 37.7812 46.5775 37.7812C47.4425 37.7812 47.9663 37.4487 48.2125 37.2462L48.8 38.3387C48.4688 38.6274 47.6788 39.1312 46.46 39.1312C44.2913 39.1312 42.945 37.6749 42.945 35.7899H42.9463Z" fill="#A92F34"/>
<path d="M52.0387 32.8123L51.7937 34.5798H54.8387L54.6575 35.8861H51.6125L51.3562 37.7386H54.8387L54.6575 39.0348H49.7012L50.7587 31.5073H55.6837L55.5025 32.8136H52.0412L52.0387 32.8123Z" fill="#A92F34"/>
<path d="M55.5438 38.2211L56.3025 37.0974C56.965 37.6011 57.595 37.8474 58.3638 37.8474C59.1325 37.8474 59.625 37.5261 59.625 36.8624C59.625 36.2949 59.2613 36.0486 58.3325 35.7811C57.1788 35.3961 56.4638 34.8499 56.4638 33.7361C56.4638 32.3111 57.6488 31.4124 59.3375 31.4124C60.3738 31.4124 61.1638 31.7236 61.7088 32.1836L60.94 33.2436C60.4063 32.9011 59.915 32.6974 59.21 32.6974C58.505 32.6974 57.9813 32.9549 57.9813 33.5436C57.9813 34.0361 58.3763 34.2511 59.2638 34.5286C60.3963 34.8924 61.1225 35.4174 61.1225 36.6811C61.1225 38.1586 60.0438 39.1336 58.27 39.1336C57.0838 39.1336 56.2088 38.7911 55.5463 38.2236L55.5438 38.2211Z" fill="#A92F34"/>
<path d="M61.5912 38.2211L62.35 37.0974C63.0125 37.6011 63.6425 37.8474 64.4112 37.8474C65.18 37.8474 65.6725 37.5261 65.6725 36.8624C65.6725 36.2949 65.31 36.0486 64.38 35.7811C63.2262 35.3961 62.51 34.8499 62.51 33.7361C62.51 32.3111 63.6962 31.4124 65.3837 31.4124C66.42 31.4124 67.21 31.7236 67.755 32.1836L66.9862 33.2436C66.4525 32.9011 65.9612 32.6974 65.255 32.6974C64.5487 32.6974 64.0262 32.9549 64.0262 33.5436C64.0262 34.0361 64.4212 34.2511 65.3087 34.5286C66.4412 34.8924 67.1675 35.4174 67.1675 36.6811C67.1675 38.1586 66.0887 39.1336 64.315 39.1336C63.1287 39.1336 62.2537 38.7911 61.5912 38.2236V38.2211Z" fill="#A92F34"/>
</g>
<defs>
<clipPath id="clip0_1181_68640">
<rect width="75" height="50" fill="white"/>
</clipPath>
</defs>
</svg>
