<?xml version="1.0" encoding="utf-8"?>
<!-- Generator: Adobe Illustrator 19.0.0, SVG Export Plug-In . SVG Version: 6.00 Build 0)  -->
<svg version="1.1" xmlns="http://www.w3.org/2000/svg" xmlns:xlink="http://www.w3.org/1999/xlink" x="0px" y="0px" width="350px" height="61px"
	 viewBox="0 0 248 41" style="enable-background:new 0 0 248 41;" xml:space="preserve">
<style type="text/css">
	.st0{fill:#3FD3BB;}
	.st1{fill:#171821;}
</style>
<g id="Layer_1">
</g>
<g id="Layer_2">
	<g id="XMLID_1_">
		<g id="XMLID_31_">
			<path id="XMLID_32_" class="st0" d="M29.6,34.3c-1.3,0.9-2.8,1.6-4.3,2.1c-1.6,0.5-3.2,0.7-4.9,0.7c-2.3,0-4.5-0.5-6.5-1.3
				c-3-1.3-5.5-3.4-7.3-6C5.7,28.5,5,27,4.5,25.4c-0.5-1.6-0.7-3.2-0.7-4.9C3.7,18.2,4.2,16,5,14c1.3-3,3.4-5.5,6-7.3
				c1.3-0.9,2.8-1.6,4.3-2.1c1.6-0.5,3.2-0.7,4.9-0.7c2.3,0,4.5,0.5,6.5,1.3c2.5,1,4.6,2.7,6.3,4.7L36.4,8c-1.3-1.7-2.9-3.2-4.7-4.4
				c-1.6-1.1-3.4-2-5.3-2.6c-1.9-0.6-3.9-0.9-6-0.9c-2.8,0-5.5,0.6-7.9,1.6C8.8,3.3,5.7,5.9,3.5,9.1c-1.1,1.6-2,3.4-2.6,5.3
				c-0.6,1.9-0.9,3.9-0.9,6c0,2.8,0.6,5.5,1.6,7.9c1.5,3.6,4.1,6.7,7.4,8.9c1.6,1.1,3.4,2,5.3,2.6c1.9,0.6,3.9,0.9,6,0.9
				c2.8,0,5.5-0.6,7.9-1.6c3-1.3,5.6-3.2,7.6-5.6l-3-2.3C31.9,32.5,30.8,33.4,29.6,34.3z"/>
			<g id="XMLID_33_">
				<path id="XMLID_34_" class="st1" d="M14.4,11.6c0.9-0.6,1.8-1,2.8-1.3c0.5-0.2,1-0.3,1.6-0.4v2.4c0.5-0.1,1.1-0.2,1.6-0.2
					c0.5,0,1.1,0.1,1.6,0.2V7.2V7c-0.5-0.1-1.1-0.1-1.6-0.1c-1.9,0-3.7,0.4-5.3,1.1c-2.4,1-4.5,2.8-6,4.9c-0.7,1.1-1.3,2.3-1.7,3.6
					c-0.4,1.3-0.6,2.6-0.6,4c0,1.9,0.4,3.7,1.1,5.3c1,2.4,2.8,4.5,4.9,6c0.9,0.6,1.8,1.1,2.8,1.4V30c-1.6-0.8-3-2.1-4-3.6
					c-0.6-0.9-1-1.8-1.3-2.8c-0.3-1-0.5-2.1-0.5-3.2c0-1.5,0.3-2.9,0.8-4.2C11.3,14.4,12.6,12.8,14.4,11.6z"/>
				<path id="XMLID_35_" class="st1" d="M32.8,15.2c-1-2.4-2.8-4.5-4.9-6c-0.9-0.6-1.8-1.1-2.8-1.4V11c1.6,0.8,3,2.1,4,3.6
					c0.6,0.9,1,1.8,1.3,2.8c0.3,1,0.5,2.1,0.5,3.2c0,1.5-0.3,2.9-0.8,4.2c-0.8,1.9-2.2,3.5-3.9,4.7c-0.9,0.6-1.8,1-2.8,1.3
					c-0.5,0.2-1,0.3-1.6,0.4v-2.4c-0.5,0.1-1.1,0.2-1.6,0.2c-0.5,0-1.1-0.1-1.6-0.2v5.1V34c0.5,0.1,1.1,0.1,1.6,0.1
					c1.9,0,3.7-0.4,5.3-1.1c2.4-1,4.5-2.8,6-4.9c0.7-1.1,1.3-2.3,1.7-3.6c0.4-1.3,0.6-2.6,0.6-4C33.9,18.6,33.5,16.8,32.8,15.2z"/>
			</g>
			<path id="XMLID_36_" class="st0" d="M20.7,12.2c-4.6-0.2-8.5,3.3-8.7,7.9c-0.2,4.6,3.3,8.5,7.9,8.7c4.6,0.2,8.5-3.3,8.7-7.9
				C28.9,16.3,25.3,12.4,20.7,12.2z M23.5,23.2c-0.2,0.4-0.4,0.7-0.7,0.9c-0.6,0.5-1.4,0.8-2.3,0.8c-0.7,0-1.4-0.1-2-0.4
				c-0.6-0.3-1-0.7-1.3-1.3c-0.2-0.4-0.3-0.8-0.4-1.2l0-0.4h1.9l0.1,0.3c0.1,0.5,0.3,0.8,0.6,1.1c0.3,0.2,0.7,0.4,1.1,0.4
				c0.3,0,0.6-0.1,0.8-0.2c0.2-0.1,0.4-0.3,0.5-0.4c0.1-0.1,0.1-0.3,0.1-0.4c0-0.2,0-0.4-0.1-0.6c-0.1-0.1-0.2-0.3-0.3-0.4
				c-0.1-0.1-0.3-0.2-0.4-0.2c-0.2-0.1-0.5-0.2-0.9-0.3l0,0c-0.6-0.1-1.1-0.3-1.6-0.6c-0.5-0.3-0.8-0.6-1.1-1.1
				c-0.1-0.3-0.2-0.7-0.2-1.1c0-0.4,0.1-0.8,0.3-1.2c0.2-0.3,0.4-0.6,0.7-0.9c0.6-0.5,1.4-0.7,2.2-0.7c0.7,0,1.3,0.2,1.8,0.5
				c0.5,0.3,0.9,0.8,1.1,1.3c0.2,0.3,0.3,0.7,0.3,1.1l0,0.4h-1.9l0-0.4c0-0.4-0.1-0.6-0.3-0.8c-0.1-0.2-0.3-0.3-0.6-0.4
				c-0.2-0.1-0.4-0.1-0.6-0.1c-0.3,0-0.5,0.1-0.7,0.1c-0.2,0.1-0.3,0.2-0.4,0.4c-0.1,0.1-0.1,0.2-0.1,0.4c0,0.2,0,0.4,0.1,0.5
				c0.1,0.1,0.1,0.2,0.3,0.3c0.1,0.1,0.2,0.1,0.4,0.2c0.2,0.1,0.5,0.2,0.8,0.2l0,0c0.7,0.2,1.3,0.4,1.8,0.7c0.5,0.3,0.9,0.7,1.1,1.2
				c0.1,0.3,0.2,0.7,0.2,1.1C23.8,22.5,23.7,22.9,23.5,23.2z"/>
		</g>
		<g id="XMLID_39_">
			<path id="XMLID_40_" class="st1" d="M54,23.9c0,0.6-0.1,1.2-0.4,1.9c-0.3,0.7-0.7,1.3-1.4,2c-0.6,0.7-1.4,1.2-2.4,1.6
				c-1,0.4-2.1,0.6-3.3,0.6c-1,0-1.8-0.1-2.6-0.3c-0.8-0.2-1.5-0.5-2.2-0.9c-0.6-0.4-1.2-0.9-1.8-1.5c-0.5-0.6-0.9-1.2-1.2-1.9
				c-0.3-0.7-0.6-1.5-0.8-2.3c-0.2-0.8-0.3-1.7-0.3-2.6c0-1.5,0.2-2.8,0.6-4c0.4-1.2,1-2.2,1.8-3c0.8-0.8,1.7-1.5,2.8-1.9
				c1.1-0.4,2.2-0.6,3.4-0.6c1.5,0,2.8,0.3,4,0.9c1.2,0.6,2,1.3,2.7,2.2c0.6,0.9,0.9,1.7,0.9,2.5c0,0.4-0.1,0.8-0.4,1.1
				c-0.3,0.3-0.7,0.5-1.1,0.5c-0.5,0-0.8-0.1-1.1-0.3c-0.2-0.2-0.5-0.6-0.8-1.2c-0.5-0.9-1.1-1.6-1.7-2c-0.7-0.4-1.5-0.7-2.4-0.7
				c-1.5,0-2.7,0.6-3.6,1.7c-0.9,1.2-1.4,2.8-1.4,4.9c0,1.4,0.2,2.6,0.6,3.5c0.4,0.9,1,1.6,1.7,2.1c0.7,0.5,1.6,0.7,2.6,0.7
				c1.1,0,2-0.3,2.7-0.8c0.7-0.5,1.3-1.3,1.7-2.3c0.2-0.5,0.4-0.9,0.6-1.2c0.2-0.3,0.6-0.5,1.1-0.5c0.4,0,0.8,0.2,1.1,0.5
				C53.8,23,54,23.4,54,23.9z"/>
			<path id="XMLID_42_" class="st1" d="M65.3,11c1.9,0,3.5,0.4,4.9,1.2c1.4,0.8,2.4,1.9,3.1,3.3c0.7,1.4,1,3.1,1,5
				c0,1.4-0.2,2.7-0.6,3.9c-0.4,1.2-1,2.2-1.7,3c-0.8,0.8-1.7,1.5-2.8,1.9c-1.1,0.4-2.4,0.7-3.8,0.7c-1.4,0-2.7-0.2-3.8-0.7
				c-1.1-0.5-2.1-1.1-2.8-2c-0.8-0.8-1.3-1.9-1.7-3c-0.4-1.2-0.6-2.5-0.6-3.8c0-1.4,0.2-2.7,0.6-3.9c0.4-1.2,1-2.2,1.8-3
				c0.8-0.8,1.7-1.5,2.8-1.9C62.7,11.3,63.9,11,65.3,11z M70.6,20.5c0-1.3-0.2-2.5-0.6-3.5c-0.4-1-1.1-1.7-1.9-2.2
				c-0.8-0.5-1.7-0.8-2.8-0.8c-0.7,0-1.4,0.1-2.1,0.4c-0.6,0.3-1.2,0.7-1.6,1.2c-0.5,0.5-0.8,1.2-1.1,2c-0.3,0.8-0.4,1.8-0.4,2.8
				c0,1,0.1,2,0.4,2.8c0.3,0.8,0.6,1.5,1.1,2.1c0.5,0.6,1,1,1.6,1.2c0.6,0.3,1.3,0.4,2,0.4c0.9,0,1.8-0.2,2.6-0.7
				c0.8-0.5,1.4-1.2,1.9-2.2C70.4,23.1,70.6,21.9,70.6,20.5z"/>
			<path id="XMLID_45_" class="st1" d="M77.7,27.7V13.3c0-0.7,0.2-1.3,0.5-1.7c0.3-0.4,0.8-0.6,1.3-0.6c0.6,0,1,0.2,1.4,0.6
				c0.3,0.4,0.5,0.9,0.5,1.7v14.4c0,0.8-0.2,1.3-0.5,1.7c-0.3,0.4-0.8,0.6-1.4,0.6c-0.5,0-1-0.2-1.3-0.6
				C77.8,29,77.7,28.4,77.7,27.7z"/>
			<path id="XMLID_47_" class="st1" d="M90.4,13.3L97.5,24V13.2c0-0.7,0.2-1.2,0.5-1.6c0.3-0.4,0.7-0.5,1.2-0.5c0.5,0,1,0.2,1.3,0.5
				c0.3,0.4,0.5,0.9,0.5,1.6v14.4c0,1.6-0.7,2.4-2,2.4c-0.3,0-0.6,0-0.9-0.1c-0.3-0.1-0.5-0.2-0.7-0.5c-0.2-0.2-0.4-0.5-0.6-0.7
				c-0.2-0.3-0.4-0.6-0.6-0.9l-7-10.7v10.7c0,0.7-0.2,1.2-0.5,1.6c-0.3,0.4-0.7,0.5-1.2,0.5c-0.5,0-0.9-0.2-1.3-0.5
				c-0.3-0.4-0.5-0.9-0.5-1.6V13.7c0-0.6,0.1-1.1,0.2-1.4c0.2-0.4,0.4-0.7,0.8-0.9c0.4-0.2,0.8-0.4,1.2-0.4c0.3,0,0.6,0.1,0.9,0.2
				c0.2,0.1,0.4,0.3,0.6,0.4c0.2,0.2,0.4,0.4,0.5,0.7C90,12.6,90.2,12.9,90.4,13.3z"/>
			<path id="XMLID_49_" class="st1" d="M109.8,13.3l7.1,10.8V13.2c0-0.7,0.2-1.2,0.5-1.6c0.3-0.4,0.7-0.5,1.2-0.5
				c0.5,0,1,0.2,1.3,0.5c0.3,0.4,0.5,0.9,0.5,1.6v14.4c0,1.6-0.7,2.4-2,2.4c-0.3,0-0.6,0-0.9-0.1c-0.3-0.1-0.5-0.2-0.7-0.5
				c-0.2-0.2-0.4-0.5-0.6-0.7c-0.2-0.3-0.4-0.6-0.6-0.9l-7-10.7v10.7c0,0.7-0.2,1.2-0.5,1.6c-0.3,0.4-0.7,0.5-1.2,0.5
				c-0.5,0-0.9-0.2-1.3-0.5c-0.3-0.4-0.5-0.9-0.5-1.6V13.7c0-0.6,0.1-1.1,0.2-1.4c0.2-0.4,0.4-0.7,0.8-0.9c0.4-0.2,0.8-0.4,1.2-0.4
				c0.3,0,0.6,0.1,0.9,0.2c0.2,0.1,0.4,0.3,0.6,0.4c0.2,0.2,0.4,0.4,0.5,0.7C109.4,12.6,109.6,12.9,109.8,13.3z"/>
			<path id="XMLID_51_" class="st1" d="M136.4,14.2h-8.3v4.5h7.7c0.6,0,1,0.1,1.3,0.4c0.3,0.3,0.4,0.6,0.4,1c0,0.4-0.1,0.8-0.4,1
				c-0.3,0.3-0.7,0.4-1.3,0.4h-7.7v5.2h8.6c0.6,0,1,0.1,1.3,0.4c0.3,0.3,0.4,0.6,0.4,1.1c0,0.4-0.1,0.8-0.4,1.1
				c-0.3,0.3-0.7,0.4-1.3,0.4h-10.1c-0.8,0-1.4-0.2-1.7-0.5c-0.4-0.4-0.5-0.9-0.5-1.7V13.6c0-0.5,0.1-1,0.2-1.3
				c0.2-0.3,0.4-0.6,0.7-0.7c0.3-0.2,0.8-0.2,1.3-0.2h9.8c0.6,0,1,0.1,1.3,0.4c0.3,0.3,0.4,0.6,0.4,1c0,0.4-0.1,0.8-0.4,1
				C137.4,14.1,137,14.2,136.4,14.2z"/>
			<path id="XMLID_53_" class="st1" d="M154.4,26.8l-3-11l-3,11c-0.2,0.8-0.4,1.4-0.6,1.8s-0.4,0.7-0.7,1c-0.3,0.3-0.8,0.4-1.4,0.4
				c-0.5,0-0.8-0.1-1.1-0.3c-0.3-0.2-0.5-0.4-0.7-0.7c-0.2-0.3-0.3-0.7-0.4-1.1c-0.1-0.4-0.2-0.8-0.3-1.2l-3-12.3
				c-0.2-0.7-0.3-1.3-0.3-1.6c0-0.5,0.2-0.9,0.5-1.2c0.3-0.3,0.7-0.5,1.2-0.5c0.7,0,1.1,0.2,1.4,0.6c0.2,0.4,0.4,1.1,0.6,1.9
				l2.4,10.7l2.7-10c0.2-0.8,0.4-1.3,0.5-1.7c0.2-0.4,0.4-0.7,0.8-1c0.4-0.3,0.8-0.4,1.5-0.4c0.6,0,1.1,0.2,1.5,0.5
				c0.3,0.3,0.6,0.6,0.7,1c0.1,0.4,0.3,0.9,0.5,1.8l2.7,10l2.4-10.7c0.1-0.6,0.2-1,0.3-1.3c0.1-0.3,0.3-0.6,0.5-0.8
				c0.3-0.2,0.6-0.4,1.1-0.4c0.5,0,0.9,0.2,1.2,0.5c0.3,0.3,0.5,0.7,0.5,1.2c0,0.3-0.1,0.9-0.3,1.6l-3,12.3
				c-0.2,0.8-0.4,1.4-0.5,1.8c-0.1,0.4-0.4,0.7-0.7,1c-0.3,0.3-0.8,0.4-1.4,0.4c-0.6,0-1-0.1-1.4-0.4c-0.3-0.3-0.6-0.6-0.7-1
				C154.8,28.2,154.6,27.6,154.4,26.8z"/>
			<path id="XMLID_55_" class="st1" d="M179.3,24.2c0,1.1-0.3,2.1-0.9,3c-0.6,0.9-1.4,1.6-2.5,2.1S173.5,30,172,30
				c-1.8,0-3.3-0.3-4.5-1c-0.8-0.5-1.5-1.1-2-2c-0.5-0.8-0.8-1.6-0.8-2.4c0-0.4,0.2-0.8,0.5-1.2c0.3-0.3,0.7-0.5,1.2-0.5
				c0.4,0,0.7,0.1,1,0.4c0.3,0.2,0.5,0.6,0.7,1.1c0.2,0.6,0.5,1.1,0.8,1.5c0.3,0.4,0.7,0.7,1.1,1c0.5,0.3,1.1,0.4,1.9,0.4
				c1.1,0,2-0.3,2.7-0.8c0.7-0.5,1-1.2,1-1.9c0-0.6-0.2-1.1-0.6-1.5c-0.4-0.4-0.8-0.7-1.4-0.9c-0.6-0.2-1.4-0.4-2.4-0.6
				c-1.3-0.3-2.4-0.7-3.3-1.1c-0.9-0.4-1.6-1-2.1-1.7c-0.5-0.7-0.8-1.6-0.8-2.7c0-1,0.3-1.9,0.8-2.7c0.5-0.8,1.3-1.4,2.4-1.8
				c1-0.4,2.3-0.6,3.7-0.6c1.1,0,2.1,0.1,2.9,0.4c0.8,0.3,1.5,0.6,2,1.1c0.5,0.5,0.9,0.9,1.2,1.5c0.2,0.5,0.4,1,0.4,1.5
				c0,0.4-0.2,0.8-0.5,1.2c-0.3,0.4-0.7,0.5-1.2,0.5c-0.4,0-0.7-0.1-1-0.3c-0.2-0.2-0.5-0.6-0.7-1c-0.3-0.7-0.7-1.2-1.2-1.6
				c-0.5-0.4-1.2-0.6-2.2-0.6c-1,0-1.7,0.2-2.3,0.6c-0.6,0.4-0.9,0.9-0.9,1.5c0,0.4,0.1,0.7,0.3,0.9c0.2,0.3,0.5,0.5,0.8,0.7
				c0.3,0.2,0.7,0.3,1.1,0.4c0.4,0.1,0.9,0.3,1.8,0.5c1,0.2,2,0.5,2.8,0.8c0.8,0.3,1.5,0.6,2.1,1.1c0.6,0.4,1,0.9,1.4,1.6
				S179.3,23.2,179.3,24.2z"/>
		</g>
		<g id="XMLID_57_">
			<path id="XMLID_58_" class="st0" d="M196.3,24.2c0,1.1-0.3,2.1-0.9,3c-0.6,0.9-1.4,1.6-2.5,2.1s-2.4,0.7-3.9,0.7
				c-1.8,0-3.3-0.3-4.5-1c-0.8-0.5-1.5-1.1-2-2c-0.5-0.8-0.8-1.6-0.8-2.4c0-0.4,0.2-0.8,0.5-1.2c0.3-0.3,0.7-0.5,1.2-0.5
				c0.4,0,0.7,0.1,1,0.4c0.3,0.2,0.5,0.6,0.7,1.1c0.2,0.6,0.5,1.1,0.8,1.5c0.3,0.4,0.7,0.7,1.1,1c0.5,0.3,1.1,0.4,1.9,0.4
				c1.1,0,2-0.3,2.7-0.8c0.7-0.5,1-1.2,1-1.9c0-0.6-0.2-1.1-0.6-1.5c-0.4-0.4-0.8-0.7-1.4-0.9c-0.6-0.2-1.4-0.4-2.4-0.6
				c-1.3-0.3-2.4-0.7-3.3-1.1c-0.9-0.4-1.6-1-2.1-1.7c-0.5-0.7-0.8-1.6-0.8-2.7c0-1,0.3-1.9,0.8-2.7c0.5-0.8,1.3-1.4,2.4-1.8
				c1-0.4,2.3-0.6,3.7-0.6c1.1,0,2.1,0.1,2.9,0.4c0.8,0.3,1.5,0.6,2,1.1c0.5,0.5,0.9,0.9,1.2,1.5c0.2,0.5,0.4,1,0.4,1.5
				c0,0.4-0.2,0.8-0.5,1.2c-0.3,0.4-0.7,0.5-1.2,0.5c-0.4,0-0.7-0.1-1-0.3c-0.2-0.2-0.5-0.6-0.7-1c-0.3-0.7-0.7-1.2-1.2-1.6
				c-0.5-0.4-1.2-0.6-2.2-0.6c-1,0-1.7,0.2-2.3,0.6c-0.6,0.4-0.9,0.9-0.9,1.5c0,0.4,0.1,0.7,0.3,0.9c0.2,0.3,0.5,0.5,0.8,0.7
				c0.3,0.2,0.7,0.3,1.1,0.4c0.4,0.1,0.9,0.3,1.8,0.5c1,0.2,2,0.5,2.8,0.8c0.8,0.3,1.5,0.6,2.1,1.1c0.6,0.4,1,0.9,1.4,1.6
				C196.2,22.5,196.3,23.2,196.3,24.2z"/>
			<path id="XMLID_60_" class="st0" d="M206.6,22.5h-3.4v5.2c0,0.7-0.2,1.3-0.5,1.7c-0.3,0.4-0.8,0.6-1.3,0.6c-0.6,0-1-0.2-1.3-0.6
				c-0.3-0.4-0.5-0.9-0.5-1.7V13.6c0-0.8,0.2-1.4,0.6-1.7c0.4-0.3,1-0.5,1.8-0.5h4.8c1.4,0,2.5,0.1,3.2,0.3c0.7,0.2,1.4,0.6,1.9,1
				c0.5,0.5,1,1.1,1.2,1.8c0.3,0.7,0.4,1.5,0.4,2.4c0,1.9-0.6,3.3-1.7,4.2C210.5,22,208.8,22.5,206.6,22.5z M205.7,14.1h-2.5v5.6
				h2.5c0.9,0,1.6-0.1,2.2-0.3c0.6-0.2,1-0.5,1.3-0.9c0.3-0.4,0.5-1,0.5-1.6c0-0.8-0.2-1.5-0.7-2C208.4,14.4,207.3,14.1,205.7,14.1z
				"/>
			<path id="XMLID_63_" class="st0" d="M226,27.6l-0.9-2.3h-7.4l-0.9,2.3c-0.3,0.9-0.6,1.5-0.9,1.9c-0.2,0.3-0.6,0.5-1.2,0.5
				c-0.5,0-0.9-0.2-1.2-0.5c-0.4-0.3-0.5-0.7-0.5-1.2c0-0.2,0-0.5,0.1-0.8c0.1-0.3,0.2-0.6,0.4-1.1l4.7-11.9
				c0.1-0.3,0.3-0.8,0.5-1.2c0.2-0.5,0.4-0.9,0.6-1.2c0.2-0.3,0.5-0.6,0.8-0.8c0.3-0.2,0.8-0.3,1.3-0.3c0.5,0,0.9,0.1,1.3,0.3
				c0.3,0.2,0.6,0.4,0.8,0.8c0.2,0.3,0.4,0.6,0.5,1c0.1,0.4,0.3,0.8,0.6,1.4l4.8,11.8c0.4,0.9,0.6,1.6,0.6,2c0,0.4-0.2,0.8-0.5,1.2
				c-0.4,0.4-0.8,0.5-1.3,0.5c-0.3,0-0.5-0.1-0.7-0.2c-0.2-0.1-0.4-0.2-0.5-0.4c-0.1-0.2-0.3-0.5-0.5-0.8
				C226.2,28.2,226.1,27.9,226,27.6z M218.6,22.5h5.5l-2.8-7.5L218.6,22.5z"/>
			<path id="XMLID_66_" class="st0" d="M237.5,13.3l7.1,10.8V13.2c0-0.7,0.2-1.2,0.5-1.6c0.3-0.4,0.7-0.5,1.2-0.5
				c0.5,0,1,0.2,1.3,0.5c0.3,0.4,0.5,0.9,0.5,1.6v14.4c0,1.6-0.7,2.4-2,2.4c-0.3,0-0.6,0-0.9-0.1c-0.3-0.1-0.5-0.2-0.7-0.5
				c-0.2-0.2-0.4-0.5-0.6-0.7c-0.2-0.3-0.4-0.6-0.6-0.9l-7-10.7v10.7c0,0.7-0.2,1.2-0.5,1.6c-0.3,0.4-0.7,0.5-1.2,0.5
				c-0.5,0-0.9-0.2-1.3-0.5c-0.3-0.4-0.5-0.9-0.5-1.6V13.7c0-0.6,0.1-1.1,0.2-1.4c0.2-0.4,0.4-0.7,0.8-0.9c0.4-0.2,0.8-0.4,1.2-0.4
				c0.3,0,0.6,0.1,0.9,0.2c0.2,0.1,0.4,0.3,0.6,0.4c0.2,0.2,0.4,0.4,0.5,0.7C237.1,12.6,237.3,12.9,237.5,13.3z"/>
		</g>
	</g>
</g>
</svg>
