<?xml version="1.0" encoding="utf-8"?>
<!-- Generator: Adobe Illustrator 27.9.6, SVG Export Plug-In . SVG Version: 9.03 Build 54986)  -->
<svg version="1.1" id="Layer_1" xmlns="http://www.w3.org/2000/svg" xmlns:xlink="http://www.w3.org/1999/xlink" x="0px" y="0px"
	 width="300px" height="150px" viewBox="0 0 300 150" style="enable-background:new 0 0 300 150;" xml:space="preserve">
<style type="text/css">
	.st0{fill:#3FD3BB;}
	.st1{fill:#171821;}
</style>
<g>
	<path class="st0" d="M35.79,91.81c-1.57,1.09-3.39,1.93-5.2,2.54c-1.93,0.6-3.87,0.85-5.93,0.85c-2.78,0-5.44-0.6-7.86-1.57
		c-3.63-1.57-6.65-4.11-8.83-7.26c-1.09-1.57-1.93-3.39-2.54-5.32c-0.6-1.93-0.85-3.87-0.85-5.93c-0.12-2.78,0.48-5.44,1.45-7.86
		c1.57-3.63,4.11-6.65,7.26-8.83c1.57-1.09,3.39-1.93,5.2-2.54c1.93-0.6,3.87-0.85,5.93-0.85c2.78,0,5.44,0.6,7.86,1.57
		c3.02,1.21,5.56,3.26,7.62,5.68l4.11-2.3c-1.57-2.06-3.51-3.87-5.68-5.32c-1.93-1.33-4.11-2.42-6.41-3.14
		c-2.3-0.73-4.72-1.09-7.26-1.09c-3.39,0-6.65,0.73-9.55,1.93c-4.47,1.93-8.22,5.08-10.88,8.95c-1.33,1.93-2.42,4.11-3.14,6.41
		C0.36,70.04,0,72.46,0,75c0,3.39,0.73,6.65,1.93,9.55c1.81,4.35,4.96,8.1,8.95,10.76c1.93,1.33,4.11,2.42,6.41,3.14
		c2.3,0.73,4.72,1.09,7.26,1.09c3.39,0,6.65-0.73,9.55-1.93c3.63-1.57,6.77-3.87,9.19-6.77l-3.63-2.78
		C38.57,89.63,37.24,90.72,35.79,91.81z"/>
	<path class="st1" d="M17.41,64.36c1.09-0.73,2.18-1.21,3.39-1.57c0.6-0.24,1.21-0.36,1.93-0.48v2.9c0.6-0.12,1.33-0.24,1.93-0.24
		c0.6,0,1.33,0.12,1.93,0.24v-6.17V58.8c-0.6-0.12-1.33-0.12-1.93-0.12c-2.3,0-4.47,0.48-6.41,1.33c-2.9,1.21-5.44,3.39-7.26,5.93
		c-0.85,1.33-1.57,2.78-2.06,4.35c-0.48,1.57-0.73,3.14-0.73,4.84c0,2.3,0.48,4.47,1.33,6.41c1.21,2.9,3.39,5.44,5.93,7.26
		c1.09,0.73,2.18,1.33,3.39,1.69v-3.87c-1.93-0.97-3.63-2.54-4.84-4.35c-0.73-1.09-1.21-2.18-1.57-3.39
		c-0.36-1.21-0.6-2.54-0.6-3.87c0-1.81,0.36-3.51,0.97-5.08C13.66,67.74,15.24,65.81,17.41,64.36z"/>
	<path class="st1" d="M39.66,68.71c-1.21-2.9-3.39-5.44-5.93-7.26c-1.09-0.73-2.18-1.33-3.39-1.69v3.87
		c1.93,0.97,3.63,2.54,4.84,4.35c0.73,1.09,1.21,2.18,1.57,3.39s0.6,2.54,0.6,3.87c0,1.81-0.36,3.51-0.97,5.08
		c-0.97,2.3-2.66,4.23-4.72,5.68c-1.09,0.73-2.18,1.21-3.39,1.57c-0.6,0.24-1.21,0.36-1.93,0.48v-2.9c-0.6,0.12-1.33,0.24-1.93,0.24
		c-0.6,0-1.33-0.12-1.93-0.24v6.17v0.12c0.6,0.12,1.33,0.12,1.93,0.12c2.3,0,4.47-0.48,6.41-1.33c2.9-1.21,5.44-3.39,7.26-5.93
		c0.85-1.33,1.57-2.78,2.06-4.35c0.48-1.57,0.73-3.14,0.73-4.84C40.99,72.82,40.51,70.65,39.66,68.71z"/>
	<path class="st0" d="M25.03,65.08c-5.56-0.24-10.28,3.99-10.52,9.55c-0.24,5.56,3.99,10.28,9.55,10.52s10.28-3.99,10.52-9.55
		C34.95,70.04,30.59,65.33,25.03,65.08z M28.42,78.39c-0.24,0.48-0.48,0.85-0.85,1.09c-0.73,0.6-1.69,0.97-2.78,0.97
		c-0.85,0-1.69-0.12-2.42-0.48c-0.73-0.36-1.21-0.85-1.57-1.57c-0.24-0.48-0.36-0.97-0.48-1.45v-0.48h2.3l0.12,0.36
		c0.12,0.6,0.36,0.97,0.73,1.33c0.36,0.24,0.85,0.48,1.33,0.48c0.36,0,0.73-0.12,0.97-0.24c0.24-0.12,0.48-0.36,0.6-0.48
		c0.12-0.12,0.12-0.36,0.12-0.48c0-0.24,0-0.48-0.12-0.73c-0.12-0.12-0.24-0.36-0.36-0.48c-0.12-0.12-0.36-0.24-0.48-0.24
		c-0.24-0.12-0.6-0.24-1.09-0.36c-0.73-0.12-1.33-0.36-1.93-0.73c-0.6-0.36-0.97-0.73-1.33-1.33c-0.12-0.36-0.24-0.85-0.24-1.33
		c0-0.48,0.12-0.97,0.36-1.45c0.24-0.36,0.48-0.73,0.85-1.09c0.73-0.6,1.69-0.85,2.66-0.85c0.85,0,1.57,0.24,2.18,0.6
		c0.6,0.36,1.09,0.97,1.33,1.57c0.24,0.36,0.36,0.85,0.36,1.33v0.48h-2.3v-0.48c0-0.48-0.12-0.73-0.36-0.97
		c-0.12-0.24-0.36-0.36-0.73-0.48c-0.24-0.12-0.48-0.12-0.73-0.12c-0.36,0-0.6,0.12-0.85,0.12c-0.24,0.12-0.36,0.24-0.48,0.48
		c-0.12,0.12-0.12,0.24-0.12,0.48s0,0.48,0.12,0.6c0.12,0.12,0.12,0.24,0.36,0.36c0.12,0.12,0.24,0.12,0.48,0.24
		c0.24,0.12,0.6,0.24,0.97,0.24c0.85,0.24,1.57,0.48,2.18,0.85c0.6,0.36,1.09,0.85,1.33,1.45c0.12,0.36,0.24,0.85,0.24,1.33
		C28.78,77.54,28.66,78.02,28.42,78.39z"/>
	<path class="st1" d="M65.3,79.23c0,0.73-0.12,1.45-0.48,2.3c-0.36,0.85-0.85,1.57-1.69,2.42c-0.73,0.85-1.69,1.45-2.9,1.93
		s-2.54,0.73-3.99,0.73c-1.21,0-2.18-0.12-3.14-0.36c-0.97-0.24-1.81-0.6-2.66-1.09c-0.73-0.48-1.45-1.09-2.18-1.81
		c-0.6-0.73-1.09-1.45-1.45-2.3c-0.36-0.85-0.73-1.81-0.97-2.78c-0.24-0.97-0.36-2.06-0.36-3.14c0-1.81,0.24-3.39,0.73-4.84
		c0.48-1.45,1.21-2.66,2.18-3.63c0.97-0.97,2.06-1.81,3.39-2.3c1.33-0.48,2.66-0.73,4.11-0.73c1.81,0,3.39,0.36,4.84,1.09
		c1.45,0.73,2.42,1.57,3.26,2.66c0.73,1.09,1.09,2.06,1.09,3.02c0,0.48-0.12,0.97-0.48,1.33c-0.36,0.36-0.85,0.6-1.33,0.6
		c-0.6,0-0.97-0.12-1.33-0.36c-0.24-0.24-0.6-0.73-0.97-1.45c-0.6-1.09-1.33-1.93-2.06-2.42c-0.85-0.48-1.81-0.85-2.9-0.85
		c-1.81,0-3.26,0.73-4.35,2.06c-1.09,1.45-1.69,3.39-1.69,5.93c0,1.69,0.24,3.14,0.73,4.23c0.48,1.09,1.21,1.93,2.06,2.54
		c0.85,0.6,1.93,0.85,3.14,0.85c1.33,0,2.42-0.36,3.26-0.97s1.57-1.57,2.06-2.78c0.24-0.6,0.48-1.09,0.73-1.45
		c0.24-0.36,0.73-0.6,1.33-0.6c0.48,0,0.97,0.24,1.33,0.6C65.05,78.14,65.3,78.63,65.3,79.23z"/>
	<path class="st1" d="M78.96,63.63c2.3,0,4.23,0.48,5.93,1.45c1.69,0.97,2.9,2.3,3.75,3.99c0.85,1.69,1.21,3.75,1.21,6.05
		c0,1.69-0.24,3.26-0.73,4.72c-0.48,1.45-1.21,2.66-2.06,3.63c-0.97,0.97-2.06,1.81-3.39,2.3c-1.33,0.48-2.9,0.85-4.59,0.85
		c-1.69,0-3.26-0.24-4.59-0.85c-1.33-0.6-2.54-1.33-3.39-2.42c-0.97-0.97-1.57-2.3-2.06-3.63c-0.48-1.45-0.73-3.02-0.73-4.59
		c0-1.69,0.24-3.26,0.73-4.72c0.48-1.45,1.21-2.66,2.18-3.63c0.97-0.97,2.06-1.81,3.39-2.3C75.82,64,77.27,63.63,78.96,63.63z
		 M85.37,75.12c0-1.57-0.24-3.02-0.73-4.23c-0.48-1.21-1.33-2.06-2.3-2.66c-0.97-0.6-2.06-0.97-3.39-0.97
		c-0.85,0-1.69,0.12-2.54,0.48c-0.73,0.36-1.45,0.85-1.93,1.45c-0.6,0.6-0.97,1.45-1.33,2.42s-0.48,2.18-0.48,3.39
		c0,1.21,0.12,2.42,0.48,3.39c0.36,0.97,0.73,1.81,1.33,2.54c0.6,0.73,1.21,1.21,1.93,1.45c0.73,0.36,1.57,0.48,2.42,0.48
		c1.09,0,2.18-0.24,3.14-0.85c0.97-0.6,1.69-1.45,2.3-2.66C85.13,78.26,85.37,76.81,85.37,75.12z"/>
	<path class="st1" d="M93.95,83.83V66.41c0-0.85,0.24-1.57,0.6-2.06c0.36-0.48,0.97-0.73,1.57-0.73c0.73,0,1.21,0.24,1.69,0.73
		c0.36,0.48,0.6,1.09,0.6,2.06v17.41c0,0.97-0.24,1.57-0.6,2.06s-0.97,0.73-1.69,0.73c-0.6,0-1.21-0.24-1.57-0.73
		C94.07,85.4,93.95,84.67,93.95,83.83z"/>
	<path class="st1" d="M109.31,66.41l8.59,12.94V66.29c0-0.85,0.24-1.45,0.6-1.93c0.36-0.48,0.85-0.6,1.45-0.6
		c0.6,0,1.21,0.24,1.57,0.6c0.36,0.48,0.6,1.09,0.6,1.93v17.41c0,1.93-0.85,2.9-2.42,2.9c-0.36,0-0.73,0-1.09-0.12
		c-0.36-0.12-0.6-0.24-0.85-0.6c-0.24-0.24-0.48-0.6-0.73-0.85c-0.24-0.36-0.48-0.73-0.73-1.09l-8.46-12.94v12.94
		c0,0.85-0.24,1.45-0.6,1.93s-0.85,0.6-1.45,0.6c-0.6,0-1.09-0.24-1.57-0.6c-0.36-0.48-0.6-1.09-0.6-1.93V66.9
		c0-0.73,0.12-1.33,0.24-1.69c0.24-0.48,0.48-0.85,0.97-1.09c0.48-0.24,0.97-0.48,1.45-0.48c0.36,0,0.73,0.12,1.09,0.24
		c0.24,0.12,0.48,0.36,0.73,0.48c0.24,0.24,0.48,0.48,0.6,0.85C108.83,65.57,109.07,65.93,109.31,66.41z"/>
	<path class="st1" d="M132.77,66.41l8.59,13.06V66.29c0-0.85,0.24-1.45,0.6-1.93c0.36-0.48,0.85-0.6,1.45-0.6
		c0.6,0,1.21,0.24,1.57,0.6c0.36,0.48,0.6,1.09,0.6,1.93v17.41c0,1.93-0.85,2.9-2.42,2.9c-0.36,0-0.73,0-1.09-0.12
		c-0.36-0.12-0.6-0.24-0.85-0.6c-0.24-0.24-0.48-0.6-0.73-0.85c-0.24-0.36-0.48-0.73-0.73-1.09l-8.46-12.94v12.94
		c0,0.85-0.24,1.45-0.6,1.93s-0.85,0.6-1.45,0.6c-0.6,0-1.09-0.24-1.57-0.6c-0.36-0.48-0.6-1.09-0.6-1.93V66.9
		c0-0.73,0.12-1.33,0.24-1.69c0.24-0.48,0.48-0.85,0.97-1.09c0.48-0.24,0.97-0.48,1.45-0.48c0.36,0,0.73,0.12,1.09,0.24
		c0.24,0.12,0.48,0.36,0.73,0.48c0.24,0.24,0.48,0.48,0.6,0.85C132.29,65.57,132.53,65.93,132.77,66.41z"/>
	<path class="st1" d="M164.93,67.5H154.9v5.44h9.31c0.73,0,1.21,0.12,1.57,0.48c0.36,0.36,0.48,0.73,0.48,1.21
		c0,0.48-0.12,0.97-0.48,1.21c-0.36,0.36-0.85,0.48-1.57,0.48h-9.31v6.29h10.4c0.73,0,1.21,0.12,1.57,0.48s0.48,0.73,0.48,1.33
		c0,0.48-0.12,0.97-0.48,1.33c-0.36,0.36-0.85,0.48-1.57,0.48h-12.21c-0.97,0-1.69-0.24-2.06-0.6c-0.48-0.48-0.6-1.09-0.6-2.06
		V66.78c0-0.6,0.12-1.21,0.24-1.57c0.24-0.36,0.48-0.73,0.85-0.85c0.36-0.24,0.97-0.24,1.57-0.24h11.85c0.73,0,1.21,0.12,1.57,0.48
		c0.36,0.36,0.48,0.73,0.48,1.21c0,0.48-0.12,0.97-0.48,1.21C166.14,67.38,165.66,67.5,164.93,67.5z"/>
	<path class="st1" d="M186.7,82.74l-3.63-13.3l-3.63,13.3c-0.24,0.97-0.48,1.69-0.73,2.18c-0.24,0.48-0.48,0.85-0.85,1.21
		c-0.36,0.36-0.97,0.48-1.69,0.48c-0.6,0-0.97-0.12-1.33-0.36c-0.36-0.24-0.6-0.48-0.85-0.85c-0.24-0.36-0.36-0.85-0.48-1.33
		c-0.12-0.48-0.24-0.97-0.36-1.45l-3.63-14.87c-0.24-0.85-0.36-1.57-0.36-1.93c0-0.6,0.24-1.09,0.6-1.45s0.85-0.6,1.45-0.6
		c0.85,0,1.33,0.24,1.69,0.73c0.24,0.48,0.48,1.33,0.73,2.3l2.9,12.94l3.26-12.09c0.24-0.97,0.48-1.57,0.6-2.06
		c0.24-0.48,0.48-0.85,0.97-1.21c0.48-0.36,0.97-0.48,1.81-0.48c0.73,0,1.33,0.24,1.81,0.6c0.36,0.36,0.73,0.73,0.85,1.21
		c0.12,0.48,0.36,1.09,0.6,2.18l3.26,12.09l2.9-12.94c0.12-0.73,0.24-1.21,0.36-1.57c0.12-0.36,0.36-0.73,0.6-0.97
		c0.36-0.24,0.73-0.48,1.33-0.48c0.6,0,1.09,0.24,1.45,0.6c0.36,0.36,0.6,0.85,0.6,1.45c0,0.36-0.12,1.09-0.36,1.93l-3.63,14.87
		c-0.24,0.97-0.48,1.69-0.6,2.18c-0.12,0.48-0.48,0.85-0.85,1.21s-0.97,0.48-1.69,0.48c-0.73,0-1.21-0.12-1.69-0.48
		c-0.36-0.36-0.73-0.73-0.85-1.21C187.18,84.43,186.94,83.71,186.7,82.74z"/>
	<path class="st1" d="M216.81,79.59c0,1.33-0.36,2.54-1.09,3.63c-0.73,1.09-1.69,1.93-3.02,2.54c-1.33,0.6-2.9,0.85-4.72,0.85
		c-2.18,0-3.99-0.36-5.44-1.21c-0.97-0.6-1.81-1.33-2.42-2.42c-0.6-0.97-0.97-1.93-0.97-2.9c0-0.48,0.24-0.97,0.6-1.45
		c0.36-0.36,0.85-0.6,1.45-0.6c0.48,0,0.85,0.12,1.21,0.48c0.36,0.24,0.6,0.73,0.85,1.33c0.24,0.73,0.6,1.33,0.97,1.81
		s0.85,0.85,1.33,1.21c0.6,0.36,1.33,0.48,2.3,0.48c1.33,0,2.42-0.36,3.26-0.97c0.85-0.6,1.21-1.45,1.21-2.3
		c0-0.73-0.24-1.33-0.73-1.81c-0.48-0.48-0.97-0.85-1.69-1.09c-0.73-0.24-1.69-0.48-2.9-0.73c-1.57-0.36-2.9-0.85-3.99-1.33
		c-1.09-0.48-1.93-1.21-2.54-2.06c-0.6-0.85-0.97-1.93-0.97-3.26c0-1.21,0.36-2.3,0.97-3.26c0.6-0.97,1.57-1.69,2.9-2.18
		c1.21-0.48,2.78-0.73,4.47-0.73c1.33,0,2.54,0.12,3.51,0.48s1.81,0.73,2.42,1.33c0.6,0.6,1.09,1.09,1.45,1.81
		c0.24,0.6,0.48,1.21,0.48,1.81c0,0.48-0.24,0.97-0.6,1.45s-0.85,0.6-1.45,0.6c-0.48,0-0.85-0.12-1.21-0.36
		c-0.24-0.24-0.6-0.73-0.85-1.21c-0.36-0.85-0.85-1.45-1.45-1.93c-0.6-0.48-1.45-0.73-2.66-0.73c-1.21,0-2.06,0.24-2.78,0.73
		s-1.09,1.09-1.09,1.81c0,0.48,0.12,0.85,0.36,1.09c0.24,0.36,0.6,0.6,0.97,0.85s0.85,0.36,1.33,0.48c0.48,0.12,1.09,0.36,2.18,0.6
		c1.21,0.24,2.42,0.6,3.39,0.97c0.97,0.36,1.81,0.73,2.54,1.33c0.73,0.48,1.21,1.09,1.69,1.93S216.81,78.39,216.81,79.59z"/>
	<path class="st0" d="M237.36,79.59c0,1.33-0.36,2.54-1.09,3.63c-0.73,1.09-1.69,1.93-3.02,2.54c-1.33,0.6-2.9,0.85-4.72,0.85
		c-2.18,0-3.99-0.36-5.44-1.21c-0.97-0.6-1.81-1.33-2.42-2.42c-0.6-0.97-0.97-1.93-0.97-2.9c0-0.48,0.24-0.97,0.6-1.45
		c0.36-0.36,0.85-0.6,1.45-0.6c0.48,0,0.85,0.12,1.21,0.48c0.36,0.24,0.6,0.73,0.85,1.33c0.24,0.73,0.6,1.33,0.97,1.81
		s0.85,0.85,1.33,1.21c0.6,0.36,1.33,0.48,2.3,0.48c1.33,0,2.42-0.36,3.26-0.97c0.85-0.6,1.21-1.45,1.21-2.3
		c0-0.73-0.24-1.33-0.73-1.81c-0.48-0.48-0.97-0.85-1.69-1.09c-0.73-0.24-1.69-0.48-2.9-0.73c-1.57-0.36-2.9-0.85-3.99-1.33
		c-1.09-0.48-1.93-1.21-2.54-2.06c-0.6-0.85-0.97-1.93-0.97-3.26c0-1.21,0.36-2.3,0.97-3.26c0.6-0.97,1.57-1.69,2.9-2.18
		c1.21-0.48,2.78-0.73,4.47-0.73c1.33,0,2.54,0.12,3.51,0.48c0.97,0.36,1.81,0.73,2.42,1.33c0.6,0.6,1.09,1.09,1.45,1.81
		c0.24,0.6,0.48,1.21,0.48,1.81c0,0.48-0.24,0.97-0.6,1.45c-0.36,0.48-0.85,0.6-1.45,0.6c-0.48,0-0.85-0.12-1.21-0.36
		c-0.24-0.24-0.6-0.73-0.85-1.21c-0.36-0.85-0.85-1.45-1.45-1.93c-0.6-0.48-1.45-0.73-2.66-0.73c-1.21,0-2.06,0.24-2.78,0.73
		c-0.73,0.48-1.09,1.09-1.09,1.81c0,0.48,0.12,0.85,0.36,1.09c0.24,0.36,0.6,0.6,0.97,0.85c0.36,0.24,0.85,0.36,1.33,0.48
		c0.48,0.12,1.09,0.36,2.18,0.6c1.21,0.24,2.42,0.6,3.39,0.97c0.97,0.36,1.81,0.73,2.54,1.33c0.73,0.48,1.21,1.09,1.69,1.93
		C237.24,77.54,237.36,78.39,237.36,79.59z"/>
	<path class="st0" d="M249.82,77.54h-4.11v6.29c0,0.85-0.24,1.57-0.6,2.06s-0.97,0.73-1.57,0.73c-0.73,0-1.21-0.24-1.57-0.73
		s-0.6-1.09-0.6-2.06V66.78c0-0.97,0.24-1.69,0.73-2.06s1.21-0.6,2.18-0.6h5.8c1.69,0,3.02,0.12,3.87,0.36
		c0.85,0.24,1.69,0.73,2.3,1.21c0.6,0.6,1.21,1.33,1.45,2.18c0.36,0.85,0.48,1.81,0.48,2.9c0,2.3-0.73,3.99-2.06,5.08
		C254.53,76.93,252.48,77.54,249.82,77.54z M248.73,67.38h-3.02v6.77h3.02c1.09,0,1.93-0.12,2.66-0.36c0.73-0.24,1.21-0.6,1.57-1.09
		c0.36-0.48,0.6-1.21,0.6-1.93c0-0.97-0.24-1.81-0.85-2.42C252,67.74,250.67,67.38,248.73,67.38z"/>
	<path class="st0" d="M273.28,83.71l-1.09-2.78h-8.95l-1.09,2.78c-0.36,1.09-0.73,1.81-1.09,2.3c-0.24,0.36-0.73,0.6-1.45,0.6
		c-0.6,0-1.09-0.24-1.45-0.6c-0.48-0.36-0.6-0.85-0.6-1.45c0-0.24,0-0.6,0.12-0.97c0.12-0.36,0.24-0.73,0.48-1.33l5.68-14.39
		c0.12-0.36,0.36-0.97,0.6-1.45c0.24-0.6,0.48-1.09,0.73-1.45c0.24-0.36,0.6-0.73,0.97-0.97c0.36-0.24,0.97-0.36,1.57-0.36
		s1.09,0.12,1.57,0.36c0.36,0.24,0.73,0.48,0.97,0.97c0.24,0.36,0.48,0.73,0.6,1.21c0.12,0.48,0.36,0.97,0.73,1.69l5.8,14.27
		c0.48,1.09,0.73,1.93,0.73,2.42s-0.24,0.97-0.6,1.45c-0.48,0.48-0.97,0.6-1.57,0.6c-0.36,0-0.6-0.12-0.85-0.24
		c-0.24-0.12-0.48-0.24-0.6-0.48c-0.12-0.24-0.36-0.6-0.6-0.97C273.52,84.43,273.4,84.07,273.28,83.71z M264.33,77.54h6.65
		l-3.39-9.07L264.33,77.54z"/>
	<path class="st0" d="M287.18,66.41l8.59,13.06V66.29c0-0.85,0.24-1.45,0.6-1.93c0.36-0.48,0.85-0.6,1.45-0.6
		c0.6,0,1.21,0.24,1.57,0.6c0.36,0.48,0.6,1.09,0.6,1.93v17.41c0,1.93-0.85,2.9-2.42,2.9c-0.36,0-0.73,0-1.09-0.12
		c-0.36-0.12-0.6-0.24-0.85-0.6c-0.24-0.24-0.48-0.6-0.73-0.85c-0.24-0.36-0.48-0.73-0.73-1.09l-8.46-12.94v12.94
		c0,0.85-0.24,1.45-0.6,1.93s-0.85,0.6-1.45,0.6c-0.6,0-1.09-0.24-1.57-0.6c-0.36-0.48-0.6-1.09-0.6-1.93V66.9
		c0-0.73,0.12-1.33,0.24-1.69c0.24-0.48,0.48-0.85,0.97-1.09c0.48-0.24,0.97-0.48,1.45-0.48c0.36,0,0.73,0.12,1.09,0.24
		c0.24,0.12,0.48,0.36,0.73,0.48c0.24,0.24,0.48,0.48,0.6,0.85C286.7,65.57,286.94,65.93,287.18,66.41z"/>
</g>
</svg>
