<svg id="Layer_1" data-name="Layer 1" xmlns="http://www.w3.org/2000/svg" viewBox="0 0 300 300"><defs><style>.cls-1{fill:#f89d35;}.cls-2{fill:#13253f;}</style></defs><path class="cls-1" d="M225.971,118.719A73.787,73.787,0,0,0,160.352,45.39V34.457h-5.9V44.976c-.75-.021-1.5-.036-2.259-.036s-1.506.015-2.255.036V34.457h-5.9V45.39a73.78,73.78,0,0,0,0,146.656v10.8h5.9V192.46c.749.023,1.5.038,2.255.038s1.509-.015,2.259-.038v10.388h5.9v-10.8a73.785,73.785,0,0,0,65.619-73.327M138.7,56.491a63.942,63.942,0,0,1,7.109-1.122,63.85,63.85,0,0,1,12.769,0,63.548,63.548,0,0,1,48.592,31.266H191.682a51.016,51.016,0,0,0-25.993-17,50.4,50.4,0,0,0-7.112-1.417v92.491a51.546,51.546,0,0,1-12.769-.01V68.217a50.755,50.755,0,0,0-33.1,18.418H97.214A63.853,63.853,0,0,1,138.7,56.491M166.607,93.02h-.156c-.25-.143-.506-.281-.762-.411v-.08c.309.156.614.323.918.491m-.918,87.927A63.693,63.693,0,0,1,91.516,99.4H105.1a50.885,50.885,0,0,0,22.691,63.975s.008,0,.011.008l.322.171A50.107,50.107,0,0,0,138.7,167.8a50.673,50.673,0,0,0,7.109,1.419V169.1a51.546,51.546,0,0,0,12.769.01v.115a50.658,50.658,0,0,0,15.556-4.582l.387-.187h0A50.882,50.882,0,0,0,199.285,99.4h13.584a63.7,63.7,0,0,1-47.18,81.544"/><path class="cls-2" d="M8.646,229.834a16.626,16.626,0,0,1,6.49-6.568,18.849,18.849,0,0,1,9.438-2.351,18.059,18.059,0,0,1,11.067,3.412,16.4,16.4,0,0,1,6.153,9.309H32.072A7.854,7.854,0,0,0,29,230.171a8.651,8.651,0,0,0-4.525-1.189,8.441,8.441,0,0,0-6.619,2.844,12.67,12.67,0,0,0,0,15.2,8.444,8.444,0,0,0,6.619,2.844A8.642,8.642,0,0,0,29,248.684a7.832,7.832,0,0,0,3.077-3.465h9.722a16.279,16.279,0,0,1-6.153,9.284,18.153,18.153,0,0,1-11.067,3.387,18.851,18.851,0,0,1-9.438-2.353,16.666,16.666,0,0,1-6.49-6.543,20.883,20.883,0,0,1,0-19.16"/><path class="cls-2" d="M59.946,229.834a10.01,10.01,0,0,1,5.171-1.37v9.36h-2.43a7.45,7.45,0,0,0-4.964,1.423q-1.657,1.423-1.655,4.989v13.395H47.225V228.774h8.843v4.81a11.67,11.67,0,0,1,3.878-3.75"/><polygon class="cls-2" points="98.836 228.774 80.735 271.335 71.22 271.335 77.839 256.649 66.1 228.774 75.977 228.774 82.649 246.822 89.268 228.774 98.836 228.774"/><path class="cls-2" d="M114.453,229.6a10.957,10.957,0,0,1,5.326-1.242,11.949,11.949,0,0,1,6.465,1.811,12.534,12.534,0,0,1,4.576,5.17,19.049,19.049,0,0,1,0,15.644,12.687,12.687,0,0,1-4.576,5.225,11.833,11.833,0,0,1-6.465,1.835,10.983,10.983,0,0,1-5.3-1.241,9.7,9.7,0,0,1-3.6-3.207v17.791h-8.842V228.775h8.842v4.084a9.6,9.6,0,0,1,3.569-3.257m7.214,8.352a6.065,6.065,0,0,0-4.524-1.889,5.969,5.969,0,0,0-4.474,1.914,8.35,8.35,0,0,0,0,10.448,6.19,6.19,0,0,0,8.973-.027,7.266,7.266,0,0,0,1.861-5.249,7.141,7.141,0,0,0-1.836-5.2"/><path class="cls-2" d="M153.238,250.133v7.5h-4.5q-4.809,0-7.5-2.353t-2.691-7.68v-11.48h-3.515v-7.343h3.517v-7.033h8.842v7.033h5.792v7.343h-5.792V247.7a2.424,2.424,0,0,0,.621,1.863,3.028,3.028,0,0,0,2.068.569Z"/><path class="cls-2" d="M163.658,256.234a13.242,13.242,0,0,1-5.327-5.17,16.752,16.752,0,0,1,.026-15.7,13.36,13.36,0,0,1,5.378-5.2,17.1,17.1,0,0,1,15.309,0,13.357,13.357,0,0,1,5.377,5.2,15.333,15.333,0,0,1,1.966,7.835,15.177,15.177,0,0,1-1.991,7.834,13.468,13.468,0,0,1-5.43,5.2,16.225,16.225,0,0,1-7.679,1.811,15.915,15.915,0,0,1-7.629-1.811m11.946-7.7a7.394,7.394,0,0,0,1.785-5.326,7.528,7.528,0,0,0-1.734-5.326,5.875,5.875,0,0,0-8.558-.027,7.591,7.591,0,0,0-1.707,5.353,7.675,7.675,0,0,0,1.682,5.326,5.434,5.434,0,0,0,4.215,1.861,5.756,5.756,0,0,0,4.317-1.861"/><polygon class="cls-2" points="214.054 221.586 214.054 225.413 204.229 225.413 204.229 257.631 199.522 257.631 199.522 225.413 189.645 225.413 189.645 221.586 214.054 221.586"/><path class="cls-2" d="M219.845,235.73a12.767,12.767,0,0,1,4.836-5.095,13.265,13.265,0,0,1,6.852-1.808,12.59,12.59,0,0,1,6.465,1.6,10.7,10.7,0,0,1,4.085,4.033v-5.17h4.757v28.34h-4.757v-5.276a11.085,11.085,0,0,1-4.163,4.112,12.457,12.457,0,0,1-6.439,1.629,12.834,12.834,0,0,1-6.825-1.863,13.039,13.039,0,0,1-4.811-5.223,16.263,16.263,0,0,1-1.758-7.654,15.919,15.919,0,0,1,1.758-7.627m20.945,2.094a9.147,9.147,0,0,0-3.491-3.646,9.9,9.9,0,0,0-9.645-.025,9.01,9.01,0,0,0-3.464,3.619,11.513,11.513,0,0,0-1.294,5.585,11.773,11.773,0,0,0,1.294,5.663,9.158,9.158,0,0,0,3.464,3.673,9.379,9.379,0,0,0,4.81,1.266,9.515,9.515,0,0,0,4.835-1.266,9.1,9.1,0,0,0,3.491-3.673,11.676,11.676,0,0,0,1.293-5.611,11.536,11.536,0,0,0-1.293-5.585"/><rect class="cls-2" x="254.806" y="219.362" width="4.705" height="38.268"/><path class="cls-2" d="M293.227,245.219h-22.65a8.907,8.907,0,0,0,9.2,8.9,8.7,8.7,0,0,0,5.095-1.423,7.518,7.518,0,0,0,2.869-3.8h5.069a12.173,12.173,0,0,1-4.551,6.644,13.736,13.736,0,0,1-8.482,2.56,14.306,14.306,0,0,1-7.212-1.81,12.812,12.812,0,0,1-4.992-5.145,15.941,15.941,0,0,1-1.81-7.731,16.188,16.188,0,0,1,1.758-7.707,12.352,12.352,0,0,1,4.939-5.092,14.7,14.7,0,0,1,7.317-1.785,14.24,14.24,0,0,1,7.137,1.757,12.2,12.2,0,0,1,4.785,4.836,14.278,14.278,0,0,1,1.68,6.956,27.213,27.213,0,0,1-.156,2.844m-5.894-8.455a7.74,7.74,0,0,0-3.232-2.947,10.069,10.069,0,0,0-4.526-1.009,8.716,8.716,0,0,0-6.076,2.276,9.271,9.271,0,0,0-2.871,6.309h17.894a8.7,8.7,0,0,0-1.189-4.629"/></svg>