<?xml version="1.0" encoding="utf-8"?>
<!-- Generator: Adobe Illustrator 27.9.6, SVG Export Plug-In . SVG Version: 9.03 Build 54986)  -->
<svg version="1.1" id="Layer_1" xmlns="http://www.w3.org/2000/svg" xmlns:xlink="http://www.w3.org/1999/xlink" x="0px" y="0px"
	 width="300px" height="150px" viewBox="0 0 300 150" style="enable-background:new 0 0 300 150;" xml:space="preserve">
<g id="XMLID_84_">
	<g id="XMLID_34_">
		<path id="XMLID_69_" d="M61.37,94.7c-2.49,2.49-4.77,3.73-8.09,3.73c-5.39,0-8.71-3.52-8.71-9.74c0-6.84,3.94-11.4,9.95-11.4
			c3.11,0,5.6,1.45,7.05,3.52l-2.28,2.9c-1.24-1.66-2.7-2.49-4.56-2.49c-3.32,0-5.39,2.7-5.39,7.05c0,3.94,1.66,6.01,4.56,6.01
			c1.87,0,3.32-0.83,5.39-2.7L61.37,94.7z"/>
		<path id="XMLID_67_" d="M72.77,83.71c0.62,0,0.83,0,1.66,0.41l-0.21,3.52c-0.62-0.21-0.83-0.21-1.24-0.21
			c-2.49,0-3.94,1.87-4.15,5.18l-0.41,5.81h-4.15l0.62-9.54c0.21-2.7,0-3.11-0.21-4.77h3.73c0.21,1.04,0.21,1.45,0.21,2.28
			C70.08,84.54,71.11,83.71,72.77,83.71z"/>
		<path id="XMLID_65_" d="M90.19,83.71l-0.83,14.31c-0.41,6.01-2.7,7.46-8.29,7.46c-1.45,0-2.07,0-3.52-0.41l0.21-3.11
			c1.45,0.41,2.28,0.41,3.52,0.41c1.66,0,3.52-0.41,3.73-3.73l0.21-1.87c-0.62,0.83-2.28,1.66-3.94,1.66
			c-2.49,0-4.35-1.24-4.35-4.77c0-1.04,0.83-5.6,0.21-9.74h4.15c0.41,2.7-0.41,8.09-0.41,8.71c0,1.66,0.62,2.07,1.66,2.07
			c1.45,0,2.7-1.04,2.9-3.52l0.41-7.26h4.35V83.71z"/>
		<path id="XMLID_62_" d="M104.08,83.29c3.32,0,5.39,2.49,5.39,6.01c0,5.81-2.9,8.92-6.84,8.92c-1.45,0-2.28-0.21-3.32-1.04
			l-0.62,8.29h-4.35l1.04-18.24c0-1.04-0.21-2.7-0.41-3.52h4.15c0.21,0.41,0.21,0.62,0.21,1.45
			C101.17,83.71,102.42,83.29,104.08,83.29z M99.52,93.24c0.62,0.62,1.24,1.04,2.28,1.04c2.07,0,3.32-1.66,3.32-4.15
			c0-1.66-0.83-3.11-2.28-3.11c-1.87,0-3.11,1.87-3.11,4.15L99.52,93.24z"/>
		<path id="XMLID_60_" d="M123.36,83.71l-0.21,3.11h-4.35l-0.41,6.22c0,1.45,0.62,2.28,1.66,2.28c0.83,0,1.66-0.41,2.9-1.04
			l-0.21,3.32c-1.04,0.62-2.49,1.04-3.94,1.04c-3.32,0-4.98-1.24-4.98-4.15l0.62-7.46h-2.28l0.21-3.11h2.28l0.21-3.52h4.35
			L119,83.92h4.35V83.71z"/>
		<path id="XMLID_57_" d="M132.48,98.43c-4.35,0-7.05-2.9-7.05-7.26c0-4.98,3.11-7.88,8.09-7.88c4.35,0,7.05,2.9,7.05,7.26
			C140.36,95.53,137.66,98.43,132.48,98.43z M133.1,87.02c-2.07,0-3.11,1.45-3.11,3.94c0,2.07,1.04,3.32,2.7,3.32
			c1.87,0,3.11-1.45,3.11-3.94C136.01,88.48,134.97,87.02,133.1,87.02z"/>
		<path id="XMLID_55_" d="M153.63,89.31c0-1.66-0.62-2.49-1.87-2.49c-1.45,0-2.49,1.24-2.7,3.52l-0.62,7.67h-4.35
			c0,0,0.62-10.37,0.62-10.99c0-1.24-0.21-2.28-0.41-3.32h4.35c0.21,0.62,0.21,0.83,0.41,1.45c1.66-1.24,3.11-1.87,4.98-1.87
			c1.66,0,3.32,0.83,3.73,1.87c1.04-1.04,2.7-1.87,4.56-1.87c2.9,0,4.56,1.87,4.35,5.18l-0.21,5.18c0,1.04,0.41,1.66,1.04,1.66
			s1.24-0.21,2.28-0.62l-0.21,2.9c-1.04,0.41-2.07,0.83-3.32,0.83c-2.9,0-4.15-1.24-4.15-3.52c0-0.62,0.41-5.6,0.41-5.6
			c0-1.66-0.83-2.49-1.87-2.49c-1.24,0-2.28,1.24-2.49,3.52l-0.62,7.67h-4.35L153.63,89.31z"/>
		<path id="XMLID_52_" d="M178.92,98.43c-4.35,0-7.05-2.9-7.05-7.26c0-4.98,3.11-7.88,8.09-7.88c4.35,0,7.05,2.9,7.05,7.26
			C186.8,95.53,184.11,98.43,178.92,98.43z M179.54,87.02c-2.07,0-3.11,1.45-3.11,3.94c0,2.07,1.04,3.32,2.7,3.32
			c1.87,0,3.11-1.45,3.11-3.94C182.24,88.48,181.41,87.02,179.54,87.02z"/>
		<path id="XMLID_49_" d="M197.17,98.43c-4.35,0-7.05-2.9-7.05-7.26c0-4.98,3.11-7.88,8.09-7.88c4.35,0,7.05,2.9,7.05,7.26
			C205.25,95.53,202.35,98.43,197.17,98.43z M198,87.02c-2.07,0-3.11,1.45-3.11,3.94c0,2.07,1.04,3.32,2.7,3.32
			c1.87,0,3.11-1.45,3.11-3.94C200.69,88.48,199.65,87.02,198,87.02z"/>
		<path id="XMLID_47_" d="M213.34,98.01h-4.35c0,0,0.62-10.16,0.62-10.57c0-1.87-0.21-2.9-0.41-3.94h4.35
			c0.21,0.62,0.21,0.83,0.41,1.66c1.45-1.24,2.9-1.87,4.56-1.87c2.7,0,4.35,1.87,4.15,4.98l-0.21,5.39c0,1.04,0.41,1.66,1.24,1.66
			c0.41,0,1.04-0.21,1.87-0.62l-0.21,2.9c-0.83,0.62-1.87,0.83-3.32,0.83c-2.7,0-4.15-1.66-4.15-3.94l0.41-5.18
			c0-1.24-0.62-2.28-1.87-2.28c-1.24,0-2.28,1.24-2.49,3.11L213.34,98.01z"/>
		<path id="XMLID_44_" d="M237.18,83.29c3.32,0,5.39,2.49,5.39,6.01c0,5.81-2.9,8.92-6.84,8.92c-1.45,0-2.28-0.21-3.32-1.04
			l-0.62,8.29h-4.35l1.04-18.24c0-1.04-0.21-2.7-0.41-3.52h4.15c0.21,0.41,0.21,0.62,0.21,1.45
			C234.28,83.71,235.31,83.29,237.18,83.29z M232.41,93.24c0.62,0.62,1.24,1.04,2.28,1.04c2.07,0,3.32-1.66,3.32-4.15
			c0-1.66-0.83-3.11-2.28-3.11c-1.87,0-3.11,1.87-3.11,4.15L232.41,93.24z"/>
		<path id="XMLID_42_" d="M255.22,83.71c0.62,0,0.83,0,1.66,0.41l-0.21,3.52c-0.62-0.21-0.83-0.21-1.24-0.21
			c-2.49,0-3.94,1.87-4.15,5.18l-0.41,5.6h-4.15l0.62-9.54c0.21-2.7,0-3.11-0.21-4.77h3.94c0.21,1.04,0.21,1.45,0.21,2.28
			C252.52,84.54,253.56,83.71,255.22,83.71z"/>
		<path id="XMLID_39_" d="M269.32,96.98c-1.66,1.04-3.11,1.24-4.98,1.24c-4.15,0-6.63-2.49-6.63-6.43c0-4.98,3.52-8.5,8.09-8.5
			c3.32,0,5.18,1.66,5.18,4.15c0,2.9-3.32,4.98-8.09,4.98c-0.21,0-0.62,0-1.04,0c0,1.66,1.04,2.7,2.7,2.7c1.45,0,2.9-0.62,4.56-1.45
			L269.32,96.98z M265.17,86.61c-1.24,0-2.28,1.24-2.7,2.9c0.41,0,0.62,0,0.83,0c2.07,0,3.32-0.62,3.32-1.66
			C266.41,87.23,266,86.61,265.17,86.61z"/>
		<path id="XMLID_37_" d="M273.26,93.66c1.66,0.83,3.94,1.66,5.39,1.66c1.04,0,1.66-0.41,1.66-1.04c0-0.62-0.41-0.83-1.66-1.45
			c-3.32-1.66-4.98-2.9-4.98-5.18c0-2.9,2.07-4.56,6.22-4.56c2.28,0,3.94,0.41,5.18,1.04l-0.62,3.32c-1.45-0.62-3.11-1.04-4.35-1.04
			c-1.04,0-1.66,0.21-1.66,1.04c0,0.62,0.21,0.83,2.28,1.66c3.32,1.45,4.35,2.7,4.35,4.77c0,2.7-2.28,4.56-6.01,4.56
			c-2.49,0-4.56-0.41-5.81-1.04L273.26,93.66z"/>
		<path id="XMLID_35_" d="M288.18,93.66c1.66,0.83,3.94,1.66,5.39,1.66c1.04,0,1.66-0.41,1.66-1.04c0-0.62-0.41-0.83-1.66-1.45
			c-3.32-1.66-4.98-2.9-4.98-5.18c0-2.9,2.07-4.56,6.22-4.56c2.28,0,3.94,0.41,5.18,1.04l-0.62,3.32c-1.45-0.62-3.11-1.04-4.35-1.04
			c-1.04,0-1.66,0.21-1.66,1.04c0,0.62,0.21,0.83,2.28,1.66c3.32,1.45,4.35,2.7,4.35,4.77c0,2.7-2.28,4.56-6.01,4.56
			c-2.49,0-4.56-0.41-5.81-1.04L288.18,93.66z"/>
	</g>
	<g id="XMLID_1_">
		<g id="XMLID_71_">
			<path id="XMLID_72_" d="M18.66,102.37c0-3.73,3.11-6.84,6.84-6.84s6.84,3.11,6.84,6.84s-3.11,6.84-6.84,6.84
				c-0.62,0-1.24,0-1.87-0.21c3.94,1.45,8.29,2.28,12.65,2.28c8.5,0,16.38-2.9,22.6-7.88c-1.45-0.21-2.7-0.41-4.15-0.62
				c-0.21,2.49-2.07,4.35-4.56,4.35s-4.56-2.07-4.56-4.56c0-1.04,0.41-1.87,0.83-2.7c-11.82-6.01-19.9-18.24-19.9-32.34
				c0-11.4,5.39-21.77,13.68-28.4c-1.24-0.41-2.49-0.41-3.94-0.41c-4.35,0-8.5,0.83-12.44,2.07c0.83,1.24,1.45,2.7,1.45,4.15
				c0,3.73-3.11,6.84-6.84,6.84c-2.9,0-5.18-1.66-6.22-4.15C4.77,54.47,0,64.22,0,75c0,1.87,0.21,3.94,0.41,5.81
				c0.62-0.21,1.24-0.21,2.07-0.21c3.73,0,6.84,3.11,6.84,6.84c0,2.9-1.66,5.18-4.15,6.22c3.94,6.63,9.95,11.82,17.21,14.93
				C20.11,107.34,18.66,105.06,18.66,102.37z M29.44,40.58c1.24,0,2.28,1.04,2.28,2.28c0,1.24-1.04,2.28-2.28,2.28
				s-2.28-1.04-2.28-2.28C27.16,41.62,28.2,40.58,29.44,40.58z M27.57,86.4c0,1.24-1.04,2.28-2.28,2.28s-2.28-1.04-2.28-2.28
				c0-1.24,1.04-2.28,2.28-2.28S27.57,85.16,27.57,86.4z M20.94,63.18c2.49,0,4.56,2.07,4.56,4.56s-2.07,4.56-4.56,4.56
				s-4.56-2.07-4.56-4.56C16.38,65.26,18.45,63.18,20.94,63.18z M17.83,78.11c0,1.24-1.04,2.28-2.28,2.28s-2.28-1.04-2.28-2.28
				c0-1.24,1.04-2.28,2.28-2.28C16.79,75.83,17.83,76.87,17.83,78.11z M4.77,70.02c-1.24,0-2.28-1.04-2.28-2.28
				c0-1.24,1.04-2.28,2.28-2.28s2.28,1.04,2.28,2.28C7.05,68.99,6.01,70.02,4.77,70.02z M6.43,58.83c0-2.49,2.07-4.56,4.56-4.56
				s4.56,2.07,4.56,4.56c0,2.49-2.07,4.56-4.56,4.56C8.5,63.18,6.43,61.32,6.43,58.83z M10.99,90.96c0-2.49,2.07-4.56,4.56-4.56
				s4.56,2.07,4.56,4.56s-2.07,4.56-4.56,4.56S10.99,93.45,10.99,90.96z"/>
		</g>
		<g id="XMLID_9_">
			<path id="XMLID_30_" d="M56.81,67.12c-0.21-0.21-0.41-0.41-0.83-0.62c0.21-0.21,0.41-0.21,0.62-0.62
				c0.21-0.21,0.21-0.41,0.21-0.83c0-0.21,0-0.41-0.21-0.83c-0.21-0.21-0.21-0.41-0.41-0.62c-0.21-0.21-0.41-0.21-0.62-0.21
				c-0.21,0-0.41,0-0.62,0v-1.24H53.9v1.24h-0.62v-1.24h-0.83v1.24H51v1.04h0.62c0.21,0,0.41,0.21,0.41,0.41v3.32
				c0,0.21-0.21,0.41-0.41,0.41H51v1.04h1.45v1.04h0.83v-1.04h0.62v1.04h1.04v-1.04c0.41,0,0.62,0,0.83,0
				c0.41,0,0.62-0.21,0.83-0.21c0.21-0.21,0.41-0.41,0.62-0.62c0.21-0.21,0.21-0.62,0.21-0.83C57.01,67.74,57.01,67.54,56.81,67.12z
				 M53.9,64.84c0.62,0,0.83,0,0.83,0c0.21,0,0.41,0,0.41,0.21c0.21,0.21,0.21,0.21,0.21,0.41c0,0.21,0,0.41-0.21,0.41
				c-0.21,0.21-0.21,0.21-0.41,0.21c-0.21,0-0.21,0-0.83,0h-0.83v-1.45h0.83V64.84z M55.36,68.57c-0.21,0.21-0.21,0.21-0.41,0.21
				s-0.21,0-0.62,0h-1.04v-1.66h0.83c0.62,0,0.83,0,0.83,0c0.21,0,0.21,0.21,0.41,0.21c0,0.21,0.21,0.21,0.21,0.41
				C55.56,68.37,55.56,68.57,55.36,68.57z"/>
			<path id="XMLID_29_" d="M51,53.23c-0.21,0-0.41,0-0.41,0c-0.83-0.83-0.21-1.24,0.21-1.66c0.21,0,0.41,0,0.41,0
				c1.24,0,2.07-0.83,2.07-2.07c0-1.24-0.83-2.07-2.07-2.07s-2.07,0.83-2.07,2.07c0,0.41,0.21,1.04,0.41,1.24
				c0,1.24-0.83,1.04-1.45,0.83c-0.21-0.83-1.04-1.45-2.07-1.45c-1.24,0-2.07,0.83-2.07,2.07c0,1.24,0.83,2.07,2.07,2.07
				c0.83,0,1.45-0.41,1.87-1.04c1.04-0.41,1.24,0.21,1.24,0.62c-0.21,0.41-0.41,0.83-0.41,1.24c0,1.24,0.83,2.07,2.07,2.07
				s2.07-0.83,2.07-2.07C53.08,54.27,52.25,53.23,51,53.23z"/>
			<g id="XMLID_26_">
				<path id="XMLID_28_" d="M60.54,46.39h1.04c-0.41,0.83-1.45,1.24-2.28,1.24s-1.87-0.62-2.28-1.24h1.04v-1.45l1.24,1.24l1.24-1.24
					V46.39z"/>
				<path id="XMLID_27_" d="M62.2,44.94c0,0.21,0,0.62-0.21,0.83h-0.83v-2.49l-1.87,1.87l-1.87-1.87v2.49H56.6
					c0-0.21-0.21-0.62-0.21-0.83c0-1.45,1.24-2.7,2.7-2.7C60.95,42.04,62.2,43.28,62.2,44.94z"/>
			</g>
			<g id="XMLID_13_">
				<g id="XMLID_24_">
					<polygon id="XMLID_25_" points="66.76,52.4 66.76,54.89 66.55,54.89 64.69,55.72 					"/>
				</g>
				<g id="XMLID_22_">
					<polygon id="XMLID_23_" points="64.69,55.93 66.76,55.1 66.76,56.96 					"/>
				</g>
				<g id="XMLID_20_">
					<polygon id="XMLID_21_" points="66.76,57.58 64.69,56.34 66.76,59.24 					"/>
				</g>
				<g id="XMLID_18_">
					<polygon id="XMLID_19_" points="66.76,52.4 66.76,54.89 66.97,54.89 68.83,55.72 					"/>
				</g>
				<g id="XMLID_16_">
					<polygon id="XMLID_17_" points="68.83,55.93 66.76,55.1 66.76,56.96 					"/>
				</g>
				<g id="XMLID_14_">
					<polygon id="XMLID_15_" points="66.76,57.58 68.83,56.34 66.76,59.24 					"/>
				</g>
			</g>
			<polygon id="XMLID_12_" points="67.8,67.54 68,66.71 68.83,66.29 68.62,65.67 68.21,65.88 68.62,63.8 67.17,63.8 66.55,66.5 
				65.72,66.71 65.93,67.33 66.34,67.12 65.93,68.57 69.66,68.57 69.87,67.54 			"/>
			<g id="XMLID_10_">
				<path id="XMLID_11_" d="M58.88,55.1c0-0.21,0-0.41,0-0.62c0.21,0,0.62,0,0.83,0c0,0.21,0,0.41,0,0.62c0.41,0,0.62,0,1.04,0
					c0,0.41,0,0.62-0.21,1.04c-0.41,0.62-0.83,1.24-1.24,1.87l0,0c0.62,0,1.04,0,1.66,0c0,0.41,0,0.62,0,0.83c-0.41,0-0.62,0-1.04,0
					c0,0.21,0,0.41,0,0.62c-0.21,0-0.62,0-0.83,0c0-0.21,0-0.41,0-0.62c-0.41,0-0.62,0-1.04,0c0-0.41,0-0.62,0.21-1.04
					c0.41-0.62,1.04-1.24,1.45-1.87l0,0c-0.41,0-1.04,0-1.45,0c0-0.21,0-0.62,0-0.83C58.26,55.1,58.67,55.1,58.88,55.1z"/>
			</g>
		</g>
	</g>
</g>
</svg>
