<svg width="151" height="32" viewBox="0 0 151 32" fill="none" xmlns="http://www.w3.org/2000/svg">
<g clip-path="url(#clip0)">
<path d="M19.9769 0H28.6857L36.4703 13.6178L32.7024 16.0356L36.5059 18.3111L28.6501 32H19.9769V25.5644H24.9889L28.5791 19.3067H19.9769V12.8356L28.6146 12.9422L25.06 6.57779H19.9769V0H28.1525C28.3302 0 28.4724 0.0355556 28.6146 0.142222C28.7568 0.213333 28.8634 0.355556 28.9701 0.497778L36.5059 13.6533" fill="#343434"/>
<path d="M18.1996 0V6.57779H13.1166L9.59749 12.9067H18.2352V19.3067H2.41717L0.319946 16L9.5264 0" fill="#23AADD"/>
<path d="M9.56195 31.9999L2.41718 19.271H9.56195L13.3654 25.6355L18.1997 25.671V31.9999H9.56195Z" fill="url(#paint0_linear)"/>
<path d="M49.0891 17.0667C49.0891 19.1289 50.0488 20.16 51.9683 20.16C52.9992 20.16 53.7812 19.7333 54.3144 18.9155H58.8998C57.9756 22.0089 55.6652 23.5378 51.9328 23.5378C50.7953 23.5378 49.7644 23.36 48.8047 23.04C47.845 22.6844 47.0629 22.2222 46.3875 21.5822C45.7122 20.9422 45.179 20.1955 44.8235 19.3067C44.468 18.4178 44.2548 17.4578 44.2548 16.3555C44.2548 15.2178 44.4325 14.2222 44.788 13.3333C45.1435 12.4444 45.6411 11.6622 46.2809 11.0222C46.9208 10.3822 47.7028 9.92003 48.627 9.56444C49.5512 9.20892 50.582 9.06665 51.755 9.06665C52.8925 9.06665 53.9233 9.24444 54.8476 9.56444C55.7717 9.92003 56.5182 10.4178 57.1581 11.0578C57.7979 11.6978 58.26 12.5155 58.6155 13.44C58.9354 14.3644 59.1131 15.4311 59.1131 16.6044V17.0667H49.0891ZM54.6698 14.2933C54.5277 13.6178 54.1722 13.0844 53.7101 12.6933C53.2124 12.3022 52.6082 12.0889 51.9328 12.0889C51.1863 12.0889 50.582 12.2667 50.1199 12.6578C49.6578 13.0489 49.3734 13.5822 49.2313 14.2933H54.6698Z" fill="#343434"/>
<path d="M62.277 3.16431H69.9553C71.7679 3.16431 73.1538 3.59098 74.1135 4.47986C75.0733 5.36875 75.5359 6.61321 75.5359 8.24873C75.5359 9.24432 75.358 10.0621 75.0022 10.7376C74.6471 11.3776 74.0783 11.9465 73.3675 12.4087C74.1135 12.551 74.7182 12.7643 75.2511 13.0487C75.7847 13.3332 76.1757 13.6887 76.4956 14.1154C76.8155 14.5421 77.0644 15.0043 77.2064 15.5376C77.3485 16.071 77.4195 16.6398 77.4195 17.2087C77.4195 18.1332 77.2416 18.9509 76.9217 19.6976C76.6018 20.4087 76.1399 21.0132 75.571 21.5109C74.967 22.0087 74.2562 22.3643 73.4385 22.6132C72.5856 22.8621 71.661 22.9687 70.5951 22.9687H62.3125V3.16431H62.277ZM67.4311 10.9509H68.3909C69.9904 10.9509 70.8081 10.3109 70.8081 9.03094C70.8081 7.75094 69.9904 7.11094 68.3909 7.11094H67.4311V10.9509ZM67.4311 19.0221H68.5687C69.8484 19.0221 70.8081 18.8443 71.3411 18.5243C71.9099 18.2043 72.1947 17.6709 72.1947 16.9243C72.1947 16.1776 71.9099 15.6443 71.3411 15.3243C70.7723 15.0043 69.8484 14.8265 68.5687 14.8265H67.4311V19.0221Z" fill="#343434"/>
<path d="M90.4292 9.52898H95.2279V23.0045H90.4292V21.5112C89.3984 22.7912 88.0477 23.4312 86.3061 23.4312C85.3105 23.4312 84.4218 23.2534 83.6048 22.8979C82.7871 22.5423 82.0762 22.0445 81.4364 21.369C80.7965 20.6934 80.3346 19.9467 80.0147 19.0934C79.6589 18.2045 79.5169 17.2445 79.5169 16.2134C79.5169 15.2534 79.6947 14.329 80.0147 13.4756C80.3346 12.6223 80.7965 11.8401 81.4005 11.2001C82.0052 10.5601 82.716 10.0267 83.5337 9.67119C84.3508 9.28009 85.2753 9.10229 86.2703 9.10229C87.9415 9.10229 89.3632 9.70671 90.465 10.8801V9.52898H90.4292ZM84.4225 16.2134C84.4225 16.6401 84.4935 17.0667 84.6707 17.4223C84.8134 17.8134 85.0265 18.1334 85.3105 18.4178C85.5953 18.7023 85.9152 18.9156 86.2703 19.0578C86.6619 19.2001 87.0528 19.3067 87.4789 19.3067C87.9057 19.3067 88.2966 19.2356 88.6876 19.0578C89.0785 18.9156 89.3984 18.6667 89.6473 18.4178C89.932 18.1334 90.1451 17.8134 90.2871 17.4578C90.4292 17.1023 90.536 16.7112 90.536 16.2845C90.536 15.8578 90.465 15.4667 90.2871 15.0756C90.1093 14.6845 89.8962 14.3645 89.6473 14.0801C89.3632 13.7956 89.0433 13.5823 88.6876 13.4401C88.3325 13.2978 87.9057 13.1912 87.4789 13.1912C87.0528 13.1912 86.626 13.2623 86.2703 13.4401C85.8793 13.5823 85.5594 13.8312 85.3105 14.0801C85.0265 14.3645 84.8134 14.6845 84.6707 15.0401C84.5287 15.3956 84.4225 15.7867 84.4225 16.2134Z" fill="#343434"/>
<path d="M98.4629 9.5288H103.226V11.2355C103.866 10.4533 104.541 9.91997 105.181 9.63549C105.857 9.35107 106.639 9.24438 107.527 9.24438C108.487 9.24438 109.269 9.38659 109.945 9.70659C110.62 10.0266 111.188 10.4533 111.65 11.0222C112.041 11.4844 112.29 11.9822 112.432 12.5511C112.575 13.12 112.646 13.76 112.646 14.4711V23.04H107.882V16.2133C107.882 15.5377 107.847 15.0044 107.74 14.6133C107.634 14.1866 107.456 13.8666 107.243 13.6177C107.03 13.4044 106.781 13.2622 106.532 13.1555C106.283 13.0844 105.999 13.0133 105.679 13.0133C104.861 13.0133 104.257 13.2622 103.83 13.7244C103.404 14.2222 103.191 14.8977 103.191 15.7866V23.0044H98.4629V9.5288Z" fill="#343434"/>
<path d="M126.295 29.7244V21.6889C125.194 22.8622 123.807 23.4311 122.101 23.4311C121.141 23.4311 120.253 23.2533 119.435 22.8622C118.618 22.5066 117.907 21.9733 117.302 21.3333C116.698 20.6933 116.236 19.9111 115.88 19.0578C115.525 18.2044 115.383 17.28 115.383 16.2844C115.383 15.2533 115.56 14.3289 115.916 13.44C116.271 12.5511 116.734 11.8044 117.374 11.1644C117.978 10.5244 118.689 9.99113 119.541 9.63555C120.395 9.28003 121.248 9.06665 122.208 9.06665C123.949 9.06665 125.336 9.70665 126.331 10.9867V9.49334H131.13V29.7244H126.295ZM120.324 16.2133C120.324 16.64 120.395 17.0666 120.573 17.4222C120.715 17.8133 120.928 18.1333 121.213 18.4178C121.497 18.7022 121.817 18.9155 122.172 19.0578C122.563 19.2 122.954 19.3066 123.38 19.3066C123.807 19.3066 124.198 19.2355 124.589 19.0578C124.98 18.9155 125.3 18.6666 125.549 18.4178C125.834 18.1333 126.047 17.8133 126.189 17.4222C126.366 17.0311 126.438 16.64 126.438 16.2133C126.438 15.7866 126.366 15.3955 126.189 15.04C126.011 14.6844 125.798 14.3644 125.549 14.08C125.265 13.7955 124.945 13.5822 124.589 13.44C124.198 13.2978 123.807 13.1911 123.38 13.1911C122.954 13.1911 122.563 13.2622 122.172 13.44C121.781 13.5822 121.461 13.8311 121.213 14.08C120.928 14.3644 120.715 14.6844 120.573 15.04C120.43 15.3955 120.324 15.7866 120.324 16.2133Z" fill="#343434"/>
<path d="M133.796 16.1422C133.796 15.1466 134.009 14.2222 134.4 13.3333C134.791 12.48 135.36 11.6978 136.071 11.0578C136.782 10.4178 137.635 9.91996 138.63 9.52886C139.625 9.17334 140.692 8.95996 141.865 8.95996C143.038 8.95996 144.104 9.13775 145.099 9.49334C146.095 9.84886 146.948 10.3466 147.659 10.9866C148.37 11.6266 148.938 12.3733 149.365 13.2622C149.756 14.1511 149.969 15.1111 149.969 16.1778C149.969 17.2444 149.756 18.24 149.365 19.0933C148.938 19.9822 148.405 20.7289 147.659 21.3689C146.948 22.0089 146.095 22.5066 145.064 22.8622C144.069 23.2178 142.967 23.3955 141.793 23.3955C140.621 23.3955 139.554 23.2178 138.594 22.8622C137.599 22.5066 136.782 22.0089 136.071 21.3689C135.36 20.7289 134.791 19.9467 134.4 19.0578C134.009 18.24 133.796 17.2444 133.796 16.1422ZM138.808 16.2133C138.808 16.6755 138.879 17.1022 139.057 17.4578C139.234 17.8489 139.448 18.1689 139.697 18.4533C139.981 18.7378 140.301 18.9511 140.656 19.0933C141.047 19.2355 141.438 19.3422 141.865 19.3422C142.291 19.3422 142.682 19.2711 143.073 19.0933C143.464 18.9511 143.784 18.7022 144.033 18.4533C144.318 18.1689 144.531 17.8489 144.673 17.4578C144.851 17.0666 144.922 16.6755 144.922 16.2489C144.922 15.8222 144.851 15.4311 144.673 15.04C144.495 14.6489 144.282 14.3289 144.033 14.0444C143.749 13.76 143.429 13.5466 143.073 13.4044C142.682 13.2622 142.291 13.1555 141.865 13.1555C141.438 13.1555 141.047 13.2266 140.656 13.4044C140.265 13.5466 139.945 13.7955 139.697 14.0444C139.412 14.3289 139.199 14.6489 139.057 15.0044C138.914 15.3955 138.808 15.7866 138.808 16.2133Z" fill="#343434"/>
</g>
<defs>
<linearGradient id="paint0_linear" x1="12.1801" y1="33.0624" x2="9.5284" y2="18.0312" gradientUnits="userSpaceOnUse">
<stop stop-color="#23AADD"/>
<stop offset="1" stop-color="#003358"/>
</linearGradient>
<clipPath id="clip0">
<rect width="151" height="32" fill="white"/>
</clipPath>
</defs>
</svg>
