<svg xmlns="http://www.w3.org/2000/svg" fill="#0d183b" viewBox="0 0 172 38" class="fill-darkBlue hover:fill-lavanda transition-all duration-300 w-[170px]"><path d="m24.33 28.686.065.006.354.029-.033.429q-.006.105-.02.22a.46.46 0 0 1-.137.265l-.109.11-.08.08-.003.004-.02.03-.108.142h-.852l.037-.463q.007-.104.02-.216a.5.5 0 0 1 .135-.28c.07-.072.148-.148.244-.238a.45.45 0 0 1 .314-.131q.099.003.192.013M26.77 28.54a.7.7 0 0 1-.14.42 1 1 0 0 0-.084.126.6.6 0 0 1-.251.228q-.029.015-.059.035l-.394.257.043-.501c.009-.11.02-.249.12-.373a1 1 0 0 0 .079-.11.73.73 0 0 1 .366-.307l.34-.144zM20.67 27.956c.23-.17.45-.128.56-.089q.096.034.199.067l.435.143v.702a.63.63 0 0 1-.271.506l-.11.08q-.073.056-.157.115a.64.64 0 0 1-.507.094c-.09-.024-.176-.053-.252-.078l-.07-.023-.355-.113v-.682a.63.63 0 0 1 .283-.544q.09-.062.188-.136zM16.86 26.349a.64.64 0 0 1 .602-.032l.25.112.438.194v1.108l-.364.212q-.14.084-.292.17a.6.6 0 0 1-.302.077.7.7 0 0 1-.261-.055l-.278-.125-.422-.194v-.727a.64.64 0 0 1 .324-.561c.12-.07.217-.126.304-.18M156.468 15.59q1.825 0 3.125.777v2.236a5.03 5.03 0 0 0-2.876-.878q-1.7 0-2.699 1.154-1 1.155-1.001 2.963 0 1.909.962 2.976.963 1.066 2.588 1.067 1.325 0 2.801-.803l.75 1.808q-1.626 1.129-3.9 1.13-2.75 0-4.313-1.72t-1.563-4.38q0-.765.138-1.458l.047-.222a6 6 0 0 1 1.552-2.842q1.738-1.808 4.389-1.808"></path><path d="M62.6 15.588q4.576 0 4.576 4.243V24.4q0 2.562.224 3.364h-2.222l-.425-1.202q-1.552 1.455-3.451 1.455-1.701.001-2.777-1.042-1.075-1.043-1.075-2.724 0-2.208 1.975-3.213 1.051-.552 3.026-.628l2.124-.075v-.502q.001-2.209-2.375-2.21-1.626.001-3.15.878l-.9-1.732a8.8 8.8 0 0 1 4.45-1.18m.203 6.604q-1.25.024-1.9.402-.825.45-.825 1.506 0 .854.525 1.343.526.489 1.4.489 1.325 0 2.575-1.13v-2.686z" clip-rule="evenodd"></path><path d="M73.154 15.59q1.8 0 3.276.577v2.235q-1.676-.728-3.175-.728-1.876.001-1.876 1.256 0 .577.575.98.575.402 1.4.703.826.3 1.638.689.813.39 1.388 1.18.576.792.575 1.92 0 1.808-1.325 2.711-1.326.904-3.35.904-2.276.001-4.076-1.105l.8-1.933q1.5.954 3.15.955 2.225-.001 2.226-1.48 0-.603-.575-1.018a5.9 5.9 0 0 0-1.388-.716q-.812-.3-1.625-.678a3.7 3.7 0 0 1-1.388-1.117q-.575-.741-.575-1.845.001-1.531 1.163-2.51 1.163-.98 3.162-.98"></path><path d="M98.183 15.59c1.717 0 3.084.585 4.151 1.757q1.6 1.758 1.601 4.444-.001 2.686-1.601 4.456t-4.151 1.77q-2.55 0-4.164-1.77t-1.613-4.456q0-2.685 1.6-4.444 1.602-1.758 4.177-1.757m.002 2.133q-1.452 0-2.277 1.13t-.824 2.938c0 1.205.274 2.21.824 2.962q.826 1.13 2.277 1.131 1.45-.001 2.262-1.13t.813-2.963c0-1.222-.272-2.185-.813-2.938q-.812-1.13-2.262-1.13M165.467 15.588q4.575 0 4.575 4.243V24.4q0 2.562.225 3.364h-2.223l-.425-1.202q-1.55 1.455-3.451 1.455-1.701.001-2.776-1.042-1.076-1.043-1.076-2.724 0-2.208 1.975-3.213 1.051-.552 3.026-.628l2.124-.075v-.502q0-2.209-2.375-2.21-1.625.001-3.15.878l-.899-1.732a8.8 8.8 0 0 1 4.45-1.18m.202 6.604q-1.25.024-1.9.402-.825.45-.825 1.506 0 .854.526 1.343.525.489 1.399.489 1.325 0 2.575-1.13v-2.686z" clip-rule="evenodd"></path><path d="M55.933 20.46h-.002v6.136q-2.555 1.335-5.902 1.335-3.96 0-6.31-2.348-1.973-1.97-2.29-4.91h2.9q.3 1.961 1.51 3.255 1.61 1.718 4.395 1.719 1.837-.001 3.015-.565V20.46h-4.568v-2.616h7.252zM91.356 13.381h-5.4v4.846h5.3v2.16h-5.3v7.38h-2.625V11.222h8.751zM65.179 27.767l-.005-.003h.004zM111.085 15.59q.9 0 1.551.427l-.926 2.235a2.5 2.5 0 0 0-1.25-.327q-1.1 0-2.525 1.33v8.512h-2.601V15.892h2.177l.299 1.38q1.65-1.683 3.275-1.682"></path><path d="M130.289 27.767h-2.801l-1.601-4.243h-6.126l-1.575 4.243h-2.7l6.326-16.621h1.951zm-7.476-12.83q-.274.929-.899 2.66l-1.375 3.766h4.523l-1.325-3.765q-.325-.954-.874-2.661z" clip-rule="evenodd"></path><path d="M135.767 9.991q1.224 0 2.275.477l-.525 2.084q-.826-.3-1.425-.3-1.525 0-1.525 1.807v1.833h3.051l-.65 2.057h-2.401v9.818h-2.602v-9.818h-1.701v-2.057h1.701v-1.783q0-2.033 1.051-3.076 1.049-1.041 2.751-1.042M144.091 15.59q.9 0 1.551.427l-.926 2.235a2.5 2.5 0 0 0-1.25-.327q-1.1 0-2.526 1.33v8.512h-2.6V15.892h2.177l.298 1.38q1.65-1.683 3.276-1.682M148.817 27.767h-2.6V15.892h2.6zM168.045 27.767l-.005-.003h.004zM28.097 25.524q0 .095-.002.197c-.005.103-.044.182-.065.224l-.054.106q-.042.076-.073.145a.57.57 0 0 1-.345.319l-.093.037-.514.207.027-.638q.004-.11.011-.221c.008-.105.052-.183.075-.225q.026-.047.056-.095a1 1 0 0 0 .058-.103c.116-.277.356-.34.472-.37l.447-.115zM26.361 25.189v.686a.4.4 0 0 1-.093.244q-.123.15-.25.297l-.19.228-.772-.155v-.719a.42.42 0 0 1 .101-.265q.123-.14.251-.282l.205-.23zM14.025 24.741l.06 1.038-.376.203q-.132.072-.274.144c-.08.04-.17.06-.26.06a.6.6 0 0 1-.26-.058l-.186-.09q-.065-.034-.128-.065a.6.6 0 0 1-.341-.528l-.011-.231-.022-.425.888-.491zM23.226 23.849l.34.15a.52.52 0 0 1 .319.476q.008.25.02.502a.58.58 0 0 1-.198.47q-.157.137-.317.28l-.329.29-.303-.12-.108-.042-.095-.04a3 3 0 0 0-.179-.07.56.56 0 0 1-.386-.537 22 22 0 0 0-.016-.456l-.002-.044a.55.55 0 0 1 .197-.459q.165-.139.33-.28l.342-.29zM19.581 22.176l.465.21c.179.08.29.24.305.44l.037.494.033.424-.995.723-1.134-.497-.11-1.241 1.016-.726zM8.963 22.652a.59.59 0 0 1 .476-.025q.136.055.264.111l.355.153.09.973-.842.447-.834-.384-.04-.348q-.015-.122-.028-.255a.56.56 0 0 1 .27-.51q.15-.092.289-.163M28.623 22.727l.018.154c.038.325-.01.578-.167.845l-.075.126h-.207l-.056-.001q-.056-.004-.085-.013l-.011-.003-.2-.042-.004-.28-.006-.31a.3.3 0 0 1 .036-.15l.132-.254.135-.26zM26.98 21.679l.084.058c.047.032.092.063.13.082.21.1.317.283.317.54 0 .096.007.196.017.316a.46.46 0 0 1-.108.35q-.099.117-.202.247l-.242.297-.766-.39-.021-.22q-.008-.066-.013-.133l-.011-.162-.015-.218a.5.5 0 0 1 .156-.416q.094-.092.192-.203l.09-.1.176-.188zM5.441 21.478a.5.5 0 0 1 .362-.048 5 5 0 0 1 .236.058.475.475 0 0 1 .375.466l.03.452-.288.166q-.1.06-.215.12a.44.44 0 0 1-.202.047.6.6 0 0 1-.166-.026l.108-.395-.113.394q-.087-.026-.181-.056l-.318-.097-.126-.775.3-.185q.095-.061.198-.121M15.725 20.487l.02.008.017.005c.078.025.223.072.329.215.101.137.111.288.117.37l.002.025.052.407.05.406-.272.212-.162.113c-.116.081-.236.165-.35.247a.57.57 0 0 1-.335.114.6.6 0 0 1-.232-.051 22 22 0 0 0-.588-.247.54.54 0 0 1-.339-.44l-.045-.368-.032-.26-.006-.076v-.016l-.014-.237 1.013-.737zM24.54 19.929l.083.053.139.088q.15.098.302.193a.51.51 0 0 1 .247.392c.018.18.039.357.061.545q.013.103.024.206l.023.198-.88.793-.534-.298c-.098-.055-.19-.109-.285-.16a.5.5 0 0 1-.27-.402q-.031-.291-.065-.59l-.047-.42.927-.771zM1.423 21.784a.45.45 0 0 1 .377.055l.133.082-.064.143a.48.48 0 0 1-.289.275.4.4 0 0 1-.124.019.47.47 0 0 1-.249-.076l-.13-.08.06-.142a.47.47 0 0 1 .286-.276M28.655 20.873q.072.2.08.388.001.015.004.03l.007.04.003.022v.287l-.212.593-.342-.347c-.182-.184-.197-.408-.207-.556l-.008-.154c-.006-.194.037-.272.165-.41l.341-.365zM3.386 21.423q.01.03.017.058c.058.22.01.362-.173.495a.67.67 0 0 1-.472.168l-.114-.004-.224-.014-.08-.237-.01-.03a.405.405 0 0 1 .16-.49c.165-.172.366-.183.489-.19l.055-.003.266-.024zM2.09 20.785l-.048.097c-.122.24-.277.52-.492.765l-.088.1-.12-.056a.22.22 0 0 1-.122-.128.23.23 0 0 1 .014-.181q.034-.07.064-.14c.06-.137.123-.28.227-.412q.052-.065.103-.14l.053-.076.146-.204zM1.058 21.48 1 21.475v-.088l.02-.226a10 10 0 0 1 .057-.549 7 7 0 0 1 .098-.5q.022-.093.04-.187l.03-.125q.02-.082.037-.165c.013-.068.05-.102.123-.109l.034-.001zM10.984 18.937q.299.084.602.165a.43.43 0 0 1 .325.358c.024.153.051.304.08.464l.063.361-.154.135a1 1 0 0 1-.062.052l-.17.129-.331.25a.47.47 0 0 1-.445.08 25 25 0 0 0-.467-.148l-.184-.057-.192-.06-.19-1.071.308-.25q.2-.162.393-.32c.121-.1.272-.132.424-.088M27.622 19.217l.071.092.076.101q.069.097.14.184a.63.63 0 0 1 .14.327c.018.152.029.305.039.447a.26.26 0 0 1-.083.203q-.091.082-.185.164l-.188.165-.214-.211-.302-.302a.3.3 0 0 1-.08-.17q-.038-.268-.073-.54l-.037-.276.564-.351zM20.986 17.701q.03.01.088.04l.27.143.514.274a.59.59 0 0 1 .323.44l.1.644.043.277a.5.5 0 0 1 .006.1v.244l-1.112.864-.267-.105q-.031-.01-.087-.036l-.245-.122-.524-.258a.62.62 0 0 1-.352-.478c-.033-.216-.07-.437-.105-.65l-.037-.225a.57.57 0 0 1 .222-.574q.258-.19.515-.383l.395-.298zM4.507 19.07l.06.18a.35.35 0 0 1-.074.358l-.135.153-.188.215a.4.4 0 0 1-.178.117q-.18.058-.363.112l-.025.008a.3.3 0 0 1-.092.013h-.226l-.066-.193-.02-.056q-.03-.082-.055-.173a.37.37 0 0 1 .06-.314c.086-.114.18-.236.303-.392a.4.4 0 0 1 .17-.127q.158-.061.324-.123l.387-.148zM2.533 18.183q.076.004.133.056c.186.174.205.272.096.502l-.248.52a1 1 0 0 1-.066.12l-.275.405-.23.337-.36-.32.048-.15.02-.061.047-.124q.049-.12.09-.237.11-.333.313-.609.062-.087.126-.183l.068-.104q.021-.031.042-.056l.082-.108zM7.229 18.383l.58.03.069.262q.016.056.028.111l.027.116q.022.1.046.192a.4.4 0 0 1-.128.423c-.125.107-.257.223-.414.363a.43.43 0 0 1-.295.117V20l-.053-.003q-.193-.02-.395-.039l-.369-.036-.077-.324a13 13 0 0 1-.077-.333.4.4 0 0 1 .103-.357c.137-.137.28-.278.438-.43a.4.4 0 0 1 .287-.105q.118.004.23.011M1.747 17.374l-.005.032-.012.055-.16.644-.36 1.454a.5.5 0 0 1-.102.186l-.016.02-.026-.008-.018-.007-.03-.01.004-.03.019-.15.043-.336.016-.13c.012-.11.026-.227.05-.339.047-.214.108-.43.166-.637l.004-.014q.033-.116.07-.227.046-.141.086-.288a.38.38 0 0 1 .216-.257l.069-.035zM27.515 17.47q.035.022.07.04c.12.068.255.145.321.32.048.126.103.254.155.378q.063.143.124.292c.058.145.082.296.107.442q.014.081.03.166l.052.258-.234-.119-.053-.025a1 1 0 0 1-.12-.064.3.3 0 0 1-.1-.108q-.174-.31-.344-.622a.5.5 0 0 1-.053-.13c-.047-.198-.092-.4-.135-.596l-.003-.012q-.006-.034-.007-.066l-.003-.032-.022-.251zM25.499 16.743q.12.11.238.218l.134.126q.095.09.192.179a.62.62 0 0 1 .193.313l.006.023a3.4 3.4 0 0 1 .112.692l.015.145.02.183-.86.59h-.001l-.224-.18-.096-.076-.128-.101q-.213-.169-.426-.335a.47.47 0 0 1-.179-.286l-.09-.464-.084-.432a1 1 0 0 1-.01-.083l-.001-.025-.019-.198.936-.538zM17.296 16.001l.14.053q.136.052.275.102a.61.61 0 0 1 .407.464c.065.315.136.634.202.931a.585.585 0 0 1-.226.611c-.236.176-.486.363-.761.575a.6.6 0 0 1-.358.126h-.002a.6.6 0 0 1-.221-.043c-.309-.12-.625-.237-.93-.352l-.024-.009a.57.57 0 0 1-.381-.43q-.08-.382-.164-.767l-.118-.544 1.3-1.036zM1.983 15.849l-.016.053-.198.586q-.26.765-.516 1.532c-.026.077-.064.149-.1.218q-.032.056-.06.116l-.007.016-.052-.018.02-.107.035-.19c.101-.601.33-1.173.536-1.661.09-.213.178-.38.278-.529a.2.2 0 0 1 .059-.062l.046-.03zM3.51 15.905l-.053.133-.025.063-.38.808-.006.012q-.016.038-.043.081l-.472.7-.082.121q-.006.01-.02.025l-.068.078-.356-.135.05-.157.027-.08.3-.81a.6.6 0 0 1 .067-.13q.25-.368.503-.734l.05-.074q.019-.024.034-.038l.012-.012.067-.072zM5.486 15.945q.02.028.04.068.029.055.055.11.04.082.081.161a.34.34 0 0 1-.027.378q-.15.2-.297.4l-.188.254a.4.4 0 0 1-.134.118l-.526.271-.365.188-.001.002-.162-.31-.108-.204a.33.33 0 0 1 .018-.34l.192-.299.25-.387a.4.4 0 0 1 .141-.134l.527-.302.364-.207zM50.439 10.614q2.529 0 4.803.871V14a10.1 10.1 0 0 0-4.598-1.103q-3.068 0-4.74 1.757-1.234 1.295-1.558 3.21h-2.857q.431-2.8 2.383-4.75 2.505-2.5 6.566-2.5M12.225 14.693l.075.011.586.096q.146.025.297.053l.374.066.409 1.488-.673.591c-.11.096-.224.196-.333.295a.49.49 0 0 1-.448.12c-.33-.072-.666-.144-.998-.214a.47.47 0 0 1-.367-.346l-.223-.807a.4.4 0 0 1-.015-.36l.087-.183.083-.013c.29-.267.512-.474.719-.67a.49.49 0 0 1 .427-.127M21.635 14.14a.42.42 0 0 1 .457.01q.248.162.497.32l.47.3c.076.05.141.121.185.202.04.075.091.166.114.276.045.213.086.429.126.637l.045.232.04.203-1.07.704-.145-.054a.4.4 0 0 1-.087-.038l-1.013-.6a.45.45 0 0 1-.218-.281l-.21-.82-.073-.284-.01-.045-.04-.218.2-.125q.037-.024.076-.046l.218-.123q.22-.123.438-.25M9.496 15.768l-.096.123a1 1 0 0 1-.048.06l-.228.237-.41.427a.4.4 0 0 1-.267.125 36 36 0 0 0-.76.054l-.063.002h.001-.257l-.346-.94.207-.237.273-.314.089-.1q.082-.092.16-.185a.4.4 0 0 1 .269-.147l.482-.06.255-.033.118-.011.251-.026zM25.123 14.642l.088.006q.1.005.194.014.063.006.126.017.065.01.13.016.074.007.122.068l.19.231c.18.221.368.45.549.678a.7.7 0 0 1 .11.242c.044.147.082.299.119.445l.039.15a.06.06 0 0 1-.006.047l-.01.03-.153.006-.302.013h-.011a.18.18 0 0 1-.137-.06q-.184-.196-.37-.392-.185-.194-.367-.39a.4.4 0 0 1-.082-.129 61 61 0 0 1-.22-.705l-.049-.157-.014-.069-.013-.066zM25.615 13.558l.2.182q.304.28.517.626c.118.193.242.388.36.576q.119.187.236.375c.092.147.258.516.296.657l.107.402-.302-.329-.034-.038-.336-.383-.009-.01q-.034-.039-.069-.084l-.824-1.108a1 1 0 0 1-.072-.113l-.254-.527-.063-.13-.015-.037-.03-.074.131-.135zM4.001 13.72a2 2 0 0 1-.089.165 5 5 0 0 0-.124.231 7 7 0 0 1-.707 1.146c-.1.132-.193.273-.283.41l-.07.104c-.03.046-.07.091-.146.098a.6.6 0 0 0-.106.024l-.06.016-.045.012v-.002l.014-.044.01-.034.02-.055q.195-.465.392-.93a.5.5 0 0 1 .054-.096c.23-.315.493-.672.753-1.02a.2.2 0 0 1 .115-.078c.057-.011.117-.014.18-.018l.086-.007.045-.004zM6.255 12.986c.11.071.321.316.4.438l.069.106-.103.135-.061.082-.156.211q-.203.279-.41.556a.6.6 0 0 1-.158.144q-.286.182-.572.36l-.208.132-.063.04-.166.105-.477-.514.09-.15.046-.077.058-.09q.23-.366.463-.73a.5.5 0 0 1 .128-.134q.357-.24.714-.474l.308-.204zM4.603 12.279l-.03.041-.128.17-.168.22-.353.469c-.303.402-.616.816-.928 1.222-.067.087-.146.16-.23.239l-.117.112-.294.294.17-.38c.29-.643 1.383-2.076 1.982-2.51l.361-.262zM17.44 12.168a.45.45 0 0 1 .41-.044c.421.156.852.312 1.268.463l.016.006a.42.42 0 0 1 .262.268l.258.764.107.318a.3.3 0 0 1 .016.127v.145l-.118.093q-.02.018-.054.04l-.26.17-.652.43a.43.43 0 0 1-.396.047c-.5-.182-.909-.328-1.284-.46a.48.48 0 0 1-.31-.313c-.08-.241-.164-.488-.245-.725l-.089-.262-.022-.067-.082-.249.209-.146q.036-.027.07-.05l.296-.182zM22.473 11.904c.07-.009.129.009.187.052l.58.435.555.417q.045.034.088.097c.03.044.06.092.08.144q.106.288.21.58l.096.26-.058.013-.193.036c-.145.027-.281.052-.415.09a.5.5 0 0 1-.133.021.46.46 0 0 1-.277-.102c-.272-.195-.557-.385-.833-.568l-.204-.136a.33.33 0 0 1-.132-.16l-.26-.643-.097-.238-.031-.079-.042-.104.063-.01.126-.02q.138-.022.27-.04.12-.015.239-.026zM10.297 11.595c.064.108.127.205.195.306.07.106.143.215.216.34l.112.189-.142.167-.025.031a1 1 0 0 1-.08.098q-.193.192-.372.385-.202.218-.427.44a.53.53 0 0 1-.262.14c-.327.062-.658.121-.979.18l-.188.034a1 1 0 0 1-.072.007h-.01l-.188.015-.594-.986.214-.242.143-.159.022-.025c.195-.213.396-.434.596-.649a.5.5 0 0 1 .252-.146c.36-.081.725-.16 1.08-.237l.117-.026q.056-.01.088-.01h.016l.19-.016zM13.587 11.203q.14.014.284.026c.132.011.269.022.4.038l.06.003c.19.006.509.018.624.28l.33.743.201.45-.173.163a1 1 0 0 1-.06.054l-.296.229c-.226.174-.46.355-.687.534a.5.5 0 0 1-.409.104c-.216-.033-.44-.06-.657-.088l-.13-.016q-.195-.024-.39-.047l-.207-.025-.05-.008-.164-.032-.066-.148a6 6 0 0 1-.19-.508c-.053-.156-.103-.306-.171-.46l-.09-.205.167-.15a8.5 8.5 0 0 1 .897-.671l.143-.098c.223-.192.444-.187.634-.168M147.63 10.281c.978.076 1.634.85 1.564 1.843-.071 1.01-.859 1.705-1.842 1.626-.966-.078-1.696-.928-1.616-1.885.084-.978.9-1.66 1.894-1.584M22.114 10.564l.047.013a1 1 0 0 1 .071.024c.26.112.54.232.818.354a.5.5 0 0 1 .115.075l1.281 1.113a1 1 0 0 1 .076.077c.175.208.304.45.43.682l.114.215-.23-.105-.04-.019-.189-.085-.492-.221a.6.6 0 0 1-.13-.076c-.518-.405-.938-.735-1.32-1.037a.7.7 0 0 1-.132-.142q-.169-.248-.332-.492l-.107-.162q-.017-.023-.038-.056l-.143-.219zM7.04 10.839q.15.059.309.118l.193.073-.174.2-.248.283-.206.24q-.12.143-.244.284a.5.5 0 0 1-.103.091l-.414.278-.69.466a.22.22 0 0 1-.125.045h-.001a.2.2 0 0 1-.088-.021c-.067-.03-.137-.051-.212-.076q-.05-.015-.1-.034l-.06-.02.032-.054.014-.023a.4.4 0 0 1 .032-.052l.005-.007q.333-.448.668-.895a.4.4 0 0 1 .102-.095l.765-.513.39-.262c.027-.018.082-.054.154-.026M18.581 9.848l.587.234q.494.197.986.396.054.021.109.078a1 1 0 0 1 .096.119c.115.17.194.36.27.544q.062.149.132.298l.026.053-.101.033q-.043.012-.08.025l-.215.074c-.217.075-.44.153-.66.233a.32.32 0 0 1-.235-.005c-.511-.194-1.018-.384-1.506-.562a.33.33 0 0 1-.191-.168c-.107-.201-.22-.406-.328-.603l-.127-.23-.034-.062-.047-.088.053-.022.03-.012q.034-.015.066-.026l.379-.116.645-.198a.2.2 0 0 1 .145.005M8.35 9.655l-.173.13c-.126.094-.256.192-.38.291-.267.218-.565.43-.937.667-.203.13-.406.269-.602.404q-.174.12-.349.238a1 1 0 0 1-.193.1q-.117.05-.23.094l-.1.04-.045.018-.094.039h-.002l-.129-.168.084-.062.03-.021.042-.033a8.3 8.3 0 0 1 1.232-.974q.162-.104.322-.21c.274-.18.557-.367.853-.527.162-.088.35-.154.589-.207l.459-.102zM11.074 9.256c.028-.007.094-.022.153.027l.409.344.197.165-.075.063-.033.027-.171.133-.852.66a.3.3 0 0 1-.118.061q-.632.153-1.265.301l-.278.067-.032.007-.038.007-.6-.503.038-.04.023-.023q.026-.029.056-.057l.041-.034c.284-.245.578-.5.868-.747a.4.4 0 0 1 .138-.07l1.25-.316zM14.743 9.008a31 31 0 0 1 1.098.103c.054.006.11.033.145.068l.035.033c.071.068.145.139.203.223.089.13.17.26.255.4l.105.17.041.064-.064.041-.021.014-.05.03-.385.195q-.41.206-.819.415a.34.34 0 0 1-.157.042v-.001l-.031-.001-.165-.018c-.242-.025-.491-.052-.737-.074-.15-.014-.305-.023-.455-.033l-.21-.015-.064-.004a4 4 0 0 1-.197-.016.2.2 0 0 1-.123-.066q-.244-.321-.488-.648l-.165-.22.07-.046.024-.016a1 1 0 0 1 .066-.041l.053-.029c.352-.192.716-.391 1.075-.585a.3.3 0 0 1 .158-.039c.292.017.583.038.803.054"></path><path d="M15.03 8.005q.228.008.442.03c.308.034.622.073.892.107.18.022.358.05.493.07.068.01.138.022.206.046.191.07.359.18.521.288l.164.107.03.018h.128q.06-.004.118.001l.594.067.356.04q.19.022.344.092l.638.285c.352.158.718.321 1.075.484.078.035.154.09.217.153q.187.191.363.385.06.063.117.128a.1.1 0 0 1 .026.052l.003.007.038.118-.122-.018-.127-.018a7 7 0 0 0-.27-.037l-.353-.036q-.16-.014-.321-.032a.7.7 0 0 1-.178-.04c-.54-.22-1.122-.46-1.833-.754a.4.4 0 0 1-.128-.08q-.248-.243-.494-.488l-.134-.133-.025-.027-.06-.065-.004.01-.031.002-.114.005q-.122.001-.243.016c-.203.029-.409.063-.608.096l-.212.035-.018.003a1 1 0 0 0-.096.02.6.6 0 0 1-.185.029c-.082 0-.162-.013-.241-.026l-.014-.002a9 9 0 0 0-1.144-.115c-.285-.01-.582-.024-.91-.04a.24.24 0 0 1-.135-.043c-.204-.164-.44-.266-.687-.364l-.039-.019-.108-.051-.086.05-.014.008a.3.3 0 0 1-.044.023c-.41.15-.813.327-1.225.51-.082.036-.171.054-.257.073L11.224 9l-.229.059-1.393.356a.5.5 0 0 1-.122.016L9.48 9.43l-.026-.001a26 26 0 0 1-.46-.036l-.122-.01a.1.1 0 0 1-.031-.008l-.016-.006-.106-.034.096-.058.027-.017a.4.4 0 0 1 .05-.027l.289-.136c.24-.113.49-.23.737-.339a5 5 0 0 1 .839-.254l.04-.009c.434-.104.865-.2 1.28-.289.1-.021.208-.016.309-.009q.23.017.475.069l.117.023.064-.031.06-.03q.428-.133.91-.175l.192-.02c.096-.01.196-.023.295-.028.178-.008.36-.005.531 0"></path></svg>