<?xml version="1.0" encoding="UTF-8"?>
<svg id="Layer_2" xmlns="http://www.w3.org/2000/svg" viewBox="0 0 1198.51 351.38">
  <g id="Layer_1-2" data-name="Layer_1">
    <g>
      <g>
        <path d="M140.89,135.87v-59.79h-31.4c.76-.54,1.53-1.06,2.31-1.57,10.86-7.06,23.49-10.79,36.53-10.79,37.04,0,67.17,30.13,67.17,67.17v4.26h63.21v-4.26c0-17.59-3.45-34.67-10.26-50.76-6.57-15.53-15.97-29.47-27.93-41.43-11.97-11.97-25.91-21.36-41.43-27.93C182.99,3.95,165.92.5,148.33.5c-25.3,0-49.85,7.26-70.99,21-6.23,4.05-12.1,8.62-17.55,13.66V0H0v74.57l76.84,61.3h64.05Z"/>
        <path d="M140.89,140.74v59.79h31.01c-11.3,8.08-24.79,12.43-38.96,12.43-37.04,0-67.17-30.13-67.17-67.17v-4.26H2.57v4.26c0,17.59,3.45,34.66,10.26,50.76,6.57,15.53,15.97,29.47,27.93,41.43,11.96,11.96,25.9,21.36,41.43,27.93,16.09,6.81,33.17,10.26,50.76,10.26,33.12,0,65.02-12.69,89.04-35.14v35.25h59.79v-74.25l-76.84-61.3h-64.05Z"/>
      </g>
      <g>
        <path d="M492.31,176.16h60.41v.39c-3.9,14.81-11.37,25.47-22.41,31.96-11.05,6.5-22.93,9.74-35.66,9.74-20.27,0-35.92-7.21-46.96-21.63-11.05-14.42-16.56-33.71-16.56-57.88s5.58-42.8,16.76-57.49c11.17-14.68,26.5-22.02,45.99-22.02,14.29,0,25.98,4.09,35.08,12.28,9.09,8.18,15.07,19.04,17.93,32.54h70.54c-1.82-20.27-7.99-38.26-18.51-53.98-10.52-15.72-24.69-27.99-42.48-36.83-17.8-8.83-38-13.25-60.61-13.25-28.32,0-52.88,5.72-73.66,17.15-20.79,11.44-36.7,27.54-47.74,48.33-11.05,20.79-16.56,45.21-16.56,73.27s5.39,52.17,16.17,73.08c10.78,20.92,26.05,37.09,45.8,48.52,19.74,11.44,42.61,17.15,68.6,17.15,16.63,0,31.24-2.73,43.85-8.18,12.6-5.46,22.93-13.12,30.98-23l7.8,28.84h47.55V121.6h-126.28v54.56Z"/>
        <path d="M768.29,74.05h-9.74c-14.03,0-25.47,2.47-34.3,7.41-8.84,4.94-16.24,12.34-22.22,22.22l-5.09-27.61h-62.34v199.09h67.43v-96.66c0-29.88,13.64-44.82,40.92-44.82h25.33v-59.63Z"/>
        <path d="M934.55,83.8c-16.24-8.05-35.02-12.08-56.32-12.08s-39.04,4.23-54.76,12.67c-15.72,8.45-27.93,20.46-36.64,36.05-8.71,15.59-13.06,33.91-13.06,54.95s4.48,38.85,13.45,54.17c8.96,15.33,22.02,27.15,39.17,35.47,17.15,8.32,37.54,12.47,61.19,12.47,18.18,0,34.23-3.18,48.13-9.55,13.9-6.36,24.94-14.94,33.13-25.72,8.18-10.78,13.18-22.67,15.01-35.66h-66.26c-3.9,14.81-15.46,22.22-34.69,22.22-22.61,0-35.6-12.47-38.97-37.42v-.78h140.31c1.3-6.24,1.95-13.51,1.95-21.83,0-19.23-4.55-36.18-13.64-50.86-9.1-14.68-21.76-26.05-38-34.1ZM844.71,149.27c1.56-9.61,5.52-16.95,11.89-22.02,6.36-5.07,14.74-7.6,25.14-7.6s18.51,2.53,25.14,7.6c6.63,5.07,10.85,12.41,12.67,22.02h-74.83Z"/>
        <path d="M1115.22,292.48h.05l-10.27,26.7c-7.46,19.4-26.1,32.2-46.88,32.2h-64.99v-55.66h43.41c3,0,5.69-1.84,6.77-4.64,1.79-4.61,4-10.33,5.6-14.59l-76.46-200.42h71.58l36.81,116.93,4.65,14.74,41.07-131.67h71.96l-83.29,216.42Z"/>
      </g>
    </g>
  </g>
</svg>