<svg xmlns="http://www.w3.org/2000/svg" width="159" height="30" viewBox="0 0 159 30" fill="none" class="injected-svg js-svg-icon svg-icon" data-src="/etc.clientlibs/dotcom/clientlibs/dotcom/common/head/resources/images/icons/logo.svg" data-fallback="/etc.clientlibs/dotcom/clientlibs/dotcom/common/head/resources/images/icons/logo.png">
    <path fill-rule="evenodd" clip-rule="evenodd" d="M22.3985 9.32779H19.8799C19.1645 6.81054 17.0072 4.83049 14.2821 4.19343V2.88832C18.3126 3.50472 21.5135 6.0564 22.3985 9.32779ZM4.67957 11.6247C4.92664 15.2197 8.0316 18.0951 11.9036 18.3224V11.6247H4.67957ZM12.8882 5.08876V10.6914H24.7954V11.6247H22.6271C22.3616 15.5365 18.8584 18.7287 14.2821 19.4278V18.1227C17.4866 17.3754 19.8983 14.7755 20.1196 11.6247H12.8882V17.341H12.8808V20.6743H12.8882V21.7453H11.9073V19.569C6.65981 19.3658 2.44488 15.9257 2.16093 11.6247H0V10.6914H11.9036V3.99026C8.5368 4.18655 5.75266 6.39043 4.91557 9.32779H2.39694C3.38153 5.68794 7.23139 2.93653 11.9073 2.75402V0.570801H12.8882V1.75883H12.8808V5.08876H12.8882ZM38.045 11.0702V10.6846H32.7348V11.0702C33.2732 11.0702 33.8153 11.2837 33.8153 11.635V28.7667C33.8153 29.1455 33.2732 29.3315 32.7348 29.3315V29.7171H38.045V29.3315C37.5066 29.3315 36.9645 29.1352 36.9645 28.7667V11.635C36.9645 11.2562 37.5066 11.0702 38.045 11.0702ZM97.7546 26.2874L97.9206 28.629C99.226 29.1731 100.978 29.5553 102.471 29.5553C106.907 29.5553 108.884 27.6476 108.884 25.8466C108.884 23.5475 106.392 22.766 104.083 22.0418C102.09 21.4167 100.233 20.8344 100.233 19.3555C100.233 18.1847 101.649 17.5579 103.139 17.5579C105.528 17.5579 106.911 17.9229 107.365 19.4278H107.844L107.803 17.4753C106.35 16.9312 104.746 16.6833 103.552 16.6833C99.4509 16.6833 97.7731 18.6461 97.7731 20.1716C97.7731 22.5373 100.134 23.3284 102.311 24.0581C104.175 24.6826 105.904 25.2621 105.904 26.7454C105.904 27.7027 105.082 28.6841 102.88 28.6841C100.163 28.6841 98.7613 27.8989 98.1234 26.2288L97.7546 26.2874ZM73.0809 17.5063V17.1206H77.7309V17.5063C77.2073 17.5063 76.5288 17.6647 75.983 18.5015L69.2089 29.6001L62.6634 18.7253C62.0771 17.7921 61.5203 17.5028 60.709 17.5028V17.1172H67.1697V17.5028C66.4211 17.5028 65.8753 17.9057 66.0634 18.4705L70.1013 25.6847L74.165 18.5634C74.4932 17.9574 73.9253 17.5063 73.0809 17.5063ZM58.0133 28.7668L58.0096 23.0298H58.0133V20.4437C58.0133 18.0779 55.2956 16.7453 52.5004 16.7453C50.1182 16.7453 47.9572 17.9953 47.1386 18.6358V16.8555H47.1312C47.1312 16.6248 47.0132 16.5628 46.8989 16.5628C46.2978 16.7657 45.8119 16.9326 45.3622 17.0871C44.507 17.3809 43.783 17.6297 42.6471 17.9953V18.2914C43.5764 18.3431 43.864 18.8183 43.9525 19.4381V28.7668C43.9525 29.18 43.4104 29.3315 42.872 29.3315V29.7172H48.1969V29.3315C47.6586 29.3315 47.1165 29.1352 47.1165 28.7668V19.7446H47.1423V19.6999C47.8466 19.0594 49.3401 18.3155 50.9036 18.3155C54.1819 18.3155 54.8531 19.9375 54.8531 21.401L54.8457 28.7737C54.8457 29.1766 54.2999 29.3246 53.7689 29.3246V29.7103H59.0975V29.3246C58.5591 29.3315 58.0133 29.1938 58.0133 28.7668ZM90.4311 21.2701C90.4311 18.6908 88.4582 17.706 86.4079 17.706C83.6901 17.706 82.2372 19.4346 81.9385 21.2701H90.4311ZM87.658 28.2915C88.7606 28.2915 89.7415 28.1641 90.597 27.9058C91.4525 27.6475 92.4519 27.1723 93.6061 26.4767L93.6282 27.4616C92.5256 28.3018 91.4341 28.8872 90.361 29.2212C89.2842 29.5553 88.0194 29.7206 86.5628 29.7206C84.9771 29.7206 83.55 29.4244 82.2778 28.8321C81.0056 28.2433 80.0357 27.3996 79.3388 26.3252C78.7193 25.3713 78.3689 24.1592 78.3874 23.133C78.439 20.2335 81.1604 16.7487 86.8615 16.7487C90.0254 16.7487 93.8605 18.3189 93.8605 22.2549H81.7947V22.9987C81.839 24.1868 82.311 25.819 83.5021 26.8383C84.6674 27.83 86.076 28.2915 87.658 28.2915ZM133.307 17.706C135.353 17.706 137.33 18.6908 137.33 21.2701H128.837C129.136 19.4346 130.589 17.706 133.307 17.706ZM137.496 27.9058C136.64 28.1641 135.659 28.2915 134.557 28.2915C132.975 28.2915 131.563 27.83 130.397 26.8383C129.206 25.819 128.734 24.1868 128.686 22.9987V22.2549H140.756C140.756 18.3189 136.917 16.7487 133.753 16.7487C128.056 16.7487 125.33 20.2335 125.279 23.133C125.26 24.1592 125.611 25.3713 126.227 26.3252C126.924 27.3996 127.893 28.2433 129.166 28.8321C130.438 29.4244 131.869 29.7206 133.454 29.7206C134.911 29.7206 136.176 29.5553 137.253 29.2212C138.326 28.8872 139.417 28.3018 140.52 27.4616L140.498 26.4767C139.354 27.1723 138.351 27.6475 137.496 27.9058ZM123.055 27.7749L123.122 28.2088C122.782 28.4809 122.439 28.6806 122.119 28.8631C121.455 29.2385 120.367 29.5759 119.342 29.5794C116.381 29.5897 114.198 28.2915 114.198 25.7673V25.6881C114.198 25.6847 114.194 25.6778 114.194 25.6709H114.198V18.1708H112.125L112.107 17.0758H114.19L114.187 14.6171L117.413 14.6205V17.0654H122.521V18.1708H117.339V25.7398C117.339 28.2123 119.559 28.5119 120.706 28.474C121.599 28.443 122.598 28.0057 123.055 27.7749ZM158.132 26.4354C157.225 27.0139 156.413 27.4306 155.694 27.7061C154.901 27.9644 153.943 28.1503 152.811 28.1503C148.868 28.1503 146.936 25.6055 146.936 22.8679C146.936 20.4849 148.526 17.6957 152.169 17.6957C154.463 17.6957 156.583 18.8561 157.398 20.2714H158.135V17.9195L158.13 17.9166C157.99 17.8486 155.571 16.666 152.357 16.666C146.07 16.666 143.525 20.5676 143.525 23.2191C143.525 23.7632 143.61 24.3211 143.783 24.872H143.765C143.816 25.0201 143.875 25.1648 143.938 25.3128C144.204 25.9809 144.602 26.6283 145.137 27.2137C145.712 27.8542 146.416 28.381 147.257 28.7908C148.267 29.2833 149.377 29.5691 150.594 29.6586C150.989 29.6965 151.398 29.7206 151.83 29.7206C153.102 29.7206 154.156 29.5105 155.019 29.1937C155.03 29.1903 155.042 29.1868 155.056 29.1834C156.07 28.8528 157.096 28.2812 158.135 27.4582V26.4354H158.132Z" fill="black"></path>
</svg>