<?xml version="1.0" encoding="utf-8"?>
<!-- Generator: Adobe Illustrator 27.2.0, SVG Export Plug-In . SVG Version: 6.00 Build 0)  -->
<svg version="1.1" id="Layer_1" xmlns="http://www.w3.org/2000/svg" xmlns:xlink="http://www.w3.org/1999/xlink" x="0px" y="0px"
	 viewBox="0 0 1085.6 248.8" style="enable-background:new 0 0 1085.6 248.8;" xml:space="preserve">
<style type="text/css">
	.st0{fill-rule:evenodd;clip-rule:evenodd;fill:#343333;}
	.st1{fill-rule:evenodd;clip-rule:evenodd;fill:#004AB9;}
</style>
<g id="Layer_2_00000103981343919286823770000009265793973440982201_">
	<g id="Layer_1-2">
		<path class="st0" d="M203.7,144.4c0-18.5-5.3-33.7-16-45.7c-10.8-12-25.1-18-42.7-18s-31.8,6-42.4,18c-10.7,11.7-16,26.9-16,45.7
			c0,18.5,5.3,33.7,16,45.7s24.8,18,42.4,18c17.6,0,31.9-6,42.7-18C198.4,178.4,203.7,163.2,203.7,144.4z M179.7,144.4
			c0,13.8-3.2,24.7-9.7,32.7c-6.2,7.7-14.5,11.5-25,11.5c-10.7,0-19-3.8-25-11.5c-6.3-8.2-9.5-19.1-9.5-32.7
			c0-13.8,3.2-24.7,9.7-32.7c6.2-7.7,14.4-11.5,24.7-11.5c10.8,0,19.2,3.8,25.2,11.5C176.5,119.9,179.7,130.8,179.7,144.4
			L179.7,144.4z"/>
		<path class="st0" d="M329.3,143.2c0.1-8.8-1.1-17.6-3.5-26.1c-2.1-7.4-5.9-14.1-11-19.8c-9.8-11-23.7-16.5-41.7-16.5
			c-9.1,0.1-18,2.3-26,6.5c-4.1,2.2-7.9,5-11.2,8.2V32.3h-22.4v153.8h-14v19.5h36.5v-11.7c1.2,1.2,2.3,2.2,3.5,3.2
			c1.2,1,2.4,1.9,3.8,2.7c7.7,5.5,16.9,8.2,27.7,8.2c18.1,0,32.5-6,43-18c5.4-5.9,9.4-13,11.7-20.6
			C328.1,160.9,329.4,152.1,329.3,143.2L329.3,143.2z M305.3,141.7c0.1,6.7-0.7,13.3-2.5,19.7c-1.5,5.4-4,10.5-7.2,15
			c-6,8.2-14.3,12.2-25,12.2c-10.8,0-19.3-3.7-25.5-11.2c-3.1-4-5.4-8.5-6.8-13.4c-1.7-6.1-2.5-12.5-2.4-18.9
			c0-13.8,3.2-24.9,9.7-33.2c6.2-7.8,14.5-11.7,25-11.7c5.1-0.1,10.2,0.8,15,2.7c4.1,1.8,7.8,4.6,10.7,8c3,3.8,5.2,8.1,6.6,12.7
			C304.7,129.5,305.4,135.6,305.3,141.7L305.3,141.7z"/>
		<path class="st0" d="M452.8,143.2c0.1-8.8-1.1-17.6-3.5-26.1c-2.1-7.4-5.9-14.1-11-19.8c-9.8-11-23.7-16.5-41.7-16.5
			c-9.1,0.1-18,2.3-26,6.5c-4.1,2.2-7.9,5-11.2,8.2V32.3h-22.4v153.8h-14v19.5h36.5v-11.7c1.2,1.2,2.3,2.2,3.5,3.2
			c1.2,1,2.4,1.9,3.8,2.7c7.7,5.5,16.9,8.2,27.7,8.2c18.1,0,32.5-6,42.9-18c5.4-5.9,9.4-12.9,11.7-20.6
			C451.6,161,452.9,152.1,452.8,143.2L452.8,143.2z M428.8,141.7c0.1,6.7-0.7,13.3-2.5,19.7c-1.5,5.4-4,10.5-7.2,15
			c-6,8.2-14.3,12.2-25,12.2c-10.8,0-19.3-3.7-25.5-11.2c-3.1-4-5.5-8.5-6.8-13.4c-1.7-6.1-2.5-12.5-2.4-18.9
			c0-13.8,3.2-24.9,9.7-33.2c6.2-7.8,14.5-11.7,25-11.7c5.1-0.1,10.2,0.8,15,2.7c4.1,1.8,7.8,4.6,10.7,8c3,3.8,5.2,8.1,6.6,12.7
			C428.2,129.5,429,135.6,428.8,141.7L428.8,141.7z"/>
		<path class="st0" d="M572.5,151.6c0-12.8-1.2-23.5-3.6-32.1c-2.1-7.9-5.8-15.2-10.8-21.6c-4.8-5.8-11-10.3-18.1-13
			c-8-3-16.5-4.4-25.1-4.2c-17.6,0-32,5.7-43,17.2c-10.5,11.5-15.7,26.4-15.7,44.7c-0.1,9.1,1.1,18.2,3.8,27
			c2.3,7.7,6.3,14.8,11.7,20.7c5.1,6,11.7,10.7,19.1,13.5c8,2.9,16.5,4.4,25.1,4.2c6.9,0,13.8-1.1,20.3-3.2
			c6.7-2.2,14.8-6.3,24.1-12.5c-1.6-0.6-3.2-1.4-4.6-2.4c-1.7-1.1-3.4-2.3-4.9-3.6c-1.5-1.3-2.9-2.7-4.1-4c-1-1-1.8-2.2-2.4-3.5
			c-8,6.2-17.8,9.7-28,9.7c-11.6,0-20.6-3.8-26.7-11.5c-5-6.2-8.1-14.7-9.2-25.5L572.5,151.6z M548.5,132.2h-67.6
			c1.5-8.2,4.4-14.9,8.7-20.2c6.3-7.8,14.7-11.7,25.2-11.7c10.8,0,19,3.2,24.5,9.5C544.2,114.9,547.3,122.4,548.5,132.2L548.5,132.2
			z"/>
		<path class="st0" d="M641.3,103.7V81.5c-3.7-0.2-7-0.4-10-0.6c-2.9-0.2-5.7-0.2-8.6,0c-2.8,0.3-5.6,0.9-8.2,2
			c-3.1,1.3-6.1,2.9-8.9,4.9c-1.6,1.1-3,2.3-4.2,3.8v-8.2h-35.5v19.5h13v102.9h40.8v-19.5h-18.3v-45.7c0-12.1,2.4-21.8,7.2-29
			c3.7-6.2,10.5-10,17.7-9.7L641.3,103.7z"/>
		<path class="st0" d="M845.8,205.6v-19.5h-12v-56.2c0.1-7-0.8-14-2.6-20.7c-1.6-5.8-4.4-11.2-8.4-15.7c-3.9-4.3-8.8-7.7-14.2-9.6
			c-6.2-2.2-12.7-3.2-19.2-3.1c-10.3,0-18.9,2.7-25.7,8c-1.7,1.3-3.2,2.8-4.7,4.3c-1.5,1.5-2.9,3-4.2,4.5c-3-4.8-7.1-8.9-12-11.7
			c-3.5-1.9-7.3-3.2-11.2-3.9c-4.4-0.8-8.8-1.1-13.2-1.1c-8.1-0.1-16.1,1.9-23.2,5.7c-1.3,0.8-2.6,1.7-3.9,2.6
			c-1.3,0.9-2.5,2-3.6,3.1v-9h-37v19.5H665v102.9h37v-19.5h-14.5v-44.2c-0.1-6.2,0.5-12.4,1.9-18.5c1-4.4,2.8-8.7,5.4-12.4
			c2.2-2.9,5.2-5.2,8.5-6.7c3.5-1.7,8-2.5,13.5-2.5c7.8,0,13.3,2.2,16.5,6.8c1.8,2.7,3.2,5.8,3.9,9c1,4.5,1.5,9.1,1.4,13.7v64.9h0.2
			v9.5h36.2v-19.5h-14v-50.7c-0.1-5.1,0.5-10.1,1.9-15c1.1-3.8,2.9-7.3,5.4-10.4c2.3-2.7,5.2-4.7,8.5-6.1c4.1-1.5,8.4-2.3,12.7-2.1
			c7.8,0,13.3,2.2,16.5,6.8c1.9,2.7,3.2,5.8,4,9c1.1,4.5,1.6,9.1,1.5,13.7v74.4L845.8,205.6z"/>
		<path class="st0" d="M981.3,205.6l-15.2-19.5h-14.5v-61.9c0.1-6.5-0.9-12.9-3.1-19c-2-5.4-5.4-10.3-9.9-14c-4.6-3.8-10-6.5-15.7-8
			c-6.9-1.8-13.9-2.6-21-2.5c-4.2,0.1-8.4,0.7-12.5,1.9c-4.5,1.2-8.7,2.6-12.5,4s-7.1,2.8-9.7,4l-4,1.9l8.5,17.6
			c0.3-0.2,1.4-0.6,3.2-1.2l6.5-2.4c2.5-0.9,4.2-1.5,5.2-1.9c3.2-1.2,6.3-2.2,9.2-3c2.4-0.7,4.9-1.2,7.5-1.2
			c3.7-0.1,7.4,0.5,10.9,1.6c3,1,5.7,2.6,8.1,4.6c4.5,3.5,6.7,9.4,6.7,17.7v4h-20c-8.9-0.1-17.7,0.6-26.5,2.1
			c-6.8,1.1-13.4,3.5-19.5,6.9c-11,6.3-16.5,16.4-16.5,30.2c0,12,4,21.8,12,29.5c4,4,8.9,7,14.2,8.7c6,1.9,12.2,2.8,18.5,2.7
			c9.8,0,19.4-2.5,28-7.2c3.6-1.9,6.9-4.3,9.7-7.2v11.7L981.3,205.6z M929.1,147.7c-0.5,12-3.5,21.7-9,29.2
			c-2.7,3.8-6.4,6.8-10.6,8.7c-4.8,2.1-10.1,3.1-15.4,3c-3.4,0.1-6.8-0.5-10-1.6c-2.8-1.1-5.3-2.6-7.5-4.6c-3.8-3.8-6-8.9-6-14.2
			c0-6.5,2.6-11.3,7.7-14.5c3.3-2.1,7-3.6,10.9-4.4c5.6-1.2,11.4-1.7,17.1-1.6L929.1,147.7z"/>
		<path class="st0" d="M1085.6,205.6v-19.5h-12.3v-56.2c0.1-7.2-0.7-14.3-2.5-21.2c-1.5-5.8-4.3-11.2-8.2-15.7
			c-3.8-4.3-8.7-7.6-14.2-9.4c-6.4-2-13-3-19.7-2.9c-8.2,0-16.2,1.9-23.5,5.7c-1.3,0.8-2.6,1.7-3.9,2.6s-2.5,2-3.9,3.1v-9h-22.5
			v102.9h-20v19.5h42.5v-63.7c-0.1-6.2,0.5-12.4,2-18.5c1.1-4.5,2.9-8.7,5.5-12.5c2.4-3,5.5-5.4,9-6.9c3.7-1.6,8.3-2.4,14-2.4
			c4.8,0,8.7,0.6,11.5,1.8c2.5,0.9,4.6,2.4,6.2,4.5c1.7,1.8,3,4.6,3.9,8.4c1,4.7,1.5,9.5,1.4,14.4v74.9L1085.6,205.6z"/>
		<path class="st0" d="M73.8,2.8l-0.2-2h-38c-3.3,0-6.7,0-10.2-0.1c-3.5-0.1-7-0.3-10.7-0.6c-0.4,0-0.8,0.2-1,0.6
			c-0.2,0.4,0,0.8,0.5,1.1c1.5,1,3.2,1.9,4.9,2.5c1.4,0.5,2.8,0.9,4.2,1.3c1.3,0.5,2.7,1,4,1.6c1.3,0.6,2.5,1.3,3.5,2.3
			c1.1,1,1.9,2.3,2.4,3.7c0.7,1.9,1,3.8,0.9,5.8V168c0.1,8-0.6,16.1-1.9,24c-1.2,6.7-3.2,13.2-6,19.4c-2.8,6.1-6.3,11.8-10.4,17.1
			c-4.8,6.1-9.9,12-15.4,17.5c-0.3,0.4-0.3,1.1,0,1.5c0.2,0.4,0.7,0.6,1.1,0.4c0.1,0,0.1-0.1,0.2-0.1c7.5-3.6,14.6-8,21.1-13.2
			c6.6-5.2,12.5-11.1,17.6-17.8c5-6.6,9.1-13.8,12.1-21.5c3-7.9,4.6-16.3,4.5-24.8V18.6c0-5.7,1.6-9.5,4.8-11.5
			C65.4,5,69.5,3.5,73.8,2.8z"/>
		<path class="st1" d="M49.4,88.8c-2.2,4.5-3.3,4-2.9,10.8l2.5,42.5l-10.7,0.6L31,192l18.5,7.2L46,213.4c-3.5,10,0,30.3,19.6,30.8
			c-4.1-28.7,9-67.1,23.2-90.2c6.8,23.1,8.5,19.2,10.2,52.8c1,20.1-6.3,42.9,9.5,42l19.1-2.6l-10.2-11.7l2-43.1
			c-2.3-7.8-4-7.9-4.6-17.5l-1.8-31.8l10.6-0.6c20.8-1.2-3.1-19.4-5.8-38.7l-3.8-53.1l-13.6-3.2c0.3-15.2,6.1-15.5,5.5-24.8
			c-2.3-10-16.6-21.6-26.6-6C74.8,46.5,88,36.8,62.6,46.8C47.2,52.8,48.3,69.9,49.4,88.8z"/>
	</g>
</g>
</svg>
