<svg xmlns="http://www.w3.org/2000/svg" width="148" height="47" fill="none"><path fill="#EB303D" d="M134 23.45v-2.494h11c.446 0 1.121.31 1.746.671.818.474 1.254 1.382 1.254 2.327v2.49l-1.5 1.497 1.5.998v4.49c0 1.597-2 2.328-3 2.495h-11v-2.495h11v-4.49h-11v-2.495h11V23.45z"></path><path fill="#EB303D" fill-rule="evenodd" d="M115 20.956v13.97h3v-5.987h8l3 5.987h3l-3-5.987c.667-.333 2.1-1.298 2.5-2.495s.167-3.16 0-3.992c-.13-.647-.4-1.496-2-1.496zm14 1.995h-11.5v3.493H129z" clip-rule="evenodd"></path><path fill="#EB303D" d="M113 20.956H98v14.968h15v-2.495h-12v-3.991h11.5v-2.495H101V23.45h12zM79.5 20.956H76l9 8.482v5.987h3v-5.987l8.5-8.482H93l-6.5 6.486zM50 35.425v-14.47h3.5V32.93h10L71 20.956h2.5L83 35.425h-3.5L73 24.448h-1l-7.5 10.977zM18.619 42.41c-11.6-3.193-8.5-11.475-7-14.968-4 2.994-4.333 8.15-3.5 10.478 2.4 6.386 9.5 7.983 14.5 7.983 10 .998 23-3.493 24.5-6.486-8.8 4.39-22.667 3.825-28.5 2.993"></path><path fill="#EB303D" d="M17.619 40.414c-1-.499-2.043-2.974-2-9.48.5-5.488 6.5-11.974 8.964-14.968-2.964-.499-3.904.93-7.464 4.99-3.26 3.717-4.37 7.317-4.537 8.481-2 5.988 3.037 11.975 5.037 10.977"></path><path fill="#EB303D" d="M74.22 10.537C73.62.997 62.72.06 56.72.06c-2-.174-7 0-13.5.998s-15 3.992-19 5.987S10.62 14.968 4.62 22.951C-.145 29.29-.78 34.985.72 39.476c2.056 6.153 13.834 7.816 20.5 7.484-5.6 0-10.666-2.661-12.5-3.992-4.4-3.991-2.768-9.539-1.601-12.034 2.044-3.399 5.13-6.993 7.996-9.891 3.524-3.565 7.545-6.684 12.131-8.71 4.666-2.06 10.506-4.126 13.873-5.348 10.8-3.193 22.5-1.83 26.601.06 6.5 2.993 2.5 11.915 0 15.906 4.899-3.492 6.727-8.815 6.5-12.414"></path></svg>