<svg width="181" height="24" viewBox="0 0 181 24" fill="none" xmlns="http://www.w3.org/2000/svg">
<path fill-rule="evenodd" clip-rule="evenodd" d="M178.971 0.694349C179.688 1.20095 180.206 1.941 180.439 2.78839C180.573 3.26903 180.61 3.77149 180.549 4.26672C180.488 4.76194 180.329 5.24009 180.083 5.6735C179.651 6.43824 178.968 7.02899 178.152 7.34508C177.334 7.66115 176.433 7.68301 175.602 7.40692C174.77 7.13083 174.06 6.57387 173.592 5.83096C173.124 5.08805 172.927 4.20515 173.035 3.33271C173.142 2.46028 173.547 1.65229 174.182 1.04644C174.816 0.440583 175.641 0.0743523 176.514 0.0101506C177.387 -0.0540511 178.256 0.18775 178.971 0.694349ZM177.698 6.16279C178.241 5.9526 178.696 5.55961 178.984 5.05075V5.04837C179.312 4.46522 179.398 3.77506 179.221 3.12894C179.066 2.56499 178.72 2.07252 178.244 1.73541C177.768 1.39832 177.19 1.23745 176.608 1.28021C176.027 1.32296 175.478 1.56672 175.056 1.96993C174.634 2.37315 174.364 2.91087 174.293 3.49152C174.22 4.07215 174.351 4.65978 174.663 5.15427C174.975 5.64877 175.447 6.01955 176.001 6.20344C176.554 6.38734 177.153 6.37297 177.698 6.16279ZM7.14755 0.0641643V21.3959C7.14185 21.541 7.1679 21.6856 7.22384 21.8195C7.27978 21.9534 7.36427 22.0735 7.47136 22.171L9.05598 23.6654V23.7297H0V23.6654L1.58466 22.1746C1.68346 22.0716 1.76022 21.9494 1.8102 21.8154C1.86018 21.6815 1.88232 21.5387 1.87525 21.3959V3.28149C1.88408 3.13361 1.86287 2.98548 1.81291 2.84608C1.76296 2.70669 1.6853 2.57895 1.58466 2.47061L0 0.972685V0.908388L7.14755 0.0641643ZM20.4359 7.75848C21.2425 7.99942 22.0039 8.37238 22.6895 8.86226C23.3878 9.36316 23.9416 10.074 24.3513 10.9949C24.7609 11.9156 24.9657 13.0036 24.9657 14.2586C24.9657 14.4753 24.955 14.7135 24.9336 14.9731H15.2336V15.0267C15.2344 17.0191 15.6657 18.5075 16.5276 19.4918C17.3896 20.4761 18.5001 20.9683 19.8595 20.9683C22.1447 20.9699 23.7831 19.9744 24.7747 17.982H24.8399C24.0199 21.9867 21.637 23.9892 17.6912 23.9892C15.4708 23.9884 13.5952 23.2954 12.0643 21.9102C10.5334 20.525 9.76799 18.4905 9.76799 15.8066C9.76398 12.975 10.5278 10.8663 12.0595 9.48023C13.5912 8.09426 15.5317 7.40127 17.881 7.40127C18.7454 7.39536 19.606 7.51569 20.4359 7.75848ZM15.2336 14.3777H19.9887C20.0089 14.1015 20.0208 13.7823 20.0161 13.4132C20.0161 11.4041 19.8274 10.0026 19.4502 9.20881C19.0731 8.41495 18.5286 8.01802 17.8169 8.01802C16.9796 8.02204 16.345 8.5146 15.9132 9.49576C15.4815 10.4769 15.2549 12.1042 15.2336 14.3777ZM41.076 21.623C40.4291 21.623 40.1381 20.9951 40.203 19.7393L40.3975 15.1288C40.3975 15.1074 40.3975 14.9395 40.413 14.6251C40.4283 14.3108 40.4295 14.0905 40.4295 13.9607C40.4295 11.6007 39.8907 9.91229 38.8128 8.89541C37.7556 7.89998 36.0843 7.40185 33.7991 7.40106C31.7297 7.40106 29.5521 7.81265 27.266 8.63581L29.3026 13.2797H29.3678L31.988 8.40964C32.0549 8.2824 32.1489 8.1714 32.2631 8.08453C32.3378 8.04164 32.5371 8.01902 32.8562 8.01902C34.4305 8.01902 35.2177 9.26372 35.2177 11.7531V11.9162L35.1525 15.3896C34.3325 14.8046 33.1898 14.5124 31.7246 14.5132C30.3457 14.4907 29.0027 14.9542 27.929 15.823C26.8402 16.701 26.2958 17.8972 26.2958 19.4118C26.2958 20.8407 26.7161 21.9608 27.5566 22.772C28.3971 23.5833 29.4429 23.9893 30.6939 23.9902C31.6663 24.0058 32.6181 23.7083 33.4098 23.1413C34.2015 22.5743 34.7914 21.7676 35.0932 20.8395C35.1359 21.8365 35.4917 22.6105 36.1607 23.1614C36.8297 23.7123 37.6493 23.9901 38.6195 23.9949C40.1504 23.9949 41.2068 23.3996 41.7888 22.2089C41.9656 21.845 42.0541 21.4443 42.0474 21.0395H41.9833C41.9079 21.217 41.781 21.3675 41.6192 21.4716C41.4574 21.5757 41.2681 21.6284 41.076 21.623ZM35.0932 20.4502V20.4823C34.5966 21.2412 33.9818 21.6202 33.2487 21.6194C32.6873 21.6194 32.2291 21.3757 31.8741 20.8883C31.519 20.401 31.3415 19.7261 31.3415 18.8641C31.3415 17.8901 31.5732 17.0892 32.0366 16.4612C32.5 15.8333 33.1412 15.5193 33.9604 15.5193C34.3672 15.5191 34.7714 15.5851 35.1572 15.7147L35.0932 20.4502ZM49.2265 2.20602H49.2905V7.66189H53.2687V8.3108H49.2905V19.1547C49.2905 19.8946 49.4416 20.4629 49.7437 20.8598C49.8889 21.0558 50.0798 21.213 50.2996 21.3179C50.5194 21.4227 50.7614 21.4719 51.0044 21.4611C51.8237 21.4603 52.4491 21.0599 52.8809 20.2597L52.9461 20.2919C52.7663 21.3034 52.2604 22.2276 51.5062 22.9222C50.7407 23.6366 49.6464 23.9937 48.223 23.9937C45.4206 23.9946 44.0194 22.5118 44.0194 19.5452V8.3108H42.2403V7.66189H43.6956C44.1487 7.66189 44.4821 7.54282 44.6979 7.30468L49.2265 2.20602ZM70.5415 21.3959C70.5415 21.0284 70.5578 19.9408 70.5902 18.1333C70.6226 16.3258 70.6384 15.0323 70.6376 14.2527C70.6376 12.0237 70.2067 10.3246 69.3447 9.15528C68.4829 7.98601 67.2319 7.40137 65.5919 7.40137C63.048 7.40137 61.3341 8.66793 60.4501 11.2009V0.0641643L53.3013 0.908388V0.972685L54.886 2.47061C54.9868 2.57888 55.0646 2.70659 55.1148 2.84598C55.165 2.98537 55.1864 3.13353 55.1778 3.28149V21.3959C55.1846 21.5388 55.1623 21.6817 55.1121 21.8155C55.0619 21.9494 54.985 22.0716 54.886 22.1746L53.3013 23.6654V23.7297H62.3585V23.6654L60.7727 22.171C60.6655 22.0728 60.581 21.9522 60.5253 21.8176C60.4695 21.6831 60.4438 21.5379 60.4501 21.3923V11.5582C61.1183 10.5841 61.9268 10.0972 62.8757 10.0972C63.8025 10.0972 64.4437 10.5084 64.7995 11.3308C65.1554 12.1532 65.3333 13.376 65.3333 14.9994C65.3333 15.6051 65.3171 16.812 65.2847 18.6203C65.2523 20.4287 65.2365 21.3645 65.2373 21.428C65.241 21.5687 65.2139 21.7085 65.158 21.8374C65.102 21.9665 65.0186 22.0816 64.9134 22.1746L63.3928 23.6654V23.7297H72.4488V23.6654L70.8642 22.171C70.7572 22.0734 70.6729 21.9533 70.6172 21.8194C70.5614 21.6855 70.5356 21.5409 70.5415 21.3959ZM83.8655 7.75848C84.6696 8.00013 85.429 8.37302 86.113 8.86226C86.8182 9.36317 87.3757 10.074 87.7849 10.9949C88.1948 11.9156 88.3997 13.0036 88.3997 14.2586C88.3997 14.4753 88.388 14.7135 88.3675 14.9731H78.6637V15.0314C78.6605 17.0207 79.0901 18.5075 79.9523 19.4918C80.8138 20.4761 81.9242 20.9683 83.2828 20.9683C85.5688 20.9699 87.2077 19.9744 88.1995 17.982H88.2647C87.4456 21.9867 85.0622 23.9891 81.1154 23.9891C78.8953 23.9883 77.0196 23.2954 75.4887 21.9102C73.9579 20.5249 73.1924 18.4904 73.1924 15.8066C73.1932 12.975 73.9587 10.8662 75.4887 9.48024C77.0188 8.09426 78.959 7.40126 81.3101 7.40126C82.1747 7.39552 83.0354 7.51585 83.8655 7.75848ZM78.6637 14.3777H83.4084C83.4335 14.1014 83.4453 13.7824 83.4508 13.4132C83.45 11.404 83.2616 10.0026 82.8838 9.20873C82.5069 8.41496 81.9627 8.01803 81.2512 8.01803C80.411 8.02205 79.7757 8.5146 79.3438 9.49577C78.9118 10.4769 78.6857 12.1042 78.6637 14.3777ZM100.816 7.40106C99.7582 7.40106 98.8747 7.81781 98.1633 8.65134C97.4526 9.48485 96.9461 10.5402 96.6429 11.8175V7.66183H89.4598V7.72612L91.0446 9.3491C91.2409 9.57283 91.3446 9.86317 91.3351 10.1612V21.3956C91.3351 21.7425 91.2385 22.0021 91.0446 22.1743L89.4598 23.6651V23.7294H100.295V23.6651L97.1243 21.8135C96.8016 21.598 96.6398 21.3266 96.6398 21.0026V12.2342C97.1581 11.2816 97.6222 10.6541 98.0305 10.3516C98.2245 10.2215 98.4185 10.2755 98.6132 10.5136L101.168 13.5654H101.232L103.012 8.46797C102.475 7.75669 101.743 7.40106 100.816 7.40106ZM109.546 10.9735C110.624 8.59208 112.306 7.40137 114.592 7.40137C116.446 7.39978 117.923 8.13997 119.023 9.62205C120.123 11.1041 120.673 13.0795 120.673 15.5483C120.673 18.0361 120.004 20.0651 118.667 21.6352C117.33 23.2053 115.584 23.9904 113.427 23.9904C111.637 23.9904 110.301 23.4058 109.417 22.2366L104.307 24H104.242V3.28149C104.25 3.13364 104.229 2.98558 104.179 2.84622C104.128 2.70687 104.051 2.5791 103.951 2.4706L102.398 0.972685V0.908388L109.546 0.0641643V10.9735ZM109.546 21.8793C110.02 22.3556 110.645 22.5937 111.422 22.5937C113.859 22.5937 115.078 20.3028 115.077 15.7209C115.078 11.9106 114.043 10.0055 111.971 10.0055C111.023 10.0063 110.214 10.4714 109.546 11.401V21.8793ZM136.813 21.623C136.166 21.623 135.875 20.9951 135.94 19.7393L136.135 15.1288C136.135 15.1074 136.135 14.9395 136.15 14.6251C136.165 14.3108 136.166 14.0905 136.166 13.9607C136.166 11.6007 135.628 9.91229 134.55 8.89541C133.492 7.89998 131.821 7.40185 129.536 7.40106C127.466 7.40106 125.288 7.81265 123.003 8.63581L125.041 13.2797H125.105L127.725 8.40964C127.792 8.28208 127.885 8.17109 128 8.08453C128.075 8.04164 128.274 8.01902 128.593 8.01902C130.167 8.01902 130.954 9.26372 130.955 11.7531V11.9162L130.89 15.3896C130.07 14.8046 128.927 14.5124 127.461 14.5132C126.083 14.4905 124.74 14.954 123.666 15.823C122.576 16.701 122.031 17.8972 122.033 19.4118C122.033 20.8407 122.453 21.9608 123.294 22.772C124.134 23.5833 125.18 23.9893 126.431 23.9902C127.403 24.0058 128.355 23.7083 129.147 23.1413C129.938 22.5743 130.529 21.7676 130.83 20.8395C130.873 21.8365 131.229 22.6105 131.897 23.1614C132.566 23.7123 133.386 23.9901 134.356 23.9949C135.887 23.9949 136.943 23.3996 137.526 22.2089C137.702 21.8448 137.79 21.4443 137.785 21.0395H137.72C137.645 21.217 137.518 21.3675 137.356 21.4716C137.194 21.5757 137.005 21.6284 136.813 21.623ZM130.83 20.4502V20.4823C130.333 21.2412 129.718 21.6202 128.986 21.6194C128.424 21.6194 127.966 21.3757 127.611 20.8883C127.256 20.401 127.078 19.7261 127.077 18.8641C127.077 17.8901 127.31 17.0892 127.774 16.4612C128.238 15.8333 128.879 15.5193 129.698 15.5193C130.105 15.5191 130.508 15.5851 130.895 15.7147L130.83 20.4502ZM147.55 8.01803H147.389C145.34 8.01882 144.317 10.1189 144.321 14.3181C144.321 16.6123 144.737 18.2895 145.567 19.3501C146.397 20.4106 147.437 20.9409 148.688 20.9409C150.414 20.9416 151.739 20.0542 152.667 18.2785H152.731C152.451 20.0741 151.75 21.4755 150.629 22.4828C149.508 23.4902 148.031 23.9939 146.197 23.9939C144.106 23.9931 142.327 23.2894 140.861 21.8828C139.394 20.4761 138.66 18.4738 138.66 15.8756C138.66 14.3809 138.908 13.0659 139.404 11.9307C139.899 10.7956 140.568 9.90807 141.41 9.26825C142.229 8.64082 143.153 8.16285 144.138 7.85608C145.15 7.54862 146.202 7.3953 147.259 7.40123C148.984 7.40123 150.817 7.7259 152.757 8.37523L150.687 13.9609H150.623L148.132 8.40857C148.099 8.28425 148.031 8.17175 147.938 8.08354C147.816 8.02867 147.682 8.00613 147.55 8.01803ZM169.964 21.3959L165.629 12.8227C165.602 12.7737 165.584 12.7197 165.577 12.6638C165.57 12.6078 165.574 12.551 165.589 12.4967C165.604 12.4423 165.629 12.3915 165.665 12.3471C165.699 12.3027 165.742 12.2657 165.791 12.2381L171.711 7.72525V7.66095H163.783V7.72525L164.927 9.3589L165.986 10.8747C166.18 11.1342 166.158 11.351 165.922 11.5236L160.681 15.453V0.0641643L153.534 0.908388V0.972685L155.118 2.47061C155.219 2.5791 155.297 2.70687 155.346 2.84623C155.396 2.98558 155.417 3.13364 155.409 3.28149V21.3959C155.416 21.5387 155.393 21.6814 155.344 21.8153C155.293 21.9491 155.217 22.0714 155.118 22.1746L153.534 23.6654V23.7297H162.59V23.6654L161.005 22.171C160.897 22.0731 160.812 21.9524 160.757 21.8179C160.701 21.6833 160.675 21.538 160.681 21.3923V15.8066C160.781 15.7228 160.907 15.677 161.037 15.6769C161.163 15.67 161.288 15.7043 161.393 15.7745C161.498 15.8446 161.577 15.947 161.62 16.0662L165.21 23.7285H172.066V23.6654L170.708 22.402C170.41 22.1061 170.16 21.7669 169.964 21.3959Z" fill="#003EFF"/>
</svg>
