<?xml version="1.0" encoding="UTF-8"?><svg id="b" xmlns="http://www.w3.org/2000/svg" viewBox="0 0 244.28 48"><defs><style>.d{fill:none;}.e{fill:#001eff;}</style></defs><g id="c"><path class="e" d="M96.69,26.98v6.62c0,1.73.14,2.93.34,3.67v.2c-2.27.74-5.8,1.34-8.39,1.34-9.78,0-16.12-5.69-16.12-14.41s6-14.56,15.24-14.56c2.81,0,5.66.51,7.45,1.34v5.77h-.2c-1.79-1.68-4.46-2.67-7.33-2.67-5.83,0-9.24,3.58-9.24,9.92s3.7,10.18,10.15,10.18c.85,0,1.73-.09,2.56-.26v-6.94c-2.56,0-3.98.2-5.29.45h-.2v-5.32h.2c1.34.26,2.84.45,5.57.45h5.69v.2c-.26.77-.43,2.3-.43,4.01h0Z"/><path class="e" d="M58.62,34.25h-3.18v-8.13h3.18c2.99,0,4.61.2,6.11.51h.2v-5.46h-.2c-1.51.34-3.1.51-6.11.51h-3.18v-7.31h3.27c3.44,0,6.03.37,7.65,1.19h.14v-5.32h-17.91v.2c.68,1.17,1.14,3.53,1.14,5.94v15.81c0,2.44-.45,4.8-1.14,5.94v.2h18.88v-5.69h-.2c-2.13,1.11-5.03,1.59-8.64,1.59Z"/><path class="e" d="M34.97,22.06c-3.64-1.42-5.66-2.13-5.66-4.52,0-2.16,1.56-3.33,4.35-3.33,2.33,0,4.32.82,6.4,2.56h.2v-5.69c-1.85-.8-4.12-1.19-6.4-1.19-6.37,0-10.26,3.27-10.26,8.59s3.64,6.71,7.59,8.24c3.64,1.42,5.66,2.13,5.66,4.52,0,2.16-1.62,3.3-4.52,3.3s-5.29-1.02-7.99-3.44h-.2v6.14c2.25,1.05,5.17,1.65,7.93,1.65,6.48,0,10.49-3.27,10.49-8.53s-3.61-6.77-7.59-8.3h0Z"/><path class="e" d="M9.41,34.25h-2.56v-17.83c0-2.44.45-4.8,1.14-5.97v-.2H0v.2c.68,1.17,1.14,3.53,1.14,5.97v15.81c0,2.44-.45,4.8-1.14,5.94v.2h18.25v-5.74h-.2c-2.16,1.11-5.03,1.62-8.64,1.62h0Z"/><path class="e" d="M115.97,19.27c0,1.15.21,2.27.53,2.82v.1h-3.78v-.1c.31-.55.53-1.66.53-2.82v-7.47c0-1.15-.22-2.27-.53-2.82v-.1h5.11c3.33,0,5.07,1.35,5.07,3.89,0,1.78-.96,2.97-2.78,3.48.53.39.86.88,1.15,1.41l1.35,2.29c.67,1.12,1.12,1.72,1.62,2.13v.1h-3.07c-.47-.18-.96-.7-1.47-1.76l-.84-1.76c-.63-1.29-1.04-1.7-1.82-1.7h-1.08v2.31ZM117.83,14.98c1.57,0,2.25-.65,2.25-2.03s-.72-2.07-2.25-2.07h-1.86v4.11h1.86Z"/><path class="e" d="M125.85,11.79c0-1.15-.21-2.27-.57-2.82v-.1h3.85v.1c-.35.55-.57,1.66-.57,2.82v7.47c0,1.15.21,2.27.57,2.82v.1h-3.85v-.1c.35-.55.57-1.66.57-2.82v-7.47Z"/><path class="e" d="M131.38,21.61v-2.91h.08c1.27,1.15,2.37,1.64,3.78,1.64s2.15-.53,2.15-1.57c0-1.13-.96-1.47-2.68-2.15-1.88-.72-3.6-1.49-3.6-3.89,0-2.52,1.84-4.07,4.85-4.07,1.1,0,2.17.2,3.03.57v2.7h-.08c-1-.82-1.94-1.21-3.03-1.21-1.31,0-2.05.55-2.05,1.58,0,1.13.96,1.47,2.68,2.15,1.88.72,3.6,1.49,3.6,3.89s-1.9,4.05-4.97,4.05c-1.31,0-2.7-.29-3.76-.78Z"/><path class="e" d="M142.38,19.27v-7.47c0-1.15-.21-2.27-.53-2.82v-.1h3.78v.1c-.31.55-.53,1.66-.53,2.82v2.82l3.48-3.91c.53-.61.88-1.21.8-1.72v-.1h4.17v.1c-.72.41-1.37,1.04-1.96,1.64l-3.97,4.13,4.15,5.38c.57.72,1.19,1.47,1.88,1.96v.1h-3.35c-.51-.18-1.06-.74-1.82-1.82l-3.38-4.75v3.66c0,1.15.21,2.27.53,2.82v.1h-3.78v-.1c.31-.55.53-1.66.53-2.82Z"/><path class="e" d="M113.25,28.73c0-1.15-.22-2.27-.57-2.82v-.1h3.85v.1c-.35.55-.57,1.66-.57,2.82v7.47c0,1.15.21,2.27.57,2.82v.1h-3.85v-.1c.35-.55.57-1.66.57-2.82v-7.47Z"/><path class="e" d="M121.7,29.65v6.55c0,1.15.22,2.27.53,2.82v.1h-3.38v-.1c.31-.55.53-1.66.53-2.82v-7.47c0-1.15-.21-2.27-.53-2.82v-.1h3.62l5.42,8.57v-5.65c0-1.15-.2-2.27-.53-2.82v-.1h3.38v.1c-.31.55-.53,1.66-.53,2.82v10.39h-2.43l-6.08-9.47Z"/><path class="e" d="M135.96,39.02c.33-.55.53-1.66.53-2.82v-8.43h-.53c-1.43,0-2.62.22-3.46.74h-.1v-2.7h10.92v2.7h-.1c-.84-.53-2.03-.74-3.48-.74h-.53v8.43c0,1.15.22,2.27.53,2.82v.1h-3.78v-.1Z"/><path class="e" d="M145.04,39.02c.31-.55.53-1.66.53-2.82v-7.47c0-1.15-.21-2.27-.53-2.82v-.1h8.47v2.52h-.06c-.76-.39-2-.57-3.62-.57h-1.55v3.46h1.51c1.43,0,2.19-.1,2.9-.25h.08v2.58h-.08c-.7-.16-1.47-.24-2.9-.24h-1.51v3.83h1.51c1.7,0,3.09-.23,4.09-.74h.1v2.7h-8.94v-.1Z"/><path class="e" d="M156.01,39.02c.31-.55.53-1.66.53-2.82v-7.47c0-1.15-.21-2.27-.53-2.82v-.1h3.78v.1c-.31.55-.53,1.66-.53,2.82v8.43h1.21c1.7,0,3.05-.23,4.09-.76h.1v2.72h-8.65v-.1Z"/><path class="e" d="M166.36,39.02c.31-.55.53-1.66.53-2.82v-7.47c0-1.15-.21-2.27-.53-2.82v-.1h3.78v.1c-.31.55-.53,1.66-.53,2.82v8.43h1.21c1.7,0,3.05-.23,4.09-.76h.1v2.72h-8.65v-.1Z"/><path class="e" d="M177.24,28.73c0-1.15-.21-2.27-.57-2.82v-.1h3.85v.1c-.35.55-.57,1.66-.57,2.82v7.47c0,1.15.21,2.27.57,2.82v.1h-3.85v-.1c.35-.55.57-1.66.57-2.82v-7.47Z"/><path class="e" d="M182.62,32.51c0-4.23,2.84-6.91,7.22-6.91,1.33,0,2.68.25,3.52.65v2.72h-.08c-.86-.78-2.11-1.25-3.48-1.25-2.76,0-4.38,1.7-4.38,4.7s1.76,4.83,4.81,4.83c.41,0,.82-.04,1.21-.12v-3.29c-1.21,0-1.9.08-2.5.22h-.1v-2.52h.1c.63.12,1.35.22,2.64.22h2.7v.08c-.16.35-.21,1.1-.21,1.9v3.15c0,.82.06,1.39.16,1.74v.08c-1.08.35-2.76.65-3.97.65-4.64,0-7.63-2.7-7.63-6.83Z"/><path class="e" d="M196.55,39.02c.31-.55.53-1.66.53-2.82v-7.47c0-1.15-.22-2.27-.53-2.82v-.1h8.47v2.52h-.06c-.76-.39-2-.57-3.62-.57h-1.55v3.46h1.51c1.43,0,2.19-.1,2.9-.25h.08v2.58h-.08c-.7-.16-1.47-.24-2.9-.24h-1.51v3.83h1.51c1.7,0,3.09-.23,4.09-.74h.1v2.7h-8.94v-.1Z"/><path class="e" d="M210.38,29.65v6.55c0,1.15.22,2.27.53,2.82v.1h-3.38v-.1c.31-.55.53-1.66.53-2.82v-7.47c0-1.15-.22-2.27-.53-2.82v-.1h3.62l5.42,8.57v-5.65c0-1.15-.2-2.27-.53-2.82v-.1h3.38v.1c-.31.55-.53,1.66-.53,2.82v10.39h-2.43l-6.08-9.47Z"/><path class="e" d="M221.51,32.51c0-4.15,2.76-6.91,6.91-6.91,1.39,0,2.76.27,3.83.84v2.76h-.1c-1-1.02-2.37-1.49-3.74-1.49-2.56,0-4.13,1.8-4.13,4.7s1.58,4.81,4.17,4.81c1.37,0,2.7-.57,3.7-1.58h.1v2.86c-1.08.53-2.46.84-3.85.84-4.13,0-6.89-2.74-6.89-6.83Z"/><path class="e" d="M234.48,39.02c.31-.55.53-1.66.53-2.82v-7.47c0-1.15-.22-2.27-.53-2.82v-.1h8.47v2.52h-.06c-.76-.39-2-.57-3.62-.57h-1.55v3.46h1.51c1.43,0,2.19-.1,2.9-.25h.08v2.58h-.08c-.7-.16-1.47-.24-2.9-.24h-1.51v3.83h1.51c1.7,0,3.09-.23,4.09-.74h.1v2.7h-8.94v-.1Z"/><rect class="d" width="244.28" height="48"/></g></svg>