<svg xmlns="http://www.w3.org/2000/svg" viewBox="0 0 441.07 105.88"><defs><style>.cls-1{fill:#755ae2;fill-rule:evenodd;}.cls-2{fill:#2d2257;}</style></defs><g id="Layer_2" data-name="Layer 2"><g id="Layer_1-2" data-name="Layer 1"><path class="cls-1" d="M52.94,0a52.94,52.94,0,0,0,0,105.88H79.41c8.22,0,12.33,0,15.57-1.35A17.6,17.6,0,0,0,104.53,95c1.35-3.24,1.35-7.35,1.35-15.57V52.94A52.94,52.94,0,0,0,52.94,0ZM49.18,76.47H35.8A10.16,10.16,0,0,1,25.65,66.32v-31a5.88,5.88,0,0,1,6.17-5.87,6,6,0,0,1,5.6,6V60.64a4.06,4.06,0,0,0,4.06,4.06H49a6,6,0,0,1,6,5.6A5.88,5.88,0,0,1,49.18,76.47Zm25.36-.2H66A5.69,5.69,0,0,1,66,64.9h8.52a5.69,5.69,0,0,1,0,11.37Zm0-17.65H48.66a5.68,5.68,0,0,1,0-11.36H74.54a5.68,5.68,0,0,1,0,11.36Zm5.68-23.33A5.68,5.68,0,0,1,74.54,41H48.66A5.69,5.69,0,0,1,43,35.29h0a5.68,5.68,0,0,1,5.68-5.68H74.54a5.68,5.68,0,0,1,5.68,5.68Z"></path><path class="cls-2" d="M145.73,83V29.19h10.15v45H184V83Z"></path><path class="cls-2" d="M204.87,83.69q-8.16,0-12.58-4.35t-4.41-11.78V43.13h9.89V65.57q0,4.65,2.39,7t7.1,2.36q5,0,7.64-2.53a9.32,9.32,0,0,0,2.65-7.1V43.13h9.9V73.07h5V83H222.27V76.59h-2.79a15.73,15.73,0,0,1-5.81,5.27A18.82,18.82,0,0,1,204.87,83.69Z"></path><path class="cls-2" d="M239.66,83V27.2h9.89V83Z"></path><path class="cls-2" d="M264.35,38.75a5.59,5.59,0,0,1-4-9.53,5.58,5.58,0,0,1,9.53,4,5.57,5.57,0,0,1-5.58,5.58ZM259.44,83V43.13h9.89V83Z"></path><path class="cls-2" d="M297.35,83.76a22.11,22.11,0,0,1-10.82-2.56,18.11,18.11,0,0,1-7.24-7.2,22.12,22.12,0,0,1-2.59-11,22.32,22.32,0,0,1,2.56-10.95,17.83,17.83,0,0,1,7.2-7.2,22.19,22.19,0,0,1,10.89-2.56q7.69,0,12.74,3.89A17.12,17.12,0,0,1,316.47,57h-9.9a8.33,8.33,0,0,0-3.32-4.51,10.49,10.49,0,0,0-5.9-1.53,10.15,10.15,0,0,0-7.84,3.16q-2.92,3.15-2.92,8.92T289.51,72a10.15,10.15,0,0,0,7.84,3.16q7.69,0,9.42-6.64h10a17.64,17.64,0,0,1-6.31,11.25Q305.38,83.76,297.35,83.76Z"></path><path class="cls-2" d="M322,83V27.2h9.89V49h.27a12.68,12.68,0,0,1,5.24-4.95,17,17,0,0,1,7.84-1.69q7.5,0,11.91,4.51t4.42,12V83h-9.89V60.79c0-3.14-.85-5.53-2.53-7.17s-4.14-2.46-7.37-2.46-5.68.82-7.37,2.46-2.52,4-2.52,7.17V83Z"></path><path class="cls-2" d="M383.25,83.69q-7,0-10.92-3.39a11.18,11.18,0,0,1-3.95-9q0-5.84,4-9T384,59.13h12.15v-1.6q0-7.29-8.5-7.3-7.17,0-8.7,5.18H369a14.61,14.61,0,0,1,6-9.73q4.81-3.34,12.58-3.35,8.76,0,13.34,4c3.06,2.64,4.58,6.47,4.58,11.52V73.07h4.72V83H400.11V76.59h-2.79a14.24,14.24,0,0,1-5.54,5.24A18,18,0,0,1,383.25,83.69Zm1.46-7.63a13.45,13.45,0,0,0,5.84-1.23,10.31,10.31,0,0,0,4.08-3.32,7.86,7.86,0,0,0,1.5-4.68V65.9H384.51q-6.7,0-6.71,5a4.46,4.46,0,0,0,1.83,3.81A8.33,8.33,0,0,0,384.71,76.06Z"></path><path class="cls-2" d="M429,83a8.61,8.61,0,0,1-6.07-2q-2.16-2-2.16-6V50.83h-7v-7.7h7.1v-12h9.69v12h9.63v7.7h-9.5V75.19h10.43V83Z"></path></g></g></svg>