<?xml version="1.0" encoding="UTF-8" standalone="no"?>
<!-- Created with Inkscape (http://www.inkscape.org/) -->

<svg
   xmlns:dc="http://purl.org/dc/elements/1.1/"
   xmlns:cc="http://creativecommons.org/ns#"
   xmlns:rdf="http://www.w3.org/1999/02/22-rdf-syntax-ns#"
   xmlns:svg="http://www.w3.org/2000/svg"
   xmlns="http://www.w3.org/2000/svg"
   xmlns:sodipodi="http://sodipodi.sourceforge.net/DTD/sodipodi-0.dtd"
   xmlns:inkscape="http://www.inkscape.org/namespaces/inkscape"
   width="177.66594"
   height="46.655819"
   viewBox="0 0 47.007446 12.344352"
   version="1.1"
   id="svg272"
   inkscape:version="0.92.0 r15299"
   sodipodi:docname="network internationa.svg">
  <defs
     id="defs266" />
  <sodipodi:namedview
     id="base"
     pagecolor="#ffffff"
     bordercolor="#666666"
     borderopacity="1.0"
     inkscape:pageopacity="0.0"
     inkscape:pageshadow="2"
     inkscape:zoom="5.0773792"
     inkscape:cx="88.332972"
     inkscape:cy="22.827912"
     inkscape:document-units="mm"
     inkscape:current-layer="layer1"
     showgrid="false"
     fit-margin-top="0"
     fit-margin-left="0"
     fit-margin-right="0"
     fit-margin-bottom="0"
     units="px"
     inkscape:window-width="1280"
     inkscape:window-height="744"
     inkscape:window-x="-4"
     inkscape:window-y="-4"
     inkscape:window-maximized="1" />
  <metadata
     id="metadata269">
    <rdf:RDF>
      <cc:Work
         rdf:about="">
        <dc:format>image/svg+xml</dc:format>
        <dc:type
           rdf:resource="http://purl.org/dc/dcmitype/StillImage" />
        <dc:title></dc:title>
      </cc:Work>
    </rdf:RDF>
  </metadata>
  <g
     inkscape:label="Layer 1"
     inkscape:groupmode="layer"
     id="layer1"
     transform="translate(-86.99762,-185.61815)">
    <g
       transform="translate(231.45372,-49.26919)"
       id="g223">
      <polyline
         transform="matrix(0.26458333,0,0,0.26458333,-144.38746,235.00392)"
         points="163.197116 6.25164865 169.347555 6.25164865 176.906514 16.629 169.347555 27.0047973 163.205218 26.9932973 170.74922 16.6243378 163.197116 6.25164865"
         id="Fill-1"
         style="fill:#ff6666;fill-rule:evenodd;stroke:none;stroke-width:1" />
      <path
         id="Fill-2"
         d="m -110.47718,237.88701 v -1.22769 h -1.25134 v 5.48962 h 1.25134 v -2.11592 c 0,-1.44504 0.76636,-2.15637 1.86212,-2.15637 h 0.0726 v -1.3207 c -0.96178,-0.0408 -1.59326,0.51578 -1.93476,1.33106 z m 6.01385,-1.22901 -5.2e-4,7.4e-4 h -5.3e-4 l -1.99717,2.74231 h -0.002 v -4.38142 h -1.24688 v 7.12931 h 1.24688 v -2.74526 l 2.00006,2.74526 h 1.6273 l -0.002,-0.003 h 0.002 l -1.99813,-2.74346 1.99816,-2.7437 h -7.9e-4 l 7.9e-4,-7.4e-4 z m -9.24439,2.75587 c 0,0.93921 -0.64128,1.73328 -1.65541,1.73328 -0.97192,0 -1.6654,-0.80443 -1.6654,-1.75416 v -0.0208 c 0,-0.94867 0.6417,-1.73319 1.64478,-1.73319 0.9828,0 1.67603,0.79455 1.67603,1.75399 z m -1.65541,-2.86837 c -1.67529,0 -2.91706,1.28962 -2.91706,2.84749 v 0.0209 c 0,1.54792 1.23171,2.81665 2.89644,2.81665 1.68593,0 2.92704,-1.2902 2.92704,-2.83754 v -0.0208 c 0,-1.55762 -1.23072,-2.82668 -2.90642,-2.82668 z m -5.62726,3.94788 -1.41903,-3.83201 h -1.24944 l -1.7e-4,-4.1e-4 -2.4e-4,4.1e-4 h -2.5e-4 l 1.6e-4,5e-4 -1.39182,3.90429 -1.44526,-3.90479 h -1.25026 l 2.13189,5.48757 h 1.14943 l 3.2e-4,5.8e-4 1.43049,-3.82008 1.43116,3.81951 h 1.22561 l 3.2e-4,5.8e-4 2.05554,-5.48855 h -1.24958 z m -14.9207,-1.65968 c 0.15872,-0.75492 0.67444,-1.26683 1.38771,-1.26683 0.76983,0 1.23435,0.54357 1.36231,1.26683 z m 1.39892,-2.2882 c -1.56208,0 -2.66946,1.27992 -2.66946,2.83696 v 0.0212 c 0,1.68146 1.22058,2.82684 2.80336,2.82684 1.00308,0 1.71709,-0.40279 2.2338,-1.02153 l -0.73429,-0.65007 c -0.43402,0.42252 -0.86836,0.65007 -1.47824,0.65007 -0.80726,0 -1.438,-0.49563 -1.57288,-1.38238 h 4.01363 c 0.01,-0.12376 0.0208,-0.23758 0.0208,-0.35057 0,-1.56847 -0.87941,-2.93054 -2.6167,-2.93054 z m -4.62219,3.59706 -3.73042,-5.12277 h -1.45903 v 7.12824 h 1.23237 v -5.43518 l -8e-5,-3.3e-4 3.95716,5.43551 h 1.23253 v -7.12824 h -1.23253 z m 9.24026,0.30805 v -2.74814 h 1.44683 v -1.04315 h -1.44683 v -1.63969 h -1.23327 v 5.63485 c 0,1.17868 0.64195,1.57604 1.54864,1.57604 0.45933,0 0.87017,-0.10198 1.17639,-0.27483 l 0.004,-0.93288 c -0.24446,0.12195 -0.56749,0.15337 -0.8423,0.15337 -0.41843,0 -0.6539,-0.24786 -0.6539,-0.72557 z"
         inkscape:connector-curvature="0"
         style="fill:#003366;fill-rule:evenodd;stroke:none;stroke-width:0.26458332" />
      <polyline
         transform="matrix(0.26458333,0,0,0.26458333,-144.38746,235.00392)"
         points="176.555319 16.6190541 176.54784 16.6190541 176.551579 16.6243378 176.555319 16.6190541"
         id="Fill-3"
         style="fill:#ff6666;fill-rule:evenodd;stroke:none;stroke-width:1" />
      <polygon
         transform="matrix(0.26458333,0,0,0.26458333,-144.38746,235.00392)"
         points="1.0320845,44.086649 1.0320845,37.091541 0.24057042,37.091541 0.24057042,44.086649 "
         id="Fill-4"
         style="fill:#003366;fill-rule:evenodd;stroke:none;stroke-width:1" />
      <path
         id="Fill-5"
         d="m -143.60567,245.30168 h 0.20414 v 0.23807 c 0.09,-0.14819 0.23317,-0.26718 0.46914,-0.26718 0.33128,0 0.52479,0.22211 0.52479,0.54727 v 0.84867 h -0.20415 v -0.7985 c 0,-0.25386 -0.13785,-0.41225 -0.37902,-0.41225 -0.23597,0 -0.41076,0.17163 -0.41076,0.42828 v 0.78247 h -0.20414 v -1.36683"
         inkscape:connector-curvature="0"
         style="fill:#003366;fill-rule:evenodd;stroke:none;stroke-width:0.26458332" />
      <path
         id="Fill-6"
         d="m -141.90161,246.30635 v -0.8249 h -0.19079 v -0.17977 h 0.19079 v -0.41241 h 0.20414 v 0.41241 h 0.43459 v 0.17977 h -0.43459 v 0.79842 c 0,0.16652 0.0928,0.2273 0.23061,0.2273 0.0689,0 0.12731,-0.0132 0.19879,-0.0475 v 0.17443 c -0.0715,0.0371 -0.14841,0.0581 -0.24652,0.0581 -0.21998,0 -0.38702,-0.10831 -0.38702,-0.38585"
         inkscape:connector-curvature="0"
         style="fill:#003366;fill-rule:evenodd;stroke:none;stroke-width:0.26458332" />
      <path
         id="Fill-7"
         d="m -139.93725,245.90438 c -0.0239,-0.24843 -0.16705,-0.46002 -0.4374,-0.46002 -0.23589,0 -0.4162,0.19572 -0.44523,0.46002 z m -0.4003,0.61866 c 0.18815,0 0.32073,-0.0767 0.43204,-0.19301 l 0.12722,0.11373 c -0.13786,0.15329 -0.30473,0.25641 -0.56453,0.25641 -0.37647,0 -0.68384,-0.28823 -0.68384,-0.71372 0,-0.39662 0.27827,-0.71388 0.65729,-0.71388 0.40557,0 0.63873,0.32244 0.63873,0.72433 0,0.0186 0,0.0397 -0.003,0.0713 h -1.08669 c 0.029,0.2884 0.24109,0.45485 0.48233,0.45485 z"
         inkscape:connector-curvature="0"
         style="fill:#003366;fill-rule:evenodd;stroke:none;stroke-width:0.26458332" />
      <path
         id="Fill-8"
         d="m -139.37297,245.30168 h 0.20414 v 0.3569 c 0.10067,-0.22738 0.29954,-0.39136 0.55926,-0.38067 v 0.21949 h -0.0158 c -0.29954,0 -0.54343,0.21406 -0.54343,0.62647 v 0.54464 h -0.20414 v -1.36683"
         inkscape:connector-curvature="0"
         style="fill:#003366;fill-rule:evenodd;stroke:none;stroke-width:0.26458332" />
      <path
         id="Fill-9"
         d="m -138.29948,245.30168 h 0.20398 v 0.23807 c 0.0901,-0.14819 0.23341,-0.26718 0.4693,-0.26718 0.3312,0 0.52471,0.22211 0.52471,0.54727 v 0.84867 h -0.20398 v -0.7985 c 0,-0.25386 -0.13794,-0.41225 -0.3791,-0.41225 -0.23589,0 -0.41093,0.17163 -0.41093,0.42828 v 0.78247 h -0.20398 v -1.36683"
         inkscape:connector-curvature="0"
         style="fill:#003366;fill-rule:evenodd;stroke:none;stroke-width:0.26458332" />
      <path
         id="Fill-10"
         d="m -135.76309,246.16622 v -0.12697 c -0.10075,-0.0291 -0.23333,-0.0581 -0.40021,-0.0581 -0.25452,0 -0.40029,0.11093 -0.40029,0.27499 v 0.005 c 0,0.17187 0.15904,0.27245 0.34456,0.27245 0.2518,0 0.45594,-0.15066 0.45594,-0.36751 z m -1.00728,0.10575 v -0.005 c 0,-0.29358 0.2386,-0.44679 0.5858,-0.44679 0.17487,0 0.2969,0.0239 0.41876,0.0582 v -0.0424 c 0,-0.24317 -0.14841,-0.37006 -0.40557,-0.37006 -0.1616,0 -0.28882,0.0398 -0.41604,0.0979 l -0.061,-0.1667 c 0.15113,-0.0687 0.2969,-0.11636 0.49824,-0.11636 0.19359,0 0.34464,0.053 0.44275,0.15074 0.0954,0.0953 0.14322,0.22738 0.14322,0.4018 v 0.83551 h -0.20159 v -0.20369 c -0.0954,0.1217 -0.25172,0.23272 -0.49297,0.23272 -0.25707,0 -0.51159,-0.14531 -0.51159,-0.42557 z"
         inkscape:connector-curvature="0"
         style="fill:#003366;fill-rule:evenodd;stroke:none;stroke-width:0.26458332" />
      <path
         id="Fill-11"
         d="m -135.07381,246.30635 v -0.8249 h -0.19087 v -0.17977 h 0.19087 v -0.41241 h 0.20414 v 0.41241 h 0.43467 v 0.17977 h -0.43467 v 0.79842 c 0,0.16652 0.0928,0.2273 0.23053,0.2273 0.0688,0 0.12714,-0.0132 0.19887,-0.0475 v 0.17443 c -0.0717,0.0371 -0.14849,0.0581 -0.24661,0.0581 -0.21997,0 -0.38693,-0.10831 -0.38693,-0.38585"
         inkscape:connector-curvature="0"
         style="fill:#003366;fill-rule:evenodd;stroke:none;stroke-width:0.26458332" />
      <path
         id="Fill-12"
         d="m -134.05402,246.66851 h 0.23691 v -1.36683 h -0.23691 z m -0.0153,-1.62596 h 0.2707 v -0.22483 h -0.2707 z"
         inkscape:connector-curvature="0"
         style="fill:#003366;fill-rule:evenodd;stroke:none;stroke-width:0.26458332" />
      <path
         id="Fill-13"
         d="m -132.24324,245.99155 v -0.005 c 0,-0.2935 -0.21998,-0.53412 -0.50896,-0.53412 -0.29682,0 -0.50097,0.24062 -0.50097,0.52886 v 0.005 c 0,0.29342 0.21751,0.53132 0.50633,0.53132 0.2969,0 0.5036,-0.2379 0.5036,-0.52622 z m -1.21926,0 v -0.005 c 0,-0.38601 0.30217,-0.71388 0.71566,-0.71388 0.41084,0 0.71302,0.32244 0.71302,0.70862 v 0.005 c 0,0.38593 -0.30482,0.71372 -0.71838,0.71372 -0.41077,0 -0.7103,-0.32244 -0.7103,-0.70862 z"
         inkscape:connector-curvature="0"
         style="fill:#003366;fill-rule:evenodd;stroke:none;stroke-width:0.26458332" />
      <path
         id="Fill-14"
         d="m -131.66552,245.30168 h 0.20398 v 0.23807 c 0.0901,-0.14819 0.23333,-0.26718 0.46914,-0.26718 0.33136,0 0.52487,0.22211 0.52487,0.54727 v 0.84867 h -0.20415 v -0.7985 c 0,-0.25386 -0.13777,-0.41225 -0.37893,-0.41225 -0.23597,0 -0.41093,0.17163 -0.41093,0.42828 v 0.78247 h -0.20398 v -1.36683"
         inkscape:connector-curvature="0"
         style="fill:#003366;fill-rule:evenodd;stroke:none;stroke-width:0.26458332" />
      <path
         id="Fill-15"
         d="m -129.12921,246.16622 v -0.12697 c -0.10067,-0.0291 -0.23333,-0.0581 -0.40021,-0.0581 -0.25452,0 -0.40021,0.11093 -0.40021,0.27499 v 0.005 c 0,0.17187 0.15896,0.27245 0.34447,0.27245 0.25189,0 0.45595,-0.15066 0.45595,-0.36751 z m -1.0072,0.10575 v -0.005 c 0,-0.29358 0.23852,-0.44679 0.58572,-0.44679 0.17495,0 0.2969,0.0239 0.41876,0.0582 v -0.0424 c 0,-0.24317 -0.14841,-0.37006 -0.40549,-0.37006 -0.16168,0 -0.2889,0.0398 -0.4162,0.0979 l -0.0608,-0.1667 c 0.15105,-0.0687 0.29682,-0.11636 0.49824,-0.11636 0.19351,0 0.34456,0.053 0.44267,0.15074 0.0955,0.0953 0.14313,0.22738 0.14313,0.4018 v 0.83551 h -0.2015 v -0.20369 c -0.0953,0.1217 -0.25172,0.23272 -0.49297,0.23272 -0.25708,0 -0.51151,-0.14531 -0.51151,-0.42557 z"
         inkscape:connector-curvature="0"
         style="fill:#003366;fill-rule:evenodd;stroke:none;stroke-width:0.26458332" />
      <polygon
         transform="matrix(0.26458333,0,0,0.26458333,-144.38746,235.00392)"
         points="60.893921,44.086649 60.893921,37.091541 60.122974,37.091541 60.122974,44.086649 "
         id="Fill-16"
         style="fill:#003366;fill-rule:evenodd;stroke:none;stroke-width:1" />
      <path
         id="Fill-17"
         d="m -126.30408,245.82519 c 0.30745,0 0.50896,-0.16398 0.50896,-0.40723 v -0.005 c 0,-0.26455 -0.19879,-0.40197 -0.49841,-0.40197 h -0.46906 v 0.8143 z m -0.66784,-1.00747 h 0.69438 c 0.41876,0 0.69439,0.2222 0.69439,0.58716 v 0.005 c 0,0.39942 -0.33392,0.6055 -0.72893,0.6055 h -0.45051 v 0.65303 h -0.20933 z"
         inkscape:connector-curvature="0"
         style="fill:#003366;fill-rule:evenodd;stroke:none;stroke-width:0.26458332" />
      <path
         id="Fill-18"
         d="m -124.35877,246.16622 v -0.12697 c -0.10076,-0.0291 -0.23325,-0.0581 -0.4003,-0.0581 -0.25443,0 -0.4002,0.11093 -0.4002,0.27499 v 0.005 c 0,0.17187 0.15912,0.27245 0.34463,0.27245 0.25172,0 0.45587,-0.15066 0.45587,-0.36751 z m -1.00737,0.10575 v -0.005 c 0,-0.29358 0.23869,-0.44679 0.58589,-0.44679 0.17504,0 0.29681,0.0239 0.41884,0.0582 v -0.0424 c 0,-0.24317 -0.14849,-0.37006 -0.40557,-0.37006 -0.1616,0 -0.2889,0.0398 -0.41612,0.0979 l -0.0609,-0.1667 c 0.15104,-0.0687 0.29673,-0.11636 0.49824,-0.11636 0.19351,0 0.34464,0.053 0.44267,0.15074 0.0955,0.0953 0.14313,0.22738 0.14313,0.4018 v 0.83551 h -0.20142 v -0.20369 c -0.0956,0.1217 -0.25188,0.23272 -0.49305,0.23272 -0.25708,0 -0.51168,-0.14531 -0.51168,-0.42557 z"
         inkscape:connector-curvature="0"
         style="fill:#003366;fill-rule:evenodd;stroke:none;stroke-width:0.26458332" />
      <path
         id="Fill-19"
         d="m -123.8607,247.03068 0.0689,-0.16143 c 0.0663,0.0345 0.12722,0.0503 0.21462,0.0503 0.1221,0 0.19886,-0.0635 0.28107,-0.25641 l -0.62291,-1.36149 h 0.22525 l 0.49824,1.13945 0.43995,-1.13945 h 0.21751 l -0.57525,1.41173 c -0.11667,0.28289 -0.24908,0.38602 -0.45587,0.38602 -0.11394,0 -0.19878,-0.0239 -0.29154,-0.0688"
         inkscape:connector-curvature="0"
         style="fill:#003366;fill-rule:evenodd;stroke:none;stroke-width:0.26458332" />
      <path
         id="Fill-20"
         d="m -122.21492,245.30168 h 0.20406 v 0.23009 c 0.0901,-0.13495 0.2123,-0.2592 0.44267,-0.2592 0.22269,0 0.36583,0.11899 0.44003,0.27228 0.0981,-0.15074 0.24389,-0.27228 0.48241,-0.27228 0.31529,0 0.50888,0.21151 0.50888,0.5499 v 0.84604 h -0.20415 v -0.7985 c 0,-0.26431 -0.13249,-0.41225 -0.3551,-0.41225 -0.20671,0 -0.37911,0.15312 -0.37911,0.42294 v 0.78781 h -0.20134 v -0.80368 c 0,-0.25641 -0.1353,-0.40707 -0.35239,-0.40707 -0.21742,0 -0.3819,0.17952 -0.3819,0.43083 v 0.77992 h -0.20406 v -1.36683"
         inkscape:connector-curvature="0"
         style="fill:#003366;fill-rule:evenodd;stroke:none;stroke-width:0.26458332" />
      <path
         id="Fill-21"
         d="m -118.68988,245.90438 c -0.024,-0.24843 -0.16705,-0.46002 -0.43756,-0.46002 -0.23556,0 -0.41604,0.19572 -0.44515,0.46002 z m -0.40038,0.61866 c 0.18823,0 0.32065,-0.0767 0.43204,-0.19301 l 0.1273,0.11373 c -0.13777,0.15329 -0.30473,0.25641 -0.56461,0.25641 -0.37639,0 -0.68384,-0.28823 -0.68384,-0.71372 0,-0.39662 0.27818,-0.71388 0.65737,-0.71388 0.40549,0 0.63898,0.32244 0.63898,0.72433 0,0.0186 0,0.0397 -0.003,0.0713 h -1.08669 c 0.0291,0.2884 0.24117,0.45485 0.48233,0.45485 z"
         inkscape:connector-curvature="0"
         style="fill:#003366;fill-rule:evenodd;stroke:none;stroke-width:0.26458332" />
      <path
         id="Fill-22"
         d="m -118.12552,245.30168 h 0.20415 v 0.23807 c 0.0901,-0.14819 0.23325,-0.26718 0.46905,-0.26718 0.33137,0 0.52496,0.22211 0.52496,0.54727 v 0.84867 h -0.20431 v -0.7985 c 0,-0.25386 -0.13769,-0.41225 -0.37902,-0.41225 -0.23589,0 -0.41068,0.17163 -0.41068,0.42828 v 0.78247 h -0.20415 v -1.36683"
         inkscape:connector-curvature="0"
         style="fill:#003366;fill-rule:evenodd;stroke:none;stroke-width:0.26458332" />
      <path
         id="Fill-23"
         d="m -116.42137,246.30635 v -0.8249 h -0.19079 v -0.17977 h 0.19079 v -0.41241 h 0.20423 v 0.41241 h 0.4345 v 0.17977 h -0.4345 v 0.79842 c 0,0.16652 0.0926,0.2273 0.23061,0.2273 0.0688,0 0.12713,-0.0132 0.19854,-0.0475 v 0.17443 c -0.0714,0.0371 -0.14841,0.0581 -0.24628,0.0581 -0.22006,0 -0.3871,-0.10831 -0.3871,-0.38585"
         inkscape:connector-curvature="0"
         style="fill:#003366;fill-rule:evenodd;stroke:none;stroke-width:0.26458332" />
      <path
         id="Fill-24"
         d="m -114.71467,246.39894 0.12986,-0.15353 c 0.19351,0.17459 0.37894,0.26176 0.6361,0.26176 0.24916,0 0.4134,-0.13207 0.4134,-0.31464 v -0.005 c 0,-0.17187 -0.0926,-0.26965 -0.48217,-0.35172 -0.42675,-0.0925 -0.62298,-0.22993 -0.62298,-0.53395 v -0.005 c 0,-0.29095 0.25691,-0.50501 0.60963,-0.50501 0.27043,0 0.46386,0.0767 0.65209,0.22746 l -0.12211,0.16127 c -0.17232,-0.14022 -0.34447,-0.20099 -0.53534,-0.20099 -0.24117,0 -0.39477,0.13215 -0.39477,0.29876 v 0.005 c 0,0.17467 0.0952,0.27245 0.50344,0.3597 0.41348,0.0898 0.60443,0.24038 0.60443,0.52343 v 0.005 c 0,0.31718 -0.26507,0.52351 -0.63354,0.52351 -0.29426,0 -0.53526,-0.0979 -0.75804,-0.29605"
         inkscape:connector-curvature="0"
         style="fill:#003366;fill-rule:evenodd;stroke:none;stroke-width:0.26458332" />
      <path
         id="Fill-25"
         d="m -111.79654,245.99155 v -0.005 c 0,-0.2935 -0.21997,-0.53412 -0.50888,-0.53412 -0.2969,0 -0.50104,0.24062 -0.50104,0.52886 v 0.005 c 0,0.29342 0.21742,0.53132 0.50624,0.53132 0.2969,0 0.50368,-0.2379 0.50368,-0.52622 z m -1.21918,0 v -0.005 c 0,-0.38601 0.30201,-0.71388 0.7155,-0.71388 0.41076,0 0.71302,0.32244 0.71302,0.70862 v 0.005 c 0,0.38593 -0.30482,0.71372 -0.71822,0.71372 -0.41092,0 -0.7103,-0.32244 -0.7103,-0.70862 z"
         inkscape:connector-curvature="0"
         style="fill:#003366;fill-rule:evenodd;stroke:none;stroke-width:0.26458332" />
      <polygon
         transform="matrix(0.26458333,0,0,0.26458333,-144.38746,235.00392)"
         points="126.20225,44.086649 126.20225,37.091541 125.43099,37.091541 125.43099,44.086649 "
         id="Fill-26"
         style="fill:#003366;fill-rule:evenodd;stroke:none;stroke-width:1" />
      <path
         id="Fill-27"
         d="m -110.54314,246.15027 v -0.84859 h 0.20406 v 0.79834 c 0,0.25394 0.13794,0.41249 0.37894,0.41249 0.23341,0 0.41093,-0.17179 0.41093,-0.42828 v -0.78255 h 0.20158 v 1.36683 h -0.20158 v -0.23807 c -0.0926,0.14811 -0.23326,0.2671 -0.46889,0.2671 -0.3317,0 -0.52504,-0.22203 -0.52504,-0.54727"
         inkscape:connector-curvature="0"
         style="fill:#003366;fill-rule:evenodd;stroke:none;stroke-width:0.26458332" />
      <path
         id="Fill-28"
         d="m -108.81789,246.30635 v -0.8249 h -0.19062 v -0.17977 h 0.19062 v -0.41241 h 0.20414 v 0.41241 h 0.43476 v 0.17977 h -0.43476 v 0.79842 c 0,0.16652 0.0929,0.2273 0.2307,0.2273 0.0689,0 0.12713,-0.0132 0.1987,-0.0475 v 0.17443 c -0.0716,0.0371 -0.14832,0.0581 -0.24652,0.0581 -0.21989,0 -0.38702,-0.10831 -0.38702,-0.38585"
         inkscape:connector-curvature="0"
         style="fill:#003366;fill-rule:evenodd;stroke:none;stroke-width:0.26458332" />
      <path
         id="Fill-29"
         d="m -107.7981,246.66851 h 0.23709 v -1.36683 h -0.23709 z m -0.0152,-1.62596 h 0.27071 v -0.22483 h -0.27071 z"
         inkscape:connector-curvature="0"
         style="fill:#003366;fill-rule:evenodd;stroke:none;stroke-width:0.26458332" />
      <path
         id="Fill-30"
         d="m -105.98716,245.99155 v -0.005 c 0,-0.2935 -0.22005,-0.53412 -0.50895,-0.53412 -0.29699,0 -0.50105,0.24062 -0.50105,0.52886 v 0.005 c 0,0.29342 0.21725,0.53132 0.50649,0.53132 0.29665,0 0.50351,-0.2379 0.50351,-0.52622 z m -1.21926,0 v -0.005 c 0,-0.38601 0.3021,-0.71388 0.71575,-0.71388 0.41068,0 0.71269,0.32244 0.71269,0.70862 v 0.005 c 0,0.38593 -0.30465,0.71372 -0.71813,0.71372 -0.41093,0 -0.71031,-0.32244 -0.71031,-0.70862 z"
         inkscape:connector-curvature="0"
         style="fill:#003366;fill-rule:evenodd;stroke:none;stroke-width:0.26458332" />
      <path
         id="Fill-31"
         d="m -105.40968,245.30168 h 0.20431 v 0.23807 c 0.0899,-0.14819 0.23317,-0.26718 0.46897,-0.26718 0.33137,0 0.52479,0.22211 0.52479,0.54727 v 0.84867 h -0.20406 v -0.7985 c 0,-0.25386 -0.13785,-0.41225 -0.37918,-0.41225 -0.23573,0 -0.41052,0.17163 -0.41052,0.42828 v 0.78247 h -0.20431 v -1.36683"
         inkscape:connector-curvature="0"
         style="fill:#003366;fill-rule:evenodd;stroke:none;stroke-width:0.26458332" />
      <path
         id="Fill-32"
         d="m -103.89104,246.49393 0.10347,-0.14523 c 0.14841,0.11093 0.31273,0.17434 0.47441,0.17434 0.16441,0 0.28355,-0.0846 0.28355,-0.21669 v -0.005 c 0,-0.13741 -0.16152,-0.19045 -0.34167,-0.24062 -0.21487,-0.0607 -0.45348,-0.13486 -0.45348,-0.38593 v -0.005 c 0,-0.23528 0.19623,-0.39128 0.46667,-0.39128 0.16696,0 0.3523,0.0582 0.49288,0.15066 l -0.0928,0.15337 c -0.12722,-0.082 -0.27282,-0.13224 -0.40565,-0.13224 -0.16152,0 -0.26483,0.0845 -0.26483,0.19827 v 0.005 c 0,0.12952 0.16952,0.17968 0.35247,0.23527 0.21207,0.0635 0.43996,0.14523 0.43996,0.39128 v 0.005 c 0,0.25912 -0.21462,0.40986 -0.48769,0.40986 -0.19615,0 -0.4134,-0.0766 -0.56725,-0.20106"
         inkscape:connector-curvature="0"
         style="fill:#003366;fill-rule:evenodd;stroke:none;stroke-width:0.26458332" />
    </g>
  </g>
</svg>
