<svg width="114" height="32" viewBox="0 0 114 32" fill="none" xmlns="http://www.w3.org/2000/svg">
<path d="M14.25 2.74241C15.3329 2.1172 16.6671 2.1172 17.75 2.74241L26.6064 7.85566C27.6893 8.48088 28.3564 9.63632 28.3564 10.8868V21.1132C28.3564 22.3637 27.6893 23.5191 26.6064 24.1443L17.75 29.2576C16.6671 29.8828 15.3329 29.8828 14.25 29.2576L5.39359 24.1443C4.31069 23.5191 3.64359 22.3637 3.64359 21.1132V10.8868C3.64359 9.63632 4.31069 8.48088 5.39359 7.85566L14.25 2.74241Z" stroke="url(#paint0_linear_22776_27624)" stroke-width="3"/>
<path d="M49.384 24.288C47.672 24.288 46.192 23.984 44.944 23.376C43.696 22.752 42.736 21.808 42.064 20.544C41.408 19.28 41.08 17.688 41.08 15.768C41.08 13.832 41.408 12.24 42.064 10.992C42.736 9.728 43.696 8.792 44.944 8.184C46.192 7.56 47.672 7.248 49.384 7.248C51.112 7.248 52.592 7.56 53.824 8.184C55.072 8.792 56.024 9.728 56.68 10.992C57.352 12.24 57.688 13.832 57.688 15.768C57.688 17.688 57.352 19.28 56.68 20.544C56.024 21.808 55.072 22.752 53.824 23.376C52.592 23.984 51.112 24.288 49.384 24.288ZM49.384 21.648C50.216 21.648 50.944 21.528 51.568 21.288C52.208 21.048 52.744 20.696 53.176 20.232C53.608 19.752 53.936 19.168 54.16 18.48C54.384 17.776 54.496 16.968 54.496 16.056V15.528C54.496 14.6 54.384 13.784 54.16 13.08C53.936 12.376 53.608 11.792 53.176 11.328C52.744 10.848 52.208 10.488 51.568 10.248C50.944 10.008 50.216 9.888 49.384 9.888C48.552 9.888 47.816 10.008 47.176 10.248C46.552 10.488 46.024 10.848 45.592 11.328C45.16 11.792 44.832 12.376 44.608 13.08C44.4 13.784 44.296 14.6 44.296 15.528V16.056C44.296 16.968 44.4 17.776 44.608 18.48C44.832 19.168 45.16 19.752 45.592 20.232C46.024 20.696 46.552 21.048 47.176 21.288C47.816 21.528 48.552 21.648 49.384 21.648ZM60.1174 24V7.536H69.0934C69.9734 7.536 70.7574 7.704 71.4454 8.04C72.1494 8.376 72.7014 8.848 73.1014 9.456C73.5014 10.064 73.7014 10.776 73.7014 11.592C73.7014 12.216 73.5814 12.784 73.3414 13.296C73.1014 13.808 72.7734 14.24 72.3574 14.592C71.9574 14.928 71.5014 15.184 70.9894 15.36V15.456C71.5974 15.584 72.1414 15.832 72.6214 16.2C73.1014 16.552 73.4774 17.008 73.7494 17.568C74.0214 18.112 74.1574 18.744 74.1574 19.464C74.1574 20.488 73.9254 21.336 73.4614 22.008C73.0134 22.68 72.4054 23.184 71.6374 23.52C70.8854 23.84 70.0374 24 69.0934 24H60.1174ZM63.2374 21.336H68.6854C69.3414 21.336 69.8774 21.16 70.2934 20.808C70.7254 20.44 70.9414 19.872 70.9414 19.104C70.9414 18.656 70.8534 18.264 70.6774 17.928C70.5014 17.592 70.2294 17.336 69.8614 17.16C69.5094 16.968 69.0534 16.872 68.4934 16.872H63.2374V21.336ZM63.2374 14.256H68.2774C68.7574 14.256 69.1574 14.168 69.4774 13.992C69.8134 13.816 70.0614 13.576 70.2214 13.272C70.3974 12.968 70.4854 12.632 70.4854 12.264C70.4854 11.56 70.2934 11.04 69.9094 10.704C69.5414 10.368 69.0534 10.2 68.4454 10.2H63.2374V14.256ZM76.5828 24V7.536H79.7028V24H76.5828ZM82.8762 24V7.536H95.7162V10.2H85.9962V14.256H94.6602V16.92H85.9962V21.336H95.8602V24H82.8762ZM96.9612 24L102.889 15.36L97.5132 7.536H101.329L104.977 13.032H105.097L108.745 7.536H112.321L106.945 15.336L112.897 24H109.105L104.881 17.64H104.737L100.561 24H96.9612Z" fill="#FDFDFD"/>
<defs>
<linearGradient id="paint0_linear_22776_27624" x1="6.08" y1="29.44" x2="31.68" y2="3.2" gradientUnits="userSpaceOnUse">
<stop stop-color="#34C8EC"/>
<stop offset="1" stop-color="#9833FD"/>
</linearGradient>
</defs>
</svg>
