<svg width="170" height="40" viewBox="0 0 170 40" fill="none" xmlns="http://www.w3.org/2000/svg">
<g id="Group 1">
<path id="Vector" d="M48.5 16.2037C48.5 14.4227 48.9563 12.7593 49.8836 11.2432C50.7963 9.72709 52.0621 8.50536 53.6813 7.60747C55.2416 6.72429 56.9343 6.28271 58.7448 6.28271C60.5553 6.28271 62.2628 6.73903 63.8378 7.66636C65.4275 8.57897 66.6787 9.83014 67.6207 11.3904C68.5186 12.9801 68.9749 14.6876 68.9749 16.5275C68.9749 18.3675 68.5186 20.0749 67.5913 21.6352C66.6787 23.2102 65.4275 24.4467 63.8672 25.3593C62.307 26.2866 60.5995 26.7577 58.7301 26.7577C56.5663 26.7577 54.5792 26.11 52.7687 24.8294V31.7035C52.5479 32.0714 52.0474 32.7632 51.179 33.2931C50.0603 33.9702 48.9857 33.985 48.5442 33.9702C48.5442 28.053 48.5147 22.1504 48.5 16.2332M53.5783 19.5009C54.1229 20.4135 54.8442 21.1495 55.7421 21.6647C56.6252 22.224 57.6114 22.489 58.7301 22.489C59.8488 22.489 60.7761 22.224 61.6887 21.6794C62.6013 21.1348 63.3373 20.4135 63.8967 19.5156C64.4266 18.603 64.6915 17.6168 64.6915 16.5275C64.6915 15.4383 64.4266 14.4815 63.882 13.5689C63.3374 12.6563 62.6161 11.9203 61.7182 11.361C60.8056 10.8311 59.8194 10.5661 58.7301 10.5661C57.6409 10.5661 56.6841 10.8311 55.7715 11.3757C54.8589 11.9203 54.1229 12.6416 53.6077 13.5395C53.0484 14.4226 52.7834 15.4088 52.7834 16.5275C52.7834 17.6462 53.0483 18.5736 53.593 19.4862" fill="#360E54"/>
<path id="Vector_2" d="M110.03 6.28271V17.764C110.03 19.5451 109.588 21.1054 108.72 22.5037C107.837 23.8579 106.674 24.9177 105.246 25.6684C104.51 26.0511 103.745 26.3308 102.95 26.5074V33.9555H101.625C100.035 33.9555 98.7399 32.6602 98.7399 31.0705V26.5958C97.8273 26.4191 96.9588 26.11 96.1198 25.6831C94.6773 24.9177 93.5291 23.8726 92.646 22.5184C91.7628 21.12 91.3359 19.5598 91.3359 17.7787V6.29745H92.8962C94.3682 6.29745 95.5604 7.48973 95.5604 8.96169V17.7787C95.5604 19.2507 96.0756 20.3988 97.0766 21.2378C97.8125 21.856 98.6663 22.2534 99.6525 22.4154C99.6819 22.4154 99.7114 22.4301 99.7408 22.4154C99.8733 22.4448 100.035 22.4743 100.182 22.4596C100.241 22.4743 100.3 22.4743 100.359 22.4596C100.447 22.4743 100.536 22.4743 100.639 22.4743H100.786C100.889 22.4743 100.992 22.4743 101.08 22.4596C101.124 22.4596 101.169 22.4596 101.213 22.4596C101.375 22.4596 101.537 22.4301 101.684 22.4007C101.831 22.3712 101.993 22.3565 102.14 22.327C102.964 22.1357 103.686 21.753 104.319 21.2231C105.334 20.3693 105.835 19.236 105.835 17.764V9.03527C105.835 7.51915 107.056 6.28271 108.587 6.28271H110.059H110.03Z" fill="#360E54"/>
<path id="Vector_3" d="M127.207 24.8148C125.397 26.0954 123.41 26.7431 121.246 26.7431C119.406 26.7431 117.698 26.2868 116.138 25.3594C114.563 24.4468 113.327 23.1957 112.414 21.6059C111.487 20.0751 111.016 18.3677 111.016 16.513C111.016 14.6583 111.472 12.9656 112.399 11.4053C113.312 9.83029 114.578 8.5791 116.153 7.65177C117.949 6.60668 119.921 6.1651 122.085 6.32701C123.38 6.41533 124.661 6.78334 125.824 7.3574C127.634 8.27002 129.062 9.56532 130.092 11.2433C131.02 12.7742 131.491 14.4375 131.491 16.2186L131.461 23.284C131.461 25.1387 129.945 26.6401 128.105 26.6401H127.222V24.8295L127.207 24.8148ZM126.486 13.7015C125.941 12.7153 125.176 11.9352 124.234 11.3464C123.292 10.8018 122.261 10.5368 121.143 10.5515C120.201 10.5515 119.273 10.8165 118.449 11.2728C117.448 11.8174 116.683 12.5828 116.123 13.5396C115.564 14.4375 115.284 15.4532 115.284 16.5866C115.284 17.5286 115.535 18.4854 115.991 19.3097C116.535 20.3106 117.301 21.0908 118.258 21.6501C119.156 22.2242 120.186 22.5038 121.334 22.4744C122.276 22.4597 123.218 22.2095 124.042 21.7531C125.043 21.2085 125.824 20.4431 126.412 19.4863C126.957 18.5443 127.222 17.4992 127.207 16.3658C127.192 15.4384 126.942 14.4964 126.486 13.6868" fill="#360E54"/>
<path id="Vector_4" d="M164.77 24.8148C162.959 26.0954 160.972 26.7431 158.808 26.7431C156.968 26.7431 155.261 26.2868 153.701 25.3594C152.126 24.4468 150.889 23.1957 149.977 21.6059C149.049 20.0751 148.578 18.3677 148.578 16.513C148.578 14.6583 149.034 12.9656 149.962 11.4053C150.874 9.83029 152.14 8.5791 153.715 7.65177C155.511 6.60668 157.483 6.1651 159.647 6.32701C160.943 6.41533 162.223 6.78334 163.386 7.3574C165.197 8.27002 166.624 9.56532 167.655 11.2433C168.582 12.7742 169.053 14.4375 169.053 16.2186L169.024 23.284C169.024 25.1387 167.508 26.6401 165.668 26.6401H164.784V24.8295L164.77 24.8148ZM164.048 13.7015C163.504 12.7153 162.738 11.9352 161.796 11.3464C160.854 10.8018 159.824 10.5368 158.705 10.5515C157.763 10.5515 156.836 10.8165 156.012 11.2728C155.011 11.8174 154.245 12.5828 153.686 13.5396C153.126 14.4375 152.847 15.4532 152.847 16.5866C152.847 17.5286 153.097 18.4854 153.553 19.3097C154.098 20.3106 154.863 21.0908 155.82 21.6501C156.733 22.2242 157.763 22.5038 158.897 22.4744C159.839 22.4597 160.781 22.2095 161.605 21.7531C162.606 21.2085 163.386 20.4431 163.975 19.4863C164.519 18.5443 164.784 17.4992 164.77 16.3658C164.755 15.4384 164.505 14.4964 164.048 13.6868" fill="#360E54"/>
<path id="Vector_5" d="M86.1095 24.8148C84.299 26.0954 82.3119 26.7431 80.1481 26.7431C78.3081 26.7431 76.6007 26.2868 75.0404 25.3594C73.4654 24.4468 72.229 23.1957 71.3163 21.6059C70.389 20.0751 69.918 18.3677 69.918 16.513C69.918 14.6583 70.3743 12.9656 71.3016 11.4053C72.2142 9.83029 73.4801 8.5791 75.0551 7.65177C76.8509 6.60668 78.8233 6.1651 80.9871 6.32701C82.2824 6.41533 83.5631 6.78334 84.7259 7.3574C86.5364 8.27002 87.9642 9.56532 88.9946 11.2433C89.9219 12.7742 90.3929 14.4375 90.3929 16.2186L90.3635 23.284C90.3635 25.1387 88.8474 26.6401 87.0074 26.6401H86.1242V24.8295L86.1095 24.8148ZM85.3883 13.7015C84.8436 12.7153 84.0782 11.9352 83.1362 11.3464C82.1941 10.8018 81.1637 10.5368 80.045 10.5515C79.103 10.5515 78.1757 10.8165 77.3514 11.2728C76.3505 11.8174 75.585 12.5828 75.0257 13.5396C74.4663 14.4375 74.1867 15.4532 74.1867 16.5866C74.1867 17.5286 74.4369 18.4854 74.8932 19.3097C75.4378 20.3106 76.2032 21.0908 77.16 21.6501C78.0726 22.2242 79.103 22.5038 80.2364 22.4744C81.1785 22.4597 82.1205 22.2095 82.9448 21.7531C83.9457 21.2085 84.7259 20.4431 85.3147 19.4863C85.8593 18.5443 86.1242 17.4992 86.1095 16.3658C86.0948 15.4384 85.8446 14.4964 85.3883 13.6868" fill="#360E54"/>
<path id="Vector_6" d="M142.999 9.56426V10.6535H137.347C135.065 10.6535 133.225 8.81357 133.225 6.53203C133.225 6.38484 133.343 6.26709 133.49 6.26709H148.607C148.755 6.26709 148.872 6.38484 148.872 6.53203V7.91568C148.872 8.75469 148.593 9.57898 148.092 10.2561L138.201 23.2976V22.2084H145.222C147.445 22.2084 149.255 24.0189 149.255 26.2415V26.4476C149.255 26.5948 149.137 26.7126 148.99 26.7126H132.902C132.754 26.7126 132.637 26.5948 132.637 26.4476V24.8726C132.637 23.7834 132.99 22.7236 133.652 21.8551L143.014 9.56426H142.999Z" fill="#360E54"/>
<g id="Group 1171274849">
<path id="Vector_7" d="M19.9597 39.9756C8.93478 39.9756 0 31.0409 0 20.0159C0 8.99093 8.93478 0.0561523 19.9597 0.0561523C30.9847 0.0561523 39.9195 8.99093 39.9195 20.0159C39.9195 31.0409 30.9847 39.9756 19.9597 39.9756Z" fill="#58FA5A"/>
<path id="Vector_8" d="M32.3674 32.7036C31.705 28.641 30.2184 26.1534 27.8485 25.123C24.5955 23.6952 20.7537 25.5205 17.0443 27.2868C16.1759 27.699 14.8217 28.3466 13.6294 28.7882C12.9523 29.0384 12.3193 28.3319 12.6432 27.6842C13.8502 25.2702 16.3819 21.5314 19.5172 18.2784C21.6957 16.0116 24.2275 14.0392 27.0537 12.3611L27.0831 20.0006C27.0831 21.4137 28.2312 22.5471 29.6443 22.5471H30.6452C31.0868 22.5471 31.4401 22.1791 31.4401 21.7522L31.3812 7.03266C31.3812 6.59108 31.0279 6.23779 30.5863 6.23779H14.9983C14.5567 6.23779 14.2035 6.60581 14.2035 7.0474V7.79806C14.2035 9.34362 15.4546 10.5948 17.0002 10.5948H21.8282C19.8558 12.0079 18.0453 13.5682 16.3967 15.2756C13.9827 17.778 11.5392 20.9721 9.83173 23.8277C8.25674 26.4625 6.4168 30.216 8.43338 32.3945C8.65417 32.63 8.90442 32.8361 9.22825 33.0127C11.9367 34.5436 15.3369 32.9244 18.9284 31.2169C21.4897 29.9952 24.6838 28.4791 26.1263 29.112C26.7887 29.4064 27.3628 30.3779 27.7749 31.894C27.9074 32.365 28.0987 32.7183 28.4667 33.0716C29.0849 33.6604 29.9387 33.7781 30.5716 33.7781C30.9543 33.734 31.337 33.6751 31.705 33.631C32.1466 33.5721 32.4557 33.1599 32.3821 32.7183" fill="#360E54"/>
</g>
</g>
</svg>
