<?xml version="1.0" encoding="UTF-8" standalone="no"?><!DOCTYPE svg PUBLIC "-//W3C//DTD SVG 1.1//EN" "http://www.w3.org/Graphics/SVG/1.1/DTD/svg11.dtd"><svg width="100%" height="100%" viewBox="0 0 1184 206" version="1.1" xmlns="http://www.w3.org/2000/svg" xmlns:xlink="http://www.w3.org/1999/xlink" xml:space="preserve" xmlns:serif="http://www.serif.com/" style="fill-rule:evenodd;clip-rule:evenodd;stroke-linejoin:round;stroke-miterlimit:2;"><g><g><path d="M217,91C221,98 221,106 217,112C206,130 186,166 175,184C172,191 164,195 157,195C156,195 155,195 155,195C167,194 169,187 169,176C169,176 169,63 169,22C169,21 170,19 172,19C174,18 175,19 176,20C187,39 207,73 217,91Z" style="fill:rgb(237,166,255);"/><path d="M176,184C172,191 165,195 157,195C136,195 95,195 74,195C66,195 59,191 55,184C55,184 55,183 55,183C61,193 69,191 78,186L207,111C218,105 220,98 216,90C216,90 217,90 217,91C221,98 221,106 217,112C207,130 186,166 176,184Z" style="fill:rgb(173,139,255);"/><path d="M74,195C66,195 59,191 55,184C45,166 24,130 14,112C10,106 10,98 14,91C14,90 14,90 14,90C9,100 15,106 24,111L153,186C164,193 171,191 176,183C176,183 176,184 175,184C172,191 164,195 157,195C136,195 95,195 74,195Z" style="fill:rgb(237,166,255);"/><path d="M14,112C10,106 10,98 14,91C24,73 45,37 55,19C59,12 66,8 74,8C75,8 75,8 75,8C64,9 61,17 61,27L61,176C61,189 66,195 75,195C75,195 75,195 74,195C66,195 59,191 55,184C45,166 24,130 14,112Z" style="fill:rgb(255,149,177);"/><path d="M55,19C59,12 66,8 74,8C94,8 134,8 155,8C157,8 158,9 159,11C159,13 159,14 157,15C122,36 24,92 24,92C12,98 10,105 14,114C14,114 14,113 14,113C10,106 10,98 14,91C24,73 45,37 55,19Z" style="fill:rgb(255,193,150);"/></g><path d="M479,37C515,37 544,66 544,102C544,138 515,167 479,167C443,167 414,138 414,102C414,66 443,37 479,37ZM906,37C942,37 971,66 971,102C971,138 942,167 906,167C870,167 841,138 841,102C841,66 870,37 906,37ZM1096,39C1095,39 1093,40 1093,42C1093,58 1093,145 1093,161C1093,163 1095,164 1096,164C1108,164 1154,164 1166,164C1168,164 1169,163 1169,161C1169,156 1169,145 1169,140C1169,139 1168,137 1166,137C1156,137 1122,137 1122,137L1122,114L1161,114C1161,114 1162,113 1163,113C1163,112 1164,112 1164,111C1164,106 1164,95 1164,90C1164,90 1163,89 1163,88C1162,88 1161,88 1161,88C1151,88 1122,88 1122,88L1122,67L1166,67C1168,67 1169,65 1169,64C1169,59 1169,47 1169,42C1169,40 1168,39 1166,39C1154,39 1108,39 1096,39ZM564,39C563,39 562,39 562,40C561,40 561,41 561,42C561,58 561,145 561,161C561,163 562,164 564,164C575,164 619,164 630,164C631,164 632,164 632,163C633,163 633,162 633,161C633,156 633,145 633,140C633,139 632,137 630,137C621,137 590,137 590,137L590,42C590,41 590,40 589,40C588,39 588,39 587,39C581,39 569,39 564,39ZM671,109L671,161C671,162 671,163 671,163C672,164 673,164 673,164C679,164 691,164 696,164C698,164 699,163 699,161C699,150 699,109 699,109C699,109 728,58 737,43C738,42 738,41 737,40C737,39 736,39 735,39C727,39 714,39 710,39C709,39 708,39 707,40C703,48 685,81 685,81C685,81 668,48 664,40C663,39 662,39 661,39C656,39 643,39 636,39C635,39 634,39 633,40C633,41 633,42 633,43C642,58 671,109 671,109ZM776,66L776,161C776,163 777,164 779,164C784,164 796,164 801,164C802,164 803,164 803,163C804,163 804,162 804,161C804,145 804,66 804,66L830,66C832,66 833,65 833,63C833,58 833,47 833,42C833,40 832,39 830,39C817,39 763,39 750,39C749,39 747,40 747,42C747,47 747,58 747,63C747,65 749,66 750,66C757,66 776,66 776,66ZM1038,39L1038,39C1061,40 1079,59 1079,82C1079,105 1061,124 1038,125L1016,125C1016,125 1016,152 1016,161C1016,163 1015,164 1013,164C1008,164 996,164 990,164C989,164 989,164 988,163C988,163 987,162 987,161C987,145 987,59 987,42C987,40 989,39 990,39L1038,39L1038,39ZM364,39L364,39C387,40 405,59 405,82C405,105 387,124 364,125L342,125C342,125 342,152 342,161C342,163 341,164 339,164C334,164 322,164 316,164C315,164 315,164 314,163C314,163 313,162 313,161C313,145 313,59 313,42C313,40 315,39 316,39L364,39L364,39ZM479,64C500,64 517,81 517,102C517,122 500,139 479,139C459,139 442,122 442,102C442,81 459,64 479,64ZM906,64C926,64 943,81 943,102C943,122 926,139 906,139C885,139 868,122 868,102C868,81 885,64 906,64ZM1038,66L1016,66L1016,98L1038,98C1046,97 1051,90 1051,82C1051,74 1046,67 1038,66L1038,66ZM364,66L342,66L342,98L364,98C372,97 377,90 377,82C377,74 372,67 364,66L364,66Z" style="fill:url(#_Linear1);"/></g><defs><linearGradient id="_Linear1" x1="0" y1="0" x2="1" y2="0" gradientUnits="userSpaceOnUse" gradientTransform="matrix(855,0,0,130,313,102)"><stop offset="0" style="stop-color:rgb(255,167,129);stop-opacity:1"/><stop offset="1" style="stop-color:rgb(255,116,197);stop-opacity:1"/></linearGradient></defs></svg>
