<svg width="133" height="29" viewBox="0 0 133 29" fill="none" xmlns="http://www.w3.org/2000/svg">
<g clip-path="url(#clip0_15019_86915)">
<path d="M27.6594 27.6317C27.533 27.5052 27.4697 27.3472 27.4697 27.1259V7.36644C27.4697 7.14518 27.533 6.98709 27.6594 6.86062C27.7858 6.73415 27.9439 6.67091 28.1653 6.67091H29.4298C29.6512 6.67091 29.8093 6.73415 29.9357 6.86062C30.0621 6.98709 30.1254 7.14518 30.1254 7.36644V8.66265C31.2636 7.14512 32.9075 6.38641 35.0257 6.38641C37.1123 6.38641 38.6614 7.05033 39.7048 8.37815C40.748 9.70597 41.2855 11.3816 41.3488 13.4366C41.3804 13.6578 41.3804 14.0056 41.3804 14.4482C41.3804 14.8909 41.3804 15.2386 41.3488 15.4599C41.2855 17.4833 40.748 19.1589 39.7048 20.4867C38.6614 21.8145 37.1123 22.4784 35.0257 22.4784C32.9075 22.4784 31.2952 21.7197 30.1886 20.2022V27.1259C30.1886 27.3155 30.1254 27.4736 29.9989 27.6317C29.8725 27.7582 29.7144 27.8214 29.4931 27.8214H28.1653C27.9439 27.8214 27.7858 27.7582 27.6594 27.6317ZM37.5549 18.7795C38.2188 17.8942 38.5666 16.7245 38.6298 15.2702C38.6614 15.0806 38.6614 14.796 38.6614 14.4166C38.6614 10.5912 37.2388 8.69427 34.425 8.69427C33.034 8.69427 31.9907 9.16853 31.2952 10.0853C30.5996 11.0022 30.2202 12.1087 30.1886 13.3417C30.157 13.563 30.157 13.9424 30.157 14.5114C30.157 15.0805 30.157 15.4599 30.1886 15.6812C30.2202 16.8826 30.5996 17.9259 31.3268 18.8111C32.0539 19.6963 33.0972 20.1389 34.425 20.1389C35.8477 20.1389 36.891 19.6963 37.5549 18.7795Z" fill="white"/>
<path d="M44.0989 21.9724C43.9724 21.846 43.9092 21.6879 43.9092 21.4665V7.36625C43.9092 7.17654 43.9724 6.98684 44.0989 6.86042C44.2254 6.73395 44.3834 6.6391 44.6047 6.6391H45.8694C46.0906 6.6391 46.2487 6.70234 46.3752 6.82881C46.5017 6.95522 46.5649 7.14492 46.5649 7.33463V8.63084C47.3868 7.27139 48.7463 6.60748 50.7064 6.60748H51.8762C52.0975 6.60748 52.2556 6.67072 52.382 6.79719C52.5085 6.9236 52.5717 7.08169 52.5717 7.30301V8.40951C52.5717 8.59922 52.5085 8.75731 52.382 8.9154C52.2556 9.04187 52.0975 9.1051 51.8762 9.1051H50.169C49.0624 9.1051 48.2088 9.42122 47.6082 10.0535C46.9759 10.6858 46.6597 11.5394 46.6597 12.6459V21.4349C46.6597 21.6246 46.5965 21.7827 46.4384 21.9408C46.3119 22.0672 46.1222 22.1305 45.9326 22.1305H44.6047C44.3834 22.1621 44.2254 22.0988 44.0989 21.9724Z" fill="white"/>
<path d="M54.8466 20.5499C53.6452 19.2854 52.9813 17.5781 52.8549 15.3967L52.8232 14.385L52.8549 13.4049C52.9813 11.2551 53.6452 9.54788 54.8466 8.2833C56.048 7.01871 57.692 6.38641 59.7154 6.38641C61.8969 6.38641 63.6042 7.08194 64.8054 8.473C66.0066 9.86406 66.6075 11.7609 66.6075 14.1321V14.6695C66.6075 14.8592 66.5441 15.0173 66.4177 15.1754C66.2914 15.3018 66.133 15.3651 65.9117 15.3651H55.5737V15.618C55.637 16.9142 56.0164 18.0207 56.7752 18.9376C57.5339 19.8544 58.4823 20.297 59.6837 20.297C60.6322 20.297 61.3909 20.1073 61.9598 19.7596C62.5607 19.3802 63.0032 19.0008 63.288 18.6214C63.4778 18.3685 63.6042 18.242 63.6991 18.1788C63.7934 18.1156 63.9518 18.1156 64.2045 18.1156H65.5006C65.6904 18.1156 65.8488 18.1788 65.9752 18.2737C66.1015 18.3685 66.165 18.495 66.165 18.653C66.165 19.0957 65.9117 19.6331 65.3743 20.2338C64.8368 20.8344 64.0781 21.3719 63.0982 21.8145C62.1182 22.2571 60.9798 22.4784 59.7154 22.4784C57.692 22.4468 56.0796 21.8145 54.8466 20.5499ZM63.8883 13.3101V13.2152C63.8883 11.8242 63.5092 10.6861 62.7505 9.83244C61.9918 8.94721 60.9798 8.53624 59.7154 8.53624C58.4192 8.53624 57.4075 8.97883 56.6803 9.83244C55.9532 10.7177 55.5737 11.8242 55.5737 13.2152V13.3101H63.8883Z" fill="white"/>
<path d="M71.1366 22.0056C70.1887 21.5629 69.4929 21.0571 69.0503 20.488C68.6078 19.919 68.3545 19.4447 68.3545 19.0654C68.3545 18.8757 68.418 18.7176 68.5758 18.5912C68.7027 18.4963 68.8605 18.4331 69.0189 18.4331H70.283C70.4099 18.4331 70.5043 18.4647 70.5677 18.4963C70.6312 18.5279 70.7261 18.6228 70.8525 18.7492C71.295 19.3183 71.8324 19.7293 72.4013 20.0455C72.9708 20.3616 73.7295 20.5197 74.6774 20.5197C75.7529 20.5197 76.6065 20.33 77.2383 19.919C77.8706 19.508 78.2189 18.9389 78.2189 18.1801C78.2189 17.6743 78.0919 17.2949 77.8078 16.9788C77.523 16.6942 77.0805 16.4097 76.4167 16.1884C75.7844 15.9355 74.8044 15.6826 73.5397 15.398C71.801 15.0187 70.5992 14.4812 69.8725 13.754C69.1452 13.0269 68.7976 12.1101 68.7976 10.9719C68.7976 10.2447 69.0189 9.5176 69.4614 8.85369C69.9039 8.15816 70.5363 7.62072 71.4214 7.17807C72.275 6.7671 73.3184 6.54578 74.5196 6.54578C75.7844 6.54578 76.8278 6.7671 77.7129 7.17807C78.5979 7.5891 79.2617 8.09492 79.7048 8.63237C80.1474 9.20148 80.3686 9.64407 80.3686 10.0235C80.3686 10.2131 80.3052 10.3396 80.1788 10.4661C80.0525 10.5925 79.8941 10.6558 79.7048 10.6558H78.5665C78.2817 10.6558 78.0919 10.5609 77.9656 10.3396C77.6179 9.96025 77.3332 9.67569 77.1119 9.45437C76.8907 9.2331 76.5431 9.07501 76.1005 8.91692C75.658 8.75884 75.1206 8.6956 74.4562 8.6956C73.4762 8.6956 72.7489 8.88531 72.2115 9.29634C71.7061 9.70731 71.4528 10.2447 71.4528 10.9087C71.4528 11.3197 71.5477 11.6674 71.769 11.952C71.9902 12.2365 72.4013 12.521 73.0337 12.7424C73.6346 12.9952 74.5511 13.2482 75.7844 13.5011C77.6814 13.9121 79.009 14.4495 79.7991 15.2083C80.5899 15.9355 80.9689 16.8839 80.9689 18.0537C80.9689 18.9073 80.7162 19.666 80.2423 20.3616C79.7677 21.0571 79.0404 21.5945 78.0605 22.0056C77.1119 22.4165 75.9421 22.6063 74.6146 22.6063C73.2235 22.6695 72.0851 22.4482 71.1366 22.0056Z" fill="white"/>
<path d="M84.2182 16.9457V8.9787H81.8786C81.6888 8.9787 81.531 8.91547 81.4047 8.789C81.2777 8.66258 81.2148 8.5045 81.2148 8.31479V7.36632C81.2148 7.17667 81.2777 7.01858 81.4047 6.89211C81.531 6.76564 81.6888 6.70241 81.8786 6.70241H84.2182V1.73886C84.2182 1.54917 84.2817 1.39109 84.4081 1.23302C84.5344 1.10656 84.6922 1.04333 84.882 1.04333H86.1782C86.368 1.04333 86.5258 1.10656 86.6842 1.23302C86.8105 1.35948 86.874 1.51755 86.874 1.73886V6.67079H90.5726C90.7624 6.67079 90.9208 6.73402 91.0786 6.8605C91.205 6.98697 91.2684 7.14505 91.2684 7.3347V8.28317C91.2684 8.47288 91.205 8.63097 91.0786 8.75738C90.9523 8.88385 90.7939 8.94708 90.5726 8.94708H86.874V16.7244C86.874 17.7361 87.0318 18.4949 87.3794 19.0007C87.6956 19.5065 88.2651 19.7911 89.0552 19.7911H90.8573C91.0472 19.7911 91.205 19.8543 91.3313 19.9808C91.4583 20.1072 91.5211 20.2653 91.5211 20.4866V21.4667C91.5211 21.6563 91.4583 21.8144 91.3313 21.9725C91.205 22.099 91.0472 22.1622 90.8573 22.1622H88.8339C85.7671 22.1622 84.2182 20.4234 84.2182 16.9457Z" fill="white"/>
<path d="M93.4174 21.9725C93.2904 21.846 93.2275 21.6879 93.2275 21.4667V7.3347C93.2275 7.14506 93.2904 6.98697 93.4174 6.8605C93.5437 6.73403 93.7015 6.67079 93.9228 6.67079H95.1875C95.3773 6.67079 95.5351 6.73403 95.662 6.8605C95.7884 6.98697 95.8513 7.14506 95.8513 7.3347V8.34641C96.9261 7.01859 98.3807 6.35468 100.214 6.35468C102.396 6.35468 103.945 7.27153 104.862 9.10518C105.336 8.28318 106.032 7.61926 106.917 7.11344C107.802 6.60756 108.782 6.35468 109.889 6.35468C111.501 6.35468 112.86 6.92373 113.872 8.03023C114.916 9.13679 115.421 10.7492 115.421 12.8674V21.4667C115.421 21.6563 115.358 21.8144 115.232 21.9725C115.105 22.099 114.947 22.1622 114.726 22.1622H113.43C113.24 22.1622 113.082 22.099 112.924 21.9725C112.797 21.846 112.734 21.6879 112.734 21.4667V13.1203C112.734 11.5395 112.418 10.4014 111.754 9.70585C111.09 9.01032 110.236 8.69415 109.162 8.69415C108.213 8.69415 107.391 9.04194 106.696 9.73747C106 10.433 105.684 11.5711 105.684 13.1203V21.4667C105.684 21.6563 105.621 21.8144 105.494 21.9725C105.367 22.099 105.21 22.1622 104.988 22.1622H103.692C103.502 22.1622 103.345 22.099 103.186 21.9725C103.06 21.846 102.996 21.6879 102.996 21.4667V13.1203C102.996 11.5395 102.649 10.433 101.985 9.73747C101.289 9.04194 100.436 8.69415 99.4241 8.69415C98.4756 8.69415 97.6534 9.04194 96.9582 9.73747C96.2624 10.433 95.9462 11.5395 95.9462 13.0886V21.4667C95.9462 21.6563 95.8833 21.8144 95.757 21.9725C95.63 22.099 95.4722 22.1622 95.251 22.1622H93.9548C93.7015 22.1622 93.5437 22.099 93.4174 21.9725Z" fill="white"/>
<path d="M118.394 3.57224C118.268 3.44577 118.204 3.28769 118.204 3.06639V1.51725C118.204 1.32757 118.268 1.13787 118.394 1.01141C118.52 0.884953 118.679 0.7901 118.9 0.7901H120.67C120.86 0.7901 121.05 0.853336 121.176 1.01141C121.302 1.13787 121.397 1.32757 121.397 1.51725V3.06639C121.397 3.25608 121.334 3.41416 121.176 3.57224C121.05 3.69869 120.86 3.76192 120.67 3.76192H118.9C118.679 3.76192 118.52 3.69869 118.394 3.57224ZM118.647 21.9722C118.52 21.8457 118.457 21.6877 118.457 21.4664V7.33444C118.457 7.14473 118.52 6.98664 118.647 6.86017C118.774 6.73376 118.931 6.67053 119.153 6.67053H120.449C120.639 6.67053 120.797 6.73376 120.955 6.86017C121.081 6.98664 121.145 7.14473 121.145 7.33444V21.4664C121.145 21.6561 121.081 21.8141 120.955 21.9722C120.828 22.0986 120.67 22.1619 120.449 22.1619H119.153C118.931 22.1619 118.774 22.0986 118.647 21.9722Z" fill="white"/>
<path d="M125.697 16.9457V8.9787H123.357C123.168 8.9787 123.01 8.91547 122.883 8.789C122.757 8.66258 122.693 8.5045 122.693 8.31479V7.36632C122.693 7.17667 122.757 7.01858 122.883 6.89211C123.01 6.76564 123.168 6.70241 123.357 6.70241H125.697V1.73886C125.697 1.54917 125.76 1.39109 125.887 1.23302C126.013 1.10656 126.171 1.04333 126.361 1.04333H127.657C127.847 1.04333 128.005 1.10656 128.163 1.23302C128.289 1.35948 128.353 1.51755 128.353 1.73886V6.67079H132.052C132.241 6.67079 132.399 6.73402 132.557 6.8605C132.684 6.98697 132.747 7.14505 132.747 7.3347V8.28317C132.747 8.47288 132.684 8.63097 132.557 8.75738C132.431 8.88385 132.273 8.94708 132.052 8.94708H128.353V16.7244C128.353 17.7361 128.511 18.4949 128.859 19.0007C129.175 19.5065 129.744 19.7911 130.534 19.7911H132.336C132.526 19.7911 132.684 19.8543 132.81 19.9808C132.937 20.1072 133 20.2653 133 20.4866V21.4667C133 21.6563 132.937 21.8144 132.81 21.9725C132.684 22.099 132.526 22.1622 132.336 22.1622H130.312C127.246 22.1622 125.697 20.4234 125.697 16.9457Z" fill="white"/>
<path d="M17.5458 0.956411C16.621 0.246793 15.4451 0.0136701 14.3179 0.3134L2.06737 3.59763C0.830023 3.9281 0 5.01174 0 6.29265V23.244C0 24.5224 0.830023 25.6061 2.06737 25.9365L8.85611 27.7579C9.09696 27.822 9.34289 27.8553 9.58368 27.8553C10.1883 27.8553 10.7801 27.658 11.2745 27.2763C11.9687 26.7435 12.3658 25.9365 12.3658 25.0629V19.696L16.2444 18.6559C17.8685 18.2204 19.0009 16.7422 19.0009 15.0591V3.91273C19.0034 2.74455 18.4706 1.66859 17.5458 0.956411ZM10.5239 20.193V25.0629C10.5239 25.3601 10.3881 25.6316 10.155 25.8135C9.91926 25.9929 9.61953 26.0543 9.33521 25.9775L2.54643 24.1561C1.89573 23.9818 1.84449 23.4131 1.84449 23.244C1.84449 23.075 1.89573 22.5037 2.54643 22.3295L10.5239 20.193ZM17.1589 15.0617C17.1589 15.9096 16.5876 16.6577 15.7679 16.878L2.06737 20.549C1.99051 20.5695 1.91623 20.5926 1.84194 20.6182V6.29265C1.84194 6.12102 1.89317 5.55228 2.54387 5.37807L14.7944 2.09385C14.9558 2.0503 15.1223 2.02981 15.2837 2.02981C15.691 2.02981 16.0881 2.16302 16.4211 2.4192C16.8899 2.77785 17.1563 3.32351 17.1563 3.91273V15.0617H17.1589Z" fill="#326CF6"/>
</g>
<defs>
<clipPath id="clip0_15019_86915">
<rect width="133" height="28.4136" fill="white"/>
</clipPath>
</defs>
</svg>
