<svg width="136" height="37" viewBox="0 0 136 37" fill="none" xmlns="http://www.w3.org/2000/svg">
<path d="M8.92163 7.15456L7.53348 5.42701C7.13036 4.92648 7.24604 4.19305 7.77536 3.82807C10.7865 1.76683 14.4006 0.640625 18.0743 0.640625C21.748 0.640625 25.3621 1.76683 28.3697 3.83155C28.9026 4.19652 29.0147 4.92647 28.6116 5.43049L27.2235 7.15804C26.8624 7.60643 26.2139 7.71071 25.7372 7.38745C23.4762 5.85455 20.8471 5.05161 18.0708 5.05161C15.2945 5.05161 12.6654 5.85803 10.4044 7.38745C9.92769 7.71071 9.27919 7.60643 8.91813 7.15804L8.92163 7.15456Z" fill="#131316"/>
<path d="M4.83048 29.0149C4.3257 29.4146 3.58605 29.2999 3.21798 28.775C1.13576 25.7927 0 22.2089 0 18.5627C0 15.2119 0.921927 11.9862 2.68165 9.1637C3.01817 8.62145 3.7473 8.47198 4.27311 8.84391L6.08892 10.1231C6.56216 10.4568 6.69536 11.0963 6.3974 11.5864C5.11792 13.6859 4.44838 16.0774 4.44838 18.5592C4.44838 21.3122 5.26164 23.9191 6.80403 26.1611C7.13004 26.6338 7.02487 27.2769 6.57267 27.6349L4.83048 29.0114V29.0149Z" fill="#131316"/>
<path d="M18.0736 36.4881C14.6943 36.4881 11.4413 35.5739 8.59491 33.829C8.04806 33.4953 7.89733 32.7723 8.27241 32.2509L9.56241 30.4503C9.89893 29.9811 10.5439 29.849 11.0382 30.1445C13.1555 31.4132 15.5672 32.0771 18.0701 32.0771C20.5729 32.0771 22.9847 31.4097 25.102 30.1445C25.5997 29.8455 26.2412 29.9811 26.5777 30.4503L27.8677 32.2509C28.2393 32.7688 28.0921 33.4953 27.5452 33.829C24.6988 35.5704 21.4493 36.4881 18.0701 36.4881H18.0736Z" fill="#131316"/>
<path d="M31.3214 29.0147L29.5792 27.6383C29.127 27.2802 29.0219 26.6372 29.3479 26.1645C30.8938 23.9225 31.7035 21.3155 31.7035 18.5626C31.7035 16.0807 31.0305 13.6893 29.751 11.5898C29.4495 11.0962 29.5863 10.4601 30.0595 10.1264L31.8753 8.84727C32.3976 8.47881 33.1302 8.6248 33.4668 9.16705C35.223 11.9895 36.1484 15.2152 36.1484 18.5626C36.1484 22.2088 35.0127 25.7891 32.9304 28.7714C32.5624 29.2998 31.8262 29.411 31.3179 29.0113L31.3214 29.0147Z" fill="#131316"/>
<path d="M18.0736 27.5445C23.0763 27.5445 27.1317 23.5232 27.1317 18.5627C27.1317 13.6021 23.0763 9.58081 18.0736 9.58081C13.071 9.58081 9.01562 13.6021 9.01562 18.5627C9.01562 23.5232 13.071 27.5445 18.0736 27.5445Z" fill="#0EA59D"/>
<path d="M110.021 9.62252H108.858C106.288 9.62252 103.918 10.4776 102.022 11.9167V10.6827C102.022 10.0744 101.524 9.58081 100.911 9.58081H98.6884C98.0749 9.58081 97.5771 10.0744 97.5771 10.6827V30.9371C97.5771 31.5454 98.0749 32.0389 98.6884 32.0389H100.911C101.524 32.0389 102.022 31.5454 102.022 30.9371V20.8116C102.022 17.075 105.089 14.0335 108.858 14.0335H110.021C110.635 14.0335 111.133 13.5399 111.133 12.9316V10.7279C111.133 10.1196 110.635 9.626 110.021 9.626V9.62252Z" fill="#131316"/>
<path d="M83.9133 31.9972C77.6911 31.9972 72.6328 26.9779 72.6328 20.8116C72.6328 14.6453 77.6947 9.62598 83.9133 9.62598C90.1319 9.62598 95.1937 14.6453 95.1937 20.8116C95.1937 26.9779 90.1319 31.9972 83.9133 31.9972ZM83.9133 14.03C80.1449 14.03 77.0777 17.0715 77.0777 20.8081C77.0777 24.5448 80.1449 27.5862 83.9133 27.5862C87.6816 27.5862 90.7489 24.5448 90.7489 20.8081C90.7489 17.0715 87.6816 14.03 83.9133 14.03Z" fill="#131316"/>
<path d="M134.83 23.0118C135.394 23.0118 135.874 22.5912 135.934 22.035C135.979 21.6318 136 21.2252 136 20.8115C136 14.4957 130.697 9.38605 124.275 9.63285C118.421 9.85878 113.674 14.5617 113.45 20.3666C113.201 26.7345 118.354 31.9937 124.723 31.9937C128.629 31.9937 132.074 30.0158 134.101 27.0196C134.595 26.2861 134.069 25.3024 133.179 25.3024H130.315C130.017 25.3024 129.736 25.4241 129.522 25.6327C128.289 26.8423 126.592 27.5896 124.723 27.5896C121.73 27.5896 119.185 25.6744 118.259 23.0118H134.833H134.83ZM124.72 14.0299C127.714 14.0299 130.259 15.9452 131.184 18.6043H118.256C119.181 15.9452 121.73 14.0299 124.72 14.0299Z" fill="#131316"/>
<path d="M67.732 26.3418C69.3094 24.145 70.2384 21.4616 70.2384 18.5661C70.2384 11.1588 64.1635 5.13501 56.6934 5.13501C49.2233 5.13501 43.1484 11.1588 43.1484 18.5661C43.1484 25.9733 49.2233 31.9972 56.6934 31.9972C59.6309 31.9972 62.3547 31.0656 64.5771 29.4841C65.0363 30.1028 65.3869 30.718 65.5621 31.2881C65.7023 31.7469 66.137 32.0563 66.6208 32.0563H68.9028C69.6004 32.0563 70.1332 31.4236 69.993 30.7458C69.667 29.1608 68.7941 27.6661 67.732 26.3453V26.3418ZM47.5898 18.5661C47.5898 13.5885 51.6736 9.54252 56.6899 9.54252C61.7062 9.54252 65.79 13.592 65.79 18.5661C65.79 20.2415 65.3273 21.8092 64.521 23.1578C63.869 22.6225 63.2661 22.1741 62.7928 21.8404C62.274 21.4755 61.5519 21.618 61.2119 22.1533L60.0271 24.0164C59.7151 24.51 59.8413 25.16 60.3215 25.5006C60.6686 25.7474 61.0261 26.0151 61.3837 26.2966C60.013 27.1169 58.4076 27.5897 56.6934 27.5897C51.6736 27.5897 47.5933 23.5402 47.5933 18.5661H47.5898Z" fill="#131316"/>
</svg>
