<svg width="446" height="130" viewBox="0 0 446 130" fill="none" xmlns="http://www.w3.org/2000/svg">
<rect width="446" height="130" rx="24" fill="white"/>
<g clip-path="url(#clip0_52119_82702)">
<path d="M121.235 79.1384H115.7V58.7586C115.7 54.0637 113.625 51.7519 109.439 51.7519C107.502 51.7519 105.184 52.3921 102.486 53.7081C102.901 54.8462 103.108 56.3045 103.108 58.0828V79.1384H97.5733V58.723C97.5733 54.0993 95.4977 51.7519 91.312 51.7519C89.513 51.7519 87.299 52.2854 84.7391 53.3879C84.8084 54.1349 84.8774 54.7039 84.8774 55.024V79.103H79.3425V54.0637C79.3425 53.2101 79.2041 51.8586 78.9619 49.9379C84.2548 47.8395 88.5791 46.7725 91.9346 46.7725C95.7746 46.7725 98.6458 47.7328 100.479 49.689C104.181 47.7328 107.606 46.7725 110.754 46.7725C114.075 46.7725 116.669 47.6972 118.503 49.5467C120.336 51.3962 121.27 54.0637 121.27 57.5137V79.0673L121.235 79.1384Z" fill="#202D66"/>
<path d="M68.7232 63.4178L56.8921 53.7791C47.4826 43.7491 58.2759 37.7383 58.2759 37.7383C49.2469 40.6903 48.1399 48.3729 48.1399 48.3729C47.0675 55.7352 52.3257 59.3987 52.3257 59.3987L62.5655 67.8281C74.016 77.8578 61.7698 86.9633 61.7698 86.9633C72.4247 85.3982 73.6009 76.5419 73.6009 76.5419C75.0538 68.9308 68.6886 63.3822 68.6886 63.3822L68.7232 63.4178Z" fill="#202D66"/>
<path d="M147.285 73.8382C147.216 73.2337 147.147 72.8422 147.147 72.5577V62.6346C146.351 63.2748 144.31 63.9506 140.989 64.733C138.775 65.231 137.184 65.8001 136.249 66.3691C134.866 67.2583 134.174 68.5031 134.174 70.1036C134.174 73.3048 136.422 74.9053 140.885 74.9053C143.134 74.9053 145.279 74.5496 147.285 73.8382ZM153.131 77.5016C148.426 79.0667 144.344 79.8492 140.885 79.8492C136.976 79.8492 133.932 79.0667 131.649 77.5016C129.227 75.8655 128.016 73.5536 128.016 70.5304C128.016 67.5073 129.158 65.0176 131.407 63.3815C132.998 62.2078 135.419 61.283 138.602 60.6072C141.785 59.9315 143.757 59.4336 144.517 59.149C146.247 58.4377 147.112 57.4062 147.112 56.0547C147.112 53.1737 145.106 51.751 141.093 51.751C138.74 51.751 136.042 52.4268 132.963 53.7784L131.061 49.3681C134.554 47.6964 138.014 46.8428 141.439 46.8428C148.945 46.8428 152.682 50.2217 152.682 56.9438V73.4471C152.682 74.265 152.82 75.5809 153.097 77.5016H153.131Z" fill="#202D66"/>
<path d="M178.455 47.3771L176.794 52.3565C175.652 52.1075 174.442 51.9653 173.231 51.9653C171.225 51.9653 169.218 52.3209 167.281 53.0323C167.316 53.6369 167.35 54.0637 167.35 54.3482V79.0673H161.815V54.455C161.815 53.5658 161.642 52.1075 161.331 50.0446C166.278 47.8395 170.533 46.7725 173.992 46.7725C175.514 46.7725 177.002 46.9503 178.489 47.3415L178.455 47.3771Z" fill="#202D66"/>
<path d="M200.42 78.4261C197.411 79.4932 194.92 79.9912 192.914 79.9912C187.206 79.9912 184.369 77.2879 184.369 71.8463V52.4265L180.875 52.2487V47.7672L184.369 47.5894V38.8398H189.904V47.5182H198.829V52.4621H189.904V71.6329C189.904 73.8736 191.08 74.9761 193.467 74.9761C194.989 74.9761 196.823 74.585 198.933 73.7667L200.42 78.4615V78.4261Z" fill="#202D66"/>
<path d="M229.08 77.822C226.278 79.1383 223.372 79.7782 220.293 79.7782C215.727 79.7782 211.956 78.32 208.912 75.4037C205.764 72.3093 204.173 68.2901 204.173 63.3108C204.173 58.3314 205.591 54.4545 208.428 51.3957C211.264 48.337 215.001 46.8076 219.636 46.8076C222.784 46.8076 225.967 47.4834 229.115 48.8349L227.454 53.4587C224.618 52.3205 222.127 51.7514 219.947 51.7514C216.834 51.7514 214.412 52.9252 212.683 55.3081C211.126 57.4066 210.33 60.0386 210.33 63.204C210.33 66.6896 211.368 69.5349 213.409 71.7402C215.346 73.8386 217.733 74.9057 220.605 74.9057C222.611 74.9057 224.894 74.4077 227.489 73.3764L229.08 77.7867V77.822Z" fill="#202D66"/>
<path d="M257.794 63.3459C257.794 60.0026 257.067 57.2995 255.649 55.2011C254.092 52.9248 251.912 51.7866 249.076 51.7866C246.239 51.7866 244.06 52.9248 242.503 55.2011C241.015 57.2995 240.289 60.0382 240.289 63.3459C240.289 66.6537 241.015 69.3922 242.503 71.491C244.06 73.767 246.239 74.9053 249.076 74.9053C251.912 74.9053 254.092 73.767 255.649 71.491C257.067 69.3922 257.794 66.6537 257.794 63.3459ZM263.951 63.3459C263.951 68.1832 262.567 72.1666 259.8 75.2252C257.032 78.3196 253.435 79.8492 249.007 79.8492C244.579 79.8492 240.981 78.3196 238.248 75.2252C235.515 72.1308 234.131 68.1832 234.131 63.3459C234.131 58.5088 235.515 54.5253 238.248 51.4665C240.981 48.3722 244.579 46.8428 249.007 46.8428C253.435 46.8428 257.032 48.3722 259.8 51.4665C262.567 54.5608 263.951 58.5088 263.951 63.3459Z" fill="#202D66"/>
<path d="M312.867 79.1384H307.332V58.7586C307.332 54.0637 305.257 51.7519 301.071 51.7519C299.133 51.7519 296.816 52.3921 294.117 53.7081C294.533 54.8462 294.74 56.3045 294.74 58.0828V79.1384H289.205V58.723C289.205 54.0993 287.129 51.7519 282.944 51.7519C281.145 51.7519 278.931 52.2854 276.371 53.3879C276.44 54.1349 276.509 54.7039 276.509 55.024V79.103H270.974V54.0637C270.974 53.2101 270.836 51.8586 270.594 49.9379C275.887 47.8395 280.211 46.7725 283.566 46.7725C287.406 46.7725 290.278 47.7328 292.111 49.689C295.813 47.7328 299.237 46.7725 302.385 46.7725C305.706 46.7725 308.301 47.6972 310.134 49.5467C311.968 51.3962 312.902 54.0637 312.902 57.5137V79.0673L312.867 79.1384Z" fill="#202D66"/>
<path d="M342.03 63.2748C342.03 59.9315 341.303 57.2639 339.885 55.2366C338.19 52.9248 335.768 51.751 332.551 51.751C330.752 51.751 328.953 52.1067 327.12 52.818C327.12 52.8536 327.12 53.067 327.223 53.4227C327.293 53.7784 327.327 54.0629 327.327 54.2763V73.8739C328.676 74.5496 330.268 74.8695 332.067 74.8695C338.708 74.8695 342.03 70.993 342.03 63.2392V63.2748ZM348.187 63.2748C348.187 68.0764 346.769 72.0597 343.898 75.1541C341.061 78.2842 337.394 79.8492 332.966 79.8492C331.167 79.8492 329.264 79.4935 327.293 78.7821V93.4003H321.758V53.1026C321.758 52.249 321.619 50.933 321.377 49.1191C325.321 47.5897 329.022 46.8428 332.516 46.8428C337.359 46.8428 341.165 48.3722 343.967 51.4309C346.769 54.4897 348.153 58.4377 348.153 63.2748H348.187Z" fill="#202D66"/>
<path d="M366.002 78.8899C364.169 79.5301 362.543 79.8501 361.159 79.8501C357.146 79.8501 355.14 77.8228 355.14 73.7683V32.7236H360.675V72.7012C360.675 74.2305 361.298 74.9773 362.509 74.9773C363.235 74.9773 363.996 74.7996 364.723 74.4793L366.002 78.8899Z" fill="#202D66"/>
<path d="M398.276 47.5185L387.345 80.4538C386.238 83.7258 384.75 86.571 382.847 88.9186C380.668 91.6219 378.246 93.3289 375.583 94.1114L372.954 89.8788C377.347 88.4918 380.495 85.0417 382.433 79.5644C381.118 79.2798 380.115 78.2127 379.423 76.3989L367.972 47.4829H374.233L383.885 73.7314H383.955L392.395 47.4829H398.311L398.276 47.5185Z" fill="#202D66"/>
</g>
<defs>
<clipPath id="clip0_52119_82702">
<rect width="350.278" height="65" fill="white" transform="translate(48 32)"/>
</clipPath>
</defs>
</svg>
