<svg  viewBox="0 0 98 32" fill="none" xmlns="http://www.w3.org/2000/svg">
<rect width="98" height="32" fill="#1E1E1E"/>
<g id="Consumer Landing Page" clip-path="url(#clip0_5_2)">
<rect width="1440" height="7054" transform="translate(-53 -40)" fill="white"/>
<g id="Website Nav Bar">
<g id="Rectangle 1535" filter="url(#filter0_d_5_2)">
<rect x="-53" y="-40" width="1440" height="101" fill="white"/>
</g>
<g id="Logo Yellow White with Transparent Background">
<g id="Layer 2">
<g id="Layer 1">
<path id="Vector" d="M12.8703 22.592C11.8319 23.6299 10.4451 24.2465 8.97797 24.3223C7.51087 24.3982 6.0677 23.9281 4.92754 23.0028C4.8 22.8957 4.63706 22.84 4.47057 22.8465C4.30408 22.853 4.14599 22.9212 4.02718 23.0379L0.19501 26.8679C0.130893 26.9325 0.0805715 27.0094 0.0470963 27.0939C0.0136211 27.1785 -0.00230976 27.2689 0.00026997 27.3598C0.0028497 27.4507 0.0238863 27.5401 0.0621037 27.6226C0.100321 27.7051 0.154923 27.779 0.222597 27.8398C2.63873 29.99 5.78661 31.1359 9.02131 31.0429C12.256 30.9498 15.3326 29.6248 17.6209 27.3394C19.9091 25.0539 21.2357 21.981 21.3288 18.7502C21.422 15.5194 20.2747 12.3753 18.1219 9.96209C18.0614 9.89402 17.9876 9.83899 17.9051 9.8004C17.8226 9.7618 17.733 9.74044 17.6419 9.73762C17.5508 9.73481 17.4601 9.7506 17.3753 9.78403C17.2905 9.81746 17.2135 9.86782 17.1489 9.93203L13.3167 13.7621C13.202 13.8819 13.1359 14.04 13.1313 14.2056C13.1266 14.3713 13.1838 14.5328 13.2916 14.6589C14.2167 15.7988 14.6857 17.241 14.6079 18.7063C14.53 20.1717 13.9109 21.5562 12.8703 22.592Z" fill="#FFC222"/>
<path id="Vector_2" d="M4.99259 3.70793C2.70269 5.99666 1.37709 9.07423 1.288 12.3086C1.19892 15.543 2.35311 18.6887 4.51356 21.0997C4.57427 21.1675 4.64813 21.2222 4.73066 21.2606C4.81319 21.299 4.90266 21.3203 4.99366 21.3231C5.08466 21.3259 5.17528 21.3102 5.26002 21.277C5.34477 21.2438 5.42187 21.1937 5.48665 21.1298L9.3113 17.2997C9.4283 17.1818 9.49701 17.0245 9.50397 16.8586C9.51093 16.6928 9.45564 16.5303 9.34892 16.403C8.42522 15.2639 7.95648 13.8237 8.03309 12.3599C8.1097 10.8961 8.72624 9.51242 9.76382 8.47579C10.8014 7.43916 12.1865 6.82295 13.652 6.74599C15.1176 6.66903 16.5598 7.13677 17.7004 8.05902C17.8289 8.16512 17.9924 8.21956 18.1589 8.21169C18.3254 8.20381 18.483 8.13419 18.6008 8.01643L22.433 4.19389C22.4974 4.12953 22.548 4.05271 22.5817 3.96813C22.6154 3.88354 22.6314 3.79299 22.6289 3.702C22.6263 3.61101 22.6051 3.5215 22.5667 3.43896C22.5283 3.35643 22.4734 3.28259 22.4054 3.22198C19.9903 1.06568 16.8403 -0.0854251 13.6022 0.00494515C10.3641 0.0953154 7.2834 1.42031 4.99259 3.70793Z" fill="#FFC222"/>
<path id="Vector_3" d="M34.7894 26.7327C33.5642 26.2069 32.5185 25.3366 31.7798 24.2278C31.0324 23.1055 30.6579 21.7245 30.6562 20.0846H35.148C35.148 22.1436 36.4279 23.1732 38.9877 23.1732C40.0929 23.1732 40.9289 22.9619 41.4957 22.5394C41.76 22.3557 41.9753 22.1101 42.1226 21.8241C42.2699 21.538 42.3449 21.2203 42.3408 20.8987C42.344 20.5439 42.2528 20.1946 42.0766 19.8865C41.9003 19.5784 41.6453 19.3226 41.3377 19.1452C40.3905 18.5849 39.3803 18.1384 38.3281 17.8151C37.0447 17.3688 35.7885 16.8477 34.5662 16.2545C33.5926 15.7527 32.7507 15.0294 32.1084 14.1429C31.4128 13.211 31.0659 12.0087 31.0676 10.5357C31.0349 9.26231 31.3919 8.00921 32.0908 6.94366C32.7639 5.9444 33.7065 5.15585 34.8094 4.66917C35.9551 4.15569 37.1978 3.89428 38.4535 3.90266C39.7672 3.89162 41.0672 4.17046 42.2606 4.71927C43.4208 5.24789 44.3995 6.10604 45.0745 7.18664C45.7801 8.29048 46.1329 9.64482 46.1329 11.2497H41.6888C41.6888 10.2752 41.4104 9.53126 40.8561 9.02527C40.3019 8.51927 39.5094 8.26627 38.466 8.26627C37.5531 8.26627 36.8384 8.47919 36.3167 8.90252C36.0696 9.09306 35.8705 9.33855 35.7351 9.61946C35.5997 9.90038 35.5318 10.209 35.5367 10.5207C35.5273 10.8752 35.6054 11.2266 35.7642 11.5437C35.923 11.8609 36.1575 12.1341 36.4471 12.3393C37.2997 12.9185 38.228 13.3779 39.2059 13.7045C40.9397 14.3341 42.2681 14.8593 43.191 15.2801C44.1679 15.7469 45.0204 16.4379 45.6789 17.2966C46.4196 18.2151 46.7883 19.4124 46.785 20.8887C46.8294 22.171 46.4726 23.4354 45.7642 24.5058C45.0538 25.5153 44.0723 26.3037 42.9327 26.7803C41.6876 27.3093 40.3457 27.5729 38.9927 27.5543C37.5494 27.5776 36.1174 27.2977 34.7894 26.7327Z" fill="#004AAD"/>
<path id="Vector_4" d="M62.0652 10.8545V27.1065H57.8543V25.4157C56.9214 26.8419 55.4458 27.5549 53.4278 27.5549C52.4636 27.5748 51.5146 27.3136 50.6966 26.8034C49.8701 26.2684 49.2146 25.5077 48.8081 24.6116C48.3289 23.5499 48.0949 22.3942 48.1234 21.23V10.8545H52.3218V20.9294C52.3218 21.8195 52.5608 22.4966 53.039 22.9609C53.2849 23.1961 53.5758 23.3793 53.8943 23.4994C54.2128 23.6195 54.5523 23.674 54.8924 23.6597C55.2899 23.6788 55.6869 23.6149 56.0583 23.4721C56.4297 23.3294 56.7671 23.1109 57.0493 22.8306C57.5927 22.2795 57.8644 21.4187 57.8644 20.248V10.8545H62.0652Z" fill="#004AAD"/>
<path id="Vector_5" d="M75.807 12.0891C76.7952 13.2147 77.2892 14.7536 77.2892 16.7058V27.1063H73.1009V17.0339C73.1009 16.1455 72.8618 15.4683 72.3837 15.0024C72.1375 14.7676 71.8465 14.5848 71.5281 14.4647C71.2097 14.3446 70.8703 14.2898 70.5303 14.3035C70.1366 14.2849 69.7434 14.3491 69.3762 14.4919C69.009 14.6348 68.6759 14.8531 68.3985 15.1327C67.8551 15.6821 67.5834 16.5312 67.5834 17.6802V27.1063H63.3926V10.8542H67.5834V12.525C68.5164 11.1172 69.991 10.4133 72.0075 10.4133C72.7259 10.3916 73.4401 10.5308 74.0976 10.8208C74.7551 11.1108 75.3392 11.5442 75.807 12.0891Z" fill="#004AAD"/>
<path id="Vector_6" d="M82.9717 8.51837V14.3048H91.5966V18.6008H82.9717V26.9848H78.4824V4.23242H91.8223V8.51837H82.9717Z" fill="#004AAD"/>
<path id="Vector_7" d="M93.0273 4.23242H97.2256V8.45826H93.0273V4.23242ZM93.0273 10.7453H97.2256V26.9948H93.0273V10.7453Z" fill="#004AAD"/>
</g>
</g>
</g>
</g>
</g>
<defs>
<filter id="filter0_d_5_2" x="-71.8182" y="-58.8182" width="1477.64" height="138.636" filterUnits="userSpaceOnUse" color-interpolation-filters="sRGB">
<feFlood flood-opacity="0" result="BackgroundImageFix"/>
<feColorMatrix in="SourceAlpha" type="matrix" values="0 0 0 0 0 0 0 0 0 0 0 0 0 0 0 0 0 0 127 0" result="hardAlpha"/>
<feOffset/>
<feGaussianBlur stdDeviation="9.40909"/>
<feComposite in2="hardAlpha" operator="out"/>
<feColorMatrix type="matrix" values="0 0 0 0 0 0 0 0 0 0 0 0 0 0 0 0 0 0 0.06 0"/>
<feBlend mode="normal" in2="BackgroundImageFix" result="effect1_dropShadow_5_2"/>
<feBlend mode="normal" in="SourceGraphic" in2="effect1_dropShadow_5_2" result="shape"/>
</filter>
<clipPath id="clip0_5_2">
<rect width="1440" height="7054" fill="white" transform="translate(-53 -40)"/>
</clipPath>
</defs>
</svg>
