<?xml version="1.0" encoding="utf-8"?>
<!-- Generator: Adobe Illustrator 27.9.6, SVG Export Plug-In . SVG Version: 9.03 Build 54986)  -->
<svg version="1.1" id="Layer_1" xmlns="http://www.w3.org/2000/svg" xmlns:xlink="http://www.w3.org/1999/xlink" x="0px" y="0px"
	 width="300px" height="150px" viewBox="0 0 300 150" style="enable-background:new 0 0 300 150;" xml:space="preserve">
<g>
	<path d="M111,75.5V52.8h-9v-5.3h24.4v5.3h-9v22.7H111z M130,75.5v-28h6.5v28L130,75.5z M143.1,75.5v-28h5.4l11.9,19.8h-2.8
		l11.7-19.8h5.3l0.1,28h-6.1l0-18.7h1.1l-9.4,15.7h-2.9l-9.5-15.7h1.4v18.7H143.1z M187.3,58.8h13.5v5.1h-13.5V58.8z M187.8,70.3
		H203v5.2h-21.7v-28h21.2v5.2h-14.7V70.3L187.8,70.3z M217.4,76c-2.2,0-4.4-0.3-6.5-0.9c-2-0.6-3.7-1.4-4.9-2.4l2.2-4.9
		c1.2,0.9,2.6,1.5,4.2,2.1c1.7,0.5,3.3,0.8,5,0.8c1.3,0,2.3-0.1,3.1-0.4c0.8-0.3,1.4-0.6,1.8-1.1c0.4-0.5,0.6-1,0.6-1.5
		c0-0.8-0.3-1.3-0.9-1.8c-0.6-0.5-1.4-0.8-2.3-1.1c-0.9-0.3-2-0.6-3.2-0.8c-1.1-0.3-2.3-0.6-3.5-0.9c-1.1-0.4-2.2-0.9-3.2-1.4
		c-0.9-0.6-1.7-1.4-2.4-2.3c-0.6-0.9-0.9-2.2-0.9-3.7c0-1.6,0.4-3.1,1.3-4.4c0.9-1.3,2.2-2.4,3.9-3.2c1.8-0.8,4-1.2,6.6-1.2
		c1.8,0,3.5,0.2,5.2,0.6c1.7,0.4,3.2,1,4.5,1.8l-2,4.9c-1.3-0.8-2.6-1.3-3.9-1.6c-1.3-0.4-2.6-0.6-3.9-0.6s-2.3,0.2-3.1,0.5
		c-0.8,0.3-1.4,0.7-1.7,1.2c-0.3,0.5-0.5,1-0.5,1.6c0,0.7,0.3,1.3,0.9,1.8c0.6,0.4,1.4,0.8,2.3,1.1c0.9,0.3,2,0.5,3.2,0.8
		c1.2,0.3,2.3,0.6,3.5,0.9c1.2,0.3,2.2,0.8,3.2,1.4c0.9,0.6,1.7,1.4,2.3,2.3c0.6,0.9,0.9,2.2,0.9,3.7c0,1.6-0.5,3-1.3,4.3
		c-0.9,1.3-2.2,2.4-4,3.2C222.3,75.6,220.1,76,217.4,76z M258.7,76c-2.2,0-4.3-0.4-6.2-1.1c-1.8-0.7-3.5-1.7-4.9-3.1
		c-1.4-1.3-2.4-2.8-3.2-4.6c-0.8-1.8-1.1-3.7-1.1-5.8c0-2.1,0.4-4,1.1-5.8c0.8-1.8,1.8-3.3,3.2-4.6c1.4-1.3,3-2.3,4.9-3.1
		c1.8-0.7,3.9-1.1,6.1-1.1c2.2,0,4.2,0.4,6.1,1.1c1.8,0.7,3.5,1.7,4.8,3.1c1.4,1.3,2.5,2.8,3.2,4.6c0.8,1.7,1.2,3.7,1.2,5.8
		c0,2.1-0.4,4-1.2,5.8c-0.8,1.8-1.8,3.3-3.2,4.6c-1.4,1.3-3,2.3-4.8,3C262.9,75.6,260.9,76,258.7,76z M258.6,70.4
		c1.2,0,2.4-0.2,3.4-0.6c1.1-0.4,2-1.1,2.8-1.8c0.8-0.8,1.4-1.7,1.8-2.8c0.5-1.1,0.7-2.3,0.7-3.7c0-1.3-0.2-2.6-0.7-3.7
		c-0.4-1.1-1.1-2-1.8-2.8c-0.8-0.8-1.7-1.4-2.8-1.8c-1.1-0.4-2.2-0.6-3.5-0.6c-1.2,0-2.4,0.2-3.5,0.6c-1.1,0.4-2,1.1-2.8,1.8
		c-0.8,0.8-1.4,1.7-1.9,2.8c-0.4,1.1-0.6,2.3-0.6,3.7c0,1.3,0.2,2.5,0.6,3.7c0.5,1.1,1.1,2,1.8,2.8c0.8,0.8,1.7,1.4,2.8,1.8
		C256.2,70.2,257.3,70.4,258.6,70.4z M284.8,60.1h13.4v5.2h-13.4V60.1z M285.3,75.5h-6.5v-28H300v5.2h-14.7L285.3,75.5L285.3,75.5z"
		/>
	<path d="M104.2,107.5V87.8h9.6c2.5,0,4.3,0.5,5.6,1.4s1.9,2.2,1.9,3.7c0,1-0.3,1.9-0.8,2.7s-1.2,1.3-2.1,1.7
		c-0.9,0.4-1.9,0.6-3,0.6l0.5-1.2c1.2,0,2.3,0.2,3.3,0.6c0.9,0.4,1.7,1,2.2,1.8c0.5,0.8,0.8,1.7,0.8,2.9c0,1.7-0.7,3-2,4
		c-1.3,0.9-3.3,1.4-5.9,1.4L104.2,107.5L104.2,107.5z M108.7,104h5.3c1.2,0,2.1-0.2,2.7-0.6c0.6-0.4,0.9-1,0.9-1.8
		c0-0.8-0.3-1.4-0.9-1.8c-0.6-0.4-1.5-0.6-2.7-0.6h-5.7v-3.3h4.9c1.1,0,1.9-0.2,2.5-0.6c0.6-0.4,0.9-1,0.9-1.8s-0.3-1.3-0.9-1.7
		c-0.6-0.4-1.4-0.6-2.5-0.6h-4.5V104L108.7,104z M125.7,107.5V87.8h4.5v16h9.9v3.7L125.7,107.5L125.7,107.5z M151.9,107.8
		c-1.6,0-3-0.3-4.3-0.8c-1.3-0.5-2.5-1.2-3.4-2.2c-0.9-0.9-1.7-2-2.2-3.2c-0.5-1.2-0.8-2.6-0.8-4c0-1.4,0.3-2.8,0.8-4
		c0.5-1.2,1.3-2.3,2.3-3.2s2.1-1.6,3.4-2.2c1.3-0.5,2.7-0.8,4.3-0.8c1.6,0,3,0.3,4.3,0.8c1.3,0.5,2.5,1.2,3.4,2.2
		c1,0.9,1.7,2,2.3,3.2c0.5,1.2,0.8,2.6,0.8,4c0,1.4-0.3,2.8-0.8,4.1c-0.5,1.2-1.3,2.3-2.3,3.2c-0.9,0.9-2.1,1.6-3.4,2.1
		C154.8,107.5,153.4,107.8,151.9,107.8z M151.8,104c0.9,0,1.7-0.2,2.4-0.5c0.8-0.3,1.4-0.8,2-1.3c0.6-0.6,1-1.2,1.3-2
		c0.3-0.8,0.5-1.6,0.5-2.6s-0.2-1.8-0.5-2.6c-0.3-0.8-0.8-1.4-1.3-2c-0.5-0.6-1.2-1-1.9-1.3c-0.8-0.3-1.6-0.5-2.5-0.5
		c-0.9,0-1.7,0.2-2.5,0.5c-0.8,0.3-1.4,0.8-1.9,1.3c-0.6,0.6-1,1.2-1.3,2c-0.3,0.8-0.5,1.6-0.5,2.6c0,0.9,0.2,1.8,0.5,2.6
		c0.3,0.8,0.8,1.4,1.3,2c0.6,0.6,1.2,1,2,1.3C150.2,103.8,151,104,151.8,104z M175.4,107.8c-1.5,0-2.9-0.3-4.3-0.8
		c-1.3-0.5-2.4-1.2-3.4-2.2c-0.9-0.9-1.7-2-2.2-3.2c-0.5-1.2-0.8-2.6-0.8-4.1s0.3-2.9,0.8-4.1c0.5-1.2,1.3-2.3,2.2-3.2
		c1-0.9,2.1-1.6,3.4-2.1c1.3-0.5,2.7-0.8,4.3-0.8c1.7,0,3.2,0.3,4.6,0.9c1.4,0.6,2.6,1.4,3.5,2.6l-2.9,2.7c-0.7-0.8-1.4-1.3-2.2-1.7
		c-0.8-0.4-1.7-0.6-2.7-0.6c-0.9,0-1.8,0.2-2.5,0.5c-0.8,0.3-1.4,0.8-2,1.3c-0.6,0.6-1,1.2-1.3,2c-0.3,0.8-0.5,1.6-0.5,2.6
		s0.2,1.8,0.5,2.6c0.3,0.8,0.8,1.4,1.3,2c0.6,0.6,1.2,1,2,1.3c0.8,0.3,1.6,0.5,2.5,0.5c1,0,1.8-0.2,2.7-0.6c0.8-0.4,1.6-1,2.2-1.8
		l2.9,2.7c-0.9,1.2-2.1,2-3.5,2.6C178.7,107.5,177.2,107.8,175.4,107.8z M190.7,103l-0.3-5.2l9.4-9.9h5.1l-8.5,9.1l-2.5,2.7
		L190.7,103z M186.7,107.5V87.8h4.5v19.7H186.7z M200.1,107.5l-7-8.6l3-3.2l9.4,11.8L200.1,107.5L200.1,107.5L200.1,107.5z
		 M216.2,107.8c-1.5,0-2.9-0.3-4.3-0.8c-1.3-0.5-2.4-1.2-3.4-2.2c-0.9-0.9-1.7-2-2.2-3.2c-0.5-1.2-0.8-2.6-0.8-4.1s0.3-2.9,0.8-4.1
		c0.5-1.2,1.3-2.3,2.2-3.2c1-0.9,2.1-1.6,3.4-2.1s2.7-0.8,4.3-0.8c1.7,0,3.2,0.3,4.6,0.9c1.4,0.6,2.6,1.4,3.5,2.6l-2.9,2.7
		c-0.7-0.8-1.4-1.3-2.2-1.7c-0.8-0.4-1.7-0.6-2.7-0.6c-0.9,0-1.8,0.2-2.5,0.5c-0.8,0.3-1.4,0.8-2,1.3c-0.6,0.6-1,1.2-1.3,2
		c-0.3,0.8-0.5,1.6-0.5,2.6s0.2,1.8,0.5,2.6c0.3,0.8,0.8,1.4,1.3,2c0.6,0.6,1.2,1,2,1.3c0.8,0.3,1.6,0.5,2.5,0.5
		c1,0,1.8-0.2,2.7-0.6c0.8-0.4,1.6-1,2.2-1.8l2.9,2.7c-0.9,1.2-2.1,2-3.5,2.6C219.5,107.5,217.9,107.8,216.2,107.8z M240.9,87.8h4.5
		v19.7h-4.5V87.8z M231.9,107.5h-4.5V87.8h4.5V107.5z M241.2,99.4h-9.6v-3.9h9.6V99.4z M247.5,107.5l8.8-19.7h4.5l8.8,19.7h-4.8
		l-7.2-17.4h1.8l-7.2,17.4H247.5z M251.9,103.2l1.2-3.5h10.1l1.2,3.5H251.9z M271.6,107.5V87.8h4.5v19.7H271.6z M280.8,107.5V87.8
		h3.8l11.6,14.2h-1.8V87.8h4.5v19.7h-3.7l-11.6-14.2h1.8v14.2H280.8z"/>
	<g>
		<path d="M59.7,44.2L77.9,75l-18.2,30.8L43.6,76.5H0l20.5,35.7h36.1l-1.8-3H22.3L5.2,79.5h36.6L59.6,112l21.9-37L59.6,38L41.8,70.5
			H5.2l17.1-29.7h32.4l1.8-3H20.5L0,73.5h43.6L59.7,44.2z"/>
		<path d="M53.2,87.6L60.7,75l-7.5-12.6l-1.8,3l5.7,9.7l-5.7,9.7L53.2,87.6z"/>
	</g>
</g>
</svg>
