<svg width="149" height="31" viewBox="0 0 149 31" fill="none" xmlns="http://www.w3.org/2000/svg">
<path fill-rule="evenodd" clip-rule="evenodd" d="M2.66951 7.2748H0.115234L0.115234 5.38873H2.66951V0.586891H6.43372V5.38873H10.6013V7.2748H6.43372V14.2802C6.43372 14.9627 6.50542 15.5465 6.64882 16.0314C6.81013 16.4985 7.01627 16.8847 7.26722 17.19C7.53608 17.4775 7.84081 17.693 8.18138 17.8367C8.52195 17.9804 8.88045 18.0522 9.25682 18.0522C9.79462 18.0522 10.3144 17.9714 10.8164 17.8098C11.3182 17.6302 11.7394 17.4415 12.08 17.2439L12.8866 18.9953C12.3488 19.2647 11.7305 19.4893 11.0315 19.6689C10.3503 19.8485 9.66913 19.9383 8.988 19.9383C6.96249 19.9383 5.40303 19.4354 4.30964 18.4295C3.21622 17.4236 2.66951 16.0404 2.66951 14.2802V7.2748ZM25.6549 7.2748H22.4284C21.2095 7.2748 20.2775 7.60711 19.6322 8.2717C18.9869 8.91835 18.6642 9.88837 18.6642 11.1817V19.3994H14.9V11.1817C14.9 9.34946 15.4735 7.93043 16.6208 6.92452C17.7859 5.90067 19.4528 5.38873 21.6218 5.38873H25.6549V7.2748ZM33.1654 17.5134C31.1041 17.5134 30.0734 16.6601 30.0734 14.9537C30.0734 13.2473 31.1041 12.3941 33.1654 12.3941H36.9296V17.5134H33.1654ZM35.9078 7.65199C36.5891 8.26272 36.9296 9.21468 36.9296 10.5081H33.1654C30.7276 10.5081 28.9262 10.8762 27.761 11.6127C26.6139 12.3492 26.0404 13.4628 26.0404 14.9537C26.0404 16.4447 26.6139 17.5583 27.761 18.2948C28.9262 19.0312 30.7276 19.3994 33.1654 19.3994H40.6938V10.5081C40.6938 9.66381 40.5324 8.90038 40.2098 8.21782C39.9051 7.51727 39.4481 6.91553 38.8386 6.41258C38.2292 5.90965 37.4853 5.52345 36.6069 5.25402C35.7286 4.98459 34.7158 4.84987 33.5686 4.84987C33.1385 4.84987 32.6725 4.88578 32.1705 4.95763C31.6865 5.02947 31.1938 5.13727 30.6918 5.28096C30.1899 5.4067 29.697 5.56836 29.2129 5.76595C28.7471 5.96352 28.3167 6.19704 27.9224 6.46647L28.8636 8.08311C29.4729 7.66996 30.1629 7.34663 30.9338 7.11313C31.7046 6.86166 32.4934 6.73591 33.2999 6.73591C34.3754 6.73591 35.2446 7.04127 35.9078 7.65199ZM55.2003 7.2748H51.8394C51.2299 7.2748 50.6654 7.37357 50.1456 7.57117C49.6436 7.7508 49.2044 8.04718 48.8279 8.46031C48.4696 8.87346 48.1828 9.40335 47.9675 10.05C47.7705 10.6966 47.6717 11.478 47.6717 12.3941C47.6717 13.3101 47.7705 14.0915 47.9675 14.7382C48.1828 15.3848 48.4696 15.9147 48.8279 16.3279C49.2044 16.741 49.6436 17.0464 50.1456 17.2439C50.6654 17.4236 51.2299 17.5134 51.8394 17.5134H55.2003V7.2748ZM51.8394 19.3994C50.6025 19.3994 49.4733 19.2378 48.4515 18.9145C47.4477 18.5911 46.5875 18.1241 45.8704 17.5134C45.1534 16.9027 44.5977 16.1662 44.2033 15.304C43.8269 14.4418 43.6387 13.4718 43.6387 12.3941C43.6387 11.3164 43.8269 10.3464 44.2033 9.48414C44.5977 8.62197 45.1534 7.88551 45.8704 7.2748C46.5875 6.66407 47.4477 6.19704 48.4515 5.87372C49.4733 5.55039 50.6025 5.38873 51.8394 5.38873H55.2003V0.538874H58.9644V19.3994H51.8394ZM73.2299 17.5942C72.4772 17.8995 71.6616 18.0522 70.7831 18.0522C69.5465 18.0522 68.5158 17.729 67.6912 17.0823C66.8847 16.4357 66.3736 15.3669 66.1586 13.876H77.6395V11.9899C77.6395 10.8762 77.4334 9.87937 77.0211 8.99919C76.6088 8.11902 76.0531 7.37357 75.3541 6.76286C74.655 6.13416 73.8305 5.65816 72.8805 5.33484C71.9304 5.01154 70.9177 4.84987 69.8422 4.84987C68.6951 4.84987 67.6464 5.0205 66.6964 5.36178C65.7462 5.68511 64.9219 6.1701 64.2228 6.81675C63.5417 7.44544 63.0038 8.23579 62.6096 9.18778C62.233 10.1218 62.0448 11.1906 62.0448 12.3941C62.0448 13.6155 62.2421 14.6932 62.6363 15.6273C63.0486 16.5613 63.6223 17.3517 64.3572 17.9984C65.0921 18.627 65.9794 19.1031 67.019 19.4264C68.0765 19.7677 69.2417 19.9383 70.5145 19.9383C71.088 19.9383 71.6616 19.8844 72.2351 19.7766C72.8088 19.6869 73.3554 19.5611 73.8753 19.3994C74.413 19.2198 74.906 19.0043 75.3541 18.7528C75.8201 18.5013 76.2233 18.2229 76.5639 17.9175L75.4884 16.3009C74.7535 16.8578 74.0006 17.2888 73.2299 17.5942ZM68.3903 6.89757C68.8384 6.70001 69.3224 6.60119 69.8422 6.60119C70.3082 6.60119 70.7654 6.70898 71.2135 6.92452C71.6794 7.12211 72.0827 7.44544 72.4233 7.8945C72.7818 8.32559 73.0688 8.88242 73.2838 9.56502C73.4988 10.2476 73.6064 11.0559 73.6064 11.9899H66.0779C66.0959 11.02 66.2034 10.1937 66.4007 9.51113C66.6157 8.82855 66.8847 8.27169 67.2073 7.8406C67.5478 7.40951 67.9422 7.09517 68.3903 6.89757ZM88.2579 7.2748C86.9671 7.2748 85.9455 7.67894 85.1925 8.48725C84.4577 9.27757 84.0902 10.4901 84.0902 12.1246C84.0902 13.7593 84.4577 14.9807 85.1925 15.789C85.9455 16.5793 86.9671 16.9745 88.2579 16.9745H91.6183V7.2748H88.2579ZM95.3827 19.13C95.3827 19.9742 95.2211 20.7376 94.8988 21.4202C94.5765 22.1208 94.0925 22.7225 93.4469 23.2254C92.8195 23.7284 92.0223 24.1146 91.0544 24.384C90.1041 24.6534 88.9928 24.7882 87.72 24.7882C87.29 24.7882 86.8237 24.7524 86.322 24.6804C85.8379 24.6264 85.345 24.5277 84.8431 24.384C84.3411 24.2583 83.8484 24.0876 83.3644 23.8721C82.8982 23.6745 82.4681 23.441 82.0738 23.1715L83.0148 21.555C83.6243 21.9681 84.3143 22.2914 85.085 22.5249C85.8557 22.7764 86.6445 22.9022 87.4511 22.9022C88.7955 22.9022 89.8261 22.5967 90.5432 21.986C91.2596 21.3753 91.6183 20.4233 91.6183 19.13V18.8606H88.2579C87.021 18.8606 85.8916 18.6989 84.87 18.3756C83.8662 18.0522 83.0057 17.5942 82.2889 17.0015C81.5718 16.4087 81.0161 15.6992 80.6219 14.8729C80.2454 14.0466 80.0572 13.1306 80.0572 12.1246C80.0572 11.1188 80.2454 10.2026 80.6219 9.37636C81.0161 8.55013 81.5718 7.8406 82.2889 7.24784C83.0057 6.65509 83.8662 6.19704 84.87 5.87372C85.8916 5.55039 87.021 5.38873 88.2579 5.38873H95.3827V19.13ZM106.529 7.2748H109.756V5.38873H105.723C103.554 5.38873 101.887 5.90067 100.722 6.92452C99.5749 7.93043 99.001 9.34946 99.001 11.1817V19.3994H102.765V11.1817C102.765 9.88837 103.088 8.91835 103.733 8.2717C104.378 7.60711 105.311 7.2748 106.529 7.2748ZM115.795 19.3994H112.03V5.65816H115.795V19.3994ZM115.929 2.02078C115.929 2.55964 115.741 3.03564 115.365 3.4488C115.007 3.84397 114.522 4.04156 113.913 4.04156C113.303 4.04156 112.81 3.84397 112.434 3.4488C112.076 3.03564 111.896 2.55964 111.896 2.02078C111.896 1.4819 112.076 1.01487 112.434 0.619703C112.81 0.206568 113.303 2.68252e-08 113.913 0C114.505 -2.60153e-08 114.989 0.206568 115.365 0.619705C115.741 1.01487 115.929 1.4819 115.929 2.02078ZM127.223 7.2748H130.584V17.5134H127.223C126.613 17.5134 126.049 17.4236 125.529 17.2439C125.027 17.0464 124.588 16.741 124.212 16.3279C123.853 15.9147 123.566 15.3848 123.351 14.7382C123.154 14.0915 123.056 13.3101 123.056 12.3941C123.056 11.478 123.154 10.6966 123.351 10.05C123.566 9.40335 123.853 8.87346 124.212 8.46031C124.588 8.04718 125.027 7.7508 125.529 7.57117C126.049 7.37357 126.613 7.2748 127.223 7.2748ZM123.835 18.9145C124.857 19.2378 125.986 19.3994 127.223 19.3994H134.349V0.538871H130.584V5.38873H127.223C125.986 5.38873 124.857 5.55039 123.835 5.87372C122.832 6.19704 121.971 6.66407 121.254 7.2748C120.537 7.88551 119.982 8.62197 119.587 9.48414C119.211 10.3464 119.023 11.3164 119.023 12.3941C119.023 13.4718 119.211 14.4418 119.587 15.304C119.982 16.1662 120.537 16.9027 121.254 17.5134C121.971 18.1241 122.832 18.5911 123.835 18.9145ZM140.273 1.09907V5.64484H140.943V1.09907H142.617V0.490855H138.606V1.09907H140.273ZM143.287 0.490855V5.64484H143.932V1.25727L145.395 5.64484H146L147.47 1.33111V5.64484H148.115V0.490855H147.215L146.002 4.07685C145.881 4.44013 145.791 4.71553 145.734 4.90303C145.683 4.73428 145.602 4.47997 145.492 4.14012L144.294 0.490855H143.287Z" fill="#0E1F33"/>
<rect y="25" width="41" height="6" fill="#FC6FBB"/>
</svg>
