<?xml version="1.0" encoding="UTF-8" standalone="no"?>
<!-- Created with Inkscape (http://www.inkscape.org/) -->

<svg
   version="1.1"
   id="svg2"
   width="618.70135"
   height="191.03867"
   viewBox="0 0 618.70135 191.03867"
   xmlns="http://www.w3.org/2000/svg"
   xmlns:svg="http://www.w3.org/2000/svg">
  <defs
     id="defs6">
    <clipPath
       clipPathUnits="userSpaceOnUse"
       id="clipPath22">
      <path
         d="M 0,143.279 H 464.026 V 0 H 0 Z"
         id="path20" />
    </clipPath>
  </defs>
  <g
     id="g8"
     transform="matrix(1.3333333,0,0,-1.3333333,0,191.03867)">
    <g
       id="g10"
       transform="translate(45.5206,60.0061)">
      <path
         d="m 0,0 -23.001,59.65 h 14.333 l 15.132,-40 15.84,40 h 9.712 l 16.17,-40 14.46,40 H 74.999 L 51.998,0 H 42.643 L 26.235,41.269 9.602,0 Z"
         style="fill:#000f9f;fill-opacity:1;fill-rule:nonzero;stroke:none"
         id="path12" />
    </g>
    <path
       d="m 140.301,119.643 h 13.864 V 60.007 h -13.864 z"
       style="fill:#e1261c;fill-opacity:1;fill-rule:nonzero;stroke:none"
       id="path14" />
    <g
       id="g16">
      <g
         id="g18"
         clip-path="url(#clipPath22)">
        <g
           id="g24"
           transform="translate(183.4091,105.5465)">
          <path
             d="m 0,0 c 0,5.555 1.037,9.301 3.112,11.221 2.096,1.928 5.964,2.888 11.681,2.888 h 43.919 c 5.71,0 9.587,-0.96 11.669,-2.888 C 72.466,9.301 73.504,5.555 73.504,0 v -31.437 c 0,-5.544 -1.038,-9.284 -3.123,-11.219 -2.082,-1.909 -5.959,-2.884 -11.669,-2.884 H 14.793 c -5.717,0 -9.585,0.975 -11.681,2.884 C 1.037,-40.721 0,-36.981 0,-31.437 Z M 13.861,-34.325 H 59.645 V 3.471 H 13.861 Z"
             style="fill:#000f9f;fill-opacity:1;fill-rule:nonzero;stroke:none"
             id="path26" />
        </g>
        <g
           id="g28"
           transform="translate(336.2125,71.2213)">
          <path
             d="M 0,0 H -37.466 V 37.796 H 0 v -7.849 h 13.868 v 4.378 c 0,5.556 -1.036,9.298 -3.127,11.222 -2.082,1.928 -5.971,2.874 -11.674,2.874 h -35.6 c -5.699,0 -9.58,-0.946 -11.672,-2.874 -2.078,-1.924 -3.135,-5.666 -3.135,-11.222 V 2.902 c 0,-5.557 1.057,-9.298 3.135,-11.233 2.092,-1.909 5.973,-2.884 11.672,-2.884 h 35.6 c 5.703,0 9.592,0.975 11.674,2.884 2.091,1.935 3.127,5.676 3.127,11.233 V 9.606 L 0,9.606 Z"
             style="fill:#000f9f;fill-opacity:1;fill-rule:nonzero;stroke:none"
             id="path30" />
        </g>
        <g
           id="g32"
           transform="translate(428.7845,71.2213)">
          <path
             d="M 0,0 H -37.458 V 37.796 H 0 v -7.849 h 13.882 v 4.378 c 0,5.556 -1.057,9.298 -3.126,11.222 -2.09,1.928 -5.981,2.874 -11.682,2.874 h -35.588 c -5.718,0 -9.592,-0.946 -11.678,-2.874 -2.079,-1.924 -3.13,-5.666 -3.13,-11.222 V 2.902 c 0,-5.557 1.051,-9.298 3.13,-11.233 2.086,-1.909 5.96,-2.884 11.678,-2.884 h 35.588 c 5.701,0 9.592,0.975 11.682,2.884 2.069,1.935 3.126,5.676 3.126,11.233 V 9.606 L 0,9.606 Z"
             style="fill:#000f9f;fill-opacity:1;fill-rule:nonzero;stroke:none"
             id="path34" />
        </g>
        <g
           id="g36"
           transform="translate(71.9529,39.4383)">
          <path
             d="m 0,0 -2.597,-6.34 h 5.194 z m 5.921,-14.524 -1.787,4.385 h -8.268 l -1.787,-4.385 h -4.385 l 8.379,19.691 h 3.966 l 8.379,-19.691 z"
             style="fill:#000f9f;fill-opacity:1;fill-rule:nonzero;stroke:none"
             id="path38" />
        </g>
        <g
           id="g40"
           transform="translate(90.4411,41.9244)">
          <path
             d="M 0,0 C -0.978,0 -1.536,-0.503 -1.536,-1.62 V -2.207 H 1.9 V -5.67 h -3.38 v -11.34 h -4.246 v 11.34 h -1.759 v 3.491 h 1.759 v 0.95 c 0,3.296 1.648,4.804 4.637,4.804 1.34,0 2.234,-0.168 3.017,-0.419 V -0.363 C 1.313,-0.14 0.726,0 0,0"
             style="fill:#000f9f;fill-opacity:1;fill-rule:nonzero;stroke:none"
             id="path42" />
        </g>
        <g
           id="g44"
           transform="translate(103.0653,35.7239)">
          <path
             d="m 0,0 c -2.821,0 -4.553,-1.704 -4.553,-5.279 v -5.53 H -8.798 V 4.162 h 4.245 V 1.145 c 0.866,2.067 2.263,3.407 4.776,3.296 L 0.223,0 Z"
             style="fill:#000f9f;fill-opacity:1;fill-rule:nonzero;stroke:none"
             id="path46" />
        </g>
        <path
           d="m 105.746,39.886 h 4.246 V 24.915 h -4.246 z m -0.112,5.418 h 4.469 v -3.771 h -4.469 z"
           style="fill:#000f9f;fill-opacity:1;fill-rule:nonzero;stroke:none"
           id="path48" />
        <g
           id="g50"
           transform="translate(120.6603,24.5793)">
          <path
             d="m 0,0 c -4.497,0 -7.793,3.463 -7.793,7.737 v 0.056 c 0,4.273 3.268,7.792 7.849,7.792 2.821,0 4.58,-0.949 5.977,-2.514 L 3.435,10.279 c -0.949,1.005 -1.899,1.647 -3.407,1.647 -2.123,0 -3.631,-1.871 -3.631,-4.077 V 7.793 c 0,-2.29 1.48,-4.134 3.798,-4.134 1.425,0 2.402,0.615 3.436,1.592 L 6.116,2.737 C 4.664,1.145 2.989,0 0,0"
             style="fill:#000f9f;fill-opacity:1;fill-rule:nonzero;stroke:none"
             id="path52" />
        </g>
        <g
           id="g54"
           transform="translate(138.004,30.9478)">
          <path
             d="m 0,0 c -0.726,0.335 -1.676,0.559 -2.709,0.559 -1.816,0 -2.933,-0.727 -2.933,-2.067 v -0.056 c 0,-1.145 0.95,-1.816 2.318,-1.816 1.983,0 3.324,1.089 3.324,2.626 z m -0.084,-6.033 v 1.62 c -1.033,-1.146 -2.458,-1.899 -4.525,-1.899 -2.82,0 -5.139,1.619 -5.139,4.58 v 0.056 c 0,3.268 2.486,4.776 6.033,4.776 1.508,0 2.598,-0.251 3.659,-0.615 v 0.252 c 0,1.76 -1.089,2.737 -3.212,2.737 -1.62,0 -2.765,-0.307 -4.134,-0.81 l -1.061,3.24 c 1.648,0.727 3.268,1.201 5.81,1.201 4.636,0 6.675,-2.402 6.675,-6.452 v -8.686 z"
             style="fill:#000f9f;fill-opacity:1;fill-rule:nonzero;stroke:none"
             id="path56" />
        </g>
        <g
           id="g58"
           transform="translate(145.4889,44.4657)">
          <path
             d="M 0,0 H 4.748 V -0.139 L 1.704,-8.91 h -2.207 z"
             style="fill:#000f9f;fill-opacity:1;fill-rule:nonzero;stroke:none"
             id="path60" />
        </g>
        <g
           id="g62"
           transform="translate(155.9063,24.6353)">
          <path
             d="m 0,0 c -2.095,0 -4.441,0.698 -6.424,2.262 l 1.815,2.793 C -2.989,3.882 -1.285,3.268 0.112,3.268 1.34,3.268 1.9,3.714 1.9,4.385 V 4.441 C 1.9,5.363 0.447,5.67 -1.201,6.172 -3.296,6.787 -5.67,7.765 -5.67,10.669 v 0.056 c 0,3.045 2.458,4.749 5.475,4.749 1.899,0 3.965,-0.643 5.586,-1.732 L 3.77,10.809 c -1.48,0.866 -2.96,1.397 -4.049,1.397 -1.034,0 -1.565,-0.448 -1.565,-1.034 v -0.055 c 0,-0.839 1.425,-1.229 3.045,-1.788 C 3.296,8.631 5.726,7.625 5.726,4.888 V 4.832 C 5.726,1.508 3.24,0 0,0"
             style="fill:#000f9f;fill-opacity:1;fill-rule:nonzero;stroke:none"
             id="path64" />
        </g>
        <g
           id="g66"
           transform="translate(186.2375,34.6902)">
          <path
             d="M 0,0 C 0,3.464 -2.374,5.893 -5.893,5.893 H -9.217 V -5.893 h 3.324 c 3.519,0 5.893,2.374 5.893,5.837 z m -5.893,-9.776 h -7.626 V 9.776 h 7.626 c 6.144,0 10.39,-4.217 10.39,-9.72 L 4.497,0 c 0,-5.502 -4.246,-9.776 -10.39,-9.776"
             style="fill:#000f9f;fill-opacity:1;fill-rule:nonzero;stroke:none"
             id="path68" />
        </g>
        <path
           d="m 193.918,39.886 h 4.246 V 24.915 h -4.246 z m -0.112,5.418 h 4.469 v -3.771 h -4.469 z"
           style="fill:#000f9f;fill-opacity:1;fill-rule:nonzero;stroke:none"
           id="path70" />
        <g
           id="g72"
           transform="translate(212.6297,33.1819)">
          <path
             d="M 0,0 C 0,2.039 -1.592,3.464 -3.659,3.464 -5.726,3.464 -7.29,2.039 -7.29,0 v -0.056 c 0,-2.067 1.564,-3.463 3.631,-3.463 2.067,0 3.659,1.424 3.659,3.463 z m -4.162,-12.792 c -2.43,0 -4.72,0.558 -6.619,1.564 l 1.452,3.184 c 1.536,-0.866 3.073,-1.368 5.056,-1.368 2.905,0 4.273,1.396 4.273,4.077 v 0.727 c -1.257,-1.508 -2.625,-2.43 -4.887,-2.43 -3.492,0 -6.648,2.541 -6.648,6.982 V 0 c 0,4.469 3.212,6.983 6.648,6.983 2.318,0 3.686,-0.978 4.831,-2.235 V 6.704 H 4.19 V -4.887 c 0,-5.642 -2.794,-7.905 -8.352,-7.905"
             style="fill:#000f9f;fill-opacity:1;fill-rule:nonzero;stroke:none"
             id="path74" />
        </g>
        <path
           d="m 220.422,39.886 h 4.246 V 24.915 h -4.246 z m -0.112,5.418 h 4.469 v -3.771 h -4.469 z"
           style="fill:#000f9f;fill-opacity:1;fill-rule:nonzero;stroke:none"
           id="path76" />
        <g
           id="g78"
           transform="translate(233.3246,24.6633)">
          <path
             d="m 0,0 c -2.598,0 -4.358,1.033 -4.358,4.497 v 7.094 h -1.787 v 3.631 h 1.787 v 3.827 h 4.246 v -3.827 h 3.52 v -3.631 h -3.52 V 5.195 c 0,-0.977 0.419,-1.453 1.369,-1.453 0.781,0 1.48,0.196 2.095,0.532 V 0.866 C 2.457,0.335 1.424,0 0,0"
             style="fill:#000f9f;fill-opacity:1;fill-rule:nonzero;stroke:none"
             id="path80" />
        </g>
        <g
           id="g82"
           transform="translate(248.3222,30.9478)">
          <path
             d="m 0,0 c -0.725,0.335 -1.676,0.559 -2.709,0.559 -1.815,0 -2.932,-0.727 -2.932,-2.067 v -0.056 c 0,-1.145 0.949,-1.816 2.318,-1.816 1.983,0 3.323,1.089 3.323,2.626 z m -0.083,-6.033 v 1.62 c -1.034,-1.146 -2.458,-1.899 -4.525,-1.899 -2.821,0 -5.14,1.619 -5.14,4.58 v 0.056 c 0,3.268 2.487,4.776 6.034,4.776 1.509,0 2.597,-0.251 3.659,-0.615 v 0.252 c 0,1.76 -1.089,2.737 -3.213,2.737 -1.619,0 -2.764,-0.307 -4.134,-0.81 l -1.061,3.24 c 1.649,0.727 3.268,1.201 5.81,1.201 4.637,0 6.676,-2.402 6.676,-6.452 v -8.686 z"
             style="fill:#000f9f;fill-opacity:1;fill-rule:nonzero;stroke:none"
             id="path84" />
        </g>
        <path
           d="m 255.807,45.304 h 4.246 v -20.39 h -4.246 z"
           style="fill:#000f9f;fill-opacity:1;fill-rule:nonzero;stroke:none"
           id="path86" />
        <g
           id="g88"
           transform="translate(284.434,30.8638)">
          <path
             d="m 0,0 c 0,1.313 -0.978,2.123 -3.183,2.123 h -4.972 v -4.302 h 5.111 c 1.9,0 3.044,0.671 3.044,2.123 z m -1.088,7.821 c 0,1.284 -1.007,2.011 -2.822,2.011 H -8.155 V 5.698 h 3.965 c 1.9,0 3.102,0.614 3.102,2.067 z m -1.956,-13.77 h -9.301 v 19.551 h 9.077 c 3.994,0 6.453,-1.983 6.453,-5.055 V 8.491 C 3.185,6.284 2.011,5.055 0.615,4.274 2.877,3.408 4.274,2.095 4.274,-0.531 v -0.056 c 0,-3.575 -2.904,-5.362 -7.318,-5.362"
             style="fill:#000f9f;fill-opacity:1;fill-rule:nonzero;stroke:none"
             id="path90" />
        </g>
        <g
           id="g92"
           transform="translate(300.2694,30.9478)">
          <path
             d="m 0,0 c -0.725,0.335 -1.676,0.559 -2.709,0.559 -1.815,0 -2.932,-0.727 -2.932,-2.067 v -0.056 c 0,-1.145 0.949,-1.816 2.318,-1.816 1.983,0 3.323,1.089 3.323,2.626 z m -0.083,-6.033 v 1.62 c -1.034,-1.146 -2.458,-1.899 -4.525,-1.899 -2.821,0 -5.14,1.619 -5.14,4.58 v 0.056 c 0,3.268 2.487,4.776 6.034,4.776 1.509,0 2.597,-0.251 3.659,-0.615 v 0.252 c 0,1.76 -1.089,2.737 -3.213,2.737 -1.619,0 -2.764,-0.307 -4.133,-0.81 l -1.062,3.24 c 1.649,0.727 3.268,1.201 5.81,1.201 4.637,0 6.676,-2.402 6.676,-6.452 v -8.686 z"
             style="fill:#000f9f;fill-opacity:1;fill-rule:nonzero;stroke:none"
             id="path94" />
        </g>
        <g
           id="g96"
           transform="translate(314.6246,24.5793)">
          <path
             d="m 0,0 c -4.496,0 -7.792,3.463 -7.792,7.737 v 0.056 c 0,4.273 3.268,7.792 7.848,7.792 2.821,0 4.582,-0.949 5.977,-2.514 L 3.436,10.279 c -0.949,1.005 -1.9,1.647 -3.407,1.647 -2.124,0 -3.631,-1.871 -3.631,-4.077 V 7.793 c 0,-2.29 1.48,-4.134 3.799,-4.134 1.424,0 2.402,0.615 3.434,1.592 L 6.118,2.737 C 4.665,1.145 2.989,0 0,0"
             style="fill:#000f9f;fill-opacity:1;fill-rule:nonzero;stroke:none"
             id="path98" />
        </g>
        <g
           id="g100"
           transform="translate(332.7514,24.9146)">
          <path
             d="M 0,0 -3.91,6.117 -5.39,4.553 V 0 H -9.636 V 20.39 H -5.39 V 9.524 l 4.971,5.447 H 4.665 L -1.034,9.078 4.86,0 Z"
             style="fill:#000f9f;fill-opacity:1;fill-rule:nonzero;stroke:none"
             id="path102" />
        </g>
        <g
           id="g104"
           transform="translate(350.7377,32.4281)">
          <path
             d="M 0,0 C 0,2.485 -1.676,4.134 -3.658,4.134 -5.641,4.134 -7.29,2.485 -7.29,0 v -0.056 c 0,-2.486 1.649,-4.134 3.632,-4.134 1.982,0 3.658,1.62 3.658,4.134 z m -2.57,-7.793 c -2.261,0 -3.658,1.033 -4.664,2.234 v -1.954 h -4.245 v 20.389 h 4.245 V 5.307 c 1.033,1.396 2.458,2.43 4.664,2.43 3.492,0 6.816,-2.738 6.816,-7.737 v -0.056 c 0,-4.999 -3.268,-7.737 -6.816,-7.737"
             style="fill:#000f9f;fill-opacity:1;fill-rule:nonzero;stroke:none"
             id="path106" />
        </g>
        <g
           id="g108"
           transform="translate(369.0025,32.3721)">
          <path
             d="m 0,0 c 0,2.207 -1.592,4.134 -3.938,4.134 -2.43,0 -3.883,-1.872 -3.883,-4.078 V 0 c 0,-2.207 1.593,-4.134 3.939,-4.134 2.429,0 3.882,1.872 3.882,4.078 z m -3.938,-7.793 c -4.637,0 -8.072,3.436 -8.072,7.737 V 0 c 0,4.302 3.463,7.793 8.128,7.793 4.636,0 8.072,-3.436 8.072,-7.737 L 4.19,0 c 0,-4.302 -3.464,-7.793 -8.128,-7.793"
             style="fill:#000f9f;fill-opacity:1;fill-rule:nonzero;stroke:none"
             id="path110" />
        </g>
        <g
           id="g112"
           transform="translate(385.3405,24.9146)">
          <path
             d="m 0,0 v 8.351 c 0,2.011 -0.949,3.045 -2.569,3.045 -1.621,0 -2.653,-1.034 -2.653,-3.045 V 0 h -4.246 v 14.971 h 4.246 v -2.123 c 0.978,1.257 2.234,2.402 4.385,2.402 3.212,0 5.083,-2.123 5.083,-5.558 V 0 Z"
             style="fill:#000f9f;fill-opacity:1;fill-rule:nonzero;stroke:none"
             id="path114" />
        </g>
        <g
           id="g116"
           transform="translate(399.5563,36.757)">
          <path
             d="M 0,0 C -1.759,0 -2.905,-1.257 -3.239,-3.184 H 3.156 C 2.905,-1.284 1.788,0 0,0 M 7.234,-5.837 H -3.185 c 0.42,-1.928 1.761,-2.933 3.66,-2.933 1.425,0 2.458,0.447 3.631,1.536 l 2.43,-2.15 c -1.397,-1.732 -3.407,-2.794 -6.117,-2.794 -4.497,0 -7.82,3.157 -7.82,7.737 v 0.056 c 0,4.274 3.043,7.793 7.401,7.793 4.999,0 7.29,-3.883 7.29,-8.128 v -0.056 c 0,-0.419 -0.028,-0.67 -0.056,-1.061"
             style="fill:#000f9f;fill-opacity:1;fill-rule:nonzero;stroke:none"
             id="path118" />
        </g>
      </g>
    </g>
  </g>
</svg>
