<?xml version="1.0" encoding="UTF-8"?>
<!DOCTYPE svg PUBLIC "-//W3C//DTD SVG 1.1//EN" "http://www.w3.org/Graphics/SVG/1.1/DTD/svg11.dtd">
<!-- Creator: CorelDRAW 2021 (64-Bit) -->
<svg xmlns="http://www.w3.org/2000/svg" xml:space="preserve" width="0.130992in" height="0.143646in" version="1.1" style="shape-rendering:geometricPrecision; text-rendering:geometricPrecision; image-rendering:optimizeQuality; fill-rule:evenodd; clip-rule:evenodd"
viewBox="0 0 8.43 9.25"
 xmlns:xlink="http://www.w3.org/1999/xlink"
 xmlns:xodm="http://www.corel.com/coreldraw/odm/2003">
 <defs>
  <style type="text/css">
   <![CDATA[
    .fil0 {fill:#25baff;fill-rule:nonzero}
   ]]>
  </style>
 </defs>
 <g id="Layer_x0020_1">
  <metadata id="CorelCorpID_0Corel-Layer"/>
  <g id="_2222133516624">
   <g id="surface1">
    <path class="fil0" d="M6.68 0.02c-0.09,0.03 -0.17,0.09 -0.21,0.18 0,0 -1.24,2.57 -3.8,3.02l-2.13 0.38c-0.35,0.06 -0.58,0.39 -0.52,0.74l0.27 1.51c0.06,0.35 0.39,0.58 0.74,0.52l2.13 -0.38c2.56,-0.45 4.61,1.53 4.61,1.53 0.11,0.11 0.28,0.13 0.41,0.06 0.13,-0.07 0.21,-0.22 0.18,-0.37l-0.49 -2.76c0.38,-0.07 0.64,-0.43 0.57,-0.81 -0.07,-0.38 -0.43,-0.64 -0.81,-0.57l-0.49 -2.76c-0.02,-0.1 -0.08,-0.19 -0.16,-0.24 -0.09,-0.05 -0.19,-0.07 -0.29,-0.04zm-0.09 1.28l0.91 5.13c-0.83,-0.59 -2.3,-1.4 -4.12,-1.2l-0.25 -1.4c1.78,-0.44 2.89,-1.7 3.47,-2.53zm-5.45 5.39l0.06 0.35c0.56,0.75 0.99,1.56 1.04,1.84 0.04,0.24 0.29,0.42 0.53,0.37l0.82 -0.14c0.38,-0.07 0.4,-0.4 0.34,-0.53 -0.03,-0.17 -0.18,-0.39 -0.45,-0.52 -0.93,-0.44 -1.1,-1.58 -1.1,-1.58l-1.24 0.22z"/>
   </g>
  </g>
 </g>
</svg>
