<?xml version="1.0" encoding="UTF-8"?>
<!DOCTYPE svg PUBLIC "-//W3C//DTD SVG 1.1//EN" "http://www.w3.org/Graphics/SVG/1.1/DTD/svg11.dtd">
<!-- Creator: CorelDRAW 2021 (64-Bit) -->
<svg xmlns="http://www.w3.org/2000/svg" xml:space="preserve" width="0.699114in" height="0.781886in" version="1.1" style="shape-rendering:geometricPrecision; text-rendering:geometricPrecision; image-rendering:optimizeQuality; fill-rule:evenodd; clip-rule:evenodd"
viewBox="0 0 799.53 894.19"
 xmlns:xlink="http://www.w3.org/1999/xlink"
 xmlns:xodm="http://www.corel.com/coreldraw/odm/2003">
 <defs>
  <style type="text/css">
   <![CDATA[
    .str0 {stroke:#1A1A1A;stroke-width:28.57;stroke-linecap:round;stroke-miterlimit:10}
    .fil2 {fill:none;fill-rule:nonzero}
    .fil3 {fill:#00CCFF;fill-rule:nonzero}
    .fil0 {fill:#25baff;fill-rule:nonzero}
    .fil1 {fill:white;fill-rule:nonzero}
   ]]>
  </style>
 </defs>
 <g id="Layer_x0020_1">
  <metadata id="CorelCorpID_0Corel-Layer"/>
  <path class="fil0" d="M399.76 615.25l-223.26 -251.27 -166.79 -187.7c-21.87,-24.6 -4.44,-63.57 28.45,-63.57l361.6 0 361.59 0c32.9,0 50.32,38.97 28.46,63.57l-166.78 187.7 -223.27 251.27z"/>
  <polygon class="fil1" points="399.76,516.82 277.24,374.38 154.71,231.94 399.76,231.94 644.81,231.94 522.29,374.38 "/>
  <line class="fil2 str0" x1="399.76" y1="363.99" x2="685.55" y2= "14.28" />
  <path class="fil3" d="M624.31 147.36c0,31.27 -25.29,56.61 -56.49,56.61 -31.2,0 -56.49,-25.34 -56.49,-56.61 0,-31.27 25.29,-56.62 56.49,-56.62 31.2,0 56.49,25.34 56.49,56.62z"/>
  <path class="fil3" d="M557.14 231.94c0,31.27 -25.29,56.61 -56.49,56.61 -31.2,0 -56.49,-25.34 -56.49,-56.61 0,-31.27 25.29,-56.61 56.49,-56.61 31.2,0 56.49,25.34 56.49,56.61z"/>
  <polygon class="fil0" points="200.92,850.53 598.61,850.53 598.61,894.19 200.92,894.19 "/>
  <polygon class="fil0" points="421.54,882.02 377.97,882.02 377.97,533.61 421.54,533.61 "/>
 </g>
</svg>
