<?xml version="1.0" encoding="UTF-8"?>
<!DOCTYPE svg PUBLIC "-//W3C//DTD SVG 1.1//EN" "http://www.w3.org/Graphics/SVG/1.1/DTD/svg11.dtd">
<!-- Creator: CorelDRAW 2021 (64-Bit) -->
<svg xmlns="http://www.w3.org/2000/svg" xml:space="preserve" width="0.872827in" height="1.0424in" version="1.1" style="shape-rendering:geometricPrecision; text-rendering:geometricPrecision; image-rendering:optimizeQuality; fill-rule:evenodd; clip-rule:evenodd"
viewBox="0 0 74.61 89.1"
 xmlns:xlink="http://www.w3.org/1999/xlink"
 xmlns:xodm="http://www.corel.com/coreldraw/odm/2003">
 <defs>
  <style type="text/css">
   <![CDATA[
    .fil0 {fill:#25baff;fill-rule:nonzero}
   ]]>
  </style>
 </defs>
 <g id="Layer_x0020_1">
  <metadata id="CorelCorpID_0Corel-Layer"/>
  <g id="entrepreneurship-ezgif.com-gif-maker.svg">
   <path class="fil0" d="M41.96 57.45c1.29,1.01 2.16,2.52 2.5,4.12 0.16,2.63 -0.13,4.5 -1.79,6.63 -0.23,0.24 -0.47,0.48 -0.72,0.72 0.13,0.04 0.27,0.08 0.41,0.11 2.31,0.7 4.27,2.07 5.5,4.19 0,0.12 0,0.24 0,0.36 0.13,-0.09 0.26,-0.18 0.4,-0.27 0.26,-0.17 0.26,-0.17 0.53,-0.35 0.17,-0.11 0.34,-0.23 0.52,-0.35 0.49,-0.28 0.86,-0.4 1.41,-0.47 -0.1,-0.11 -0.19,-0.23 -0.29,-0.34 -1.5,-1.8 -1.91,-3.22 -1.73,-5.56 0.21,-1.45 1.05,-2.64 2.17,-3.53 1.46,-0.95 3.02,-1.39 4.75,-1.06 1.77,0.47 3.1,1.38 4.04,2.97 0.76,1.42 0.79,3.24 0.42,4.8 -0.4,1.01 -1.1,1.78 -1.85,2.55 0.11,0.05 0.22,0.1 0.33,0.15 1.18,0.55 2.18,1.22 3.06,2.19 0,0.12 0,0.24 0,0.36 0.72,-0.41 1.44,-0.82 2.15,-1.25 -0.11,-0.14 -0.11,-0.14 -0.22,-0.28 -0.1,-0.13 -0.19,-0.25 -0.29,-0.38 -0.09,-0.12 -0.19,-0.25 -0.29,-0.37 -0.84,-1.24 -0.8,-2.72 -0.63,-4.17 0.44,-1.59 1.52,-2.59 2.92,-3.39 1.57,-0.48 2.9,-0.49 4.42,0.16 1.36,0.73 2.16,1.79 2.68,3.23 0.21,1.7 0.13,3.24 -0.89,4.66 -0.17,0.18 -0.35,0.37 -0.54,0.54 0.13,0.07 0.26,0.14 0.39,0.21 1.62,0.95 2.7,2.07 3.19,3.91 0.06,0.6 0.06,1.2 0.06,1.81 0,0.17 0,0.34 0,0.52 0,0.36 0,0.72 0,1.08 0,0.55 0.01,1.11 0.01,1.66 0,0.35 0,0.7 0,1.06 0,0.16 0.01,0.33 0.01,0.5 0,0.15 -0,0.31 -0,0.47 0,0.14 0,0.27 0,0.41 -0.13,0.55 -0.35,0.76 -0.8,1.1 -0.49,0.09 -0.49,0.09 -1.07,0.08 -0.21,0 -0.43,0 -0.65,0 -0.23,-0 -0.46,-0.01 -0.7,-0.01 -0.24,-0 -0.48,-0 -0.72,-0 -0.63,-0 -1.26,-0.01 -1.89,-0.02 -0.64,-0.01 -1.28,-0.01 -1.93,-0.01 -1.26,-0.01 -2.52,-0.02 -3.78,-0.04 -0.02,0.17 -0.04,0.34 -0.06,0.52 -0.12,0.56 -0.12,0.56 -0.66,0.92 -0.44,0.03 -0.87,0.04 -1.31,0.04 -0.13,0 -0.26,0 -0.4,0 -0.44,0 -0.88,-0 -1.32,-0.01 -0.3,-0 -0.61,-0 -0.91,-0 -0.8,-0 -1.6,-0.01 -2.4,-0.01 -0.82,-0 -1.63,-0.01 -2.45,-0.01 -1.6,-0 -3.2,-0.01 -4.81,-0.02 -0.02,0.17 -0.04,0.34 -0.06,0.52 -0.12,0.56 -0.12,0.56 -0.66,0.92 -0.4,0.05 -0.4,0.05 -0.87,0.05 -0.27,0 -0.27,0 -0.55,0 -0.2,0 -0.4,0 -0.6,0 -0.21,0 -0.42,0 -0.63,0 -0.69,0 -1.38,0 -2.07,0.01 -0.36,0 -0.72,0 -1.07,0 -1.13,0 -2.25,0 -3.38,0 -1.16,0 -2.32,0 -3.48,0.01 -1,0.01 -1.99,0.01 -2.99,0.01 -0.6,0 -1.19,0 -1.79,0 -0.66,0 -1.33,0 -1.99,0 -0.2,0 -0.39,0 -0.6,0.01 -0.18,-0 -0.36,-0 -0.55,-0.01 -0.16,0 -0.31,0 -0.48,0 -0.57,-0.12 -0.79,-0.35 -1.14,-0.81 0,-0.24 0,-0.47 0,-0.72 -0.17,0 -0.34,0 -0.51,0.01 -1.59,0.01 -3.18,0.03 -4.77,0.03 -0.82,0 -1.63,0.01 -2.45,0.02 -0.79,0.01 -1.58,0.01 -2.36,0.01 -0.3,0 -0.6,0 -0.9,0.01 -0.42,0.01 -0.84,0.01 -1.26,0.01 -0.13,0 -0.25,0.01 -0.38,0.01 -0.59,-0.01 -0.91,-0.06 -1.39,-0.41 -0.28,-0.4 -0.28,-0.4 -0.28,-1.12 -0.13,0 -0.27,0 -0.4,0.01 -1.25,0.01 -2.51,0.03 -3.76,0.03 -0.64,0 -1.29,0.01 -1.93,0.02 -0.62,0.01 -1.24,0.01 -1.87,0.01 -0.35,0 -0.71,0.01 -1.06,0.01 -0.32,0 -0.32,0 -0.65,0 -0.19,0 -0.38,0 -0.57,0.01 -0.63,-0.11 -0.83,-0.3 -1.21,-0.8 -0.09,-0.37 -0.09,-0.37 -0.09,-0.78 -0,-0.15 -0,-0.3 -0.01,-0.46 0,-0.16 0,-0.33 0.01,-0.5 -0,-0.17 -0,-0.34 -0,-0.52 -0,-0.36 0,-0.72 0,-1.08 0,-0.55 0,-1.09 -0.01,-1.64 0,-0.35 0,-0.7 0,-1.05 -0,-0.16 -0,-0.32 -0.01,-0.49 0.02,-1.56 0.6,-3.12 1.71,-4.24 0.64,-0.46 1.29,-0.86 1.97,-1.25 -0.07,-0.09 -0.15,-0.19 -0.22,-0.28 -0.1,-0.13 -0.19,-0.25 -0.29,-0.38 -0.09,-0.12 -0.19,-0.25 -0.29,-0.37 -0.84,-1.24 -0.8,-2.72 -0.63,-4.17 0.44,-1.59 1.52,-2.59 2.92,-3.39 1.57,-0.48 2.9,-0.49 4.42,0.16 1.36,0.73 2.16,1.79 2.68,3.23 0.21,1.7 0.13,3.24 -0.89,4.66 -0.17,0.18 -0.35,0.37 -0.54,0.54 0.26,0.18 0.51,0.35 0.77,0.53 0.14,0.1 0.29,0.2 0.43,0.3 0.41,0.28 0.41,0.28 0.94,0.43 0.05,-0.11 0.1,-0.22 0.15,-0.33 0.67,-1.23 2.04,-1.81 3.25,-2.36 -0.1,-0.1 -0.2,-0.2 -0.29,-0.3 -1.4,-1.5 -1.78,-2.57 -1.77,-4.63 0.06,-1.62 0.68,-2.91 1.85,-4.03 1.37,-1.08 2.94,-1.6 4.69,-1.43 1.6,0.31 2.97,1.02 4,2.31 1.08,1.61 1.17,3.15 1.01,5.04 -0.31,1.27 -1.14,2.24 -1.97,3.23 0.17,0.04 0.35,0.07 0.53,0.11 0.89,0.25 1.59,0.79 2.34,1.32 0.07,-0.2 0.07,-0.2 0.13,-0.39 0.75,-1.7 2.52,-3.11 4.21,-3.79 0.51,-0.17 1.03,-0.34 1.56,-0.48 -0.09,-0.1 -0.19,-0.19 -0.28,-0.29 -1.81,-1.94 -2.31,-3.64 -2.27,-6.24 0.08,-2.02 1.07,-3.52 2.49,-4.89 2.75,-2.32 6.57,-2.12 9.37,-0.06zm-8.15 3.39c-0.74,1.07 -0.75,2.16 -0.62,3.42 0.37,1.22 1.16,2.1 2.25,2.74 1.06,0.49 2.24,0.5 3.35,0.19 1.1,-0.48 1.96,-1.4 2.48,-2.47 0.34,-1.08 0.34,-2.35 -0.12,-3.39 -0.62,-1.07 -1.6,-1.9 -2.77,-2.28 -2.04,-0.24 -3.25,0.23 -4.57,1.77zm-16.07 5.15c-0.39,0.82 -0.43,1.5 -0.29,2.4 0.42,0.87 0.92,1.38 1.79,1.79 0.89,0.14 1.57,0.1 2.39,-0.29 0.64,-0.58 1.11,-1.05 1.25,-1.93 0.05,-1.02 -0.08,-1.66 -0.78,-2.44 -0.78,-0.71 -1.42,-0.83 -2.43,-0.79 -0.88,0.14 -1.35,0.61 -1.93,1.25zm34.35 0c-0.39,0.82 -0.43,1.5 -0.29,2.4 0.42,0.87 0.92,1.38 1.79,1.79 0.89,0.14 1.57,0.1 2.39,-0.29 0.64,-0.58 1.11,-1.05 1.25,-1.93 0.05,-1.02 -0.08,-1.66 -0.78,-2.44 -0.78,-0.71 -1.42,-0.83 -2.43,-0.79 -0.88,0.14 -1.35,0.61 -1.93,1.25zm-46.62 2.58c-0.29,0.58 -0.29,1.17 -0.18,1.79 0.31,0.54 0.69,0.97 1.25,1.25 0.92,0.11 0.92,0.11 1.76,-0.19 0.68,-0.56 0.91,-0.86 0.99,-1.74 -0.01,-0.6 -0.11,-0.91 -0.49,-1.38 -0.63,-0.62 -0.99,-0.71 -1.88,-0.7 -0.67,0.11 -0.99,0.48 -1.45,0.96zm60.11 0c-0.29,0.58 -0.29,1.17 -0.18,1.79 0.31,0.54 0.69,0.97 1.25,1.25 0.92,0.11 0.92,0.11 1.76,-0.19 0.68,-0.56 0.91,-0.86 0.99,-1.74 -0.01,-0.6 -0.11,-0.91 -0.49,-1.38 -0.63,-0.62 -0.99,-0.71 -1.88,-0.7 -0.67,0.11 -0.99,0.48 -1.45,0.96zm-35.49 5.24c-2.53,3.25 -1.36,9.17 -1.36,12.33 5.67,0 11.33,0 17.17,0 0.63,-6.66 0.63,-6.66 -1.72,-12.7 -1.78,-1.68 -4.13,-1.68 -6.44,-1.68 -0.38,0 -0.76,-0 -1.14,-0.01 -2.48,-0.01 -4.71,0.15 -6.51,2.06zm-14.42 2.11c-2.02,2.36 -1.25,6.03 -1.25,8.78 3.78,0 7.56,0 11.45,0 0.4,-4.55 0.4,-4.55 -1.25,-8.78 -2.29,-1.79 -6.65,-1.98 -8.94,0zm34.35 0c-2.02,2.36 -1.25,6.03 -1.25,8.78 3.78,0 7.56,0 11.45,0 0.4,-4.55 0.4,-4.55 -1.25,-8.78 -2.29,-1.79 -6.65,-1.98 -8.94,0zm-46.32 1.21c-1.21,1.92 -0.73,3.81 -0.73,6.14 2.83,0 5.67,0 8.59,0 0.3,-3.44 0.3,-3.44 -1.03,-6.44 -1.02,-0.65 -2.05,-0.79 -3.24,-0.78 -0.13,0 -0.25,0 -0.38,0 -1.23,0.03 -2.33,0.14 -3.21,1.08zm60.11 0c-1.21,1.92 -0.73,3.81 -0.73,6.14 2.83,0 5.67,0 8.59,0 0.3,-3.44 0.3,-3.44 -1.03,-6.44 -1.02,-0.65 -2.05,-0.79 -3.24,-0.78 -0.13,0 -0.25,0 -0.38,0 -1.23,0.03 -2.33,0.14 -3.21,1.08z"/>
   <path class="fil0" d="M42.32 20.7c1.9,1.48 3.59,3.44 3.94,5.92 0.19,2.92 -0.1,5.34 -1.97,7.71 -0.51,0.51 -1.04,0.98 -1.61,1.43 0.17,0.04 0.35,0.08 0.52,0.13 3.18,0.79 5.59,2.19 7.35,5.07 0.35,0.76 0.65,1.53 0.89,2.33 0.03,0.1 0.06,0.2 0.1,0.31 0.11,0.57 0.1,1.14 0.1,1.72 0,0.13 0,0.26 0,0.4 0,0.43 0,0.86 -0,1.3 0,0.3 -0,0.6 -0,0.9 0,0.79 -0,1.58 -0,2.37 -0,0.81 -0,1.61 -0,2.42 -0,1.58 -0.01,3.16 -0.01,4.74 -0.94,0 -1.89,0 -2.86,0 -0,-0.34 -0.01,-0.67 -0.01,-1.02 -0.01,-1.12 -0.03,-2.24 -0.04,-3.36 -0.01,-0.68 -0.02,-1.36 -0.02,-2.03 -0.01,-0.66 -0.02,-1.31 -0.03,-1.97 -0,-0.25 -0.01,-0.5 -0.01,-0.75 -0.02,-2.67 -0.19,-5.27 -2.06,-7.35 -2.06,-1.86 -4.5,-2.02 -7.13,-1.99 0.06,0.23 0.13,0.45 0.2,0.69 0.24,0.84 0.48,1.69 0.72,2.53 0.1,0.36 0.21,0.73 0.31,1.09 0.15,0.53 0.3,1.05 0.45,1.58 0.05,0.16 0.09,0.32 0.14,0.49 0.32,1.16 0.6,2.2 0.06,3.34 -0.13,0.18 -0.25,0.35 -0.38,0.53 -0.07,0.1 -0.13,0.19 -0.2,0.29 -0.21,0.3 -0.42,0.6 -0.64,0.9 -0.14,0.2 -0.28,0.41 -0.43,0.61 -1.22,1.76 -1.22,1.76 -1.67,2.11 -0.98,0.13 -0.98,0.13 -1.43,0 -0.95,-0.77 -1.59,-1.83 -2.28,-2.83 -0.12,-0.17 -0.24,-0.34 -0.37,-0.52 -0.12,-0.17 -0.23,-0.34 -0.35,-0.51 -0.11,-0.15 -0.21,-0.3 -0.32,-0.46 -0.67,-1.35 -0.37,-2.44 0.06,-3.81 0.05,-0.17 0.1,-0.35 0.16,-0.52 0.17,-0.55 0.33,-1.1 0.5,-1.64 0.11,-0.37 0.23,-0.75 0.34,-1.12 0.28,-0.91 0.55,-1.82 0.84,-2.73 -2.63,-0.02 -5.07,0.14 -7.13,1.99 -1.96,2.19 -2.04,4.93 -2.06,7.72 -0,0.25 -0.01,0.51 -0.01,0.76 -0.01,0.66 -0.02,1.32 -0.02,1.98 -0.01,0.68 -0.02,1.36 -0.02,2.03 -0.02,1.32 -0.03,2.65 -0.05,3.97 -0.94,0 -1.89,0 -2.86,0 -0.02,-1.71 -0.04,-3.41 -0.05,-5.12 -0,-0.79 -0.01,-1.59 -0.02,-2.38 -0.01,-0.77 -0.01,-1.53 -0.02,-2.3 -0,-0.29 -0.01,-0.58 -0.01,-0.87 -0.04,-2.77 0.45,-5.05 2.24,-7.26 0.08,-0.11 0.15,-0.22 0.23,-0.33 1.53,-2.07 4.15,-2.97 6.57,-3.43 -0.17,-0.14 -0.17,-0.14 -0.35,-0.28 -1.78,-1.5 -3.01,-3.39 -3.28,-5.74 -0.03,-0.47 -0.03,-0.94 -0.03,-1.41 0,-0.16 0,-0.33 0.01,-0.5 0.03,-1.24 0.2,-2.26 0.79,-3.37 0.11,-0.23 0.11,-0.23 0.23,-0.46 1.25,-2.29 3.07,-3.63 5.51,-4.42 2.54,-0.69 5.28,-0.34 7.5,1.11zm-9.22 3.31c-1.43,1.53 -1.8,3.09 -1.75,5.13 0.07,0.91 0.28,1.55 0.77,2.32 0.12,0.19 0.12,0.19 0.24,0.38 0.85,1.24 2.01,2.19 3.51,2.48 1.59,0.14 3.08,0.18 4.47,-0.72 0.13,-0.08 0.25,-0.16 0.38,-0.24 1.24,-0.86 2.18,-2.01 2.48,-3.52 0.14,-1.6 0.18,-3.09 -0.72,-4.48 -0.11,-0.19 -0.11,-0.19 -0.23,-0.38 -0.93,-1.38 -2.26,-2.24 -3.89,-2.56 -1.93,-0.3 -3.82,0.29 -5.28,1.59zm4.03 19.28c-0.21,0.62 -0.41,1.24 -0.6,1.87 -0.06,0.17 -0.12,0.35 -0.18,0.53 -0.31,1.02 -0.31,1.02 -0.09,2.03 0.27,0.42 0.52,0.78 0.88,1.12 0.38,0.04 0.38,0.04 0.67,-0.26 0.42,-0.53 0.61,-0.87 0.77,-1.53 -0.16,-1.29 -0.63,-2.54 -1.07,-3.76 -0.12,0 -0.24,0 -0.36,0z"/>
   <path class="fil0" d="M37.66 0c0.53,0.12 0.73,0.39 1.08,0.8 0.19,0.43 0.19,0.43 0.34,0.91 0.67,1.96 0.67,1.96 2.14,3.28 1.14,0.3 2.3,0.39 3.48,0.41 0.58,0.08 0.91,0.26 1.38,0.6 0.36,0.54 0.36,0.54 0.37,1.11 -0.37,1.34 -1.49,2.2 -2.53,3.06 -0.11,0.1 -0.22,0.21 -0.34,0.31 -0.14,0.12 -0.28,0.24 -0.42,0.36 -0.48,0.87 -0.18,1.65 0.03,2.59 0.48,2.26 0.48,2.26 0.21,3.15 -0.28,0.43 -0.28,0.43 -0.72,0.72 -1.54,0.2 -2.54,-0.54 -3.83,-1.3 -0.91,-0.54 -0.91,-0.54 -1.92,-0.6 -0.17,0.09 -0.34,0.19 -0.51,0.29 -0.11,0.06 -0.22,0.12 -0.33,0.18 -0.49,0.28 -0.97,0.57 -1.46,0.86 -0.77,0.46 -1.41,0.71 -2.33,0.75 -0.53,-0.24 -0.81,-0.37 -1.07,-0.9 -0.04,-0.35 -0.04,-0.35 -0.04,-0.8 -0.01,-0.27 -0.01,-0.27 -0.01,-0.54 0.05,-0.54 0.13,-0.91 0.3,-1.41 0.27,-0.89 0.51,-1.71 0.3,-2.64 -0.79,-1.22 -1.94,-2.15 -3.06,-3.05 -0.4,-0.42 -0.48,-0.68 -0.52,-1.26 0.19,-0.72 0.44,-1.05 1.07,-1.43 0.47,-0.06 0.47,-0.06 1.01,-0.06 2.22,-0.03 2.22,-0.03 4.06,-1.11 0.68,-1.07 1.14,-2.23 1.54,-3.43 0.36,-0.84 0.95,-0.83 1.79,-0.87zm-0.35 5.1c-0.32,0.54 -0.62,1.09 -0.92,1.65 -0.35,0.52 -0.47,0.68 -1.05,0.86 -0.4,0.08 -0.8,0.15 -1.21,0.2 -0.21,0.03 -0.42,0.06 -0.64,0.09 -0.16,0.02 -0.32,0.04 -0.48,0.07 0.13,0.13 0.26,0.25 0.39,0.38 0.17,0.17 0.34,0.34 0.5,0.51 0.16,0.16 0.31,0.31 0.47,0.47 0.57,0.69 0.52,1.34 0.48,2.2 -0.01,0.21 -0.01,0.21 -0.01,0.43 -0.01,0.34 -0.03,0.69 -0.04,1.03 0.12,-0.07 0.24,-0.13 0.37,-0.2 1.13,-0.57 1.97,-0.9 3.21,-0.51 0.5,0.21 0.95,0.45 1.43,0.72 -0.01,-0.21 -0.02,-0.41 -0.03,-0.63 -0.01,-0.28 -0.02,-0.55 -0.02,-0.83 -0.01,-0.2 -0.01,-0.2 -0.02,-0.41 -0.02,-0.77 0.02,-1.1 0.47,-1.76 0.16,-0.16 0.33,-0.33 0.5,-0.49 0.08,-0.09 0.17,-0.17 0.26,-0.27 0.21,-0.21 0.42,-0.42 0.64,-0.63 -0.2,-0.02 -0.39,-0.04 -0.6,-0.07 -2.04,-0.28 -2.04,-0.28 -2.64,-0.79 -0.22,-0.37 -0.38,-0.71 -0.52,-1.11 -0.08,-0.18 -0.16,-0.36 -0.24,-0.54 -0.06,-0.18 -0.06,-0.18 -0.12,-0.36 -0.06,0 -0.12,0 -0.18,0z"/>
   <path class="fil0" d="M11.73 48.31c0.69,0.27 1.03,0.68 1.48,1.25 0.13,0.16 0.25,0.32 0.38,0.48 0.29,0.41 0.29,0.41 0.29,0.77 -0.35,0.3 -0.71,0.58 -1.07,0.86 -0.75,0.57 -1.49,1.15 -2.21,1.76 -0.13,0.11 -0.26,0.22 -0.39,0.33 -0.25,0.21 -0.5,0.42 -0.74,0.64 -0.11,0.1 -0.23,0.19 -0.35,0.29 -0.1,0.09 -0.2,0.17 -0.3,0.26 -0.3,0.16 -0.3,0.16 -0.68,0.12 -0.52,-0.21 -0.77,-0.57 -1.11,-1 -0.13,-0.16 -0.26,-0.31 -0.39,-0.48 -0.27,-0.46 -0.27,-0.46 -0.29,-0.82 0.31,-0.56 0.79,-0.88 1.29,-1.25 0.23,-0.17 0.45,-0.35 0.68,-0.52 0.12,-0.09 0.24,-0.18 0.36,-0.27 0.63,-0.48 1.25,-0.98 1.87,-1.48 0.23,-0.18 0.46,-0.37 0.69,-0.55 0.16,-0.13 0.33,-0.27 0.5,-0.4z"/>
   <path class="fil0" d="M66.29 22.49c0.69,0.27 1.03,0.69 1.48,1.28 0.13,0.16 0.25,0.33 0.38,0.49 0.09,0.13 0.19,0.25 0.29,0.38 -0.63,0.64 -1.28,1.25 -1.97,1.83 -0.1,0.08 -0.2,0.17 -0.3,0.25 -1.07,0.89 -2.17,1.74 -3.28,2.58 -0.69,-0.27 -1.03,-0.69 -1.48,-1.28 -0.13,-0.16 -0.25,-0.33 -0.38,-0.49 -0.09,-0.13 -0.19,-0.25 -0.29,-0.38 0.54,-0.73 1.15,-1.28 1.87,-1.83 0.11,-0.08 0.22,-0.17 0.33,-0.25 0.34,-0.26 0.68,-0.53 1.03,-0.79 0.23,-0.18 0.45,-0.35 0.68,-0.53 0.55,-0.42 1.09,-0.84 1.64,-1.27z"/>
   <path class="fil0" d="M7.97 22.49c0.96,0.28 1.62,0.91 2.36,1.55 0.27,0.23 0.54,0.46 0.81,0.68 0.19,0.16 0.19,0.16 0.4,0.33 0.61,0.51 1.24,0.99 1.87,1.46 0.09,0.09 0.19,0.18 0.28,0.28 0,0.7 -0.24,0.92 -0.67,1.47 -0.13,0.16 -0.25,0.32 -0.38,0.49 -0.38,0.37 -0.38,0.37 -1.1,0.37 -0.4,-0.27 -0.76,-0.55 -1.13,-0.85 -0.11,-0.09 -0.21,-0.17 -0.33,-0.26 -0.23,-0.19 -0.46,-0.37 -0.69,-0.56 -0.5,-0.41 -1,-0.8 -1.5,-1.2 -0.52,-0.41 -1.03,-0.83 -1.55,-1.24 0.15,-0.71 0.44,-1.1 0.9,-1.66 0.13,-0.16 0.26,-0.32 0.4,-0.48 0.1,-0.12 0.2,-0.24 0.31,-0.37z"/>
   <path class="fil0" d="M62.53 48.31c0.96,0.28 1.62,0.91 2.36,1.55 0.27,0.23 0.54,0.46 0.81,0.68 0.19,0.16 0.19,0.16 0.4,0.33 0.61,0.51 1.24,0.99 1.87,1.46 0.09,0.09 0.19,0.18 0.28,0.28 0,0.75 -0.33,0.99 -0.8,1.56 -0.15,0.18 -0.3,0.36 -0.45,0.54 -0.12,0.14 -0.23,0.27 -0.35,0.41 -0.79,-0.26 -1.34,-0.7 -1.96,-1.24 -0.87,-0.76 -1.75,-1.49 -2.66,-2.2 -0.11,-0.09 -0.22,-0.17 -0.33,-0.26 -0.26,-0.2 -0.52,-0.4 -0.77,-0.6 0.1,-0.71 0.46,-1.11 0.91,-1.66 0.13,-0.16 0.26,-0.32 0.4,-0.48 0.1,-0.12 0.2,-0.24 0.31,-0.37z"/>
   <path class="fil0" d="M64.5 37.37c2.36,0 4.72,0 7.16,0 0,0.95 0,1.89 0,2.87 -2.36,0 -4.72,0 -7.16,0 0,-0.95 0,-1.89 0,-2.87z"/>
   <path class="fil0" d="M2.96 37.37c2.36,0 4.72,0 7.16,0 0,0.95 0,1.89 0,2.87 -2.36,0 -4.72,0 -7.16,0 0,-0.95 0,-1.89 0,-2.87z"/>
  </g>
 </g>
</svg>
