<?xml version="1.0" encoding="UTF-8"?>
<!DOCTYPE svg PUBLIC "-//W3C//DTD SVG 1.1//EN" "http://www.w3.org/Graphics/SVG/1.1/DTD/svg11.dtd">
<!-- Creator: CorelDRAW 2021 (64-Bit) -->
<svg xmlns="http://www.w3.org/2000/svg" xml:space="preserve" width="0.146177in" height="0.136594in" version="1.1" style="shape-rendering:geometricPrecision; text-rendering:geometricPrecision; image-rendering:optimizeQuality; fill-rule:evenodd; clip-rule:evenodd"
viewBox="0 0 10.66 9.96"
 xmlns:xlink="http://www.w3.org/1999/xlink"
 xmlns:xodm="http://www.corel.com/coreldraw/odm/2003">
 <defs>
  <style type="text/css">
   <![CDATA[
    .fil0 {fill:#ffa602;fill-rule:nonzero}
   ]]>
  </style>
 </defs>
 <g id="Layer_x0020_1">
  <metadata id="CorelCorpID_0Corel-Layer"/>
  <g id="_2220301439200">
   <g id="surface1">
    <path class="fil0" d="M2.51 0c-0.13,0.01 -0.22,0.13 -0.21,0.25 0.01,0.13 0.13,0.22 0.25,0.21l1.52 0 -4 4c-0.09,0.09 -0.09,0.24 0,0.33 0.09,0.09 0.24,0.09 0.33,0l4 -4 0 1.52c-0,0.08 0.04,0.16 0.12,0.2 0.07,0.04 0.16,0.04 0.23,0 0.07,-0.04 0.12,-0.12 0.11,-0.2l0 -2.32 -2.32 0c-0.01,0 -0.01,0 -0.02,0 -0.01,0 -0.01,0 -0.02,0zm4.91 0.93l0 9.04 3.24 0 0 -9.04 -3.24 0zm0.46 0.46l2.32 0 0 8.11 -2.32 0 0 -8.11zm-4.17 2.55l0 6.02 3.24 0 0 -6.02 -3.24 0zm0.46 0.46l2.32 0 0 5.1 -2.32 0 0 -5.1zm-4.17 2.09l0 3.48 3.24 0 0 -3.48 -3.24 0zm0.46 0.46l2.32 0 0 2.55 -2.32 0 0 -2.55z"/>
   </g>
  </g>
 </g>
</svg>
