<?xml version="1.0" encoding="UTF-8"?>
<!DOCTYPE svg PUBLIC "-//W3C//DTD SVG 1.1//EN" "http://www.w3.org/Graphics/SVG/1.1/DTD/svg11.dtd">
<!-- Creator: CorelDRAW 2021 (64-Bit) -->
<svg xmlns="http://www.w3.org/2000/svg" xml:space="preserve" width="1.00906in" height="0.722362in" version="1.1" style="shape-rendering:geometricPrecision; text-rendering:geometricPrecision; image-rendering:optimizeQuality; fill-rule:evenodd; clip-rule:evenodd"
viewBox="0 0 83.95 60.1"
 xmlns:xlink="http://www.w3.org/1999/xlink"
 xmlns:xodm="http://www.corel.com/coreldraw/odm/2003">
 <defs>
  <style type="text/css">
   <![CDATA[
    .fil0 {fill:#25baff;fill-rule:nonzero}
   ]]>
  </style>
 </defs>
 <g id="Layer_x0020_1">
  <metadata id="CorelCorpID_0Corel-Layer"/>
  <g id="_2901632867360">
   <g id="surface1">
    <path class="fil0" d="M28.48 0c-5.76,0 -10.49,4.74 -10.49,10.52 0,5.78 4.73,10.52 10.49,10.52 5.76,0 10.49,-4.74 10.49,-10.52 0,-5.78 -4.73,-10.52 -10.49,-10.52zm26.99 0c-5.76,0 -10.49,4.74 -10.49,10.52 0,5.78 4.73,10.52 10.49,10.52 5.76,0 10.49,-4.74 10.49,-10.52 0,-5.78 -4.73,-10.52 -10.49,-10.52zm-26.99 6.01c2.52,0 4.5,1.98 4.5,4.51 0,2.52 -1.98,4.51 -4.5,4.51 -2.52,0 -4.5,-1.98 -4.5,-4.51 0,-2.52 1.98,-4.51 4.5,-4.51zm26.99 0c2.52,0 4.5,1.98 4.5,4.51 0,2.52 -1.98,4.51 -4.5,4.51 -2.52,0 -4.5,-1.98 -4.5,-4.51 0,-2.52 1.98,-4.51 4.5,-4.51zm-40.48 12.02c-6.59,0 -11.99,5.41 -11.99,12.02 0,3.35 1.43,6.36 3.65,8.55 -3.99,2.71 -6.65,7.32 -6.65,12.49l6 0c0,-5.01 3.99,-9.02 9,-9.02 5,0 9,4 9,9.02l6 0c0,-5.17 -2.66,-9.78 -6.65,-12.49 2.23,-2.18 3.65,-5.2 3.65,-8.55 0,-6.61 -5.4,-12.02 -11.99,-12.02zm14.99 33.06c-1.87,2.51 -3,5.67 -3,9.02l6 0c0,-5.01 3.99,-9.02 9,-9.02 5,0 9,4 9,9.02l6 0c0,-3.35 -1.12,-6.5 -3,-9.02 -1.02,-1.36 -2.25,-2.52 -3.65,-3.47 2.23,-2.18 3.65,-5.2 3.65,-8.55 0,-6.61 -5.4,-12.02 -11.99,-12.02 -6.59,0 -11.99,5.41 -11.99,12.02 0,3.35 1.43,6.36 3.65,8.55 -1.41,0.95 -2.64,2.11 -3.65,3.47zm23.99 0l6 0c0,-5.01 3.99,-9.02 9,-9.02 5,0 9,4 9,9.02l6 0c0,-5.17 -2.66,-9.78 -6.65,-12.49 2.23,-2.18 3.65,-5.2 3.65,-8.55 0,-6.61 -5.4,-12.02 -11.99,-12.02 -6.59,0 -11.99,5.41 -11.99,12.02 0,3.35 1.43,6.36 3.65,8.55 -3.99,2.71 -6.65,7.32 -6.65,12.49zm-38.98 -27.05c3.35,0 6,2.65 6,6.01 0,3.36 -2.65,6.01 -6,6.01 -3.35,0 -6,-2.65 -6,-6.01 0,-3.36 2.65,-6.01 6,-6.01zm53.97 0c3.35,0 6,2.65 6,6.01 0,3.36 -2.65,6.01 -6,6.01 -3.35,0 -6,-2.65 -6,-6.01 0,-3.36 2.65,-6.01 6,-6.01zm-26.99 9.02c3.35,0 6,2.65 6,6.01 0,3.36 -2.65,6.01 -6,6.01 -3.35,0 -6,-2.65 -6,-6.01 0,-3.36 2.65,-6.01 6,-6.01z"/>
   </g>
  </g>
 </g>
</svg>
