<svg xmlns="http://www.w3.org/2000/svg" xml:space="preserve" width="0.397622in" height="0.473819in" version="1.1" style="
                      shape-rendering: geometricPrecision;
                      text-rendering: geometricPrecision;
                      image-rendering: optimizeQuality;
                      fill-rule: evenodd;
                      clip-rule: evenodd;
                    " viewBox="0 0 33.99 40.5" xmlns:xlink="http://www.w3.org/1999/xlink" xmlns:xodm="http://www.corel.com/coreldraw/odm/2003">
                    <defs>
                      <style type="text/css">
                        <![CDATA[
                         .fil0 {fill:#25baff;fill-rule:nonzero}
                        ]]>
                      </style>
                    </defs>
                    <g id="Layer_x0020_1">
                      <metadata id="CorelCorpID_0Corel-Layer"></metadata>
                      <g id="entrepreneurship-ezgif.com-gif-maker.svg">
                        <path class="fil0" d="M19.12 26.12c0.59,0.46 0.98,1.14 1.14,1.87 0.07,1.2 -0.06,2.05 -0.82,3.02 -0.11,0.11 -0.22,0.22 -0.33,0.33 0.06,0.02 0.12,0.03 0.18,0.05 1.05,0.32 1.95,0.94 2.5,1.9 0,0.05 0,0.11 0,0.16 0.06,-0.04 0.12,-0.08 0.18,-0.12 0.12,-0.08 0.12,-0.08 0.24,-0.16 0.08,-0.05 0.16,-0.1 0.24,-0.16 0.22,-0.13 0.39,-0.18 0.64,-0.21 -0.04,-0.05 -0.09,-0.1 -0.13,-0.16 -0.68,-0.82 -0.87,-1.46 -0.79,-2.53 0.09,-0.66 0.48,-1.2 0.99,-1.6 0.66,-0.43 1.38,-0.63 2.17,-0.48 0.81,0.21 1.41,0.63 1.84,1.35 0.35,0.65 0.36,1.47 0.19,2.18 -0.18,0.46 -0.5,0.81 -0.84,1.16 0.05,0.02 0.1,0.04 0.15,0.07 0.54,0.25 0.99,0.55 1.4,0.99 0,0.05 0,0.11 0,0.16 0.33,-0.19 0.66,-0.37 0.98,-0.57 -0.05,-0.06 -0.05,-0.06 -0.1,-0.13 -0.04,-0.06 -0.09,-0.11 -0.13,-0.17 -0.04,-0.06 -0.09,-0.11 -0.13,-0.17 -0.38,-0.56 -0.37,-1.24 -0.29,-1.89 0.2,-0.72 0.69,-1.18 1.33,-1.54 0.71,-0.22 1.32,-0.22 2.01,0.07 0.62,0.33 0.99,0.81 1.22,1.47 0.09,0.77 0.06,1.47 -0.41,2.12 -0.08,0.08 -0.16,0.17 -0.24,0.24 0.06,0.03 0.12,0.06 0.18,0.1 0.74,0.43 1.23,0.94 1.45,1.78 0.03,0.27 0.03,0.55 0.03,0.82 0,0.08 0,0.16 0,0.24 0,0.16 0,0.33 0,0.49 0,0.25 0,0.5 0.01,0.76 0,0.16 0,0.32 0,0.48 0,0.07 0,0.15 0,0.23 0,0.07 -0,0.14 -0,0.21 0,0.06 0,0.12 0,0.19 -0.06,0.25 -0.16,0.34 -0.37,0.5 -0.22,0.04 -0.22,0.04 -0.49,0.04 -0.1,0 -0.2,0 -0.3,0 -0.11,-0 -0.21,-0 -0.32,-0 -0.11,-0 -0.22,-0 -0.33,-0 -0.29,-0 -0.57,-0 -0.86,-0.01 -0.29,-0 -0.59,-0 -0.88,-0.01 -0.57,-0 -1.15,-0.01 -1.72,-0.02 -0.01,0.08 -0.02,0.15 -0.03,0.23 -0.06,0.25 -0.06,0.25 -0.3,0.42 -0.2,0.01 -0.39,0.02 -0.6,0.02 -0.06,0 -0.12,0 -0.18,0 -0.2,0 -0.4,-0 -0.6,-0 -0.14,-0 -0.28,-0 -0.42,-0 -0.36,-0 -0.73,-0 -1.09,-0 -0.37,-0 -0.74,-0 -1.12,-0 -0.73,-0 -1.46,-0.01 -2.19,-0.01 -0.01,0.08 -0.02,0.15 -0.03,0.23 -0.06,0.25 -0.06,0.25 -0.3,0.42 -0.18,0.02 -0.18,0.02 -0.4,0.02 -0.12,0 -0.12,0 -0.25,0 -0.09,0 -0.18,0 -0.27,0 -0.1,0 -0.19,0 -0.29,0 -0.31,0 -0.63,0 -0.94,0 -0.16,0 -0.33,0 -0.49,0 -0.51,0 -1.03,0 -1.54,0 -0.53,0 -1.06,0 -1.59,0 -0.45,0 -0.91,0 -1.36,0 -0.27,0 -0.54,0 -0.81,0 -0.3,0 -0.6,0 -0.91,0 -0.09,0 -0.18,0 -0.27,0 -0.08,-0 -0.16,-0 -0.25,-0 -0.07,0 -0.14,0 -0.22,0 -0.26,-0.06 -0.36,-0.16 -0.52,-0.37 0,-0.11 0,-0.22 0,-0.33 -0.08,0 -0.15,0 -0.23,0 -0.72,0.01 -1.45,0.01 -2.17,0.01 -0.37,0 -0.74,0 -1.12,0.01 -0.36,0 -0.72,0.01 -1.08,0.01 -0.14,0 -0.27,0 -0.41,0 -0.19,0 -0.38,0 -0.58,0 -0.06,0 -0.11,0 -0.17,0 -0.27,-0 -0.41,-0.03 -0.63,-0.19 -0.13,-0.18 -0.13,-0.18 -0.13,-0.51 -0.06,0 -0.12,0 -0.18,0 -0.57,0.01 -1.14,0.01 -1.71,0.01 -0.29,0 -0.59,0 -0.88,0.01 -0.28,0 -0.57,0.01 -0.85,0.01 -0.16,0 -0.32,0 -0.48,0.01 -0.15,0 -0.15,0 -0.3,0 -0.09,0 -0.17,0 -0.26,0 -0.29,-0.05 -0.38,-0.13 -0.55,-0.37 -0.04,-0.17 -0.04,-0.17 -0.04,-0.35 -0,-0.07 -0,-0.14 -0,-0.21 0,-0.07 0,-0.15 0,-0.23 -0,-0.08 -0,-0.15 -0,-0.23 -0,-0.16 0,-0.33 0,-0.49 0,-0.25 0,-0.5 -0,-0.75 0,-0.16 0,-0.32 0,-0.48 -0,-0.07 -0,-0.15 -0,-0.22 0.01,-0.71 0.27,-1.42 0.78,-1.93 0.29,-0.21 0.59,-0.39 0.9,-0.57 -0.03,-0.04 -0.07,-0.08 -0.1,-0.13 -0.04,-0.06 -0.09,-0.11 -0.13,-0.17 -0.04,-0.06 -0.09,-0.11 -0.13,-0.17 -0.38,-0.56 -0.37,-1.24 -0.29,-1.89 0.2,-0.72 0.69,-1.18 1.33,-1.54 0.71,-0.22 1.32,-0.22 2.01,0.07 0.62,0.33 0.99,0.81 1.22,1.47 0.09,0.77 0.06,1.47 -0.41,2.12 -0.08,0.08 -0.16,0.17 -0.24,0.24 0.12,0.08 0.23,0.16 0.35,0.24 0.07,0.04 0.13,0.09 0.2,0.13 0.19,0.13 0.19,0.13 0.43,0.2 0.02,-0.05 0.04,-0.1 0.07,-0.15 0.3,-0.56 0.93,-0.82 1.48,-1.07 -0.04,-0.05 -0.09,-0.09 -0.13,-0.14 -0.64,-0.68 -0.81,-1.17 -0.81,-2.1 0.03,-0.74 0.31,-1.32 0.85,-1.83 0.62,-0.49 1.34,-0.73 2.13,-0.65 0.73,0.14 1.36,0.46 1.82,1.05 0.49,0.73 0.53,1.43 0.46,2.29 -0.14,0.58 -0.52,1.02 -0.9,1.47 0.08,0.02 0.16,0.03 0.24,0.05 0.41,0.11 0.73,0.36 1.06,0.6 0.03,-0.09 0.03,-0.09 0.06,-0.18 0.34,-0.77 1.15,-1.41 1.92,-1.72 0.23,-0.08 0.47,-0.15 0.71,-0.22 -0.04,-0.04 -0.08,-0.09 -0.13,-0.13 -0.82,-0.88 -1.05,-1.66 -1.04,-2.84 0.04,-0.92 0.49,-1.6 1.13,-2.22 1.25,-1.05 2.99,-0.96 4.27,-0.03zm-3.71 1.54c-0.34,0.49 -0.34,0.98 -0.28,1.56 0.17,0.55 0.53,0.95 1.02,1.25 0.48,0.22 1.02,0.23 1.53,0.09 0.5,-0.22 0.89,-0.64 1.13,-1.12 0.16,-0.49 0.15,-1.07 -0.05,-1.54 -0.28,-0.48 -0.73,-0.86 -1.26,-1.03 -0.93,-0.11 -1.48,0.1 -2.08,0.81zm-7.32 2.34c-0.18,0.37 -0.2,0.68 -0.13,1.09 0.19,0.39 0.42,0.63 0.82,0.82 0.41,0.07 0.72,0.05 1.09,-0.13 0.29,-0.26 0.51,-0.48 0.57,-0.88 0.02,-0.46 -0.04,-0.75 -0.36,-1.11 -0.35,-0.32 -0.65,-0.38 -1.11,-0.36 -0.4,0.06 -0.61,0.28 -0.88,0.57zm15.65 0c-0.18,0.37 -0.2,0.68 -0.13,1.09 0.19,0.39 0.42,0.63 0.82,0.82 0.41,0.07 0.72,0.05 1.09,-0.13 0.29,-0.26 0.51,-0.48 0.57,-0.88 0.02,-0.46 -0.04,-0.75 -0.36,-1.11 -0.35,-0.32 -0.65,-0.38 -1.11,-0.36 -0.4,0.06 -0.61,0.28 -0.88,0.57zm-21.24 1.17c-0.13,0.26 -0.13,0.53 -0.08,0.81 0.14,0.25 0.31,0.44 0.57,0.57 0.42,0.05 0.42,0.05 0.8,-0.09 0.31,-0.26 0.41,-0.39 0.45,-0.79 -0,-0.27 -0.05,-0.42 -0.22,-0.63 -0.29,-0.28 -0.45,-0.32 -0.86,-0.32 -0.3,0.05 -0.45,0.22 -0.66,0.44zm27.38 0c-0.13,0.26 -0.13,0.53 -0.08,0.81 0.14,0.25 0.31,0.44 0.57,0.57 0.42,0.05 0.42,0.05 0.8,-0.09 0.31,-0.26 0.41,-0.39 0.45,-0.79 -0,-0.27 -0.05,-0.42 -0.22,-0.63 -0.29,-0.28 -0.45,-0.32 -0.86,-0.32 -0.3,0.05 -0.45,0.22 -0.66,0.44zm-16.17 2.38c-1.15,1.48 -0.62,4.17 -0.62,5.6 2.58,0 5.16,0 7.82,0 0.29,-3.03 0.29,-3.03 -0.78,-5.77 -0.81,-0.76 -1.88,-0.76 -2.93,-0.76 -0.17,0 -0.35,-0 -0.52,-0 -1.13,-0 -2.15,0.07 -2.96,0.93zm-6.57 0.96c-0.92,1.07 -0.57,2.74 -0.57,3.99 1.72,0 3.44,0 5.22,0 0.18,-2.07 0.18,-2.07 -0.57,-3.99 -1.04,-0.81 -3.03,-0.9 -4.07,0zm15.65 0c-0.92,1.07 -0.57,2.74 -0.57,3.99 1.72,0 3.44,0 5.22,0 0.18,-2.07 0.18,-2.07 -0.57,-3.99 -1.04,-0.81 -3.03,-0.9 -4.07,0zm-21.1 0.55c-0.55,0.87 -0.33,1.73 -0.33,2.79 1.29,0 2.58,0 3.91,0 0.14,-1.56 0.14,-1.56 -0.47,-2.93 -0.47,-0.3 -0.93,-0.36 -1.48,-0.36 -0.06,0 -0.11,0 -0.17,0 -0.56,0.01 -1.06,0.06 -1.46,0.49zm27.38 0c-0.55,0.87 -0.33,1.73 -0.33,2.79 1.29,0 2.58,0 3.91,0 0.14,-1.56 0.14,-1.56 -0.47,-2.93 -0.47,-0.3 -0.93,-0.36 -1.48,-0.36 -0.06,0 -0.11,0 -0.17,0 -0.56,0.01 -1.06,0.06 -1.46,0.49z"></path>
                        <path class="fil0" d="M19.28 9.41c0.86,0.67 1.64,1.57 1.79,2.69 0.09,1.33 -0.05,2.43 -0.9,3.5 -0.23,0.23 -0.48,0.45 -0.73,0.65 0.08,0.02 0.16,0.04 0.24,0.06 1.45,0.36 2.55,1 3.35,2.31 0.16,0.35 0.29,0.69 0.41,1.06 0.01,0.05 0.03,0.09 0.04,0.14 0.05,0.26 0.05,0.52 0.05,0.78 0,0.06 0,0.12 0,0.18 0,0.2 0,0.39 -0,0.59 0,0.14 -0,0.27 -0,0.41 0,0.36 -0,0.72 -0,1.08 -0,0.37 -0,0.73 -0,1.1 -0,0.72 -0,1.44 -0,2.16 -0.43,0 -0.86,0 -1.3,0 -0,-0.15 -0,-0.31 -0.01,-0.46 -0.01,-0.51 -0.01,-1.02 -0.02,-1.53 -0,-0.31 -0.01,-0.62 -0.01,-0.92 -0,-0.3 -0.01,-0.6 -0.01,-0.89 -0,-0.11 -0,-0.23 -0,-0.34 -0.01,-1.21 -0.09,-2.39 -0.94,-3.34 -0.94,-0.84 -2.05,-0.92 -3.25,-0.91 0.03,0.1 0.06,0.21 0.09,0.31 0.11,0.38 0.22,0.77 0.33,1.15 0.05,0.17 0.09,0.33 0.14,0.5 0.07,0.24 0.14,0.48 0.2,0.72 0.02,0.07 0.04,0.15 0.06,0.22 0.15,0.53 0.27,1 0.03,1.52 -0.06,0.08 -0.11,0.16 -0.17,0.24 -0.03,0.04 -0.06,0.09 -0.09,0.13 -0.1,0.14 -0.19,0.27 -0.29,0.41 -0.07,0.09 -0.13,0.19 -0.19,0.28 -0.56,0.8 -0.56,0.8 -0.76,0.96 -0.45,0.06 -0.45,0.06 -0.65,0 -0.43,-0.35 -0.73,-0.83 -1.04,-1.29 -0.06,-0.08 -0.11,-0.16 -0.17,-0.24 -0.05,-0.08 -0.11,-0.15 -0.16,-0.23 -0.05,-0.07 -0.1,-0.14 -0.15,-0.21 -0.3,-0.62 -0.17,-1.11 0.03,-1.73 0.02,-0.08 0.05,-0.16 0.07,-0.24 0.08,-0.25 0.15,-0.5 0.23,-0.75 0.05,-0.17 0.1,-0.34 0.15,-0.51 0.13,-0.41 0.25,-0.83 0.38,-1.24 -1.2,-0.01 -2.31,0.06 -3.25,0.91 -0.89,0.99 -0.93,2.24 -0.94,3.51 -0,0.12 -0,0.23 -0.01,0.35 -0,0.3 -0.01,0.6 -0.01,0.9 -0,0.31 -0.01,0.62 -0.01,0.92 -0.01,0.6 -0.01,1.2 -0.02,1.81 -0.43,0 -0.86,0 -1.3,0 -0.01,-0.78 -0.02,-1.55 -0.02,-2.33 -0,-0.36 -0,-0.72 -0.01,-1.08 -0,-0.35 -0.01,-0.7 -0.01,-1.05 -0,-0.13 -0,-0.26 -0.01,-0.4 -0.02,-1.26 0.21,-2.29 1.02,-3.3 0.03,-0.05 0.07,-0.1 0.11,-0.15 0.7,-0.94 1.89,-1.35 2.99,-1.56 -0.08,-0.06 -0.08,-0.06 -0.16,-0.13 -0.81,-0.68 -1.37,-1.54 -1.5,-2.61 -0.01,-0.21 -0.01,-0.43 -0.01,-0.64 0,-0.08 0,-0.15 0,-0.23 0.01,-0.56 0.09,-1.03 0.36,-1.53 0.05,-0.1 0.05,-0.1 0.1,-0.21 0.57,-1.04 1.4,-1.65 2.51,-2.01 1.15,-0.31 2.41,-0.15 3.42,0.51zm-4.2 1.5c-0.65,0.7 -0.82,1.41 -0.8,2.33 0.03,0.42 0.13,0.71 0.35,1.05 0.05,0.09 0.05,0.09 0.11,0.17 0.39,0.56 0.92,0.99 1.6,1.13 0.73,0.06 1.4,0.08 2.04,-0.33 0.06,-0.04 0.12,-0.07 0.17,-0.11 0.56,-0.39 0.99,-0.92 1.13,-1.6 0.06,-0.73 0.08,-1.4 -0.33,-2.04 -0.05,-0.08 -0.05,-0.08 -0.1,-0.17 -0.42,-0.63 -1.03,-1.02 -1.77,-1.16 -0.88,-0.14 -1.74,0.13 -2.41,0.72zm1.84 8.76c-0.1,0.28 -0.19,0.57 -0.28,0.85 -0.03,0.08 -0.05,0.16 -0.08,0.24 -0.14,0.46 -0.14,0.46 -0.04,0.92 0.12,0.19 0.24,0.35 0.4,0.51 0.17,0.02 0.17,0.02 0.3,-0.12 0.19,-0.24 0.28,-0.4 0.35,-0.7 -0.07,-0.59 -0.29,-1.16 -0.49,-1.71 -0.05,0 -0.11,0 -0.16,0z"></path>
                        <path class="fil0" d="M17.16 0c0.24,0.05 0.33,0.18 0.49,0.36 0.09,0.2 0.09,0.2 0.16,0.41 0.3,0.89 0.3,0.89 0.97,1.49 0.52,0.14 1.05,0.18 1.58,0.19 0.26,0.03 0.41,0.12 0.63,0.27 0.16,0.24 0.16,0.24 0.17,0.5 -0.17,0.61 -0.68,1 -1.15,1.39 -0.05,0.05 -0.1,0.09 -0.15,0.14 -0.06,0.05 -0.13,0.11 -0.19,0.16 -0.22,0.4 -0.08,0.75 0.01,1.18 0.22,1.03 0.22,1.03 0.1,1.43 -0.13,0.19 -0.13,0.19 -0.33,0.33 -0.7,0.09 -1.16,-0.25 -1.74,-0.59 -0.41,-0.25 -0.41,-0.25 -0.88,-0.27 -0.08,0.04 -0.15,0.09 -0.23,0.13 -0.05,0.03 -0.1,0.05 -0.15,0.08 -0.22,0.13 -0.44,0.26 -0.66,0.39 -0.35,0.21 -0.64,0.32 -1.06,0.34 -0.24,-0.11 -0.37,-0.17 -0.49,-0.41 -0.02,-0.16 -0.02,-0.16 -0.02,-0.36 -0,-0.12 -0,-0.12 -0,-0.24 0.02,-0.24 0.06,-0.41 0.13,-0.64 0.12,-0.41 0.23,-0.78 0.14,-1.2 -0.36,-0.55 -0.88,-0.98 -1.39,-1.38 -0.18,-0.19 -0.22,-0.31 -0.24,-0.57 0.09,-0.33 0.2,-0.48 0.49,-0.65 0.22,-0.03 0.22,-0.03 0.46,-0.03 1.01,-0.01 1.01,-0.01 1.85,-0.5 0.31,-0.49 0.52,-1.01 0.7,-1.56 0.17,-0.38 0.43,-0.38 0.81,-0.39zm-0.16 2.32c-0.14,0.25 -0.28,0.5 -0.42,0.75 -0.16,0.24 -0.22,0.31 -0.48,0.39 -0.18,0.04 -0.37,0.07 -0.55,0.09 -0.1,0.01 -0.19,0.03 -0.29,0.04 -0.07,0.01 -0.15,0.02 -0.22,0.03 0.06,0.06 0.12,0.11 0.18,0.17 0.08,0.08 0.15,0.16 0.23,0.23 0.07,0.07 0.14,0.14 0.22,0.21 0.26,0.31 0.24,0.61 0.22,1 -0,0.1 -0,0.1 -0.01,0.19 -0,0.16 -0.01,0.31 -0.02,0.47 0.06,-0.03 0.11,-0.06 0.17,-0.09 0.52,-0.26 0.9,-0.41 1.46,-0.23 0.23,0.1 0.43,0.2 0.65,0.33 -0.01,-0.09 -0.01,-0.19 -0.01,-0.29 -0,-0.13 -0.01,-0.25 -0.01,-0.38 -0,-0.09 -0,-0.09 -0.01,-0.19 -0.01,-0.35 0.01,-0.5 0.22,-0.8 0.08,-0.07 0.15,-0.15 0.23,-0.23 0.04,-0.04 0.08,-0.08 0.12,-0.12 0.1,-0.1 0.19,-0.19 0.29,-0.29 -0.09,-0.01 -0.18,-0.02 -0.27,-0.03 -0.93,-0.13 -0.93,-0.13 -1.2,-0.36 -0.1,-0.17 -0.17,-0.32 -0.24,-0.51 -0.04,-0.08 -0.07,-0.16 -0.11,-0.24 -0.03,-0.08 -0.03,-0.08 -0.06,-0.16 -0.03,0 -0.05,0 -0.08,0z"></path>
                        <path class="fil0" d="M5.34 21.96c0.31,0.12 0.47,0.31 0.67,0.57 0.06,0.07 0.11,0.14 0.17,0.22 0.13,0.19 0.13,0.19 0.13,0.35 -0.16,0.14 -0.32,0.27 -0.49,0.39 -0.34,0.26 -0.68,0.52 -1.01,0.8 -0.06,0.05 -0.12,0.1 -0.18,0.15 -0.11,0.1 -0.23,0.19 -0.34,0.29 -0.05,0.04 -0.1,0.09 -0.16,0.13 -0.05,0.04 -0.09,0.08 -0.14,0.12 -0.14,0.07 -0.14,0.07 -0.31,0.06 -0.24,-0.1 -0.35,-0.26 -0.51,-0.46 -0.06,-0.07 -0.12,-0.14 -0.18,-0.22 -0.12,-0.21 -0.12,-0.21 -0.13,-0.37 0.14,-0.25 0.36,-0.4 0.59,-0.57 0.1,-0.08 0.21,-0.16 0.31,-0.24 0.05,-0.04 0.11,-0.08 0.16,-0.12 0.29,-0.22 0.57,-0.45 0.85,-0.67 0.1,-0.08 0.21,-0.17 0.31,-0.25 0.07,-0.06 0.15,-0.12 0.23,-0.18z"></path>
                        <path class="fil0" d="M30.2 10.22c0.32,0.12 0.47,0.31 0.67,0.58 0.06,0.08 0.12,0.15 0.17,0.22 0.04,0.06 0.09,0.11 0.13,0.17 -0.29,0.29 -0.58,0.57 -0.9,0.83 -0.04,0.04 -0.09,0.08 -0.14,0.12 -0.49,0.41 -0.99,0.79 -1.49,1.17 -0.32,-0.12 -0.47,-0.31 -0.67,-0.58 -0.06,-0.08 -0.12,-0.15 -0.17,-0.22 -0.04,-0.06 -0.09,-0.11 -0.13,-0.17 0.24,-0.33 0.52,-0.58 0.85,-0.83 0.05,-0.04 0.1,-0.08 0.15,-0.12 0.16,-0.12 0.31,-0.24 0.47,-0.36 0.1,-0.08 0.21,-0.16 0.31,-0.24 0.25,-0.19 0.5,-0.38 0.75,-0.58z"></path>
                        <path class="fil0" d="M3.63 10.22c0.44,0.13 0.74,0.42 1.07,0.7 0.12,0.1 0.25,0.21 0.37,0.31 0.09,0.08 0.09,0.08 0.18,0.15 0.28,0.23 0.57,0.45 0.85,0.66 0.04,0.04 0.09,0.08 0.13,0.13 0,0.32 -0.11,0.42 -0.31,0.67 -0.06,0.07 -0.11,0.15 -0.17,0.22 -0.17,0.17 -0.17,0.17 -0.5,0.17 -0.18,-0.12 -0.35,-0.25 -0.51,-0.39 -0.05,-0.04 -0.1,-0.08 -0.15,-0.12 -0.1,-0.08 -0.21,-0.17 -0.31,-0.26 -0.23,-0.18 -0.45,-0.37 -0.68,-0.55 -0.24,-0.19 -0.47,-0.38 -0.71,-0.56 0.07,-0.32 0.2,-0.5 0.41,-0.75 0.06,-0.07 0.12,-0.15 0.18,-0.22 0.05,-0.06 0.09,-0.11 0.14,-0.17z"></path>
                        <path class="fil0" d="M28.49 21.96c0.44,0.13 0.74,0.42 1.07,0.7 0.12,0.1 0.25,0.21 0.37,0.31 0.09,0.08 0.09,0.08 0.18,0.15 0.28,0.23 0.56,0.45 0.85,0.66 0.04,0.04 0.09,0.08 0.13,0.13 0,0.34 -0.15,0.45 -0.37,0.71 -0.07,0.08 -0.14,0.16 -0.21,0.24 -0.05,0.06 -0.11,0.12 -0.16,0.19 -0.36,-0.12 -0.61,-0.32 -0.89,-0.57 -0.4,-0.34 -0.8,-0.68 -1.21,-1 -0.05,-0.04 -0.1,-0.08 -0.15,-0.12 -0.12,-0.09 -0.23,-0.18 -0.35,-0.27 0.05,-0.32 0.21,-0.51 0.41,-0.75 0.06,-0.07 0.12,-0.15 0.18,-0.22 0.05,-0.06 0.09,-0.11 0.14,-0.17z"></path>
                        <path class="fil0" d="M29.38 16.99c1.08,0 2.15,0 3.26,0 0,0.43 0,0.86 0,1.3 -1.08,0 -2.15,0 -3.26,0 0,-0.43 0,-0.86 0,-1.3z"></path>
                        <path class="fil0" d="M1.35 16.99c1.08,0 2.15,0 3.26,0 0,0.43 0,0.86 0,1.3 -1.08,0 -2.15,0 -3.26,0 0,-0.43 0,-0.86 0,-1.3z"></path>
                      </g>
                    </g>
                  </svg>