<?xml version="1.0" encoding="UTF-8"?>
<!DOCTYPE svg PUBLIC "-//W3C//DTD SVG 1.1//EN" "http://www.w3.org/Graphics/SVG/1.1/DTD/svg11.dtd">
<!-- Creator: CorelDRAW 2021 (64-Bit) -->
<svg xmlns="http://www.w3.org/2000/svg" xml:space="preserve" width="1.02098in" height="0.578929in" version="1.1" style="shape-rendering:geometricPrecision; text-rendering:geometricPrecision; image-rendering:optimizeQuality; fill-rule:evenodd; clip-rule:evenodd"
viewBox="0 0 237.67 134.77"
 xmlns:xlink="http://www.w3.org/1999/xlink"
 xmlns:xodm="http://www.corel.com/coreldraw/odm/2003">
 <defs>
  <style type="text/css">
   <![CDATA[
    .fil0 {fill:#00008F;fill-rule:nonzero}
    .fil2 {fill:#01B323;fill-rule:nonzero}
    .fil1 {fill:#CCFFCC;fill-rule:nonzero}
   ]]>
  </style>
 </defs>
 <g id="Layer_x0020_1">
  <metadata id="CorelCorpID_0Corel-Layer"/>
  <g id="_1835376507920">
   <g>
    <path class="fil0" d="M65.56 25.9c0,14.3 -11.6,25.9 -25.9,25.9 -14.3,0 -25.9,-11.6 -25.9,-25.9 0,-14.3 11.6,-25.9 25.9,-25.9 14.31,0 25.9,11.6 25.9,25.9z"/>
    <path class="fil0" d="M79.31 105.72l-79.31 0 0 -29.69c0,-14.42 11.79,-26.21 26.21,-26.21l26.89 0c14.41,0 26.21,11.8 26.21,26.21l0 29.69z"/>
    <path class="fil0" d="M144.6 25.9c0,14.3 -11.6,25.9 -25.9,25.9 -14.3,0 -25.9,-11.6 -25.9,-25.9 0,-14.3 11.6,-25.9 25.9,-25.9 14.31,0 25.9,11.6 25.9,25.9z"/>
    <path class="fil0" d="M158.36 105.72l-79.31 0 0 -29.69c0,-14.42 11.8,-26.21 26.21,-26.21l26.9 0c14.41,0 26.21,11.8 26.21,26.21l0 29.69z"/>
    <path class="fil0" d="M223.91 25.9c0,14.3 -11.6,25.9 -25.9,25.9 -14.31,0 -25.9,-11.6 -25.9,-25.9 0,-14.3 11.6,-25.9 25.9,-25.9 14.3,0 25.9,11.6 25.9,25.9z"/>
    <path class="fil0" d="M237.67 105.72l-79.31 0 0 -29.69c0,-14.42 11.79,-26.21 26.21,-26.21l26.89 0c14.41,0 26.21,11.8 26.21,26.21l0 29.69z"/>
   </g>
   <g>
    <path class="fil1" d="M129.4 54.95c0,14.3 -11.6,25.9 -25.9,25.9 -14.3,0 -25.9,-11.6 -25.9,-25.9 0,-14.3 11.6,-25.9 25.9,-25.9 14.31,0 25.9,11.6 25.9,25.9z"/>
    <path class="fil1" d="M143.15 134.77l-79.31 0 0 -29.69c0,-14.42 11.8,-26.21 26.21,-26.21l26.89 0c14.41,0 26.21,11.8 26.21,26.21l0 29.69z"/>
   </g>
   <g>
    <path class="fil2" d="M208.71 54.95c0,14.3 -11.6,25.9 -25.9,25.9 -14.31,0 -25.9,-11.6 -25.9,-25.9 0,-14.3 11.6,-25.9 25.9,-25.9 14.3,0 25.9,11.6 25.9,25.9z"/>
    <path class="fil2" d="M222.47 134.77l-79.31 0 0 -29.69c0,-14.42 11.8,-26.21 26.21,-26.21l26.89 0c14.41,0 26.21,11.8 26.21,26.21l0 29.69z"/>
   </g>
  </g>
 </g>
</svg>
