<svg
                      xmlns="http://www.w3.org/2000/svg"
                      xml:space="preserve"
                      width="0.312571in"
                      height="0.342776in"
                      version="1.1"
                      style="
                        shape-rendering: geometricPrecision;
                        text-rendering: geometricPrecision;
                        image-rendering: optimizeQuality;
                        fill-rule: evenodd;
                        clip-rule: evenodd;
                      "
                      viewBox="0 0 309.77 339.7"
                      xmlns:xlink="http://www.w3.org/1999/xlink"
                      xmlns:xodm="http://www.corel.com/coreldraw/odm/2003"
                    >
                      <g id="Layer_x0020_1">
                        <metadata id="CorelCorpID_0Corel-Layer" />
                        <g id="_1797739322144">
                          <g id="surface1">
                            <path
                              class="fil0"
                              d="M245.19 0.57c-3.44,1.07 -6.23,3.45 -7.81,6.68 0,0 -45.7,94.21 -139.7,110.78l-78.4 13.83c-12.67,2.24 -21.15,14.35 -18.92,27.02l9.77 55.44c2.24,12.67 14.35,21.15 27.02,18.92l78.41 -13.82c94,-16.57 169.17,56.32 169.17,56.32 4.01,3.94 10.13,4.8 15.08,2.14 4.94,-2.66 7.59,-8.18 6.56,-13.71l-17.87 -101.37c13.96,-2.46 23.34,-15.85 20.88,-29.81 -2.46,-13.96 -15.86,-23.34 -29.82,-20.87l-17.87 -101.37c-0.6,-3.67 -2.79,-6.86 -5.94,-8.81 -3.15,-1.94 -7.01,-2.44 -10.55,-1.35zm-3.13 47.1l33.23 188.49c-30.56,-21.66 -84.47,-51.25 -151.47,-43.93l-9.08 -51.48c65.47,-16.03 106,-62.28 127.31,-93.09zm-200.3 197.82l2.24 12.67c20.55,27.71 36.26,57.46 38.05,67.6 1.56,8.86 10.71,15.26 19.56,13.7l30.1 -5.31c13.96,-2.46 14.69,-14.53 12.51,-19.36 -1.12,-6.34 -6.46,-14.37 -16.44,-19.15 -34.19,-16.17 -40.48,-58.19 -40.48,-58.19l-45.54 8.03z"
                            />
                          </g>
                        </g>
                      </g>
                    </svg>