<?xml version="1.0" encoding="UTF-8"?>
<!DOCTYPE svg PUBLIC "-//W3C//DTD SVG 1.1//EN" "http://www.w3.org/Graphics/SVG/1.1/DTD/svg11.dtd">
<!-- Creator: CorelDRAW 2021 (64-Bit) -->
<svg xmlns="http://www.w3.org/2000/svg" xml:space="preserve" width="0.686122in" height="0.754102in" version="1.1" style="shape-rendering:geometricPrecision; text-rendering:geometricPrecision; image-rendering:optimizeQuality; fill-rule:evenodd; clip-rule:evenodd"
viewBox="0 0 679.96 747.33"
 xmlns:xlink="http://www.w3.org/1999/xlink"
 xmlns:xodm="http://www.corel.com/coreldraw/odm/2003">
 <defs>
  <style type="text/css">
   <![CDATA[
    .fil0 {fill:#00C31E;fill-rule:nonzero}
   ]]>
  </style>
 </defs>
 <g id="Layer_x0020_1">
  <metadata id="CorelCorpID_0Corel-Layer"/>
  <g id="_2901431618128">
   <g id="surface1">
    <path class="fil0" d="M538.22 1.24c-7.54,2.35 -13.68,7.58 -17.13,14.71 0,0 -100.33,207.26 -306.67,243.72l-172.11 30.42c-27.82,4.92 -46.43,31.56 -41.53,59.44l21.46 121.97c4.91,27.88 31.49,46.54 59.31,41.62l172.11 -30.41c206.34,-36.46 371.34,123.91 371.34,123.91 8.81,8.66 22.25,10.55 33.1,4.71 10.84,-5.85 16.66,-17.99 14.4,-30.17l-39.24 -223.02c30.64,-5.42 51.23,-34.88 45.82,-65.59 -5.4,-30.71 -34.8,-51.34 -65.45,-45.93l-39.24 -223.02c-1.31,-8.08 -6.13,-15.09 -13.04,-19.37 -6.91,-4.28 -15.39,-5.36 -23.15,-2.98zm-6.87 103.62l72.96 414.68c-67.09,-47.65 -185.42,-112.75 -332.49,-96.64l-19.93 -113.25c143.7,-35.27 232.68,-137.01 279.46,-204.79zm-439.68 435.21l4.9 27.88c45.12,60.97 79.6,126.4 83.53,148.72 3.43,19.49 23.5,33.58 42.94,30.14l66.07 -11.67c30.64,-5.42 32.24,-31.98 27.46,-42.58 -2.45,-13.94 -14.19,-31.63 -36.09,-42.13 -75.04,-35.58 -88.85,-128.02 -88.85,-128.02l-99.96 17.67z"/>
   </g>
  </g>
 </g>
</svg>
