<?xml version="1.0" encoding="UTF-8"?>
<!DOCTYPE svg PUBLIC "-//W3C//DTD SVG 1.1//EN" "http://www.w3.org/Graphics/SVG/1.1/DTD/svg11.dtd">
<svg xmlns="http://www.w3.org/2000/svg" version="1.1" width="370px" height="370px" style="shape-rendering:geometricPrecision; text-rendering:geometricPrecision; image-rendering:optimizeQuality; fill-rule:evenodd; clip-rule:evenodd" xmlns:xlink="http://www.w3.org/1999/xlink">
<g><path style="opacity:0.941" fill="#fefefe" d="M 94.5,10.5 C 146.834,10.3333 199.168,10.5 251.5,11C 252.333,11.8333 253.167,12.6667 254,13.5C 254.667,23.5 254.667,33.5 254,43.5C 253.167,44.3333 252.333,45.1667 251.5,46C 248.518,46.498 245.518,46.6646 242.5,46.5C 242.5,119.5 242.5,192.5 242.5,265.5C 238.5,265.5 234.5,265.5 230.5,265.5C 230.5,192.5 230.5,119.5 230.5,46.5C 192.167,46.5 153.833,46.5 115.5,46.5C 115.5,71.5 115.5,96.5 115.5,121.5C 111.5,121.5 107.5,121.5 103.5,121.5C 103.5,96.5 103.5,71.5 103.5,46.5C 100.482,46.6646 97.4816,46.498 94.5,46C 93.6667,45.1667 92.8333,44.3333 92,43.5C 91.3333,33.5 91.3333,23.5 92,13.5C 93.045,12.6266 93.8783,11.6266 94.5,10.5 Z M 104.5,23.5 C 150.167,23.5 195.833,23.5 241.5,23.5C 241.5,26.8333 241.5,30.1667 241.5,33.5C 195.833,33.5 150.167,33.5 104.5,33.5C 104.5,30.1667 104.5,26.8333 104.5,23.5 Z"/></g>
<g><path style="opacity:0.921" fill="#fdfdfd" d="M 264.5,33.5 C 268.833,33.5 273.167,33.5 277.5,33.5C 277.5,42.8333 277.5,52.1667 277.5,61.5C 281.166,61.9578 284.666,62.9578 288,64.5C 288.5,58.1754 288.666,51.8421 288.5,45.5C 292.5,45.5 296.5,45.5 300.5,45.5C 300.5,52.5 300.5,59.5 300.5,66.5C 305.09,66.5953 308.924,68.2619 312,71.5C 312.5,91.8306 312.667,112.164 312.5,132.5C 308.167,132.5 303.833,132.5 299.5,132.5C 299.667,115.163 299.5,97.8301 299,80.5C 283.597,76.7362 268.097,73.2362 252.5,70C 251.978,69.4387 251.645,68.772 251.5,68C 252.609,64.1765 253.609,60.3431 254.5,56.5C 257.877,56.9595 261.211,57.6261 264.5,58.5C 264.5,50.1667 264.5,41.8333 264.5,33.5 Z"/></g>
<g><path style="opacity:0.864" fill="#fefefe" d="M 126.5,56.5 C 134.5,56.5 142.5,56.5 150.5,56.5C 150.5,60.8333 150.5,65.1667 150.5,69.5C 142.5,69.5 134.5,69.5 126.5,69.5C 126.5,65.1667 126.5,60.8333 126.5,56.5 Z"/></g>
<g><path style="opacity:0.89" fill="#fefefe" d="M 160.5,56.5 C 168.5,56.5 176.5,56.5 184.5,56.5C 184.5,60.8333 184.5,65.1667 184.5,69.5C 176.5,69.5 168.5,69.5 160.5,69.5C 160.5,65.1667 160.5,60.8333 160.5,56.5 Z"/></g>
<g><path style="opacity:0.864" fill="#fefefe" d="M 195.5,56.5 C 203.5,56.5 211.5,56.5 219.5,56.5C 219.5,60.8333 219.5,65.1667 219.5,69.5C 211.5,69.5 203.5,69.5 195.5,69.5C 195.5,65.1667 195.5,60.8333 195.5,56.5 Z"/></g>
<g><path style="opacity:0.926" fill="#fdfdfd" d="M 126.5,79.5 C 134.5,79.5 142.5,79.5 150.5,79.5C 150.5,83.8333 150.5,88.1667 150.5,92.5C 142.5,92.5 134.5,92.5 126.5,92.5C 126.5,88.1667 126.5,83.8333 126.5,79.5 Z"/></g>
<g><path style="opacity:0.958" fill="#fdfdfd" d="M 160.5,79.5 C 168.5,79.5 176.5,79.5 184.5,79.5C 184.5,83.8333 184.5,88.1667 184.5,92.5C 176.5,92.5 168.5,92.5 160.5,92.5C 160.5,88.1667 160.5,83.8333 160.5,79.5 Z"/></g>
<g><path style="opacity:0.924" fill="#fdfdfd" d="M 195.5,79.5 C 203.5,79.5 211.5,79.5 219.5,79.5C 219.5,83.8333 219.5,88.1667 219.5,92.5C 211.5,92.5 203.5,92.5 195.5,92.5C 195.5,88.1667 195.5,83.8333 195.5,79.5 Z"/></g>
<g><path style="opacity:0.923" fill="#fdfdfd" d="M 253.5,91.5 C 257.5,91.5 261.5,91.5 265.5,91.5C 265.5,95.8333 265.5,100.167 265.5,104.5C 261.5,104.5 257.5,104.5 253.5,104.5C 253.5,100.167 253.5,95.8333 253.5,91.5 Z"/></g>
<g><path style="opacity:0.919" fill="#fbfbfb" d="M 276.5,91.5 C 280.833,91.5 285.167,91.5 289.5,91.5C 289.5,95.8333 289.5,100.167 289.5,104.5C 285.167,104.5 280.833,104.5 276.5,104.5C 276.5,100.167 276.5,95.8333 276.5,91.5 Z"/></g>
<g><path style="opacity:0.928" fill="#fefefe" d="M 126.5,103.5 C 134.5,103.5 142.5,103.5 150.5,103.5C 150.5,107.5 150.5,111.5 150.5,115.5C 142.5,115.5 134.5,115.5 126.5,115.5C 126.5,111.5 126.5,107.5 126.5,103.5 Z"/></g>
<g><path style="opacity:0.963" fill="#fefefe" d="M 160.5,103.5 C 168.5,103.5 176.5,103.5 184.5,103.5C 184.5,107.5 184.5,111.5 184.5,115.5C 176.5,115.5 168.5,115.5 160.5,115.5C 160.5,111.5 160.5,107.5 160.5,103.5 Z"/></g>
<g><path style="opacity:0.928" fill="#fefefe" d="M 195.5,103.5 C 203.5,103.5 211.5,103.5 219.5,103.5C 219.5,107.5 219.5,111.5 219.5,115.5C 211.5,115.5 203.5,115.5 195.5,115.5C 195.5,111.5 195.5,107.5 195.5,103.5 Z"/></g>
<g><path style="opacity:0.862" fill="#fefefe" d="M 253.5,114.5 C 257.5,114.5 261.5,114.5 265.5,114.5C 265.5,118.833 265.5,123.167 265.5,127.5C 261.5,127.5 257.5,127.5 253.5,127.5C 253.5,123.167 253.5,118.833 253.5,114.5 Z"/></g>
<g><path style="opacity:0.858" fill="#fcfcfc" d="M 276.5,114.5 C 280.833,114.5 285.167,114.5 289.5,114.5C 289.5,118.833 289.5,123.167 289.5,127.5C 285.167,127.5 280.833,127.5 276.5,127.5C 276.5,123.167 276.5,118.833 276.5,114.5 Z"/></g>
<g><path style="opacity:0.928" fill="#fbfbfb" d="M 74.5,123.5 C 78.5598,123.485 82.5598,123.985 86.5,125C 94.1356,128.818 101.802,132.651 109.5,136.5C 115.455,133.238 121.455,130.071 127.5,127C 151.447,118.961 162.614,127.461 161,152.5C 156.044,160.452 150.71,168.118 145,175.5C 144.333,181.5 144.333,187.5 145,193.5C 160.515,216.344 176.015,239.177 191.5,262C 188.376,264.734 185.043,267.234 181.5,269.5C 180.522,269.023 179.689,268.357 179,267.5C 164.15,245.988 149.316,224.488 134.5,203C 117.49,202.167 100.49,202.334 83.5,203.5C 64.157,230.864 45.3236,258.53 27,286.5C 19.0779,311.094 26.2446,329.594 48.5,342C 51.7735,343.202 55.1069,344.202 58.5,345C 91.165,345.5 123.832,345.667 156.5,345.5C 156.5,349.833 156.5,354.167 156.5,358.5C 123.165,358.667 89.8317,358.5 56.5,358C 23.5608,349.708 8.39413,328.542 11,294.5C 11.8302,289.677 13.1635,285.011 15,280.5C 33.9092,251.024 53.5758,222.024 74,193.5C 74.6667,187.5 74.6667,181.5 74,175.5C 69.3333,169.5 64.6667,163.5 60,157.5C 53.8708,145.787 55.7041,135.62 65.5,127C 68.4588,125.396 71.4588,124.229 74.5,123.5 Z M 76.5,136.5 C 87.4058,141.077 98.2391,145.744 109,150.5C 111.953,150.109 114.787,149.275 117.5,148C 124.933,143.534 132.767,139.701 141,136.5C 147.78,138.226 149.947,142.392 147.5,149C 143.161,154.671 138.827,160.338 134.5,166C 117.49,166.833 100.49,166.666 83.5,165.5C 79.5636,159.947 75.397,154.613 71,149.5C 68.9586,143.28 70.792,138.947 76.5,136.5 Z M 86.5,179.5 C 101.5,179.5 116.5,179.5 131.5,179.5C 131.5,182.833 131.5,186.167 131.5,189.5C 116.5,189.5 101.5,189.5 86.5,189.5C 86.5,186.167 86.5,182.833 86.5,179.5 Z"/></g>
<g><path style="opacity:0.928" fill="#fefefe" d="M 172.5,126.5 C 176.5,126.5 180.5,126.5 184.5,126.5C 184.5,130.5 184.5,134.5 184.5,138.5C 180.5,138.5 176.5,138.5 172.5,138.5C 172.5,134.5 172.5,130.5 172.5,126.5 Z"/></g>
<g><path style="opacity:0.928" fill="#fefefe" d="M 195.5,126.5 C 203.5,126.5 211.5,126.5 219.5,126.5C 219.5,130.5 219.5,134.5 219.5,138.5C 211.5,138.5 203.5,138.5 195.5,138.5C 195.5,134.5 195.5,130.5 195.5,126.5 Z"/></g>
<g><path style="opacity:0.951" fill="#fefefe" d="M 253.5,143.5 C 281.835,143.333 310.169,143.5 338.5,144C 339.333,144.833 340.167,145.667 341,146.5C 341.5,212.832 341.667,279.166 341.5,345.5C 347.167,345.5 352.833,345.5 358.5,345.5C 358.5,349.833 358.5,354.167 358.5,358.5C 331.167,358.5 303.833,358.5 276.5,358.5C 276.5,354.167 276.5,349.833 276.5,345.5C 293.833,345.5 311.167,345.5 328.5,345.5C 328.5,282.5 328.5,219.5 328.5,156.5C 303.5,156.5 278.5,156.5 253.5,156.5C 253.5,152.167 253.5,147.833 253.5,143.5 Z"/></g>
<g><path style="opacity:0.928" fill="#fefefe" d="M 172.5,149.5 C 176.5,149.5 180.5,149.5 184.5,149.5C 184.5,153.5 184.5,157.5 184.5,161.5C 180.5,161.5 176.5,161.5 172.5,161.5C 172.5,157.5 172.5,153.5 172.5,149.5 Z"/></g>
<g><path style="opacity:0.928" fill="#fefefe" d="M 195.5,149.5 C 203.5,149.5 211.5,149.5 219.5,149.5C 219.5,153.5 219.5,157.5 219.5,161.5C 211.5,161.5 203.5,161.5 195.5,161.5C 195.5,157.5 195.5,153.5 195.5,149.5 Z"/></g>
<g><path style="opacity:0.928" fill="#fefefe" d="M 172.5,172.5 C 176.5,172.5 180.5,172.5 184.5,172.5C 184.5,176.5 184.5,180.5 184.5,184.5C 180.5,184.5 176.5,184.5 172.5,184.5C 172.5,180.5 172.5,176.5 172.5,172.5 Z"/></g>
<g><path style="opacity:0.928" fill="#fefefe" d="M 195.5,172.5 C 203.5,172.5 211.5,172.5 219.5,172.5C 219.5,176.5 219.5,180.5 219.5,184.5C 211.5,184.5 203.5,184.5 195.5,184.5C 195.5,180.5 195.5,176.5 195.5,172.5 Z"/></g>
<g><path style="opacity:0.931" fill="#fefefe" d="M 259.5,172.5 C 267.5,172.5 275.5,172.5 283.5,172.5C 283.5,176.5 283.5,180.5 283.5,184.5C 275.5,184.5 267.5,184.5 259.5,184.5C 259.5,180.5 259.5,176.5 259.5,172.5 Z"/></g>
<g><path style="opacity:0.962" fill="#fefefe" d="M 293.5,172.5 C 301.5,172.5 309.5,172.5 317.5,172.5C 317.5,176.5 317.5,180.5 317.5,184.5C 309.5,184.5 301.5,184.5 293.5,184.5C 293.5,180.5 293.5,176.5 293.5,172.5 Z"/></g>
<g><path style="opacity:0.918" fill="#fefefe" d="M 172.5,195.5 C 176.5,195.5 180.5,195.5 184.5,195.5C 184.5,199.833 184.5,204.167 184.5,208.5C 180.5,208.5 176.5,208.5 172.5,208.5C 172.5,204.167 172.5,199.833 172.5,195.5 Z"/></g>
<g><path style="opacity:0.919" fill="#fefefe" d="M 195.5,195.5 C 203.5,195.5 211.5,195.5 219.5,195.5C 219.5,199.833 219.5,204.167 219.5,208.5C 211.5,208.5 203.5,208.5 195.5,208.5C 195.5,204.167 195.5,199.833 195.5,195.5 Z"/></g>
<g><path style="opacity:0.921" fill="#fefefe" d="M 259.5,195.5 C 267.5,195.5 275.5,195.5 283.5,195.5C 283.5,199.833 283.5,204.167 283.5,208.5C 275.5,208.5 267.5,208.5 259.5,208.5C 259.5,204.167 259.5,199.833 259.5,195.5 Z"/></g>
<g><path style="opacity:0.952" fill="#fdfdfd" d="M 293.5,195.5 C 301.5,195.5 309.5,195.5 317.5,195.5C 317.5,199.833 317.5,204.167 317.5,208.5C 309.5,208.5 301.5,208.5 293.5,208.5C 293.5,204.167 293.5,199.833 293.5,195.5 Z"/></g>
<g><path style="opacity:0.862" fill="#fefefe" d="M 195.5,218.5 C 203.5,218.5 211.5,218.5 219.5,218.5C 219.5,222.833 219.5,227.167 219.5,231.5C 211.5,231.5 203.5,231.5 195.5,231.5C 195.5,227.167 195.5,222.833 195.5,218.5 Z"/></g>
<g><path style="opacity:0.862" fill="#fefefe" d="M 259.5,218.5 C 267.5,218.5 275.5,218.5 283.5,218.5C 283.5,222.833 283.5,227.167 283.5,231.5C 275.5,231.5 267.5,231.5 259.5,231.5C 259.5,227.167 259.5,222.833 259.5,218.5 Z"/></g>
<g><path style="opacity:0.888" fill="#fefefe" d="M 293.5,218.5 C 301.5,218.5 309.5,218.5 317.5,218.5C 317.5,222.833 317.5,227.167 317.5,231.5C 309.5,231.5 301.5,231.5 293.5,231.5C 293.5,227.167 293.5,222.833 293.5,218.5 Z"/></g>
<g><path style="opacity:0.864" fill="#fefefe" d="M 259.5,241.5 C 267.5,241.5 275.5,241.5 283.5,241.5C 283.5,245.833 283.5,250.167 283.5,254.5C 275.5,254.5 267.5,254.5 259.5,254.5C 259.5,250.167 259.5,245.833 259.5,241.5 Z"/></g>
<g><path style="opacity:0.888" fill="#fefefe" d="M 293.5,241.5 C 301.5,241.5 309.5,241.5 317.5,241.5C 317.5,245.833 317.5,250.167 317.5,254.5C 309.5,254.5 301.5,254.5 293.5,254.5C 293.5,250.167 293.5,245.833 293.5,241.5 Z"/></g>
<g><path style="opacity:0.931" fill="#fafafa" d="M 103.5,247.5 C 107.5,247.5 111.5,247.5 115.5,247.5C 115.5,249.833 115.5,252.167 115.5,254.5C 124.1,256.786 128.1,262.453 127.5,271.5C 123.154,271.666 118.821,271.499 114.5,271C 112.357,266.238 109.19,265.405 105,268.5C 104.333,269.833 104.333,271.167 105,272.5C 109.931,275.704 115.097,278.538 120.5,281C 128.338,288.525 129.504,297.025 124,306.5C 121.93,308.787 119.43,310.453 116.5,311.5C 115.534,313.396 115.201,315.396 115.5,317.5C 111.5,317.5 107.5,317.5 103.5,317.5C 104.288,312.696 102.288,309.863 97.5,309C 92.8531,304.898 90.8531,299.731 91.5,293.5C 95.8333,293.5 100.167,293.5 104.5,293.5C 105.44,298.711 108.44,300.378 113.5,298.5C 113.662,296.473 113.495,294.473 113,292.5C 106.266,289.045 99.9328,285.045 94,280.5C 89.2351,270.42 91.0684,261.92 99.5,255C 100.793,254.51 102.127,254.343 103.5,254.5C 103.5,252.167 103.5,249.833 103.5,247.5 Z"/></g>
<g><path style="opacity:0.957" fill="#fdfdfd" d="M 293.5,264.5 C 301.5,264.5 309.5,264.5 317.5,264.5C 317.5,268.833 317.5,273.167 317.5,277.5C 309.5,277.5 301.5,277.5 293.5,277.5C 293.5,273.167 293.5,268.833 293.5,264.5 Z"/></g>
<g><path style="opacity:0.923" fill="#fdfdfd" d="M 68.5,276.5 C 72.5,276.5 76.5,276.5 80.5,276.5C 80.5,280.833 80.5,285.167 80.5,289.5C 76.5,289.5 72.5,289.5 68.5,289.5C 68.5,285.167 68.5,280.833 68.5,276.5 Z"/></g>
<g><path style="opacity:0.862" fill="#fcfcfc" d="M 137.5,276.5 C 141.833,276.5 146.167,276.5 150.5,276.5C 150.5,280.833 150.5,285.167 150.5,289.5C 146.167,289.5 141.833,289.5 137.5,289.5C 137.5,285.167 137.5,280.833 137.5,276.5 Z"/></g>
<g><path style="opacity:0.928" fill="#fcfcfc" d="M 178.5,276.5 C 205.502,276.333 232.502,276.5 259.5,277C 269.758,281.057 273.591,288.557 271,299.5C 269.491,305.698 265.657,309.865 259.5,312C 260.833,315.667 260.833,319.333 259.5,323C 269.925,327.43 273.758,335.263 271,346.5C 269.193,352.307 265.36,356.141 259.5,358C 232.833,358.667 206.167,358.667 179.5,358C 168.626,353.918 164.626,346.252 167.5,335C 155.911,330.222 152.077,321.722 156,309.5C 158.641,304.856 162.475,301.689 167.5,300C 164.845,289.146 168.512,281.312 178.5,276.5 Z M 182.5,289.5 C 206.836,289.333 231.169,289.5 255.5,290C 259.898,294.076 259.232,297.076 253.5,299C 230.5,299.667 207.5,299.667 184.5,299C 178.698,296.957 178.031,293.79 182.5,289.5 Z M 171.5,312.5 C 195.836,312.333 220.169,312.5 244.5,313C 247.167,316 247.167,319 244.5,322C 220.167,322.667 195.833,322.667 171.5,322C 167.581,318.84 167.581,315.673 171.5,312.5 Z M 184.5,335.5 C 207.836,335.333 231.169,335.5 254.5,336C 259.364,338.464 259.697,341.464 255.5,345C 231.167,345.667 206.833,345.667 182.5,345C 178.192,340.735 178.859,337.568 184.5,335.5 Z"/></g>
<g><path style="opacity:0.962" fill="#fefefe" d="M 293.5,288.5 C 301.5,288.5 309.5,288.5 317.5,288.5C 317.5,292.5 317.5,296.5 317.5,300.5C 309.5,300.5 301.5,300.5 293.5,300.5C 293.5,296.5 293.5,292.5 293.5,288.5 Z"/></g>
<g><path style="opacity:0.962" fill="#fefefe" d="M 293.5,311.5 C 301.5,311.5 309.5,311.5 317.5,311.5C 317.5,315.5 317.5,319.5 317.5,323.5C 309.5,323.5 301.5,323.5 293.5,323.5C 293.5,319.5 293.5,315.5 293.5,311.5 Z"/></g>
</svg>
