<?xml version="1.0" encoding="UTF-8"?>
<!DOCTYPE svg PUBLIC "-//W3C//DTD SVG 1.1//EN" "http://www.w3.org/Graphics/SVG/1.1/DTD/svg11.dtd">
<!-- Creator: CorelDRAW 2021 (64-Bit) -->
<svg xmlns="http://www.w3.org/2000/svg" xml:space="preserve" width="1.31582in" height="1.35237in" version="1.1" style="shape-rendering:geometricPrecision; text-rendering:geometricPrecision; image-rendering:optimizeQuality; fill-rule:evenodd; clip-rule:evenodd"
viewBox="0 0 215.98 221.98"
 xmlns:xlink="http://www.w3.org/1999/xlink"
 xmlns:xodm="http://www.corel.com/coreldraw/odm/2003">
 <defs>
  <style type="text/css">
   <![CDATA[
    .str0 {stroke:#00008F;stroke-width:2.85;stroke-linecap:round;stroke-miterlimit:2.61313}
    .str1 {stroke:#00B425;stroke-width:2.85;stroke-linecap:round;stroke-miterlimit:2.61313}
    .fil2 {fill:none;fill-rule:nonzero}
    .fil1 {fill:#00008F;fill-rule:nonzero}
    .fil3 {fill:#00B425;fill-rule:nonzero}
    .fil4 {fill:#CCFFCC;fill-rule:nonzero}
    .fil0 {fill:#E6FAFF;fill-rule:nonzero}
   ]]>
  </style>
 </defs>
 <g id="Layer_x0020_1">
  <metadata id="CorelCorpID_0Corel-Layer"/>
  <g id="_2737628444384">
   <polygon class="fil0" points="3,164.99 3,21 21,21 21,9 98.99,9 98.99,21 116.99,21 116.99,164.99 "/>
   <g>
    <path class="fil1" d="M95.99 12l0 12 18 0 0 137.99 -107.99 0 0 -137.99 18 0 0 -12 71.99 0 0 0zm6 -6l-83.99 0 0 12 -18 0 0 149.99 119.99 0 0 -149.99 -18 0 0 -12z"/>
   </g>
   <path class="fil2 str0" d="M60 206.98l-27 0c-6.64,0 -12,-5.36 -12,-12l0 -12"/>
   <path class="fil2 str1" d="M149.99 15l27 0c6.64,0 12,5.36 12,12l0 18"/>
   <polygon class="fil3" points="155.99,0 155.99,30 137.86,15 "/>
   <polygon class="fil1" points="53.86,221.98 53.86,191.99 71.99,206.98 "/>
   <path class="fil1" d="M18 48l18 0 0 -12 -18 0 0 12zm30 0l24 0 0 -12 -24 0 0 12zm36 -12l0 12 18 0 0 -12 -18 0z"/>
   <path class="fil1" d="M18 71.99l18 0 0 -12 -18 0 0 12zm30 0l24 0 0 -12 -24 0 0 12zm36 -12l0 12 18 0 0 -12 -18 0z"/>
   <path class="fil1" d="M18 95.99l18 0 0 -12 -18 0 0 12zm30 0l24 0 0 -12 -24 0 0 12zm36 -12l0 12 18 0 0 -12 -18 0z"/>
   <path class="fil1" d="M18 119.99l18 0 0 -12 -18 0 0 12zm30 0l24 0 0 -12 -24 0 0 12zm36 -12l0 12 18 0 0 -12 -18 0z"/>
   <path class="fil1" d="M18 143.99l18 0 0 -12 -18 0 0 12zm30 0l24 0 0 -12 -24 0 0 12zm36 -12l0 12 18 0 0 -12 -18 0z"/>
   <polygon class="fil4" points="98.99,218.98 98.99,74.99 116.99,74.99 116.99,62.99 194.98,62.99 194.98,74.99 212.98,74.99 212.98,218.98 "/>
   <g>
    <path class="fil3" d="M191.99 65.99l0 12 18 0 0 137.99 -107.99 0 0 -137.99 18 0 0 -12 71.99 0 0 0zm6 -6l-83.99 0 0 12 -18 0 0 149.99 119.99 0 0 -149.99 -18 0 0 -12z"/>
   </g>
   <path class="fil3" d="M113.99 101.99l18 0 0 -12 -18 0 0 12zm30 0l24 0 0 -12 -24 0 0 12zm36 -12l0 12 18 0 0 -12 -18 0z"/>
   <path class="fil3" d="M113.99 125.99l18 0 0 -12 -18 0 0 12zm30 0l24 0 0 -12 -24 0 0 12zm36 -12l0 12 18 0 0 -12 -18 0z"/>
   <path class="fil3" d="M113.99 149.99l18 0 0 -12 -18 0 0 12zm30 0l24 0 0 -12 -24 0 0 12zm36 -12l0 12 18 0 0 -12 -18 0z"/>
   <path class="fil3" d="M113.99 173.99l18 0 0 -12 -18 0 0 12zm30 0l24 0 0 -12 -24 0 0 12zm36 -12l0 12 18 0 0 -12 -18 0z"/>
   <path class="fil3" d="M113.99 197.98l18 0 0 -12 -18 0 0 12zm30 0l24 0 0 -12 -24 0 0 12zm36 -12l0 12 18 0 0 -12 -18 0z"/>
  </g>
 </g>
</svg>
