<?xml version="1.0" encoding="UTF-8"?>
<!DOCTYPE svg PUBLIC "-//W3C//DTD SVG 1.1//EN" "http://www.w3.org/Graphics/SVG/1.1/DTD/svg11.dtd">
<!-- Creator: CorelDRAW 2021 (64-Bit) -->
<svg xmlns="http://www.w3.org/2000/svg" xml:space="preserve" width="0.72222in" height="0.72222in" version="1.1" style="shape-rendering:geometricPrecision; text-rendering:geometricPrecision; image-rendering:optimizeQuality; fill-rule:evenodd; clip-rule:evenodd"
viewBox="0 0 137.19 137.19"
 xmlns:xlink="http://www.w3.org/1999/xlink"
 xmlns:xodm="http://www.corel.com/coreldraw/odm/2003">
 <defs>
  <style type="text/css">
   <![CDATA[
    .fil0 {fill:white;fill-rule:nonzero}
   ]]>
  </style>
 </defs>
 <g id="Layer_x0020_1">
  <metadata id="CorelCorpID_0Corel-Layer"/>
  <g id="_2862585529120">
   <g id="surface1">
    <path class="fil0" d="M47.49 0c-26.09,0 -47.49,21.39 -47.49,47.49 0,24.4 18.72,44.69 42.48,47.21 2.51,23.83 22.74,42.49 47.22,42.49 26.17,0 47.49,-21.32 47.49,-47.49 0,-24.48 -18.66,-44.71 -42.49,-47.22 -2.53,-23.77 -22.81,-42.48 -47.21,-42.48zm68.59 0l-21.11 15.83 21.11 15.83 0 -10.55 2.11 0c4.37,0 8.44,4.07 8.44,8.44l0 12.67 10.55 0 0 -12.67c0,-10.4 -8.6,-18.99 -18.99,-18.99l-2.11 0 0 -10.55zm-68.59 10.55c18.67,0 34.14,14.01 36.56,32.03 -13.18,1.58 -24.7,8.58 -32.31,18.72 -0.22,0.01 -0.42,0.04 -0.64,0.04 -3.58,0 -6.58,-1.22 -8.7,-3.51 -0.41,-0.48 -0.75,-1.06 -1.07,-1.66 -0.09,-0.19 -0.24,-0.31 -0.33,-0.5 -0.39,-0.86 -0.67,-1.84 -0.9,-2.9l16.75 0c0.29,0 0.53,-0.24 0.53,-0.52l0 -4.23c0,-0.17 -0.09,-0.31 -0.22,-0.4l0 -0.12 -17.95 0 0 -0.59c0,-0.6 0,-1.22 0.06,-1.78l17.89 0 0 -0.39c0.12,-0.09 0.22,-0.24 0.22,-0.4l0 -4.23c0,-0.29 -0.24,-0.52 -0.53,-0.52l-16.46 0c0.52,-1.9 1.3,-3.48 2.31,-4.62 0,0 0.01,-0.01 0.01,-0.01 2.07,-2.35 4.89,-3.59 8.17,-3.62 2.38,0.03 4.94,0.66 6.86,1.7l0.59 0.32 0.12 -0.47c0.1,-0.07 0.21,-0.15 0.24,-0.28l1.01 -4.42 0.54 -2.01 -0.25 -0.11c-0.05,-0.11 -0.02,-0.26 -0.14,-0.32 -1.58,-0.74 -4.86,-1.99 -9.3,-1.99 -4.33,0 -8.22,1.25 -11.47,3.64 -1.14,0.81 -2.22,1.76 -3.19,2.86 -2.32,2.46 -3.96,5.69 -4.81,9.34l-4.17 0c-0.29,0 -0.52,0.24 -0.52,0.52l0 4.23c0,0.12 0.06,0.23 0.13,0.32l0 0.47 3.72 0c-0.04,0.55 -0.07,1.21 -0.07,1.84l0 0.53 -3.65 0 0 0.21c-0.07,0.09 -0.13,0.2 -0.13,0.32l0 4.23c0,0.29 0.24,0.52 0.52,0.52l3.9 0c0.64,3.79 2.01,6.96 4.08,9.38 0.92,1.17 2.01,2.19 3.19,3.09 1.05,0.79 2.16,1.5 3.38,2.06 1.73,0.82 3.63,1.33 5.62,1.63 -2.29,4.67 -3.84,9.76 -4.48,15.13 -18.02,-2.42 -32.03,-17.89 -32.03,-36.56 0,-20.34 16.59,-36.94 36.94,-36.94zm42.21 42.21c20.46,0 36.94,16.48 36.94,36.94 0,20.46 -16.48,36.94 -36.94,36.94 -20.46,0 -36.94,-16.48 -36.94,-36.94 0,-20.46 16.48,-36.94 36.94,-36.94zm-2.31 10.55c-0.44,0 -0.8,0.35 -0.8,0.78l0 5.43c-6.36,1.34 -10.27,5.65 -10.27,11.36 0,6.88 5.85,9.91 11.57,11.96 4.67,1.65 6.49,3.22 6.49,5.59 0,2.49 -2.37,4.11 -6.04,4.11 -4.39,0 -7.87,-1.67 -9.55,-2.65 -0.22,-0.13 -0.46,-0.14 -0.71,-0.06 -0.23,0.09 -0.4,0.28 -0.47,0.52l-1.72 5.96c-0.09,0.34 0.04,0.69 0.34,0.88 2.37,1.48 6.21,2.56 9.98,2.78l0 5.33c0,0.42 0.35,0.78 0.79,0.78l5.31 0c0.43,0 0.8,-0.36 0.8,-0.78l0 -5.79c6.53,-1.31 10.73,-5.87 10.74,-11.75 0,-5.89 -3.23,-9.6 -10.8,-12.39 -5.44,-2.05 -7.28,-3.41 -7.28,-5.41 0,-2.26 1.96,-3.61 5.27,-3.61 4.04,0 6.64,1.29 8.32,2.11 0.22,0.1 0.46,0.11 0.68,0.02 0.22,-0.1 0.39,-0.28 0.45,-0.5l1.72 -5.76c0.11,-0.37 -0.06,-0.76 -0.4,-0.93 -1.69,-0.82 -4.37,-1.93 -8.38,-2.17l0 -5.02c0,-0.43 -0.36,-0.78 -0.79,-0.78l-5.24 0zm-87.39 31.66l0 12.67c0,10.4 8.6,18.99 18.99,18.99l2.11 0 0 10.55 21.11 -15.83 -21.11 -15.83 0 10.55 -2.11 0c-4.37,0 -8.44,-4.07 -8.44,-8.44l0 -12.67 -10.55 0z"/>
   </g>
  </g>
 </g>
</svg>
