<?xml version="1.0" encoding="UTF-8"?>
<!DOCTYPE svg PUBLIC "-//W3C//DTD SVG 1.1//EN" "http://www.w3.org/Graphics/SVG/1.1/DTD/svg11.dtd">
<svg xmlns="http://www.w3.org/2000/svg" version="1.1" width="343px" height="274px" style="shape-rendering:geometricPrecision; text-rendering:geometricPrecision; image-rendering:optimizeQuality; fill-rule:evenodd; clip-rule:evenodd" xmlns:xlink="http://www.w3.org/1999/xlink">
<g><path style="opacity:0.977" fill="#fefefe" d="M 33.5,-0.5 C 125.167,-0.5 216.833,-0.5 308.5,-0.5C 308.333,13.504 308.5,27.504 309,41.5C 320.414,56.0671 331.58,70.7337 342.5,85.5C 342.5,90.1667 342.5,94.8333 342.5,99.5C 337.185,115.844 325.852,124.511 308.5,125.5C 308.5,174.833 308.5,224.167 308.5,273.5C 285.5,273.5 262.5,273.5 239.5,273.5C 239.5,239.5 239.5,205.5 239.5,171.5C 232.167,171.5 224.833,171.5 217.5,171.5C 217.5,205.5 217.5,239.5 217.5,273.5C 156.167,273.5 94.8333,273.5 33.5,273.5C 33.5,224.167 33.5,174.833 33.5,125.5C 16.148,124.511 4.81464,115.844 -0.5,99.5C -0.5,94.8333 -0.5,90.1667 -0.5,85.5C 10.4195,70.7337 21.5862,56.0671 33,41.5C 33.4999,27.504 33.6666,13.504 33.5,-0.5 Z M 57.5,22.5 C 133.167,22.5 208.833,22.5 284.5,22.5C 284.5,26.1667 284.5,29.8333 284.5,33.5C 208.833,33.5 133.167,33.5 57.5,33.5C 57.5,29.8333 57.5,26.1667 57.5,22.5 Z M 50.5,57.5 C 130.834,57.3333 211.167,57.5 291.5,58C 300.417,69.8405 309.084,81.8405 317.5,94C 315.316,100.26 310.982,102.593 304.5,101C 299.935,98.9439 297.602,95.4439 297.5,90.5C 289.5,90.5 281.5,90.5 273.5,90.5C 271.631,100.435 265.964,103.602 256.5,100C 253.227,97.6806 251.56,94.514 251.5,90.5C 243.5,90.5 235.5,90.5 227.5,90.5C 225.277,101.11 219.277,103.944 209.5,99C 207.516,96.8655 206.182,94.3655 205.5,91.5C 197.528,90.5023 189.528,90.169 181.5,90.5C 181.581,97.5853 178.081,101.252 171,101.5C 163.919,101.252 160.419,97.5853 160.5,90.5C 152.472,90.169 144.472,90.5023 136.5,91.5C 133.767,100.2 128.101,103.033 119.5,100C 116.108,97.7146 114.441,94.548 114.5,90.5C 106.5,90.5 98.5,90.5 90.5,90.5C 88.671,100.416 83.0044,103.583 73.5,100C 70.6407,97.4475 68.974,94.2808 68.5,90.5C 60.5,90.5 52.5,90.5 44.5,90.5C 42.9873,100.09 37.654,103.257 28.5,100C 26.4164,98.4993 25.0831,96.4993 24.5,94C 33.0479,81.7333 41.7145,69.5666 50.5,57.5 Z M 101.5,117.5 C 116.987,128.139 132.487,128.139 148,117.5C 163.333,128.167 178.667,128.167 194,117.5C 209.181,128.143 224.347,128.143 239.5,117.5C 253.93,127.721 268.597,128.054 283.5,118.5C 284.5,162.495 284.833,206.495 284.5,250.5C 277.167,250.5 269.833,250.5 262.5,250.5C 262.5,216.167 262.5,181.833 262.5,147.5C 239.5,147.5 216.5,147.5 193.5,147.5C 193.5,181.833 193.5,216.167 193.5,250.5C 148.167,250.5 102.833,250.5 57.5,250.5C 57.1667,206.495 57.5001,162.495 58.5,118.5C 73.2141,128.086 87.5474,127.753 101.5,117.5 Z M 102.5,171.5 C 117.5,171.5 132.5,171.5 147.5,171.5C 147.5,182.5 147.5,193.5 147.5,204.5C 132.5,204.5 117.5,204.5 102.5,204.5C 102.5,193.5 102.5,182.5 102.5,171.5 Z"/></g>
<g><path style="opacity:0.963" fill="#fefefe" d="M 79.5,147.5 C 110.167,147.5 140.833,147.5 171.5,147.5C 171.5,174.5 171.5,201.5 171.5,228.5C 140.833,228.5 110.167,228.5 79.5,228.5C 79.5,201.5 79.5,174.5 79.5,147.5 Z M 102.5,171.5 C 102.5,182.5 102.5,193.5 102.5,204.5C 117.5,204.5 132.5,204.5 147.5,204.5C 147.5,193.5 147.5,182.5 147.5,171.5C 132.5,171.5 117.5,171.5 102.5,171.5 Z"/></g>
</svg>
