<svg
                      xmlns="http://www.w3.org/2000/svg"
                      xml:space="preserve"
                      width="0.384748in"
                      height="0.329791in"
                      version="1.1"
                      style="
                        shape-rendering: geometricPrecision;
                        text-rendering: geometricPrecision;
                        image-rendering: optimizeQuality;
                        fill-rule: evenodd;
                        clip-rule: evenodd;
                      "
                      viewBox="0 0 26.95 23.1"
                      xmlns:xlink="http://www.w3.org/1999/xlink"
                      xmlns:xodm="http://www.corel.com/coreldraw/odm/2003"
                    >
                      <g id="Layer_x0020_1">
                        <metadata id="CorelCorpID_0Corel-Layer" />
                        <g id="surface1">
                          <path
                            class="fil0"
                            d="M4.81 0c-1.59,0 -2.89,1.3 -2.89,2.89 0,1.59 1.3,2.89 2.89,2.89 1.59,0 2.89,-1.3 2.89,-2.89 0,-1.59 -1.3,-2.89 -2.89,-2.89zm0 5.78l-1.93 0c-1.59,0 -2.89,1.3 -2.89,2.89l0 6.17 1.93 1.92 0 6.34 5.78 0 0 -9.63 -1.93 0 0 7.7 -1.93 0 0 -5.21 -1.92 -1.92 0 -5.38c0,-0.54 0.42,-0.96 0.96,-0.96l3.85 0c0.29,0 1.04,0.35 1.8,0.81 0.75,0.47 1.42,1.11 2.53,1.11l4.33 0 0 -1.93 -4.33 0c0.05,0 -0.73,-0.32 -1.51,-0.81 -0.78,-0.5 -1.67,-1.11 -2.82,-1.11l-1.93 0zm7.7 -5.78c-0.53,0 -0.96,0.43 -0.96,0.96l0 4.81 11.55 0 0 7.7 -9.63 0 0 -1.93 -1.93 0 0 6.74c0,0.05 0,0.11 0.01,0.15l-1.82 3.23c-0.17,0.3 -0.17,0.66 0.01,0.96 0.17,0.29 0.49,0.47 0.84,0.47l15.4 0c0.33,0 0.64,-0.17 0.82,-0.46 0.17,-0.28 0.19,-0.63 0.04,-0.93l-1.83 -3.65 0 -17.1c0,-0.53 -0.43,-0.96 -0.96,-0.96l-11.55 0zm-7.7 1.92c0.54,0 0.96,0.42 0.96,0.96 0,0.54 -0.42,0.96 -0.96,0.96 -0.54,0 -0.96,-0.42 -0.96,-0.96 0,-0.54 0.42,-0.96 0.96,-0.96zm8.66 0l9.63 0 0 1.93 -9.63 0 0 -1.93zm0 13.48l9.63 0 0 1.92 -9.63 0 0 -1.92zm-0.16 3.85l10.15 0 0.96 1.93 -12.2 0 1.08 -1.93z"
                          />
                        </g>
                      </g>
                    </svg>