<?xml version="1.0" encoding="UTF-8"?>
<!DOCTYPE svg PUBLIC "-//W3C//DTD SVG 1.1//EN" "http://www.w3.org/Graphics/SVG/1.1/DTD/svg11.dtd">
<!-- Creator: CorelDRAW 2021 (64-Bit) -->
<svg xmlns="http://www.w3.org/2000/svg" xml:space="preserve" width="1.24085in" height="1.24087in" version="1.1" style="shape-rendering:geometricPrecision; text-rendering:geometricPrecision; image-rendering:optimizeQuality; fill-rule:evenodd; clip-rule:evenodd"
viewBox="0 0 301.24 301.24"
 xmlns:xlink="http://www.w3.org/1999/xlink"
 xmlns:xodm="http://www.corel.com/coreldraw/odm/2003">
 <defs>
  <style type="text/css">
   <![CDATA[
    .fil1 {fill:#00008F;fill-rule:nonzero}
    .fil0 {fill:#00B425;fill-rule:nonzero}
   ]]>
  </style>
 </defs>
 <g id="Layer_x0020_1">
  <metadata id="CorelCorpID_0Corel-Layer"/>
  <path class="fil0" d="M36.02 72.04c-19.85,0 -36.02,16.17 -36.02,36.02l0 88.41c0,7.24 5.88,13.1 13.1,13.1 7.21,0 13.1,-5.86 13.1,-13.1l0 -75c0,-1.76 1.51,-3.27 3.27,-3.27 1.77,0 3.28,1.51 3.28,3.27l0 162.11c0,10.23 5.47,17.68 15.71,17.68 9.72,0 17.04,-7.6 17.04,-17.68l0 -75.98c0,-1.82 1.46,-3.27 3.28,-3.27 1.82,0 3.27,1.46 3.27,3.27l0 77.89c0.02,0.03 0.08,0.05 0.1,0.1 0.89,9.06 7.88,15.66 16.91,15.66 10.26,0 15.73,-7.44 15.73,-17.68l0 -178.79 68.76 0c9.06,0 16.37,-7.32 16.37,-16.37 0,-9.06 -7.32,-16.37 -16.37,-16.37l-85.03 0 -19.75 39.29 3.27 0c3.61,0 6.55,2.94 6.55,6.55l0 26.19c0,3.61 -2.94,6.55 -6.55,6.55l-13.1 0c-3.61,0 -6.55,-2.94 -6.55,-6.55l0 -26.19c0,-3.61 2.94,-6.55 6.55,-6.55l3.28 0 -19.54 -39.29 -6.65 0z"/>
  <path class="fil1" d="M170.27 39.29c-3.61,0 -6.55,2.94 -6.55,6.55l0 13.1 13.1 0 0 -6.55 72.04 0 0 117.88 -72.04 0 0 -52.39 -13.1 0 0 58.94c0,3.61 2.94,6.55 6.55,6.55l85.13 0c3.61,0 6.55,-2.94 6.55,-6.55l0 -130.97c0,-3.61 -2.94,-6.55 -6.55,-6.55l-85.13 0z"/>
  <path class="fil1" d="M144.07 13.1c-3.61,0 -6.55,2.94 -6.55,6.55l0 39.29 13.1 0 0 -32.74 124.43 0 0 216.11 -124.43 0 0 -124.43 -13.1 0 0 129.52 -12.64 31.77c-0.79,2.02 -0.56,4.32 0.66,6.11 1.23,1.79 3.25,2.86 5.42,2.86l163.72 0c2.17,0 4.22,-1.07 5.42,-2.89 1.23,-1.82 1.46,-4.12 0.64,-6.11l-12.53 -30.8c-0.03,-0.18 -0.05,-0.36 -0.08,-0.51l0 -228.18c0,-3.61 -2.94,-6.55 -6.55,-6.55l-137.52 0z"/>
  <path class="fil0" d="M65.49 0c-18.06,0 -32.74,14.68 -32.74,32.74 0,18.06 14.68,32.74 32.74,32.74 18.06,0 32.74,-14.68 32.74,-32.74 0,-18.06 -14.68,-32.74 -32.74,-32.74z"/>
 </g>
</svg>
