<?xml version="1.0" encoding="UTF-8"?>
<!DOCTYPE svg PUBLIC "-//W3C//DTD SVG 1.1//EN" "http://www.w3.org/Graphics/SVG/1.1/DTD/svg11.dtd">
<!-- Creator: CorelDRAW 2021 (64-Bit) -->
<svg xmlns="http://www.w3.org/2000/svg" xml:space="preserve" width="0.844559in" height="0.725543in" version="1.1" style="shape-rendering:geometricPrecision; text-rendering:geometricPrecision; image-rendering:optimizeQuality; fill-rule:evenodd; clip-rule:evenodd"
viewBox="0 0 59.16 50.82"
 xmlns:xlink="http://www.w3.org/1999/xlink"
 xmlns:xodm="http://www.corel.com/coreldraw/odm/2003">
 <defs>
  <style type="text/css">
   <![CDATA[
    .fil0 {fill:#FF6600;fill-rule:nonzero}
   ]]>
  </style>
 </defs>
 <g id="Layer_x0020_1">
  <metadata id="CorelCorpID_0Corel-Layer"/>
  <g id="surface1">
   <path class="fil0" d="M10.56 0c-3.48,0 -6.34,2.86 -6.34,6.35 0,3.49 2.86,6.35 6.34,6.35 3.48,0 6.34,-2.86 6.34,-6.35 0,-3.49 -2.86,-6.35 -6.34,-6.35zm0 12.71l-4.23 0c-3.48,0 -6.34,2.86 -6.34,6.35l0 13.58 4.23 4.24 0 13.94 12.68 0 0 -21.18 -4.23 0 0 16.94 -4.23 0 0 -11.47 -4.23 -4.24 0 -11.83c0,-1.19 0.92,-2.12 2.11,-2.12l8.45 0c0.64,0 2.29,0.76 3.95,1.79 1.65,1.04 3.12,2.45 5.56,2.45l9.51 0 0 -4.24 -9.51 0c0.12,0 -1.6,-0.71 -3.32,-1.79 -1.72,-1.09 -3.67,-2.45 -6.19,-2.45l-4.23 0zm16.9 -12.71c-1.17,0 -2.11,0.94 -2.11,2.12l0 10.59 25.36 0 0 16.94 -21.13 0 0 -4.24 -4.23 0 0 14.82c0,0.12 0,0.23 0.03,0.33l-3.99 7.1c-0.36,0.66 -0.36,1.46 0.02,2.12 0.38,0.65 1.07,1.04 1.83,1.04l33.81 0c0.72,0 1.41,-0.38 1.8,-1.01 0.38,-0.61 0.41,-1.39 0.1,-2.05l-4.01 -8.03 0 -37.62c0,-1.18 -0.94,-2.12 -2.11,-2.12l-25.36 0zm-16.9 4.24c1.19,0 2.11,0.93 2.11,2.12 0,1.19 -0.92,2.12 -2.11,2.12 -1.19,0 -2.11,-0.93 -2.11,-2.12 0,-1.19 0.92,-2.12 2.11,-2.12zm19.02 0l21.13 0 0 4.24 -21.13 0 0 -4.24zm0 29.65l21.13 0 0 4.24 -21.13 0 0 -4.24zm-0.35 8.47l22.29 0 2.11 4.24 -26.78 0 2.38 -4.24z"/>
  </g>
 </g>
</svg>
