<?xml version="1.0" encoding="UTF-8"?>
<!DOCTYPE svg PUBLIC "-//W3C//DTD SVG 1.1//EN" "http://www.w3.org/Graphics/SVG/1.1/DTD/svg11.dtd">
<!-- Creator: CorelDRAW 2021 (64-Bit) -->
<svg xmlns="http://www.w3.org/2000/svg" xml:space="preserve" width="0.694449in" height="0.694449in" version="1.1" style="shape-rendering:geometricPrecision; text-rendering:geometricPrecision; image-rendering:optimizeQuality; fill-rule:evenodd; clip-rule:evenodd"
viewBox="0 0 45.78 45.78"
 xmlns:xlink="http://www.w3.org/1999/xlink"
 xmlns:xodm="http://www.corel.com/coreldraw/odm/2003">
 <defs>
  <style type="text/css">
   <![CDATA[
    .fil0 {fill:white;fill-rule:nonzero}
   ]]>
  </style>
 </defs>
 <g id="Layer_x0020_1">
  <metadata id="CorelCorpID_0Corel-Layer"/>
  <g id="_2862585520960">
   <g id="surface1">
    <path class="fil0" d="M40.29 0l0 3.66 -1.83 0c-1.01,0 -1.83,0.82 -1.83,1.83l0 9.16c0,1.01 0.82,1.83 1.83,1.83l5.49 0c1.01,0 1.83,-0.82 1.83,-1.83l0 -9.16c0,-1.01 -0.82,-1.83 -1.83,-1.83l-1.83 0 0 -3.66 -1.83 0zm-1.83 5.49l5.49 0c-0.5,0 -0.92,0.41 -0.92,0.92 0,0.5 0.41,0.92 0.92,0.92l0 3.66c-0.5,0 -0.92,0.41 -0.92,0.92 0,0.5 0.41,0.92 0.92,0.92l0 1.83 -1.83 0c0,-0.5 -0.41,-0.92 -0.92,-0.92 -0.5,0 -0.92,0.41 -0.92,0.92l-1.83 0 0 -1.83c0.5,0 0.92,-0.41 0.92,-0.92 0,-0.5 -0.41,-0.92 -0.92,-0.92l0 -3.66c0.5,0 0.92,-0.41 0.92,-0.92 0,-0.5 -0.41,-0.92 -0.92,-0.92zm2.75 2.75c-0.5,0 -0.92,0.41 -0.92,0.92 0,0.5 0.41,0.92 0.92,0.92 0.5,0 0.92,-0.41 0.92,-0.92 0,-0.5 -0.41,-0.92 -0.92,-0.92zm-25.64 3.66l0 3.66 -1.83 0c-1.01,0 -1.83,0.82 -1.83,1.83l0 9.16c0,1.01 0.82,1.83 1.83,1.83l5.49 0c1.01,0 1.83,-0.82 1.83,-1.83l0 -9.16c0,-1.01 -0.82,-1.83 -1.83,-1.83l-1.83 0 0 -3.66 -1.83 0zm13.73 1.83l0 3.66 -1.83 0c-1.01,0 -1.83,0.82 -1.83,1.83l0 9.16c0,1.01 0.82,1.83 1.83,1.83l5.49 0c1.01,0 1.83,-0.82 1.83,-1.83l0 -9.16c0,-1.01 -0.82,-1.83 -1.83,-1.83l-1.83 0 0 -3.66 -1.83 0zm-15.57 3.66l5.49 0c-0.5,0 -0.92,0.41 -0.92,0.92 0,0.5 0.41,0.92 0.92,0.92l0 3.66c-0.5,0 -0.92,0.41 -0.92,0.92 0,0.5 0.41,0.92 0.92,0.92l0 1.83 -1.83 0c0,-0.5 -0.41,-0.92 -0.92,-0.92 -0.5,0 -0.92,0.41 -0.92,0.92l-1.83 0 0 -1.83c0.5,0 0.92,-0.41 0.92,-0.92 0,-0.5 -0.41,-0.92 -0.92,-0.92l0 -3.66c0.5,0 0.92,-0.41 0.92,-0.92 0,-0.5 -0.41,-0.92 -0.92,-0.92zm26.55 0l0 2.75 1.83 0 0 -2.75 -1.83 0zm-12.82 1.83l5.49 0c-0.5,0 -0.92,0.41 -0.92,0.92 0,0.5 0.41,0.92 0.92,0.92l0 3.66c-0.5,0 -0.92,0.41 -0.92,0.92 0,0.5 0.41,0.92 0.92,0.92l0 1.83 -1.83 0c0,-0.5 -0.41,-0.92 -0.92,-0.92 -0.5,0 -0.92,0.41 -0.92,0.92l-1.83 0 0 -1.83c0.5,0 0.92,-0.41 0.92,-0.92 0,-0.5 -0.41,-0.92 -0.92,-0.92l0 -3.66c0.5,0 0.92,-0.41 0.92,-0.92 0,-0.5 -0.41,-0.92 -0.92,-0.92zm-10.99 0.92c-0.5,0 -0.92,0.41 -0.92,0.92 0,0.5 0.41,0.92 0.92,0.92 0.5,0 0.92,-0.41 0.92,-0.92 0,-0.5 -0.41,-0.92 -0.92,-0.92zm13.73 1.83c-0.5,0 -0.92,0.41 -0.92,0.92 0,0.5 0.41,0.92 0.92,0.92 0.5,0 0.92,-0.41 0.92,-0.92 0,-0.5 -0.41,-0.92 -0.92,-0.92zm-26.55 3.66l0 3.66 -1.83 0c-1.01,0 -1.83,0.82 -1.83,1.83l0 9.16c0,1.01 0.82,1.83 1.83,1.83l5.49 0c1.01,0 1.83,-0.82 1.83,-1.83l0 -9.16c0,-1.01 -0.82,-1.83 -1.83,-1.83l-1.83 0 0 -3.66 -1.83 0zm11.9 3.66l0 2.75 1.83 0 0 -2.75 -1.83 0zm-13.73 1.83l5.49 0 0 9.16 -5.49 0 0 -9.16zm27.47 0l0 2.75 1.83 0 0 -2.75 -1.83 0zm-25.64 11.9l0 2.75 1.83 0 0 -2.75 -1.83 0z"/>
   </g>
  </g>
 </g>
</svg>
