<?xml version="1.0" encoding="UTF-8"?>
<!DOCTYPE svg PUBLIC "-//W3C//DTD SVG 1.1//EN" "http://www.w3.org/Graphics/SVG/1.1/DTD/svg11.dtd">
<!-- Creator: CorelDRAW 2021 (64-Bit) -->
<svg xmlns="http://www.w3.org/2000/svg" xml:space="preserve" width="0.679941in" height="0.817744in" version="1.1" style="shape-rendering:geometricPrecision; text-rendering:geometricPrecision; image-rendering:optimizeQuality; fill-rule:evenodd; clip-rule:evenodd"
viewBox="0 0 30.7 36.92"
 xmlns:xlink="http://www.w3.org/1999/xlink"
 xmlns:xodm="http://www.corel.com/coreldraw/odm/2003">
 <defs>
  <style type="text/css">
   <![CDATA[
    .fil0 {fill:white;fill-rule:nonzero}
   ]]>
  </style>
 </defs>
 <g id="Layer_x0020_1">
  <metadata id="CorelCorpID_0Corel-Layer"/>
  <g id="_2901630667680">
   <g id="surface1">
    <path class="fil0" d="M11.51 0c-1.69,0 -3.07,1.39 -3.07,3.08l-6.14 0c-1.26,0 -2.3,1.04 -2.3,2.31l0 24.61c0,1.27 1.04,2.31 2.3,2.31l13.69 0c1.19,2.71 3.89,4.61 7.03,4.61 4.23,0 7.67,-3.45 7.67,-7.69 0,-4.24 -3.44,-7.69 -7.67,-7.69l0 -16.15c0,-1.26 -1.04,-2.31 -2.3,-2.31l-6.14 0c0,-1.69 -1.38,-3.08 -3.07,-3.08zm0 1.54c0.86,0 1.53,0.68 1.53,1.54l0 2.31 -3.07 0 0 -2.31c0,-0.86 0.68,-1.54 1.53,-1.54zm0 0.77c-0.42,0 -0.77,0.35 -0.77,0.77 0,0.42 0.34,0.77 0.77,0.77 0.42,0 0.77,-0.35 0.77,-0.77 0,-0.42 -0.34,-0.77 -0.77,-0.77zm-9.21 2.31l6.14 0 0 1.54c0,0.42 0.34,0.77 0.77,0.77l4.6 0c0.42,0 0.77,-0.35 0.77,-0.77l0 -1.54 6.14 0c0.43,0 0.77,0.33 0.77,0.77l0 16.32c-1.25,0.26 -2.39,0.8 -3.33,1.59 -0.18,-0.44 -0.43,-0.83 -0.74,-1.13 -0.49,-0.48 -1.07,-0.79 -1.61,-1.03 -0.54,-0.24 -1.04,-0.44 -1.39,-0.63 -0.31,-0.17 -0.41,-0.28 -0.46,-0.36 -0.02,-0.32 -0.03,-0.61 -0.02,-0.91 0.02,-0.02 0.05,-0.05 0.07,-0.07 0.11,-0.16 0.19,-0.32 0.29,-0.5 0.13,-0.28 0.24,-0.63 0.31,-0.96 0.09,-0.07 0.19,-0.08 0.26,-0.17 0.23,-0.29 0.35,-0.66 0.41,-1.13 0.05,-0.41 -0.05,-0.74 -0.22,-1.01 0.16,-0.58 0.36,-1.32 0.29,-2.21 -0.04,-0.54 -0.17,-1.11 -0.53,-1.61 -0.33,-0.45 -0.87,-0.78 -1.51,-0.91 -0.49,-0.44 -1.12,-0.65 -1.82,-0.65l-0.02 0c-1.69,0.03 -2.93,0.8 -3.43,1.95 -0.45,1.04 -0.35,2.24 -0.07,3.46 -0.16,0.27 -0.26,0.59 -0.22,0.99 0.06,0.47 0.18,0.84 0.41,1.13 0.07,0.09 0.18,0.1 0.26,0.17 0.08,0.34 0.17,0.69 0.31,0.96 0.1,0.19 0.2,0.35 0.31,0.5 0.02,0.02 0.05,0.05 0.07,0.07 0,0.31 -0,0.6 -0.02,0.91 -0.06,0.13 -0.21,0.28 -0.55,0.46 -0.38,0.2 -0.9,0.37 -1.46,0.63 -0.56,0.26 -1.17,0.59 -1.65,1.13 -0.49,0.54 -0.82,1.33 -0.82,2.26l0 0.77 11.8 0c-0.66,1.14 -1.06,2.44 -1.06,3.85 0,0.53 0.07,1.04 0.17,1.54l-13.21 0c-0.43,0 -0.77,-0.33 -0.77,-0.77l0 -24.61c0,-0.44 0.33,-0.77 0.77,-0.77zm9.19 6.92c0.62,0 0.88,0.21 0.89,0.22l0.19 0.31 0.36 0.07c0.38,0.05 0.52,0.16 0.65,0.34 0.13,0.18 0.21,0.46 0.24,0.82 0.06,0.72 -0.15,1.66 -0.29,2.07l-0.19 0.58 0.43 0.26c-0.03,0.23 -0.06,0.28 -0.07,0.31l-0.46 0.02 -0.07 0.65c-0.02,0.23 -0.12,0.55 -0.24,0.79 -0.06,0.12 -0.13,0.23 -0.17,0.29l-0.36 0.19 0 0.46c0,0.48 -0.03,0.92 0.02,1.51l0 0.1 0.05 0.1c0.23,0.63 0.76,0.99 1.25,1.25 0.49,0.26 0.99,0.44 1.46,0.65 0.47,0.21 0.89,0.47 1.18,0.74 0.16,0.15 0.17,0.38 0.26,0.58l-10.22 0c0.07,-0.13 0.07,-0.35 0.17,-0.46 0.26,-0.29 0.64,-0.53 1.13,-0.75 0.48,-0.22 1.04,-0.43 1.56,-0.7 0.52,-0.27 1.07,-0.65 1.32,-1.32l0.05 -0.19c0.05,-0.6 0.02,-1.03 0.02,-1.51l0 -0.46 -0.31 -0.17c0,-0 -0.03,-0.02 -0.05,-0.05 -0.05,-0.06 -0.13,-0.17 -0.19,-0.29 -0.12,-0.24 -0.22,-0.55 -0.24,-0.77l-0.07 -0.65 -0.46 -0.02c-0.01,-0.03 -0.04,-0.08 -0.07,-0.31l0.38 -0.24 -0.14 -0.55c-0.31,-1.19 -0.32,-2.24 -0.05,-2.86 0.27,-0.62 0.72,-0.99 2.04,-1.01zm11.54 11.54c3.4,0 6.14,2.75 6.14,6.15 0,3.41 -2.74,6.15 -6.14,6.15 -3.4,0 -6.14,-2.75 -6.14,-6.15 0,-3.41 2.74,-6.15 6.14,-6.15zm2.61 2.45l-3.33 5.17 -2.01 -1.85 -1.03 1.15 2.69 2.43 0.67 0.62 0.5 -0.77 3.81 -5.94 -1.3 -0.82z"/>
   </g>
  </g>
 </g>
</svg>
