<?xml version="1.0" encoding="UTF-8"?>
<!DOCTYPE svg PUBLIC "-//W3C//DTD SVG 1.1//EN" "http://www.w3.org/Graphics/SVG/1.1/DTD/svg11.dtd">
<svg xmlns="http://www.w3.org/2000/svg" version="1.1" width="433px" height="433px" style="shape-rendering:geometricPrecision; text-rendering:geometricPrecision; image-rendering:optimizeQuality; fill-rule:evenodd; clip-rule:evenodd" xmlns:xlink="http://www.w3.org/1999/xlink">
<g><path style="opacity:0.93" fill="#fbfbfb" d="M 210.5,34.5 C 217.888,33.8078 224.888,35.1411 231.5,38.5C 274.133,62.3112 316.8,85.8112 359.5,109C 361.736,112.251 363.57,115.751 365,119.5C 365.667,125.833 365.667,132.167 365,138.5C 361.474,146.679 355.307,149.679 346.5,147.5C 346.5,196.167 346.5,244.833 346.5,293.5C 351.765,292.571 356.265,293.904 360,297.5C 361.435,305.389 361.935,313.389 361.5,321.5C 366.511,321.334 371.511,321.501 376.5,322C 379.034,322.516 381.2,323.683 383,325.5C 384.587,335.092 384.92,344.758 384,354.5C 383.214,357.583 381.381,359.749 378.5,361C 345.495,361.167 312.495,361.667 279.5,362.5C 269.425,372.407 258.092,380.574 245.5,387C 235.946,391.296 226.112,394.796 216,397.5C 195.986,392.242 177.819,383.408 161.5,371C 158.458,368.158 155.458,365.324 152.5,362.5C 119.505,361.667 86.505,361.167 53.5,361C 50.6193,359.749 48.786,357.583 48,354.5C 47.0799,344.758 47.4133,335.092 49,325.5C 50.7998,323.683 52.9664,322.516 55.5,322C 60.4889,321.501 65.4889,321.334 70.5,321.5C 70.0648,313.389 70.5648,305.389 72,297.5C 75.7346,293.904 80.2346,292.571 85.5,293.5C 85.5,244.833 85.5,196.167 85.5,147.5C 76.693,149.679 70.5263,146.679 67,138.5C 66.3333,132.167 66.3333,125.833 67,119.5C 68.1149,116.105 69.6149,112.939 71.5,110C 117.288,83.7738 163.621,58.6072 210.5,34.5 Z M 212.5,47.5 C 217.034,47.267 221.368,48.1003 225.5,50C 265.47,71.9954 305.47,93.9954 345.5,116C 347.96,117.458 350.127,119.291 352,121.5C 352.499,126.155 352.666,130.821 352.5,135.5C 261.5,135.5 170.5,135.5 79.5,135.5C 79.3342,130.821 79.5008,126.155 80,121.5C 81.8734,119.291 84.04,117.458 86.5,116C 128.753,93.378 170.753,70.5446 212.5,47.5 Z M 213.5,83.5 C 225.968,84.7757 229.802,91.1091 225,102.5C 219,109.167 213,109.167 207,102.5C 202.309,93.8721 204.476,87.5387 213.5,83.5 Z M 98.5,147.5 C 107.5,147.5 116.5,147.5 125.5,147.5C 125.5,165.5 125.5,183.5 125.5,201.5C 122.09,201.457 118.757,201.957 115.5,203C 114.54,204.419 113.707,205.919 113,207.5C 111.778,236.332 113.278,264.998 117.5,293.5C 111.167,293.5 104.833,293.5 98.5,293.5C 98.5,244.833 98.5,196.167 98.5,147.5 Z M 138.5,147.5 C 190.5,147.5 242.5,147.5 294.5,147.5C 294.5,164.5 294.5,181.5 294.5,198.5C 266.269,191.886 241.602,178.72 220.5,159C 217.5,157 214.5,157 211.5,159C 190.911,178.133 166.911,191.299 139.5,198.5C 138.501,181.513 138.167,164.513 138.5,147.5 Z M 306.5,147.5 C 315.5,147.5 324.5,147.5 333.5,147.5C 333.5,196.167 333.5,244.833 333.5,293.5C 327.167,293.5 320.833,293.5 314.5,293.5C 318.722,264.998 320.222,236.332 319,207.5C 316.533,202.38 312.366,200.38 306.5,201.5C 306.5,183.5 306.5,165.5 306.5,147.5 Z M 215.5,172.5 C 241.636,195.06 271.969,208.727 306.5,213.5C 307.62,242.115 305.453,270.448 300,298.5C 288.37,343.129 260.37,371.463 216,383.5C 171.612,371.445 143.612,343.112 132,298.5C 126.547,270.448 124.38,242.115 125.5,213.5C 159.87,208.974 189.87,195.308 215.5,172.5 Z M 209.5,219.5 C 238.846,219.028 258.013,232.694 267,260.5C 271.024,290.298 259.191,310.798 231.5,322C 198.295,327.825 176.128,314.991 165,283.5C 161.741,249.301 176.575,227.968 209.5,219.5 Z M 82.5,305.5 C 95.1842,305.168 107.851,305.501 120.5,306.5C 122.478,311.442 124.145,316.442 125.5,321.5C 111.167,321.5 96.8333,321.5 82.5,321.5C 82.5,316.167 82.5,310.833 82.5,305.5 Z M 311.5,305.5 C 324.167,305.5 336.833,305.5 349.5,305.5C 349.5,310.833 349.5,316.167 349.5,321.5C 335.167,321.5 320.833,321.5 306.5,321.5C 308.148,316.192 309.815,310.859 311.5,305.5 Z M 131.5,334.5 C 134.738,339.327 138.071,344.16 141.5,349C 114.502,349.5 87.5021,349.667 60.5,349.5C 60.5,344.5 60.5,339.5 60.5,334.5C 84.1667,334.5 107.833,334.5 131.5,334.5 Z M 300.5,334.5 C 324.167,334.5 347.833,334.5 371.5,334.5C 371.5,339.5 371.5,344.5 371.5,349.5C 344.498,349.667 317.498,349.5 290.5,349C 293.929,344.16 297.262,339.327 300.5,334.5 Z"/></g>
<g><path style="opacity:0.914" fill="#fafafa" d="M 211.5,70.5 C 231.979,70.8101 241.479,81.1434 240,101.5C 234.627,116.516 224.127,122.35 208.5,119C 192.151,111.29 187.651,99.1238 195,82.5C 199.245,76.6411 204.745,72.6411 211.5,70.5 Z M 213.5,83.5 C 204.476,87.5387 202.309,93.8721 207,102.5C 213,109.167 219,109.167 225,102.5C 229.802,91.1091 225.968,84.7757 213.5,83.5 Z"/></g>
<g><path style="opacity:0.921" fill="#f9f9f9" d="M 202.5,207.5 C 240.199,203.758 265.699,219.425 279,254.5C 285.648,292.382 271.481,318.882 236.5,334C 207.399,341.755 183.232,334.255 164,311.5C 152.125,294.248 148.459,275.248 153,254.5C 160.937,229.728 177.437,214.061 202.5,207.5 Z M 209.5,219.5 C 176.575,227.968 161.741,249.301 165,283.5C 176.128,314.991 198.295,327.825 231.5,322C 259.191,310.798 271.024,290.298 267,260.5C 258.013,232.694 238.846,219.028 209.5,219.5 Z"/></g>
<g><path style="opacity:0.917" fill="#f6f6f6" d="M 239.5,253.5 C 247.742,253.243 250.242,256.91 247,264.5C 235.78,274.541 224.613,284.707 213.5,295C 210.198,296.797 206.865,296.797 203.5,295C 198.333,288.5 192.5,282.667 186,277.5C 180.983,269.1 183.149,264.933 192.5,265C 197.672,270.505 203.172,275.672 209,280.5C 219.335,271.663 229.502,262.663 239.5,253.5 Z"/></g>
<g><path style="opacity:0.02" fill="#c8c8c8" d="M 131.5,334.5 C 107.833,334.5 84.1667,334.5 60.5,334.5C 60.5,339.5 60.5,344.5 60.5,349.5C 59.5119,344.36 59.1786,339.026 59.5,333.5C 83.6725,333.169 107.672,333.502 131.5,334.5 Z"/></g>
<g><path style="opacity:0.02" fill="#c8c8c8" d="M 300.5,334.5 C 324.328,333.502 348.328,333.169 372.5,333.5C 372.821,339.026 372.488,344.36 371.5,349.5C 371.5,344.5 371.5,339.5 371.5,334.5C 347.833,334.5 324.167,334.5 300.5,334.5 Z"/></g>
</svg>
