<?xml version="1.0" encoding="UTF-8"?>
<!DOCTYPE svg PUBLIC "-//W3C//DTD SVG 1.1//EN" "http://www.w3.org/Graphics/SVG/1.1/DTD/svg11.dtd">
<!-- Creator: CorelDRAW 2021 (64-Bit) -->
<svg xmlns="http://www.w3.org/2000/svg" xml:space="preserve" width="0.765689in" height="0.717067in" version="1.1" style="shape-rendering:geometricPrecision; text-rendering:geometricPrecision; image-rendering:optimizeQuality; fill-rule:evenodd; clip-rule:evenodd"
viewBox="0 0 759.52 711.29"
 xmlns:xlink="http://www.w3.org/1999/xlink"
 xmlns:xodm="http://www.corel.com/coreldraw/odm/2003">
 <defs>
  <style type="text/css">
   <![CDATA[
    .fil0 {fill:#DA8B25;fill-rule:nonzero}
   ]]>
  </style>
 </defs>
 <g id="Layer_x0020_1">
  <metadata id="CorelCorpID_0Corel-Layer"/>
  <g id="_2862585522688">
   <g id="surface1">
    <path class="fil0" d="M178.75 0c-9.09,0.84 -15.8,8.98 -14.96,18.09 0.84,9.11 8.96,15.84 18.05,15l108.31 0 -285.23 285.86c-6.57,6.59 -6.57,17.19 0,23.78 6.58,6.59 17.15,6.59 23.73,0l285.23 -285.86 0 108.55c-0.07,5.95 3.03,11.5 8.19,14.54 5.15,2.97 11.47,2.97 16.63,0 5.16,-3.03 8.26,-8.59 8.19,-14.54l0 -165.42 -165.05 0c-0.52,0 -1.03,0 -1.55,0 -0.51,0 -1.03,0 -1.55,0zm349.7 66.17l0 645.12 231.07 0 0 -645.12 -231.07 0zm33.01 33.09l165.05 0 0 578.95 -165.05 0 0 -578.95zm-297.09 181.95l0 430.09 231.06 0 0 -430.09 -231.06 0zm33 33.09l165.05 0 0 363.92 -165.05 0 0 -363.92zm-297.09 148.87l0 248.13 231.07 0 0 -248.13 -231.07 0zm33.01 33.08l165.05 0 0 181.96 -165.05 0 0 -181.96z"/>
   </g>
  </g>
 </g>
</svg>
