<?xml version="1.0" encoding="UTF-8"?>
<!DOCTYPE svg PUBLIC "-//W3C//DTD SVG 1.1//EN" "http://www.w3.org/Graphics/SVG/1.1/DTD/svg11.dtd">
<!-- Creator: CorelDRAW 2021 (64-Bit) -->
<svg xmlns="http://www.w3.org/2000/svg" xml:space="preserve" width="0.878394in" height="0.633843in" version="1.1" style="shape-rendering:geometricPrecision; text-rendering:geometricPrecision; image-rendering:optimizeQuality; fill-rule:evenodd; clip-rule:evenodd"
viewBox="0 0 75.6 54.55"
 xmlns:xlink="http://www.w3.org/1999/xlink"
 xmlns:xodm="http://www.corel.com/coreldraw/odm/2003">
 <defs>
  <style type="text/css">
   <![CDATA[
    .fil0 {fill:#9900CC;fill-rule:nonzero}
   ]]>
  </style>
 </defs>
 <g id="Layer_x0020_1">
  <metadata id="CorelCorpID_0Corel-Layer"/>
  <g id="surface1">
   <path class="fil0" d="M4.54 0c-2.49,0 -4.54,2.05 -4.54,4.55l0 45.46c0,2.49 2.05,4.55 4.54,4.55l66.53 0c2.49,0 4.54,-2.05 4.54,-4.55l0 -45.46c0,-2.49 -2.05,-4.55 -4.54,-4.55l-66.53 0zm0 3.03l66.53 0c0.86,0 1.51,0.66 1.51,1.52l0 45.46c0,0.86 -0.66,1.52 -1.51,1.52l-13.09 0c-1.96,-1.29 -4.24,-2.23 -6.24,-3.03 -2.79,-1.11 -5.42,-2.15 -6.19,-3.84 -0.12,-1.42 -0.11,-2.52 -0.09,-3.79l0 -0.52c1.21,-1.26 2.32,-3.75 2.74,-5.82 0.93,-0.53 2.03,-1.75 2.36,-4.55 0.17,-1.4 -0.21,-2.47 -0.76,-3.22 0.76,-2.63 2.2,-9.17 -0.43,-13.4 -1.12,-1.81 -2.8,-2.95 -5.01,-3.41 -1.26,-1.54 -3.59,-2.37 -6.71,-2.37 -4.77,0.09 -8.27,1.55 -10.39,4.36 -2.49,3.29 -2.96,8.28 -1.42,14.78 -0.57,0.75 -0.97,1.83 -0.8,3.27 0.34,2.8 1.43,4.02 2.36,4.55 0.45,2.17 1.62,4.6 2.79,5.82l0 0.47c0.01,1.28 0.02,2.41 -0.09,3.84 -0.77,1.69 -3.44,2.73 -6.24,3.84 -2.01,0.8 -4.22,1.74 -6.19,3.03l-13.14 0c-0.86,0 -1.51,-0.66 -1.51,-1.52l0 -45.46c0,-0.86 0.66,-1.52 1.51,-1.52z"/>
  </g>
 </g>
</svg>
