<?xml version="1.0" encoding="UTF-8"?>
<!DOCTYPE svg PUBLIC "-//W3C//DTD SVG 1.1//EN" "http://www.w3.org/Graphics/SVG/1.1/DTD/svg11.dtd">
<!-- Creator: CorelDRAW 2021 (64-Bit) -->
<svg xmlns="http://www.w3.org/2000/svg" xml:space="preserve" width="0.400157in" height="0.28811in" version="1.1" style="shape-rendering:geometricPrecision; text-rendering:geometricPrecision; image-rendering:optimizeQuality; fill-rule:evenodd; clip-rule:evenodd"
viewBox="0 0 34.44 24.8"
 xmlns:xlink="http://www.w3.org/1999/xlink"
 xmlns:xodm="http://www.corel.com/coreldraw/odm/2003">
 <defs>
  <style type="text/css">
   <![CDATA[
    .fil0 {fill:#ffa602;fill-rule:nonzero}
   ]]>
  </style>
 </defs>
 <g id="Layer_x0020_1">
  <metadata id="CorelCorpID_0Corel-Layer"/>
  <g id="surface1">
   <path class="fil0" d="M2.07 0c-1.13,0 -2.07,0.93 -2.07,2.07l0 20.66c0,1.13 0.93,2.07 2.07,2.07l30.31 0c1.13,0 2.07,-0.93 2.07,-2.07l0 -20.66c0,-1.13 -0.93,-2.07 -2.07,-2.07l-30.31 0zm0 1.38l30.31 0c0.39,0 0.69,0.3 0.69,0.69l0 20.66c0,0.39 -0.3,0.69 -0.69,0.69l-5.96 0c-0.89,-0.59 -1.93,-1.01 -2.84,-1.38 -1.27,-0.5 -2.47,-0.98 -2.82,-1.74 -0.05,-0.65 -0.05,-1.14 -0.04,-1.72l0 -0.24c0.55,-0.57 1.05,-1.7 1.25,-2.65 0.43,-0.24 0.92,-0.79 1.08,-2.07 0.08,-0.64 -0.09,-1.12 -0.34,-1.46 0.35,-1.2 1,-4.17 -0.19,-6.09 -0.51,-0.82 -1.28,-1.34 -2.28,-1.55 -0.58,-0.7 -1.63,-1.08 -3.06,-1.08 -2.17,0.04 -3.77,0.7 -4.74,1.98 -1.14,1.5 -1.35,3.76 -0.65,6.72 -0.26,0.34 -0.44,0.83 -0.37,1.49 0.15,1.27 0.65,1.83 1.08,2.07 0.21,0.99 0.74,2.09 1.27,2.65l0 0.22c0.01,0.58 0.01,1.1 -0.04,1.74 -0.35,0.77 -1.57,1.24 -2.84,1.74 -0.92,0.36 -1.92,0.79 -2.82,1.38l-5.98 0c-0.39,0 -0.69,-0.3 -0.69,-0.69l0 -20.66c0,-0.39 0.3,-0.69 0.69,-0.69z"/>
  </g>
 </g>
</svg>
