<?xml version="1.0" encoding="UTF-8"?>
<!-- Generator: visioncortex VTracer 0.6.3 -->
<svg version="1.1" xmlns="http://www.w3.org/2000/svg" width="405" height="405">
<path d="M0 0 C0.97 -0 1.95 -0.01 2.95 -0.01 C6.15 -0.02 9.34 -0.01 12.54 -0.01 C14.77 -0.01 17.01 -0.01 19.24 -0.01 C23.92 -0.02 28.59 -0.01 33.26 -0 C39.24 0.01 45.22 0 51.2 -0.01 C55.81 -0.02 60.42 -0.01 65.03 -0.01 C67.23 -0.01 69.44 -0.01 71.64 -0.01 C74.73 -0.02 77.81 -0.01 80.89 0 C81.8 -0 82.7 -0.01 83.63 -0.01 C90.13 0.03 96.38 0.27 101.7 4.38 C108.5 13.07 108.56 20.85 108.51 31.47 C108.52 33.05 108.53 34.64 108.53 36.22 C108.54 39.52 108.54 42.83 108.52 46.13 C108.51 50.34 108.53 54.56 108.57 58.77 C108.59 62.03 108.59 65.3 108.58 68.56 C108.58 70.11 108.58 71.66 108.6 73.22 C108.67 81.75 108.7 89.41 102.95 96.26 C98.39 100.33 94.09 101.38 88.1 101.29 C86.94 101.3 85.77 101.31 84.57 101.31 C82.14 101.32 79.71 101.3 77.28 101.25 C67.92 101.37 63.64 103.96 56.95 110.26 C55.61 111.27 54.26 112.26 52.88 113.21 C52.24 113.66 51.6 114.11 50.94 114.57 C50.28 115.02 49.62 115.48 48.95 115.95 C44.27 119.19 39.65 122.46 35.13 125.92 C34.34 126.52 33.54 127.12 32.73 127.73 C31.2 128.89 29.69 130.06 28.19 131.25 C24.71 133.85 22.02 135.63 17.61 135.87 C13.95 135.26 13.95 135.26 12.25 133.63 C10.56 130.55 10.53 128.28 10.47 124.78 C10.44 123.53 10.41 122.29 10.38 121 C10.36 119.71 10.34 118.41 10.32 117.07 C10.27 114.49 10.22 111.92 10.16 109.34 C10.14 108.2 10.12 107.06 10.1 105.88 C10.24 103.33 10.24 103.33 8.95 102.26 C7.41 102.15 5.86 102.1 4.32 102.08 C3.37 102.06 2.41 102.04 1.43 102.01 C-0.57 101.97 -2.58 101.94 -4.58 101.92 C-12.17 101.7 -17.76 100.29 -23.43 95.07 C-28.08 87.01 -27.35 77.48 -27.32 68.48 C-27.32 67.05 -27.32 65.63 -27.32 64.21 C-27.33 61.24 -27.32 58.27 -27.31 55.3 C-27.3 51.52 -27.31 47.74 -27.32 43.96 C-27.33 41.02 -27.33 38.09 -27.32 35.15 C-27.32 33.76 -27.32 32.37 -27.33 30.97 C-27.37 13.01 -27.37 13.01 -23.61 6.92 C-23.05 6.39 -22.5 5.86 -21.93 5.32 C-21.39 4.78 -20.85 4.23 -20.29 3.67 C-14.19 -0.17 -6.98 -0.03 0 0 Z M1.95 48.26 C1.62 49.25 1.29 50.24 0.95 51.26 C1.28 51.92 1.61 52.58 1.95 53.26 C4.26 53.26 6.57 53.26 8.95 53.26 C9.28 52.27 9.61 51.28 9.95 50.26 C9.62 49.6 9.29 48.94 8.95 48.26 C6.64 48.26 4.33 48.26 1.95 48.26 Z M36.95 48.26 C36.36 50.2 36.36 50.2 35.95 52.26 C37.13 53.67 37.13 53.67 40.51 53.32 C42.21 53.29 42.21 53.29 43.95 53.26 C43.95 51.94 43.95 50.62 43.95 49.26 C42.82 47.9 42.82 47.9 39.88 48.2 C38.92 48.22 37.95 48.24 36.95 48.26 Z M71.95 48.26 C71.36 50.2 71.36 50.2 70.95 52.26 C72.13 53.67 72.13 53.67 75.51 53.32 C77.21 53.29 77.21 53.29 78.95 53.26 C79.54 51.31 79.54 51.31 79.95 49.26 C78.76 47.84 78.76 47.84 75.38 48.2 C73.68 48.23 73.68 48.23 71.95 48.26 Z " fill="#000000" transform="translate(127.052734375,39.7412109375)"/>
<path d="M0 0 C1.12 -0.01 2.23 -0.02 3.38 -0.03 C7.04 -0.05 10.7 -0.03 14.36 -0 C16.92 -0 19.48 -0.01 22.04 -0.01 C27.4 -0.02 32.75 0 38.1 0.03 C44.27 0.07 50.43 0.07 56.6 0.05 C62.56 0.03 68.52 0.03 74.49 0.05 C77.01 0.06 79.53 0.06 82.06 0.05 C85.59 0.04 89.12 0.06 92.65 0.1 C93.68 0.09 94.72 0.08 95.78 0.07 C104.71 0.21 111.58 3.04 118.14 9.14 C134.29 26.66 126.26 52.44 126.26 74.76 C73.46 74.76 20.66 74.76 -33.74 74.76 C-33.74 17.93 -33.74 17.93 -24.83 8.57 C-17.25 2.01 -9.84 -0.13 0 0 Z " fill="#000000" transform="translate(60.738525390625,290.239501953125)"/>
<path d="M0 0 C1.12 -0.01 2.23 -0.02 3.38 -0.03 C7.04 -0.06 10.71 -0.06 14.37 -0.05 C16.93 -0.06 19.49 -0.07 22.06 -0.08 C27.42 -0.09 32.78 -0.09 38.14 -0.08 C44.31 -0.07 50.48 -0.09 56.65 -0.14 C62.62 -0.18 68.59 -0.18 74.56 -0.18 C77.08 -0.18 79.61 -0.19 82.13 -0.21 C85.67 -0.23 89.21 -0.22 92.75 -0.2 C93.78 -0.21 94.81 -0.23 95.87 -0.24 C105.77 -0.1 113.12 3.86 120 10.86 C134.01 26.44 126.5 61.69 126.5 74.55 C73.7 74.55 20.9 74.55 -33.5 74.55 C-33.5 24.55 -33.5 24.55 -30.5 15.55 C-29.84 15.55 -29.18 15.55 -28.5 15.55 C-28.39 14.96 -28.29 14.37 -28.18 13.77 C-27.38 11.18 -26.39 9.98 -24.5 8.05 C-23.96 7.48 -23.42 6.91 -22.87 6.33 C-15.7 0.95 -8.78 -0.04 0 0 Z " fill="#000000" transform="translate(251.49560546875,290.45068359375)"/>
<path d="M0 0 C6.66 -0.03 13.31 -0.04 19.97 -0.05 C22.24 -0.06 24.5 -0.07 26.77 -0.08 C30.02 -0.09 33.27 -0.09 36.52 -0.1 C38.05 -0.11 38.05 -0.11 39.61 -0.11 C40.55 -0.11 41.49 -0.11 42.46 -0.11 C43.7 -0.12 43.7 -0.12 44.98 -0.12 C47 0 47 0 49 1 C49 1.66 49 2.32 49 3 C49.64 3.27 50.28 3.54 50.94 3.81 C53 5 53 5 54 8 C54.1 9.8 54.15 11.6 54.16 13.4 C54.17 14.51 54.18 15.61 54.19 16.75 C54.19 17.94 54.2 19.14 54.2 20.37 C54.21 21.59 54.21 22.82 54.22 24.08 C54.23 26.68 54.24 29.28 54.24 31.88 C54.25 35.85 54.28 39.83 54.31 43.8 C54.32 46.32 54.32 48.85 54.33 51.37 C54.34 52.56 54.35 53.75 54.37 54.97 C54.36 56.08 54.36 57.19 54.36 58.34 C54.36 59.8 54.36 59.8 54.37 61.29 C53.93 64.5 52.93 66.42 51 69 C50.34 69 49.68 69 49 69 C49 69.66 49 70.32 49 71 C44.37 73.36 40.24 73.24 35.19 73.12 C34.4 73.12 33.61 73.11 32.8 73.1 C30.87 73.07 28.93 73.04 27 73 C27.01 73.62 27.01 74.24 27.02 74.88 C27.04 77.69 27.05 80.5 27.06 83.31 C27.07 84.29 27.08 85.27 27.09 86.27 C27.09 87.21 27.09 88.15 27.1 89.11 C27.1 89.98 27.11 90.84 27.11 91.73 C27 94 27 94 26 97 C21.91 98.17 20.46 98.25 16.62 96.19 C15.76 95.47 14.89 94.74 14 94 C14 93.34 14 92.68 14 92 C13.42 91.89 12.83 91.77 12.23 91.65 C9.83 90.95 8.27 90.02 6.25 88.56 C5.64 88.13 5.02 87.7 4.39 87.25 C3.7 86.63 3.7 86.63 3 86 C3 85.34 3 84.68 3 84 C2.42 83.9 1.85 83.79 1.25 83.68 C-1.35 82.89 -2.93 81.74 -5.06 80.06 C-7.34 78.28 -9.59 76.61 -12 75 C-12 74.34 -12 73.68 -12 73 C-12.91 73.03 -12.91 73.03 -13.83 73.06 C-16.6 73.15 -19.36 73.2 -22.12 73.25 C-23.08 73.28 -24.03 73.32 -25.01 73.35 C-31.07 73.44 -34.35 72.97 -39 69 C-39.78 68.34 -40.57 67.68 -41.38 67 C-43.96 62.23 -43.31 57.31 -43 52 C-42.03 51.99 -42.03 51.99 -41.05 51.97 C-38.07 51.92 -35.1 51.83 -32.12 51.75 C-31.11 51.74 -30.1 51.72 -29.05 51.71 C-21.91 51.48 -16.46 49.98 -10 47 C-9.01 46.67 -8.02 46.34 -7 46 C-5.95 44.15 -5.95 44.15 -5 42 C-4.48 41.36 -3.97 40.72 -3.44 40.06 C-0.42 35.73 -0.81 30.4 -0.68 25.29 C-0.66 24.57 -0.64 23.84 -0.62 23.09 C-0.56 20.79 -0.5 18.49 -0.44 16.19 C-0.39 14.62 -0.35 13.05 -0.31 11.49 C-0.2 7.66 -0.1 3.83 0 0 Z " fill="#000000" transform="translate(239,94)"/>
<path d="M0 0 C8.38 7.72 12.83 17.41 13.38 28.75 C13.17 37.52 9.8 47.29 4 54 C3.34 54 2.68 54 2 54 C1.76 54.61 1.51 55.21 1.26 55.84 C-1 59.72 -5.08 61.09 -9 63 C-9.91 63.49 -9.91 63.49 -10.84 63.98 C-19.01 67.78 -29.48 67.18 -37.88 64.44 C-47.24 60.45 -54.26 54.03 -59 45 C-63.04 33.85 -62.9 24.16 -59 13 C-54.49 3.92 -46.64 -3.59 -37 -7 C-23.3 -9.84 -11.29 -8.32 0 0 Z " fill="#000000" transform="translate(131,215)"/>
<path d="M0 0 C7.07 6.53 11.66 14.3 12.24 23.98 C12.44 32.75 12.38 40.12 8 48 C7.5 48.99 7.5 48.99 7 50 C6.34 50 5.68 50 5 50 C4.92 50.58 4.83 51.15 4.75 51.75 C2.53 58.41 -5.23 61.17 -11.04 64.13 C-19.53 67.88 -30.3 67.01 -38.88 64 C-48.83 59.68 -56.35 52.25 -60.4 42.09 C-63.4 31.65 -62.71 19.25 -57.44 9.69 C-51.84 1.31 -44.03 -5.08 -34.25 -7.75 C-21.19 -8.75 -10.74 -8.04 0 0 Z " fill="#000000" transform="translate(322,215)"/>
</svg>
