<svg xmlns="http://www.w3.org/2000/svg" viewBox="0 0 512 512" id="networking">
  <path d="M125 130H5c-2.8 0-5-2.2-5-5 0-35.8 29.2-65 65-65s65 29.2 65 65c0 2.8-2.2 5-5 5zM10.2 120h109.5C117.2 92 93.6 70 65 70s-52.2 22-54.8 50z"></path>
  <path d="M65 70c-19.3 0-35-15.7-35-35S45.7 0 65 0s35 15.7 35 35-15.7 35-35 35zm0-60c-13.8 0-25 11.2-25 25s11.2 25 25 25 25-11.2 25-25-11.2-25-25-25zm442 120H387c-2.8 0-5-2.2-5-5 0-35.8 29.2-65 65-65s65 29.2 65 65c0 2.8-2.2 5-5 5zm-114.8-10h109.5c-2.5-28-26.1-50-54.8-50s-52.1 22-54.7 50z"></path>
  <path d="M447 70c-19.3 0-35-15.7-35-35s15.7-35 35-35 35 15.7 35 35-15.7 35-35 35zm0-60c-13.8 0-25 11.2-25 25s11.2 25 25 25 25-11.2 25-25-11.2-25-25-25zM125 512H5c-2.8 0-5-2.2-5-5 0-35.8 29.2-65 65-65s65 29.2 65 65c0 2.8-2.2 5-5 5zM10.2 502h109.5c-2.5-28-26.1-50-54.8-50s-52.1 22-54.7 50z"></path>
  <path d="M65 452c-19.3 0-35-15.7-35-35s15.7-35 35-35 35 15.7 35 35-15.7 35-35 35zm0-60c-13.8 0-25 11.2-25 25s11.2 25 25 25 25-11.2 25-25-11.2-25-25-25zm442 120H387c-2.8 0-5-2.2-5-5 0-35.8 29.2-65 65-65s65 29.2 65 65c0 2.8-2.2 5-5 5zm-114.8-10h109.5c-2.5-28-26.1-50-54.8-50s-52.1 22-54.7 50z"></path>
  <path d="M447 452c-19.3 0-35-15.7-35-35s15.7-35 35-35 35 15.7 35 35-15.7 35-35 35zm0-60c-13.8 0-25 11.2-25 25s11.2 25 25 25 25-11.2 25-25-11.2-25-25-25zM256 291c-27.6 0-50-22.4-50-50s22.4-50 50-50 50 22.4 50 50-22.4 50-50 50zm0-90c-22.1 0-40 17.9-40 40s17.9 40 40 40 40-17.9 40-40-17.9-40-40-40z"></path>
  <path d="M266 381h-20c-2.8 0-5-2.2-5-5v-20h-20c-2.8 0-5-2.2-5-5v-20c0-2.8 2.2-5 5-5h20v-16.6c-14.7-3.2-28-11.1-38-22.6-11-12.7-17-29-17-45.8 0-38.6 31.4-70 70-70s70 31.4 70 70h-10c0-33.1-26.9-60-60-60s-60 26.9-60 60c0 29.3 21.8 54.8 50.8 59.3 2.4.4 4.2 2.5 4.2 4.9V331c0 2.8-2.2 5-5 5h-20v10h20c2.8 0 5 2.2 5 5v20h10v-20c0-2.8 2.2-5 5-5h20v-10h-20c-2.8 0-5-2.2-5-5v-25.8c0-2.5 1.8-4.6 4.2-4.9 22.2-3.4 41-19.4 47.9-40.8l9.5 3.1c-7.6 23.6-27.6 41.6-51.6 46.8V326h20c2.8 0 5 2.2 5 5v20c0 2.8-2.2 5-5 5h-20v20c0 2.8-2.2 5-5 5zM372.42 152.513l7.072 7.07-31.605 31.61-7.072-7.07z"></path>
  <path d="M256 406c-25.4 0-50-7.3-71.1-21.2l5.5-8.4c19.5 12.8 42.2 19.5 65.7 19.5 66.2 0 120-53.8 120-120s-53.8-120-120-120-120 53.8-120 120c0 32.1 12.5 62.2 35.1 84.9 2 2 2 5.1 0 7.1l-31.6 31.6-7.1-7.1 28.1-28.1C138.3 340.2 126 309.1 126 276c0-71.7 58.3-130 130-130s130 58.3 130 130-58.3 130-130 130z"></path>
  <path d="m139.572 152.491 31.607 31.608-7.071 7.071-31.607-31.608zM347.887 360.823l31.607 31.608-7.071 7.07-31.607-31.607z"></path>
</svg>
