<?xml version="1.0" encoding="UTF-8"?>
<!DOCTYPE svg PUBLIC "-//W3C//DTD SVG 1.1//EN" "http://www.w3.org/Graphics/SVG/1.1/DTD/svg11.dtd">
<!-- Creator: CorelDRAW 2021 (64-Bit) -->
<svg xmlns="http://www.w3.org/2000/svg" xml:space="preserve" width="0.794063in" height="0.795827in" version="1.1" style="shape-rendering:geometricPrecision; text-rendering:geometricPrecision; image-rendering:optimizeQuality; fill-rule:evenodd; clip-rule:evenodd"
viewBox="0 0 60.76 60.89"
 xmlns:xlink="http://www.w3.org/1999/xlink"
 xmlns:xodm="http://www.corel.com/coreldraw/odm/2003">
 <defs>
  <style type="text/css">
   <![CDATA[
    .fil0 {fill:#006633;fill-rule:nonzero}
    .fil1 {fill:#07DD15;fill-rule:nonzero}
   ]]>
  </style>
 </defs>
 <g id="Layer_x0020_1">
  <metadata id="CorelCorpID_0Corel-Layer"/>
  <path class="fil0" d="M14.86 21.08c-0.7,0 -1.17,0.69 -1.17,1.39l2.12 14.27c1.87,-2.58 4.91,-3.95 8.18,-3.95 3.27,0 6.31,1.61 8.18,3.95 1.87,-2.34 4.91,-3.95 8.18,-3.95 3.27,0 6.31,1.61 8.18,3.95l2.12 -14.27c0.24,-0.7 -0.47,-1.39 -1.17,-1.39l-34.61 0z"/>
  <g id="_2901632860448">
   <path class="fil1" d="M47.9 49.18c-3.27,0 -5.84,2.58 -5.84,5.85 0,3.28 2.57,5.86 5.84,5.86 3.27,0 5.84,-2.58 5.84,-5.86 0,-3.28 -2.57,-5.85 -5.84,-5.85z"/>
   <path class="fil1" d="M30.38 49.18c-3.27,0 -5.84,2.58 -5.84,5.85 0,3.28 2.57,5.86 5.84,5.86 3.27,0 5.84,-2.58 5.84,-5.86 0,-3.28 -2.57,-5.85 -5.84,-5.85z"/>
   <path class="fil1" d="M12.85 49.18c-3.27,0 -5.84,2.58 -5.84,5.85 0,3.28 2.57,5.86 5.84,5.86 3.27,0 5.84,-2.58 5.84,-5.86 0,-3.28 -2.57,-5.85 -5.84,-5.85z"/>
   <path class="fil1" d="M54.92 37.47c-3.27,0 -5.84,2.58 -5.84,5.85 0,3.28 2.57,5.86 5.84,5.86 3.27,0 5.84,-2.58 5.84,-5.86 0,-3.28 -2.57,-5.85 -5.84,-5.85z"/>
   <path class="fil1" d="M38.56 37.47c-3.27,0 -5.84,2.58 -5.84,5.85 0,3.28 2.57,5.86 5.84,5.86 3.27,0 5.84,-2.58 5.84,-5.86 0,-3.28 -2.57,-5.85 -5.84,-5.85z"/>
   <path class="fil1" d="M22.2 37.47c-3.27,0 -5.84,2.58 -5.84,5.85 0,3.28 2.57,5.86 5.84,5.86 3.27,0 5.84,-2.58 5.84,-5.86 0,-3.28 -2.57,-5.85 -5.84,-5.85z"/>
   <path class="fil1" d="M5.84 37.47c-3.27,0 -5.84,2.58 -5.84,5.85 0,3.28 2.57,5.86 5.84,5.86 3.27,0 5.84,-2.58 5.84,-5.86 0,-3.28 -2.57,-5.85 -5.84,-5.85z"/>
   <path class="fil1" d="M52.58 0c-1.94,0 -3.51,1.57 -3.51,3.51 0,1.94 1.57,3.51 3.51,3.51 0.67,0 1.3,-0.19 1.83,-0.51 0.33,0.39 0.58,0.79 0.8,1.24 0.5,1.02 0.72,2.32 0.8,3.95l-53.67 0c-1.41,0 -2.34,0.93 -2.34,2.34l0 4.68 4.67 7.03 5.4 0 -0.95 -5.64c-0.24,-0.7 0.47,-1.39 1.17,-1.39l40.16 0c0.7,0 1.41,0.69 1.17,1.39l-0.95 5.64 5.4 0 4.67 -7.03 0 -4.68c0,-1.41 -0.93,-2.34 -2.34,-2.34l-0.07 0c-0.09,-1.91 -0.39,-3.54 -1.1,-4.98 -0.37,-0.74 -0.83,-1.43 -1.39,-2.05 0.13,-0.37 0.22,-0.77 0.22,-1.17 0,-1.94 -1.57,-3.51 -3.5,-3.51z"/>
  </g>
 </g>
</svg>
