<?xml version="1.0" encoding="UTF-8"?>
<!DOCTYPE svg PUBLIC "-//W3C//DTD SVG 1.1//EN" "http://www.w3.org/Graphics/SVG/1.1/DTD/svg11.dtd">
<!-- Creator: CorelDRAW 2021 (64-Bit) -->
<svg xmlns="http://www.w3.org/2000/svg" xml:space="preserve" width="0.647126in" height="0.554685in" version="1.1" style="shape-rendering:geometricPrecision; text-rendering:geometricPrecision; image-rendering:optimizeQuality; fill-rule:evenodd; clip-rule:evenodd"
viewBox="0 0 47.38 40.61"
 xmlns:xlink="http://www.w3.org/1999/xlink"
 xmlns:xodm="http://www.corel.com/coreldraw/odm/2003">
 <defs>
  <style type="text/css">
   <![CDATA[
    .fil0 {fill:white;fill-rule:nonzero}
   ]]>
  </style>
 </defs>
 <g id="Layer_x0020_1">
  <metadata id="CorelCorpID_0Corel-Layer"/>
  <g id="_2901532933632">
   <g id="surface1">
    <path class="fil0" d="M2.54 0c-1.4,0 -2.54,1.14 -2.54,2.54l0 35.54c0,1.4 1.14,2.54 2.54,2.54l42.31 0c1.4,0 2.54,-1.14 2.54,-2.54l0 -35.54c0,-1.4 -1.14,-2.54 -2.54,-2.54l-42.31 0zm0 1.69l42.31 0c0.47,0 0.85,0.38 0.85,0.85l0 27.92 -6.77 0 0 -11c0,-0.47 -0.38,-0.85 -0.85,-0.85l-5.08 0c-0.47,0 -0.85,0.38 -0.85,0.85l0 0.85 -4.23 0c-0.47,0 -0.85,0.38 -0.85,0.85l0 0.85 -3.38 0 0 -2.54c0,-0.47 -0.38,-0.85 -0.85,-0.85l-5.08 0c-0.46,0 -0.85,0.38 -0.85,0.85l0 0.85 -3.38 0 0 -0.85c0,-0.47 -0.38,-0.85 -0.85,-0.85l-5.08 0c-0.47,0 -0.85,0.38 -0.85,0.85l0 11 -5.08 0 0 -27.92c0,-0.46 0.38,-0.85 0.85,-0.85zm34.69 5.08c-0.22,0 -0.43,0.08 -0.6,0.25 -0.33,0.33 -0.33,0.86 0,1.19l1.94 1.94 -6.57 0c-0.35,-0.98 -1.29,-1.69 -2.39,-1.69 -1.1,0 -2.04,0.71 -2.39,1.69l-5.38 0c-0.35,-0.98 -1.29,-1.69 -2.39,-1.69 -1.1,0 -2.04,0.71 -2.39,1.69l-5.38 0c-0.35,-0.98 -1.29,-1.69 -2.39,-1.69 -1.4,0 -2.54,1.14 -2.54,2.54 0,1.4 1.14,2.54 2.54,2.54 1.1,0 2.04,-0.71 2.39,-1.69l5.38 0c0.35,0.98 1.29,1.69 2.39,1.69 1.1,0 2.04,-0.71 2.39,-1.69l5.38 0c0.35,0.98 1.29,1.69 2.39,1.69 1.1,0 2.04,-0.71 2.39,-1.69l6.57 0 -1.94 1.94c-0.33,0.33 -0.33,0.86 0,1.19 0.17,0.17 0.38,0.25 0.6,0.25 0.22,0 0.43,-0.08 0.6,-0.25l3.38 -3.38c0.33,-0.33 0.33,-0.86 0,-1.19l-3.38 -3.38c-0.16,-0.17 -0.38,-0.25 -0.6,-0.25zm-27.92 3.3c0.51,0 0.93,0.42 0.93,0.93 0,0.51 -0.42,0.93 -0.93,0.93 -0.51,0 -0.93,-0.42 -0.93,-0.93 0,-0.51 0.42,-0.93 0.93,-0.93zm10.15 0c0.51,0 0.93,0.42 0.93,0.93 0,0.51 -0.42,0.93 -0.93,0.93 -0.51,0 -0.93,-0.42 -0.93,-0.93 0,-0.51 0.42,-0.93 0.93,-0.93zm10.15 0c0.51,0 0.93,0.42 0.93,0.93 0,0.51 -0.42,0.93 -0.93,0.93 -0.51,0 -0.93,-0.42 -0.93,-0.93 0,-0.51 0.42,-0.93 0.93,-0.93zm-21.15 10.24l3.38 0 0 10.15 -3.38 0 0 -10.15zm10.15 0l3.38 0 0 10.15 -3.38 0 0 -10.15zm15.23 0l3.38 0 0 10.15 -3.38 0 0 -10.15zm-20.31 1.69l3.38 0 0 8.46 -3.38 0 0 -8.46zm15.23 0l3.38 0 0 8.46 -3.38 0 0 -8.46zm-5.08 1.69l3.38 0 0 6.77 -3.38 0 0 -6.77zm-22 8.46l44 0 0 5.92c0,0.46 -0.38,0.85 -0.85,0.85l-42.31 0c-0.47,0 -0.85,-0.38 -0.85,-0.85l0 -5.92zm3.38 1.69c-0.47,0 -0.85,0.38 -0.85,0.85l0 1.69c0,0.47 0.38,0.85 0.85,0.85 0.47,0 0.85,-0.38 0.85,-0.85l0 -1.69c0,-0.47 -0.38,-0.85 -0.85,-0.85zm4.23 0c-0.47,0 -0.85,0.38 -0.85,0.85l0 1.69c0,0.47 0.38,0.85 0.85,0.85 0.47,0 0.85,-0.38 0.85,-0.85l0 -1.69c0,-0.47 -0.38,-0.85 -0.85,-0.85zm4.23 0c-0.47,0 -0.85,0.38 -0.85,0.85l0 1.69c0,0.47 0.38,0.85 0.85,0.85 0.47,0 0.85,-0.38 0.85,-0.85l0 -1.69c0,-0.47 -0.38,-0.85 -0.85,-0.85zm4.23 0c-0.46,0 -0.85,0.38 -0.85,0.85l0 1.69c0,0.47 0.38,0.85 0.85,0.85 0.47,0 0.85,-0.38 0.85,-0.85l0 -1.69c0,-0.47 -0.38,-0.85 -0.85,-0.85zm4.23 0c-0.47,0 -0.85,0.38 -0.85,0.85l0 1.69c0,0.47 0.38,0.85 0.85,0.85 0.47,0 0.85,-0.38 0.85,-0.85l0 -1.69c0,-0.47 -0.38,-0.85 -0.85,-0.85zm4.23 0c-0.47,0 -0.85,0.38 -0.85,0.85l0 1.69c0,0.47 0.38,0.85 0.85,0.85 0.47,0 0.85,-0.38 0.85,-0.85l0 -1.69c0,-0.47 -0.38,-0.85 -0.85,-0.85zm4.23 0c-0.47,0 -0.85,0.38 -0.85,0.85l0 1.69c0,0.47 0.38,0.85 0.85,0.85 0.46,0 0.85,-0.38 0.85,-0.85l0 -1.69c0,-0.47 -0.38,-0.85 -0.85,-0.85zm4.23 0c-0.47,0 -0.85,0.38 -0.85,0.85l0 1.69c0,0.47 0.38,0.85 0.85,0.85 0.47,0 0.85,-0.38 0.85,-0.85l0 -1.69c0,-0.47 -0.38,-0.85 -0.85,-0.85zm4.23 0c-0.46,0 -0.85,0.38 -0.85,0.85l0 1.69c0,0.47 0.38,0.85 0.85,0.85 0.47,0 0.85,-0.38 0.85,-0.85l0 -1.69c0,-0.47 -0.38,-0.85 -0.85,-0.85zm4.23 0c-0.47,0 -0.85,0.38 -0.85,0.85l0 1.69c0,0.47 0.38,0.85 0.85,0.85 0.47,0 0.85,-0.38 0.85,-0.85l0 -1.69c0,-0.47 -0.38,-0.85 -0.85,-0.85z"/>
   </g>
  </g>
 </g>
</svg>
