<svg xmlns="http://www.w3.org/2000/svg" xml:space="preserve" id="board-of-directors" x="0" y="0" enable-background="new 0 0 512 512" version="1.1" viewBox="0 0 512 512">
  <path d="M98.509,201.036c24.319,0,44.104-19.785,44.104-44.104s-19.785-44.104-44.104-44.104s-44.104,19.785-44.104,44.104
	S74.19,201.036,98.509,201.036z M98.509,128.433c15.714,0,28.499,12.785,28.499,28.499s-12.785,28.499-28.499,28.499
	s-28.499-12.785-28.499-28.499S82.795,128.433,98.509,128.433z M502.937,347.026L489.96,245.175
	c-3.304-25.865-19.644-38.947-44.803-35.894c-22.459,2.69-30.397,17.103-38.073,31.041c-1.326,2.408-2.698,4.899-4.148,7.336
	l-11.565,19.478c-11.039-5.507-23.148-10.336-36.132-14.369c-0.262-0.081-0.53-0.156-0.793-0.237v-11.265
	c0-47.433-38.589-86.022-86.022-86.022h-0.931c23.061-5.244,40.331-25.898,40.331-50.523c0-28.56-23.248-51.796-51.823-51.796
	s-51.823,23.236-51.823,51.796c0,24.625,17.27,45.28,40.331,50.523h-0.931c-47.432,0-86.022,38.589-86.022,86.022v11.194
	c-0.28,0.085-0.565,0.165-0.845,0.251c-12.916,4.005-25.016,8.839-36.104,14.386l-11.546-19.446
	c-1.447-2.43-2.818-4.921-4.144-7.329c-7.676-13.938-15.614-28.351-38.061-31.04c-25.178-3.053-41.51,10.028-44.815,35.895
	L9.063,347.026c-0.545,4.275,2.479,8.181,6.754,8.726c0.335,0.042,0.667,0.063,0.996,0.063c3.87,0,7.228-2.877,7.73-6.817
	L37.52,247.153c2.237-17.509,10.705-24.411,27.468-22.377c14.508,1.738,19.183,10.226,26.259,23.075
	c1.388,2.521,2.824,5.128,4.4,7.775l15.142,25.502c0.009,0.017,0.016,0.035,0.025,0.052c0.049,0.089,0.107,0.171,0.158,0.257
	l3.157,5.317c1.406,2.368,3.956,3.819,6.709,3.819h33.867c4.44,0,8.052,3.612,8.052,8.051v8.052h-52.515
	c-5.066,0-9.273-2.401-11.859-6.782l-19.23-32.345c-2.202-3.704-6.991-4.922-10.694-2.72c-3.704,2.202-4.921,6.99-2.72,10.694
	l12.793,21.519c-1.693,1.774-3.29,3.549-4.757,5.313c-12.206,14.702-18.57,31.043-18.404,47.256
	c0.173,16.762,6.962,32.88,20.182,47.909c16.087,18.281,40.674,33.622,71.104,44.366c31.847,11.245,69.667,17.188,109.371,17.188
	c39.611,0,77.373-5.948,109.205-17.2c30.41-10.749,54.987-26.086,71.072-44.349c26.486-30.042,27.217-64.709,1.995-95.127
	c-1.519-1.823-3.133-3.62-4.816-5.383l12.778-21.493c2.202-3.704,0.985-8.492-2.72-10.694c-3.704-2.202-8.491-0.985-10.694,2.72
	l-19.243,32.366c-2.573,4.36-6.79,6.76-11.874,6.76h-52.488v-8.052c0-4.44,3.612-8.051,8.052-8.051h33.867
	c2.753,0,5.303-1.451,6.709-3.819l18.478-31.12c1.58-2.654,3.016-5.261,4.404-7.782c7.076-12.849,11.751-21.337,26.271-23.076
	c16.757-2.033,25.22,4.87,27.456,22.375l12.977,101.849c0.502,3.94,3.86,6.817,7.73,6.817c0.329,0,0.662-0.021,0.996-0.063
	C500.457,355.208,503.481,351.301,502.937,347.026z M219.782,104.721c0-19.956,16.248-36.191,36.218-36.191
	s36.218,16.235,36.218,36.191c0,19.971-16.248,36.218-36.218,36.218S219.782,124.692,219.782,104.721z M173.16,241.266
	c0-38.828,31.589-70.417,70.417-70.417h24.846c38.828,0,70.417,31.589,70.417,70.417v6.949c-6.675-1.651-13.502-3.099-20.447-4.341
	v-20.731c0-4.309-3.493-7.803-7.803-7.803c-4.31,0-7.803,3.494-7.803,7.803v18.318c-15.281-2.006-30.981-3.045-46.76-3.045
	c-15.797,0-31.516,1.036-46.816,3.035v-18.308c0-4.309-3.493-7.803-7.803-7.803c-4.309,0-7.803,3.494-7.803,7.803v20.709
	c-6.944,1.235-13.771,2.675-20.447,4.317V241.266z M333.638,298.623v15.854c0,4.309,3.493,7.803,7.803,7.803h60.29
	c9.441,0,17.744-4.122,23.275-11.407c0.436,0.499,0.874,0.999,1.293,1.501c20.088,24.226,19.485,50.802-1.703,74.834
	c-30.564,34.703-95.156,56.261-168.568,56.261c-73.557,0-138.222-21.557-168.759-56.258c-21.119-24.01-21.648-50.606-1.492-74.883
	c0.396-0.476,0.817-0.955,1.234-1.434c5.537,7.277,13.82,11.385,23.23,11.385h60.318c4.309,0,7.803-3.493,7.803-7.803v-15.854
	c0-13.044-10.613-23.656-23.657-23.656h-13.781c6.506-2.693,13.316-5.152,20.399-7.348c28.8-8.895,61.548-13.598,94.704-13.598
	c33.118,0,65.824,4.72,94.582,13.649c7.065,2.195,13.839,4.636,20.296,7.296h-13.61
	C344.251,274.967,333.638,285.579,333.638,298.623z M413.491,201.036c24.319,0,44.104-19.785,44.104-44.104
	s-19.785-44.104-44.104-44.104c-24.319,0-44.104,19.785-44.104,44.104S389.171,201.036,413.491,201.036z M413.491,128.433
	c15.714,0,28.499,12.785,28.499,28.499s-12.785,28.499-28.499,28.499c-15.715,0-28.499-12.785-28.499-28.499
	S397.776,128.433,413.491,128.433z M302.922,280.987c-0.966-3.336-4.021-5.633-7.495-5.633h-78.856
	c-3.474,0-6.529,2.296-7.495,5.633l-16.214,56.001c-0.683,2.356-0.217,4.897,1.257,6.858c1.474,1.961,3.784,3.115,6.237,3.115
	h111.284c2.453,0,4.764-1.154,6.237-3.115c1.474-1.961,1.94-4.502,1.257-6.858L302.922,280.987z M210.74,331.356l11.696-40.396
	h67.127l11.696,40.396H210.74z"></path>
</svg>
