 <svg
                        xmlns="http://www.w3.org/2000/svg"
                        xml:space="preserve"
                        width="0.349311in"
                        height="0.351748in"
                        version="1.1"
                        style="
                          shape-rendering: geometricPrecision;
                          text-rendering: geometricPrecision;
                          image-rendering: optimizeQuality;
                          fill-rule: evenodd;
                          clip-rule: evenodd;
                        "
                        viewBox="0 0 348.22 350.65"
                        xmlns:xlink="http://www.w3.org/1999/xlink"
                        xmlns:xodm="http://www.corel.com/coreldraw/odm/2003"
                      >
                        <g id="Layer_x0020_1">
                          <metadata id="CorelCorpID_0Corel-Layer" />
                          <g id="round-table-ezgif.com-gif-maker.svg">
                            <path
                              class="fil0"
                            fill="#ffffff"

                              d="M153.67 23.3c5.47,5.62 7.47,12.94 7.5,20.64 -0.01,0.99 -0.03,1.99 -0.04,2.98 0.44,-0.05 0.88,-0.1 1.34,-0.15 12.97,-1.39 25.51,-0.3 38.39,1.6 0.08,-0.87 0.16,-1.73 0.25,-2.62 0.96,-7.57 5.46,-13.68 11.31,-18.32 17.71,-12.97 38.08,-25.87 60.67,-26.72 0.66,-0.03 1.32,-0.06 2.01,-0.09 8.85,-0.2 16.8,1.36 25.08,4.3 3.21,1.08 6.41,1.73 9.74,2.29 0.61,0.15 1.22,0.29 1.86,0.44 1.86,0.44 1.86,0.44 4,-0.44 4.48,-1.42 9.51,-0.76 13.77,1.13 6.21,3.54 9.93,8.83 12.14,15.49 0.21,3.49 0.08,6.89 -0.5,10.33 -0.78,6.33 1.78,12.82 4.13,18.61 5.58,16.92 2.59,36.9 -5.08,52.67 -4.07,8.03 -8.51,15.78 -13.72,23.11 -0.64,0.92 -1.26,1.83 -1.89,2.75 -5.05,7.24 -10.29,13.32 -19.05,16.03 -0.95,0 -1.9,0 -2.89,0 0.22,1.13 0.22,1.13 0.45,2.27 0.2,1.02 0.39,2.04 0.59,3.05 0.09,0.49 0.2,0.98 0.29,1.49 1.41,7.32 1.69,14.54 1.7,21.99 0.01,0.86 0.02,1.72 0.02,2.61 0.02,5.57 -0.5,10.81 -1.61,16.27 0.49,0.08 0.99,0.16 1.5,0.24 7.74,1.31 13.53,4.35 18.25,10.71 4.45,6.42 8.4,13.18 12.03,20.11 0.28,0.54 0.57,1.09 0.87,1.65 6.19,11.93 8.74,21.83 8.84,35.32 0.01,0.9 0.02,1.8 0.02,2.73 -0.08,8.02 -1.28,15.76 -4.41,23.18 -2.2,4.93 -2.2,4.93 -1.71,10.07 1.15,9.64 -2.1,16.53 -7.81,24.06 -6.9,8.11 -15.71,15.91 -26.68,17.13 -2.01,-0.03 -3.81,-0.47 -5.78,-0.92 -4.39,-0.82 -6.86,0.12 -10.81,2.02 -6.26,2.77 -13.61,4.38 -20.42,4.66 -1.07,0.06 -1.07,0.06 -2.16,0.11 -22.04,0.61 -41.75,-8.99 -59.23,-21.78 -0.65,-0.47 -1.29,-0.95 -1.95,-1.43 -5.15,-4.14 -8.64,-9.82 -9.51,-16.45 -0.04,-1.16 -0.04,-1.16 -0.09,-2.35 -0.48,0.24 -0.95,0.48 -1.44,0.72 -5.84,0.87 -11.67,0.89 -17.56,0.9 -0.77,0 -0.77,0 -1.55,0.01 -9.05,0 -18.45,-0.19 -27.12,-3.08 -0.11,0.45 -0.22,0.89 -0.33,1.35 -4.04,15.28 -18.73,22.79 -31.49,30.29 -12.38,7.15 -25.62,13.5 -40.26,13.11 -0.92,-0.02 -1.84,-0.04 -2.79,-0.05 -1.9,-0.04 -3.8,-0.09 -5.7,-0.14 -5.66,-0.08 -10.19,0.59 -15.53,2.44 -3.03,0.95 -5.84,1.1 -8.99,1.02 -0.59,-0.01 -1.17,-0.02 -1.77,-0.03 -10.09,-0.34 -19.21,-4.37 -26.58,-11.26 -8.23,-8.84 -12.34,-19.26 -11.98,-31.37 0.44,-4.44 1.11,-9.28 3.14,-13.32 0.04,-1.26 0.02,-2.52 -0.01,-3.77 -0.52,-29.34 9.64,-53.01 28.18,-75.68 0.4,-0.49 0.8,-0.99 1.22,-1.5 3.88,-4.31 9.22,-6.8 14.67,-8.62 -0.15,-0.85 -0.3,-1.71 -0.45,-2.59 -0.2,-1.15 -0.4,-2.3 -0.59,-3.46 -0.09,-0.56 -0.2,-1.12 -0.3,-1.69 -1.22,-7.23 -1.67,-14.27 -1.64,-21.6 0,-0.78 0,-1.56 -0.01,-2.36 0.01,-4.19 0.19,-8.21 0.82,-12.35 -0.41,0.02 -0.82,0.05 -1.25,0.07 -7.06,0.24 -14.36,-0.6 -19.87,-5.35 -0.42,-0.4 -0.84,-0.81 -1.26,-1.23 -0.41,-0.39 -0.82,-0.78 -1.24,-1.19 -7.14,-7.48 -11.73,-17.72 -16.09,-26.98 -0.21,-0.44 -0.42,-0.89 -0.64,-1.34 -8.62,-18.41 -8.48,-38.53 -1.83,-57.52 1.05,-2.6 2.3,-5.04 3.59,-7.54 1.52,-2.97 1.52,-2.97 1.42,-6.17 -0.74,-1.46 -1.57,-2.68 -2.54,-3.99 -1.63,-4.91 -1.6,-11.74 0.45,-16.53 0.54,-1 1.12,-2 1.72,-2.97 0.3,-0.52 0.62,-1.05 0.93,-1.58 5.86,-9.38 14.88,-18.57 25.68,-21.95 6.59,-1.29 12.22,-0.28 18.18,2.59 2.16,1 2.16,1 4.13,-0.19 0.79,-0.44 1.59,-0.89 2.41,-1.35 30.14,-15.9 67.99,-5.96 92.89,15.48zm-89.32 -6c0.31,0.3 0.62,0.59 0.94,0.9 1.42,1.38 2.84,2.77 4.25,4.16 0.73,0.7 0.73,0.7 1.47,1.41 6.37,6.28 9.96,12.91 10.17,22.01 -0.33,9.93 -2.66,19.7 -9.61,27.13 -8.98,6.73 -19.31,8.65 -30.34,7.94 -10.2,-1.71 -17.64,-9.46 -24.56,-16.61 -3.85,8.33 -6.84,17.49 -7.22,26.72 -0.04,0.75 -0.08,1.49 -0.11,2.26 -0.32,11.79 2.89,21.95 8.06,32.41 0.86,1 0.86,1 3.25,0.95 6.21,-0.11 11.99,-3.83 16.25,-8.17 1.35,-2.3 1.48,-3.37 1.08,-6.02 -0.22,-0.86 -0.45,-1.72 -0.68,-2.6 -0.89,-3.42 -1.41,-5.99 -0.4,-9.43 2.17,-1.44 2.17,-1.44 4.38,-1.4 1.04,0.34 1.04,0.34 2.12,0.68 1.38,2.7 1.91,5.53 2.5,8.49 0.19,0.93 0.38,1.86 0.57,2.81 0.19,0.97 0.38,1.94 0.58,2.92 0.38,1.92 0.77,3.83 1.15,5.74 0.17,0.85 0.34,1.69 0.51,2.57 0.36,1.98 0.36,1.98 1.18,3.47 1.53,0.34 1.53,0.34 3.29,0.45 0.6,0.06 1.19,0.11 1.81,0.16 0.69,0.05 0.69,0.05 1.4,0.11 0.38,-0.85 0.75,-1.7 1.14,-2.57 5.05,-11.12 11.06,-21.39 19.08,-30.66 0.75,-0.87 0.75,-0.87 1.51,-1.76 13.52,-15.3 29.41,-27.2 48.32,-35.07 -0.24,-2.15 -0.47,-4.29 -0.72,-6.5 -0.76,-0.17 -1.51,-0.33 -2.3,-0.51 -2.81,-0.62 -5.62,-1.26 -8.43,-1.88 -1.21,-0.27 -2.43,-0.54 -3.65,-0.81 -1.75,-0.39 -3.49,-0.78 -5.24,-1.18 -0.55,-0.11 -1.09,-0.23 -1.66,-0.35 -3.85,-0.88 -3.85,-0.88 -5.46,-2.49 -0.27,-2.12 -0.27,-2.12 0,-4.33 1.18,-1.26 1.18,-1.26 2.89,-2.17 2.16,0.08 2.16,0.08 4.56,0.54 0.83,0.15 1.66,0.3 2.52,0.45 1.31,0.26 2.63,0.53 3.92,0.82 2.23,0.46 3.26,0.46 5.29,-0.64 4.24,-4.56 8.36,-10.23 8.4,-16.66 -0.05,-0.84 -0.09,-1.7 -0.14,-2.57 -4.43,-2.51 -9.01,-4.33 -13.81,-5.96 -0.55,-0.19 -1.09,-0.38 -1.64,-0.56 -13.4,-4.41 -35.15,-3.22 -46.66,5.8zm156.73 15.89c-0.4,0.29 -0.79,0.6 -1.2,0.9 -5.97,4.63 -8.98,8.83 -10.36,16.43 -0.1,0.48 -0.2,0.97 -0.3,1.47 -2.69,13.34 -6.3,33.92 1.02,46.2 1.68,1.23 1.68,1.23 3.61,1.44 1.61,-0.61 1.61,-0.61 2.89,-2.17 0.69,-2.09 0.96,-4.22 1.26,-6.4 0.15,-0.96 0.15,-0.96 0.3,-1.93 0.21,-1.37 0.41,-2.74 0.62,-4.12 0.51,-3.55 1.08,-7.08 1.63,-10.63 0.11,-0.69 0.22,-1.39 0.32,-2.1 0.85,-5.44 1.75,-10.86 2.82,-16.26 0.12,-0.67 0.25,-1.35 0.38,-2.04 0.12,-0.61 0.24,-1.22 0.37,-1.85 0.1,-0.51 0.2,-1.02 0.31,-1.55 1.64,-3.75 5.08,-5.76 8.53,-7.66 0.81,-0.46 1.62,-0.91 2.46,-1.38 0.84,-0.47 1.7,-0.94 2.54,-1.41 6.79,-3.73 12.65,-7.37 17.69,-13.31 4.66,-5.48 10.22,-10.1 15.97,-14.38 0.38,-0.31 0.75,-0.62 1.14,-0.93 0,-0.24 0,-0.47 0,-0.72 -18.52,-1.32 -37.89,11.7 -52,22.39zm-201.51 -1.44c-3.39,5.49 -3.39,5.49 -4.11,11.72 2.49,8.69 9,17.03 16.39,22.22 2.06,-0.95 3.61,-1.99 5.28,-3.52 1.7,-1.51 3.21,-2.57 5.28,-3.52 2.94,-1.58 3.78,-3.97 5.11,-6.93 1.56,-3.17 3.71,-5.76 6,-8.42 0.38,-0.46 0.75,-0.91 1.14,-1.38 3.52,-3.89 7.84,-5.89 12.58,-8.01 -6.51,-7.88 -14.29,-17.26 -25.15,-18.33 -9.11,0.31 -17.39,9.44 -22.52,16.17zm264.35 -4.33c-3.76,5.08 -7.2,9.91 -6.26,16.41 0.98,3.39 3.1,5.71 6.12,7.47 3.74,1.58 7.66,1.88 11.69,2.12 0.02,0.51 0.04,1.01 0.06,1.53 0.34,5.73 1.28,10.31 5.62,14.31 2.43,1.6 3.74,1.98 6.6,2.21 8.64,-2.08 15.87,-8.1 20.62,-15.44 2.54,-4.63 4.12,-8.86 3.93,-14.17 -0.7,0.04 -1.4,0.09 -2.12,0.13 -7.3,0.26 -12.23,-0.68 -17.97,-5.41 -4.17,-5.12 -6.03,-8.83 -5.96,-15.48 0,-0.85 0.01,-1.69 0.02,-2.57 0.01,-0.64 0.02,-1.28 0.03,-1.95 -9.12,-0.91 -16.45,4.26 -22.39,10.84zm32.5 -9.39c-1.81,2.7 -1.59,3.92 -1.16,7.01 0.89,3.37 3.05,5.19 5.72,7.34 2.65,1.11 4.9,1.42 7.72,0.82 2.41,-1.71 3.42,-2.74 4.06,-5.64 -0.82,-4.2 -2.91,-7.13 -6.19,-9.85 -4.01,-2.04 -6.48,-2.54 -10.15,0.32zm-39 1.44c-0.46,0.41 -0.91,0.82 -1.38,1.24 -2.93,2.65 -5.87,5.29 -8.87,7.87 -7.43,6.52 -12.06,13.54 -16.61,22.3 -0.38,0.71 -0.75,1.41 -1.14,2.14 -2.16,4.15 -3.88,8.18 -5.22,12.66 0.64,0.45 1.27,0.89 1.93,1.35 14.82,10.42 27.19,22.2 37.8,36.93 4.82,-1.45 9.23,-3.38 13.72,-5.64 0.9,-0.45 0.9,-0.45 1.84,-0.91 7.15,-3.59 12.83,-7.77 18.43,-13.49 0.57,-0.57 1.13,-1.15 1.72,-1.73 3.78,-3.86 7.36,-7.78 10.51,-12.17 -0.24,-0.48 -0.47,-0.95 -0.72,-1.45 -0.36,0.37 -0.73,0.74 -1.12,1.11 -10.46,9.91 -22.04,11.67 -35.94,11.37 -6.46,-0.25 -11.89,-1.28 -17.11,-5.26 -0.47,0 -0.95,0 -1.44,0 -0.2,-0.4 -0.4,-0.82 -0.61,-1.24 -0.56,-1.11 -1.13,-2.2 -1.71,-3.28 -0.46,-0.87 -0.46,-0.87 -0.93,-1.75 -0.3,-0.57 -0.61,-1.13 -0.93,-1.73 -4.45,-10.7 -3.43,-24.62 0.57,-35.33 2.08,-4.43 4.37,-8.19 7.94,-11.56 -0.36,-0.71 -0.36,-0.71 -0.72,-1.44zm-141.56 4.34c-0.21,0.59 -0.42,1.18 -0.64,1.8 -1.95,5.31 -4.2,10.07 -7.31,14.81 0.67,0.28 1.34,0.57 2.03,0.86 2.62,1.49 3.21,2.23 4.47,4.92 0.45,2.08 0.64,4.16 0.81,6.28 0.05,0.63 0.11,1.26 0.17,1.9 0.7,8.27 0.98,16.57 1.28,24.86 0.06,1.64 0.13,3.28 0.18,4.92 0.16,3.96 0.31,7.92 0.45,11.88 3.38,0.22 3.38,0.22 6.23,-1.44 9.09,-11.49 8.33,-29.09 8.44,-43.02 0.02,-0.91 0.03,-1.82 0.04,-2.76 0,-6.46 -0.1,-13.35 -4.64,-18.37 -5.21,-4.61 -5.21,-4.61 -11.51,-6.64zm-65 18.05c-8.5,2.83 -13.22,9.84 -17.34,17.34 -0.68,1.99 -0.68,1.99 -1.08,3.79 -0.41,1.53 -0.41,1.53 -1.08,2.71 -1.65,0.7 -3.12,0.94 -4.89,1.16 -2.28,0.4 -3.59,1.6 -5.22,3.18 0.24,0.71 0.48,1.43 0.72,2.17 8.59,0.29 16,-0.54 23.11,-5.78 6.17,-6.78 7.41,-14.98 7.23,-23.83 -0.48,-0.24 -0.95,-0.47 -1.44,-0.72zm163.23 11.56c-1.15,2 -1.54,3 -1.18,5.28 0.15,0.4 0.31,0.81 0.46,1.22 1.43,0.35 1.43,0.35 2.89,0.72 0.6,-1.42 1.2,-2.83 1.81,-4.25 0.33,-0.79 0.67,-1.57 1.01,-2.38 0.88,-1.9 0.88,-1.9 0.8,-3.48 -2.46,0 -3.89,1.43 -5.78,2.89zm-72.95 2.89c-0.7,3.5 -0.92,6.99 -1.15,10.55 -0.73,10.96 -1.96,20.62 -7.39,30.36 -1,1.72 -1,1.72 -0.84,3.87 0.93,1.15 0.93,1.15 2.19,2.24 0.68,0.64 0.68,0.64 1.37,1.3 0.96,0.88 1.92,1.76 2.89,2.63 0.46,0.44 0.91,0.86 1.38,1.31 0.42,0.38 0.84,0.77 1.27,1.17 1.53,2.22 1.69,3.83 1.73,6.52 -1.31,1.89 -2.47,3.24 -4.1,4.8 -0.45,0.46 -0.89,0.9 -1.35,1.37 -1.47,1.49 -2.97,2.95 -4.46,4.41 -1.03,1.03 -2.06,2.05 -3.08,3.08 -2.16,2.15 -4.32,4.29 -6.5,6.43 -2.78,2.74 -5.55,5.49 -8.32,8.26 -2.12,2.12 -4.25,4.23 -6.38,6.35 -1.03,1.01 -2.04,2.03 -3.07,3.04 -1.42,1.42 -2.86,2.83 -4.3,4.24 -0.64,0.64 -0.64,0.64 -1.28,1.28 -2.22,2.15 -3.83,3.59 -7,3.69 -3.48,-1.49 -5.93,-4.32 -8.53,-7 -0.43,-0.43 -0.87,-0.88 -1.31,-1.33 -1.06,-1.07 -2.12,-2.15 -3.16,-3.23 -0.56,0.28 -1.11,0.56 -1.68,0.84 -1.16,0.57 -1.16,0.57 -2.34,1.14 -0.75,0.37 -1.5,0.74 -2.26,1.12 -8.42,3.58 -17.15,4.67 -26.18,5.38 -1.06,0.09 -2.13,0.18 -3.19,0.27 -2.56,0.22 -5.12,0.43 -7.68,0.63 -1.81,14.25 -0.83,28.59 2.17,42.61 1.31,-0.07 2.61,-0.15 3.92,-0.22 1.17,-0.07 2.33,-0.12 3.48,-0.19 3.06,-0.16 6.11,-0.34 9.16,-0.54 25.15,-1.62 25.15,-1.62 33.27,5.29 1.62,1.89 1.62,1.89 2.89,3.61 0.48,0.48 0.95,0.95 1.44,1.44 0.53,-0.68 1.06,-1.38 1.61,-2.08 0.71,-0.91 1.42,-1.83 2.14,-2.75 0.35,-0.45 0.69,-0.9 1.05,-1.37 1.03,-1.32 2.08,-2.62 3.14,-3.91 0.58,-0.72 1.15,-1.44 1.75,-2.18 1.86,-1.43 1.86,-1.43 4.32,-1.51 2.98,0.92 5,2.34 7.34,4.32 0.88,0.72 1.76,1.44 2.63,2.16 0.45,0.37 0.89,0.75 1.36,1.13 2.3,1.9 4.67,3.73 7.03,5.57 5.16,4.04 5.16,4.04 5.49,6.48 -0.4,3.74 -1.9,5.39 -4.31,8.14 -0.8,0.95 -1.6,1.9 -2.39,2.85 -0.38,0.46 -0.77,0.91 -1.17,1.37 -1.44,1.7 -2.8,3.45 -4.16,5.22 -0.39,0.51 -0.78,1.01 -1.18,1.53 -0.27,0.34 -0.53,0.68 -0.8,1.04 2.08,1.48 2.08,1.48 4.24,2.35 4.21,2.35 6.7,6.07 8.04,10.65 3.18,13.38 1.31,27.66 0,41.17 1.55,0.35 3.1,0.69 4.65,1.04 0.86,0.19 1.73,0.38 2.61,0.58 6.59,1.32 13.11,1.37 19.82,1.35 0.92,0.01 1.83,0.01 2.77,0.02 8.02,0.34 8.02,0.34 15.64,-1.55 0.01,-1.11 0.01,-1.11 0.02,-2.24 0.03,-2.82 0.07,-5.64 0.13,-8.46 0.02,-1.21 0.03,-2.41 0.04,-3.62 0.11,-11.89 0.82,-24.6 8.83,-34.02 3.49,-2.88 6.46,-3.22 10.88,-3.11 3.44,0.35 5.43,1.64 7.76,4.11 2.24,3.39 2.18,7.06 2.46,11.03 0.06,0.92 0.06,0.92 0.14,1.85 0.14,1.95 0.28,3.9 0.42,5.85 0.14,1.95 0.28,3.89 0.43,5.84 0.09,1.21 0.17,2.42 0.26,3.63 0.23,3.05 0.56,6.03 1.12,9.04 13.27,-4.02 24.9,-14.34 34.67,-23.83 0.4,-0.38 0.79,-0.77 1.2,-1.15 3.1,-3.03 5.84,-6.22 8.45,-9.68 0.4,-0.53 0.81,-1.06 1.22,-1.61 8.06,-10.03 8.06,-10.03 12.24,-21.51 -2.99,-0.29 -5.98,-0.59 -8.97,-0.89 -1.01,-0.1 -2.02,-0.2 -3.04,-0.3 -1.47,-0.15 -2.95,-0.29 -4.43,-0.44 -0.48,-0.04 -0.97,-0.09 -1.48,-0.15 -2.51,-0.24 -5.01,-0.44 -7.51,-0.58 -0.73,-0.04 -0.73,-0.04 -1.48,-0.09 -1.35,-0.08 -2.69,-0.15 -4.02,-0.21 -3.38,-0.36 -5.3,-1.16 -8.07,-3.13 -2.61,-3.27 -2.54,-6.87 -2.41,-10.91 0.44,-3.84 1.57,-5.89 4.57,-8.31 8.24,-5.47 18.08,-6.79 27.76,-7.01 0.55,-0.02 1.11,-0.03 1.68,-0.04 1.74,-0.04 3.48,-0.09 5.23,-0.13 1.19,-0.04 2.39,-0.07 3.58,-0.09 2.9,-0.08 5.8,-0.15 8.7,-0.22 1.19,-6.06 1.7,-11.89 1.67,-18.06 0,-0.84 0,-1.68 -0.01,-2.55 -0.09,-8.01 -0.55,-16.51 -3.1,-24.17 -0.77,0.04 -1.52,0.09 -2.3,0.13 -0.5,0.03 -1,0.06 -1.51,0.09 -1.11,0.07 -2.23,0.14 -3.34,0.22 -2.69,0.19 -5.24,0.28 -7.95,0.12 -5.56,-0.21 -8.54,0.9 -12.6,4.57 -1.92,1.87 -3.77,3.8 -5.6,5.75 -1.82,1.89 -3.79,3.59 -5.78,5.29 -1.91,1.64 -3.76,3.34 -5.6,5.05 -3.27,3.01 -6.56,6.01 -9.87,8.98 -1.24,1.11 -2.47,2.23 -3.7,3.36 -0.63,0.58 -1.26,1.15 -1.91,1.75 -0.84,0.78 -0.84,0.78 -1.71,1.58 -2.7,2.26 -4.35,3.59 -7.95,3.53 -0.78,-0.22 -1.58,-0.45 -2.39,-0.68 -0.52,-0.95 -1,-1.91 -1.44,-2.89 -0.8,-0.95 -1.63,-1.87 -2.49,-2.76 -0.49,-0.52 -0.99,-1.04 -1.5,-1.57 -0.52,-0.54 -1.03,-1.08 -1.57,-1.62 -3.38,-3.52 -6.7,-7.06 -9.89,-10.75 -2.04,-2.35 -4.17,-4.62 -6.28,-6.9 -5.6,-6.05 -5.6,-6.05 -6.12,-8.89 0.55,-2.96 1.76,-3.81 4.01,-5.78 0.8,-0.81 1.6,-1.62 2.39,-2.44 2.16,-2.16 4.42,-4.18 6.73,-6.17 2.17,-1.91 4.29,-3.87 6.41,-5.84 2.93,-2.72 5.88,-5.4 8.91,-8.01 2.12,-1.87 4.18,-3.79 6.26,-5.71 7.15,-6.62 7.15,-6.62 10.47,-9.39 0.43,-0.37 0.86,-0.74 1.32,-1.13 1.95,-1.56 3.24,-2.48 5.78,-2.48 3.12,1 4.57,2.75 6.66,5.2 0.36,0.4 0.73,0.82 1.11,1.24 1.43,1.62 2.84,3.22 4.12,4.95 1.76,2.4 1.76,2.4 4.46,3.4 0.64,-0.09 1.29,-0.2 1.96,-0.29 1.11,-0.15 1.11,-0.15 2.25,-0.32 0.88,-0.15 1.75,-0.3 2.66,-0.45 1.14,-0.17 2.28,-0.33 3.43,-0.5 1.19,-0.18 2.37,-0.36 3.57,-0.54 0.87,-0.13 0.87,-0.13 1.75,-0.27 1.42,-0.24 2.84,-0.54 4.25,-0.86 0.24,-0.48 0.48,-0.95 0.72,-1.45 -0.96,-1.83 -1.96,-3.54 -3.07,-5.28 -0.32,-0.52 -0.66,-1.04 -0.99,-1.57 -3.03,-4.67 -6.42,-8.89 -10.14,-13.01 -0.95,-1.06 -1.87,-2.13 -2.79,-3.2 -4.08,-4.65 -8.44,-8.56 -13.34,-12.33 -0.69,-0.54 -1.37,-1.08 -2.07,-1.65 -8.32,-6.96 -8.32,-6.96 -18.15,-10.63 -1.15,5.22 -2.13,10.45 -2.88,15.75 -0.18,1.3 -0.18,1.3 -0.37,2.62 -0.24,1.73 -0.47,3.47 -0.7,5.2 -1.26,9.09 -1.26,9.09 -4.9,12.73 -3.91,2.48 -7.5,3.05 -12.01,2.36 -3.2,-0.78 -5.13,-2.08 -6.89,-4.88 -7.37,-14.09 -4.67,-30.11 -3.32,-45.33 -12.81,-2.07 -25.36,-3.1 -38.28,-1.44zm115.56 1.44c0.1,4.01 0.54,7.26 3.08,10.47 2.9,2.54 6.81,3.98 10.64,3.98 -0.15,-0.42 -0.28,-0.84 -0.43,-1.27 -0.19,-0.57 -0.37,-1.13 -0.57,-1.71 -0.2,-0.59 -0.41,-1.19 -0.62,-1.79 -0.55,-1.73 -0.55,-1.73 -0.95,-4.17 -1.3,-2.37 -2.03,-2.4 -4.56,-3.16 -0.62,-0.15 -1.24,-0.29 -1.89,-0.44 -1.74,-0.44 -3.13,-1.05 -4.7,-1.91zm-186.25 33.4c-15.81,15.91 -15.81,15.91 -23.92,35.93 2.86,0.24 5.72,0.47 8.67,0.72 -0.22,-0.84 -0.45,-1.67 -0.68,-2.53 -0.22,-1.89 -0.28,-2.88 0.74,-4.5 0.38,-0.42 0.77,-0.83 1.17,-1.26 0.47,-0.5 0.93,-1 1.41,-1.52 0.56,-0.58 1.12,-1.16 1.7,-1.75 0.66,-0.68 1.31,-1.36 1.99,-2.07 2.38,-2.45 4.78,-4.88 7.18,-7.32 0.44,-0.44 0.87,-0.88 1.31,-1.33 2.3,-2.32 4.6,-4.64 6.91,-6.96 1.9,-1.9 3.79,-3.83 5.68,-5.75 2.29,-2.34 4.6,-4.66 6.9,-6.98 0.88,-0.88 1.75,-1.76 2.61,-2.65 1.21,-1.23 2.43,-2.46 3.66,-3.68 0.35,-0.37 0.71,-0.74 1.07,-1.11 2.59,-2.54 4.61,-3.19 8.2,-3.31 0.71,0.24 1.43,0.47 2.17,0.72 0,-3.1 0,-6.2 0,-9.39 -12.27,0 -28.73,16.84 -36.75,24.74zm246.92 -16.07c-0.87,1.03 -1.71,2.09 -2.53,3.16 -5.66,7.14 -11.87,14.09 -18.72,20.13 -1.64,1.81 -2.76,3.88 -3.97,5.99 -0.26,0.46 -0.53,0.92 -0.8,1.39 -0.84,1.45 -1.68,2.91 -2.51,4.37 -1.11,1.92 -2.21,3.83 -3.32,5.76 -0.25,0.44 -0.5,0.88 -0.76,1.33 -2.97,5.14 -2.97,5.14 -6.52,6.32 -0.94,0.23 -1.88,0.46 -2.83,0.67 -0.51,0.12 -1.02,0.25 -1.54,0.37 -5.29,1.23 -10.62,2.18 -15.97,3.07 -1.61,0.27 -3.22,0.54 -4.83,0.82 -5.99,1.01 -11.97,1.89 -18,2.59 -2.03,0.35 -3.41,0.67 -5.1,1.82 -0.78,2.1 -0.78,2.1 -0.72,4.33 2.47,3.38 6.97,3.67 10.84,4.34 3.31,0.28 6.6,0.31 9.93,0.27 0.9,0 1.81,-0.01 2.74,-0.02 5.95,-0.09 11.84,-0.45 17.75,-1.16 0.68,-0.08 1.36,-0.16 2.06,-0.24 9.31,-1.27 16.49,-4.33 22.27,-11.84 10.85,-14.9 24.41,-34.21 23.26,-53.46 -0.24,0 -0.48,0 -0.72,0zm-214.51 10.83c-12.39,12.39 -24.79,24.79 -37.56,37.56 2.93,4.39 2.93,4.39 5.71,4.84 1.08,-0.01 1.08,-0.01 2.2,-0.01 4.51,0.17 7.14,0.78 10.38,4.1 1.29,2.77 1.28,4.1 1.26,7.09 0.16,4.5 1.54,6.5 4.69,9.48 1.29,1.17 2.59,2.28 3.93,3.39 4.54,-3.75 8.67,-7.86 12.81,-12.03 0.75,-0.74 1.48,-1.48 2.22,-2.22 1.93,-1.93 3.85,-3.86 5.77,-5.79 1.97,-1.97 3.94,-3.95 5.91,-5.92 3.85,-3.87 7.7,-7.74 11.56,-11.6 -0.43,-0.5 -0.43,-0.5 -0.88,-1.02 -0.38,-0.45 -0.77,-0.89 -1.17,-1.36 -0.38,-0.44 -0.77,-0.88 -1.15,-1.34 -0.74,-0.87 -1.47,-1.76 -2.18,-2.66 -1.57,-1.96 -2.64,-2.9 -5.18,-3.34 -1.38,-0.09 -2.77,-0.15 -4.16,-0.21 -3.43,-0.34 -5.34,-2.07 -7.54,-4.56 -1.1,-2.71 -1.06,-5.14 -1.01,-8.03 -0.6,-2.87 -0.6,-2.87 -5.62,-6.37zm170.72 24.2c-0.72,0.33 -1.44,0.67 -2.19,1.02 -0.56,0.26 -1.11,0.52 -1.68,0.78 0.24,1.19 0.47,2.39 0.72,3.61 2.41,0.16 2.41,0.16 5.05,-0.72 1.54,-2.02 2.59,-4.18 3.61,-6.5 -2.11,0 -3.6,0.92 -5.51,1.81zm-55.52 11.88c-0.79,0.73 -1.58,1.46 -2.37,2.2 -0.39,0.37 -0.79,0.74 -1.19,1.11 -1.59,1.49 -3.21,2.95 -4.84,4.4 -0.58,0.53 -1.16,1.05 -1.76,1.59 -0.58,0.52 -1.16,1.04 -1.75,1.57 -1.2,1.08 -2.41,2.17 -3.61,3.25 -1.79,1.61 -3.58,3.22 -5.37,4.83 -4.74,4.25 -9.45,8.56 -14.14,12.87 2.46,3.48 5.05,6.59 8.1,9.56 1.73,1.73 3.32,3.57 4.91,5.42 2.83,3.24 5.75,6.41 8.65,9.58 2.75,-0.94 4.38,-1.99 6.36,-4.11 1.84,-1.91 3.68,-3.74 5.69,-5.46 3.07,-2.65 6.05,-5.42 9.03,-8.18 2.66,-2.48 5.38,-4.89 8.17,-7.24 1.26,-1.11 1.26,-1.11 2.52,-3.18 -0.57,-0.16 -1.13,-0.33 -1.72,-0.51 -5.47,-1.7 -9.99,-3.14 -13.4,-7.98 -1.64,-5.01 -1.11,-9.22 1.19,-13.94 1.43,-2.17 2.99,-3.11 5.27,-4.3 -0.69,-0.85 -1.38,-1.69 -2.08,-2.53 -0.38,-0.47 -0.77,-0.94 -1.16,-1.42 -0.36,-0.36 -0.72,-0.73 -1.09,-1.1 -2.4,0 -3.76,1.99 -5.42,3.57zm-201.06 7.81c-3.16,2.15 -6.3,3.44 -9.92,4.62 -1.88,0.6 -1.88,0.6 -3.89,2.06 0.88,1.37 1.77,2.74 2.66,4.11 0.49,0.76 0.98,1.53 1.5,2.31 2.99,4.17 6.1,7.16 11.19,8.43 4.29,0.69 8.7,0.49 13.04,0.5 0.53,0 1.06,0 1.61,0 21.94,0.35 21.94,0.35 41.5,-8.12 1.55,-2.33 1.65,-3.09 1.44,-5.78 -1.14,-1.14 -2.32,-0.86 -3.9,-0.91 -1.02,-0.04 -1.02,-0.04 -2.06,-0.07 -0.75,-0.02 -1.49,-0.04 -2.26,-0.07 -1.58,-0.05 -3.16,-0.11 -4.74,-0.17 -2.48,-0.09 -4.97,-0.17 -7.45,-0.25 -8.11,-0.27 -16.21,-0.56 -24.28,-1.37 -0.57,-0.05 -1.12,-0.11 -1.69,-0.16 -2.61,-0.29 -4.86,-0.57 -7.06,-2.04 -0.99,-1.62 -1.5,-3.27 -2.17,-5.05 -1.35,0 -2.47,1.23 -3.52,1.99zm244.76 73.85c-0.91,2.72 -0.8,5.25 -0.77,8.08 0,0.54 0,1.08 0.01,1.64 0.01,1.34 0.02,2.66 0.04,4 0.6,0.07 1.19,0.14 1.81,0.22 2.23,0.27 4.45,0.56 6.67,0.86 1.43,0.19 2.87,0.36 4.3,0.53 0.9,0.11 1.81,0.24 2.74,0.36 0.83,0.11 1.67,0.22 2.52,0.33 2.53,0.69 3.48,1.43 5.07,3.48 0.72,2.01 1.3,3.9 1.81,5.96 0.15,0.57 0.3,1.14 0.45,1.73 0.31,1.19 0.61,2.37 0.91,3.56 0.42,1.65 0.87,3.3 1.32,4.94 1.35,5.02 2.39,9.63 2.02,14.86 -2.15,0 -4.29,0 -6.5,0 -2.41,-4.93 -3.54,-10.16 -4.83,-15.48 -0.23,-0.95 -0.47,-1.9 -0.7,-2.85 -0.57,-2.31 -1.13,-4.63 -1.69,-6.94 -0.95,0 -1.91,0 -2.89,0 -0.33,0.7 -0.66,1.4 -1.01,2.12 -5.42,11.2 -11.62,21.11 -19.93,30.38 -0.55,0.64 -1.1,1.28 -1.67,1.94 -11.82,13.54 -26.88,23.71 -43.11,31.29 0,0.71 0,1.43 0,2.17 0.76,0.19 1.53,0.38 2.31,0.57 2.82,0.71 5.64,1.42 8.45,2.12 1.22,0.31 2.44,0.62 3.66,0.92 1.76,0.44 3.5,0.88 5.25,1.33 0.55,0.13 1.11,0.27 1.67,0.4 1.32,0.34 2.63,0.74 3.94,1.15 1.17,2.32 0.77,4.65 0.72,7.23 -6.1,0.35 -11.58,-0.78 -17.44,-2.27 -1.57,-0.4 -3.14,-0.77 -4.72,-1.14 -1,-0.25 -2.01,-0.5 -3.03,-0.75 -0.9,-0.23 -1.81,-0.45 -2.74,-0.68 -2.78,-1.08 -4.16,-2.24 -6.02,-4.55 -0.6,-1.57 -0.6,-1.57 -0.8,-3.13 -0.13,-0.87 -0.13,-0.87 -0.26,-1.75 -0.07,-0.6 -0.14,-1.19 -0.21,-1.81 -0.08,-0.58 -0.16,-1.17 -0.25,-1.77 -0.53,-3.91 -0.95,-7.85 -1.38,-11.77 -1.61,-0.02 -3.22,-0.04 -4.83,-0.04 -0.9,-0.01 -1.79,-0.02 -2.72,-0.03 -2.19,0.06 -4.05,0.33 -6.18,0.79 -0.06,3.08 -0.1,6.17 -0.14,9.25 -0.01,0.87 -0.04,1.73 -0.06,2.61 -0.05,7.06 0.44,14.36 5.25,19.91 11.64,11.04 32.1,22.41 48.39,23.11 0.71,0.04 1.41,0.07 2.14,0.11 5.04,0.14 9.82,-0.26 14.79,-1.06 0.53,-0.09 1.08,-0.18 1.62,-0.26 3.47,-0.6 6.42,-1.62 9.62,-3.13 -2.39,-2.44 -4.87,-4.71 -7.45,-6.95 -6.76,-6.12 -12.26,-13.2 -12.93,-22.54 -0.15,-10.25 1.84,-19.98 8.28,-28.2 9.77,-7.55 19.56,-9.94 31.71,-9.37 10.07,1.3 16.66,9.1 23.32,16.06 1.32,1.37 2.66,2.72 4.02,4.06 6.16,-15.12 5.38,-31.33 -0.64,-46.31 -4.18,-9.85 -9.39,-18.91 -15.97,-27.35 -0.44,-0.58 -0.44,-0.58 -0.88,-1.18 -1.99,-2.57 -3.59,-3.83 -6.66,-4.82 -0.66,-0.22 -1.31,-0.44 -1.99,-0.67 -3.59,-0.97 -7.01,-1.37 -10.74,-1.34 -0.8,0 -1.6,0 -2.43,0 -1.24,0.01 -1.24,0.01 -2.5,0.02 -1.26,0 -1.26,0 -2.55,0.01 -2.06,0.01 -4.14,0.02 -6.2,0.04zm-28.17 5.05c-1.55,2.33 -1.66,3.09 -1.44,5.78 2.28,2.28 9.17,1.44 12.21,1.49 2.43,0 4.85,-0.02 7.29,-0.04 0.24,-4.05 0.47,-8.1 0.72,-12.28 -6.28,0 -13.51,1.68 -18.78,5.05zm-127.12 1.44c-0.25,0.33 -0.51,0.65 -0.77,0.99 -6.49,8.34 -12.97,16.67 -19.46,25.01 2.48,2.55 5.04,4.85 7.81,7.09 0.71,0.57 1.41,1.14 2.14,1.73 0.53,0.43 1.06,0.86 1.61,1.3 3.27,-1.14 4.91,-3.72 6.95,-6.36 0.57,-0.72 0.57,-0.72 1.15,-1.46 1.15,-1.48 2.31,-2.97 3.46,-4.46 0.35,-0.46 0.7,-0.9 1.06,-1.37 1.54,-1.99 3.08,-3.99 4.6,-6 1.46,-1.89 2.95,-3.77 4.45,-5.63 -1.12,-3.13 -3.53,-4.73 -6.1,-6.64 -0.42,-0.33 -0.84,-0.65 -1.28,-0.99 -1.86,-1.41 -3.4,-2.47 -5.63,-3.21zm-66.41 2.71c-0.71,0.12 -1.41,0.23 -2.14,0.34 -9.8,1.78 -15.57,5.22 -21.37,13.38 -0.82,1.23 -1.64,2.47 -2.45,3.7 -0.43,0.67 -0.87,1.32 -1.31,2 -13.24,19.96 -13.24,19.96 -17.55,42.87 2.57,-2.46 4.72,-4.99 6.82,-7.86 4.31,-5.71 9.14,-10.85 14.12,-15.98 0.59,-0.61 1.19,-1.23 1.79,-1.86 19.47,-20.04 19.47,-20.04 31.43,-22.7 0.51,-0.11 1.03,-0.24 1.57,-0.35 7.79,-1.75 15.6,-3.01 23.53,-3.89 4.76,-0.56 4.76,-0.56 8.85,-2.98 0.3,-2.26 0.3,-2.26 0,-4.33 -0.89,-0.47 -1.78,-0.94 -2.66,-1.4 -0.75,-0.39 -0.75,-0.39 -1.5,-0.79 -5.05,-2.2 -10.84,-1.63 -16.24,-1.65 -0.53,-0 -1.06,-0 -1.6,-0 -7.18,-0.01 -14.18,0.35 -21.29,1.49zm25.99 19.71c-1.52,0.24 -3.03,0.49 -4.56,0.74 -0.97,0.16 -1.93,0.31 -2.9,0.47 -0.88,0.15 -1.76,0.29 -2.66,0.43 -2.3,0.38 -2.3,0.38 -4.35,1.94 3.94,6.39 8.06,12.37 13,18.06 0.5,0.59 1,1.19 1.53,1.79 8.01,9.21 18.18,19.28 29.53,24.21 0.71,0 1.43,0 2.17,0 0.47,-2.51 0.93,-5.03 1.4,-7.54 0.13,-0.7 0.26,-1.41 0.4,-2.13 0.78,-4.23 1.39,-8.43 1.81,-12.72 -0.71,-0.14 -1.41,-0.28 -2.13,-0.42 -3.7,-1.06 -6.36,-3.41 -9.29,-5.81 -0.57,-0.45 -1.14,-0.9 -1.73,-1.37 -1.64,-1.31 -3.28,-2.63 -4.91,-3.95 -0.81,-0.64 -1.62,-1.29 -2.43,-1.93 -4.57,-3.62 -4.57,-3.62 -5.52,-4.57 0.27,-3.46 0.9,-5.82 2.89,-8.67 -4.15,0 -8.16,0.79 -12.25,1.47zm-23.87 6.48c-0.35,0.36 -0.7,0.71 -1.06,1.08 -0.49,0.49 -0.97,0.98 -1.47,1.49 -0.47,0.47 -0.94,0.95 -1.42,1.45 -1.44,1.38 -2.9,2.68 -4.42,3.98 -3.95,3.43 -7.66,7.12 -11.36,10.81 -0.36,0.37 -0.73,0.74 -1.12,1.11 -5.55,5.56 -10.77,11.17 -15.27,17.62 -0.28,0.4 -0.57,0.8 -0.85,1.2 -7.44,10.62 -15,23.71 -13.6,37.08 1.61,8.78 6.68,15.96 13.7,21.31 7.5,5.01 15.89,5.99 24.67,4.25 2.22,-0.68 4.28,-1.5 6.41,-2.44 0.43,-0.19 0.85,-0.38 1.3,-0.57 19.97,-8.85 45.46,-28.45 55.76,-47.83 -0.47,-0.24 -0.95,-0.48 -1.44,-0.72 -0.36,0.49 -0.73,0.98 -1.12,1.48 -10,12.8 -24.03,21.85 -40.26,24.32 -7.3,0.76 -15.41,0.49 -22.19,-2.64 -2.17,-0.08 -3.21,1.19 -4.73,2.6 -0.4,0.39 -0.8,0.78 -1.21,1.19 -0.42,0.39 -0.84,0.78 -1.27,1.19 -2.54,2.43 -4.69,4.96 -6.77,7.79 -2.27,3 -2.27,3 -5.42,3.65 -2.25,-0.58 -2.25,-0.58 -3.7,-2.75 0,-4.35 2.4,-6.94 5.05,-10.11 0.4,-0.5 0.81,-0.99 1.24,-1.5 2.72,-3.21 5.61,-5.95 8.87,-8.61 -0.16,-0.51 -0.31,-1 -0.47,-1.52 -4.21,-15.38 -1.68,-30.31 6.14,-44.04 4.33,-7.14 9.97,-13.8 16.73,-18.71 -0.36,-1.08 -0.36,-1.08 -0.72,-2.17zm-1.46 16.6c-4.62,4.87 -9.33,11.41 -10.81,18.07 0.95,0.02 1.9,0.04 2.88,0.06 15.8,0.45 15.8,0.45 20.89,4.71 4.57,4.91 4.65,10.39 4.84,16.8 0.03,0.77 0.06,1.55 0.09,2.35 0.07,1.89 0.13,3.79 0.19,5.69 9.38,-3.24 20.45,-10.6 25.28,-19.5 -0.77,-0.56 -1.52,-1.12 -2.3,-1.7 -12.28,-9.16 -22.88,-18.8 -31.35,-31.67 -0.34,-0.42 -0.67,-0.86 -1.02,-1.3 -3.34,0 -6.42,4.27 -8.69,6.49zm70.8 -4.32c-0.58,2.19 -0.58,2.19 -0.87,4.73 -0.07,0.47 -0.14,0.94 -0.2,1.42 -0.15,1.01 -0.29,2.01 -0.43,3.02 -0.36,2.64 -0.76,5.26 -1.15,7.89 -0.08,0.52 -0.16,1.04 -0.24,1.57 -0.68,4.42 -1.54,8.79 -2.56,13.14 -0.14,0.58 -0.27,1.17 -0.41,1.77 -1.29,5.27 -3.28,9.83 -7.04,13.8 -0.57,0.61 -1.13,1.2 -1.71,1.83 -0.31,0.33 -0.63,0.66 -0.95,1 -1.17,1.24 -2.33,2.48 -3.49,3.74 -6.37,6.89 -12.78,13.66 -19.95,19.74 -0.75,0.64 -1.48,1.29 -2.23,1.93 -4.37,3.77 -8.72,7.32 -13.67,10.35 7.25,2.42 17.23,-2.49 23.7,-5.7 9.65,-4.9 18.92,-10.19 27.58,-16.69 1.08,-0.81 1.08,-0.81 2.19,-1.64 8.92,-7.3 9.48,-17.3 10.61,-28.1 0.07,-0.67 0.13,-1.35 0.2,-2.04 0.06,-0.68 0.14,-1.35 0.21,-2.04 1.74,-16.64 1.74,-16.64 -3.82,-31.9 -2.81,-0.57 -4.08,-0.08 -5.78,2.17zm77.64 1.94c-4.41,4.79 -5.05,12.79 -5.42,19 6.08,-0.36 6.08,-0.36 12.28,-0.72 -0.09,-2.98 -0.17,-5.96 -0.27,-8.94 -0.02,-0.85 -0.04,-1.7 -0.07,-2.57 -0.03,-0.81 -0.05,-1.62 -0.09,-2.45 -0.03,-1.12 -0.03,-1.12 -0.06,-2.27 -0.06,-1.94 -0.06,-1.94 -1.68,-3.27 -2.85,-0.27 -2.85,-0.27 -4.7,1.22zm92.09 20.45c-3.26,4.1 -5.24,8.5 -7.18,13.32 -3.27,8 -6.54,14.34 -14.49,18.46 -2.57,0.99 -2.57,0.99 -4.33,1.44 4.93,9.87 14.89,19.24 25.28,23.11 3.93,1.06 6.5,0.28 10.11,-1.44 8.15,-5.1 16.36,-12.28 19.5,-21.67 0.95,-6.16 -1.4,-10.36 -4.92,-15.21 -2.62,-3.26 -5.52,-6.23 -8.44,-9.21 -0.69,-0.7 -0.69,-0.7 -1.38,-1.41 -4.23,-4.23 -8.07,-6.89 -14.15,-7.39zm-13.72 2.17c-5.79,2.3 -9.12,5.92 -11.56,11.56 -1.15,3.34 -2.17,6.56 -2.17,10.11 4.32,-0.93 6.21,-3.03 8.67,-6.5 1.33,-2.45 2.44,-4.98 3.52,-7.54 0.44,-1 0.44,-1 0.88,-2.01 0.71,-1.62 1.41,-3.26 2.1,-4.89 -0.48,-0.24 -0.95,-0.47 -1.44,-0.72zm-240.51 7.94c-0.26,6.96 -0.31,13.12 2.89,19.5 5.52,2.48 12.03,3.61 18.06,2.89 2.51,-2.51 1.74,-6.16 1.76,-9.57 0.02,-0.75 0.04,-1.5 0.07,-2.28 0.07,-4.76 0.07,-4.76 -2.08,-8.86 -2.43,-2.12 -4.09,-2.5 -7.2,-2.5 -0.6,0 -1.2,-0 -1.81,-0 -0.63,0 -1.25,0 -1.89,0 -0.93,0 -0.93,0 -1.88,-0 -0.9,0 -0.9,0 -1.82,0 -0.55,0 -1.09,0 -1.65,0 -1.57,0.09 -2.94,0.39 -4.44,0.82z"
                            />
                            <path
                              class="fil0"
                            fill="#ffffff"

                              d="M207.36 116.7c2.17,0.27 2.17,0.27 3.52,1.04 1.29,2.23 1.06,3.92 0.81,6.46 -1.11,1.67 -2.11,2.94 -3.47,4.38 -0.74,0.82 -1.47,1.63 -2.2,2.45 -0.38,0.42 -0.75,0.84 -1.14,1.27 -1.81,2.07 -3.47,4.25 -5.14,6.43 -1.3,1.66 -2.62,3.32 -3.93,4.97 -0.48,0.6 -0.48,0.6 -0.97,1.22 -0.93,1.14 -1.87,2.26 -2.83,3.39 -0.54,0.64 -1.08,1.29 -1.64,1.95 -2.39,1.84 -3.9,1.73 -6.85,1.39 -1.44,-1.18 -1.44,-1.18 -2.17,-2.89 0.24,-3.59 1.27,-5.4 3.61,-8.08 0.59,-0.69 1.18,-1.38 1.79,-2.09 0.6,-0.69 1.2,-1.39 1.82,-2.1 1.06,-1.29 2.11,-2.59 3.16,-3.89 2.5,-3.06 5.04,-6.1 7.59,-9.11 0.33,-0.41 0.66,-0.8 1.01,-1.22 4.43,-5.24 4.43,-5.24 7.02,-5.56z"
                            />
                            <path
                              class="fil0"
                            fill="#ffffff"

                              d="M118.52 233.98c1.44,2.17 1.44,2.17 1.22,4.42 -0.5,2.08 -0.5,2.08 -1.22,2.8 -2.48,0.14 -2.48,0.14 -5.05,0 -1.44,-1.44 -1.44,-1.44 -1.72,-3.57 0.27,-2.21 0.27,-2.21 1.5,-3.61 2.12,-0.97 3.1,-0.84 5.28,-0.04z"
                            />
                            <path
                              class="fil0"
                            fill="#ffffff"

                              d="M107.69 106.14c2.57,0.18 2.57,0.18 5.05,0.72 1,1.99 0.86,3.58 0.72,5.78 -1.44,1.44 -1.44,1.44 -3.57,1.72 -2.21,-0.27 -2.21,-0.27 -3.61,-1.5 -0.97,-2.11 -0.79,-3.1 -0.04,-5.28 0.47,-0.48 0.95,-0.95 1.44,-1.44z"
                            />
                          </g>
                        </g>
                      </svg>