<?xml version="1.0" encoding="UTF-8"?>
<!DOCTYPE svg PUBLIC "-//W3C//DTD SVG 1.1//EN" "http://www.w3.org/Graphics/SVG/1.1/DTD/svg11.dtd">
<!-- Creator: CorelDRAW 2021 (64-Bit) -->
<svg xmlns="http://www.w3.org/2000/svg" xml:space="preserve" width="0.766055in" height="1.39326in" version="1.1" style="shape-rendering:geometricPrecision; text-rendering:geometricPrecision; image-rendering:optimizeQuality; fill-rule:evenodd; clip-rule:evenodd"
viewBox="0 0 1196.29 2175.75"
 xmlns:xlink="http://www.w3.org/1999/xlink"
 xmlns:xodm="http://www.corel.com/coreldraw/odm/2003">
 <defs>
  <style type="text/css">
   <![CDATA[
    .str0 {stroke:#00B425;stroke-width:66.71;stroke-linecap:round;stroke-miterlimit:10}
    .fil2 {fill:none;fill-rule:nonzero}
    .fil0 {fill:#00008F;fill-rule:nonzero}
    .fil1 {fill:#00B425;fill-rule:nonzero}
    .fil3 {fill:white;fill-rule:nonzero}
   ]]>
  </style>
 </defs>
 <g id="Layer_x0020_1">
  <metadata id="CorelCorpID_0Corel-Layer"/>
  <g id="_2737663540144">
   <path class="fil0" d="M1018.87 391.19l0 572.46c0,76.94 -22.41,148.99 -61.33,209.66 -35.3,55.52 -83.99,101.49 -141.43,133.25 -55.91,30.97 -120.07,48.81 -188.08,48.81l-59.77 0c-68.27,0 -132.43,-17.84 -188.35,-48.81 -57.44,-31.76 -106.13,-77.72 -141.18,-133.25 -38.91,-60.67 -61.33,-132.71 -61.33,-209.66l0 -572.46c0,-77.98 23.2,-150.54 62.87,-211.73 35.56,-55.25 84.76,-100.96 142.48,-132.21 55.13,-30.2 118.52,-47.24 185.5,-47.24l59.77 0c66.98,0 130.11,17.04 185.23,47.24 57.98,31.24 107.19,76.96 142.74,132.21 39.68,61.19 62.86,133.75 62.86,211.73z"/>
   <path class="fil1" d="M75.7 2175.75c-41.94,-0.85 -75.7,-35.2 -75.7,-77.45l0 -102.91c0,-42.78 34.61,-77.46 77.29,-77.46l1041.71 0c42.67,0 77.29,34.68 77.29,77.46l0 102.91c0,42.24 -33.75,76.59 -75.7,77.45l-1044.9 0z"/>
   <path class="fil2 str0" d="M1106.61 590.86l0 438.78c0,0 5.11,444.02 -478.48,444.02l-59.97 0c-483.59,0 -478.48,-444.02 -478.48,-444.02l0 -438.78"/>
   <polygon class="fil1" points="664.48,1917.93 531.79,1917.93 531.79,1522.55 664.48,1522.55 "/>
   <polygon class="fil1" points="792.68,1571.43 403.62,1571.43 403.62,1473.67 792.68,1473.67 "/>
   <path class="fil3" d="M1018.87 417.01l-68.51 0c-14.24,0 -25.77,-11.56 -25.77,-25.82 0,-14.25 11.53,-25.82 25.77,-25.82l68.51 0c14.23,0 25.76,11.57 25.76,25.82 0,14.26 -11.53,25.82 -25.76,25.82zm-145.8 0l-77.29 0c-14.24,0 -25.76,-11.56 -25.76,-25.82 0,-14.25 11.52,-25.82 25.76,-25.82l77.29 0c14.23,0 25.75,11.57 25.75,25.82 0,14.26 -11.52,25.82 -25.75,25.82zm-154.58 0l-77.31 0c-14.24,0 -25.77,-11.56 -25.77,-25.82 0,-14.25 11.53,-25.82 25.77,-25.82l77.31 0c14.24,0 25.76,11.57 25.76,25.82 0,14.26 -11.52,25.82 -25.76,25.82zm-154.59 0l-77.29 0c-14.23,0 -25.76,-11.56 -25.76,-25.82 0,-14.25 11.53,-25.82 25.76,-25.82l77.29 0c14.23,0 25.76,11.57 25.76,25.82 0,14.26 -11.53,25.82 -25.76,25.82zm-154.58 0l-77.29 0c-14.25,0 -25.77,-11.56 -25.77,-25.82 0,-14.25 11.52,-25.82 25.77,-25.82l77.29 0c14.24,0 25.76,11.57 25.76,25.82 0,14.26 -11.52,25.82 -25.76,25.82zm-154.58 0l-77.29 0c-14.24,0 -25.76,-11.56 -25.76,-25.82 0,-14.25 11.52,-25.82 25.76,-25.82l77.29 0c14.24,0 25.76,11.57 25.76,25.82 0,14.26 -11.52,25.82 -25.76,25.82z"/>
   <path class="fil3" d="M1018.87 578.65l-68.51 0c-14.24,0 -25.77,-11.57 -25.77,-25.82 0,-14.28 11.53,-25.82 25.77,-25.82l68.51 0c14.23,0 25.76,11.55 25.76,25.82 0,14.25 -11.53,25.82 -25.76,25.82zm-145.8 0l-77.29 0c-14.24,0 -25.76,-11.57 -25.76,-25.82 0,-14.28 11.52,-25.82 25.76,-25.82l77.29 0c14.23,0 25.75,11.55 25.75,25.82 0,14.25 -11.52,25.82 -25.75,25.82zm-154.58 0l-77.31 0c-14.24,0 -25.77,-11.57 -25.77,-25.82 0,-14.28 11.53,-25.82 25.77,-25.82l77.31 0c14.24,0 25.76,11.55 25.76,25.82 0,14.25 -11.52,25.82 -25.76,25.82zm-154.59 0l-77.29 0c-14.23,0 -25.76,-11.57 -25.76,-25.82 0,-14.28 11.53,-25.82 25.76,-25.82l77.29 0c14.23,0 25.76,11.55 25.76,25.82 0,14.25 -11.53,25.82 -25.76,25.82zm-154.58 0l-77.29 0c-14.25,0 -25.77,-11.57 -25.77,-25.82 0,-14.28 11.52,-25.82 25.77,-25.82l77.29 0c14.24,0 25.76,11.55 25.76,25.82 0,14.25 -11.52,25.82 -25.76,25.82zm-154.58 0l-77.29 0c-14.24,0 -25.76,-11.57 -25.76,-25.82 0,-14.28 11.52,-25.82 25.76,-25.82l77.29 0c14.24,0 25.76,11.55 25.76,25.82 0,14.25 -11.52,25.82 -25.76,25.82z"/>
   <path class="fil3" d="M1018.87 740.29l-68.51 0c-14.24,0 -25.77,-11.57 -25.77,-25.82 0,-14.26 11.53,-25.82 25.77,-25.82l68.51 0c14.23,0 25.76,11.56 25.76,25.82 0,14.25 -11.53,25.82 -25.76,25.82zm-145.8 0l-77.29 0c-14.24,0 -25.76,-11.57 -25.76,-25.82 0,-14.26 11.52,-25.82 25.76,-25.82l77.29 0c14.23,0 25.75,11.56 25.75,25.82 0,14.25 -11.52,25.82 -25.75,25.82zm-154.58 0l-77.31 0c-14.24,0 -25.77,-11.57 -25.77,-25.82 0,-14.26 11.53,-25.82 25.77,-25.82l77.31 0c14.24,0 25.76,11.56 25.76,25.82 0,14.25 -11.52,25.82 -25.76,25.82zm-154.59 0l-77.29 0c-14.23,0 -25.76,-11.57 -25.76,-25.82 0,-14.26 11.53,-25.82 25.76,-25.82l77.29 0c14.23,0 25.76,11.56 25.76,25.82 0,14.25 -11.53,25.82 -25.76,25.82zm-154.58 0l-77.29 0c-14.25,0 -25.77,-11.57 -25.77,-25.82 0,-14.26 11.52,-25.82 25.77,-25.82l77.29 0c14.24,0 25.76,11.56 25.76,25.82 0,14.25 -11.52,25.82 -25.76,25.82zm-154.58 0l-77.29 0c-14.24,0 -25.76,-11.57 -25.76,-25.82 0,-14.26 11.52,-25.82 25.76,-25.82l77.29 0c14.24,0 25.76,11.56 25.76,25.82 0,14.25 -11.52,25.82 -25.76,25.82z"/>
   <path class="fil3" d="M1018.87 901.93l-68.51 0c-14.24,0 -25.77,-11.57 -25.77,-25.82 0,-14.25 11.53,-25.82 25.77,-25.82l68.51 0c14.23,0 25.76,11.57 25.76,25.82 0,14.25 -11.53,25.82 -25.76,25.82zm-145.8 0l-77.29 0c-14.24,0 -25.76,-11.57 -25.76,-25.82 0,-14.25 11.52,-25.82 25.76,-25.82l77.29 0c14.23,0 25.75,11.57 25.75,25.82 0,14.25 -11.52,25.82 -25.75,25.82zm-154.58 0l-77.31 0c-14.24,0 -25.77,-11.57 -25.77,-25.82 0,-14.25 11.53,-25.82 25.77,-25.82l77.31 0c14.24,0 25.76,11.57 25.76,25.82 0,14.25 -11.52,25.82 -25.76,25.82zm-154.59 0l-77.29 0c-14.23,0 -25.76,-11.57 -25.76,-25.82 0,-14.25 11.53,-25.82 25.76,-25.82l77.29 0c14.23,0 25.76,11.57 25.76,25.82 0,14.25 -11.53,25.82 -25.76,25.82zm-154.58 0l-77.29 0c-14.25,0 -25.77,-11.57 -25.77,-25.82 0,-14.25 11.52,-25.82 25.77,-25.82l77.29 0c14.24,0 25.76,11.57 25.76,25.82 0,14.25 -11.52,25.82 -25.76,25.82zm-154.58 0l-77.29 0c-14.24,0 -25.76,-11.57 -25.76,-25.82 0,-14.25 11.52,-25.82 25.76,-25.82l77.29 0c14.24,0 25.76,11.57 25.76,25.82 0,14.25 -11.52,25.82 -25.76,25.82z"/>
   <path class="fil3" d="M1018.87 1063.57l-68.51 0c-14.24,0 -25.77,-11.56 -25.77,-25.82 0,-14.28 11.53,-25.82 25.77,-25.82l68.51 0c14.23,0 25.76,11.55 25.76,25.82 0,14.25 -11.53,25.82 -25.76,25.82zm-145.8 0l-77.29 0c-14.24,0 -25.76,-11.56 -25.76,-25.82 0,-14.28 11.52,-25.82 25.76,-25.82l77.29 0c14.23,0 25.75,11.55 25.75,25.82 0,14.25 -11.52,25.82 -25.75,25.82zm-154.58 0l-77.31 0c-14.24,0 -25.77,-11.56 -25.77,-25.82 0,-14.28 11.53,-25.82 25.77,-25.82l77.31 0c14.24,0 25.76,11.55 25.76,25.82 0,14.25 -11.52,25.82 -25.76,25.82zm-154.59 0l-77.29 0c-14.23,0 -25.76,-11.56 -25.76,-25.82 0,-14.28 11.53,-25.82 25.76,-25.82l77.29 0c14.23,0 25.76,11.55 25.76,25.82 0,14.25 -11.53,25.82 -25.76,25.82zm-154.58 0l-77.29 0c-14.25,0 -25.77,-11.56 -25.77,-25.82 0,-14.28 11.52,-25.82 25.77,-25.82l77.29 0c14.24,0 25.76,11.55 25.76,25.82 0,14.25 -11.52,25.82 -25.76,25.82zm-154.58 0l-77.29 0c-14.24,0 -25.76,-11.56 -25.76,-25.82 0,-14.28 11.52,-25.82 25.76,-25.82l77.29 0c14.24,0 25.76,11.55 25.76,25.82 0,14.25 -11.52,25.82 -25.76,25.82z"/>
  </g>
 </g>
</svg>
