<?xml version="1.0" encoding="UTF-8"?>
<!DOCTYPE svg PUBLIC "-//W3C//DTD SVG 1.1//EN" "http://www.w3.org/Graphics/SVG/1.1/DTD/svg11.dtd">
<!-- Creator: CorelDRAW 2021 (64-Bit) -->
<svg xmlns="http://www.w3.org/2000/svg" xml:space="preserve" width="1.37204in" height="1.37187in" version="1.1" style="shape-rendering:geometricPrecision; text-rendering:geometricPrecision; image-rendering:optimizeQuality; fill-rule:evenodd; clip-rule:evenodd"
viewBox="0 0 161.74 161.72"
 xmlns:xlink="http://www.w3.org/1999/xlink"
 xmlns:xodm="http://www.corel.com/coreldraw/odm/2003">
 <defs>
  <style type="text/css">
   <![CDATA[
    .fil1 {fill:#00008F;fill-rule:nonzero}
    .fil0 {fill:#00B425;fill-rule:nonzero}
   ]]>
  </style>
 </defs>
 <g id="Layer_x0020_1">
  <metadata id="CorelCorpID_0Corel-Layer"/>
  <path class="fil0" d="M124.53 132.61c6.29,0 11.32,5.03 11.32,11.32 0,6.29 -5.03,11.32 -11.32,11.32 -6.29,0 -11.32,-5.03 -11.32,-11.32 0,-6.29 5.03,-11.32 11.32,-11.32z"/>
  <path class="fil0" d="M80.86 132.61c6.29,0 11.32,5.03 11.32,11.32 0,6.29 -5.03,11.32 -11.32,11.32 -6.29,0 -11.32,-5.03 -11.32,-11.32 0,-6.29 5.03,-11.32 11.32,-11.32z"/>
  <path class="fil0" d="M37.2 132.61c6.29,0 11.32,5.03 11.32,11.32 0,6.29 -5.03,11.32 -11.32,11.32 -6.29,0 -11.32,-5.03 -11.32,-11.32 0,-6.29 5.03,-11.32 11.32,-11.32z"/>
  <path class="fil0" d="M124.53 126.14c-9.79,0 -17.79,8 -17.79,17.79 0,9.79 8,17.79 17.79,17.79 9.79,0 17.79,-8 17.79,-17.79 0,-9.79 -8,-17.79 -17.79,-17.79z"/>
  <path class="fil0" d="M80.86 126.14c-9.79,0 -17.79,8 -17.79,17.79 0,9.79 8,17.79 17.79,17.79 9.79,0 17.79,-8 17.79,-17.79 0,-9.79 -8,-17.79 -17.79,-17.79z"/>
  <path class="fil0" d="M37.2 126.14c-9.79,0 -17.79,8 -17.79,17.79 0,9.79 8,17.79 17.79,17.79 9.79,0 17.79,-8 17.79,-17.79 0,-9.79 -8,-17.79 -17.79,-17.79z"/>
  <path class="fil0" d="M143.93 100.27c6.29,0 11.32,5.03 11.32,11.32 0,6.29 -5.03,11.32 -11.32,11.32 -6.29,0 -11.32,-5.03 -11.32,-11.32 0,-6.29 5.03,-11.32 11.32,-11.32z"/>
  <path class="fil0" d="M101.89 100.27c6.29,0 11.32,5.03 11.32,11.32 0,6.29 -5.03,11.32 -11.32,11.32 -6.29,0 -11.32,-5.03 -11.32,-11.32 0,-6.29 5.03,-11.32 11.32,-11.32z"/>
  <path class="fil0" d="M59.84 100.27c6.29,0 11.32,5.03 11.32,11.32 0,6.29 -5.03,11.32 -11.32,11.32 -6.29,0 -11.32,-5.03 -11.32,-11.32 0,-6.29 5.03,-11.32 11.32,-11.32z"/>
  <path class="fil0" d="M17.79 100.27c6.29,0 11.32,5.03 11.32,11.32 0,6.29 -5.03,11.32 -11.32,11.32 -6.29,0 -11.32,-5.03 -11.32,-11.32 0,-6.29 5.03,-11.32 11.32,-11.32z"/>
  <path class="fil0" d="M143.93 93.8c-9.79,0 -17.79,8 -17.79,17.79 0,9.79 8,17.79 17.79,17.79 9.79,0 17.79,-8 17.79,-17.79 0,-9.79 -8,-17.79 -17.79,-17.79z"/>
  <path class="fil0" d="M101.89 93.8c-9.79,0 -17.79,8 -17.79,17.79 0,9.79 8,17.79 17.79,17.79 9.79,0 17.79,-8 17.79,-17.79 0,-9.79 -8,-17.79 -17.79,-17.79z"/>
  <path class="fil0" d="M59.84 93.8c-9.79,0 -17.79,8 -17.79,17.79 0,9.79 8,17.79 17.79,17.79 9.79,0 17.79,-8 17.79,-17.79 0,-9.79 -8,-17.79 -17.79,-17.79z"/>
  <path class="fil0" d="M17.79 93.8c-9.79,0 -17.79,8 -17.79,17.79 0,9.79 8,17.79 17.79,17.79 9.79,0 17.79,-8 17.79,-17.79 0,-9.79 -8,-17.79 -17.79,-17.79z"/>
  <path class="fil1" d="M8.79 48.52l144.13 0 -9.3 16.17 -11.42 0 0.4 -2.43c0.66,-3.95 -2.39,-7.28 -6.16,-7.28l-90.87 0c-3.74,0 -6.67,3.66 -6.06,7.28l0.4 2.43 -11.83 0 -9.3 -16.17z"/>
  <path class="fil1" d="M9.71 35.58l142.31 0c1.79,0 3.23,1.44 3.23,3.23l0 3.23 -148.78 0 0 -3.23c0,-1.79 1.44,-3.23 3.23,-3.23z"/>
  <path class="fil1" d="M135.85 6.47c1.82,0 3.23,1.41 3.23,3.23 0,0.78 -0.28,1.47 -0.71,2.02 -0.23,0.18 -0.43,0.38 -0.61,0.61 -0.53,0.38 -1.2,0.61 -1.92,0.61 -1.82,0 -3.23,-1.42 -3.23,-3.23 0,-1.82 1.42,-3.23 3.23,-3.23z"/>
  <path class="fil1" d="M135.85 0c-5.32,0 -9.7,4.38 -9.7,9.7 0,5.32 4.38,9.7 9.7,9.7 1.68,0 3.26,-0.45 4.65,-1.21 2.06,1.48 3.31,2.89 4.14,4.55 0.81,1.6 1.24,3.65 1.42,6.37l-136.35 0c-5.32,0 -9.7,4.38 -9.7,9.7l0 6.47c-0.01,0.57 0.13,1.13 0.4,1.62l12.94 22.64c0.58,1.01 1.67,1.63 2.83,1.62l14.76 0 3.74 23.15c0.09,1.21 0.86,2.28 1.98,2.74 1.12,0.47 2.43,0.27 3.35,-0.53 0.92,-0.8 1.33,-2.03 1.04,-3.22l-5.15 -31.84 90.26 0 -5.15 31.84c-0.29,1.19 0.11,2.43 1.04,3.22 0.92,0.8 2.22,1 3.35,0.53 1.13,-0.47 1.89,-1.53 1.98,-2.74l3.84 -23.15 14.35 0c1.16,0.01 2.25,-0.61 2.83,-1.62l12.64 -22.24c0.11,-0.13 0.21,-0.26 0.3,-0.4 0.04,-0.04 0.06,-0.06 0.1,-0.1 0,-0.06 0,-0.14 0,-0.2 0.04,-0.04 0.06,-0.06 0.1,-0.1 0.04,-0.06 0.08,-0.14 0.1,-0.2 0,-0.04 0,-0.06 0,-0.1 0,-0.06 0,-0.14 0,-0.2 0.04,-0.04 0.06,-0.06 0.1,-0.1 0,-0.06 0,-0.14 0,-0.2 0,-0.04 0,-0.06 0,-0.1 0,-0.06 0,-0.14 0,-0.2 0,-0.04 0,-0.06 0,-0.1 0.03,-0.24 0.03,-0.47 0,-0.71l0 -5.76c0,-5.14 -4.12,-9.32 -9.2,-9.6 -0.15,-3.52 -0.64,-6.63 -2.02,-9.4 -1.26,-2.54 -3.16,-4.7 -5.66,-6.57 0.44,-1.1 0.71,-2.29 0.71,-3.54 0,-5.32 -4.38,-9.7 -9.7,-9.7z"/>
 </g>
</svg>
