<?xml version="1.0" encoding="UTF-8"?>
<!DOCTYPE svg PUBLIC "-//W3C//DTD SVG 1.1//EN" "http://www.w3.org/Graphics/SVG/1.1/DTD/svg11.dtd">
<!-- Creator: CorelDRAW 2021 (64-Bit) -->
<svg xmlns="http://www.w3.org/2000/svg" xml:space="preserve" width="0.780295in" height="0.800567in" version="1.1" style="shape-rendering:geometricPrecision; text-rendering:geometricPrecision; image-rendering:optimizeQuality; fill-rule:evenodd; clip-rule:evenodd"
viewBox="0 0 50.77 52.09"
 xmlns:xlink="http://www.w3.org/1999/xlink"
 xmlns:xodm="http://www.corel.com/coreldraw/odm/2003">
 <defs>
  <style type="text/css">
   <![CDATA[
    .fil0 {fill:#003399;fill-rule:nonzero}
   ]]>
  </style>
 </defs>
 <g id="Layer_x0020_1">
  <metadata id="CorelCorpID_0Corel-Layer"/>
  <g id="_2901495744400">
   <g id="surface1">
    <path class="fil0" d="M23.73 0c-15.41,0 -23.73,11.32 -23.73,21.97 0,5.66 2.2,9.97 4.34,14.15 1.83,3.57 3.57,6.94 3.57,10.76l0 5.2 27.12 0 0 -3.4 2.12 0c5.05,0 9.18,-4.14 9.18,-9.2l0 -4.78 2.19 -0.92c0.97,-0.41 1.7,-1.2 2.05,-2.19 0.34,-1 0.26,-2.09 -0.25,-3.01l-4.63 -8.35c-1.63,-13.05 -9.43,-20.24 -21.96,-20.24zm0 13.59c5.62,0 10.17,4.56 10.17,10.19 0,3.92 -2.23,7.32 -5.47,9.02 -0.56,0.99 -1.02,2.07 -1.2,3.43l-6.96 0c-0.18,-1.35 -0.68,-2.44 -1.24,-3.43 -3.26,-1.7 -5.47,-5.09 -5.47,-9.02 0,-5.63 4.55,-10.19 10.17,-10.19zm-2.82 9.06c-0.94,0 -1.69,0.76 -1.69,1.7 0,0.94 0.76,1.7 1.69,1.7 0.59,0 1.11,-0.29 1.41,-0.74 0.17,0.2 0.28,0.45 0.28,0.74l0 7.93 2.26 0 0 -7.93c0,-0.29 0.11,-0.54 0.28,-0.74 0.3,0.45 0.83,0.74 1.41,0.74 0.94,0 1.69,-0.76 1.69,-1.7 0,-0.94 -0.76,-1.7 -1.69,-1.7l-0.57 0c-0.87,0 -1.66,0.34 -2.26,0.88 -0.6,-0.54 -1.39,-0.88 -2.26,-0.88l-0.56 0zm-0.56 15.85l6.78 0 0 1.13c0,0.92 -0.56,1.7 -1.34,2.05 -0.35,0.79 -1.13,1.34 -2.05,1.34 -0.92,0 -1.69,-0.56 -2.05,-1.34 -0.79,-0.35 -1.34,-1.13 -1.34,-2.05l0 -1.13z"/>
   </g>
  </g>
 </g>
</svg>
